<svg xmlns="http://www.w3.org/2000/svg" width="189" height="379" viewBox="0 0 189 379">
    <path fill="#FFF" fill-rule="nonzero" d="M98.052 316.006c-31.45 25.78-71.736 40.538-115.13 38.856-95.709-3.664-170.385-85.928-166.798-183.68C-180.235 73.486-97.786 2.38 1.945.602c1.016 0 1.984 0 2.95-.044l.002-.01a220.557 220.557 0 0 1 .2 0c86.568-.177 173.376 50.6 121.059 121.176 18.467 4.065 38.049 10.765 58.844 20.929-79.242 4.199-92.683 53.466-86.367 105.953-1.845-33.324 3.594-73.376 43.277-90.17C261.811 269.043 128.492 383.986 12 378.428c45.45-12.45 69.04-31.682 83.595-57.138a66.905 66.905 0 0 0 2.457-5.284zm-1.55-55.33C70.042 208.756-24.539 159.245-72 153.255c1.01-.227 2.025-.467 3.047-.719a288.343 288.343 0 0 0-3.047-.633C162.72 81.346 96.335 10.788 15.68 5.752a91.948 91.948 0 0 0-12.417 0l.01-.031c-63.268 3.604-133.89 61.234-136.658 134.043-2.99 78.546 59.513 144.601 139.624 147.543 33.589 1.243 64.954-8.797 90.263-26.632z" opacity=".08" style="mix-blend-mode:overlay"/>
</svg>
