<svg xmlns="http://www.w3.org/2000/svg" width="288" height="131" viewBox="0 0 288 131">
    <path fill="#FFF" fill-rule="nonzero" d="M539.625 172.693c-30.25 38.544-119.387 23.967-184.132-4.18C290.538 140.506 250.15 98.965 206.6 76.599c-43.551-22.367-89.918-25.486-145.684-46.99C5.149 8.106-59.841-31.745-77.722-83.978c-17.706-52.197 11.734-116.95 44.387-181.383C-.855-329.832 34.874-394.16 87.68-397.32c52.631-3.197 122.512 54.809 200.327 54.052 77.64-.795 163.04-60.39 239.823-59.728 76.958.7 145.3 61.656 141.197 130.702-4.066 68.871-80.405 145.869-104.341 230.18-23.762 84.35 5.015 176.226-25.06 214.806z" opacity=".05" style="mix-blend-mode:overlay"/>
</svg>
