<svg xmlns="http://www.w3.org/2000/svg" width="146" height="242" viewBox="0 0 146 242">
    <g fill="#FFF" fill-rule="nonzero" opacity=".099">
        <path d="M123.066 98.964c12.628 0 22.864-10.236 22.864-22.86 0-12.636-10.236-22.868-22.864-22.868h-49.24V76.1c0 12.632-10.232 22.864-22.86 22.864h-22.86v65.42c0 42.412 34.5 76.916 76.908 76.916 12.636 0 22.864-10.228 22.864-22.86s-10.228-22.864-22.864-22.864c-17.2 0-31.188-13.988-31.188-31.192v-65.42h49.24z" style="mix-blend-mode:overlay"/>
        <path d="M50.968 53.236h22.86V6.864C73.828-5.764 63.592-16 50.964-16 38.332-16 28.1-5.764 28.1 6.864V53.24h-49.236C-33.768 53.24-44 63.472-44 76.1c0 12.632 10.232 22.864 22.864 22.864h49.24v-22.86c0-12.632 10.228-22.868 22.864-22.868" style="mix-blend-mode:overlay"/>
    </g>
</svg>
