<svg xmlns="http://www.w3.org/2000/svg" width="48" height="48" viewBox="0 0 48 48">
    <g fill="none" fill-rule="evenodd">
        <g fill-rule="nonzero">
            <g>
                <g transform="translate(-32 -72) translate(16 56) translate(16 16)">
                    <circle cx="24" cy="24" r="24" fill="#FFF"/>
                    <g fill="#5C5C5C">
                        <path d="M21.248.973c2.071 0 3.75 1.679 3.75 3.75v11.28l-.003.083.003.037c0 .036-.003.072-.008.107-.116 1.965-1.747 3.523-3.742 3.523h-5.109l.489 2.819h1.62c.38 0 .693.283.743.65l.007.1c0 .415-.336.75-.75.75h-10.5c-.414 0-.75-.335-.75-.75 0-.413.336-.75.75-.75h1.619l.489-2.82H4.748c-1.995 0-3.626-1.557-3.743-3.523-.004-.034-.007-.07-.007-.106v-.036V4.723c0-2.071 1.679-3.75 3.75-3.75h16.5zm-6.631 18.78h-3.238l-.49 2.82h4.218l-.49-2.82zm8.707-2.88H2.672c.34.81 1.142 1.38 2.076 1.38h16.5c.934 0 1.736-.57 2.076-1.38zm-2.076-14.4h-16.5c-1.243 0-2.25 1.007-2.25 2.25v5.319l2.7-2.59c.246-.237.566-.381.904-.413l.146-.007c.392 0 .77.15 1.05.42l1.94 1.861.01.002.012-.002 3.969-3.811c.298-.287.773-.277 1.06.021.287.3.277.774-.022 1.06L10.3 10.396c-.282.27-.659.42-1.05.42-.392 0-.77-.15-1.05-.42l-1.94-1.861-.01-.002c-.007 0-.011.001-.012.002l-3.739 3.588v3.25h21V4.722c0-1.242-1.007-2.25-2.25-2.25zm-6 7.14c.414 0 .75.336.75.75v2.16c0 .414-.336.75-.75.75s-.75-.336-.75-.75v-2.16c0-.414.336-.75.75-.75zm6 0c.414 0 .75.336.75.75v2.16c0 .414-.336.75-.75.75s-.75-.336-.75-.75v-2.16c0-.414.336-.75.75-.75zm-3-2.16c.414 0 .75.336.75.75v4.32c0 .414-.336.75-.75.75s-.75-.336-.75-.75v-4.32c0-.414.336-.75.75-.75z" transform="translate(11 11)"/>
                    </g>
                </g>
            </g>
        </g>
    </g>
</svg>
