<svg xmlns="http://www.w3.org/2000/svg" width="100" height="72" viewBox="0 0 100 72">
    <g fill="none" fill-rule="evenodd">
        <g>
            <g>
                <g>
                    <path d="M0 0H100V72H0z" transform="translate(-574 -270) translate(442 218) translate(132 52)"/>
                    <g>
                        <g>
                            <path fill="#DFEFFF" d="M11 5h48c3.314 0 6 2.686 6 6v21.641c0 3.314-2.686 6-6 6H5V11c0-3.314 2.686-6 6-6z" transform="translate(-574 -270) translate(442 218) translate(132 52) translate(13 16)"/>
                            <path fill="#6680AD" fill-rule="nonzero" d="M53.645.289H6.238C3.013.289.372 2.856.254 6.053l-.004.224v27.446c0 3.225 2.567 5.866 5.764 5.984l.224.004h47.407c3.225 0 5.865-2.567 5.984-5.764l.004-.224V6.277c0-3.225-2.567-5.866-5.764-5.984L53.645.29zm0 1.995c2.135 0 3.884 1.684 3.988 3.794l.005.199v27.446c0 2.135-1.684 3.884-3.794 3.988l-.199.005H6.238c-2.135 0-3.884-1.684-3.988-3.794l-.005-.199V6.277c0-2.135 1.684-3.884 3.794-3.988l.199-.005h47.407z" transform="translate(-574 -270) translate(442 218) translate(132 52) translate(13 16)"/>
                            <path fill="#FFF" d="M1 9H58V16H1z" transform="translate(-574 -270) translate(442 218) translate(132 52) translate(13 16)"/>
                            <path fill="#6680AD" fill-rule="nonzero" d="M58.635 7.774H1.248c-.512 0-.934.386-.991.882l-.007.116v7.485c0 .512.385.934.881.991l.117.007h57.388c.51 0 .933-.386.99-.881l.007-.117V8.772c0-.511-.385-.933-.881-.991l-.117-.007zm-.997 1.995v5.49H2.245V9.77h55.393zM8.733 25.24h14.97c.551 0 .998.447.998.998 0 .55-.447.997-.997.997H8.733c-.55 0-.998-.447-.998-.997s.447-.998.998-.998zM8.733 30.23h14.97c.551 0 .998.447.998.998 0 .55-.447.998-.997.998H8.733c-.55 0-.998-.447-.998-.998 0-.55.447-.998.998-.998z" transform="translate(-574 -270) translate(442 218) translate(132 52) translate(13 16)"/>
                        </g>
                        <g fill-rule="nonzero">
                            <path fill="#FFF" d="M13 0C11.352 0 9.84.891 9.037 2.318l-.105.198L.485 19.407l-.105.226c-.597 1.366-.486 2.94.3 4.211.787 1.274 2.147 2.074 3.633 2.15l.235.007H21.44l.226-.006c1.497-.07 2.865-.874 3.655-2.151.785-1.27.894-2.84.305-4.2l-.105-.224-8.447-16.895-.102-.192C16.171.894 14.651 0 13 0z" transform="translate(-574 -270) translate(442 218) translate(132 52) translate(13 16) translate(48 14)"/>
                            <path fill="#F69B31" d="M13 0C11.352 0 9.84.891 9.037 2.318l-.105.198L.485 19.407l-.105.226c-.597 1.366-.486 2.94.3 4.211.787 1.274 2.147 2.074 3.633 2.15l.235.007H21.44l.226-.006c1.497-.07 2.865-.874 3.655-2.151.785-1.27.894-2.84.305-4.2l-.105-.224-8.447-16.895-.102-.192C16.171.894 14.651 0 13 0zm0 2c.905 0 1.738.48 2.193 1.251l.087.158 8.461 16.924.08.181c.297.747.223 1.592-.201 2.278-.434.701-1.177 1.146-1.992 1.202l-.176.006H4.528l-.182-.008c-.808-.064-1.538-.509-1.965-1.2-.431-.697-.499-1.556-.19-2.307l.078-.172 8.46-16.921.09-.162C11.28 2.468 12.108 2 13 2zM13 18l-.19.01c-.883.096-1.559.845-1.559 1.74 0 .967.784 1.75 1.75 1.75.967 0 1.75-.783 1.75-1.75 0-.842-.599-1.555-1.382-1.714l-.15-.023L13 18zM13 7.5c-.513 0-.935.386-.993.884L12 8.5v5.967l.01.17c.066.492.489.863.99.863.513 0 .936-.386.993-.883L14 14.5l.001-5.966-.01-.17c-.067-.492-.49-.864-.99-.864z" transform="translate(-574 -270) translate(442 218) translate(132 52) translate(13 16) translate(48 14)"/>
                        </g>
                    </g>
                </g>
            </g>
        </g>
    </g>
</svg>
