<svg xmlns="http://www.w3.org/2000/svg" width="100" height="72" viewBox="0 0 100 72">
    <g fill="none" fill-rule="evenodd">
        <g>
            <g>
                <g>
                    <g>
                        <path d="M0 0H100V72H0z" transform="translate(-138 -246) translate(0 40) translate(16 206) translate(122)"/>
                        <g>
                            <g transform="translate(-138 -246) translate(0 40) translate(16 206) translate(122) translate(25 17) translate(12)">
                                <circle cx="27.3" cy="10.4" r="2.6" fill="#C4D4E3" fill-rule="nonzero"/>
                                <circle cx="18.2" cy="10.4" r="2.6" fill="#C4D4E3" fill-rule="nonzero"/>
                                <circle cx="9.1" cy="10.4" r="2.6" fill="#C4D4E3" fill-rule="nonzero"/>
                                <g>
                                    <path fill="#DFEFFF" d="M22.616 18.843c-.773-.36-1.686-.232-2.33.328-.6.523-.86 1.331-.686 2.098l.043.164L24.2 35.986c.22.701.78 1.241 1.488 1.436.708.194 1.466.015 2.012-.475.09-.082.166-.18.22-.288l.048-.112 2.186-6.145.147-.128 6.034-1.278c.168-.035.324-.115.452-.23.537-.484.796-1.205.69-1.92-.1-.661-.498-1.235-1.074-1.56l-.148-.076-13.64-6.367z"/>
                                    <path fill="#6680AD" fill-rule="nonzero" d="M22.616 18.843c-.773-.36-1.686-.232-2.33.328-.6.523-.86 1.331-.686 2.098l.043.164L24.2 35.986c.22.701.78 1.241 1.488 1.436.708.194 1.466.015 2.012-.475.09-.082.166-.18.22-.288l.048-.112 2.186-6.145.147-.128 6.034-1.278c.168-.035.324-.115.452-.23.537-.484.796-1.205.69-1.92-.1-.661-.498-1.235-1.074-1.56l-.148-.076-13.64-6.367zm3.56 16.906l-4.799-15.325 14.355 6.7-6.481 1.372c-.292.062-.536.252-.67.513l-.05.116-2.355 6.624zM3.54.199L3.35.206C1.65.297.296 1.662.205 3.352L.2 3.534v14.132l.005.189c.092 1.702 1.457 3.055 3.147 3.146l.182.005h10.593l.11-.005c.497-.05.879-.47.879-.973 0-.501-.378-.915-.864-.971l-.115-.007H3.524l-.13-.007c-.657-.067-1.17-.59-1.232-1.24l-.006-.131V3.524l.007-.13c.067-.657.59-1.17 1.24-1.232l.131-.006H31.82l.131.007c.656.067 1.17.59 1.231 1.24l.006.131v14.148l-.007.137c-.062.584-.49 1.06-1.063 1.195l-.134.025-.274.016c-.496.05-.878.47-.878.973 0 .54.438.978.978.978 1.78 0 3.235-1.395 3.33-3.151l.005-.183V3.54l-.005-.189C35.047 1.65 33.682.296 31.992.205L31.809.2H3.54z"/>
                                </g>
                            </g>
                            <g fill-rule="nonzero">
                                <path fill="#FFF" d="M13 0C11.352 0 9.84.891 9.037 2.318l-.105.198L.485 19.407l-.105.226c-.597 1.366-.486 2.94.3 4.211.787 1.274 2.147 2.074 3.633 2.15l.235.007H21.44l.226-.006c1.497-.07 2.865-.874 3.655-2.151.785-1.27.894-2.84.305-4.2l-.105-.224-8.447-16.895-.102-.192C16.171.894 14.651 0 13 0z" transform="translate(-138 -246) translate(0 40) translate(16 206) translate(122) translate(25 17) translate(0 11)"/>
                                <path fill="#F69B31" d="M13 0C11.352 0 9.84.891 9.037 2.318l-.105.198L.485 19.407l-.105.226c-.597 1.366-.486 2.94.3 4.211.787 1.274 2.147 2.074 3.633 2.15l.235.007H21.44l.226-.006c1.497-.07 2.865-.874 3.655-2.151.785-1.27.894-2.84.305-4.2l-.105-.224-8.447-16.895-.102-.192C16.171.894 14.651 0 13 0zm0 2c.905 0 1.738.48 2.193 1.251l.087.158 8.461 16.924.08.181c.297.747.223 1.592-.201 2.278-.434.701-1.177 1.146-1.992 1.202l-.176.006H4.528l-.182-.008c-.808-.064-1.538-.509-1.965-1.2-.431-.697-.499-1.556-.19-2.307l.078-.172 8.46-16.921.09-.162C11.28 2.468 12.108 2 13 2zM13 18l-.19.01c-.883.096-1.559.845-1.559 1.74 0 .967.784 1.75 1.75 1.75.967 0 1.75-.783 1.75-1.75 0-.842-.599-1.555-1.382-1.714l-.15-.023L13 18zM13 7.5c-.513 0-.935.386-.993.884L12 8.5v5.967l.01.17c.066.492.489.863.99.863.513 0 .936-.386.993-.883L14 14.5l.001-5.966-.01-.17c-.067-.492-.49-.864-.99-.864z" transform="translate(-138 -246) translate(0 40) translate(16 206) translate(122) translate(25 17) translate(0 11)"/>
                            </g>
                        </g>
                    </g>
                </g>
            </g>
        </g>
    </g>
</svg>
