<svg xmlns="http://www.w3.org/2000/svg" width="24" height="24" viewBox="0 0 24 24">
    <g fill="none" fill-rule="evenodd">
        <g fill="#5C5C5C" fill-rule="nonzero">
            <g>
                <g>
                    <g>
                        <path d="M14.709.999l.158.008c.422.044.808.266 1.06.614.282.392.359.895.206 1.352L15.79 4h2.96c1.19 0 2.166.925 2.245 2.096l.005.154v3c0 .414-.336.75-.75.75s-.75-.336-.75-.75v-3c0-.414-.336-.75-.75-.75h-3.46l-.158.475c-.204.612-.777 1.025-1.423 1.025H7.291c-.646 0-1.219-.413-1.424-1.026L5.71 5.5H2.25c-.38 0-.693.282-.743.648L1.5 6.25v16.5c0 .414.336.75.75.75h6c.414 0 .75.336.75.75s-.336.75-.75.75h-6c-1.243 0-2.25-1.007-2.25-2.25v-16.5c0-1.243 1.007-2.25 2.25-2.25h2.959l-.341-1.025c-.154-.458-.077-.961.205-1.353.283-.392.737-.623 1.218-.622h8.418zm7.041 10.5c1.243 0 2.25 1.007 2.25 2.25v9c0 1.243-1.007 2.25-2.25 2.25h-9c-1.243 0-2.25-1.007-2.25-2.25v-9c0-1.243 1.007-2.25 2.25-2.25h9zm0 1.5h-9c-.414 0-.75.336-.75.75v9c0 .414.336.75.75.75h9c.414 0 .75-.336.75-.75v-9c0-.414-.336-.75-.75-.75zm-5.25 7.5c.414 0 .75.336.75.75s-.336.75-.75.75h-2.25c-.414 0-.75-.336-.75-.75s.336-.75.75-.75zm3.75-3c.414 0 .75.336.75.75s-.336.75-.75.75h-6c-.414 0-.75-.336-.75-.75s.336-.75.75-.75zm0-3c.414 0 .75.336.75.75s-.336.75-.75.75h-6c-.414 0-.75-.336-.75-.75s.336-.75.75-.75zm-5.541-12H6.291l1 3h6.418l1-3z" transform="translate(-416.000000, -656.000000) translate(202.000000, 292.000000) translate(194.000000, 352.000000) translate(20.000000, 11.000000)"/>
                    </g>
                </g>
            </g>
        </g>
    </g>
</svg>
