<svg xmlns="http://www.w3.org/2000/svg" width="100" height="72" viewBox="0 0 100 72">
    <g fill="none" fill-rule="evenodd">
        <path d="M0 0H100V72H0z"/>
        <g transform="translate(21 16)">
            <rect width="42" height="28" x="6" y="11" fill="#C1E0FF" opacity=".5" rx="6"/>
            <rect width="15" height="11" x="28" y="17" fill="#FFF" rx="5.5"/>
            <path fill="#6680AD" fill-rule="nonzero" stroke="#FFF" stroke-width=".5" d="M40.199 5.61c-.24-3.101-2.84-5.552-6.002-5.552H6.022C2.702.058 0 2.759 0 6.08v27.862c0 3.32 2.701 6.022 6.022 6.022h32.55c3.32 0 6.021-2.701 6.021-6.022V11.407c0-2.756-1.862-5.084-4.394-5.796zM6.022 2.87h28.175c1.531 0 2.814 1.079 3.132 2.515H6.022c-1.179 0-2.28.342-3.209.93V6.08c0-1.77 1.44-3.21 3.209-3.21h0zm32.55 34.28H6.021c-1.77 0-3.209-1.439-3.209-3.208V11.407c0-1.77 1.44-3.209 3.209-3.209h32.55c1.768 0 3.208 1.44 3.208 3.21v4.908h-8.97c-3.554 0-6.445 2.892-6.445 6.446s2.891 6.446 6.446 6.446h8.969v4.734c0 1.77-1.44 3.209-3.209 3.209h0zm3.208-10.755h-8.97c-2.002 0-3.632-1.63-3.632-3.633s1.63-3.633 3.633-3.633h8.969v7.266z"/>
            <circle cx="33.333" cy="22.869" r="1.464" fill="#6680AD" fill-rule="nonzero"/>
            <g>
                <path fill="#FFF" d="M13.5 1.564L10.25 3.922 1.704 21.879 3.829 25.641 23.038 25.641 25.515 21.879 15.75 2.281z" transform="translate(32 13)"/>
                <path fill="#F69B31" fill-rule="nonzero" stroke="#FFF" stroke-width=".8" d="M13.5 0c1.913 0 3.661 1.08 4.516 2.791h0l8.452 16.904c.782 1.565.698 3.424-.222 4.912C25.326 26.094 23.7 27 21.952 27h0H5.048c-1.75 0-3.374-.906-4.294-2.393-.92-1.488-1.004-3.347-.222-4.912h0L8.984 2.792C9.84 1.08 11.587 0 13.5 0zm0 3c-.776 0-1.485.438-1.832 1.133h0L3.216 21.037c-.317.634-.283 1.388.09 1.992.373.604 1.032.971 1.742.971h16.904c.71 0 1.369-.367 1.742-.971s.407-1.358.09-1.992h0L15.332 4.132C14.985 3.438 14.276 3 13.5 3zm0 15l.245.013c1.127.122 2.005 1.077 2.005 2.237 0 1.243-1.007 2.25-2.25 2.25s-2.25-1.007-2.25-2.25c0-1.16.878-2.115 2.005-2.237L13.5 18zm0-10.5c.76 0 1.387.564 1.486 1.296L15 9v6c0 .828-.672 1.5-1.5 1.5-.76 0-1.387-.564-1.486-1.296L12 15V9c0-.828.672-1.5 1.5-1.5z" transform="translate(32 13)"/>
            </g>
        </g>
    </g>
</svg>
