<svg xmlns="http://www.w3.org/2000/svg" width="100" height="72" viewBox="0 0 100 72">
    <g fill="none" fill-rule="evenodd">
        <g>
            <g>
                <g>
                    <g>
                        <path d="M0 0H100V72H0z" transform="translate(-574 -224) translate(442 208) translate(24 16) translate(108)"/>
                        <g>
                            <path fill="#DFEFFF" d="M17.39 28.768l13.162-17.24 10.233 18.708c.795 1.454.261 3.277-1.192 4.072-.268.146-.557.251-.856.31l-16.334 3.24-5.013-9.09zM8.945 33.778l8.218-5.01 5.29 9.669-8.237 5.02-.328.183c-2.486 1.267-5.496.292-6.88-2.238-.464-.848-.709-1.81-.709-2.784 0-1.906.93-3.69 2.445-4.711l.2-.129z" transform="translate(-574 -224) translate(442 208) translate(24 16) translate(108) translate(23 9)"/>
                            <path fill="#6680AD" fill-rule="nonzero" d="M29.442 2.527l-.118-.006-.028.005-.248.008h-.193c-.801 0-1.597.498-2.182 1.356l-.122.19-13.757 18.496-8.843 5.341-.367.238c-3.16 2.182-4.22 6.567-2.456 10.067l.125.237.203.351.237.363c1.745 2.52 4.772 3.67 7.6 2.948l.264-.073.785-.268 5.29 9.669.167.284c1.176 1.838 3.48 2.455 5.322 1.46l.183-.106.263-.172.276-.215c1.542-1.3 2.005-3.575 1.104-5.431l-.102-.197-3.17-5.795L22.4 39.62l.124-.08.153-.148c.266-.307.339-.75.188-1.133l-.058-.125-1.393-2.545 20.23-4.184.241-.021.27-.05c1.909-.441 2.945-2.77 2.039-4.672l-.088-.171-3.503-6.403 2.222-3.543.1-.19c.118-.275.12-.587.01-.86l-.055-.116-2.079-3.803-.076-.13-.12-.142c-.174-.176-.401-.28-.64-.296h-.12l-4.064.257-3.875-7.083-.161-.27c-.537-.81-1.374-1.31-2.304-1.385zM12.12 40.762l3.705-2.261 5.41 9.942c.366.975.042 2.092-.813 2.705l-.148.098-.245.123c-.932.388-1.993.036-2.551-.824l-.088-.148-5.27-9.635zM4.945 29.778l8.218-5.01 5.29 9.669-8.237 5.02-.328.183c-2.486 1.267-5.496.292-6.88-2.238-.464-.848-.709-1.81-.709-2.784 0-1.906.93-3.69 2.445-4.711l.2-.129zm12.631 7.657l1.89-1.149 1.084 1.99-1.884 1.153-1.09-1.994zM14.75 23.399l11.802-15.87 12.195 22.294-18.403 3.81-5.594-10.234zM29.22 4.654l.124.01c.293.037.549.19.729.448l.072.118 12.245 22.4.079.214c.164.652-.251 1.334-.898 1.427l-.182.012-.556.087L27.9 5.726l.22-.307.331-.452c.181-.186.408-.288.65-.309l.12-.004zm7.69 8.678l2.433-.152 1.474 2.698-1.344 2.144-2.563-4.69z" transform="translate(-574 -224) translate(442 208) translate(24 16) translate(108) translate(23 9)"/>
                            <path fill="#F69B31" fill-rule="nonzero" d="M52.44 4.85l-5.852 3.436c-.506.298-.689.973-.406 1.508.281.534.92.728 1.428.43l5.85-3.438c.507-.298.69-.973.407-1.507-.282-.536-.921-.728-1.428-.43zM51.826 16.33l-4.057-1.148c-.56-.159-1.136.192-1.286.784-.15.591.182 1.199.742 1.357l4.058 1.147c.563.16 1.136-.196 1.286-.783.15-.592-.183-1.2-.743-1.358zM41.63.822l-1.087 4.283c-.15.591.182 1.199.742 1.358.56.158 1.136-.192 1.286-.784l1.088-4.283c.15-.592-.182-1.2-.742-1.358-.56-.158-1.136.192-1.286.784z" transform="translate(-574 -224) translate(442 208) translate(24 16) translate(108) translate(23 9)"/>
                        </g>
                    </g>
                </g>
            </g>
        </g>
    </g>
</svg>
