<svg xmlns="http://www.w3.org/2000/svg" width="100" height="72" viewBox="0 0 100 72">
    <g fill="none" fill-rule="evenodd">
        <path d="M0 0H100V72H0z"/>
        <g>
            <path fill="#C1E0FF" d="M11 5h48c3.314 0 6 2.686 6 6v21.641c0 3.314-2.686 6-6 6H5V11c0-3.314 2.686-6 6-6z" opacity=".5" transform="translate(13 16)"/>
            <path fill="#6680AD" fill-rule="nonzero" d="M53.645.039H6.238C2.8.039 0 2.839 0 6.277v27.446c0 3.439 2.8 6.238 6.238 6.238h47.407c3.438 0 6.238-2.8 6.238-6.238V6.277c0-3.439-2.8-6.238-6.238-6.238zm3.743 33.684c0 2.064-1.68 3.743-3.743 3.743H6.238c-2.064 0-3.743-1.68-3.743-3.743V6.277c0-2.064 1.68-3.743 3.743-3.743h47.407c2.064 0 3.743 1.68 3.743 3.743v27.446z" transform="translate(13 16)"/>
            <path fill="#FFF" d="M1 9H58V16H1z" transform="translate(13 16)"/>
            <path fill="#6680AD" fill-rule="nonzero" d="M58.635 7.524H1.248C.558 7.524 0 8.084 0 8.772v7.485c0 .689.559 1.248 1.248 1.248h57.388c.688 0 1.247-.559 1.247-1.248V8.772c0-.689-.559-1.248-1.248-1.248zm-1.247 7.486H2.495v-4.99h54.893v4.99zM23.704 24.99H8.733c-.689 0-1.248.56-1.248 1.248 0 .689.56 1.247 1.248 1.247h14.97c.69 0 1.248-.559 1.248-1.247 0-.689-.559-1.248-1.247-1.248zM23.704 29.98H8.733c-.689 0-1.248.56-1.248 1.248 0 .689.56 1.248 1.248 1.248h14.97c.69 0 1.248-.56 1.248-1.248 0-.689-.559-1.248-1.247-1.248z" transform="translate(13 16)"/>
            <g>
                <path fill="#FFF" d="M13.5 1.564L10.25 3.922 1.704 21.879 3.829 25.641 23.038 25.641 25.515 21.879 15.75 2.281z" transform="translate(13 16) translate(47 13)"/>
                <path fill="#F69B31" fill-rule="nonzero" stroke="#FFF" stroke-width=".8" d="M13.5 0c1.913 0 3.661 1.08 4.516 2.791h0l8.452 16.904c.782 1.565.698 3.424-.222 4.912C25.326 26.094 23.7 27 21.952 27h0H5.048c-1.75 0-3.374-.906-4.294-2.393-.92-1.488-1.004-3.347-.222-4.912h0L8.984 2.792C9.84 1.08 11.587 0 13.5 0zm0 3c-.776 0-1.485.438-1.832 1.133h0L3.216 21.037c-.317.634-.283 1.388.09 1.992.373.604 1.032.971 1.742.971h16.904c.71 0 1.369-.367 1.742-.971s.407-1.358.09-1.992h0L15.332 4.132C14.985 3.438 14.276 3 13.5 3zm0 15l.245.013c1.127.122 2.005 1.077 2.005 2.237 0 1.243-1.007 2.25-2.25 2.25s-2.25-1.007-2.25-2.25c0-1.16.878-2.115 2.005-2.237L13.5 18zm0-10.5c.76 0 1.387.564 1.486 1.296L15 9v6c0 .828-.672 1.5-1.5 1.5-.76 0-1.387-.564-1.486-1.296L12 15V9c0-.828.672-1.5 1.5-1.5z" transform="translate(13 16) translate(47 13)"/>
            </g>
        </g>
    </g>
</svg>
