<svg xmlns="http://www.w3.org/2000/svg" width="100" height="72" viewBox="0 0 100 72">
    <g fill="none" fill-rule="evenodd">
        <g>
            <g>
                <g>
                    <path d="M0 0H100V72H0z" transform="translate(-574 -198) translate(442 146) translate(132 52)"/>
                    <g>
                        <g>
                            <path fill="#DFEFFF" d="M44.745 53.36c0 .904-.736 1.64-1.641 1.64H8.262c-.905 0-1.641-.736-1.641-1.64V8.921c0-.905.736-1.64 1.64-1.64h23.64c1.657 0 3 1.342 3 3v5.202c0 .906.734 1.641 1.64 1.641h5.204c1.656 0 3 1.343 3 3v33.234z" transform="translate(-574 -198) translate(442 146) translate(132 52) translate(24 8) matrix(-1 0 0 1 51.366 0)"/>
                            <g fill="#6680AD" fill-rule="nonzero">
                                <path d="M32.664.706L32.429.7H4.262C2.08.7.269 2.368.06 4.505l-.015.208-.005.209v46.156c0 2.181 1.668 3.993 3.804 4.202l.209.015.209.005h32.812c2.181 0 3.993-1.668 4.202-3.805l.015-.208.005-.209V9.562c0-.971-.324-1.891-.923-2.636l-.155-.182-.159-.167-4.64-4.64C34.732 1.25 33.852.829 32.903.725l-.239-.019zm-3.093 1.875v8.903c0 .445.31.822.722.917l.105.018.114.006h8.903v38.653c0 1.176-.873 2.16-2.023 2.319l-.158.016-.16.006H4.262c-1.176 0-2.16-.873-2.319-2.023l-.016-.158-.006-.16V4.922c0-1.176.873-2.16 2.023-2.319l.158-.016.16-.006H29.57zm1.881 0h.976c.512.013.857.108 1.247.353.065.042.129.086.192.136l.095.079.127.118 4.64 4.64c.129.129.24.267.332.414.218.345.316.654.345 1.08l.008.191.001.952h-7.963V2.58z" transform="translate(-574 -198) translate(442 146) translate(132 52) translate(24 8) matrix(-1 0 0 1 41.336 0)"/>
                            </g>
                            <path fill="#6680AD" fill-rule="nonzero" d="M7.64 38.7h20.303c.52 0 .94.421.94.94 0 .52-.42.941-.94.941H7.641c-.52 0-.941-.42-.941-.94s.421-.941.94-.941zM7.64 44.7h20.303c.52 0 .94.421.94.94 0 .52-.42.941-.94.941H7.641c-.52 0-.941-.42-.941-.94s.421-.941.94-.941z" transform="translate(-574 -198) translate(442 146) translate(132 52) translate(24 8)"/>
                            <path fill="#3BA73A" fill-rule="nonzero" d="M20.766 11.7H33.89c.52 0 .94.421.94.94 0 .52-.42.941-.94.941H20.766c-.52 0-.941-.42-.941-.94s.421-.941.94-.941zM30.432 6.2h3.459c.52 0 .94.421.94.94 0 .52-.42.941-.94.941h-3.459c-.52 0-.94-.42-.94-.94s.42-.941.94-.941zM20.766 18.262H33.89c.52 0 .94.422.94.941 0 .52-.42.94-.94.94H20.766c-.52 0-.941-.42-.941-.94s.421-.94.94-.94z" transform="translate(-574 -198) translate(442 146) translate(132 52) translate(24 8)"/>
                            <path fill="#6680AD" fill-rule="nonzero" d="M7.64 24.825h26.25c.52 0 .941.421.941.94 0 .52-.42.941-.94.941H7.64c-.52 0-.941-.42-.941-.94s.421-.941.94-.941zM7.64 31.387h20.303c.52 0 .94.422.94.941 0 .52-.42.94-.94.94H7.641c-.52 0-.941-.42-.941-.94s.421-.94.94-.94z" transform="translate(-574 -198) translate(442 146) translate(132 52) translate(24 8)"/>
                        </g>
                        <g fill-rule="nonzero">
                            <path fill="#FFF" d="M13 0C11.352 0 9.84.891 9.037 2.318l-.105.198L.485 19.407l-.105.226c-.597 1.366-.486 2.94.3 4.211.787 1.274 2.147 2.074 3.633 2.15l.235.007H21.44l.226-.006c1.497-.07 2.865-.874 3.655-2.151.785-1.27.894-2.84.305-4.2l-.105-.224-8.447-16.895-.102-.192C16.171.894 14.651 0 13 0z" transform="translate(-574 -198) translate(442 146) translate(132 52) translate(24 8) translate(27 29.3)"/>
                            <path fill="#F69B31" d="M13 0C11.352 0 9.84.891 9.037 2.318l-.105.198L.485 19.407l-.105.226c-.597 1.366-.486 2.94.3 4.211.787 1.274 2.147 2.074 3.633 2.15l.235.007H21.44l.226-.006c1.497-.07 2.865-.874 3.655-2.151.785-1.27.894-2.84.305-4.2l-.105-.224-8.447-16.895-.102-.192C16.171.894 14.651 0 13 0zm0 2c.905 0 1.738.48 2.193 1.251l.087.158 8.461 16.924.08.181c.297.747.223 1.592-.201 2.278-.434.701-1.177 1.146-1.992 1.202l-.176.006H4.528l-.182-.008c-.808-.064-1.538-.509-1.965-1.2-.431-.697-.499-1.556-.19-2.307l.078-.172 8.46-16.921.09-.162C11.28 2.468 12.108 2 13 2zM13 18l-.19.01c-.883.096-1.559.845-1.559 1.74 0 .967.784 1.75 1.75 1.75.967 0 1.75-.783 1.75-1.75 0-.842-.599-1.555-1.382-1.714l-.15-.023L13 18zM13 7.5c-.513 0-.935.386-.993.884L12 8.5v5.967l.01.17c.066.492.489.863.99.863.513 0 .936-.386.993-.883L14 14.5l.001-5.966-.01-.17c-.067-.492-.49-.864-.99-.864z" transform="translate(-574 -198) translate(442 146) translate(132 52) translate(24 8) translate(27 29.3)"/>
                        </g>
                    </g>
                </g>
            </g>
        </g>
    </g>
</svg>
