<svg width="100" height="72" xmlns="http://www.w3.org/2000/svg">
    <g fill="none" fill-rule="evenodd">
        <path d="M0 0h100v72H0z"/>
        <path d="M47.915 44.29 32 39.423l44.888-26.544a2 2 0 0 1 3.018 1.722v36.775a2 2 0 0 1-2.585 1.912L55.953 46.75" fill="#C1E0FF" opacity=".5"/>
        <path fill="#6680AD" opacity=".5" d="M74.505 10.078 52.828 41.371l-2.26 3.261v10.953l8.238-8.05-8.237-2.903"/>
        <path d="M75.448 8.144a1.094 1.094 0 0 0-1.098.008L54.306 20.005a1.094 1.094 0 1 0 1.113 1.882L69.8 13.384 43.014 41.177 29.69 37.101 47.078 26.82a1.094 1.094 0 0 0-1.114-1.883L26.444 36.48a1.094 1.094 0 0 0 .236 1.988l15.91 4.867 7.02 12.777a.26.26 0 0 0 .023.034 1.09 1.09 0 0 0 1.7.221l8.071-7.888 15.182 4.645A1.095 1.095 0 0 0 76 52.078V9.094c0-.393-.21-.756-.552-.95zM65.892 20.59 49.67 44.01c-.127.183-.195.4-.195.622v6.69L44.682 42.6l21.21-22.008zm-14.23 32.396V46.11l5.359 1.64-5.358 5.236zm.658-8.962 21.492-31.026v37.6L52.32 44.026z" fill="#6680AD" fill-rule="nonzero"/>
        <path d="M37.984 46.016a1.094 1.094 0 0 0-1.547 0l-10.21 10.21a1.094 1.094 0 0 0 1.546 1.547l10.21-10.21a1.094 1.094 0 0 0 0-1.547zM22.836 59.617l-2.516 2.516a1.094 1.094 0 0 0 1.547 1.547l2.516-2.516a1.094 1.094 0 0 0-1.547-1.547zM34.83 61.748a1.1 1.1 0 0 0-.774.32 1.1 1.1 0 0 0-.32.774c0 .287.116.57.32.773.203.203.485.32.773.32.288 0 .57-.117.773-.32.204-.203.32-.486.32-.773a1.1 1.1 0 0 0-.32-.774 1.102 1.102 0 0 0-.773-.32zM42.193 53.93l-5.408 5.408a1.094 1.094 0 0 0 1.547 1.547l5.408-5.408a1.094 1.094 0 0 0-1.547-1.547zM60.858 53.515l-5.422 5.423a1.094 1.094 0 0 0 1.546 1.547l5.423-5.423a1.094 1.094 0 0 0-1.547-1.547zM50.235 24.776a1.097 1.097 0 0 0 1.093-1.093c0-.288-.117-.57-.32-.774a1.102 1.102 0 0 0-.773-.32c-.288 0-.57.116-.774.32-.203.203-.32.486-.32.774a1.097 1.097 0 0 0 1.094 1.093z" fill="#6680AD" fill-rule="nonzero"/>
        <path fill="#6680AD" opacity=".5" d="M50.569 55.585 43.335 42.42l31.17-32.342-23.264 33.584z"/>
    </g>
</svg>
