<svg xmlns="http://www.w3.org/2000/svg" width="24" height="24" viewBox="0 0 24 24">
    <g fill="none" fill-rule="evenodd">
        <g fill="#5C5C5C" fill-rule="nonzero">
            <g>
                <g>
                    <path d="M18.75 10.5l.22.006c1.977.115 3.53 1.755 3.53 3.744v.878c.874.31 1.5 1.142 1.5 2.122v4.5c0 1.243-1.007 2.25-2.25 2.25h-6c-1.243 0-2.25-1.007-2.25-2.25v-4.5c0-.98.626-1.814 1.5-2.122v-.878c0-2.071 1.679-3.75 3.75-3.75zm3 6h-6c-.414 0-.75.336-.75.75v4.5c0 .414.336.75.75.75h6c.414 0 .75-.336.75-.75v-4.5c0-.414-.336-.75-.75-.75zm-3 1.904l.123.007c.563.06 1.002.538 1.002 1.118 0 .621-.504 1.125-1.125 1.125s-1.125-.504-1.125-1.125c0-.58.439-1.057 1.002-1.118l.123-.007zM18.75 0c1.19 0 2.166.925 2.245 2.096L21 2.25v6c0 .414-.336.75-.75.75-.38 0-.693-.282-.743-.648L19.5 8.25V6h-18v8.25c0 .38.282.693.648.743L2.25 15h9c.414 0 .75.336.75.75 0 .38-.282.693-.648.743l-.102.007h-9c-1.19 0-2.166-.925-2.245-2.096L0 14.25v-12C0 1.06.925.084 2.096.005L2.25 0h16.5zm0 12c-1.243 0-2.25 1.007-2.25 2.25V15H21v-.75c0-1.141-.853-2.092-1.945-2.231l-.15-.014zm-12-.753c.414 0 .75.336.75.75 0 .38-.282.693-.648.743l-.102.007h-3c-.414 0-.75-.336-.75-.75 0-.38.282-.693.648-.743l.102-.007h3zm3-3c.414 0 .75.336.75.75 0 .38-.282.693-.648.743l-.102.007h-6c-.414 0-.75-.336-.75-.75 0-.38.282-.693.648-.743l.102-.007h6zm9-6.747H2.25c-.38 0-.693.282-.743.648L1.5 2.25V4.5h18V2.25c0-.38-.282-.693-.648-.743L18.75 1.5z" transform="translate(-175 -220) translate(151 196) translate(24 24)"/>
                </g>
            </g>
        </g>
    </g>
</svg>
