<svg xmlns="http://www.w3.org/2000/svg" width="24" height="24" viewBox="0 0 24 24">
    <g fill="none" fill-rule="evenodd">
        <g fill="#5C5C5C" fill-rule="nonzero">
            <g>
                <g>
                    <path d="M12.75.97c.414 0 .75.336.75.75s-.336.75-.75.75H2.25c-.42 0-.75.316-.75.69v12.209l21.75.001.102.007c.366.05.648.363.648.743v1.44c0 1.217-1.014 2.19-2.25 2.19h-7.415c.162.996.524 1.954 1.068 2.82h1.847c.414 0 .75.336.75.75s-.336.75-.75.75H6.75c-.414 0-.75-.336-.75-.75s.336-.75.75-.75h1.847c.544-.866.906-1.824 1.068-2.82H2.25c-1.236 0-2.25-.973-2.25-2.19V3.16C0 1.943 1.014.97 2.25.97zm.068 18.78h-1.636c-.133.98-.426 1.931-.867 2.82h3.37l-.157-.333c-.354-.792-.593-1.63-.71-2.488zm9.682-2.881h-21v.691c0 .343.277.637.647.684l.103.006h19.5c.42 0 .75-.316.75-.69v-.691zM18.75.97c2.064 0 3.75 1.618 3.75 3.63v.818c.874.31 1.5 1.142 1.5 2.122v4.2c0 1.243-1.007 2.25-2.25 2.25h-6c-1.243 0-2.25-1.007-2.25-2.25v-4.2c0-.98.626-1.814 1.5-2.122V4.6C15 2.588 16.686.97 18.75.97zm-7.5 4.32c.414 0 .75.336.75.75s-.336.75-.75.75L4.5 6.789v4.261h6.75c.414 0 .75.336.75.75s-.336.75-.75.75H4.5c-.822 0-1.5-.651-1.5-1.47V6.76c0-.819.678-1.47 1.5-1.47zm10.5 1.5h-6c-.414 0-.75.336-.75.75v4.2c0 .414.336.75.75.75h6c.414 0 .75-.336.75-.75v-4.2c0-.414-.336-.75-.75-.75zm-3.001 1.74l.125.007c.247.026.48.133.66.307.218.209.342.496.341.796 0 .62-.51 1.11-1.125 1.11s-1.125-.49-1.125-1.11c0-.62.51-1.11 1.124-1.11zM7.124 7.81l.125.007c.247.026.48.133.66.307.218.209.342.496.341.796 0 .62-.51 1.11-1.125 1.11S6 9.54 6 8.92c0-.62.51-1.11 1.124-1.11zm3.75 0l.125.007c.247.026.48.133.66.307.218.209.342.496.341.796 0 .62-.51 1.11-1.125 1.11S9.75 9.54 9.75 8.92c0-.62.51-1.11 1.124-1.11zm7.876-5.34c-1.25 0-2.25.96-2.25 2.13v.689H21V4.6c0-1.119-.916-2.046-2.089-2.125z" transform="translate(-175 -220) translate(151 104) translate(24 115)"/>
                </g>
            </g>
        </g>
    </g>
</svg>
