<svg xmlns="http://www.w3.org/2000/svg" width="181" height="159" viewBox="0 0 181 159">
    <g fill="none" fill-rule="evenodd">
        <path d="M-69-12h320v180H-69z"/>
        <g transform="translate(0 -2)">
            <g transform="matrix(-1 0 0 1 181.83 30.94)">
                <path stroke="#E7ECF3" stroke-width=".539" d="M34.29 45.224a63.694 63.694 0 0 0-9.712 24.478c-.594 3.518-.777 7.531 1.5 10.254 2.277 2.722 6.13 3.292 9.454 2.42 3.324-.871 10.133-11.67 18.022-20.095C72.374 42.15 90.85 21.093 114.28 6.536c4.457-2.755 9.183-5.315 14.364-6.144 5.18-.828 10.92.344 14.536 4.132 5.655 5.917 4.23 15.493 1.457 23.187a97.282 97.282 0 0 1-33.832 45.125"/>
                <ellipse cx="39.875" cy="96.467" fill="#C4D4E3" fill-rule="nonzero" rx="16.188" ry="16.139"/>
                <path stroke="#FFF" stroke-linecap="round" stroke-linejoin="round" stroke-width=".539" d="M21.799 97.07a21.441 21.441 0 0 1 9.097-4.111 7.078 7.078 0 0 1 4.457.29 3.053 3.053 0 0 1 1.63 3.766M33.422 100.082a19.72 19.72 0 0 1 8.547-3.164 6.366 6.366 0 0 0-3.011 5.208M41.656 100.383a2.315 2.315 0 0 1 3.108.183 3.65 3.65 0 0 1 .83 3.228 9.121 9.121 0 0 1-1.391 3.12 41.473 41.473 0 0 1-7.123 8.608M30.055 110.088a12.805 12.805 0 0 1 7.23-4.4 1.644 1.644 0 0 1 1.479.204 1.61 1.61 0 0 1 .194 1.528 12.165 12.165 0 0 1-4.317 6.746"/>
                <path stroke="#FFF" stroke-linecap="round" stroke-linejoin="round" stroke-width=".539" d="M23.148 100.232a10.887 10.887 0 0 1 6.324-3.443 2.38 2.38 0 0 1 1.478.119c.634.409.937 1.174.756 1.904a4.837 4.837 0 0 1-1.015 1.915 94.845 94.845 0 0 1-7.813 8.694"/>
                <ellipse cx="33.94" cy="89.473" fill="#FFF" fill-rule="nonzero" rx="1.079" ry="1.076"/>
                <path stroke="#FFF" stroke-linecap="round" stroke-linejoin="round" stroke-width=".539" d="M38.16 75.023l-1.145 9.006c-.086.634 0 1.495.616 1.613.375.018.739-.132.992-.408l3.486-2.83-.798 6.768c-.087.72-.054 1.646.625 1.915.438.097.897.015 1.274-.226a56.815 56.815 0 0 0 11.957-7.769"/>
                <ellipse cx="50.667" cy="97.543" fill="#FFF" fill-rule="nonzero" rx="1.619" ry="2.69"/>
                <ellipse cx="177.632" cy="80.368" stroke="#002256" stroke-linecap="round" stroke-linejoin="round" stroke-width=".539" rx="3.238" ry="3.228"/>
                <ellipse cx="6.338" cy="15.661" stroke="#002256" stroke-linecap="round" stroke-linejoin="round" stroke-width=".539" rx="4.099" ry="7.246" transform="rotate(19 6.338 15.66)"/>
                <g stroke="#002256" stroke-linecap="round" stroke-linejoin="round" stroke-width=".5">
                    <path d="M6.622 13.013c.75.222 1.37.735 1.712 1.417v.022a.775.775 0 0 1-.29.965.838.838 0 0 1-1.034-.09l-.088-.084a2.14 2.14 0 0 0-1.29-.742c-.516.007-.98.306-1.185.764-.187.45-.217.948-.084 1.417.376 1.445 1.625 2.523 3.153 2.72M8.03 11.9a82.19 82.19 0 0 1-3.694 8.273"/>
                </g>
            </g>
            <ellipse cx="4.684" cy="4.474" fill="#E33031" rx="4.1" ry="4.095" transform="rotate(-60 24.906 -26.549)"/>
            <path fill="#0B2D72" fill-rule="nonzero" d="M45.016 159.994h23.507s-2.768-4.187-5.134-4.664c0 0 6.795-23.89 7.903-33.408.864-7.424 1.14-20.865 1.14-20.865l2.645 20.085-4.815 38.853h24.903s-4.556-3.522-6.748-3.997c0 0 3.79-28.198 3.79-37.165 0-6.873-.364-33.173-9.781-43.322-6.686-7.211-17.89-7.425-22.944 1.913-5.787 10.68-6.287 42.008-6.287 42.008l-8.18 40.562z"/>
            <path stroke="#FFF" stroke-width=".567" d="M72.222 91.537l1.184 32.269"/>
            <path stroke="#170C2C" stroke-width=".567" d="M167.58 159.994H6.7"/>
            <path fill="#FDC130" fill-rule="nonzero" d="M88.762 51.788l-10.474 11.91c-2.808 3.193-8.032 2.016-9.208-2.07l-3.911-13.616a5.392 5.392 0 0 1 1.068-4.98 5.376 5.376 0 0 1 4.735-1.862l14.392 1.707c4.3.51 6.262 5.653 3.398 8.911z"/>
            <path fill="#FFC6BB" fill-rule="nonzero" d="M77.528 43.68l3.19-9.25s-2.94-3.068-1.41-5.41c1.53-2.344 3.751-.295 3.751-.295s2.464-3.09 6.344-2.047c3.88 1.043 5.033 3.862 4.476 7.011-.966 5.48-4.317 6.164-9.907 4.247l-2.328 6.014"/>
            <path fill="#0B2D72" fill-rule="nonzero" d="M81.346 27.91s.238-4.4 5.879-4.49c5.641-.09 6.15 2.007 8.402 1.353 2.251-.653 3.045 6.143-3.127 5.927-6.172-.216-5.904-.56-5.904-.56s-.538 2.722-2.071 2.278c-1.533-.445-1.571-3.36-1.571-3.36"/>
            <g stroke-width=".567">
                <g stroke="#170C2C" stroke-linejoin="bevel">
                    <path d="M89.887 83.75s3.678 6.847 3.18 7.555c-.497.708-4.466-4.061-4.466-4.061s3.135 5.938 2.59 6.756c-.545.817-4.82-5.43-4.82-5.43s2.279 5.284 1.829 5.882c-.451.599-4.243-4.359-5.786-6.093-1.283-1.442-14.077-11.66-15.533-14.483-1.818-3.527-2.318-18.707-2.318-18.707M74.802 48.015c1.294.483 1.573 19.183 1.573 19.183l12.04 13.654 1.457.618"/>
                </g>
                <path stroke="#FFF" stroke-linejoin="round" d="M90.119 93.376l-3.712-4.682C88.043 92.08 88.64 94 88.2 94.452c-.442.453-2.72-1.875-6.835-6.985l-7.017-5.995s-5.033-4.715-6.981-8.038c-1.03-1.754-1.785-4.32-1.785-4.32"/>
            </g>
            <ellipse cx="129.454" cy="43.168" fill="#FFF" fill-rule="nonzero" rx="1.447" ry="2.943" transform="rotate(-71.24 129.454 43.168)"/>
            <g stroke="#170C2C" stroke-width=".567">
                <path d="M86.405 43.993s2.47.25 5 5.73 8.165 10.115 15.383 8.529c2.593-.574 4.963-1.737 5.972-4.337.279-.82.626-1.614 1.038-2.375a5.68 5.68 0 0 1 3.363-2.2.955.955 0 0 1 .622 1.765 4.122 4.122 0 0 0-1.263.998M118.14 49.507l4.235-1.214c.277-.1.57-.138.863-.113.305.038.55.267.61.568.023.298-.208.552-.426.758l-2.11 2.01M119.909 52.43c.268.545.437 1.133.498 1.737a.706.706 0 0 0 1.243.37c.226-.27.398-.582.507-.916a4.916 4.916 0 0 0-.013-2.513M87.313 63.863s8.837 8.963 18.415 5.742c8.41-2.832 14.537-9.783 15.94-11.475"/>
                <path d="M122.291 52.776s1.763 4.868.108 5.342c-1.166.334-.474-1.655-1.539-2.245"/>
            </g>
            <path fill="#2674EA" fill-rule="nonzero" d="M145.935 31.76l-16.778 10.164-3.417-2.867z"/>
            <path stroke="#002256" stroke-linecap="round" stroke-linejoin="round" stroke-width=".63" d="M157.799 26.872l-34.789 4.452 2.202 7.784 20.723-7.348-19.338 11.48 2.772 8.262zM125.212 39.108l3.924 2.62"/>
        </g>
    </g>
</svg>
