<svg xmlns="http://www.w3.org/2000/svg" width="254" height="226" viewBox="0 0 254 226">
    <g fill="none" fill-rule="evenodd">
        <path d="M-31-13h328v250H-31z"/>
        <g transform="translate(0 -2)">
            <g transform="matrix(-1 0 0 1 240.617 65.329)">
                <path stroke="#E7ECF3" stroke-width=".716" d="M14.184 62.45A84.689 84.689 0 0 0 1.274 94.99C.487 99.67.243 105.004 3.27 108.623c3.026 3.62 8.147 4.377 12.565 3.219 4.418-1.159 13.469-15.516 23.954-26.716 25.016-26.764 49.573-54.757 80.713-74.11 5.924-3.662 12.207-7.067 19.092-8.168 6.885-1.102 14.516.457 19.321 5.493 7.517 7.867 5.623 20.598 1.937 30.825a129.328 129.328 0 0 1-44.968 59.992"/>
                <ellipse cx="103.375" cy="118.941" fill="#C4D4E3" fill-rule="nonzero" rx="21.516" ry="21.456"/>
                <path stroke="#FFF" stroke-linecap="round" stroke-linejoin="round" stroke-width=".716" d="M79.349 119.742a28.496 28.496 0 0 1 12.092-5.464 9.405 9.405 0 0 1 5.924.386 4.058 4.058 0 0 1 2.166 5.006M94.797 123.747a26.208 26.208 0 0 1 11.36-4.205 8.464 8.464 0 0 0-4.002 6.923M105.741 124.148a3.076 3.076 0 0 1 4.132.243 4.854 4.854 0 0 1 1.104 4.291 12.128 12.128 0 0 1-1.85 4.148 55.133 55.133 0 0 1-9.467 11.444M90.322 137.05a17.02 17.02 0 0 1 9.61-5.85 2.185 2.185 0 0 1 1.965.271 2.14 2.14 0 0 1 .258 2.032 16.173 16.173 0 0 1-5.737 8.968"/>
                <path stroke="#FFF" stroke-linecap="round" stroke-linejoin="round" stroke-width=".716" d="M81.142 123.947a14.47 14.47 0 0 1 8.405-4.577 3.164 3.164 0 0 1 1.965.157 2.343 2.343 0 0 1 1.004 2.532c-.25.94-.711 1.81-1.348 2.546a126.081 126.081 0 0 1-10.385 11.558"/>
                <ellipse cx="95.486" cy="109.643" fill="#FFF" fill-rule="nonzero" rx="1.434" ry="1.43"/>
                <path stroke="#FFF" stroke-linecap="round" stroke-linejoin="round" stroke-width=".716" d="M101.094 90.433l-1.52 11.972c-.115.844 0 1.989.817 2.146.5.024.983-.176 1.32-.544l4.633-3.762-1.062 8.998c-.114.958-.071 2.188.832 2.546.582.128 1.191.02 1.693-.3A75.514 75.514 0 0 0 123.7 101.16"/>
                <ellipse cx="117.719" cy="120.371" fill="#FFF" fill-rule="nonzero" rx="2.152" ry="3.576"/>
                <ellipse cx="67.515" cy="129.297" stroke="#002256" stroke-linecap="round" stroke-linejoin="round" stroke-width=".716" rx="4.303" ry="4.291"/>
                <ellipse cx="80.066" cy="11.514" stroke="#002256" stroke-linecap="round" stroke-linejoin="round" stroke-width=".716" rx="5.449" ry="9.633" transform="rotate(19 80.066 11.514)"/>
                <g stroke="#002256" stroke-linecap="round" stroke-linejoin="round" stroke-width=".557">
                    <path d="M80.443 7.994c.996.295 1.82.978 2.275 1.884v.03a1.03 1.03 0 0 1-.385 1.281 1.114 1.114 0 0 1-1.375-.117l-.117-.114a2.844 2.844 0 0 0-1.713-.986 1.746 1.746 0 0 0-1.576 1.016 2.868 2.868 0 0 0-.112 1.884c.5 1.921 2.16 3.354 4.191 3.615M82.315 6.514a109.28 109.28 0 0 1-4.911 10.999"/>
                </g>
            </g>
            <ellipse cx="5.951" cy="5.863" fill="#E33031" rx="5.45" ry="5.444" transform="rotate(-60 89.196 -133.743)"/>
            <path fill="#0B2D72" fill-rule="nonzero" d="M217.818 51.481c5.537.444 11.334 3.537 12.252 9.058.746 4.506 1.84 7.781 1.496 12.345-.302 4.033.76 8.453-1.435 11.886-1.908 3.047-4.546-5.99-8.146-6.148-3.6-.158-8.493 9.01-11.978 8.408-3.486-.6-7.488-.557-10.457 1.43-1.807 1.245-3.127 3.148-5.092 4.135-3.471 1.73-8.047-.286-9.783-3.748a11.231 11.231 0 0 1 1.162-11.028 21.793 21.793 0 0 1 9.037-7.153c2.869-1.43 5.981-2.446 8.176-4.72a14.291 14.291 0 0 0 3.227-6.094c.488-1.745.373-4.033 1.435-5.535 2.495-3.677 5.99-3.179 10.106-2.836z"/>
            <path fill="#FDC130" fill-rule="nonzero" d="M221.724 73.704c-11.285 0-20.433 9.154-20.433 20.445 0 11.29 9.148 20.444 20.433 20.444s20.434-9.153 20.434-20.444c-.001-11.29-9.15-20.443-20.434-20.445z"/>
            <path stroke="#FFF" stroke-linejoin="round" stroke-width="1.126" d="M228.013 99.972c-.351 5.593-.235 10.864-1.145 10.978-1.86.227-4.546-5.023-6.388-4.471-1.841.552-3.464 4.442-4.433 7.312M242.249 94.078c-3.45-4.398-7.316-8.118-9.993-7.148-1.258.455-2.143 1.785-2.771 3.6M214.001 90.441c-2.528-2.357-5.58-6.261-7.917-9.448M225.696 74.093c.308 4.23.158 7.872-1.178 8.379-2.372.897-7.754-4.909-7.754-4.909s1.765 4.342 2.424 8.401M201.973 88.923c1.943 3.969 4.633 10.972 4.164 18.631"/>
            <path fill="#0B2D72" fill-rule="nonzero" d="M239.37 226.905H197.1s4.75-6.812 7.917-7.288l-3.731-83.072a21.777 21.777 0 0 1 6.01-16.02 21.755 21.755 0 0 1 32.291.925 21.776 21.776 0 0 1 4.92 17.577l-12.733 79.324s6.175 3.642 7.597 8.554z"/>
            <path stroke="#FFF" stroke-width=".838" d="M221.985 226.905l2.374-91.721"/>
            <path stroke="#0B2D72" stroke-width="1.432" d="M185.665 85.357a11.96 11.96 0 0 1-1.696-9.183 11.988 11.988 0 0 1 5.425-7.61c2.97-1.831 6.541-2.275 9.94-3.047 3.4-.773 6.958-2.117 8.908-4.978"/>
            <path fill="#FFC6BB" fill-rule="nonzero" d="M223.417 78.078l-2.1-15.052s4.315-3.302 2.837-6.564c-1.48-3.262-4.69-1.102-4.69-1.102s-2.51-4.382-7.618-3.83c-5.109.551-6.814 6.861-5.717 10.812 1.622 5.834 4.666 8.243 10.355 5.824l.756 8.345"/>
            <path fill="#0B2D72" fill-rule="nonzero" d="M222.839 73.934c-5.713-.647-5.818-18.908-5.818-18.908-4.841 4.13-11.153 3.805-11.153 3.805s.021-8.753 9.377-9.368c9.356-.614 12.43 4.892 12.43 4.892s10.234.62 11.787 8.534c1.553 7.915-5.982 14.696-5.982 14.696s-6.103-3.134-10.641-3.65z"/>
            <path stroke="#170C2C" stroke-linejoin="bevel" stroke-width=".754" d="M197.786 118.861s-8.577 4.976-8.337 6.099c.24 1.123 7.303-2.489 7.303-2.489s-7.539 5.78-7.299 7.065c.24 1.286 8.34-3.813 8.34-3.813s-5.77 4.735-5.53 5.7c.24.964 6.837-2.65 9.377-2.97 2.54-.322 24.366-6.031 26.93-8.92 2.566-2.89 12.15-22.427 12.15-22.427M231.904 83.034c-1.759-.08-10.507 23.438-10.507 23.438l-21.88 9.673h-2.425"/>
            <path stroke="#FFF" stroke-width=".754" d="M203.41 128.192s19.033-3.495 23.886-7.896c3.338-3.027 4.93-6.641 4.93-6.641"/>
            <g stroke="#170C2C" stroke-width=".754">
                <path d="M202.911 82.433c-1.71 4.704-4.385 10.572-8.82 12.92-7.934 4.231-18.06 2.442-24.562-3.661-.622-.586-1.632-2.257-2.454-2.33-.822-.074-1.096.966-.804 1.639.292.672.93 1.133 1.326 1.773.638 1.052-.174 1.416-1.17 1.412a9.876 9.876 0 0 1-3.843-1.118c-.363-.207-2.219-.942-2.63-.865-.519.215.637 1.448.793 1.987.17.52.558.943 1.063 1.158-.714-.351-3.049-1.085-3.393.01-.094.437 1.289 1.382 1.537 1.755s.636.63 1.077.715c-1.222-.232-3.48.003-2.615 1.137.655.845 3.461 2.088 4.372 2.627a47.925 47.925 0 0 0 3.55 1.947 50.133 50.133 0 0 0 7.53 3.017 51.668 51.668 0 0 0 16.002 2.356 26.144 26.144 0 0 0 19.724-9.953 36.065 36.065 0 0 0 4.21-6.763M160.452 97.784a51.796 51.796 0 0 0 5.178 2.456M161.682 95.205a16.355 16.355 0 0 0 5.06 2.441"/>
            </g>
            <path fill="#0B2D72" fill-rule="nonzero" d="M8.395 227.593h31.244s-3.679-5.567-6.824-6.2c0 0 9.032-31.76 10.505-44.415 1.148-9.869 1.514-27.738 1.514-27.738l3.516 26.701-6.4 51.654h33.1s-6.056-4.682-8.969-5.314c0 0 5.037-37.488 5.037-49.41 0-9.137-.483-44.1-13-57.593-8.887-9.588-23.777-9.871-30.496 2.543-7.691 14.199-8.355 55.847-8.355 55.847L8.395 227.593z"/>
            <path stroke="#FFF" stroke-width=".754" d="M44.556 136.583l1.573 42.9"/>
            <path stroke="#170C2C" stroke-width=".754" d="M253.177 227.593H0"/>
            <path fill="#2674EA" fill-rule="nonzero" d="M66.54 83.74L52.62 99.572c-3.734 4.246-10.677 2.68-12.24-2.75l-5.198-18.103a7.17 7.17 0 0 1 1.42-6.62 7.145 7.145 0 0 1 6.293-2.476l19.13 2.27c5.716.678 8.322 7.515 4.516 11.847z"/>
            <path fill="#FFC6BB" fill-rule="nonzero" d="M51.609 72.96l4.24-12.298s-3.908-4.078-1.874-7.193c2.033-3.114 4.985-.39 4.985-.39s3.275-4.11 8.432-2.722c5.158 1.387 6.69 5.134 5.949 9.32-1.284 7.287-5.738 8.195-13.168 5.647L57.08 73.32c-.714 1.36-1.749 2.04-3.104 2.04-1.356 0-2.145-.8-2.366-2.398z"/>
            <path fill="#0B2D72" fill-rule="nonzero" d="M56.682 51.994s.317-5.85 7.815-5.97c7.498-.119 8.174 2.67 11.167 1.8 2.993-.868 4.048 8.167-4.156 7.88-8.203-.288-7.847-.744-7.847-.744s-.715 3.618-2.753 3.027c-2.038-.59-2.088-4.467-2.088-4.467"/>
            <g stroke-width=".754">
                <g stroke="#170C2C" stroke-linejoin="bevel">
                    <path d="M68.035 126.23s4.887 9.1 4.226 10.042c-.66.942-5.937-5.398-5.937-5.398s4.166 7.895 3.442 8.981c-.725 1.087-6.406-7.218-6.406-7.218s3.029 7.024 2.43 7.82c-.599.796-5.64-5.795-7.69-8.1-1.705-1.916-18.71-15.5-20.644-19.252-2.416-4.688-3.08-24.87-3.08-24.87M47.987 78.724c1.72.643 2.09 25.503 2.09 25.503l16.002 18.15 1.935.82"/>
                </g>
                <path stroke="#FFF" stroke-linejoin="round" d="M68.341 139.026l-4.934-6.223c2.175 4.5 2.97 7.052 2.383 7.654-.587.602-3.615-2.493-9.084-9.286l-9.326-7.968s-6.69-6.268-9.278-10.685c-1.368-2.332-2.372-5.742-2.372-5.742"/>
            </g>
            <ellipse cx="120.625" cy="72.279" fill="#FFF" fill-rule="nonzero" rx="1.923" ry="3.912" transform="rotate(-71.24 120.625 72.279)"/>
            <g stroke="#170C2C" stroke-width=".754">
                <path d="M63.406 73.375s3.284.332 6.646 7.618c3.363 7.286 10.853 13.447 20.447 11.34 3.447-.763 6.597-2.31 7.938-5.765.37-1.09.832-2.146 1.38-3.158a7.548 7.548 0 0 1 4.469-2.924 1.27 1.27 0 0 1 .827 2.346 5.478 5.478 0 0 0-1.678 1.327M105.587 80.708l5.63-1.614a2.733 2.733 0 0 1 1.147-.15.95.95 0 0 1 .811.755c.03.396-.277.734-.568 1.008l-2.803 2.673M107.938 84.593c.357.725.581 1.507.663 2.31a.939.939 0 0 0 1.652.491c.3-.359.53-.772.674-1.217a6.536 6.536 0 0 0-.017-3.34M64.614 99.79s11.747 11.917 24.477 7.636c11.178-3.765 19.321-13.004 21.187-15.254"/>
                <path d="M111.105 85.054s2.343 6.471.144 7.102c-1.55.444-.63-2.2-2.046-2.985"/>
            </g>
            <g>
                <path fill="#2674EA" fill-rule="nonzero" d="M142.532 57.114L120.23 70.623l-4.542-3.812z"/>
                <path stroke="#002256" stroke-linecap="round" stroke-linejoin="round" stroke-width=".838" d="M158.303 50.62l-46.245 5.912 2.928 10.348 27.546-9.766-25.704 15.257 3.685 10.984zM114.986 66.88l5.217 3.483"/>
            </g>
        </g>
    </g>
</svg>
