<svg xmlns="http://www.w3.org/2000/svg" width="276" height="225" viewBox="0 0 276 225">
    <g fill="none" fill-rule="evenodd">
        <path d="M-27-12h328v250H-27z"/>
        <g transform="translate(-2 1)">
            <path stroke="#E7ECF3" stroke-width="1.1" d="M32.163 124.868c-3.088 14.682-5.15 30.046-1.27 44.512 3.88 14.465 14.822 27.947 29.565 30.69 14.255 2.658 28.871-5.288 37.924-16.546s13.66-25.5 17.568-39.475c3.907-13.974 7.414-28.3 14.839-40.69 3.493-5.861 9.788-11.84 16.201-9.533 6.413 2.307 7.632 11.24 12.692 15.98 5.474 5.135 14.8 4.07 20.621-.638 5.82-4.707 8.812-12.114 10.627-19.397 1.815-7.283 2.754-14.84 5.602-21.77a42.82 42.82 0 0 1 37.06-25.95"/>
            <g transform="matrix(-1 0 0 1 250 123)">
                <ellipse cx="26.107" cy="30.809" fill="#FDC130" fill-rule="nonzero" rx="23.125" ry="23.056"/>
                <path stroke="#FFF" stroke-linecap="round" stroke-linejoin="round" stroke-width=".769" d="M.284 31.67a30.63 30.63 0 0 1 12.997-5.872 10.111 10.111 0 0 1 6.367.415 4.36 4.36 0 0 1 2.328 5.38M16.888 35.974a28.172 28.172 0 0 1 12.21-4.52 9.094 9.094 0 0 0-4.3 7.44M28.651 36.404a3.306 3.306 0 0 1 4.44.262 5.215 5.215 0 0 1 1.187 4.61 13.03 13.03 0 0 1-1.988 4.458 59.247 59.247 0 0 1-10.175 12.297M12.078 50.269a18.293 18.293 0 0 1 10.33-6.287 2.35 2.35 0 0 1 2.112.292 2.3 2.3 0 0 1 .277 2.183 17.379 17.379 0 0 1-6.167 9.637"/>
                <path stroke="#FFF" stroke-linecap="round" stroke-linejoin="round" stroke-width=".769" d="M2.211 36.19a15.553 15.553 0 0 1 9.035-4.92 3.401 3.401 0 0 1 2.112.17 2.517 2.517 0 0 1 1.079 2.72 6.91 6.91 0 0 1-1.45 2.736 135.492 135.492 0 0 1-11.161 12.42"/>
                <ellipse cx="17.628" cy="20.818" fill="#FFF" fill-rule="nonzero" rx="1.542" ry="1.537"/>
                <path stroke="#FFF" stroke-linecap="round" stroke-linejoin="round" stroke-width=".769" d="M23.656.175l-1.634 12.866c-.123.907 0 2.136.879 2.305a1.806 1.806 0 0 0 1.418-.584l4.98-4.042-1.141 9.668c-.123 1.03-.077 2.352.894 2.736.625.138 1.28.022 1.82-.323a81.165 81.165 0 0 0 17.081-11.098"/>
                <ellipse cx="41.524" cy="32.346" fill="#FFF" fill-rule="nonzero" rx="2.313" ry="3.843"/>
            </g>
            <ellipse cx="199.625" cy="59.611" stroke="#002256" stroke-linecap="round" stroke-linejoin="round" stroke-width=".769" rx="4.625" ry="4.611"/>
            <path fill="#2674EA" fill-rule="nonzero" d="M134.754 70.886L117.49 56.363c-5.682-4.78-3.672-13.997 3.46-15.868l26.601-6.976c7.348-1.927 13.704 5.564 10.663 12.567l-9.337 21.5c-2.418 5.567-9.47 7.215-14.123 3.3"/>
            <path fill="#0B2D72" fill-rule="nonzero" d="M117.5 222.927h49.827s-5.598-7.961-9.332-8.518l4.398-97.098a25.332 25.332 0 0 0-7.085-18.726 25.747 25.747 0 0 0-18.538-7.86c-7.515 0-14.651 3.267-19.525 8.942a25.302 25.302 0 0 0-5.798 20.545l15.008 92.717s-7.278 4.257-8.955 9.998z"/>
            <path stroke="#FFF" stroke-width=".5" d="M138.22 222.927L135.21 115.67"/>
            <path fill="#FFC600" d="M126.016 47.696c.199-.063.328-.123.362-.174.009-.014-.129.053-.362.174"/>
            <path fill="#FDC130" fill-rule="nonzero" d="M124.693 58.275l-5.119.971a2.12 2.12 0 0 1-2.48-1.676l-2.5-13.016a2.11 2.11 0 0 1 1.686-2.466l5.118-.972a2.12 2.12 0 0 1 2.48 1.676l2.5 13.017a2.109 2.109 0 0 1-1.685 2.466"/>
            <path stroke="#170C2C" stroke-width=".81" d="M152.548 34.13c4.294 0 32.564 22.665 18.39 50.602-3.883 7.653-11.838 12.943-20.328 10.723-5.619-1.47-10.536-5.788-14.553-13.774-2.613-5.195-4.183-10.839-4.89-16.605-.463-3.784-1.557-8.08-3.11-11.206a2.159 2.159 0 0 0-1.894-1.188c-1.335-.027-3.2.343-3.256-.33-.028-.344 3.47-1.38 3.47-1.38.397-.381-5.23.303-5.552 0-.982-.925 5.618-3.547 5.552-3.45-.272.406-6.593 1.38-6.593.345 0-1.034 5.9-2.414 5.9-2.76 0-.344-4.859 0-5.206-.69-.235-.467 3.174-1.137 6.166-1.17a9.162 9.162 0 0 1 5.571 1.837c11.527 8.604 19.978 29.705 24.7 30.726-.47-8.771-6.305-20.358-11.733-24.838M102.515 84.793c2.94 6.376 9.772 10.112 16.76 9.15l.162-.022-3.246-27.13c-.37-3.098-.033-6.24.994-9.189.78-2.24 1.854-4.796 1.486-5.178-.48-.5-2.256 2.57-2.586 2.297-.266-.221 2.75-4.65 2.311-5.47-.327-.608-3.818 3.446-3.818 3.101 0-.345 4.038-4.905 3.47-6.21-.412-.95-4.858 4.83-5.204 4.485-.348-.345 2.636-4.329 2.081-5.52-.145-.313-2.854 2.493-4.138 3.962-3.31 3.787-4.52 8.664-5.434 13.598-.838 4.52-2.838 22.126-2.838 22.126"/>
            <g fill-rule="nonzero">
                <path fill="#C4D4E3" d="M74.734 30.567H56.459a2.153 2.153 0 0 1-2.16-2.146v-9.402c0-1.186.967-2.147 2.16-2.147h18.275c1.193 0 2.16.961 2.16 2.147v9.402a2.153 2.153 0 0 1-2.16 2.146"/>
                <path fill="#0B2D72" d="M54.3 22.8h22.593v-2.406H54.3z"/>
            </g>
            <g fill-rule="nonzero">
                <path fill="#FFC6BB" d="M136.842 20.18c2.61 3.205-1.265 8.178-1.265 8.178l6.096 13.107-6.03 1.043-4.338-8.478c-8.596 1.95-12.657 1.94-15.251-4.688-.556-1.416-.73-2.914-.488-4.357.139-.84.42-1.66.849-2.434l.004-.003c.598-.934 1.573-1.938 3.154-2.619 3.088-1.328 5.59-.19 7.434 1.521l.002.002c.368 1.95 1.233 4.702 3.13 4.263l.005.006.01-.009c1.644-1.287 1.323-4.903 1.323-4.903l2.194-1.94c.962-.214 2.097-.009 3.171 1.31"/>
                <path fill="#0B2D72" d="M133.723 18.841l-2.18 1.93s.345 3.626-1.289 4.905l-.015.003c-1.893.427-2.777-2.337-3.157-4.294l-.002-.001c-1.855-1.728-4.362-2.885-7.44-1.575-1.576.672-2.543 1.672-3.135 2.604-7.243-.06-6.199-8.01-3.004-7.42 3.418.633 5.542-1.657 12.014-2.564 8.267-1.158 8.208 6.412 8.208 6.412"/>
            </g>
            <path stroke="#170C2C" stroke-width=".81" d="M119.034 94.089c2.64 0 8.457-6.327 5.29-28.531"/>
            <g transform="translate(0 93)">
                <path stroke="#002256" stroke-linecap="round" stroke-linejoin="round" stroke-width=".77" d="M13.154 38.993l29.077-24.5M3.462 27.793l29.076-24.5"/>
                <ellipse cx="37.072" cy="8.732" fill="#D0413B" fill-rule="nonzero" rx="3.628" ry="7.996" transform="rotate(-40.09 37.072 8.732)"/>
                <ellipse cx="8.325" cy="33.184" fill="#0B2D72" fill-rule="nonzero" rx="3.628" ry="7.996" transform="rotate(-40.09 8.325 33.184)"/>
            </g>
            <path stroke="#E7ECF3" stroke-width="1.1" d="M87.875 34.49l1.773 5.93c-3.496-.487-6.13-.731-7.901-.731-.946 1.39-7.306 4.742-10.408 5.203-17.108 2.544-39.186-8.776-30.604-29.807 8.723-21.377 48.469-21.672 50.532 9.742.455 4.465-.676 7.686-3.392 9.663z"/>
            <path stroke="#170C2C" stroke-width=".81" d="M277.115 222.927H5"/>
        </g>
    </g>
</svg>
