<svg xmlns="http://www.w3.org/2000/svg" width="199" height="163" viewBox="0 0 199 163">
    <g fill="none" fill-rule="evenodd">
        <path d="M-61-8h320v180H-61z"/>
        <g transform="translate(-1.012 1.36)">
            <path stroke="#E7ECF3" stroke-width=".792" d="M23.142 89.905c-2.222 10.57-3.706 21.633-.915 32.048 2.792 10.415 10.666 20.123 21.273 22.098 10.257 1.913 20.773-3.808 27.287-11.914 6.514-8.105 9.829-18.36 12.64-28.421 2.812-10.062 5.335-20.377 10.677-29.297 2.513-4.22 7.043-8.526 11.657-6.865 4.614 1.662 5.491 8.094 9.132 11.507 3.938 3.697 10.65 2.93 14.837-.46 4.188-3.39 6.34-8.722 7.647-13.966 1.305-5.243 1.981-10.685 4.03-15.675a30.811 30.811 0 0 1 26.665-18.683"/>
            <g transform="matrix(-1 0 0 1 179.878 88.56)">
                <ellipse cx="18.785" cy="22.183" fill="#FDC130" fill-rule="nonzero" rx="16.639" ry="16.6"/>
                <path stroke="#FFF" stroke-linecap="round" stroke-linejoin="round" stroke-width=".554" d="M.204 22.802a22.032 22.032 0 0 1 9.352-4.227 7.27 7.27 0 0 1 4.58.299 3.14 3.14 0 0 1 1.676 3.873M12.151 25.901a20.262 20.262 0 0 1 8.786-3.253 6.549 6.549 0 0 0-3.095 5.356M20.615 26.211a2.378 2.378 0 0 1 3.195.188c.802.906 1.12 2.141.854 3.32a9.385 9.385 0 0 1-1.431 3.21 42.652 42.652 0 0 1-7.321 8.853M8.69 36.194a13.16 13.16 0 0 1 7.432-4.527 1.69 1.69 0 0 1 1.52.21c.329.457.404 1.048.2 1.572a12.514 12.514 0 0 1-4.437 6.939"/>
                <path stroke="#FFF" stroke-linecap="round" stroke-linejoin="round" stroke-width=".554" d="M1.591 26.056a11.189 11.189 0 0 1 6.5-3.541 2.446 2.446 0 0 1 1.52.121c.651.421.963 1.208.777 1.96-.194.726-.551 1.4-1.043 1.97a97.532 97.532 0 0 1-8.031 8.941"/>
                <ellipse cx="12.684" cy="14.989" fill="#FFF" fill-rule="nonzero" rx="1.109" ry="1.107"/>
                <path stroke="#FFF" stroke-linecap="round" stroke-linejoin="round" stroke-width=".554" d="M17.02.126L15.846 9.39c-.089.653 0 1.539.632 1.66a1.3 1.3 0 0 0 1.02-.42l3.584-2.91-.821 6.96c-.089.742-.055 1.694.643 1.97.45.1.921.016 1.31-.232a58.395 58.395 0 0 0 12.29-7.99"/>
                <ellipse cx="29.877" cy="23.289" fill="#FFF" fill-rule="nonzero" rx="1.664" ry="2.767"/>
            </g>
            <ellipse cx="143.633" cy="42.92" stroke="#002256" stroke-linecap="round" stroke-linejoin="round" stroke-width=".554" rx="3.328" ry="3.32"/>
            <path fill="#2674EA" fill-rule="nonzero" d="M96.957 51.038L84.535 40.581c-4.088-3.441-2.642-10.078 2.49-11.424l19.14-5.023c5.287-1.388 9.86 4.006 7.672 9.048l-6.719 15.48c-1.739 4.008-6.813 5.195-10.161 2.376"/>
            <path fill="#0B2D72" fill-rule="nonzero" d="M84.543 160.508h35.85s-4.027-5.733-6.713-6.133l3.164-69.911a18.246 18.246 0 0 0-5.098-13.483 18.52 18.52 0 0 0-13.339-5.659A18.51 18.51 0 0 0 84.36 71.76a18.226 18.226 0 0 0-4.172 14.792l10.8 66.757s-5.238 3.065-6.444 7.199z"/>
            <path stroke="#FFF" stroke-width=".5" d="M99.451 160.508l-2.166-77.226"/>
            <path fill="#FFC600" d="M90.67 34.341c.143-.045.236-.089.26-.125.007-.01-.092.038-.26.125"/>
            <path fill="#FDC130" fill-rule="nonzero" d="M89.718 41.958l-3.683.7a1.525 1.525 0 0 1-1.785-1.207l-1.798-9.372a1.518 1.518 0 0 1 1.213-1.776l3.682-.7a1.525 1.525 0 0 1 1.785 1.207l1.799 9.372a1.518 1.518 0 0 1-1.213 1.776"/>
            <path stroke="#170C2C" stroke-width=".583" d="M109.76 24.573c3.09 0 23.43 16.32 13.232 36.434-2.794 5.51-8.518 9.319-14.626 7.72-4.043-1.057-7.581-4.167-10.471-9.917-1.88-3.74-3.01-7.804-3.518-11.955-.334-2.725-1.12-5.818-2.238-8.069a1.553 1.553 0 0 0-1.363-.855c-.96-.02-2.303.247-2.343-.237-.02-.248 2.497-.994 2.497-.994.286-.275-3.763.218-3.995 0-.707-.666 4.042-2.554 3.995-2.484-.196.292-4.744.994-4.744.248 0-.745 4.245-1.738 4.245-1.987 0-.248-3.496 0-3.746-.496-.169-.337 2.284-.82 4.437-.843a6.589 6.589 0 0 1 4.009 1.322c8.293 6.195 14.374 21.388 17.772 22.123-.34-6.315-4.537-14.658-8.443-17.883M73.76 61.051c2.116 4.59 7.032 7.28 12.06 6.589l.116-.017-2.335-19.533a14.792 14.792 0 0 1 .715-6.616c.56-1.613 1.334-3.453 1.07-3.729-.346-.36-1.624 1.85-1.861 1.654-.192-.16 1.979-3.347 1.662-3.938-.235-.438-2.746 2.481-2.746 2.232 0-.248 2.905-3.532 2.496-4.47-.297-.684-3.495 3.477-3.745 3.229-.25-.249 1.897-3.117 1.498-3.974-.105-.226-2.053 1.794-2.977 2.852-2.382 2.726-3.252 6.238-3.91 9.79-.603 3.254-2.042 15.931-2.042 15.931"/>
            <g fill-rule="nonzero">
                <path fill="#C4D4E3" d="M53.772 22.008H40.623a1.55 1.55 0 0 1-1.554-1.545v-6.77a1.55 1.55 0 0 1 1.554-1.545h13.149a1.55 1.55 0 0 1 1.554 1.546v6.769a1.55 1.55 0 0 1-1.554 1.545"/>
                <path fill="#0B2D72" d="M39.069 16.417h16.257v-1.733H39.069z"/>
            </g>
            <g fill-rule="nonzero">
                <path fill="#FFC6BB" d="M98.46 14.533c1.88 2.308-.909 5.886-.909 5.886l4.39 9.436-4.34.75-3.123-6.104c-6.187 1.402-9.11 1.394-10.978-3.378a5.902 5.902 0 0 1-.352-3.136c.1-.605.302-1.195.61-1.752l.003-.002c.43-.672 1.132-1.395 2.27-1.885 2.222-.955 4.022-.135 5.35 1.097l.002.001c.265 1.404.888 3.385 2.254 3.07l.003.004.008-.007c1.182-.926.95-3.528.95-3.528l1.58-1.396c.692-.154 1.508-.006 2.282.944"/>
                <path fill="#0B2D72" d="M96.214 13.569l-1.568 1.388s.249 2.61-.927 3.53l-.01.003c-1.363.307-2-1.683-2.274-3.092v-.001c-1.337-1.244-3.141-2.077-5.356-1.135-1.134.483-1.83 1.203-2.256 1.873-5.212-.044-4.463-5.767-2.163-5.341 2.46.456 3.988-1.191 8.645-1.843 5.95-.831 5.91 4.618 5.91 4.618"/>
            </g>
            <path stroke="#170C2C" stroke-width=".583" d="M85.646 67.744c1.9 0 6.085-4.555 3.806-20.542"/>
            <g transform="translate(0 66.96)">
                <path stroke="#002256" stroke-linecap="round" stroke-linejoin="round" stroke-width=".554" d="M9.464 28.075l20.922-17.64M2.49 20.011l20.922-17.64"/>
                <ellipse cx="26.674" cy="6.287" fill="#D0413B" fill-rule="nonzero" rx="2.611" ry="5.755" transform="rotate(-40.09 26.674 6.287)"/>
                <ellipse cx="5.99" cy="23.893" fill="#0B2D72" fill-rule="nonzero" rx="2.611" ry="5.755" transform="rotate(-40.09 5.99 23.893)"/>
            </g>
            <path stroke="#E7ECF3" stroke-width=".792" d="M63.227 24.833l1.276 4.27c-2.516-.351-4.41-.527-5.685-.527-.681 1-5.257 3.414-7.489 3.746-12.31 1.832-28.195-6.319-22.02-21.46C35.586-4.53 64.183-4.744 65.668 17.874c.327 3.215-.486 5.535-2.44 6.958z"/>
            <path stroke="#170C2C" stroke-width=".583" d="M199.388 160.508H3.598"/>
        </g>
    </g>
</svg>
