<svg xmlns="http://www.w3.org/2000/svg" width="263" height="215" viewBox="0 0 263 215">
    <g fill="none" fill-rule="evenodd">
        <path d="M-32-18h328v250H-32z"/>
        <g transform="translate(0 -1)">
            <g transform="translate(58.041 50.824)">
                <path stroke="#E7ECF3" stroke-width=".651" d="M16.847 54.861C8.695 63.787 3.202 73.846.717 84.395c-.985 4.246-1.29 9.088 2.492 12.372 3.781 3.285 10.179 3.973 15.699 2.921 5.52-1.051 16.827-14.081 29.928-24.246 31.254-24.29 61.934-49.695 100.84-67.26C157.079 4.86 164.929 1.77 173.53.77c8.602-1 18.136.416 24.14 4.985 9.39 7.14 7.024 18.695 2.419 27.977-10.902 21.766-30.45 40.71-56.183 54.446"/>
                <ellipse cx="149.071" cy="106.131" fill="#C4D4E3" fill-rule="nonzero" rx="19.513" ry="19.473"/>
                <path stroke="#FFF" stroke-linecap="round" stroke-linejoin="round" stroke-width=".651" d="M127.282 106.858a25.834 25.834 0 0 1 10.966-4.959 8.524 8.524 0 0 1 5.372.35 3.684 3.684 0 0 1 1.965 4.544M141.292 110.493a23.757 23.757 0 0 1 10.303-3.816 7.682 7.682 0 0 0-3.63 6.283M151.217 110.857a2.788 2.788 0 0 1 3.747.22 4.407 4.407 0 0 1 1.001 3.895 11.01 11.01 0 0 1-1.678 3.765 50.029 50.029 0 0 1-8.585 10.385M137.233 122.566a15.433 15.433 0 0 1 8.716-5.31 1.98 1.98 0 0 1 1.782.248c.386.535.474 1.229.234 1.843a14.68 14.68 0 0 1-5.203 8.14"/>
                <path stroke="#FFF" stroke-linecap="round" stroke-linejoin="round" stroke-width=".651" d="M128.908 110.675a13.12 13.12 0 0 1 7.623-4.154 2.867 2.867 0 0 1 1.782.143 2.127 2.127 0 0 1 .91 2.297 5.838 5.838 0 0 1-1.222 2.311 114.398 114.398 0 0 1-9.418 10.49"/>
                <ellipse cx="141.916" cy="97.693" fill="#FFF" fill-rule="nonzero" rx="1.301" ry="1.298"/>
                <path stroke="#FFF" stroke-linecap="round" stroke-linejoin="round" stroke-width=".651" d="M147.003 80.258l-1.38 10.866c-.103.766 0 1.805.742 1.947.453.022.891-.159 1.197-.493l4.202-3.414-.963 8.165c-.104.87-.065 1.987.754 2.311.528.117 1.08.019 1.535-.272a68.478 68.478 0 0 0 14.414-9.373"/>
                <ellipse cx="162.079" cy="107.429" fill="#FFF" fill-rule="nonzero" rx="1.951" ry="3.246"/>
                <ellipse cx="116.55" cy="115.53" stroke="#002256" stroke-linecap="round" stroke-linejoin="round" stroke-width=".651" rx="3.903" ry="3.895"/>
            </g>
            <path stroke="#170C2C" stroke-linejoin="bevel" stroke-width=".754" d="M131.608 62.83s10.545 6.834 23.522 2.381c11.546-3.965 12.784-4.925 12.784-4.925l-4.179 13.046s-15.405 10.993-32.124 2.461"/>
            <path fill="#0B2D72" fill-rule="nonzero" d="M109.275 126.246l30.814 25.268.533 49.571 38.724-13.782s-5.287-4.45-16.514-1.311c0 0 7.458-41.223 3.519-49.1-3.94-7.875-44.249-50.023-62.608-42.478-19.374 7.967-17.702 66.152-17.702 66.152l-36.162 28.91 4.51 25.804h15.113s1.644-4.825-6.484-6.64c0 0 42.427-18.023 48.327-34.1 5.9-16.077 12.395-61.747 12.395-61.747"/>
            <path fill="#2674EA" fill-rule="nonzero" d="M99.508 70.898l11.72 17.003a7.005 7.005 0 0 0 12.225-1.264l7.151-17.003a7.021 7.021 0 0 0-.62-6.602 7.006 7.006 0 0 0-5.839-3.135h-18.87c-5.65 0-8.976 6.348-5.767 11.001z"/>
            <g fill-rule="nonzero">
                <path fill="#D7EDFD" d="M184 92.837l-.274 5.12-4.757-.334-.333 4.761-4.757-.333-.333 4.761-4.676-.327-.087.079-.327 4.676-4.028-.281-.282 4.031-4.029-.282-.281 4.032-4.029-.282-.282 4.031-4.576-.25-.216.188-.102-.206-.244-.014.164-.147-7.835-15.767-8.665-17.438-1.71-3.442-1.188-3.454 15.838-13.942 17.99-17.308 19.564 41.636-.545.492z"/>
                <g fill="#FFF" stroke="#002256" stroke-linecap="round" stroke-linejoin="round" stroke-width=".91" transform="matrix(-1 0 0 1 169.59 62.622)">
                    <ellipse cx="7.662" cy="10.558" rx="4.942" ry="8.742" transform="rotate(19 7.662 10.558)"/>
                    <path d="M8.005 7.363a3.37 3.37 0 0 1 2.062 1.71V9.1a.936.936 0 0 1-.349 1.163 1.01 1.01 0 0 1-1.246-.107l-.107-.103a2.579 2.579 0 0 0-1.554-.895 1.583 1.583 0 0 0-1.428.922 2.605 2.605 0 0 0-.102 1.71c.453 1.744 1.96 3.044 3.801 3.28M9.702 6.02a99.214 99.214 0 0 1-4.454 9.982"/>
                </g>
                <path fill="#FFF" stroke="#002256" stroke-linecap="round" stroke-linejoin="round" stroke-width=".91" d="M147.957 104.894l24.525-20.986M149.803 108.81L168.4 93.514"/>
            </g>
            <path fill="#FFC6BB" fill-rule="nonzero" d="M108.58 60.794l5.367-13.18s-4.14-5.047-1.516-8.452c2.624-3.405 5.777 0 5.777 0s4.14-4.429 9.96-2.378c5.819 2.05 6.08 9.891 3.712 14.205-3.494 6.373-8.1 8.068-14.082 3.68l-3.564 7.628c-.946 2.16-2.307 2.989-4.082 2.487-1.774-.502-2.299-1.832-1.572-3.99z"/>
            <path fill="#0B2D72" fill-rule="nonzero" d="M115.68 37.709s.89-6.709 9.536-6.175c8.646.533 9.178 3.804 12.702 3.071 3.524-.733 3.934 9.767-5.495 8.7-9.428-1.066-8.976-1.557-8.976-1.557s-1.145 4.1-3.435 3.24c-2.291-.862-2.009-5.333-2.009-5.333"/>
            <path stroke="#170C2C" stroke-linejoin="bevel" stroke-width=".754" d="M169.887 60.286s-.903 13.865.407 14.195c1.31.331 3.934-9.518 3.934-9.518s-2.293 11.651-.983 11.98c1.31.327 3.442-8.327 3.442-8.327s-1.393 9.393 0 9.473c1.393.08 2.746-9.905.532-12.694a33.982 33.982 0 0 0-4.917-4.922"/>
            <path stroke="#FFF" stroke-linejoin="round" stroke-width=".754" d="M122.846 121.167l-3.277 23.08"/>
            <path stroke="#FFF" stroke-width="3" d="M135.581 92.118l5.115 10.02"/>
            <path stroke="#170C2C" stroke-linejoin="bevel" stroke-width=".754" d="M97.17 71.077s3.217 18.005 9.854 23.913c6.638 5.909 26.923 9.887 30.61 8.655 3.685-1.232 7.457-4.432 7.13-5.333-.328-.9-8.154 1.95-8.154 1.95s9.453-4.579 8.891-6.114c-.724-1.976-9.956 2.605-9.956 2.605s7.868-4.618 7.437-5.866c-.554-1.6-8.428 1.56-8.428 1.56l-16.308-6.031-2.664-8.959"/>
            <path stroke="#FFF" stroke-linejoin="round" stroke-width=".754" d="M105.85 93.78s4.6 6.473 25.532 9.753"/>
            <ellipse cx="71.146" cy="103.865" fill="#E33031" rx="4.942" ry="4.941"/>
            <g fill-rule="nonzero" transform="translate(156.893)">
                <path fill="#FFF" stroke="#002256" stroke-linecap="round" stroke-linejoin="round" stroke-width=".91" d="M7.312 21.829L23.588 8.115M2.045 15.565L18.32 1.851"/>
                <ellipse cx="20.95" cy="4.976" fill="#D0413B" rx="2.046" ry="4.501" transform="rotate(-40.09 20.95 4.976)"/>
                <ellipse cx="4.679" cy="18.684" fill="#0B2D72" rx="2.046" ry="4.501" transform="rotate(-40.09 4.679 18.684)"/>
            </g>
            <path stroke="#170C2C" stroke-width=".686" d="M229.605 215.63H0"/>
        </g>
    </g>
</svg>
