<svg xmlns="http://www.w3.org/2000/svg" width="284" height="225" viewBox="0 0 284 225">
    <g fill="none" fill-rule="evenodd">
        <path d="M-22-12h328v250H-22z"/>
        <g transform="translate(0 1)">
            <path stroke="#E7ECF3" stroke-width=".802" d="M47.675 138.199c-22.486 57.016 55.786 62.406 83.766 34.35 26.707-26.781 11.521-60.548 11.384-92.36-.057-13.377 1.813-26.829 5.021-39.813 1.951-7.896 5.923-15.261 10.284-22.124 2.78-4.377 8.252-10.147 18.466-14.63 14.784-6.491 50.48-6.491 61.409 19.062 10.927 25.553 14.458 60.827-10.928 70.822"/>
            <g stroke="#170C2C" stroke-width=".844">
                <path d="M150.61 61.173c1.914 5.258 4.907 11.82 9.87 14.445 8.882 4.73 20.218 2.727 27.497-4.098.696-.655 1.826-2.524 2.746-2.606.92-.083 1.227 1.08.9 1.832-.327.753-1.04 1.268-1.484 1.984-.714 1.176.194 1.583 1.308 1.579 1.505-.12 2.97-.545 4.304-1.251.406-.232 2.483-1.054 2.943-.968.581.24-.713 1.619-.888 2.221a2.128 2.128 0 0 1-1.19 1.296c.8-.393 3.413-1.214 3.798.01.106.49-1.443 1.546-1.72 1.963a1.87 1.87 0 0 1-1.206.8c1.368-.26 3.895.002 2.926 1.27-.732.945-3.874 2.335-4.894 2.939a53.684 53.684 0 0 1-3.975 2.177 56.171 56.171 0 0 1-8.428 3.374 57.903 57.903 0 0 1-17.913 2.637 29.267 29.267 0 0 1-22.077-11.125 40.303 40.303 0 0 1-4.71-7.561M198.136 78.33a58.028 58.028 0 0 1-5.797 2.747M196.76 75.447a18.323 18.323 0 0 1-5.666 2.73"/>
            </g>
            <path fill="#EAF5FD" fill-rule="nonzero" d="M250.45 77.292a4.498 4.498 0 0 1 4.25 4.615l-1.84 67.709a4.496 4.496 0 0 1-4.832 4.364l-92.036-6.986a4.497 4.497 0 0 1-4.153-4.36l-1.837-65.914a4.496 4.496 0 0 1 4.735-4.619l95.713 5.19z"/>
            <path fill="#FFF" d="M160.14 80.883l36.623 1.922a2.91 2.91 0 0 1 2.751 3.058 2.908 2.908 0 0 1-3.055 2.754l-36.624-1.921a2.91 2.91 0 0 1-2.75-3.059 2.908 2.908 0 0 1 3.055-2.754zM237.473 86.436l7.593.398a2.91 2.91 0 0 1 2.75 3.06 2.908 2.908 0 0 1-3.054 2.753l-7.593-.398a2.91 2.91 0 0 1-2.751-3.059 2.908 2.908 0 0 1 3.055-2.754z"/>
            <path fill="#0040A8" d="M159.611 138.5c6.31-17.747 14.212-26.288 23.709-25.623 14.244.997 9.027 15.828 20.211 16.24 11.184.411 15.121-23.404 28.538-21.613 8.945 1.194 13.941 13.567 14.989 37.118L159.61 138.5z"/>
            <g>
                <path fill="#0B2D72" fill-rule="nonzero" d="M128.277 26.507c-6.19.496-12.673 3.958-13.7 10.14-.833 5.043-2.056 8.71-1.671 13.818.336 4.515-.85 9.463 1.603 13.306 2.133 3.41 5.084-6.707 9.11-6.883 4.025-.176 9.495 10.085 13.392 9.413 3.897-.673 8.372-.625 11.692 1.6 2.02 1.394 3.496 3.524 5.693 4.628 3.881 1.938 8.998-.32 10.938-4.195a12.585 12.585 0 0 0-1.299-12.345 24.371 24.371 0 0 0-10.104-8.006c-3.208-1.601-6.688-2.738-9.142-5.284a16.004 16.004 0 0 1-3.608-6.821c-.546-1.954-.417-4.516-1.604-6.197-2.79-4.115-6.697-3.558-11.3-3.174z"/>
                <path fill="#FDC130" fill-rule="nonzero" d="M123.91 51.384c12.617 0 22.846 10.246 22.846 22.885 0 12.64-10.229 22.885-22.847 22.885-12.618 0-22.846-10.246-22.846-22.885 0-12.639 10.229-22.884 22.846-22.885z"/>
                <path stroke="#FFF" stroke-linejoin="round" stroke-width="1.261" d="M116.878 80.787c.392 6.261.263 12.162 1.28 12.289 2.08.255 5.084-5.622 7.142-5.004 2.06.618 3.873 4.972 4.957 8.184M100.96 74.19c3.858-4.923 8.181-9.087 11.174-8.002 1.407.51 2.396 1.998 3.098 4.03M132.545 70.119c2.826-2.639 6.239-7.01 8.852-10.576M119.468 51.819c-.344 4.736-.176 8.812 1.317 9.379 2.653 1.005 8.67-5.495 8.67-5.495s-1.973 4.86-2.71 9.404M145.994 68.42c-2.173 4.442-5.181 12.282-4.657 20.855"/>
                <path fill="#0B2D72" fill-rule="nonzero" d="M104.179 222.876h47.264s-5.31-7.624-8.851-8.157l4.17-92.991a24.393 24.393 0 0 0-6.72-17.934 24.31 24.31 0 0 0-17.584-7.528 24.313 24.313 0 0 0-18.52 8.564 24.395 24.395 0 0 0-5.5 19.676l14.236 88.795s-6.904 4.077-8.495 9.575z"/>
                <path stroke="#FFF" stroke-width=".938" d="M123.618 222.876l-2.655-102.672"/>
                <path stroke="#0B2D72" stroke-width="1.604" d="M164.228 64.427a13.4 13.4 0 0 0 1.896-10.28 13.419 13.419 0 0 0-6.066-8.518c-3.32-2.05-7.314-2.546-11.115-3.41-3.8-.865-7.778-2.37-9.96-5.573"/>
                <path fill="#FFC6BB" fill-rule="nonzero" d="M122.017 56.28l2.348-16.85s-4.825-3.697-3.172-7.348c1.654-3.65 5.243-1.233 5.243-1.233s2.807-4.906 8.519-4.288c5.712.617 7.619 7.68 6.391 12.103-1.813 6.531-5.216 9.227-11.577 6.52l-.845 9.341"/>
                <path fill="#0B2D72" fill-rule="nonzero" d="M122.663 51.64c6.387-.724 6.505-21.165 6.505-21.165 5.413 4.623 12.47 4.26 12.47 4.26s-.023-9.8-10.484-10.487c-10.461-.688-13.9 5.476-13.9 5.476s-11.441.694-13.178 9.553c-1.736 8.86 6.689 16.45 6.689 16.45s6.824-3.508 11.898-4.086z"/>
                <path stroke="#170C2C" stroke-linejoin="bevel" stroke-width=".844" d="M150.675 101.932s9.59 5.57 9.321 6.827c-.269 1.257-8.165-2.786-8.165-2.786s8.43 6.47 8.16 7.909c-.268 1.439-9.324-4.269-9.324-4.269s6.452 5.3 6.184 6.38c-.269 1.08-7.646-2.965-10.485-3.325-2.84-.359-27.244-6.75-30.112-9.985-2.868-3.235-13.584-25.104-13.584-25.104M112.528 61.827c1.966-.09 11.747 26.237 11.747 26.237l24.465 10.828h2.71"/>
                <path stroke="#FFF" stroke-width=".844" d="M144.387 112.377s-21.281-3.912-26.707-8.838c-3.733-3.39-5.513-7.435-5.513-7.435"/>
            </g>
            <ellipse cx="224.249" cy="28.181" stroke="#002256" stroke-linecap="round" stroke-linejoin="round" stroke-width=".665" rx="3.981" ry="3.986"/>
            <ellipse cx="244.531" cy="41.77" fill="#D0413B" fill-rule="nonzero" rx="5.255" ry="5.262"/>
            <g>
                <path fill="#C4D4E3" fill-rule="nonzero" d="M25.007 141.124c-9.622 6.253.247 13.718-3.568 18.733-3.814 5.014-7.342 11.666-1.632 16.95 5.71 5.283 15.629 7.316 22.7 6.88 14.519-.895 26.857-11.167 28.59-22.434 1.733-11.268-4.18-20.341-18.457-23.631-14.276-3.29-21.21-.674-27.633 3.502z"/>
                <g transform="translate(14.535 137.491)">
                    <path stroke="#FFF" stroke-linecap="round" stroke-linejoin="round" stroke-width=".802" d="M15.944 44.787a31.862 31.862 0 0 0 12.051-8.664 10.533 10.533 0 0 0 2.938-5.959 4.542 4.542 0 0 0-3.637-4.902M20.702 27.57c4.1-2.031 7.671-4.997 10.424-8.66a9.454 9.454 0 0 1-8.942.005M26.433 16.735a3.444 3.444 0 0 0 2.074-4.14 5.43 5.43 0 0 0-3.538-3.473 13.545 13.545 0 0 0-5.051-.528 61.58 61.58 0 0 0-16.373 2.773M5.319 24.462a19.024 19.024 0 0 0 11.038-6.042 2.448 2.448 0 0 0 .835-2.057 2.394 2.394 0 0 0-1.822-1.387 18.064 18.064 0 0 0-11.892.542"/>
                    <path stroke="#FFF" stroke-linecap="round" stroke-linejoin="round" stroke-width=".802" d="M12.874 40.695a16.176 16.176 0 0 0 9.132-5.586c.52-.547.85-1.245.946-1.993a2.622 2.622 0 0 0-1.89-2.39 7.183 7.183 0 0 0-3.22-.119c-5.733.849-11.41 2.05-16.997 3.599"/>
                    <ellipse cx="34.744" cy="34.796" fill="#FFF" fill-rule="nonzero" rx="1.605" ry="1.6" transform="scale(1 -1) rotate(60 95.013 0)"/>
                    <path stroke="#FFF" stroke-linecap="round" stroke-linejoin="round" stroke-width=".802" d="M56.482 40.111l-12.444-5.227c-.881-.361-1.925-1.113-1.62-1.993a1.88 1.88 0 0 1 1.264-.975l6.233-2.386-9.306-4.007c-.992-.425-2.16-1.156-2-2.232a2.51 2.51 0 0 1 1.237-1.472 84.396 84.396 0 0 1 18.885-9.627"/>
                    <ellipse cx="36.786" cy="7.238" fill="#FFF" fill-rule="nonzero" rx="2.408" ry="4" transform="scale(1 -1) rotate(60 49.322 0)"/>
                </g>
            </g>
            <path stroke="#170C2C" stroke-width=".844" d="M283.08 222.87H0"/>
        </g>
    </g>
</svg>
