<svg xmlns="http://www.w3.org/2000/svg" width="170" height="156" viewBox="0 0 170 156">
    <g fill="none" fill-rule="evenodd">
        <path d="M-73-17h320v180H-73z"/>
        <g transform="translate(-5.817 -8.36)">
            <path fill="#FDC130" fill-rule="nonzero" d="M111.526 62.943l-9.143 18.368c-2.452 4.925-9.39 5.21-12.228.51l-9.45-15.667a6.937 6.937 0 0 1-.326-6.569 6.99 6.99 0 0 1 5.31-3.912l18.602-2.702c5.559-.807 9.733 4.947 7.235 9.972z"/>
            <g stroke="#FFF" stroke-linejoin="round" stroke-width=".549">
                <path d="M103.057 72.944c.542 2.682 1.262 5.154.848 5.322-.847.342-2.776-1.795-3.573-1.302-.798.493-1.07 2.532-1.164 4.008M109.017 68.368c-2.18-1.64-4.472-2.906-5.61-2.11-.535.373-.783 1.112-.85 2.047M88.337 64.554c-1.489-.793-3.42-2.249-4.923-3.457M104.084 54.215c.68 1.957 1.07 3.693.505 4.1-1.005.724-4.273-1.336-4.273-1.336s1.38 1.825 2.204 3.657M82.48 65.356c1.416 1.626 3.569 4.59 4.316 8.262"/>
            </g>
            <path fill="#FFC6BB" fill-rule="nonzero" d="M94.743 56.603l.904-12.607s-4.708-2.839-3.574-6.274c1.134-3.436 4.602-1.626 4.602-1.626s2.053-4.682 7.263-4.683c5.21-.001 7.596 3.127 7.95 7.241.622 7.16-3.348 9.136-10.992 8.623l-.907 8.28"/>
            <path fill="#0B2D72" fill-rule="nonzero" d="M94.255 35.654s-1.172-5.567 5.865-7.573c7.038-2.006 8.376.439 10.979-1.132 2.602-1.57 5.868 6.638-1.937 8.44-7.804 1.803-7.584 1.285-7.584 1.285s.235 3.574-1.834 3.535c-2.069-.04-3.09-3.663-3.09-3.663"/>
            <path stroke="#E7ECF3" stroke-width=".5" d="M20.825 120.35s27.482 11.75 34.524 7.638c2.967-1.73-5.689-6.884-4.268-8.129 1.42-1.245 9.965 3.802 14.115-2.017 6.439-9.027-17.552-30.78-3.734-49.453 13.817-18.672 30.16-7.197 41.138-12.172 10.979-4.976 20.918-41.874 30.313-45.188 9.396-3.316 1.536 48.251 10.711 52.525 5.243 2.44 8.901-7.999 12.264-8.457 3.363-.457 1.51 6.62 4.352 6.108 2.842-.513 14.926-19.918 14.926-19.918"/>
            <ellipse cx="133.421" cy="12.226" fill="#E33031" rx="3.796" ry="3.785" transform="rotate(-60 133.421 12.226)"/>
            <g stroke="#002256" stroke-linecap="round" stroke-linejoin="round" stroke-width=".5" transform="translate(152.264 117.391)">
                <ellipse cx="6.373" cy="8.011" rx="3.788" ry="6.711" transform="scale(-1 1) rotate(19 0 -30.071)"/>
                <path d="M6.11 5.557a2.584 2.584 0 0 0-1.58 1.314v.02a.72.72 0 0 0 .267.893.772.772 0 0 0 .955-.082l.082-.079c.298-.362.72-.606 1.19-.687.477.006.906.283 1.096.708.173.418.2.879.078 1.313-.348 1.34-1.502 2.337-2.913 2.52M4.81 4.526a76.27 76.27 0 0 0 3.412 7.665"/>
            </g>
            <path stroke="#C4D4E3" stroke-width=".5" d="M61.33 152.853l43.408-18.483 12.252 28.954 28.94-12.322"/>
            <g transform="translate(6.142 51.237)">
                <ellipse cx="14.232" cy="16.943" fill="#C4D4E3" fill-rule="nonzero" rx="12.745" ry="12.752"/>
                <path stroke="#FFF" stroke-linecap="round" stroke-linejoin="round" stroke-width=".5" d="M0 17.42a16.853 16.853 0 0 1 7.163-3.248 5.554 5.554 0 0 1 3.509.23 2.415 2.415 0 0 1 1.283 2.975M9.151 19.8a15.493 15.493 0 0 1 6.73-2.5 5.033 5.033 0 0 0-2.371 4.115M15.634 20.038a1.818 1.818 0 0 1 2.447.144c.615.696.858 1.645.654 2.55a7.22 7.22 0 0 1-1.096 2.466A32.743 32.743 0 0 1 12.031 32M6.5 27.706a10.076 10.076 0 0 1 5.693-3.477 1.29 1.29 0 0 1 1.164.161c.252.351.31.805.153 1.208a9.616 9.616 0 0 1-3.399 5.33"/>
                <path stroke="#FFF" stroke-linecap="round" stroke-linejoin="round" stroke-width=".5" d="M1.062 19.919a8.563 8.563 0 0 1 4.98-2.72 1.868 1.868 0 0 1 1.163.093c.499.323.738.927.595 1.505a3.826 3.826 0 0 1-.799 1.513A74.85 74.85 0 0 1 .85 27.179"/>
                <ellipse cx="9.559" cy="11.417" fill="#FFF" fill-rule="nonzero" rx="1" ry="1"/>
                <path stroke="#FFF" stroke-linecap="round" stroke-linejoin="round" stroke-width=".5" d="M12.881 0l-.9 7.116c-.069.501 0 1.181.484 1.275a.994.994 0 0 0 .781-.323l2.745-2.236-.629 5.347c-.068.57-.042 1.301.493 1.514.345.076.705.012 1.003-.179a44.716 44.716 0 0 0 9.414-6.138"/>
                <ellipse cx="22.729" cy="17.793" fill="#FFF" fill-rule="nonzero" rx="1.275" ry="2.125"/>
            </g>
            <path fill="#0B2D72" fill-rule="nonzero" d="M88.11 92.727c-13.63 3.77-31.292 21.332-29.18 30.566 2.11 9.234 26.617 22.3 26.617 22.3s-3.176 5.645-1.743 9.522l15.156-18.061-17.333-13.17 14.897-12.412 14.914 3.307-.722 32.966 21.116 6.344s-2.086-5.822-6.23-7.606c0 0 9.905-39.41 3.47-47.667-6.433-8.256-27.61-9.78-40.962-6.089"/>
            <path stroke="#FFFFFE" stroke-width=".5" d="M76.27 119.508l15.718 11.988m19.268-20.053l-.13 5.27"/>
            <g>
                <g transform="rotate(-27 132.585 -84.789)">
                    <path fill="#2674EA" fill-rule="nonzero" d="M32.013 15.762l-.054-.01c12.906 2.846 21.704 14.81 20.557 27.957-1.146 13.146-11.881 23.394-25.084 23.946-13.203.552-24.774-8.764-27.04-21.768-2.265-13.004 5.48-25.66 18.097-29.572.222-.072.453-.115.673-.174-.44-.677-.953-1.325-1.432-1.94a13.016 13.016 0 0 1-2.99-6.798A7.196 7.196 0 0 1 17.627.846a5.05 5.05 0 0 1 6.716 1.018c.385.751.839 1.466 1.355 2.135 1.415 1.392 3.684.873 5.545.212 1.861-.66 4.048-1.348 5.617-.193 1.803 1.336 1.404 4.234.08 6.049-1.325 1.815-3.296 3.097-4.522 4.985a7.278 7.278 0 0 0-.404.71z"/>
                    <path stroke="#E7ECF3" stroke-width=".745" d="M27.902 63.674l5.571-3.895M40.508 58.864l4.775-3.338M24.358 54.918l2.23 3.181M30.698 20.31l2.789 3.976M19.578 9.734l2.79 3.976M11.626 27.145l1.674 2.386"/>
                    <ellipse cx="13.715" cy="58.872" fill="#FFF" fill-rule="nonzero" rx="1.375" ry="1.372" transform="rotate(10 13.715 58.872)"/>
                    <ellipse cx="42.207" cy="29.058" fill="#FFF" fill-rule="nonzero" rx="1.375" ry="1.372" transform="rotate(10 42.207 29.058)"/>
                    <ellipse cx="28.734" cy="9.259" fill="#FFF" fill-rule="nonzero" rx="1.375" ry="1.372" transform="rotate(10 28.734 9.26)"/>
                </g>
                <path fill="#FDC130" fill-rule="nonzero" d="M89.699 69.29c8.016-20.89 20.02 11.424 10.716 16.165-9.305 4.741-32.578-23.659-12.531-16.742l1.815.577z"/>
            </g>
            <path stroke="#1F1F26" stroke-linejoin="bevel" stroke-width=".583" d="M64.84 81.168c1.436-1.273 8.416-4.228 9.294-3.08.732.957-5.35 4.463-5.35 4.463s8.54-2.596 9.097-1.151c.58 1.504-7.831 4.512-7.831 4.512s6.344-2.02 7.012-.86c.664 1.151-5.293 5.014-7.552 5.097-1.667.06-3.716-.853-4.968-3.004-1.387-2.381-.945-4.876.298-5.977zM119.136 86.83c-1.897-.443-8.722-4.08-7.867-5.739.546-1.06 6.828 1.809 6.828 1.809s-7.804-3.819-7.177-5.226c.627-1.406 9.335 2.345 9.335 2.345s-5.299-3.963-4.686-5.142c.61-1.172 7.268 1.457 8.61 3.222.992 1.301 1.366 3.451.233 5.65-1.254 2.434-3.634 3.466-5.276 3.081z"/>
        </g>
    </g>
</svg>
