<svg xmlns="http://www.w3.org/2000/svg" width="236" height="217" viewBox="0 0 236 217">
    <g fill="none" fill-rule="evenodd">
        <path d="M-43-23h328v250H-43z"/>
        <g transform="translate(-8 -11)">
            <path fill="#FDC130" fill-rule="nonzero" d="M155 87.418l-12.71 25.514c-3.41 6.842-13.052 7.24-16.995.713l-13.13-21.76a9.63 9.63 0 0 1-.45-9.123 9.718 9.718 0 0 1 7.379-5.435l25.853-3.758c7.726-1.122 13.526 6.87 10.053 13.85z"/>
            <g stroke="#FFF" stroke-linejoin="round" stroke-width=".762">
                <path d="M143.228 101.311c.752 3.726 1.753 7.158 1.177 7.392-1.177.476-3.857-2.492-4.966-1.808-1.108.685-1.488 3.517-1.618 5.567M151.512 94.954c-3.03-2.276-6.214-4.035-7.796-2.93-.744.519-1.09 1.545-1.182 2.844M122.772 89.661c-2.069-1.1-4.752-3.123-6.841-4.8M144.66 75.298c.944 2.717 1.485 5.13.7 5.695-1.396 1.004-5.938-1.855-5.938-1.855s1.918 2.535 3.062 5.078M114.632 90.777c1.968 2.258 4.959 6.374 5.996 11.474"/>
            </g>
            <path fill="#FFC6BB" fill-rule="nonzero" d="M131.676 78.617l1.26-17.512s-6.542-3.94-4.965-8.713c1.577-4.772 6.395-2.26 6.395-2.26s2.855-6.502 10.096-6.505c7.241-.003 10.556 4.34 11.047 10.055.862 9.944-4.656 12.69-15.278 11.98l-1.264 11.501"/>
            <path fill="#0B2D72" fill-rule="nonzero" d="M131.004 49.52s-1.628-7.733 8.153-10.52c9.781-2.788 11.64.607 15.257-1.575 3.618-2.183 8.154 9.219-2.693 11.723-10.847 2.505-10.54 1.787-10.54 1.787s.326 4.964-2.55 4.91c-2.875-.055-4.295-5.087-4.295-5.087"/>
            <path stroke="#E7ECF3" stroke-width=".693" d="M28.943 167.152s38.195 16.321 47.982 10.61c4.124-2.404-7.906-9.561-5.931-11.29 1.974-1.73 13.85 5.28 19.618-2.802 8.948-12.538-24.395-42.751-5.19-68.685 19.204-25.934 41.916-9.996 57.175-16.906 15.258-6.911 29.073-58.158 42.13-62.761 13.058-4.605 2.135 67.016 14.887 72.951 7.285 3.39 12.37-11.109 17.044-11.745 4.673-.636 2.1 9.194 6.048 8.482 3.951-.712 20.745-27.663 20.745-27.663"/>
            <ellipse cx="185.433" cy="16.98" fill="#E33031" rx="5.273" ry="5.26" transform="rotate(-60 185.433 16.98)"/>
            <g stroke="#002256" stroke-linecap="round" stroke-linejoin="round" transform="translate(211.62 163.044)">
                <ellipse cx="8.857" cy="11.126" stroke-width=".693" rx="5.264" ry="9.322" transform="scale(-1 1) rotate(19 0 -41.801)"/>
                <path stroke-width=".539" d="M8.492 7.719a3.59 3.59 0 0 0-2.196 1.823v.03a1 1 0 0 0 .371 1.24c.414.274.97.226 1.328-.114l.113-.11a2.746 2.746 0 0 1 1.655-.955 1.686 1.686 0 0 1 1.522.984c.24.58.278 1.22.108 1.823-.483 1.86-2.087 3.247-4.048 3.5M6.685 6.287a105.895 105.895 0 0 0 4.743 10.646"/>
            </g>
            <path stroke="#C4D4E3" stroke-width=".591" d="M85.238 212.296l60.33-25.671 17.029 40.214 40.22-17.114"/>
            <g transform="translate(8.537 71.163)">
                <ellipse cx="19.78" cy="23.532" fill="#C4D4E3" fill-rule="nonzero" rx="17.714" ry="17.711"/>
                <path stroke="#FFF" stroke-linecap="round" stroke-linejoin="round" stroke-width=".591" d="M0 24.194a23.43 23.43 0 0 1 9.955-4.51 7.724 7.724 0 0 1 4.877.318 3.353 3.353 0 0 1 1.783 4.132M12.718 27.5a21.541 21.541 0 0 1 9.353-3.472 6.99 6.99 0 0 0-3.295 5.715M21.729 27.83a2.527 2.527 0 0 1 3.4.2 4.014 4.014 0 0 1 .91 3.543 10.024 10.024 0 0 1-1.523 3.424 45.484 45.484 0 0 1-7.794 9.446M9.034 38.48a14.006 14.006 0 0 1 7.912-4.829 1.795 1.795 0 0 1 1.618.225c.35.487.43 1.117.212 1.676a13.354 13.354 0 0 1-4.723 7.404"/>
                <path stroke="#FFF" stroke-linecap="round" stroke-linejoin="round" stroke-width=".591" d="M1.476 27.665a11.904 11.904 0 0 1 6.92-3.778 2.598 2.598 0 0 1 1.618.13 1.936 1.936 0 0 1 .827 2.09 5.313 5.313 0 0 1-1.11 2.101 103.981 103.981 0 0 1-8.55 9.54"/>
                <ellipse cx="13.285" cy="15.857" fill="#FFF" fill-rule="nonzero" rx="1.181" ry="1.181"/>
                <path stroke="#FFF" stroke-linecap="round" stroke-linejoin="round" stroke-width=".591" d="M17.902 0l-1.251 9.883c-.095.696 0 1.641.673 1.771.41.02.809-.145 1.086-.449L22.225 8.1l-.874 7.427c-.095.79-.06 1.806.685 2.102.479.106.98.016 1.393-.248a62.152 62.152 0 0 0 13.085-8.525"/>
                <ellipse cx="31.589" cy="24.713" fill="#FFF" fill-rule="nonzero" rx="1.771" ry="2.952"/>
            </g>
            <path fill="#0B2D72" fill-rule="nonzero" d="M122.461 128.788c-18.943 5.237-43.491 29.632-40.558 42.457 2.933 12.824 36.991 30.968 36.991 30.968s-4.415 7.842-2.424 13.226l21.066-25.086-24.088-18.289 20.705-17.243 20.727 4.593-1.006 45.786 29.347 8.809s-2.9-8.087-8.658-10.564c0 0 13.77-54.737 4.828-66.204-8.94-11.467-38.373-13.582-56.93-8.453"/>
            <path stroke="#FFFFFE" stroke-width=".567" d="M106.004 165.986l21.843 16.648m26.782-27.854l-.183 7.32"/>
            <g>
                <g transform="rotate(-27 184.202 -117.89)">
                    <path fill="#2674EA" fill-rule="nonzero" d="M44.493 21.891l-.075-.013c17.937 3.952 30.165 20.57 28.571 38.828-1.594 18.26-16.514 32.493-34.863 33.26-18.35.766-34.433-12.173-37.58-30.234-3.15-18.061 7.615-35.639 25.15-41.072.309-.1.63-.16.935-.242-.61-.94-1.324-1.84-1.989-2.693a18.073 18.073 0 0 1-4.155-9.444 9.991 9.991 0 0 1 4.01-9.106 7.022 7.022 0 0 1 9.334 1.414 19.215 19.215 0 0 0 1.883 2.965c1.968 1.934 5.12 1.213 7.707.295 2.587-.918 5.626-1.873 7.807-.268 2.505 1.854 1.95 5.88.11 8.4-1.841 2.521-4.58 4.303-6.283 6.925-.206.318-.393.646-.562.985z"/>
                    <path stroke="#E7ECF3" stroke-width="1.035" d="M38.78 88.435l7.742-5.409M56.3 81.755l6.636-4.636M33.853 76.275l3.1 4.418M42.665 28.207l3.876 5.523M27.21 13.52l3.876 5.522M16.159 37.701l2.325 3.314"/>
                    <ellipse cx="19.061" cy="81.766" fill="#FFF" fill-rule="nonzero" rx="1.91" ry="1.906" transform="rotate(10 19.061 81.766)"/>
                    <ellipse cx="58.661" cy="40.359" fill="#FFF" fill-rule="nonzero" rx="1.91" ry="1.906" transform="rotate(10 58.66 40.359)"/>
                    <ellipse cx="39.935" cy="12.86" fill="#FFF" fill-rule="nonzero" rx="1.91" ry="1.906" transform="rotate(10 39.935 12.86)"/>
                </g>
                <path fill="#FDC130" fill-rule="nonzero" d="M124.667 96.237c11.147-29.02 27.817 15.862 14.885 22.451-12.933 6.59-45.263-32.852-17.408-23.251l2.523.8z"/>
            </g>
            <path stroke="#1F1F26" stroke-linejoin="bevel" stroke-width=".81" d="M90.116 112.733c1.996-1.768 11.697-5.872 12.918-4.277 1.017 1.329-7.435 6.198-7.435 6.198s11.868-3.605 12.643-1.599c.806 2.089-10.885 6.267-10.885 6.267s8.818-2.804 9.746-1.194c.923 1.599-7.356 6.964-10.496 7.078-2.316.085-5.165-1.184-6.905-4.17-1.927-3.308-1.313-6.774.414-8.303zM165.578 120.598c-2.636-.617-12.121-5.668-10.934-7.971.76-1.474 9.49 2.512 9.49 2.512s-10.846-5.304-9.974-7.258c.872-1.954 12.974 3.257 12.974 3.257s-7.365-5.505-6.512-7.142c.848-1.628 10.1 2.023 11.967 4.475 1.377 1.807 1.897 4.793.323 7.847-1.743 3.38-5.052 4.813-7.334 4.28z"/>
        </g>
    </g>
</svg>
