<svg xmlns="http://www.w3.org/2000/svg" width="166" height="138" viewBox="0 0 166 138">
    <g fill="none" fill-rule="evenodd">
        <path d="M-78-23h320v180H-78z"/>
        <path stroke="#E7ECF3" stroke-width=".539" d="M24.091 24.994a63.63 63.63 0 0 0-9.73 24.478c-.594 3.519-.778 7.532 1.503 10.254 2.282 2.722 6.14 3.293 9.47 2.421 3.33-.872 31.642-16.4 42.49-24.026 17.383-12.221 40.64-15.394 64.11-29.952 4.465-2.754 9.2-5.315 14.389-6.144 5.19-.828 10.94.345 14.562 4.132 5.665 5.918 4.238 15.494 1.46 23.187a97.297 97.297 0 0 1-33.892 45.125"/>
        <ellipse cx="4.485" cy="4.41" fill="#E33031" rx="4.107" ry="4.095" transform="rotate(-60 82.104 -128.938)"/>
        <g stroke="#002256" stroke-linecap="round" stroke-linejoin="round" transform="matrix(-1 0 0 1 37.146 4.9)">
            <ellipse cx="6.911" cy="8.646" stroke-width=".539" rx="4.106" ry="7.247" transform="rotate(19 6.911 8.646)"/>
            <g stroke-width=".5">
                <path d="M7.196 5.998c.75.222 1.372.736 1.714 1.417v.023a.775.775 0 0 1-.29.964.84.84 0 0 1-1.036-.089l-.088-.085a2.145 2.145 0 0 0-1.292-.742 1.316 1.316 0 0 0-1.187.764c-.188.45-.217.949-.085 1.417.377 1.446 1.629 2.523 3.16 2.72M8.606 4.885a82.118 82.118 0 0 1-3.7 8.273"/>
            </g>
        </g>
        <g>
            <path stroke="#C4D4E3" stroke-width=".5" d="M26.691 102.995h51.144v33.95h34.096"/>
            <path fill="#0B2D72" fill-rule="nonzero" d="M103.453 20.26a8.508 8.508 0 0 1-4.257-1.67c-1.143-1.028-1.613-2.964-.59-4.11.756-.845 2.129-1.12 2.553-2.166.497-1.22-.636-2.423-1.115-3.67a3.731 3.731 0 0 1 .662-3.799 3.77 3.77 0 0 1 3.678-1.202c1.115.248 2.092 1 3.225 1.073 1.733.101 3.106-1.34 4.304-2.587C113.11.88 114.815-.358 116.437.294c2.332.872 2.276 4.725 4.608 5.597 1.235.459 2.672-.147 3.907.312a3.669 3.669 0 0 1 2.037 3.202c.138 1.321-.083 2.67.083 3.982.294 2.23 1.695 4.276 1.603 6.524-.129 3.35-3.686 5.744-7.022 5.882-3.336.137-6.543-1.395-9.556-2.882"/>
            <path fill="#FDC130" fill-rule="nonzero" d="M115.083 30.582c-8.942-2.574-18.287 2.557-20.873 11.46l32.382 9.323c2.58-8.903-2.57-18.204-11.51-20.783z"/>
            <path fill="#FFC6BB" fill-rule="nonzero" d="M106.863 12.846c-4.073 1.018-6.239 5.441-5.465 9.322.774 3.881 4.682 5.441 7.805 5.441l.609 4.258a2.501 2.501 0 0 0 2.147 2.165c.393.045.791-.028 1.142-.21h.047a2.75 2.75 0 0 0 1.456-2.598l-.72-11.368-.285-2.294a5.501 5.501 0 0 0-2.279-3.815 5.548 5.548 0 0 0-4.365-.901h-.092z"/>
            <path fill="#0B2D72" fill-rule="nonzero" d="M103.343 14.791s1.253 7.34 10.772 8.35l.46 6.423s4.802-6.478 2.765-12.424c-2.036-5.946-11.657-7.01-13.997-2.349z"/>
            <path stroke="#170C2C" stroke-width=".567" d="M93.62 43.446c-17.508 5.047-24.64 6.515-28.216 6.093a2.445 2.445 0 0 1-2.156-2.303c-.664-12.653 11.98-25.985 13.675-26.141 1.695-.156 9.685-1.835 9.685-1.835-.636 2.752-2.414 2.899-2.414 2.899l-4.36 1.303 3.687 1.44.498 5.304c-1.77.165-2.11-3.377-2.11-3.377l-2.765-.633a4.35 4.35 0 0 1 1.142 2.57l-2.359 2.936c-1.778.165-1.142-2.57-1.142-2.57-1.604 1.936-2.71 9.176-2.71 9.176s22.89-9.616 28.079-9.304"/>
            <path fill="#0B2D72" fill-rule="nonzero" d="M102.006 62.11c-11.98-4.378-38.086-9.176-43.615 1.513-5.529 10.69 2.24 34.968 2.24 34.968s-5.18-1.101-6.285 4.046l23.296.239-2.608-26.031 18.587 3.276 12.459-11.763s2.958-3.67-4.074-6.249z"/>
            <path fill="#0B2D72" fill-rule="nonzero" d="M87.3 136.899l10.486-.166 15.527-8.11-5.39-10.672c-1.392-2.752-2.848-5.505-4.175-8.258-1.327-2.752-3.391-5-3.244-8.395a21.034 21.034 0 0 1 2.01-7.212 134.231 134.231 0 0 1 4.699-9.919c1.622-3.065 3.686-5.872 4.506-9.249 2.433-10.286-12.164-17.066-17.757-7.67-5.594 9.395-9.833 20.397-10.81 31.26a28.937 28.937 0 0 0 .627 9.47c.792 3.22 2.506 5.505 4.045 8.257l6.525 11.846s-8.405 1.633-7.05 8.818z"/>
            <path stroke="#FFF" stroke-linecap="round" stroke-linejoin="round" stroke-width=".5" d="M101.813 104.904a28.118 28.118 0 0 1-3.898-5.065M76.305 78.928a28.118 28.118 0 0 1-1.944-6.093"/>
            <path stroke="#2674EA" stroke-linecap="round" stroke-width=".92" d="M111.47 9.864s11.851 2.753 5.465 15.13"/>
            <path stroke="#170C2C" stroke-width=".567" d="M144.857 73.826a769.072 769.072 0 0 0 8.616-9.597 10.61 10.61 0 0 0-.396-14.498c-10.57-10.698-28.245-15.598-28.245-15.598"/>
            <path stroke="#002256" stroke-linecap="round" stroke-linejoin="round" stroke-width=".5" d="M128.518 51.612s6.635 1.652 10.478 3.67a2.634 2.634 0 0 1 .922 3.909c-.848 1.12-1.945 2.551-3.05 3.918"/>
            <g transform="translate(.823 50.9)">
                <ellipse cx="15.435" cy="18.287" fill="#C4D4E3" fill-rule="nonzero" rx="13.823" ry="13.763"/>
                <path stroke="#FFF" stroke-linecap="round" stroke-linejoin="round" stroke-width=".5" d="M0 18.8a18.32 18.32 0 0 1 7.768-3.504 6.051 6.051 0 0 1 3.806.247 2.602 2.602 0 0 1 1.392 3.212M9.925 21.37a16.853 16.853 0 0 1 7.298-2.698 5.427 5.427 0 0 0-2.571 4.441M16.956 21.627a1.978 1.978 0 0 1 2.654.156c.667.75.93 1.775.71 2.752a7.774 7.774 0 0 1-1.19 2.661 35.378 35.378 0 0 1-6.081 7.34M7.05 29.903a10.937 10.937 0 0 1 6.174-3.753 1.406 1.406 0 0 1 1.262.175c.273.378.336.868.166 1.302a10.373 10.373 0 0 1-3.686 5.753"/>
                <path stroke="#FFF" stroke-linecap="round" stroke-linejoin="round" stroke-width=".5" d="M1.152 21.498a9.3 9.3 0 0 1 5.4-2.936c.42-.101.863-.066 1.262.101.541.349.8 1.001.645 1.624a4.123 4.123 0 0 1-.866 1.633 80.918 80.918 0 0 1-6.671 7.414"/>
                <ellipse cx="10.367" cy="12.323" fill="#FFF" fill-rule="nonzero" rx="1" ry="1"/>
                <path stroke="#FFF" stroke-linecap="round" stroke-linejoin="round" stroke-width=".5" d="M13.97 0l-.977 7.68c-.073.541 0 1.275.526 1.376.32.015.631-.112.847-.348l2.977-2.414-.682 5.772c-.074.615-.046 1.404.534 1.633.374.083.766.013 1.088-.193a48.521 48.521 0 0 0 10.21-6.624"/>
                <ellipse cx="24.65" cy="19.204" fill="#FFF" fill-rule="nonzero" rx="1.382" ry="2.294"/>
            </g>
            <path fill="#2674EA" fill-rule="nonzero" d="M136.969 62.852c.051-.174.113-.346.184-.513.59-1.386 1.742-2.46 2.405-3.808.664-1.35.59-3.303-.756-3.973-1.17-.578-2.534.128-3.686.78-1.152.651-2.59 1.257-3.686.504-.418-.38-.8-.798-1.142-1.248a3.393 3.393 0 0 0-4.553.11 4.802 4.802 0 0 0-1.142 4.653 8.696 8.696 0 0 0 2.764 4.128c.387.35.802.716 1.17 1.11-.138.065-.285.12-.423.193-7.876 4.042-11.517 13.274-8.51 21.572 3.008 8.299 11.732 13.087 20.385 11.19 8.652-1.898 14.548-9.893 13.777-18.681-.772-8.789-7.972-15.643-16.824-16.017h.037z"/>
            <path stroke="#002256" stroke-linecap="round" stroke-linejoin="round" stroke-width=".5" d="M133.918 65.89a3.474 3.474 0 0 1-3.285 1.063 3.46 3.46 0 0 1-2.575-2.293c-.83.459-2.046 1.459-2.046 2.395a2.678 2.678 0 0 0 1.373 2.294c-.54.85-.52 1.937.048 2.768a2.539 2.539 0 0 0 2.569 1.058 1.408 1.408 0 0 0-.553 2.055 3.42 3.42 0 0 0 2.046 1.285 13.68 13.68 0 0 0 13.15-3.23l5.059-5.157"/>
            <path stroke="#170C2C" stroke-width=".567" d="M79.217 20.416v-6.827c.003-.374.157-.731.427-.99.271-.26.636-.399 1.011-.386l9.215.348c.74.035 1.323.64 1.327 1.377V30.05a1.38 1.38 0 0 1-1.382 1.376H81.06a1.38 1.38 0 0 1-1.382-1.376"/>
            <path stroke="#E7ECF3" stroke-width=".5" d="M141.42 89.232l3.225-3.211M125.754 79.139l2.764 2.753M141.42 79.139l2.764-2.753M132.204 89.232l1.843 1.835M125.754 89.232l1.843-1.835M146.027 80.974l2.304 2.294M136.812 69.046l2.304 2.294M128.058 60.33l2.303 2.293M148.792 72.716l1.382-1.376M124.832 72.716l1.383 1.376"/>
            <ellipse cx="136.351" cy="81.892" fill="#FFF" fill-rule="nonzero" rx="1.382" ry="2.753"/>
            <ellipse cx="129.901" cy="93.361" fill="#FFF" fill-rule="nonzero" rx="1" ry="1"/>
            <ellipse cx="151.095" cy="75.927" fill="#FFF" fill-rule="nonzero" rx="1" ry="1"/>
            <ellipse cx="134.047" cy="58.953" fill="#FFF" fill-rule="nonzero" rx="1" ry="1"/>
        </g>
    </g>
</svg>
