<svg xmlns="http://www.w3.org/2000/svg" width="205" height="230" viewBox="0 0 205 230">
    <g fill="none" fill-rule="evenodd">
        <path stroke="#E7ECF3" stroke-width=".769" d="M42.801 100.082a90.991 90.991 0 0 0-13.875 34.968c-.848 5.026-1.11 10.76 2.143 14.649 3.253 3.888 8.757 4.703 13.505 3.458 4.749-1.245 14.477-16.673 25.746-28.708 26.887-28.759 53.281-58.84 86.751-79.636 6.367-3.935 13.12-7.593 20.52-8.777 7.4-1.183 15.602.492 20.767 5.903 8.078 8.454 6.043 22.134 2.081 33.124a138.974 138.974 0 0 1-48.332 64.465"/>
        <ellipse cx="6.396" cy="6.3" fill="#E33031" rx="5.857" ry="5.85" transform="rotate(-60 130.253 -140.379)"/>
        <g stroke="#002256" stroke-linecap="round" stroke-linejoin="round" transform="matrix(-1 0 0 1 17 70)">
            <ellipse cx="9.856" cy="12.351" stroke-width=".769" rx="5.856" ry="10.351" transform="rotate(19 9.856 12.351)"/>
            <g stroke-width=".599">
                <path d="M10.262 8.569a3.993 3.993 0 0 1 2.445 2.024v.032c.22.496.047 1.073-.414 1.377-.46.305-1.08.252-1.477-.126l-.126-.122a3.057 3.057 0 0 0-1.842-1.06c-.737.01-1.4.437-1.693 1.092a3.081 3.081 0 0 0-.121 2.024c.537 2.065 2.322 3.604 4.505 3.885M12.274 6.979a117.414 117.414 0 0 1-5.278 11.818"/>
            </g>
        </g>
        <g transform="translate(6)">
            <path stroke="#C4D4E3" stroke-width=".657" d="M.986 180.279H73.92v48.499h48.624"/>
            <path fill="#0B2D72" fill-rule="nonzero" d="M110.455 62.085a12.121 12.121 0 0 1-6.071-2.385c-1.63-1.468-2.3-4.234-.841-5.873 1.077-1.206 3.035-1.599 3.64-3.093.71-1.743-.907-3.46-1.59-5.243a5.337 5.337 0 0 1 .944-5.426 5.37 5.37 0 0 1 5.245-1.718c1.59.354 2.983 1.429 4.6 1.534 2.47.144 4.429-1.914 6.137-3.697 1.708-1.782 4.14-3.552 6.452-2.621 3.325 1.245 3.246 6.75 6.571 7.995 1.761.656 3.811-.21 5.572.446a5.242 5.242 0 0 1 2.905 4.575c.197 1.887-.119 3.814.118 5.689.42 3.185 2.418 6.108 2.286 9.32-.184 4.784-5.256 8.205-10.013 8.401-4.758.197-9.33-1.992-13.628-4.116"/>
            <path fill="#FDC130" fill-rule="nonzero" d="M127.04 76.832c-12.752-3.678-26.079 3.652-29.766 16.371l46.18 13.318c3.678-12.719-3.667-26.005-16.414-29.69z"/>
            <path fill="#FFC6BB" fill-rule="nonzero" d="M115.317 51.494c-5.808 1.455-8.896 7.773-7.793 13.318 1.104 5.544 6.676 7.773 11.131 7.773l.868 6.082a3.57 3.57 0 0 0 3.062 3.093 2.832 2.832 0 0 0 1.63-.301h.065a3.93 3.93 0 0 0 2.076-3.71l-1.025-16.24-.407-3.277a7.861 7.861 0 0 0-3.25-5.45 7.901 7.901 0 0 0-6.225-1.288h-.132z"/>
            <path fill="#0B2D72" fill-rule="nonzero" d="M110.297 54.273s1.788 10.486 15.363 11.928l.657 9.176s6.847-9.254 3.942-17.748c-2.904-8.494-16.624-10.015-19.962-3.356z"/>
            <path stroke="#170C2C" stroke-width=".81" d="M96.433 95.209c-24.969 7.21-35.14 9.306-40.24 8.703a3.49 3.49 0 0 1-3.075-3.29c-.946-18.075 17.084-37.121 19.502-37.344 2.418-.223 13.812-2.621 13.812-2.621-.907 3.932-3.443 4.142-3.443 4.142l-6.216 1.861 5.257 2.058.71 7.576c-2.524.236-3.01-4.823-3.01-4.823l-3.942-.905a6.219 6.219 0 0 1 1.63 3.67l-3.365 4.195c-2.536.236-1.63-3.67-1.63-3.67-2.286 2.765-3.863 13.107-3.863 13.107s32.643-13.737 40.042-13.29"/>
            <path fill="#0B2D72" fill-rule="nonzero" d="M108.392 121.87c-17.084-6.252-54.314-13.108-62.2 2.163-7.884 15.27 3.194 49.954 3.194 49.954s-7.385-1.573-8.962 5.78l33.221.341-3.719-37.187 26.507 4.68 17.767-16.804s4.219-5.243-5.808-8.927z"/>
            <path fill="#0B2D72" fill-rule="nonzero" d="M87.418 228.712l14.955-.236 22.143-11.587-7.687-15.244c-1.985-3.933-4.061-7.865-5.953-11.797-1.893-3.933-4.837-7.144-4.626-11.994a30.088 30.088 0 0 1 2.865-10.303 191.91 191.91 0 0 1 6.702-14.17c2.313-4.378 5.256-8.389 6.426-13.212 3.47-14.694-17.347-24.38-25.324-10.958-7.977 13.422-14.022 29.138-15.415 44.658a41.409 41.409 0 0 0 .894 13.527c1.13 4.601 3.574 7.865 5.769 11.797l9.304 16.923s-11.985 2.333-10.053 12.596z"/>
            <path stroke="#FFF" stroke-linecap="round" stroke-linejoin="round" stroke-width=".657" d="M108.116 183.005a40.161 40.161 0 0 1-5.56-7.235M71.74 145.897a40.22 40.22 0 0 1-2.773-8.704"/>
            <path stroke="#2674EA" stroke-linecap="round" stroke-width="1.314" d="M121.888 47.234s16.9 3.932 7.793 21.615"/>
            <path stroke="#170C2C" stroke-width=".81" d="M169.5 138.609a1098.02 1098.02 0 0 0 12.287-13.71c5.286-5.984 5.04-15.024-.565-20.711-15.073-15.284-40.279-22.284-40.279-22.284"/>
            <path stroke="#002256" stroke-linecap="round" stroke-linejoin="round" stroke-width=".657" d="M146.2 106.875s9.462 2.36 14.942 5.243a3.767 3.767 0 0 1 1.314 5.584 227.67 227.67 0 0 1-4.35 5.597"/>
            <g transform="translate(11)">
                <ellipse cx="22.012" cy="26.124" fill="#C4D4E3" fill-rule="nonzero" rx="19.712" ry="19.662"/>
                <path stroke="#FFF" stroke-linecap="round" stroke-linejoin="round" stroke-width=".657" d="M0 26.858a26.104 26.104 0 0 1 11.078-5.007 8.615 8.615 0 0 1 5.428.354 3.72 3.72 0 0 1 1.984 4.587M14.153 30.528c3.12-2.08 6.685-3.4 10.409-3.854a7.756 7.756 0 0 0-3.667 6.345M24.18 30.895a2.818 2.818 0 0 1 3.785.223 4.448 4.448 0 0 1 1.012 3.932 11.115 11.115 0 0 1-1.695 3.802 50.52 50.52 0 0 1-8.674 10.486M10.053 42.718a15.592 15.592 0 0 1 8.805-5.36 2.002 2.002 0 0 1 1.8.248c.39.54.48 1.241.237 1.862a14.82 14.82 0 0 1-5.257 8.218"/>
                <path stroke="#FFF" stroke-linecap="round" stroke-linejoin="round" stroke-width=".657" d="M1.643 30.712a13.256 13.256 0 0 1 7.7-4.195 2.898 2.898 0 0 1 1.801.144c.771.499 1.14 1.43.92 2.32a5.894 5.894 0 0 1-1.235 2.334 115.528 115.528 0 0 1-9.515 10.59"/>
                <ellipse cx="14.784" cy="17.604" fill="#FFF" fill-rule="nonzero" rx="1.314" ry="1.311"/>
                <path stroke="#FFF" stroke-linecap="round" stroke-linejoin="round" stroke-width=".657" d="M19.923 0L18.53 10.971c-.106.774 0 1.822.749 1.966.457.022.9-.16 1.209-.498l4.244-3.447-.972 8.245c-.105.878-.066 2.005.762 2.333a2.054 2.054 0 0 0 1.55-.275A69.183 69.183 0 0 0 40.635 9.83"/>
                <ellipse cx="35.154" cy="27.435" fill="#FFF" fill-rule="nonzero" rx="1.971" ry="3.277"/>
            </g>
            <path fill="#2674EA" fill-rule="nonzero" d="M158.25 122.932c.075-.25.162-.494.264-.734.84-1.98 2.483-3.513 3.43-5.44.946-1.927.84-4.719-1.078-5.676-1.669-.825-3.614.184-5.257 1.115-1.642.93-3.692 1.795-5.256.72a13.212 13.212 0 0 1-1.63-1.782 4.832 4.832 0 0 0-6.492.157 6.869 6.869 0 0 0-1.63 6.646 12.424 12.424 0 0 0 3.943 5.898c.552.499 1.144 1.023 1.67 1.586-.198.092-.408.17-.605.276-11.231 5.774-16.424 18.963-12.135 30.817 4.29 11.854 16.73 18.695 29.07 15.984 12.339-2.71 20.747-14.131 19.646-26.686-1.1-12.555-11.368-22.347-23.992-22.881h.053z"/>
            <path stroke="#002256" stroke-linecap="round" stroke-linejoin="round" stroke-width=".657" d="M153.901 127.27a4.949 4.949 0 0 1-8.358-1.756c-1.183.656-2.917 2.084-2.917 3.421a3.826 3.826 0 0 0 1.958 3.277 3.597 3.597 0 0 0 .068 3.955 3.618 3.618 0 0 0 3.664 1.511 2.014 2.014 0 0 0-.788 2.936 4.877 4.877 0 0 0 2.917 1.836 19.485 19.485 0 0 0 18.753-4.614l7.215-7.367"/>
            <path stroke="#170C2C" stroke-width=".81" d="M75.893 62.308v-9.752a1.977 1.977 0 0 1 .609-1.415c.386-.37.905-.569 1.44-.551l13.142.498a1.982 1.982 0 0 1 1.893 1.966v23.017a1.969 1.969 0 0 1-1.972 1.967H78.521a1.969 1.969 0 0 1-1.971-1.967"/>
            <path stroke="#E7ECF3" stroke-width=".657" d="M164.598 160.617l4.6-4.588M142.258 146.198l3.942 3.933M164.598 146.198l3.943-3.932M151.457 160.617l2.628 2.622M142.258 160.617l2.628-2.622M171.169 148.82l3.285 3.277M158.027 131.78l3.286 3.277M145.543 119.327l3.285 3.277M175.112 137.023l1.97-1.966M140.943 137.023l1.972 1.966"/>
            <ellipse cx="157.37" cy="150.131" fill="#FFF" fill-rule="nonzero" rx="1.971" ry="3.932"/>
            <ellipse cx="148.171" cy="166.516" fill="#FFF" fill-rule="nonzero" rx="1.314" ry="1.311"/>
            <ellipse cx="178.397" cy="141.611" fill="#FFF" fill-rule="nonzero" rx="1.314" ry="1.311"/>
            <ellipse cx="154.085" cy="117.361" fill="#FFF" fill-rule="nonzero" rx="1.314" ry="1.311"/>
        </g>
        <path d="M-57-11h328v250H-57z"/>
    </g>
</svg>
