<svg xmlns="http://www.w3.org/2000/svg" width="213" height="157" viewBox="0 0 213 157">
    <g fill="none" fill-rule="evenodd">
        <path fill-rule="nonzero" d="M0 0H320V180H0z" transform="translate(-54 -12)"/>
        <g>
            <g transform="translate(-54 -12) translate(54 12) matrix(1 0 0 -1 40.25 142.5)">
                <path stroke="#E7ECF3" stroke-width=".602" d="M5.254 103.649c-16.864 42.763 41.84 46.805 62.825 25.762 20.03-20.085 8.64-45.41 8.538-69.27-.043-10.032 1.359-20.12 3.765-29.86 1.464-5.921 4.442-11.445 7.713-16.592 2.086-3.282 6.19-7.61 13.85-10.973 11.088-4.868 37.86-4.868 46.056 14.297 8.196 19.165 10.844 45.62-8.196 53.116"/>
                <ellipse cx="137.685" cy="21.135" stroke="#002256" stroke-linecap="round" stroke-linejoin="round" stroke-width=".5" rx="2.986" ry="2.99"/>
                <ellipse cx="3.941" cy="96.554" fill="#D0413B" fill-rule="nonzero" rx="3.941" ry="3.946"/>
            </g>
            <g transform="translate(-54 -12) translate(54 12) translate(53.943 8.109)">
                <path fill="#FDC130" fill-rule="nonzero" d="M61.447 47.627c-.159 9.89-8.402 17.741-18.412 17.537-10.01-.205-17.996-8.388-17.837-18.277"/>
                <g transform="rotate(31 -35.586 86.387)">
                    <path stroke="#FFF" stroke-linecap="round" stroke-linejoin="round" stroke-width=".5" d="M0 20.143c2.434-1.887 5.281-3.174 8.309-3.755 1.35-.353 2.778-.26 4.07.266 1.31.595 1.953 2.082 1.489 3.44M10.615 22.896c2.34-1.56 5.013-2.55 7.806-2.89-1.656 1.028-2.688 2.813-2.75 4.758M18.135 23.171c.848-.684 2.078-.612 2.839.168.713.804.996 1.901.759 2.949-.24 1.021-.672 1.989-1.272 2.85-1.803 2.903-3.99 5.548-6.505 7.865M7.54 32.039c1.68-2.05 4.009-3.467 6.604-4.021.454-.157.956-.088 1.35.187.292.405.359.93.177 1.396-.58 2.439-1.969 4.611-3.942 6.164"/>
                    <path stroke="#FFF" stroke-linecap="round" stroke-linejoin="round" stroke-width=".5" d="M1.232 23.034c1.511-1.673 3.548-2.782 5.776-3.146.45-.109.923-.07 1.35.108.578.374.855 1.073.69 1.74-.172.646-.49 1.244-.927 1.75C5.91 26.278 3.526 28.93.986 31.429"/>
                    <circle cx="11.088" cy="13.203" r="1" fill="#FFF" fill-rule="nonzero"/>
                    <path stroke="#FFF" stroke-linecap="round" stroke-linejoin="round" stroke-width=".5" d="M14.942 0l-1.045 8.228c-.079.58 0 1.367.562 1.475.343.016.675-.12.907-.373l3.183-2.586-.729 6.184c-.079.658-.05 1.504.572 1.75.4.088.818.014 1.163-.207 3.925-1.898 7.594-4.283 10.92-7.098"/>
                    <ellipse cx="26.365" cy="20.576" fill="#FFF" fill-rule="nonzero" rx="1.478" ry="2.458"/>
                </g>
                <rect width="3.75" height="12" x="38.807" y="36.658" fill="#FFC6BB" fill-rule="nonzero" rx="1.875" transform="rotate(7 40.682 42.658)"/>
                <g>
                    <path stroke="#170C2C" stroke-width=".608" d="M13.462 59.874s22.178 2.018 27.858-.407c5.882-2.51 14.716-13.885 18.87-19.445.665-.89 9.45-5.25 9.071-6.19-.49-1.218-6.114 2.46-6.114 2.46" transform="rotate(22 14.27 141.346)"/>
                    <g fill-rule="nonzero" transform="rotate(22 14.27 141.346) scale(-1 1) rotate(11 -39.347 -369.944)">
                        <ellipse cx="17.431" cy="17.855" fill="#FDC130" rx="17.344" ry="17.292"/>
                        <g stroke="#FFF" stroke-linecap="round" stroke-linejoin="round" stroke-width="1.075" transform="rotate(26 -6.436 32.402)">
                            <ellipse cx="7.188" cy="8.944" rx="4.392" ry="7.764" transform="rotate(19 7.188 8.944)"/>
                            <g>
                                <path d="M2.109 1.623c-.803.238-1.467.788-1.833 1.519v.024c-.166.371-.036.804.31 1.033.345.228.81.188 1.108-.095l.094-.092c.345-.418.836-.7 1.381-.795.554.008 1.05.328 1.27.82.201.482.233 1.015.091 1.517-.403 1.55-1.742 2.704-3.379 2.914M.6.43C1.754 3.453 3.076 6.412 4.56 9.296" transform="matrix(-1 0 0 1 9.601 4.484)"/>
                            </g>
                        </g>
                        <circle cx="17.431" cy="17.855" r="15" stroke="#FFF" stroke-linecap="round" stroke-linejoin="round" stroke-width="1.075"/>
                    </g>
                    <path stroke="#170C2C" stroke-width=".633" d="M3.385 57.14s16.933 0 20.6-2.605c7.403-5.261 17.823-20.025 17.823-20.025s10.68-5.793 10.117-6.925c-.588-1.182-7.187 1.26-7.187 1.26s8.174-4.965 7.516-6.174c-.872-1.601-9.076 3.357-9.076 3.357s5.302-5.478 4.586-5.957c-.971-.65-7.224 4.17-7.224 4.17s-.088-3.969-.981-3.995c-1.287-.038-1.702 4.574-4.112 7.308-1.704 1.933-16.13 16.434-16.13 16.434L2.872 45.112m47.98-7.571L38.075 49.173l-4.137-1.048" transform="rotate(22 14.27 141.346)"/>
                </g>
                <path fill="#FFC6BB" fill-rule="nonzero" d="M51.739 34.043c-.429 4.724-4.604 8.205-9.328 7.776-4.177-.379-7.382-3.687-7.772-7.713-.05-.528-.054-1.067-.004-1.615.428-4.723 4.604-8.205 9.328-7.776 2.458.223 4.578 1.46 5.987 3.26 1.3 1.662 1.994 3.803 1.789 6.068"/>
                <path fill="#0B2D72" fill-rule="nonzero" d="M49.95 27.975c-2.705 4.321-7.688 7-13.113 6.507-.753-.068-1.487-.196-2.198-.376-.05-.528-.054-1.067-.004-1.615.428-4.723 4.604-8.205 9.328-7.776 2.458.223 4.578 1.46 5.987 3.26"/>
                <path fill="#0B2D72" fill-rule="nonzero" d="M39.528 23.982c-.163 1.8-1.755 3.126-3.555 2.963-1.8-.163-3.126-1.755-2.963-3.555.164-1.8 1.755-3.126 3.555-2.963 1.8.163 3.127 1.755 2.963 3.555"/>
                <path fill="#0B2D72" fill-rule="nonzero" d="M48.193 12.408c-.465 5.123-4.995 8.9-10.118 8.434-5.124-.465-8.9-4.995-8.435-10.118.465-5.124 4.995-8.9 10.119-8.435 5.123.465 8.9 4.995 8.434 10.119"/>
                <path fill="#FFFFFE" d="M30.024 78.721c5.65 9.149 15.691 13.892 25.862 16.179 9.197 2.067 19.39 2.23 27.87-2.39.49-.267.002-.984-.484-.719-8.267 4.505-18.268 4.27-27.22 2.258-9.955-2.238-19.778-6.855-25.31-15.812-.294-.476-1.011.01-.718.484"/>
                <path fill="#0B2D72" fill-rule="nonzero" d="M48.746 77.569c13.337 3.097 39.649 14.083 38.424 26.877-1.225 12.794-22.323 29.957-22.323 29.957s5.306 2.046 3.314 7.296l-21.132-13.42 17.466-21.75-18.651-7.948-4.397-17.809s-.534-5.012 7.3-3.203z"/>
                <path fill="#0B2D72" fill-rule="nonzero" d="M24.021 147.034h-14.9L0 130.737l11.045-6.474c2.375-1.39 4.79-2.756 7.145-4.16l1.405-.848c2.792-1.707 5.948-2.532 7.8-5.671 1.255-2.388 2.074-4.979 2.42-7.652.69-3.862 1.223-7.744 1.598-11.646.343-3.697.14-7.419 1.38-10.932 3.838-10.662 20.827-8.3 20.332 3.394-.496 11.694-3.139 24.047-8.613 34.385-1.571 3.032-3.629 5.787-6.09 8.154-2.589 2.437-5.453 3.499-8.435 5.083l-12.743 6.873.325.014c1.35.088 6.452.753 6.452 5.777z"/>
                <path stroke="#FFF" stroke-linecap="round" stroke-linejoin="round" stroke-width=".5" d="M24.021 115.787c2.308-.4 4.533-1.054 6.634-1.952M62.022 107.819c2.03-1.26 3.896-2.748 5.563-4.436"/>
            </g>
            <path stroke="#170C2C" stroke-width=".633" d="M212.31 156.082L0 156.082" transform="translate(-54 -12) translate(54 12)"/>
        </g>
    </g>
</svg>
