<svg xmlns="http://www.w3.org/2000/svg" width="300" height="209" viewBox="0 0 300 209">
    <g fill="none" fill-rule="evenodd">
        <path fill-rule="nonzero" d="M0 0H328V250H0z" transform="translate(-14 -23)"/>
        <g>
            <g transform="translate(-14 -23) translate(14 23) matrix(1 0 0 -1 35 190)">
                <path stroke="#E7ECF3" stroke-width=".802" d="M7.005 138.199c-22.485 57.016 55.787 62.406 83.767 34.35 26.706-26.781 11.52-60.548 11.384-92.36-.058-13.377 1.812-26.829 5.02-39.813 1.951-7.896 5.923-15.261 10.284-22.124 2.781-4.377 8.252-10.147 18.466-14.63 14.784-6.491 50.481-6.491 61.409 19.062 10.928 25.553 14.459 60.827-10.928 70.822"/>
                <ellipse cx="183.579" cy="28.181" stroke="#002256" stroke-linecap="round" stroke-linejoin="round" stroke-width=".665" rx="3.981" ry="3.986"/>
                <ellipse cx="5.255" cy="128.738" fill="#D0413B" fill-rule="nonzero" rx="5.255" ry="5.262"/>
            </g>
            <g transform="translate(-14 -23) translate(14 23) translate(21.258 10.812)">
                <path fill="#FDC130" fill-rule="nonzero" d="M81.929 63.503c-.211 13.186-11.202 23.654-24.549 23.382-13.346-.273-23.994-11.183-23.783-24.37"/>
                <g transform="rotate(31 -47.448 115.183)">
                    <path stroke="#FFF" stroke-linecap="round" stroke-linejoin="round" stroke-width=".657" d="M0 26.858c3.245-2.517 7.041-4.233 11.078-5.007 1.8-.471 3.705-.347 5.428.354 1.745.793 2.603 2.777 1.984 4.587M14.153 30.528c3.12-2.08 6.685-3.4 10.409-3.854-2.209 1.37-3.585 3.752-3.667 6.345M24.18 30.895c1.13-.912 2.771-.816 3.785.223.951 1.073 1.328 2.536 1.012 3.932-.32 1.363-.895 2.652-1.695 3.802-2.404 3.87-5.322 7.397-8.674 10.486M10.053 42.718c2.24-2.732 5.345-4.622 8.805-5.36.606-.21 1.275-.118 1.8.248.39.54.48 1.241.237 1.862-.773 3.252-2.626 6.148-5.257 8.218"/>
                    <path stroke="#FFF" stroke-linecap="round" stroke-linejoin="round" stroke-width=".657" d="M1.643 30.712c2.014-2.23 4.73-3.71 7.7-4.195.6-.145 1.232-.094 1.801.144.771.499 1.14 1.43.92 2.32-.23.861-.652 1.659-1.235 2.334-2.95 3.722-6.128 7.259-9.515 10.59"/>
                    <ellipse cx="14.784" cy="17.604" fill="#FFF" fill-rule="nonzero" rx="1.314" ry="1.311"/>
                    <path stroke="#FFF" stroke-linecap="round" stroke-linejoin="round" stroke-width=".657" d="M19.923 0L18.53 10.971c-.106.774 0 1.822.749 1.966.457.022.9-.16 1.209-.498l4.244-3.447-.972 8.245c-.105.878-.066 2.005.762 2.333.533.118 1.091.019 1.55-.275 5.234-2.532 10.126-5.711 14.562-9.464"/>
                    <ellipse cx="35.154" cy="27.435" fill="#FFF" fill-rule="nonzero" rx="1.971" ry="3.277"/>
                </g>
                <rect width="5" height="16" x="51.742" y="48.877" fill="#FFC6BB" fill-rule="nonzero" rx="2.5" transform="rotate(7 54.242 56.877)"/>
                <g>
                    <path stroke="#170C2C" stroke-width=".81" d="M17.949 79.832s29.57 2.69 37.144-.542c7.843-3.348 19.622-18.514 25.16-25.927.887-1.186 12.6-7 12.095-8.254-.652-1.623-8.152 3.28-8.152 3.28" transform="rotate(22 19.025 188.462)"/>
                    <g fill-rule="nonzero" transform="rotate(22 19.025 188.462) scale(-1 1) rotate(11 -52.462 -493.259)">
                        <ellipse cx="23.241" cy="23.807" fill="#FDC130" rx="23.125" ry="23.056"/>
                        <g stroke="#FFF" stroke-linecap="round" stroke-linejoin="round" stroke-width="1.434" transform="rotate(26 -8.582 43.202)">
                            <ellipse cx="9.584" cy="11.926" rx="5.856" ry="10.351" transform="rotate(19 9.584 11.926)"/>
                            <g>
                                <path d="M2.812 2.164C1.742 2.482.856 3.215.367 4.19v.032c-.22.495-.047 1.073.414 1.377.46.305 1.08.252 1.477-.126l.126-.122c.46-.558 1.115-.935 1.842-1.06.737.01 1.4.437 1.693 1.091.268.644.31 1.356.121 2.025-.537 2.065-2.322 3.604-4.505 3.885M.8.575C2.34 4.603 4.1 8.548 6.078 12.393" transform="matrix(-1 0 0 1 12.801 5.979)"/>
                            </g>
                        </g>
                        <circle cx="23.241" cy="23.807" r="20" stroke="#FFF" stroke-linecap="round" stroke-linejoin="round" stroke-width="1.434"/>
                    </g>
                    <path stroke="#170C2C" stroke-width=".844" d="M4.513 76.187s22.578 0 27.466-3.474c9.871-7.015 23.766-26.7 23.766-26.7s14.239-7.724 13.488-9.233c-.783-1.576-9.582 1.68-9.582 1.68s10.899-6.62 10.021-8.232c-1.162-2.135-12.1 4.476-12.1 4.476s7.068-7.304 6.113-7.943c-1.295-.865-9.632 5.56-9.632 5.56s-.116-5.292-1.308-5.327c-1.716-.05-2.27 6.1-5.482 9.744-2.273 2.578-21.507 21.913-21.507 21.913L3.83 60.15m63.974-10.094L50.766 65.564l-5.515-1.397" transform="rotate(22 19.025 188.462)"/>
                </g>
                <path fill="#FFC6BB" fill-rule="nonzero" d="M68.985 45.39c-.572 6.3-6.139 10.94-12.438 10.369-5.568-.506-9.841-4.916-10.362-10.284-.067-.704-.072-1.423-.005-2.154.57-6.297 6.139-10.94 12.437-10.368 3.277.297 6.104 1.946 7.984 4.347 1.733 2.217 2.658 5.071 2.384 8.09"/>
                <path fill="#0B2D72" fill-rule="nonzero" d="M66.6 37.3c-3.607 5.761-10.25 9.333-17.484 8.676-1.004-.091-1.983-.261-2.93-.5-.068-.705-.073-1.424-.006-2.155.57-6.297 6.139-10.94 12.437-10.368 3.277.297 6.104 1.946 7.984 4.347"/>
                <path fill="#0B2D72" fill-rule="nonzero" d="M52.704 31.976c-.218 2.4-2.34 4.168-4.74 3.95-2.399-.217-4.168-2.34-3.95-4.74.218-2.399 2.34-4.168 4.74-3.95 2.4.218 4.168 2.34 3.95 4.74"/>
                <path fill="#0B2D72" fill-rule="nonzero" d="M64.258 16.544c-.62 6.83-6.66 11.866-13.492 11.246-6.83-.62-11.866-6.66-11.246-13.492.62-6.83 6.66-11.866 13.492-11.246 6.83.62 11.866 6.66 11.246 13.492"/>
                <path fill="#FFFFFE" d="M40.032 104.962c7.533 12.198 20.922 18.522 34.483 21.57 12.263 2.758 25.854 2.974 37.16-3.186.654-.356.003-1.31-.646-.958-11.023 6.006-24.357 5.694-36.293 3.011-13.273-2.984-26.37-9.14-33.746-21.083-.392-.634-1.349.014-.958.646"/>
                <path fill="#0B2D72" fill-rule="nonzero" d="M64.995 103.425c17.782 4.13 52.864 18.778 51.231 35.836-1.633 17.059-29.764 39.943-29.764 39.943s7.075 2.728 4.419 9.728l-28.175-17.893 23.287-29-24.868-10.597-5.862-23.745s-.712-6.684 9.732-4.272z"/>
                <path fill="#0B2D72" fill-rule="nonzero" d="M32.028 196.045H12.162L0 174.316l14.727-8.632c3.167-1.855 6.387-3.675 9.527-5.547l1.873-1.13c3.723-2.276 7.93-3.377 10.4-7.562 1.672-3.183 2.765-6.638 3.225-10.202.922-5.149 1.633-10.325 2.132-15.529.457-4.928.187-9.891 1.84-14.575 5.117-14.216 27.77-11.067 27.109 4.525-.66 15.592-4.184 32.062-11.483 45.846-2.095 4.044-4.839 7.717-8.121 10.873-3.452 3.25-7.27 4.665-11.246 6.777l-16.991 9.164.433.018c1.8.117 8.603 1.004 8.603 7.703z"/>
                <path stroke="#FFF" stroke-linecap="round" stroke-linejoin="round" stroke-width=".657" d="M32.028 154.383c3.077-.532 6.044-1.406 8.845-2.603M82.696 143.759c2.706-1.68 5.194-3.664 7.418-5.914"/>
            </g>
            <g>
                <path stroke="#170C2C" stroke-width=".81" d="M68.832 39.374s-2.699 9.913-7.96 15.089c-5.847 5.754-34.03 10.946-34.03 10.946s-12.693 10.425-13.807 8.978c-1.164-1.507 5.268-8.657 5.268-8.657S7.93 73.377 6.77 71.759c-1.537-2.142 8.843-9.834 8.843-9.834s-9.53 3.554-9.753 2.313c-.305-1.68 8.898-6.895 8.898-6.895s-4.88-2.587-4.451-3.777c.616-1.715 6.552.613 11.186-.851 3.277-1.036 28.703-10.956 28.703-10.956l1.743-3.682" transform="translate(-14 -23) translate(14 23) translate(193 10)"/>
                <path fill="#2674EA" fill-rule="nonzero" d="M80.719 52.43l-24.823 9.9c-6.415 2.557-13.688-.57-16.247-6.984-2.558-6.414.569-13.687 6.984-16.245l24.825-9.899c6.413-2.557 13.688.57 16.244 6.984 2.559 6.414-.568 13.687-6.983 16.245" transform="translate(-14 -23) translate(14 23) translate(193 10)"/>
                <g transform="translate(-14 -23) translate(14 23) translate(193 10) scale(1 -1) rotate(31 187.432 73.844)">
                    <path stroke="#FFF" stroke-linecap="round" stroke-linejoin="round" stroke-width=".657" d="M0 26.858c3.245-2.517 7.041-4.233 11.078-5.007 1.8-.471 3.705-.347 5.428.354 1.745.793 2.603 2.777 1.984 4.587M14.153 30.528c3.12-2.08 6.685-3.4 10.409-3.854-2.209 1.37-3.585 3.752-3.667 6.345M24.18 30.895c1.13-.912 2.771-.816 3.785.223.951 1.073 1.328 2.536 1.012 3.932-.32 1.363-.895 2.652-1.695 3.802-2.404 3.87-5.322 7.397-8.674 10.486M10.053 42.718c2.24-2.732 5.345-4.622 8.805-5.36.606-.21 1.275-.118 1.8.248.39.54.48 1.241.237 1.862-.773 3.252-2.626 6.148-5.257 8.218"/>
                    <path stroke="#FFF" stroke-linecap="round" stroke-linejoin="round" stroke-width=".657" d="M1.643 30.712c2.014-2.23 4.73-3.71 7.7-4.195.6-.145 1.232-.094 1.801.144.771.499 1.14 1.43.92 2.32-.23.861-.652 1.659-1.235 2.334-2.95 3.722-6.128 7.259-9.515 10.59"/>
                    <ellipse cx="14.784" cy="17.604" fill="#FFF" fill-rule="nonzero" rx="1.314" ry="1.311"/>
                    <path stroke="#FFF" stroke-linecap="round" stroke-linejoin="round" stroke-width=".657" d="M19.923 0L18.53 10.971c-.106.774 0 1.822.749 1.966.457.022.9-.16 1.209-.498l4.244-3.447-.972 8.245c-.105.878-.066 2.005.762 2.333.533.118 1.091.019 1.55-.275 5.234-2.532 10.126-5.711 14.562-9.464"/>
                    <ellipse cx="35.154" cy="27.435" fill="#FFF" fill-rule="nonzero" rx="1.971" ry="3.277"/>
                </g>
                <g>
                    <g>
                        <path fill="#0B2D72" fill-rule="nonzero" d="M47.264 126.61H0s5.31-7.625 8.852-8.158L4.68 25.462c-.297-6.647 2.13-13.126 6.72-17.934C15.99 2.719 22.345 0 28.987 0c7.127 0 13.897 3.129 18.52 8.564 4.622 5.434 6.633 12.626 5.5 19.675l-14.237 88.796s6.904 4.077 8.495 9.575z" transform="translate(-14 -23) translate(14 23) translate(193 10) translate(28 40.14) translate(7 30.55)"/>
                        <path stroke="#FFF" stroke-width=".938" d="M30.48 126.61L27.825 23.937" transform="translate(-14 -23) translate(14 23) translate(193 10) translate(28 40.14) translate(7 30.55) matrix(-1 0 0 1 58.305 0)"/>
                    </g>
                </g>
                <g fill-rule="nonzero" transform="translate(-14 -23) translate(14 23) translate(193 10) translate(45.932)">
                    <path fill="#FFC6BB" d="M3.03 18.385c1.403 5.574 7.058 8.952 12.63 7.547 4.928-1.241 8.141-5.806 7.849-10.697-.041-.642-.138-1.288-.302-1.935-1.403-5.571-7.057-8.952-12.631-7.547-2.9.73-5.204 2.61-6.55 5.032-1.244 2.235-1.67 4.928-.997 7.6"/>
                    <rect width="5" height="16" x="15.068" y="17.689" fill="#FFC6BB" rx="2.5" transform="rotate(-20 17.568 25.689)"/>
                    <path fill="#0B2D72" d="M1.131 7.205c.583 2.316 2.93 3.719 5.247 3.135 2.047-.515 3.382-2.412 3.26-4.443-.017-.267-.057-.536-.124-.804-.584-2.314-2.933-3.719-5.249-3.135-1.204.304-2.162 1.085-2.722 2.09-.514.928-.693 2.048-.412 3.157"/>
                    <path fill="#0B2D72" d="M7.78 4.277c.356 1.41 1.788 2.265 3.198 1.91 1.247-.315 2.058-1.47 1.986-2.708-.011-.162-.036-.325-.076-.49C12.531 1.58 11.1.726 9.69 1.08c-.735.186-1.317.662-1.658 1.274-.315.566-.423 1.248-.253 1.924"/>
                    <path fill="#FFC6BB" d="M19.544 14.223c.51 2.025 2.563 3.252 4.587 2.742 1.79-.451 2.956-2.109 2.85-3.886-.014-.233-.05-.468-.109-.702-.509-2.024-2.562-3.252-4.587-2.742-1.053.265-1.89.949-2.38 1.828-.451.812-.607 1.79-.36 2.76"/>
                    <path fill="#0B2D72" d="M4.426 10.397s4.155 1.38 10.336-1.435l1.98 5.967 3.727-1.867s.137-3.767 3.846-3.376c0 0-1.465-7.003-5.877-7.34-7.707-.59-13.215 4.13-14.012 8.051"/>
                </g>
                <g>
                    <path fill="#EAF5FD" fill-rule="nonzero" stroke="#C4D4E3" stroke-linecap="round" stroke-linejoin="round" stroke-width="1.434" d="M101.45 5.292c2.432.132 4.316 2.178 4.25 4.615l-1.84 67.709c-.07 2.57-2.272 4.559-4.832 4.364L6.992 74.994c-2.295-.174-4.088-2.057-4.153-4.36L1.002 4.72C.928 2.09 3.114-.041 5.737.1l95.713 5.19z" transform="translate(-14 -23) translate(14 23) translate(193 10) translate(0 45.689)"/>
                    <path fill="#FFF" d="M30.931 39.904c1.125 5.237 1.21 13.803 6.129 18.084C51.173 70.27 62.158 42.354 59.484 33.042 52.652 9.258 32.36 25.939 34.22 43.592" transform="translate(-14 -23) translate(14 23) translate(193 10) translate(0 45.689)"/>
                    <g fill-rule="nonzero" stroke="#C4D4E3" stroke-linecap="round" stroke-linejoin="round" stroke-width="1.434" transform="translate(-14 -23) translate(14 23) translate(193 10) translate(0 45.689) scale(-1 1) rotate(-20 9.343 79.72)">
                        <ellipse cx="9.856" cy="12.351" rx="5.856" ry="10.351" transform="rotate(19 9.856 12.351)"/>
                        <g>
                            <path d="M2.54 1.59C1.468 1.907.582 2.64.094 3.614v.032c-.22.496-.047 1.073.413 1.378.46.304 1.08.251 1.478-.127l.126-.122c.46-.558 1.115-.935 1.841-1.06.738.01 1.4.438 1.694 1.092.268.644.31 1.355.12 2.024-.537 2.065-2.322 3.605-4.505 3.885M.528 0c1.538 4.028 3.3 7.974 5.278 11.819" transform="matrix(-1 0 0 1 12.801 6.979)"/>
                        </g>
                    </g>
                    <g fill-rule="nonzero" stroke="#C4D4E3" stroke-linecap="round" stroke-linejoin="round" stroke-width="1.434" transform="translate(-14 -23) translate(14 23) translate(193 10) translate(0 45.689) scale(-1 1) rotate(-15 160.287 422.586)">
                        <ellipse cx="9.856" cy="12.351" fill="#EAF5FD" rx="5.856" ry="10.351" transform="rotate(19 9.856 12.351)"/>
                        <g>
                            <path d="M2.54 1.59C1.468 1.907.582 2.64.094 3.614v.032c-.22.496-.047 1.073.413 1.378.46.304 1.08.251 1.478-.127l.126-.122c.46-.558 1.115-.935 1.841-1.06.738.01 1.4.438 1.694 1.092.268.644.31 1.355.12 2.024-.537 2.065-2.322 3.605-4.505 3.885M.528 0c1.538 4.028 3.3 7.974 5.278 11.819" transform="matrix(-1 0 0 1 12.801 6.979)"/>
                        </g>
                    </g>
                </g>
                <path stroke="#170C2C" stroke-width=".81" d="M78.308 30.35s25.827 37.616 21.638 45.191c-4.843 8.757-37.663 12.374-37.663 12.374s-7.39 13.48-8.883 13.215c-1.82-.322 1.292-9.62 1.292-9.62s-5.393 10.456-6.737 9.987c-2.411-.841 3.722-12.242 3.722-12.242s-8.138 8.048-9.143 7.372c-.883-.593 6.641-11.435 6.641-11.435s-5.504 1.859-6.081.746c-.802-1.545 5.633-5.51 8.709-8.075 2.766-2.308 29.89-9.532 29.89-9.532L67.202 45.792" transform="translate(-14 -23) translate(14 23) translate(193 10)"/>
            </g>
            <path stroke="#170C2C" stroke-width=".844" d="M283.079 207.689L0 207.689" transform="translate(-14 -23) translate(14 23)"/>
        </g>
    </g>
</svg>
