<svg xmlns="http://www.w3.org/2000/svg" xmlns:xlink="http://www.w3.org/1999/xlink" width="254" height="221" viewBox="0 0 254 221">
    <defs>
        <path id="a" d="M41.478 21.37l-16.13 18.32c-4.326 4.912-12.377 3.096-14.192-3.193L5.118 15.54a8.282 8.282 0 0 1 8.937-10.525l22.18 2.638c6.628.79 9.653 8.705 5.243 13.717z"/>
    </defs>
    <g fill="none" fill-rule="evenodd">
        <path d="M-40-15h328v250H-40z"/>
        <g transform="translate(0 -1)">
            <path stroke="#E7ECF3" stroke-width=".651" d="M42.246 135.666c-8.869 10.118-14.845 21.521-17.548 33.481-1.072 4.813-1.403 10.302 2.71 14.025 4.115 3.724 11.075 4.504 17.08 3.312 6.005-1.192 18.308-15.964 32.56-27.487 34.004-27.536 67.383-56.337 109.712-76.249 8.052-3.767 16.592-7.27 25.95-8.403 9.36-1.133 19.732.47 26.264 5.651 10.216 8.094 7.643 21.193 2.632 31.715-11.86 24.676-33.128 46.152-61.124 61.723"/>
            <g transform="translate(86)">
                <g stroke="#170C2C" stroke-linejoin="bevel" stroke-width=".871">
                    <path d="M69.496 42.58s8.806.123 9.131 1.11c.326.988-6.705 1.267-6.705 1.267s8.377 1.212 8.776 2.327c.4 1.115-8.098.685-8.098.685s6.554 1.171 6.807 2.035c.254.863-6.423.935-8.508 1.803-2.086.869-30.859 6.884-34.128 5.747M34.65 47.245c4.759-1.14 15.699-3.09 32.822-5.848l1.888-1.09"/>
                </g>
                <g fill-rule="nonzero">
                    <path fill="#FFC6BB" d="M22.824 25.373c4.365 3.143 5.443 9.554 2.864 13.108-2.58 3.553-3.611 3.14-3.611 3.876V48.496l-3.863 1.963-3.638-7.769-5.12-15.56 8.758-2.242c-3.14-1.657.244-2.659 4.61.485z"/>
                    <path fill="#0B2D72" d="M13.656 42.31s-16.967-9.322-4.2-19.626c5.618-4.373 10.257-7.686 10.718-2.987.33 3.628-2.78 6.818-5.1 7.434-1.16 1.567.318 1.372 3.877 8.497-3.675-1.164-4.853-.706-3.535 1.373 1.978 3.118 1.127 4.725.393 5.308-.735.584-2.153 0-2.153 0z"/>
                </g>
                <g fill="#C4D4E3">
                    <path d="M68.04 28.54l5.81 5.246-.467.516-5.81-5.247.467-.516M74.409 21.849l4.059 9.207-.637.281-4.06-9.207.638-.281M83.305 24.44l-.34 5.425-.695-.044.34-5.424.695.043"/>
                </g>
                <g fill="#FFF" fill-rule="nonzero" stroke="#002256" stroke-linecap="round" stroke-linejoin="round" stroke-width=".7">
                    <path d="M96 39.263l7.89 3.673s0-9.842 7.195-13.39L103.543 26S96.233 30.253 96 39.263"/>
                    <path d="M104.564 32.988c0-1.474-1.169-2.669-2.61-2.669-1.443 0-2.612 1.195-2.612 2.669 0 1.473 1.17 2.668 2.611 2.668 1.442 0 2.611-1.195 2.611-2.668"/>
                </g>
                <g fill="#FFF" fill-rule="nonzero" stroke="#002256" stroke-linecap="round" stroke-linejoin="round" stroke-width=".7">
                    <path d="M88.068 9.03s3.78 5.322 2.248 14.188l4.92-4.718 2.012-4.077c.343-3.277.198-9.037-3.98-13.328l-5.2 7.935"/>
                    <path d="M94.524 9.533c-.79-.42-2.07.44-2.857 1.92-.787 1.481-.784 3.022.006 3.443.79.42 2.07-.44 2.857-1.92.787-1.482.785-3.023-.006-3.443M95.236 18.5l.057-2.7 1.956-1.379-2.013 4.08"/>
                </g>
                <path fill="#0B2D72" fill-rule="nonzero" d="M17.932 220.903l29.707.122c3.643-.122 3.673-7.884 0-8.435l4.326-96.151a25.179 25.179 0 0 0-6.97-18.543 25.248 25.248 0 0 0-18.236-7.784 25.245 25.245 0 0 0-19.207 8.855 25.171 25.171 0 0 0-5.705 20.344l14.765 91.813s1.32 9.9 1.32 9.78z"/>
                <path stroke="#FFF" stroke-width=".967" d="M28.41 209.908l-3.201-95.045"/>
                <g transform="translate(1.003 40.01)">
                    <mask id="b" fill="#fff">
                        <use xlink:href="#a"/>
                    </mask>
                    <use fill="#2674EA" fill-rule="nonzero" transform="rotate(-17 24.172 23.728)" xlink:href="#a"/>
                    <g stroke="#FFF" stroke-linejoin="round" mask="url(#b)">
                        <path d="M25.667 25.796c-.34 5.622-.228 10.92-1.11 11.034-1.802.229-4.405-5.048-6.19-4.493-1.784.555-3.356 4.464-4.296 7.349M11.752 23.481C8.62 19.3 5.106 15.762 2.674 16.684c-1.143.433-1.947 1.697-2.518 3.423M25.53 3.805c.314 4.125.16 7.675-1.206 8.169-2.428.875-7.934-4.786-7.934-4.786s1.806 4.234 2.48 8.191M33.784 24.639c2.136 3.944 5.095 10.906 4.58 18.519"/>
                    </g>
                </g>
                <ellipse cx="15.654" cy="35.134" fill="#FFC6BB" fill-rule="nonzero" rx="4.059" ry="4.051"/>
                <path fill="#FDC130" fill-rule="nonzero" d="M78.963 50.835l-.818 1.077c-.15.197-.363.336-.604.393l-1.438.34c-.254.061-.52.026-.75-.097l-5.214-2.789a1.067 1.067 0 0 1-.381-1.539l1-1.48 8.205 4.095-8.205-4.095 6.648-9.833 8.845 4.329-7.288 9.6zm7.966-10.493l-.679.894-8.844-4.329.49-.725c.281-.416.814-.58 1.28-.393l7.299 2.915c.655.263.88 1.076.454 1.638z"/>
                <path stroke="#170C2C" stroke-width=".871" d="M36.745 55.837c4.102 4.098 9.789 8.945 15.6 9.24 10.412.557 20.178-6.274 24.02-15.857.367-.919.609-3.165 1.437-3.644.827-.48 1.625.477 1.648 1.326.023.848-.421 1.643-.524 2.509-.155 1.415.877 1.4 1.92.91 1.361-.77 2.55-1.81 3.493-3.054.28-.395 1.869-2.074 2.338-2.194.652-.029.041 1.83.14 2.472a2.198 2.198 0 0 1-.549 1.736c.58-.719 2.673-2.63 3.572-1.65.313.413-.678 2.08-.756 2.592-.078.513-.36.973-.782 1.277 1.172-.841 3.659-1.699 3.306-.086-.274 1.206-2.614 3.883-3.307 4.895a55.476 55.476 0 0 1-2.778 3.778 58.07 58.07 0 0 1-6.434 6.848 59.922 59.922 0 0 1-15.663 10.3 30.366 30.366 0 0 1-25.606-.793 41.828 41.828 0 0 1-7.737-5.035"/>
            </g>
            <path stroke="#170C2C" stroke-width=".754" d="M253.177 221.1H0"/>
            <path fill="#C4D4E3" fill-rule="nonzero" d="M23.365 126.457c-8.605 5.586.221 12.255-3.19 16.735-3.412 4.48-6.567 10.421-1.46 15.141 5.107 4.72 13.978 6.537 20.302 6.147 12.985-.8 24.02-9.976 25.57-20.041 1.55-10.066-3.74-18.172-16.508-21.11-12.768-2.94-18.968-.603-24.714 3.128z"/>
            <g transform="translate(14 123.212)">
                <path stroke="#FFF" stroke-linecap="round" stroke-linejoin="round" stroke-width=".716" d="M14.26 40.01a28.496 28.496 0 0 0 10.778-7.74 9.405 9.405 0 0 0 2.627-5.323 4.058 4.058 0 0 0-3.252-4.38M18.515 24.629a26.208 26.208 0 0 0 9.323-7.736 8.464 8.464 0 0 1-7.997.004M23.64 14.95a3.076 3.076 0 0 0 1.856-3.699 4.854 4.854 0 0 0-3.164-3.102c-1.463-.44-2.995-.6-4.518-.472A55.133 55.133 0 0 0 3.17 10.154M4.757 21.853a17.02 17.02 0 0 0 9.872-5.398 2.185 2.185 0 0 0 .747-1.837 2.14 2.14 0 0 0-1.63-1.24 16.173 16.173 0 0 0-10.636.485"/>
                <path stroke="#FFF" stroke-linecap="round" stroke-linejoin="round" stroke-width=".716" d="M11.514 36.355a14.47 14.47 0 0 0 8.167-4.991 3.164 3.164 0 0 0 .846-1.78 2.343 2.343 0 0 0-1.69-2.136 6.431 6.431 0 0 0-2.88-.106A126.081 126.081 0 0 0 .757 30.557"/>
                <ellipse cx="31.074" cy="31.085" fill="#FFF" fill-rule="nonzero" rx="1.434" ry="1.43" transform="scale(1 -1) rotate(60 84.914 0)"/>
                <path stroke="#FFF" stroke-linecap="round" stroke-linejoin="round" stroke-width=".716" d="M50.515 35.833l-11.129-4.67c-.788-.322-1.722-.994-1.449-1.78a1.68 1.68 0 0 1 1.13-.872l5.575-2.131-8.323-3.58c-.887-.38-1.93-1.032-1.789-1.993a2.243 2.243 0 0 1 1.107-1.316 75.514 75.514 0 0 1 16.89-8.6"/>
                <ellipse cx="32.9" cy="6.466" fill="#FFF" fill-rule="nonzero" rx="2.152" ry="3.576" transform="scale(1 -1) rotate(60 44.1 0)"/>
            </g>
            <ellipse cx="192.903" cy="167.895" stroke="#002256" stroke-linecap="round" stroke-linejoin="round" stroke-width=".651" rx="3.903" ry="3.895"/>
            <ellipse cx="50.942" cy="25.941" fill="#E33031" rx="4.942" ry="4.941"/>
        </g>
    </g>
</svg>
