<?xml version="1.0" encoding="UTF-8"?>
<svg width="236px" height="222px" viewBox="0 0 236 222" version="1.1" xmlns="http://www.w3.org/2000/svg" xmlns:xlink="http://www.w3.org/1999/xlink">
    <!-- Generator: sketchtool 55.2 (78181) - https://sketchapp.com -->
    <title>E350AAF8-61AE-410C-BB80-4F38B8BCDA78</title>
    <desc>Created with sketchtool.</desc>
    <g id="02_pagos" stroke="none" stroke-width="1" fill="none" fill-rule="evenodd">
        <g id="02_impuestos" transform="translate(-504.000000, -214.000000)">
            <g id="Group-14" transform="translate(460.000000, 196.000000)">
                <rect id="Rectangle-Copy-2" x="5.68434189e-14" y="0" width="328" height="250"></rect>
                <g id="Group-12" transform="translate(36.000000, 12.000000)">
                    <g id="Group-12-Copy" transform="translate(138.375494, 78.369048) rotate(-15.000000) translate(-138.375494, -78.369048) translate(109.170948, 40.535714)">
                        <path d="M42.9116952,50.8746988 L24.030564,72.2296125 C18.9671565,77.9562762 9.55043736,75.8450638 7.43074819,68.5191567 L0.380132096,44.102985 C-0.52064527,40.993134 0.202364905,37.6406247 2.30588284,35.1735155 C4.40940077,32.7064063 7.61377736,31.4526834 10.8407981,31.8342018 L36.7857935,34.8954598 C44.5385567,35.8111982 48.0731384,45.0319185 42.9116952,50.8746988 Z" id="Path" fill="#FDC130" fill-rule="nonzero"></path>
                        <g id="Group-10" transform="translate(3.049750, 36.491109)" stroke="#FFFFFF" stroke-linejoin="round" stroke-width="0.762048048">
                            <path d="M24.8952565,24.7562917 C24.6571639,28.5495473 24.7355944,32.1240422 24.1193545,32.2011694 C22.8588638,32.3554238 21.0381551,28.794952 19.7902693,29.1693695 C18.5423835,29.543787 17.4429555,32.181537 16.7860998,34.1279469" id="Path"></path>
                            <path d="M34.5422119,20.7597007 C32.204702,17.7769818 29.5842819,15.2542213 27.7705759,15.911906 C26.9176438,16.2204147 26.3182105,17.1221018 25.8924447,18.3533322" id="Path"></path>
                            <path d="M8.15117309,8.20875367 C6.4383063,6.61011728 4.36970104,3.96255105 2.78568441,1.8015873" id="Path"></path>
                            <path d="M33.0111983,2.62900812e-13 C33.2198796,2.86913163 33.1176398,5.33860415 32.2128876,5.68217075 C30.6050617,6.29077443 26.958042,2.35308058 26.958042,2.35308058 C26.958042,2.35308058 28.1541076,5.29793709 28.6008815,8.05067677" id="Path"></path>
                            <path d="M4.54747351e-13,7.17945621 C1.31651249,9.87049413 3.14002235,14.620127 2.82209859,19.8142929" id="Path"></path>
                        </g>
                        <path d="M22.6607149,36.3363623 L28.4103717,19.7475107 C28.4103717,19.7475107 23.1111488,14.2478023 25.8693943,10.0464896 C28.6276399,5.84517686 32.6312028,9.51868648 32.6312028,9.51868648 C32.6312028,9.51868648 37.0719516,3.97675386 44.0669258,5.84781588 C51.0619001,7.71887789 53.1391955,12.7725926 52.1349927,18.4200859 C50.394198,28.2477797 44.3530839,29.4722829 34.2766115,26.0362847 L30.0796269,36.8193021" id="Path" fill="#FFC6BB" fill-rule="nonzero"></path>
                        <path d="M29.5417558,8.05667187 C29.5417558,8.05667187 29.9709929,0.16601544 40.1402016,0.00503549253 C50.3094104,-0.155944455 51.226176,3.60465267 55.2853807,2.43292978 C59.3445855,1.26120688 60.7753757,13.4481806 49.6496572,13.0602453 C38.5239387,12.67231 39.0061679,12.0574194 39.0061679,12.0574194 C39.0061679,12.0574194 38.0364102,16.9369591 35.2728654,16.1399764 C32.5093206,15.3429938 32.4404307,10.115104 32.4404307,10.115104" id="Path" fill="#0B2D72" fill-rule="nonzero"></path>
                    </g>
                    <path d="M8,112.295385 C8,112.295385 34.0614274,144.637573 45.3844947,144.189691 C50.1538235,144.002839 42.8925813,132.036219 45.447569,131.436222 C48.0025564,130.836444 55.1976495,142.600703 64.0845062,138.172517 C77.8721812,131.303223 62.6154618,88.9732399 91.7472028,75.0907431 C120.878944,61.208027 133.449964,85.9437397 150.167075,87.005436 C166.884186,88.0671323 203.140401,49.3046642 216.830223,51.3697175 C230.522228,53.4347686 187.253201,111.543989 195.725919,122.771169 C200.567161,129.184977 211.864275,118.770117 216.289087,120.402614 C220.7139,122.035331 213.826575,129.505593 217.647198,130.731651 C221.470003,131.957489 248.950636,116.045581 248.950636,116.045581" id="Stroke-23-Copy-2" stroke="#E7ECF3" stroke-width="0.692549979" transform="translate(128.475318, 97.742162) rotate(-28.000000) translate(-128.475318, -97.742162) "></path>
                    <g id="Group-7-Copy-7" transform="translate(211.611508, 163.043651)" stroke="#002256" stroke-linecap="round" stroke-linejoin="round">
                        <ellipse id="Oval-Copy" stroke-width="0.692549979" transform="translate(8.856963, 11.126008) scale(-1, 1) rotate(-341.000000) translate(-8.856963, -11.126008) " cx="8.85696321" cy="11.1260084" rx="5.26391696" ry="9.32201317"></ellipse>
                        <path d="M8.49239235,7.71872946 C7.5306071,8.0043784 6.73481242,8.66508138 6.29583035,9.54240972 L6.29583035,9.57105392 C6.09792806,10.0175514 6.25360245,10.5373792 6.66738629,10.8117534 C7.08117014,11.0861275 7.63739849,11.0383521 7.99496463,10.6977255 L8.10824025,10.5879228 C8.52178529,10.0852654 9.11005869,9.74583818 9.76304929,9.63311634 C10.4257533,9.64215342 11.0213907,10.0270707 11.2848826,10.616567 C11.5253544,11.1967073 11.563407,11.8371822 11.3932332,12.4402472 C10.9102986,14.3002122 9.30622429,15.6867553 7.34486108,15.9396128" id="Path" stroke-width="0.538649989"></path>
                        <path d="M6.68490748,6.28651982 C8.06728619,9.91527132 9.65051818,13.4691276 11.4277084,16.9326114" id="Path" stroke-width="0.538649989"></path>
                    </g>
                    <polyline id="Path-Copy-4" stroke="#C4D4E3" stroke-width="0.591300023" points="85.2291943 212.295674 145.55918 186.624639 162.587761 226.839331 202.807751 209.725308"></polyline>
                    <g id="Group-9-Copy-2" transform="translate(8.527592, 71.162698)">
                        <ellipse id="Oval" fill="#C4D4E3" fill-rule="nonzero" cx="19.780122" cy="23.5322927" rx="17.7135421" ry="17.7112088"></ellipse>
                        <path d="M1.84741111e-13,24.1935112 C2.91630466,21.9263486 6.32744701,20.3808151 9.95501067,19.6830567 C11.5723695,19.2586149 13.2838137,19.3704863 14.8321393,20.0018584 C16.4001537,20.7167259 17.1711006,22.5034536 16.6153025,24.1344738" id="Path" stroke="#FFFFFF" stroke-width="0.591300023" stroke-linecap="round" stroke-linejoin="round"></path>
                        <path d="M12.7183232,27.4996035 C15.5212498,25.6265906 18.7247506,24.4375689 22.0710735,24.0282066 C20.0864238,25.2626673 18.850076,27.4071601 18.7763546,29.7430233" id="Path" stroke="#FFFFFF" stroke-width="0.591300023" stroke-linecap="round" stroke-linejoin="round"></path>
                        <path d="M21.7286117,27.8302127 C22.7437693,27.0081531 24.2182282,27.0951757 25.1296117,28.0309397 C25.9842153,28.9970793 26.3225109,30.3149405 26.0389069,31.5731815 C25.750912,32.8001714 25.2340942,33.961857 24.5155423,34.9973485 C22.3553007,38.482905 19.7335577,41.6603566 16.7215838,44.4433265" id="Path" stroke="#FFFFFF" stroke-width="0.591300023" stroke-linecap="round" stroke-linejoin="round"></path>
                        <path d="M9.03390648,38.4805529 C11.0465658,36.0194987 13.8368263,34.3164147 16.9459553,33.6512967 C17.4899987,33.4622135 18.0917453,33.5456564 18.5637921,33.8756386 C18.9139673,34.3625028 18.99396,34.9934728 18.7763546,35.5522997 C18.0815286,38.4819263 16.4169482,41.0908125 14.0527434,42.955585" id="Path" stroke="#FFFFFF" stroke-width="0.591300023" stroke-linecap="round" stroke-linejoin="round"></path>
                        <path d="M1.47612851,27.6649081 C3.28655409,25.6559807 5.72721177,24.3233739 8.39621896,23.8865169 C8.93553189,23.7559478 9.50248776,23.8014639 10.0140558,24.0163991 C10.7070877,24.4655471 11.0390036,25.3047097 10.8406878,26.1063217 C10.6341421,26.8817199 10.2546319,27.6002721 9.73063913,28.2080518 C7.07954761,31.5608759 4.22421798,34.7470671 1.18090281,37.7484896" id="Path" stroke="#FFFFFF" stroke-width="0.591300023" stroke-linecap="round" stroke-linejoin="round"></path>
                        <ellipse id="Oval" fill="#FFFFFF" fill-rule="nonzero" cx="13.2851566" cy="15.8574356" rx="1.18090281" ry="1.18074725"></ellipse>
                        <path d="M17.9024866,-4.26325641e-14 L16.6507296,9.88285449 C16.5562574,10.5794954 16.6507296,11.5240932 17.3238442,11.6539754 C17.7347324,11.6735796 18.1329893,11.5091038 18.4102748,11.2052914 L22.2245908,8.09992614 L21.3507228,15.5268263 C21.2562505,16.317927 21.2916776,17.3333696 22.0356464,17.6285565 C22.5146259,17.7347278 23.0161756,17.6454807 23.4291117,17.3805995 C28.1317224,15.1003164 32.5278878,12.2360444 36.5135148,8.85560438" id="Path" stroke="#FFFFFF" stroke-width="0.591300023" stroke-linecap="round" stroke-linejoin="round"></path>
                        <ellipse id="Oval" fill="#FFFFFF" fill-rule="nonzero" cx="31.5891501" cy="24.71304" rx="1.77135421" ry="2.95186813"></ellipse>
                    </g>
                    <g id="Group" transform="translate(133.882487, 173.401388) rotate(-7.000000) translate(-133.882487, -173.401388) translate(82.495892, 127.014685)">
                        <path d="M45.4784969,0.713287399 C26.0384358,3.60192247 -1.30018103,24.8237917 0.0480060288,37.9101324 C1.39638271,50.9964731 32.989658,73.1557127 32.989658,73.1557127 C32.989658,73.1557127 27.6515199,80.4016747 28.9714538,85.9881075 L52.9375172,63.6556027 L31.2586313,42.5678864 L53.9104494,27.9771428 L73.9235373,35.0615543 L67.3443465,80.3837246 L95.3991522,92.7031259 C95.3991522,92.7031259 93.5071395,84.3236657 88.0935332,81.1631346 C88.0935332,81.1631346 108.431248,28.5116763 100.954214,16.0405499 C93.4773694,3.56961239 64.5222554,-2.11620699 45.4784969,0.713287399" id="Fill-51" fill="#0B2D72" fill-rule="nonzero"></path>
                        <path d="M24.610609,35.62802 L44.2620946,54.8134091 M74.2386831,30.4311977 L73.1648739,37.6748923" id="Stroke-52" stroke="#FFFFFE" stroke-width="0.567000046"></path>
                    </g>
                    <g id="Group-11" transform="translate(131.990879, 113.000000) scale(-1, 1) translate(-131.990879, -113.000000) translate(83.990879, 54.000000)">
                        <path d="M18.1701302,99.0598154 L18.1701302,8.33381921 L78.2291814,8.33381921 L78.2291814,100.292693 C78.2291814,102.926865 78.1746725,106.899844 76.3107974,108.762485 C74.4469223,110.625126 70.9263466,110.224851 68.2904292,110.224851 L29.342564,110.224851" id="Path" fill="#EAF5FD" fill-rule="nonzero" transform="translate(48.199656, 59.297419) rotate(-23.000000) translate(-48.199656, -59.297419) "></path>
                        <path d="M39.6306974,21 L55,21" id="Path" stroke="#002256" stroke-width="1.27999985" stroke-linecap="round" stroke-linejoin="round" transform="translate(47.315349, 21.000000) rotate(-23.000000) translate(-47.315349, -21.000000) "></path>
                        <path d="M17.7934943,35.2342784 L59.6930035,35.2342784" id="Path" stroke="#002256" stroke-width="1.27999985" stroke-linecap="round" stroke-linejoin="round" transform="translate(38.743249, 35.234278) rotate(-23.000000) translate(-38.743249, -35.234278) "></path>
                        <path d="M20.521762,41.6616741 L62.4212712,41.6616741" id="Path" stroke="#002256" stroke-width="1.27999985" stroke-linecap="round" stroke-linejoin="round" transform="translate(41.471517, 41.661674) rotate(-23.000000) translate(-41.471517, -41.661674) "></path>
                        <path d="M23.2500296,48.0890699 L65.1495388,48.0890699" id="Path" stroke="#002256" stroke-width="1.27999985" stroke-linecap="round" stroke-linejoin="round" transform="translate(44.199784, 48.089070) rotate(-23.000000) translate(-44.199784, -48.089070) "></path>
                        <path d="M25.9782972,54.5164657 L67.8778064,54.5164657" id="Path" stroke="#002256" stroke-width="1.27999985" stroke-linecap="round" stroke-linejoin="round" transform="translate(46.928052, 54.516466) rotate(-23.000000) translate(-46.928052, -54.516466) "></path>
                        <path d="M28.7020628,60.9332552 L70.601572,60.9332552" id="Path" stroke="#002256" stroke-width="1.27999985" stroke-linecap="round" stroke-linejoin="round" transform="translate(49.651817, 60.933255) rotate(-23.000000) translate(-49.651817, -60.933255) "></path>
                        <path d="M31.4303304,67.3606509 L73.3298396,67.3606509" id="Path" stroke="#002256" stroke-width="1.27999985" stroke-linecap="round" stroke-linejoin="round" transform="translate(52.380085, 67.360651) rotate(-23.000000) translate(-52.380085, -67.360651) "></path>
                        <path d="M34.158598,73.7880467 L76.0581073,73.7880467" id="Path" stroke="#002256" stroke-width="1.27999985" stroke-linecap="round" stroke-linejoin="round" transform="translate(55.108353, 73.788047) rotate(-23.000000) translate(-55.108353, -73.788047) "></path>
                        <path d="M61.2600194,87 L85,87" id="Path" stroke="#002256" stroke-width="1.27999985" stroke-linecap="round" stroke-linejoin="round" transform="translate(73.130010, 87.000000) rotate(-23.000000) translate(-73.130010, -87.000000) "></path>
                        <circle id="Oval-Copy-2" fill="#FDC130" fill-rule="nonzero" transform="translate(19.000000, 27.000000) rotate(-23.000000) translate(-19.000000, -27.000000) " cx="19" cy="27" r="6"></circle>
                    </g>
                    <g id="Group-5" transform="translate(195.990879, 18.500000) rotate(-23.000000) translate(-195.990879, -18.500000) translate(182.990879, 7.000000)" fill-rule="nonzero">
                        <path d="M7.35522118,21.2767076 L23.7275815,7.90960451" id="Path" stroke="#002256" stroke-width="0.895999878" fill="#FFFFFF" stroke-linecap="round" stroke-linejoin="round"></path>
                        <path d="M2.05682919,15.1717322 L18.4291895,1.80462906" id="Path" stroke="#002256" stroke-width="0.895999878" fill="#FFFFFF" stroke-linecap="round" stroke-linejoin="round"></path>
                        <ellipse id="Oval" fill="#D0413B" transform="translate(21.073959, 4.850649) rotate(-40.090000) translate(-21.073959, -4.850649) " cx="21.0739592" cy="4.85064884" rx="2.03234796" ry="4.4456346"></ellipse>
                        <ellipse id="Oval" fill="#0B2D72" transform="translate(4.706718, 18.211423) rotate(-40.090000) translate(-4.706718, -18.211423) " cx="4.70671763" cy="18.211423" rx="2.03234796" ry="4.4456346"></ellipse>
                    </g>
                    <path d="M87.1070351,112.732795 C89.1027992,110.96509 98.8039975,106.860921 100.025205,108.456297 C101.042209,109.785009 92.5898387,114.654193 92.5898387,114.654193 C92.5898387,114.654193 104.457954,111.049299 105.232511,113.055137 C106.038465,115.143804 94.3478769,119.322288 94.3478769,119.322288 C94.3478769,119.322288 103.165453,116.517842 104.094165,118.127712 C105.01674,119.726999 96.7374114,125.091546 93.5973998,125.206356 C91.2817563,125.291025 88.4332952,124.022364 86.6929624,121.035234 C84.7658957,117.727603 85.3801585,114.262137 87.1070351,112.732795 Z" id="Stroke-40" stroke="#002256" stroke-width="0.810000011" stroke-linejoin="bevel"></path>
                    <path d="M174.45897,106.006441 C171.822895,105.390014 162.337775,100.338329 163.525196,98.0355726 C164.285145,96.5619456 173.015066,100.547608 173.015066,100.547608 C173.015066,100.547608 162.169161,95.2439658 163.040728,93.2899323 C163.912295,91.336127 176.014492,96.5466548 176.014492,96.5466548 C176.014492,96.5466548 168.650106,91.0421775 169.502674,89.404231 C170.350493,87.7767826 179.602879,91.4281003 181.469505,93.8794287 C182.846913,95.6871721 183.367004,98.6732238 181.792483,101.726373 C180.049349,105.107248 176.741194,106.540023 174.45897,106.006441 Z" id="Stroke-49" stroke="#002256" stroke-width="0.810000011" stroke-linejoin="bevel"></path>
                </g>
            </g>
        </g>
    </g>
</svg>