<?xml version="1.0" encoding="UTF-8"?>
<svg width="344px" height="192px" viewBox="0 0 344 192" version="1.1" xmlns="http://www.w3.org/2000/svg" xmlns:xlink="http://www.w3.org/1999/xlink">
    <title>New prog</title>
    <g id="Page-1" stroke="none" stroke-width="1" fill="none" fill-rule="evenodd">
        <g id="Artboard" transform="translate(-578.000000, -779.000000)">
            <g id="New-prog" transform="translate(578.000000, 779.000000)">
                <rect id="Rectangle" x="0" y="0" width="344" height="192"></rect>
                <g id="Group-18" transform="translate(59.000000, 12.000000)">
                    <g id="Group-8" transform="translate(31.218619, 0.000000)">
                        <ellipse id="Oval" fill="#E33031" transform="translate(166.418987, 129.304510) scale(-1, 1) translate(-166.418987, -129.304510) " cx="166.418987" cy="129.30451" rx="3.69282885" ry="3.68592544"></ellipse>
                        <ellipse id="Oval-Copy-2" stroke="#002256" stroke-width="0.615851263" stroke-linecap="round" stroke-linejoin="round" transform="translate(19.673160, 143.047474) scale(-1, 1) translate(-19.673160, -143.047474) " cx="19.67316" cy="143.047474" rx="3.69282885" ry="3.68592544"></ellipse>
                        <g id="Group-17" transform="translate(31.565180, 0.000000)" stroke="#002256" stroke-linecap="round" stroke-linejoin="round">
                            <ellipse id="Oval-Copy" stroke-width="0.615851263" transform="translate(7.112636, 9.346968) scale(-1, 1) rotate(-341.000000) translate(-7.112636, -9.346968) " cx="7.11263636" cy="9.34696775" rx="4.67651294" ry="8.27320805"></ellipse>
                            <g id="Group" transform="translate(4.761195, 5.052559)" stroke-width="0.5">
                                <path d="M2.0275079,1.27089735 C1.17292983,1.52437315 0.465839891,2.11065999 0.0757897781,2.88917331 L0.0757897781,2.91459126 C-0.100052968,3.31079892 0.0382688839,3.77207766 0.405929543,4.01554855 C0.773590203,4.25901945 1.26781752,4.21662511 1.58552689,3.91436384 L1.68617603,3.81692838 C2.0536245,3.37088619 2.57632491,3.06968926 3.15652869,2.96966348 C3.74536314,2.9776827 4.27460673,3.3192461 4.50872802,3.84234632 C4.72239516,4.35714446 4.75620618,4.92548152 4.60500111,5.46062229 C4.17589769,7.11109615 2.75062455,8.34147043 1.00788834,8.56584815" id="Path"></path>
                                <path d="M0.421497696,0 C1.64978698,3.22003885 3.05654108,6.37361809 4.63563346,9.44700364" id="Path"></path>
                            </g>
                        </g>
                        <path d="M31.5613037,10.6514728 C19.476295,11.2182515 0.504405077,11.2182515 0.00251153558,23.5634079 C-0.111014952,26.3558372 3.64702745,29.2570964 6.63591569,29.9956402 C16.5823431,32.4533678 27.0012827,32.8260655 37.2461547,32.7661825 C75.8153532,32.5407388 84.073289,27.7908298 111.724267,34.2672395 C116.304905,35.3401159 119.240109,36.6834301 123.48436,38.7144352 C129.8146,41.7436498 130.881578,43.3151255 136.663141,47.2942672 C145.327349,53.2573802 153.412608,58.2653158 161.281925,65.2456274 C164.456212,68.0613109 167.199315,72.9454834 169.55853,76.473428 C171.795068,79.8179222 173.7849,83.3375086 175.536571,86.9600598 C178.871536,93.8569525 182.446604,100.702619 184.800054,107.99374 C186.743246,114.01386 187.777521,120.337772 188.344193,126.638799 C188.691602,130.501758 188.262888,134.43853 187.520676,138.245299 C187.018261,140.822168 186.044671,143.355023 184.651303,145.579468 C182.829352,148.488128 180.467744,151.052883 178.002809,153.440127 C172.863869,158.417092 162.646512,163.764918 154.135528,166.341151" id="Path-10" stroke="#E7ECF3" stroke-width="0.615851263"></path>
                    </g>
                    <g id="Group-2" transform="translate(0.000000, 51.750151)">
                        <polygon id="Path-4" stroke="#E7ECF3" stroke-width="0.86" points="0.795999281 19.8704996 0 60.8467155 59.4931835 60.8467155 55.9594168 23.3009984"></polygon>
                        <polygon id="Path-3" stroke="#170C2C" stroke-width="0.648264498" stroke-linejoin="bevel" points="0.795999281 19.0395299 2.29893203 56.6860867 62.3724884 56.6860867 58.3679493 19.0395299"></polygon>
                        <path d="M5.2896461,5.3201973 L54.1865491,7.14635108 C56.4973161,7.23265135 58.3260687,9.13097741 58.3260687,11.4433554 L58.3260687,18.896576 L58.3260687,18.896576 L0.829165776,18.896576 L0.829165776,9.61720161 C0.829165776,7.24237719 2.75434135,5.31720161 5.12916578,5.31720161 C5.1826732,5.31720161 5.23617595,5.31820035 5.2896461,5.3201973 Z" id="Rectangle" fill="#2674EA" fill-rule="nonzero"></path>
                        <line x1="20.1941441" y1="13.8001743" x2="38.1404723" y2="13.8001743" id="Path-8" stroke="#E7ECF3" stroke-width="0.86" stroke-linecap="round"></line>
                        <rect id="Rectangle" stroke="#170C2C" stroke-width="0.648264498" fill="#FFFFFF" stroke-linejoin="bevel" x="9.41079308" y="0" width="6.86530185" height="14.6018996" rx="3.43265092"></rect>
                        <rect id="Rectangle-Copy" stroke="#170C2C" stroke-width="0.648264498" fill="#FFFFFF" stroke-linejoin="bevel" x="42.0209768" y="0" width="6.86530185" height="14.6018996" rx="3.43265092"></rect>
                        <line x1="15.1788768" y1="23.3009984" x2="15.1788768" y2="50.7100427" id="Path-5" stroke="#170C2C" stroke-width="0.648264498" stroke-linecap="round" stroke-linejoin="bevel"></line>
                        <line x1="31.7230241" y1="23.3009984" x2="31.7230241" y2="50.7100427" id="Path-5-Copy" stroke="#E7ECF3" stroke-width="0.86" stroke-linecap="round"></line>
                        <line x1="48.028116" y1="23.3009984" x2="48.028116" y2="50.7100427" id="Path-5-Copy-2" stroke="#170C2C" stroke-width="0.648264498" stroke-linecap="round" stroke-linejoin="bevel"></line>
                        <line x1="7.94341492" y1="37.0055205" x2="52.6029243" y2="36.0326235" id="Path-7" stroke="#170C2C" stroke-width="0.648264498" stroke-linecap="round" stroke-linejoin="bevel"></line>
                        <rect id="Rectangle" fill="#C4D4E3" fill-rule="nonzero" x="35.155675" y="25.7680582" width="8.58162731" height="8.58935272"></rect>
                        <rect id="Rectangle" fill="#E33031" x="18.8505831" y="41.2288931" width="7.72346458" height="6.87148218"></rect>
                    </g>
                    <g id="Group-15" transform="translate(15.446929, 9.266536)">
                        <path d="M12.0491788,97.8517166 C13.4507713,101.793669 18.1114796,103.886824 22.2367393,103.301087 C26.3619989,102.71535 29.8755449,99.9736969 32.5358692,96.72159 C34.9844858,93.3470776 37.2163337,89.8198678 39.2179005,86.1613153 C46.4216982,74.5041571 58.1842846,64.7105202 71.8335684,63.8720604" id="Path" stroke="#2674EA" stroke-width="1.27710001" stroke-linecap="round" transform="translate(41.941374, 83.635157) rotate(17.000000) translate(-41.941374, -83.635157) "></path>
                        <path d="M127.528596,28.9565859 L122.61467,32.5780492 C121.49047,33.4027982 120.788737,34.6840866 120.698172,36.0773677 C120.607606,37.4706488 121.137505,38.8329058 122.145375,39.7978192 L145.445527,53.7525496 C147.223841,55.4322714 149.988208,55.4717388 151.811918,53.8434438 L147.834024,49.5432845 C149.336477,48.1750526 149.797343,45.9974281 148.97861,44.1350345 L147.529662,20.7467648 C146.964215,19.4605066 145.856199,18.493272 144.507047,18.1081936 C143.157895,17.7231152 141.707934,17.9602457 140.551621,18.7550747 L127.528596,28.9565859 Z" id="Path" fill="#FDC130" fill-rule="nonzero" transform="translate(136.250060, 36.483239) rotate(17.000000) translate(-136.250060, -36.483239) "></path>
                        <path d="M167.359694,157.425474 L154.306197,157.425474 L154.306197,157.425474 L154.294164,157.231398 C154.264544,156.270026 154.49855,152.064021 160.861382,152.064021 L158.72214,150.17393 C152.650204,144.762331 135.652045,129.270257 134.189062,124.16078 L134.08513,123.768221 C132.471946,117.185039 134.077952,99.3169431 134.077952,99.3169431 L115.704433,113.253921 L98.8929322,140.995803 L76.1604966,128.460422 L76.23266,128.349863 C76.6492424,127.759616 78.9616704,125.073626 85.5341288,126.895283 L86.4474303,124.654143 C88.6118058,119.422326 94.1355546,106.543775 97.6638762,102.526198 L97.953918,102.202249 C103.04786,96.6081733 125.417793,76.3923513 136.09575,73.9979322 C146.791432,71.5995168 154.509274,78.375036 154.775369,86.2320629 L154.78951,86.7198235 C154.986674,94.7889317 153.677539,111.589322 153.677539,111.589322 L177.555059,139.945962 L175.477235,143.646005 C171.683872,150.367593 168.978025,154.96075 167.359694,157.425474 Z" id="Fill-32" fill="#0B2D72" fill-rule="nonzero"></path>
                        <line x1="197.038487" y1="157.657202" x2="0" y2="157.657202" id="Path" stroke="#170C2C" stroke-width="0.589596565"></line>
                        <line x1="130.42049" y1="90.9054831" x2="138.149184" y2="103.790244" id="Stroke-33" stroke="#FFFFFF" stroke-width="0.638550006" stroke-linecap="round" transform="translate(134.284837, 97.347863) scale(-1, 1) rotate(23.000000) translate(-134.284837, -97.347863) "></line>
                        <g id="Group-9" transform="translate(127.316205, 14.790947) rotate(2.000000) translate(-127.316205, -14.790947) translate(115.892999, 0.390251)" fill-rule="nonzero">
                            <path d="M15.2812803,11.9711377 C13.3953343,9.45329836 10.149932,8.36947542 7.13351516,9.25013921 C4.11709829,10.130803 1.96068321,12.7917239 1.71971363,15.930531 C1.47874405,19.0693381 3.20362938,22.0294117 6.0501354,23.3619625 C8.89664143,24.6945134 12.2692961,24.1207797 14.5173749,21.9215719 L16.7072372,28.2184108 C16.7072372,28.2184108 19.0600661,30.1778809 21.3619679,26.9120974 L17.5016989,18.1455097 C18.9086208,16.8557728 19.4785649,14.8865569 18.9785828,13.042723 C18.4591271,10.6444132 16.5137145,10.7056466 15.2812803,11.9711377 Z" id="Path" fill="#FFC6BB"></path>
                            <path d="M18.3369022,19.9621018 L17.5322551,18.1455097 C18.7962232,17.1414007 19.4035247,15.520032 19.1109931,13.9306078 C18.7748747,10.8689358 15.372949,11.6343538 15.2914658,13.1651898 C15.2567875,14.1170908 15.5135947,15.4087191 14.6433408,15.5621036 C13.7730869,15.715488 13.4419382,14.5188097 13.417351,13.9306078 C11.7423139,13.7909656 10.0761906,13.5592906 8.42650195,13.2366288 C5.21809899,12.6140889 1.68376303,11.797643 0.400401845,8.36857028 C-0.88295934,4.93949758 1.05226784,1.42878029 4.30141243,0 L4.78012652,2.775916 C4.78012652,2.775916 18.3369022,1.31651898 21.6980863,7.30719064 C25.0592703,13.2978623 20.1499045,19.0844225 18.3369022,19.9621018 Z" id="Path" fill="#0B2D72"></path>
                        </g>
                        <path d="M152.121998,36.9274019 C152.121998,36.9274019 178.860427,35.6585328 183.954485,39.4866107 C189.048543,43.3146886 206.879509,63.728754 206.879509,63.728754 C206.879509,63.728754 206.880151,66.2799514 204.332961,63.7281131 C204.332961,63.7281131 206.880792,68.8311487 205.607519,68.8308283 C204.334245,68.8305078 201.787055,66.2786695 201.787055,66.2786695 C201.787055,66.2786695 204.334565,70.1057861 203.061292,70.1057861 C201.788018,70.1057861 195.420045,63.7258699 195.420045,63.7258699 C195.420045,63.7258699 196.694281,67.5529864 195.421007,67.5526659 C194.147733,67.5523455 176.31805,52.2406748 176.31805,52.2406748 L153.399442,53.5105052" id="Path" stroke="#002256" stroke-width="0.638550006" stroke-linecap="round" stroke-linejoin="round" transform="translate(179.500753, 53.415768) rotate(17.000000) translate(-179.500753, -53.415768) "></path>
                        <path d="M44.4744051,109.085325 C42.8415725,106.629465 43.0009451,103.394046 44.867115,101.112933 L68.2754411,72.5709272 C70.0731931,70.3747969 72.2777021,68.5475169 74.7677838,67.1895351 L153.839978,24.0942032 C154.824481,23.5528924 155.984539,23.4291378 157.061171,23.7505674 C158.137804,24.071997 159.041366,24.8118467 159.57014,25.8049475 C163.608327,33.3957755 174.769142,60.7984425 174.769142,60.9770263 C174.769142,62.0995532 109.408072,95.9885139 93.4688143,104.454477 C91.2490722,105.638287 88.8410774,106.427491 86.3518007,106.787031 L51.0070249,111.969822 C48.4579277,112.34426 45.919205,111.22328 44.4744051,109.085325 Z" id="Path" stroke="#002256" stroke-width="0.638550006" fill="#FFFFFF" stroke-linecap="round" stroke-linejoin="round" transform="translate(109.059807, 67.808147) rotate(17.000000) translate(-109.059807, -67.808147) "></path>
                        <path d="M146.605499,86.9236651 C151.695387,74.16896 151.692179,61.4129732 149.144989,58.8611349 C146.5978,56.3092966 128.767154,37.1708299 128.767154,37.1708299" id="Path" stroke="#002256" stroke-width="0.638550006" stroke-linecap="round" stroke-linejoin="round" transform="translate(139.793396, 62.047247) rotate(17.000000) translate(-139.793396, -62.047247) "></path>
                        <path d="M121.12112,93.124859 L114.755714,96.9500527 C114.755714,96.9500527 132.581547,96.9545392 137.671435,84.1998341" id="Path" stroke="#FFFFFF" stroke-width="0.638550006" stroke-linecap="round" stroke-linejoin="round" transform="translate(126.213574, 90.574943) rotate(17.000000) translate(-126.213574, -90.574943) "></path>
                        <polyline id="Path" stroke="#002256" stroke-width="0.638550006" stroke-linecap="round" stroke-linejoin="round" transform="translate(123.836174, 67.836013) rotate(17.000000) translate(-123.836174, -67.836013) " points="114.920851 44.2358354 132.751497 63.3743021 127.665459 91.4361913"></polyline>
                        <ellipse id="Oval" fill="#C4D4E3" fill-rule="nonzero" transform="translate(170.209364, 59.352470) rotate(-9.730000) translate(-170.209364, -59.352470) " cx="170.209364" cy="59.3524698" rx="5.73070403" ry="21.9111307"></ellipse>
                        <ellipse id="Oval" fill="#2674EA" fill-rule="nonzero" transform="translate(170.209364, 59.352470) rotate(-9.730000) translate(-170.209364, -59.352470) " cx="170.209364" cy="59.3524698" rx="2.30501651" ry="8.81291696"></ellipse>
                        <path d="M74.2505933,57.8647787 C66.2405672,73.6631538 68.0787754,87.2371056 79.7652178,98.5866343" id="Path-9" stroke="#002256" stroke-width="0.638550006" fill="#FFFFFF" stroke-linecap="round" stroke-linejoin="round"></path>
                    </g>
                    <path d="M51.2903209,98.5655755 C49.6574882,96.1097158 49.8168608,92.8742968 51.6830307,90.593183 L57.8229406,101.450072 C55.2738435,101.82451 52.7351208,100.70353 51.2903209,98.5655755 Z" id="Path" stroke="#002256" stroke-width="0.638550006" fill="#2674EA" stroke-linecap="round" stroke-linejoin="round" transform="translate(53.994665, 96.057270) rotate(17.000000) translate(-53.994665, -96.057270) "></path>
                </g>
            </g>
        </g>
    </g>
</svg>