<?xml version="1.0" encoding="UTF-8"?>
<svg width="344px" height="192px" viewBox="0 0 344 192" version="1.1" xmlns="http://www.w3.org/2000/svg" xmlns:xlink="http://www.w3.org/1999/xlink">
    <title>Abrir cuenta</title>
    <g id="Page-1" stroke="none" stroke-width="1" fill="none" fill-rule="evenodd">
        <g id="Artboard" transform="translate(-578.000000, -333.000000)">
            <g id="Abrir-cuenta" transform="translate(578.000000, 333.000000)">
                <rect id="Rectangle" x="0" y="0" width="344" height="192"></rect>
                <g id="Group" transform="translate(65.000000, 10.000000)">
                    <path d="M31.3745234,49.4801153 C22.9647101,57.3561948 14.8985928,66.1133636 10.967569,76.9228261 C7.03654512,87.7322885 7.98170933,101.034589 16.0478266,109.254508 C23.8454313,117.205803 36.540705,118.645632 47.1952833,115.551074 C57.8498616,112.456516 67.0222506,105.525996 75.6361334,98.455791 C84.2500163,91.385586 92.7672346,83.9178162 102.895528,79.3941743 C107.675052,77.2451758 114.26972,76.2566365 117.287801,80.5331435 C120.305883,84.8096506 117.137434,90.9665312 118.232966,96.1778526 C119.414421,101.818974 125.751317,105.257371 131.486745,104.859807 C137.222174,104.462242 142.366874,101.120549 146.716778,97.3383118 C151.066681,93.5560744 154.986965,89.2150975 159.830931,86.1097946 C170.468264,79.4921509 183.939123,79.4921509 194.576456,86.1097946" id="Path" stroke="#E7ECF3" stroke-width="1.10000002" transform="translate(101.648456, 83.272115) rotate(-35.000000) translate(-101.648456, -83.272115) "></path>
                    <g id="Group-4" transform="translate(172.800000, 117.120000) scale(-1, 1) translate(-172.800000, -117.120000) translate(153.600000, 94.464000)">
                        <ellipse id="Oval" fill="#FDC130" fill-rule="nonzero" cx="20.0505502" cy="23.6615844" rx="17.760275" ry="17.7071461"></ellipse>
                        <path d="M0.218243135,24.3226512 C3.14224176,22.0560087 6.56238357,20.5108297 10.1995177,19.8132313 C11.8211435,19.3888868 13.5371029,19.5007326 15.0895134,20.1319599 C16.6616646,20.8466634 17.4346455,22.6329813 16.8773811,24.2636273" id="Path" stroke="#FFFFFF" stroke-width="0.769499997" stroke-linecap="round" stroke-linejoin="round"></path>
                        <path d="M12.9701206,27.6279851 C15.7804419,25.7554019 18.9923944,24.5666529 22.3475458,24.1573845 C20.3576601,25.391562 19.1180505,27.5355629 19.0441346,29.8708903" id="Path" stroke="#FFFFFF" stroke-width="0.769499997" stroke-linecap="round" stroke-linejoin="round"></path>
                        <path d="M22.0041805,27.9585185 C23.0220163,27.1366475 24.5003652,27.2236501 25.4141532,28.1591995 C26.2710115,29.1251174 26.6101996,30.4426763 26.3258474,31.7006287 C26.0370927,32.9273371 25.5189113,34.0887563 24.7984637,35.1240103 C22.6325228,38.6087672 20.003863,41.78549 16.9839427,44.5678215" id="Path" stroke="#FFFFFF" stroke-width="0.769499997" stroke-linecap="round" stroke-linejoin="round"></path>
                        <path d="M9.27598338,38.6064157 C11.2939526,36.1459259 14.0915746,34.4432327 17.2089062,33.7782672 C17.754385,33.5892274 18.3577191,33.6726512 18.8310113,34.0025577 C19.1821104,34.4893102 19.2623141,35.1201355 19.0441346,35.6788342 C18.3474755,38.6077888 16.6785034,41.2160765 14.3080613,43.0804212" id="Path" stroke="#FFFFFF" stroke-width="0.769499997" stroke-linecap="round" stroke-linejoin="round"></path>
                        <path d="M1.69826605,27.7932518 C3.513468,25.7847852 5.96056476,24.4524841 8.63661348,24.0157273 C9.17734925,23.8851882 9.74580089,23.9306938 10.2587186,24.1455797 C10.9535789,24.5946247 11.2863705,25.4335948 11.0875314,26.2350229 C10.8804408,27.0102432 10.4999294,27.7286307 9.97455419,28.3362709 C7.31646841,31.688326 4.45360569,34.8737863 1.40226147,37.8745203" id="Path" stroke="#FFFFFF" stroke-width="0.769499997" stroke-linecap="round" stroke-linejoin="round"></path>
                        <ellipse id="Oval" fill="#FFFFFF" fill-rule="nonzero" cx="13.5384494" cy="15.9884877" rx="1.18401833" ry="1.1804764"></ellipse>
                        <path d="M18.1679611,0.134689633 L16.9129016,10.0152771 C16.8181802,10.7117582 16.9129016,11.6561393 17.5877921,11.7859917 C17.9997643,11.8055914 18.3990719,11.6411534 18.6770889,11.3374107 L22.5014681,8.23275777 L21.6252946,15.6579544 C21.5305731,16.4488735 21.5660937,17.4640833 22.3120252,17.7592024 C22.7922684,17.8653493 23.2951413,17.7761227 23.7091668,17.5113023 C28.4241842,15.2315422 32.8319479,12.3679273 36.82809,8.98826267" id="Path" stroke="#FFFFFF" stroke-width="0.769499997" stroke-linecap="round" stroke-linejoin="round"></path>
                        <ellipse id="Oval" fill="#FFFFFF" fill-rule="nonzero" cx="31.8907335" cy="24.8420608" rx="1.7760275" ry="2.95119101"></ellipse>
                    </g>
                    <ellipse id="Oval" stroke="#002256" stroke-width="0.769499997" stroke-linecap="round" stroke-linejoin="round" cx="153.312055" cy="45.7814292" rx="3.552055" ry="3.54142921"></ellipse>
                    <g id="Group-21-Copy" transform="translate(41.360456, 3.784115)">
                        <path d="M59.5863526,49.7939986 L48.9364524,36.1269711 C45.4314198,31.6290211 48.4132907,25.0258773 54.0695596,24.7595924 L75.1667593,23.766418 C80.9946859,23.4920432 84.5731239,30.1347114 81.1701518,34.9098847 L70.7226766,49.5700863 C68.0178404,53.3659099 62.4567943,53.4776153 59.5863526,49.7939986" id="Fill-10" fill="#2674EA" fill-rule="nonzero" transform="translate(64.961553, 38.123215) rotate(-12.000000) translate(-64.961553, -38.123215) "></path>
                        <g id="Group-2" transform="translate(65.563395, 116.658337) scale(-1, 1) translate(-65.563395, -116.658337) translate(43.980044, 65.892674)">
                            <path d="M4.89940931,101.531326 L43.1667011,101.531326 C43.1667011,101.531326 38.8671624,95.4169855 36.0000269,94.98949 L39.3772377,20.4181075 C39.6182262,15.0883613 37.6524388,9.8925723 33.9360977,6.03658516 C30.2197566,2.18059801 25.0759939,0 19.6985799,0 L19.6985799,0 C13.9276282,0 8.44659866,2.50921177 4.70384902,6.86733981 C0.961099376,11.2254678 -0.666733477,16.9929396 0.250503984,22.6457054 L11.7772737,93.8525832 C11.7772737,93.8525832 6.18740762,97.1223457 4.89940931,101.531326 Z" id="Path" fill="#0B2D72" fill-rule="nonzero" transform="translate(21.583351, 50.765663) scale(-1, 1) translate(-21.583351, -50.765663) "></path>
                            <line x1="24.6666863" y1="101.531326" x2="22.3541845" y2="19.1568539" id="Path" stroke="#FFFFFF" stroke-width="0.5" transform="translate(23.510435, 60.344090) scale(-1, 1) translate(-23.510435, -60.344090) "></line>
                        </g>
                        <path d="M55.4196826,32.8464498 C55.5723077,32.7977914 55.6713599,32.7518149 55.6975682,32.7131181 C55.7045057,32.7023902 55.5989015,32.7537306 55.4196826,32.8464498" id="Fill-5" fill="#FFC600"></path>
                        <path d="M54.4039932,40.9709099 L50.4727401,41.7168777 C49.5893644,41.8846918 48.7360512,41.3084536 48.567624,40.4299203 L46.647862,30.4334908 C46.4790494,29.5549575 47.0587165,28.7070751 47.9424777,28.5392611 L51.8733454,27.7932932 C52.7571065,27.6254791 53.6100343,28.2017173 53.7784615,29.0798675 L55.6982234,39.0770633 C55.8670361,39.9552135 55.2873689,40.803479 54.4039932,40.9709099" id="Fill-35" fill="#FDC130" fill-rule="nonzero"></path>
                        <path d="M75.7965,22.42725 C79.0940171,22.42725 100.805917,39.834487 89.919782,61.2898569 C86.9374008,67.1678006 80.828181,71.2299652 74.308082,69.5253884 C69.9929536,68.3970497 66.2162526,65.0798488 63.1313752,58.9469736 C61.124509,54.9569841 59.9189247,50.6225543 59.3762576,46.194256 C59.0205177,43.2877781 58.1803087,39.9885847 56.9874432,37.5878478 C56.7137971,37.0368966 56.1503175,36.688625 55.5324941,36.6759815 C54.507285,36.6552921 53.0746901,36.9391967 53.0322942,36.4223448 C53.0107109,36.1579802 55.6974526,35.3625876 55.6974526,35.3625876 C56.0023174,35.0694877 51.6802515,35.5951518 51.4331992,35.3625876 C50.6789382,34.6518683 55.7475568,32.638483 55.6974526,32.7131947 C55.4881712,33.0246852 50.633459,33.7729519 50.633459,32.9779424 C50.633459,32.1833161 55.1644209,31.123559 55.1644209,30.8584281 C55.1644209,30.5936804 51.4331992,30.8584281 51.1664906,30.3285495 C50.9861155,29.9695501 53.604253,29.4546139 55.902109,29.4300931 C57.4449331,29.4136182 58.9472885,29.9185929 60.1810082,30.8400375 C69.0336507,37.4480027 75.5240726,53.6539349 79.1508463,54.4378333 C78.7890631,47.7017026 74.308082,38.8029371 70.1393539,35.3625876" id="Fill-37" stroke="#170C2C" stroke-width="0.810000011"></path>
                        <path d="M37.3707598,61.3372126 C39.6289179,66.2337045 44.8755992,69.1026349 50.2429159,68.3647129 C50.2841556,68.3589658 50.3257806,68.3532188 50.3670202,68.3470886 L47.8745286,47.5120943 C47.5900909,45.1324299 47.8490911,42.7190494 48.6376542,40.4543261 C49.2362068,38.7344238 50.0613845,36.7712294 49.7788739,36.4773633 C49.4104153,36.0942262 48.0464246,38.4512855 47.7928202,38.2413264 C47.5881638,38.0715966 49.9052907,34.6708719 49.5676654,34.0409946 C49.316759,33.5735673 46.6357985,36.6873224 46.6357985,36.4221915 C46.6357985,36.1570607 49.736478,32.6548046 49.3009569,31.6532843 C48.9837587,30.9237913 45.5697351,35.3624344 45.303412,35.0976866 C45.0367035,34.8325558 47.3280074,31.7728231 46.9021216,30.858658 C46.7903507,30.6180479 44.7102553,32.7728108 43.7239732,33.9011495 C41.1817629,36.80916 40.252908,40.554708 39.5502928,44.3439338 C38.9070319,47.8147726 37.3707598,61.3372126 37.3707598,61.3372126" id="Fill-41" stroke="#170C2C" stroke-width="0.810000011"></path>
                        <g id="Group-20" transform="translate(0.341400, 9.173674)" fill-rule="nonzero">
                            <path d="M15.6936781,10.5178791 L1.65871903,10.5178791 C0.742582884,10.5178791 0.000269791882,9.77957393 0.000269791882,8.86924023 L0.000269791882,1.64902199 C0.000269791882,0.738305151 0.742582884,8.73114914e-14 1.65871903,8.73114914e-14 L15.6936781,8.73114914e-14 C16.6098143,8.73114914e-14 17.3525128,0.738305151 17.3525128,1.64902199 L17.3525128,8.86924023 C17.3525128,9.77957393 16.6098143,10.5178791 15.6936781,10.5178791" id="Fill-43" fill="#C4D4E3"></path>
                            <polygon id="Fill-45" fill="#0B2D72" points="3.24689609e-13 4.55323936 17.352243 4.55323936 17.352243 2.70498609 3.24689609e-13 2.70498609"></polygon>
                        </g>
                        <g id="Group-19-Copy" transform="translate(57.055882, 17.246346) rotate(-39.000000) translate(-57.055882, -17.246346) translate(48.384000, 2.304000)" fill-rule="nonzero">
                            <path d="M17.3437638,14.8458259 C17.3524831,18.0207749 12.6357945,19.1155849 12.6357945,19.1155849 L9.93954601,29.8846921 L5.83597454,27.5923685 L7.34458146,20.4363081 C1.27121187,17.4455652 -1.14737892,15.476645 0.508089721,10.2667396 C0.860837258,9.15281388 1.48076486,8.17443606 2.32229475,7.43066038 C2.81142636,6.99621196 3.37547316,6.64343985 4.00587841,6.38798419 C4.00587841,6.38798419 4.00762469,6.38798419 4.00937096,6.38798419 C4.81789626,6.12036396 5.88487024,5.99176723 7.15790467,6.34975273 C9.64267927,7.04990979 10.5856677,8.93732747 10.8598329,10.8506383 C10.8598329,10.8523761 10.8598329,10.8523761 10.8598329,10.8523761 C10.1368751,12.1939528 9.32311096,14.2548023 10.6677427,14.9101242 L10.6677427,14.9153376 L10.6782203,14.9153376 C12.2813007,14.9414045 13.8372317,12.6284012 13.8372317,12.6284012 L16.0846875,12.530911 C16.7622422,12.8682167 17.3402592,13.5390051 17.3437638,14.8458259" id="Fill-13" fill="#FFC6BB"></path>
                            <path d="M16.1288804,12.5393469 L13.8949834,12.6375875 C13.8949834,12.6375875 12.3484393,14.9683932 10.7550302,14.9421257 L10.7446158,14.9368722 C9.40809621,14.2765064 10.2169509,12.1997953 10.9355472,10.847893 C10.9355472,10.847893 10.9355472,10.847893 10.9355472,10.8461418 C10.663036,8.91810489 9.72573658,7.01616042 7.25595252,6.31061449 C5.99059826,5.94987371 4.93006129,6.0794602 4.1264138,6.3491402 C-0.167979855,2.8133552 4.29825203,-1.42780061 5.91943294,0.468715239 C7.65343692,2.49831992 10.0277553,2.15859317 14.3289183,4.74506955 C19.8225346,8.04952515 16.1288804,12.5393469 16.1288804,12.5393469" id="Fill-14" fill="#0B2D72"></path>
                        </g>
                        <path d="M50.0576596,68.4760129 C52.0846924,68.4760129 56.5524634,63.6170494 54.1196667,46.5641953" id="Path-15" stroke="#170C2C" stroke-width="0.810000011"></path>
                    </g>
                    <g id="Group-9" transform="translate(0.000000, 71.424000)">
                        <line x1="10.1021538" y1="29.9468869" x2="32.4332308" y2="11.1308869" id="Path" stroke="#002256" stroke-width="0.770000004" stroke-linecap="round" stroke-linejoin="round"></line>
                        <line x1="2.65846154" y1="21.3452869" x2="24.9895385" y2="2.52928692" id="Path" stroke="#002256" stroke-width="0.770000004" stroke-linecap="round" stroke-linejoin="round"></line>
                        <ellipse id="Oval" fill="#D0413B" fill-rule="nonzero" transform="translate(28.471521, 6.706465) rotate(-40.090000) translate(-28.471521, -6.706465) " cx="28.4715213" cy="6.70646491" rx="2.78615553" ry="6.14077214"></ellipse>
                        <ellipse id="Oval" fill="#0B2D72" fill-rule="nonzero" transform="translate(6.393849, 25.485362) rotate(-40.090000) translate(-6.393849, -25.485362) " cx="6.39384923" cy="25.4853619" rx="2.78615553" ry="6.14077214"></ellipse>
                    </g>
                    <path d="M67.4879201,26.4885225 C67.7905079,27.5006264 68.2443895,29.0187824 68.8495651,31.0429903 C66.1645748,30.6683347 64.1419441,30.4810069 62.781673,30.4810069 C62.0548072,31.5483535 57.1705874,34.1230101 54.7883326,34.4772197 C41.6494134,36.4308025 24.6932332,27.737041 31.2843957,11.5854067 C37.9840614,-4.8321145 68.5084267,-5.05882788 70.093281,19.0669929 C70.4425514,22.4964866 69.5740977,24.9703298 67.4879201,26.4885225 Z" id="Path-16" stroke="#E7ECF3" stroke-width="1.10000002"></path>
                    <line x1="212.824374" y1="171.208115" x2="3.84" y2="171.208115" id="Path" stroke="#170C2C" stroke-width="0.810000011"></line>
                </g>
            </g>
        </g>
    </g>
</svg>