<?xml version="1.0" encoding="UTF-8"?>
<svg width="344px" height="192px" viewBox="0 0 344 192" version="1.1" xmlns="http://www.w3.org/2000/svg" xmlns:xlink="http://www.w3.org/1999/xlink">
    <title>New account</title>
    <g id="Page-1" stroke="none" stroke-width="1" fill="none" fill-rule="evenodd">
        <g id="Artboard" transform="translate(-578.000000, -556.000000)">
            <g id="New-account" transform="translate(578.000000, 556.000000)">
                <rect id="Rectangle" x="0" y="0" width="344" height="192"></rect>
                <g id="Group-12" transform="translate(56.000000, 11.000000)">
                    <g id="Group-4" transform="translate(140.853168, 106.825470) scale(-1, 1) translate(-140.853168, -106.825470) translate(69.060401, 43.650939)">
                        <path d="M11.801213,54.3711346 C6.06503894,63.0222594 2.19963609,72.7717479 0.451765362,82.9972088 C-0.241811994,87.1118138 -0.45619045,91.8052316 2.2046245,94.9887028 C4.86543945,98.1721739 9.36738701,98.839067 13.2514202,97.819853 C17.1354534,96.8006389 25.0925572,84.171214 34.3108308,74.3188113 C56.3035383,50.7762246 77.8927098,26.1515093 105.2701,9.12685943 C110.478235,5.90563965 116.001633,2.91091188 122.054672,1.94202937 C128.10771,0.973146858 134.816495,2.34468184 139.041012,6.77385904 C145.648912,13.6944484 143.984327,24.8932203 140.743429,33.8899865 C133.072222,54.987581 119.316994,73.3490258 101.209519,86.6626262" id="Path" stroke="#E7ECF3" stroke-width="0.630173385"></path>
                        <ellipse id="Oval" fill="#C4D4E3" fill-rule="nonzero" cx="90.2131657" cy="104.064763" rx="18.9157461" ry="18.8743347"></ellipse>
                        <path d="M69.0905826,104.769405 C72.2048145,102.353354 75.8474684,100.706322 79.7212319,99.9627407 C81.4483596,99.510425 83.2759581,99.6296433 84.9293673,100.302479 C86.6038016,101.064293 87.4270721,102.968358 86.8335524,104.70649" id="Path" stroke="#FFFFFF" stroke-width="0.630173385" stroke-linecap="round" stroke-linejoin="round"></path>
                        <path d="M82.6720883,108.292614 C85.6652472,106.296597 89.0861671,105.02949 92.6596022,104.593244 C90.540256,105.908774 89.2199982,108.194099 89.1412735,110.683363" id="Path" stroke="#FFFFFF" stroke-width="0.630173385" stroke-linecap="round" stroke-linejoin="round"></path>
                        <path d="M92.2938978,108.644935 C93.3779534,107.768889 94.9524826,107.861626 95.925721,108.858844 C96.8383259,109.888431 97.1995813,111.292839 96.8967293,112.633711 C96.5891885,113.941279 96.0372946,115.179255 95.2699752,116.282749 C92.9631197,119.997208 90.1634411,123.383328 86.9470469,126.349061" id="Path" stroke="#FFFFFF" stroke-width="0.630173385" stroke-linecap="round" stroke-linejoin="round"></path>
                        <path d="M78.7376131,119.994701 C80.88687,117.372025 83.8665033,115.557097 87.1866464,114.848299 C87.7676136,114.646799 88.4102003,114.735721 88.9142845,115.087374 C89.2882258,115.606212 89.3736475,116.278619 89.1412735,116.874145 C88.3992901,119.996165 86.6217359,122.776381 84.0970745,124.763616" id="Path" stroke="#FFFFFF" stroke-width="0.630173385" stroke-linecap="round" stroke-linejoin="round"></path>
                        <path d="M70.6668948,108.468774 C72.6001925,106.327917 75.2064957,104.907796 78.0566462,104.442249 C78.6325619,104.303106 79.2379966,104.351611 79.7842844,104.580661 C80.5243518,105.059306 80.8787946,105.953577 80.6670192,106.807833 C80.4464554,107.634153 80.0411882,108.399893 79.4816325,109.047587 C76.6506135,112.620597 73.6014949,116.016031 70.3516323,119.214562" id="Path" stroke="#FFFFFF" stroke-width="0.630173385" stroke-linecap="round" stroke-linejoin="round"></path>
                        <ellipse id="Oval" fill="#FFFFFF" fill-rule="nonzero" cx="83.2773922" cy="95.8858844" rx="1.26104974" ry="1.25828898"></ellipse>
                        <path d="M88.2080966,78.9870634 L86.8713839,89.5189422 C86.7704999,90.2613327 86.8713839,91.2679639 87.5901823,91.4063757 C88.0289571,91.4272673 88.4542434,91.2519901 88.750348,90.9282258 L92.8235387,87.6189258 L91.8903619,95.5335635 C91.7894779,96.3766171 91.8273094,97.4587456 92.6217707,97.7733179 C93.1332582,97.8864616 93.6688477,97.7913535 94.1098094,97.5090772 C99.1315825,95.0790439 103.826112,92.0266702 108.082241,88.4242308" id="Path" stroke="#FFFFFF" stroke-width="0.630173385" stroke-linecap="round" stroke-linejoin="round"></path>
                        <ellipse id="Oval" fill="#FFFFFF" fill-rule="nonzero" cx="102.823663" cy="105.323052" rx="1.89157461" ry="3.14572244"></ellipse>
                        <ellipse id="Oval" stroke="#002256" stroke-width="0.630173385" stroke-linecap="round" stroke-linejoin="round" cx="4.93842234" cy="98.2152978" rx="3.78314922" ry="3.77486693"></ellipse>
                        <ellipse id="Oval-Copy" stroke="#002256" stroke-width="0.630173385" stroke-linecap="round" stroke-linejoin="round" transform="translate(69.721049, 9.565397) rotate(-341.000000) translate(-69.721049, -9.565397) " cx="69.7210494" cy="9.56539738" rx="4.79072997" ry="8.47312871"></ellipse>
                        <g id="Group" transform="translate(69.723532, 10.004845) scale(-1, 1) translate(-69.723532, -10.004845) translate(67.317061, 5.167365)" stroke="#002256" stroke-linecap="round" stroke-linejoin="round" stroke-width="0.55">
                            <path d="M2.07709732,1.30156414 C1.20161771,1.56115633 0.477233548,2.16159028 0.0776434682,2.95888915 L0.0776434682,2.98492044 C-0.102500095,3.39068861 0.0392048762,3.86309801 0.415857895,4.11244386 C0.792510913,4.36178972 1.2988262,4.31837241 1.6243062,4.00881756 L1.72741705,3.90903098 C2.10385269,3.45222578 2.63933747,3.14376096 3.23373206,3.04132155 C3.8369684,3.04953427 4.3791564,3.39933961 4.6190039,3.93506226 C4.83789697,4.46228249 4.87253496,5.04433354 4.71763167,5.59238727 C4.2780331,7.28268712 2.81790018,8.54275037 1.03253959,8.77254233" id="Path"></path>
                            <path d="M0.431806819,0 C1.69013799,3.29773849 3.13129891,6.52741369 4.74901323,9.67496013" id="Path"></path>
                        </g>
                    </g>
                    <g id="Group-7" transform="translate(75.963360, 6.532801) rotate(-60.000000) translate(-75.963360, -6.532801) translate(71.172419, 1.743852)" fill="#E33031">
                        <ellipse id="Oval" cx="4.79094104" cy="4.78894851" rx="4.79094104" ry="4.78894851"></ellipse>
                    </g>
                    <g id="Group-10" transform="translate(170.365769, 75.754124) rotate(8.000000) translate(-170.365769, -75.754124) translate(116.468795, 23.711284)">
                        <g id="Group-3" transform="translate(33.653404, -0.000000)">
                            <path d="M43.2118575,2.61695073 C50.221277,3.17865098 57.5606094,7.09616971 58.7227929,14.0902437 C59.667067,19.797843 61.0519331,23.947177 60.6161143,29.7272537 C60.2347728,34.836914 61.5785475,40.4357971 58.8002025,44.7844441 C56.3850398,48.6438684 53.0448266,37.195218 48.4868881,36.995905 C43.9289496,36.796592 37.735626,48.4083167 33.3229604,47.6473035 C28.9102948,46.8862902 23.843901,46.9406483 20.0849636,49.4592397 C17.7969148,51.0356243 16.126276,53.4454995 13.6384768,54.6957356 C9.24397035,56.8881784 3.45121181,54.3333483 1.25395857,49.9484625 C-0.747742026,45.357059 -0.189441814,40.0545022 2.7248471,35.9784339 C5.65382521,31.9883432 9.60559316,28.8588857 14.1650912,26.9187525 C17.7969148,25.1068162 21.7374433,23.8203415 24.5157883,20.9393628 C26.4877954,18.737103 27.8904323,16.0872579 28.6015898,13.2205143 C29.2189998,11.0099521 29.0737269,8.11085402 30.4175016,6.20832093 C33.577188,1.55164472 38.0001908,2.18208603 43.2118575,2.61695073 Z" id="Path" fill="#0B2D72" fill-rule="nonzero"></path>
                            <g id="Group-13" transform="translate(22.288934, 30.767155)">
                                <path d="M25.868245,0 C11.5816078,0 0,11.5944975 0,25.8970349 C0,40.1995723 11.5816078,51.7940698 25.868245,51.7940698 C40.1548822,51.7940698 51.7364899,40.1995723 51.7364899,25.8970349 C51.7350452,11.5950966 40.1542837,0.00144632031 25.868245,0 L25.868245,0 Z" id="Shape" fill="#FDC130" fill-rule="nonzero"></path>
                                <path d="M33.8299188,33.2729882 C33.3851326,40.358199 33.5316504,47.0347988 32.3804389,47.1788604 C30.0256882,47.4669836 26.6243816,40.8165768 24.2931784,41.5159303 C21.9619751,42.2152839 19.9081092,47.1421902 18.6810225,50.7777808" id="Path" stroke="#FFFFFF" stroke-width="0.88" stroke-linejoin="round"></path>
                                <path d="M51.8516111,25.8079786 C47.4848567,20.2367241 42.5895915,15.5246006 39.2013669,16.753053 C37.6079856,17.3292994 36.4881708,19.0135103 35.6927883,21.3132571" id="Path" stroke="#FFFFFF" stroke-width="0.88" stroke-linejoin="round"></path>
                                <path d="M16.0907967,21.2006271 C12.8909521,18.2146233 9.02654447,13.2693819 6.06740772,9.23303813" id="Path" stroke="#FFFFFF" stroke-width="0.88" stroke-linejoin="round"></path>
                                <path d="M30.896946,0.4924287 C31.286788,5.85151977 31.0957916,10.4641099 29.4056038,11.1058388 C26.4019885,12.2426157 19.5889097,4.88761678 19.5889097,4.88761678 C19.5889097,4.88761678 21.8233065,10.3881501 22.6579348,15.5298392" id="Path" stroke="#FFFFFF" stroke-width="0.88" stroke-linejoin="round"></path>
                                <path d="M0.863408601,19.2780598 C3.32281492,24.3044995 6.72935431,33.176074 6.13543385,42.8779672" id="Path" stroke="#FFFFFF" stroke-width="0.88" stroke-linejoin="round"></path>
                            </g>
                            <path d="M2.50693769,45.527338 C0.245036455,42.0988815 -0.529423597,37.9027344 0.36005512,33.8951887 C1.24953384,29.887643 3.72716711,26.4101443 7.22830829,24.2552062 C10.9872456,21.9359278 15.508866,21.3742275 19.8125768,20.3957819 C24.1162877,19.4173364 28.6197489,17.7141163 31.0893889,14.0902437" id="Path" stroke="#0B2D72" stroke-width="1.81489949"></path>
                            <path d="M50.3001683,36.3074478 L47.6414334,17.2409864 C47.6414334,17.2409864 53.1048244,13.0574186 51.2325804,8.92589756 C49.3603364,4.79437654 45.2968003,7.53054883 45.2968003,7.53054883 C45.2968003,7.53054883 42.1186847,1.97889491 35.6511576,2.67780849 C29.1836306,3.37672206 27.0244905,11.3696167 28.4144524,16.3735404 C30.467243,23.7641797 34.3205536,26.815111 41.5226334,23.7517876 L42.479778,34.3222358" id="Path" fill="#FFC6BB" fill-rule="nonzero"></path>
                            <path d="M49.5680887,31.0581607 C42.33633,30.2378047 42.2027749,7.10673954 42.2027749,7.10673954 C36.074082,12.3386777 28.083038,11.9272605 28.083038,11.9272605 C28.083038,11.9272605 28.1102437,0.838823124 39.9545982,0.0606002089 C51.7989527,-0.717622707 55.6918352,6.25664253 55.6918352,6.25664253 C55.6918352,6.25664253 68.6466753,7.0423007 70.6129024,17.0674972 C72.5791296,27.0926936 63.0398363,35.6828867 63.0398363,35.6828867 C63.0398363,35.6828867 55.3134292,31.7124628 49.5680887,31.0581607 Z" id="Path" fill="#0B2D72" fill-rule="nonzero"></path>
                            <path d="M17.851237,87.9675702 C17.851237,87.9675702 6.99370594,94.2701845 7.29791467,95.6927958 C7.6021234,97.1154071 16.5428922,92.5402495 16.5428922,92.5402495 C16.5428922,92.5402495 6.99865242,99.8614931 7.30286115,101.489813 C7.60706988,103.118133 17.86113,96.6593784 17.86113,96.6593784 C17.86113,96.6593784 10.555174,102.657147 10.8593827,103.879007 C11.1635915,105.100866 19.5157287,100.52323 22.7309429,100.11677 C25.9461572,99.7103096 53.5772135,92.4782891 56.8245799,88.8176672 C60.0719463,85.1570454 72.2056701,60.4100524 72.2056701,60.4100524" id="Path" stroke="#170C2C" stroke-width="0.663340417" stroke-linejoin="bevel"></path>
                            <path d="M61.0439303,42.5850185 C58.8180127,42.4836628 47.7428363,72.2742343 47.7428363,72.2742343 L20.0425292,84.5275275 L16.9732362,84.5275275" id="Path" stroke="#170C2C" stroke-width="0.663340417" stroke-linejoin="bevel"></path>
                        </g>
                        <g id="Group-6" transform="translate(36.591019, 57.270982) rotate(-83.000000) translate(-36.591019, -57.270982) translate(18.659557, 22.696692)" stroke="#170C2C" stroke-linejoin="bevel" stroke-width="0.663340417">
                            <path d="M35.8629236,53.9469739 C29.6888236,52.5232584 21.9025975,50.0662011 18.2667386,44.8535654 C11.726766,35.5305254 12.4127771,22.5218994 19.0785184,13.4055277 C19.7187954,12.5329279 21.6624936,11.0058783 21.628193,9.96105483 C21.5938925,8.91623138 20.2447373,8.73252615 19.444391,9.20327079 C18.6440447,9.67401542 18.1638369,10.5466152 17.4206582,11.1436572 C16.1972717,12.1081096 15.6141623,11.1436572 15.4655265,9.89216537 C15.3917412,8.18528302 15.6680497,6.48138357 16.2773064,4.88619807 C16.4816135,4.39785859 17.1193492,1.95174974 16.9593214,1.44702819 C16.6090974,0.827200025 15.2378528,2.4708722 14.5851456,2.75062486 C13.9567886,3.04480911 13.4857314,3.59738347 13.293158,4.26619295 C13.6247301,3.31322211 14.186435,0.26508059 12.7572452,0.00100433393 C12.1933113,-0.0497014447 11.2197607,1.83479533 10.7894219,2.20428151 C10.3590831,2.57376769 10.0952188,3.10184615 10.0574723,3.66915097 C10.1603739,2.09617501 9.51702694,-0.705715602 8.22503934,0.557257799 C7.26462378,1.51022864 6.13577542,5.23064536 5.59840004,6.45917403 C4.90095541,8.02066842 4.26067838,9.61660753 3.70043597,11.2240282 C2.5573564,14.4575332 1.67789104,17.7789902 1.0707267,21.1555918 C-0.166862842,27.9146402 -0.33279062,34.827649 0.579085406,41.638724 C2.07952204,51.3210884 7.7733529,59.8388742 16.1286706,64.9003978 C19.0124602,66.6505013 22.0800173,68.0752097 25.2754855,69.148581" id="Path"></path>
                            <path d="M10.0231717,2.93433009 C9.13456378,5.18637755 8.37115438,7.48623216 7.73646801,9.82327591" id="Path"></path>
                            <path d="M13.4532273,4.08248772 C12.3084576,6.17928428 11.534743,8.45968167 11.1665236,10.8221731" id="Path"></path>
                        </g>
                    </g>
                    <line x1="36.0063416" y1="122.453005" x2="37.3889523" y2="160.190342" id="Path" stroke="#FFFFFF" stroke-width="0.663340417"></line>
                    <g id="Group-11" transform="translate(60.224338, 74.706066) rotate(-9.000000) translate(-60.224338, -74.706066) translate(7.043988, 25.619827)">
                        <path d="M40.3056192,47.7786938 L22.6812988,67.8340436 C17.9549339,73.2122083 9.16503285,71.2294747 7.18643949,64.3493894 L0.605143296,41.4190759 C-0.23567438,38.4984765 0.439209069,35.3499858 2.40270763,33.0330137 C4.36620619,30.7160417 7.35728544,29.5386147 10.3695016,29.8969156 L34.5874844,32.7718793 C41.8241896,33.6318899 45.1234941,42.2914787 40.3056192,47.7786938 Z" id="Path" fill="#2674EA" fill-rule="nonzero"></path>
                        <path d="M21.4026328,34.1250949 L26.7695673,18.5457661 C26.7695673,18.5457661 21.8230839,13.3807452 24.3977285,9.43510547 C26.9723732,5.48946572 30.7094414,8.93942208 30.7094414,8.93942208 C30.7094414,8.93942208 34.8545945,3.73474653 41.3839526,5.49194413 C47.9133107,7.24914174 49.8523322,11.9953102 48.9149736,17.2991224 C47.2900538,26.528747 41.6510627,27.6787325 32.2453245,24.4518336 L28.3277096,34.5786452 C27.424152,36.3007263 26.1141583,37.1617668 24.3977285,37.1617668 C22.6812988,37.1617668 21.6829336,36.1495429 21.4026328,34.1250949 Z" id="Path" fill="#FFC6BB" fill-rule="nonzero"></path>
                        <path d="M27.8256416,7.5663791 C27.8256416,7.5663791 28.2263067,0.155912488 37.7186084,0.00472905513 C47.2109101,-0.146454378 48.0666517,3.38528975 51.855658,2.28487263 C55.6446643,1.18445551 56.9802148,12.6297849 46.5950729,12.2654576 C36.2099309,11.9011303 36.6600609,11.3236592 36.6600609,11.3236592 C36.6600609,11.3236592 35.7548545,15.9062521 33.1752634,15.1577702 C30.5956723,14.4092882 30.531368,9.49954431 30.531368,9.49954431" id="Path" fill="#0B2D72" fill-rule="nonzero"></path>
                        <g id="Group-5" transform="translate(38.048113, 62.089302) rotate(-8.000000) translate(-38.048113, -62.089302) translate(4.089641, 30.411703)" stroke="#170C2C" stroke-linejoin="bevel" stroke-width="0.663340417">
                            <g id="Group-4" transform="translate(-0.000000, -0.000000)">
                                <path d="M58.017304,45.4693052 C58.017304,45.4693052 68.2144796,53.6629516 67.9102709,55.0880413 C67.6060621,56.513131 58.3215127,51.7322648 58.3215127,51.7322648 C58.3215127,51.7322648 67.0817349,58.8750624 66.7750529,60.5009039 C66.4683709,62.1267454 55.7394484,55.2540952 55.7394484,55.2540952 C55.7394484,55.2540952 62.7436689,61.9458209 62.4394602,63.1701589 C62.1352515,64.3944969 53.0015698,59.2046918 49.4722539,57.5317604 C46.536516,56.1413685 20.0011057,48.7185098 15.890578,45.3007728 C10.7561282,41.0304605 0,17.8275212 0,17.8275212" id="Path"></path>
                                <path d="M11.1567934,0 C13.4791673,-0.101346867 26.2064692,28.7028147 26.2064692,28.7028147 L53.832579,41.9449963 L56.4937871,41.9449963" id="Path"></path>
                            </g>
                        </g>
                        <g id="Group-9-Copy" transform="translate(67.614191, 51.919435) rotate(-16.000000) translate(-67.614191, -51.919435) translate(34.558587, 26.692957)" stroke="#170C2C">
                            <path d="M7.74750711,4.53448866e-13 C7.74750711,4.53448866e-13 11.6285013,1.55101745 13.1780027,11.5963921 C14.7275042,21.6417668 21.6930199,31.759619 34.1035126,32.5423754 C38.5637597,32.8177897 42.9371188,32.0350333 45.7754579,28.2951968 C46.6059168,27.0977756 47.5360343,25.972784 48.5558716,24.9322431 C50.393391,23.5000787 52.6900794,22.7887489 55.0145411,22.9318654 C55.7687561,23.0415923 56.3423163,23.6663957 56.3878928,24.4279157 C56.4334692,25.1894356 55.9385318,25.8783131 55.2027983,26.0773868 C54.308269,26.2523604 53.456959,26.6020838 52.6975296,27.1065666" id="Path" stroke-width="0.663340417" stroke-linejoin="bevel"></path>
                            <path d="M56.5205986,23.65664 L63.9350353,23.65664 C64.4277138,23.6249028 64.9214742,23.6990393 65.3831675,23.8740723 C65.8576113,24.077839 66.1490616,24.5621198 66.1072335,25.077198 C66.0058643,25.5700447 65.5134993,25.87445 65.0645784,26.1063778 L60.7201819,28.3821698" id="Path" stroke-width="0.955210276"></path>
                            <path d="M58.026656,29.2084127 C58.2075756,30.2150167 58.2075756,31.2458617 58.026656,32.2524656 C57.9505336,32.7210776 58.1602975,33.190086 58.5601886,33.4453842 C58.9600798,33.7006824 59.4733881,33.6932973 59.8657839,33.4266003 C60.3567128,33.0945766 60.7794783,32.6713974 61.1111776,32.1799882 C61.8386325,30.9443885 62.232855,29.5407823 62.255202,28.1067554" id="Path" stroke-width="0.955210276"></path>
                            <path d="M-4.54626791e-13,32.5858619 C-4.54626791e-13,32.5858619 10.1369252,51.1980713 27.1235155,50.4298103 C42.0392769,49.7485223 55.1738357,41.341138 58.2293945,39.2537874" id="Path" stroke-width="0.663340417" stroke-linejoin="bevel"></path>
                            <path d="M61.7193931,30.8753941 C61.7193931,30.8753941 62.3131273,39.5726882 59.4168629,39.5726882 C57.3749966,39.5726882 59.4168629,36.6735901 57.9687307,35.2240411" id="Path" stroke-width="0.955210276"></path>
                        </g>
                    </g>
                    <g id="Group-Copy" transform="translate(110.786954, 63.880637) scale(-1, 1) rotate(50.000000) translate(-110.786954, -63.880637) translate(89.086390, 49.970824)">
                        <polygon id="Path" fill="#2674EA" fill-rule="nonzero" points="13.2860597 20.864719 34.986624 13.475131 34.986624 8.25895129"></polygon>
                        <polygon id="Path" stroke="#002256" stroke-width="0.737044878" fill="#FFFFFF" stroke-linecap="round" stroke-linejoin="round" points="4.54626791e-13 27.8196254 30.1150688 0 35.4294927 7.82426964 13.2860597 20.864719 38.0867046 12.1710861 43.4011285 20.864719"></polygon>
                        <line x1="35.4294927" y1="7.82426964" x2="34.8271913" y2="13.309952" id="Path" stroke="#002256" stroke-width="0.737044878" stroke-linecap="round" stroke-linejoin="round"></line>
                    </g>
                </g>
            </g>
        </g>
    </g>
</svg>