<?xml version="1.0" encoding="UTF-8"?>
<svg width="344px" height="192px" viewBox="0 0 344 192" version="1.1" xmlns="http://www.w3.org/2000/svg" xmlns:xlink="http://www.w3.org/1999/xlink">
    <title>Error servicio</title>
    <g id="Page-1" stroke="none" stroke-width="1" fill="none" fill-rule="evenodd">
        <g id="Artboard" transform="translate(-578.000000, -110.000000)">
            <g id="Error-servicio" transform="translate(578.000000, 110.000000)">
                <rect id="Rectangle" x="0" y="0" width="344" height="192"></rect>
                <g id="Group-2" transform="translate(6.000000, 16.000000)">
                    <rect id="Rectangle" stroke="#C4D4E3" stroke-width="0.5" fill="#FFFFFF" fill-rule="nonzero" stroke-linecap="round" stroke-linejoin="round" x="-1.65921331e-13" y="24.9445988" width="204.848607" height="119.032326"></rect>
                    <path d="M153.402694,134.5531 L181.29514,134.5531 C185.27763,134.5531 189.097008,132.968018 191.913054,130.146553 C194.7291,127.325088 196.311138,123.498361 196.311138,119.508208 L196.311138,39.2810889 C196.311138,33.281592 191.458575,30.270306 185.486722,30.270306 L185.486722,30.270306 C179.498748,30.270306 174.648488,33.2838995 174.648488,39.2810889 L174.648488,114.226343 L146.17567,114.226343" id="Path" stroke="#002256" stroke-width="0.533793125" stroke-linejoin="bevel"></path>
                    <path d="M85.41385,138.794283 L42.2704938,138.794283 C24.2305691,138.794283 10.5549566,122.487189 13.6640972,104.68022 L24.2582059,44.0437665 C24.2582059,44.0437665 11.0432068,41.3463003 11.289635,31.8670952 L59.3362211,30.6948858 L46.5933507,97.6561939 L77.4728746,97.1300841 L76.0426699,55.9066178 C75.4830246,39.8233511 90.2364725,27.5451499 105.915753,31.0456256 L152.83614,41.5239778 C152.83614,41.5239778 157.925918,27.8912748 165.178276,28.7427418 L161.481854,73.2636239 L111.431599,62.8406518 L115.17178,106.293162 C115.891181,114.646497 113.080328,122.919134 107.423361,129.09758 C101.766395,135.276025 93.782122,138.794283 85.41385,138.794283 Z" id="Path" fill="#C6D3E0" fill-rule="nonzero"></path>
                    <path d="M155.08163,138.794283 L119.225178,138.794283 C113.214173,138.794283 109.473992,132.257139 112.509435,127.058344 L130.436509,96.3686095 C133.430496,91.2228872 140.864797,91.2228872 143.870299,96.3686095 L161.797374,127.058344 C164.832816,132.257139 161.092635,138.794283 155.08163,138.794283 Z" id="Path" fill="#6B80A8" fill-rule="nonzero"></path>
                    <path d="M125.302972,115.647762 L19.1868521,116.296169 C19.1868521,116.296169 6.11464318,116.503844 6.62822715,118.679816 C7.23853993,121.278059 20.7598469,120.708107 20.7598469,120.708107 C20.7598469,120.708107 2.79592347,120.618115 3.2979921,123.527871 C3.67108898,125.724609 19.7303759,125.274647 19.7303759,125.274647 C19.7303759,125.274647 5.10359672,125.251572 5.55499787,127.755208 C6.07318797,130.634967 21.3402199,129.716582 21.3402199,129.716582 C21.3402199,129.716582 14.4932013,130.127317 14.7580541,132.531731 C14.9883608,134.735392 23.5097091,134.550792 23.5097091,134.550792 L125.673766,134.391575" id="Path" stroke="#002256" stroke-width="0.533793125" stroke-linejoin="bevel"></path>
                    <path d="M139.922842,108.967553 L153.066446,90.6898549 C153.066446,90.6898549 148.644558,84.4734531 151.970186,80.7099226 C155.295815,76.946392 158.704355,81.1714223 158.704355,81.1714223 C158.704355,81.1714223 163.879346,76.3256748 170.500664,79.1869734 C177.121982,82.0482719 176.806462,91.2113497 173.704231,96.0547897 C169.12343,103.208036 163.623706,104.823285 156.997782,99.2276005 L148.310613,111.856542" id="Path" fill="#C6D3E0" fill-rule="nonzero"></path>
                    <path d="M155.873885,79.2723508 C155.873885,79.2723508 157.442274,71.5168473 167.476737,72.8275066 C177.511201,74.138166 177.875085,77.996304 182.039031,77.4217368 C186.202976,76.8471696 185.850607,89.1276782 174.95019,87.1339993 C164.049773,85.1403203 164.614025,84.5957506 164.614025,84.5957506 C164.614025,84.5957506 162.95121,89.2892032 160.344138,88.1031488 C157.737067,86.9170944 158.427987,81.7206071 158.427987,81.7206071" id="Path" fill="#6B80A8" fill-rule="nonzero"></path>
                    <line x1="95.0291552" y1="96.4839845" x2="77.2287495" y2="96.4839845" id="Path" stroke="#FFFFFF" stroke-width="1.06758625"></line>
                    <path d="M176.550822,38.032732 C176.550822,38.032732 184.063427,38.5057693 183.969001,41.1570854 C183.874575,43.8084016 176.025722,44.2329814 176.025722,44.2329814" id="Path" stroke="#002256" stroke-width="0.533793125" stroke-linejoin="bevel"></path>
                    <path d="M195.730765,38.032732 C195.730765,38.032732 196.205196,45.938223 193.936675,45.984373 C191.668154,46.0305229 190.394558,38.032732 190.394558,38.032732 C190.394558,38.032732 191.24439,47.3088773 187.983247,47.4034847 C184.722104,47.4980922 184.252278,37.3220224 184.252278,37.3220224 C184.252278,37.3220224 183.826211,47.7357646 181.276715,47.6411571 C178.72722,47.5465497 178.165272,44.0114615 178.165272,44.0114615" id="Path" stroke="#002256" stroke-width="0.533793125" stroke-linejoin="bevel"></path>
                    <path d="M331.383926,144.0652 L297.819026,144.0652 C297.819026,130.054486 286.482911,118.696558 272.499106,118.696558 C258.5153,118.696558 247.179186,130.054486 247.179186,144.0652 L213.635014,144.0652 C213.635014,111.487932 239.991314,85.0786081 272.506015,85.0786081 C305.020717,85.0786081 331.383926,111.487932 331.383926,144.0652 Z" id="Path" fill="#6B80A8" fill-rule="nonzero"></path>
                    <path d="M264.751831,76.5405405 L263.385114,87.3629089 C263.281966,88.125776 263.385114,89.160172 264.120047,89.3024014 C264.56867,89.3238693 265.003502,89.1437576 265.306253,88.8110633 L269.470869,85.4104864 L268.516747,93.5434251 C268.413598,94.4097318 268.516747,95.5217075 269.264573,95.8449562 C269.787541,95.9612207 270.335152,95.8634894 270.786011,95.5734273 C275.920502,93.076369 280.720404,89.9398049 285.072064,86.2380032" id="Path" stroke="#FFFFFF" stroke-width="0.5" stroke-linecap="round" stroke-linejoin="round"></path>
                    <path d="M290.697776,134.918919 L289.33106,145.741287 C289.227912,146.504154 289.33106,147.53855 290.065993,147.68078 C290.514616,147.702248 290.949448,147.522136 291.252199,147.189442 L295.416815,143.788865 L294.462693,151.921803 C294.359544,152.78811 294.462693,153.900086 295.210519,154.223335 C295.733487,154.339599 296.281098,154.241868 296.731957,153.951806 C301.866448,151.454747 306.666349,148.318183 311.01801,144.616382" id="Path-Copy-2" stroke="#FFFFFF" stroke-width="0.5" stroke-linecap="round" stroke-linejoin="round" transform="translate(300.157653, 144.595036) rotate(-210.000000) translate(-300.157653, -144.595036) "></path>
                    <ellipse id="Oval" fill="#C6D3E0" fill-rule="nonzero" cx="77.7153963" cy="5.07649739" rx="5.06674765" ry="5.07649739"></ellipse>
                    <path d="M267.310296,41.0446083 L309.843339,50.401516 C306.949298,61.8163943 295.538514,68.8723437 284.057234,66.3465597 C272.575953,63.8207757 265.165152,52.6242377 267.310296,41.0446083 L267.310296,41.0446083 Z M266.771378,40.2162162 C265.048832,48.0743011 267.641321,56.2562067 273.572279,61.6798881 C279.503237,67.1035696 287.871611,68.9450406 295.525115,66.510637 C303.178619,64.0762333 308.954504,57.7357988 310.677049,49.8777137 L266.771378,40.2162162 L266.771378,40.2162162 Z" id="Shape" fill="#170C2C" fill-rule="nonzero"></path>
                    <path d="M175.320224,42.7841584 C168.626852,46.9174256 162.578979,52.0194754 157.372404,57.9251301 C151.32533,64.8038637 146.361313,73.0661019 145.432978,82.1817168 C144.504642,91.2973317 148.359813,101.330973 156.392494,105.765946 C165.198788,110.575888 176.558005,107.537349 184.448857,101.318043 C192.339709,95.0987371 197.638957,86.280511 203.273438,77.9536231 C211.847648,65.3210617 221.775681,53.283278 234.45004,44.8012306 C247.124398,36.3191833 262.918996,31.6256114 277.849725,34.6512197 C286.335601,36.3708233 294.338349,40.9389023 300.153647,47.3252285" id="Path" stroke="#E7ECF3" stroke-width="0.5"></path>
                    <path d="M211.907934,71.4749501 L320.775716,71.4439229 C323.690853,71.440087 326.054713,73.8025997 326.055544,76.7177377 C326.055544,76.7187396 326.055544,76.7197416 326.052539,76.7207427 L326.051642,79.87168 C326.047807,82.7856433 323.68578,85.1476712 320.771817,85.1515084 L211.904035,85.1825357 C208.988898,85.1863715 206.625038,82.8238588 206.624207,79.9087209 C206.624207,79.9077189 206.624207,79.906717 206.627212,79.9057159 L206.628108,76.7547786 C206.631944,73.8408153 208.993971,71.4787873 211.907934,71.4749501 Z" id="Rectangle" fill="#C6D3E0" fill-rule="nonzero" transform="translate(266.339875, 78.313229) rotate(-8.615648) translate(-266.339875, -78.313229) "></path>
                    <path d="M212.756757,134.169144 C215.94089,131.686453 219.665306,129.993994 223.626019,129.229903 C225.391913,128.765111 227.260533,128.887618 228.951054,129.579011 C230.663072,130.361838 231.504822,132.318421 230.89798,134.104494" id="Path" stroke="#FFFFFF" stroke-width="0.5" stroke-linecap="round" stroke-linejoin="round"></path>
                    <path d="M226.617322,137.78953 C229.677664,135.738459 233.175369,134.436403 236.829013,133.988124 C234.662096,135.339939 233.312204,137.688298 233.231712,140.24622" id="Path" stroke="#FFFFFF" stroke-width="0.5" stroke-linecap="round" stroke-linejoin="round"></path>
                    <path d="M236.480887,138.151568 C237.589275,137.25136 239.199145,137.346655 240.194229,138.371378 C241.127318,139.429363 241.496682,140.872507 241.187032,142.250363 C240.865603,143.585886 240.297037,144.849034 239.510871,145.974188 C237.152236,149.791099 234.289717,153.270615 231.001129,156.318148" id="Path" stroke="#FFFFFF" stroke-width="0.5" stroke-linecap="round" stroke-linejoin="round"></path>
                    <path d="M222.620322,149.814384 C224.81782,147.119369 227.864333,145.254381 231.259,144.526034 C231.853007,144.318976 232.510017,144.410351 233.025416,144.771703 C233.40775,145.304851 233.495089,145.995804 233.2575,146.607756 C232.498862,149.815887 230.681409,152.672787 228.10008,154.714835" id="Path" stroke="#FFFFFF" stroke-width="0.5" stroke-linecap="round" stroke-linejoin="round"></path>
                    <path d="M214.355557,137.944689 C216.332249,135.744783 218.997052,134.285492 221.911177,133.807105 C222.500019,133.664124 223.119043,133.713967 223.677593,133.949335 C224.434271,134.441181 224.79667,135.360118 224.580141,136.237936 C224.354627,137.087047 223.940263,137.873909 223.368148,138.539467 C220.472753,142.20216 217.355211,145.682592 214.033218,148.961007" id="Path" stroke="#FFFFFF" stroke-width="0.5" stroke-linecap="round" stroke-linejoin="round"></path>
                    <ellipse id="Oval" fill="#FFFFFF" fill-rule="nonzero" cx="227.261999" cy="125.040599" rx="1.2893549" ry="1.29299502"></ellipse>
                    <ellipse id="Oval-Copy-3" fill="#FFFFFF" fill-rule="nonzero" cx="302.262328" cy="133.617319" rx="1.2893549" ry="1.29299502"></ellipse>
                    <ellipse id="Oval-Copy-4" fill="#FFFFFF" fill-rule="nonzero" cx="287.992058" cy="102.482184" rx="1.2893549" ry="1.29299502"></ellipse>
                    <ellipse id="Oval" fill="#FFFFFF" fill-rule="nonzero" cx="247.247" cy="134.738062" rx="1.93403234" ry="3.23248756"></ellipse>
                    <ellipse id="Oval-Copy" fill="#FFFFFF" fill-rule="nonzero" transform="translate(249.717816, 109.610866) rotate(-60.000000) translate(-249.717816, -109.610866) " cx="249.717816" cy="109.610866" rx="1.93403234" ry="3.23248756"></ellipse>
                    <ellipse id="Oval-Copy-2" fill="#FFFFFF" fill-rule="nonzero" transform="translate(297.717816, 116.097352) rotate(-60.000000) translate(-297.717816, -116.097352) " cx="297.717816" cy="116.097352" rx="1.93403234" ry="3.23248756"></ellipse>
                    <ellipse id="Oval-Copy-2" fill="#FFFFFF" fill-rule="nonzero" transform="translate(321.069167, 136.854109) rotate(-60.000000) translate(-321.069167, -136.854109) " cx="321.069167" cy="136.854109" rx="1.93403234" ry="3.23248756"></ellipse>
                </g>
            </g>
        </g>
    </g>
</svg>