<svg xmlns="http://www.w3.org/2000/svg" width="203" height="171" viewBox="0 0 203 171">
    <g fill="none" fill-rule="evenodd">
        <path d="M-58-13h320v198H-58z"/>
        <g transform="translate(1 -1)">
            <path stroke="#002256" stroke-linecap="round" stroke-linejoin="round" stroke-width=".5" d="M75.095 72.315s15.45 2 19.11-.64M73.975 62.925c1.82-.37 16.31.31 16.31.31s5.86-8.12 9.95-12"/>
            <path fill="#FFF" fill-rule="nonzero" stroke="#002256" stroke-linecap="round" stroke-linejoin="round" stroke-width=".5" d="M94.235 51.265a11.19 11.19 0 0 1 2.15-1.69c3.68-2 6.64-.73 7 0 .36.73-.64 6.94-1.55 7.11-.91.17-.63-5.42-.63-5.42s-.41 6.72-1.29 6.72c-.88 0-1.09-5.76-1.09-5.76s-.52 5.76-1.24 5.71c-.72-.05-1-4.26-1-4.26"/>
            <g fill="#FFF" fill-rule="nonzero" stroke="#002256" stroke-linecap="round" stroke-linejoin="round" stroke-width=".5">
                <path d="M95.745 19.515h52a9 9 0 0 1 9 9v123a9 9 0 0 1-9 9h-52a9 9 0 0 1-9-9v-123a9 9 0 0 1 9-9z"/>
                <path d="M104.495 24.39v1.25a3.25 3.25 0 0 0 3.25 3.25h27.75a3.25 3.25 0 0 0 3.25-3.25v-1.25a1.5 1.5 0 0 1 1.5-1.5h6.5a6 6 0 0 1 6 6v122.25a6 6 0 0 1-6 6h-50a6 6 0 0 1-6-6V28.89a6 6 0 0 1 6-6h6.25a1.5 1.5 0 0 1 1.5 1.5z"/>
            </g>
            <ellipse cx="170.716" cy="2.76" fill="#FFF" fill-rule="nonzero" rx="1.35" ry="2.76" transform="rotate(-71.24 170.716 2.76)"/>
            <path stroke="#E7ECF3" stroke-width=".5" d="M23.285 35.805a61.91 61.91 0 0 0-13.92 11.71c-4.69 5.32-8.54 11.71-9.26 18.76-.72 7.05 2.27 14.81 8.5 18.24 6.83 3.72 15.64 1.37 21.76-3.44 6.12-4.81 10.23-11.63 14.6-18.07 6.65-9.77 14.35-19.08 24.18-25.64 9.83-6.56 22.08-10.19 33.66-7.85 11.58 2.34 22 11.5 24.06 23.14"/>
            <circle cx="73.895" cy="56.665" r="1.65" fill="#6B80A8" fill-rule="nonzero"/>
            <path stroke="#002256" stroke-linecap="round" stroke-linejoin="round" stroke-width=".5" d="M98.745 45.675c6.69.005 12.11 5.43 12.11 12.12v58.14c0 6.694 5.427 12.12 12.12 12.12h5.45"/>
            <path stroke="#FFF" stroke-width="2" d="M169.535 133.335c1.16-3.65 1.92-7.73.33-9.57-3.2-3.71-16 8.3-16 8.3s3.95-5 3.72-7.73c-.16-2.09-8 .48-11.75 1.84"/>
            <path fill="#C6D3E0" fill-rule="nonzero" d="M32.585 171.105h22s-2.59-3.92-4.81-4.37c0 0 6.37-22.36 7.41-31.27.81-6.95 1.06-19.53 1.06-19.53l2.5 18.8-4.5 36.37h23.34s-4.27-3.3-6.33-3.74c0 0 3.56-26.4 3.56-34.79 0-6.43-.34-31-9.17-40.55-6.27-6.75-16.77-7-21.5 1.79-5.43 10-5.89 39.32-5.89 39.32l-7.67 37.97z"/>
            <path stroke="#FFF" stroke-width="3" d="M58.085 107.025l1.11 30.2"/>
            <path stroke="#002256" stroke-linecap="round" stroke-linejoin="round" stroke-width=".5" d="M187.245 171.105H26.665"/>
            <path fill="#6B80A8" fill-rule="nonzero" d="M73.585 69.825l-9.84 11.14a5 5 0 0 1-8.63-1.93l-3.64-12.75a5 5 0 0 1 3.44-6.24 5 5 0 0 1 2-.16l13.48 1.63a5 5 0 0 1 3.19 8.31z"/>
            <path fill="#C6D3E0" fill-rule="nonzero" d="M64.745 64.515c-2 0-1.69-2.28-1.69-2.28l3-8.66s-2.77-2.87-1.31-5.06c1.46-2.19 3.51-.28 3.51-.28a6 6 0 0 1 6-1.92c3.64 1 4.72 3.62 4.19 6.57-.9 5.13-4 5.77-9.28 4l-2.25 5.63a2.06 2.06 0 0 1-2.17 2z"/>
            <path fill="#6B80A8" fill-rule="nonzero" d="M66.635 47.515s.22-4.12 5.51-4.21c5.29-.09 5.76 1.88 7.87 1.27 2.11-.61 2.86 5.75-2.93 5.55-5.79-.2-5.53-.61-5.53-.61s-.51 2.55-1.94 2.14c-1.43-.41-1.48-3.14-1.48-3.14"/>
            <path stroke="#002256" stroke-linecap="round" stroke-linejoin="round" stroke-width=".5" d="M57.295 65.125c1.3-.06 8.39 16 8.39 16l15.38 7.36h1.48"/>
            <path fill="#FFF" fill-rule="nonzero" d="M146.215 76.755a10.29 10.29 0 0 1-2.67-1.24c-2.34-1.5-3.72-3.55-3.07-4.56.65-1.01 2.89-.64 5.15.72l.59 5.08z"/>
            <ellipse cx="96.415" cy="73.018" fill="#FFF" fill-rule="nonzero" rx="2.76" ry="1.8" transform="rotate(-65.72 96.415 73.018)"/>
            <circle cx="28.745" cy="48.515" r="15" fill="#6B80A8" fill-rule="nonzero"/>
            <path stroke="#FFF" stroke-linecap="round" stroke-linejoin="round" stroke-width=".5" d="M11.995 49.075a19.84 19.84 0 0 1 8.43-3.82 6.54 6.54 0 0 1 4.13.27 2.84 2.84 0 0 1 1.51 3.5M22.745 51.875a18.24 18.24 0 0 1 7.92-2.94 5.92 5.92 0 0 0-2.79 4.84M30.395 52.155a2.14 2.14 0 0 1 2.88.17 3.4 3.4 0 0 1 .77 3 8.49 8.49 0 0 1-1.3 2.88 38.52 38.52 0 0 1-6.6 8M19.645 61.175a11.86 11.86 0 0 1 6.7-4.09c.46-.16.97-.09 1.37.19a1.5 1.5 0 0 1 .18 1.42 11.31 11.31 0 0 1-4 6.27"/>
            <path stroke="#FFF" stroke-linecap="round" stroke-linejoin="round" stroke-width=".5" d="M13.235 51.995a10.08 10.08 0 0 1 5.86-3.2 2.2 2.2 0 0 1 1.37.11 1.64 1.64 0 0 1 .7 1.77 4.5 4.5 0 0 1-.94 1.78 88.06 88.06 0 0 1-7.24 8.06"/>
            <circle cx="23.245" cy="42.015" r="1" fill="#FFF" fill-rule="nonzero"/>
            <path stroke="#FFF" stroke-linecap="round" stroke-linejoin="round" stroke-width=".5" d="M27.155 28.585l-1.06 8.37c-.08.59 0 1.39.57 1.5a1.17 1.17 0 0 0 .92-.38l3.23-2.63-.74 6.29c-.08.67 0 1.53.58 1.78.406.09.83.014 1.18-.21a52.63 52.63 0 0 0 11.08-7.22"/>
            <ellipse cx="38.745" cy="49.515" fill="#FFF" fill-rule="nonzero" rx="1.5" ry="2.5"/>
            <path fill="#FFF" fill-rule="nonzero" stroke="#002256" stroke-linecap="round" stroke-linejoin="round" stroke-width=".5" d="M121.155 117.755v-78.74h52.09v79.81a8.62 8.62 0 0 1-8.62 8.62h-33.78"/>
            <path stroke="#002256" stroke-linecap="round" stroke-linejoin="round" stroke-width=".5" d="M129.635 51.125h13.33M129.635 60.815h36.34M129.635 66.875h36.34M129.635 72.935h36.34M129.635 78.995h36.34M129.635 85.045h36.34M129.635 91.105h36.34M129.635 97.165h36.34M129.635 104.425h20.59"/>
            <circle cx="26.095" cy="131.635" r="3.96" fill="#6B80A8" fill-rule="nonzero"/>
            <g transform="translate(164.745 124.132)">
                <path stroke="#002256" stroke-linecap="round" stroke-linejoin="round" stroke-width=".5" d="M9.44 27.083l19.9-16.75M3 19.433l19.9-16.75"/>
                <ellipse cx="26.115" cy="6.5" fill="#C6D3E0" fill-rule="nonzero" rx="2.5" ry="5.5" transform="rotate(-40.09 26.115 6.5)"/>
                <ellipse cx="6.221" cy="23.242" fill="#6B80A8" fill-rule="nonzero" rx="2.5" ry="5.5" transform="rotate(-40.09 6.22 23.242)"/>
            </g>
            <circle cx="176.745" cy="25.515" r="6" stroke="#002256" stroke-linecap="round" stroke-linejoin="round" stroke-width=".5"/>
            <path stroke="#002256" stroke-linecap="round" stroke-linejoin="round" stroke-width="2" d="M182.245 29.015l6 4"/>
            <circle cx="198.745" cy="78.515" r="3" stroke="#002256" stroke-linecap="round" stroke-linejoin="round" stroke-width=".5"/>
            <path fill="#FFF" d="M84.745 89.515h4v13h-4z"/>
            <path stroke="#002256" stroke-linecap="round" stroke-linejoin="round" stroke-width=".5" d="M83.395 90.395s5.68 4.55 5.51 5.35c-.17.8-5.34-1.87-5.34-1.87s4.88 4 4.71 4.87c-.17.87-6.15-2.91-6.15-2.91s3.91 3.72 3.74 4.4c-.17.68-5.26-2.21-7.23-3.14-.375-.177-1.445-.531-2.9-.995-4.868-1.553-14.036-4.332-15.8-5.795-2.86-2.38-8.85-15.27-8.85-15.27"/>
            <path stroke="#FFF" stroke-width=".75" d="M69.155 94.115s-6.04-2.015-9.18-3.72c-1.183-.986-1.977-2.487-2.9-3.72"/>
        </g>
    </g>
</svg>
