<svg width="160" height="136" viewBox="0 0 160 136" fill="none" xmlns="http://www.w3.org/2000/svg">
<g opacity="0.265253">
<rect x="2.86572" y="54.3158" width="130" height="86" rx="8.5" transform="rotate(-23 2.86572 54.3158)" stroke="#9AA2BD" stroke-width="3"/>
<path d="M45.5747 60.096C45.1145 60.4417 44.7559 60.6692 44.3702 60.8329C43.406 61.2422 42.8615 60.4955 42.5639 59.7944C42.104 58.7109 42.2462 57.9736 43.0176 57.6462C43.4032 57.4825 43.6874 57.4371 43.6874 57.4371L44.5027 57.3919L44.124 56.4996L44.0326 56.4632C43.7214 56.4448 43.0617 56.4992 42.3546 56.7993C40.9405 57.3996 40.4734 58.8013 41.1227 60.3309C41.745 61.7968 43.0507 62.3708 44.3363 61.8251C44.9148 61.5796 45.3749 61.2338 46.011 60.5877L46.1125 60.4694L45.6221 59.8502L45.5747 60.096Z" fill="#9AA2BD"/>
<path fill-rule="evenodd" clip-rule="evenodd" d="M28.2569 64.5135C28.7915 63.9857 28.8592 63.4304 28.5346 62.6656C28.237 61.9645 27.6721 61.5274 27.0124 61.5817C26.5456 61.5542 26.1599 61.7179 24.9386 62.2364L22.4317 63.3005L22.7293 64.0015C22.7293 64.0015 23.3349 63.8197 23.5547 63.8016L26.0437 69.6651L28.0363 68.8193C29.0005 68.41 29.4234 68.1553 29.7279 67.8004C30.2355 67.2088 30.3777 66.4715 30.053 65.7067C29.7385 64.7872 29.1094 64.3773 28.2569 64.5135ZM24.9689 63.2013L25.226 63.0922L25.3546 63.0376C25.8688 62.8193 26.2545 62.6556 26.5928 62.7377C26.8397 62.7833 27.0122 63.0109 27.1204 63.2659C27.3909 63.9032 27.3334 64.3037 26.5891 64.6949L26.0376 65.0042L25.9699 65.5595L24.9689 63.2013ZM27.3362 68.0634C27.9147 67.8179 28.3646 67.6269 28.5778 67.2355C28.7538 66.9352 28.7471 66.5619 28.5848 66.1795C28.4224 65.7971 28.1857 65.5967 27.9117 65.4874C27.5734 65.4053 27.1877 65.5691 26.6735 65.7873L26.2235 65.9783L26.1592 66.0056L27.0791 68.1726L27.3362 68.0634Z" fill="#9AA2BD"/>
<path fill-rule="evenodd" clip-rule="evenodd" d="M67.6602 47.7878C68.1948 47.26 68.2625 46.7047 67.9379 45.9399C67.6403 45.2388 67.0754 44.8017 66.4157 44.856C65.9489 44.8285 65.5632 44.9922 64.3419 45.5107L61.835 46.5748L62.1326 47.2758C62.1326 47.2758 62.7382 47.094 62.9581 47.0759L65.447 52.9394L67.4396 52.0936C68.4038 51.6843 68.8267 51.4296 69.1313 51.0746C69.6388 50.4831 69.781 49.7458 69.4563 48.981C69.1419 48.0614 68.5127 47.6516 67.6602 47.7878ZM64.3722 46.4756L64.6293 46.3665L64.7579 46.3119C65.2721 46.0936 65.6578 45.9299 65.9961 46.012C66.243 46.0576 66.4155 46.2852 66.5237 46.5402C66.7943 47.1775 66.7367 47.578 65.9924 47.9692L65.4409 48.2785L65.3732 48.8338L64.3722 46.4756ZM66.7395 51.3377C67.318 51.0921 67.768 50.9012 67.9812 50.5098C68.1571 50.2095 68.2147 49.8089 67.9881 49.4538C67.8258 49.0714 67.589 48.871 67.315 48.7617C66.9767 48.6796 66.591 48.8433 66.0768 49.0616L65.6268 49.2526L65.5626 49.2799L66.4824 51.4469L66.7395 51.3377Z" fill="#9AA2BD"/>
<path d="M38.075 58.6912C37.6893 58.8549 37.2292 59.2006 36.6946 59.7284C36.6405 59.6009 36.5323 59.346 36.5323 59.346L34.6478 60.4468L34.9454 61.1478C34.9454 61.1478 35.5239 60.9023 35.7168 60.8204C35.825 61.0754 37.3941 64.7719 37.3941 64.7719L38.7439 64.1989C38.7439 64.1989 37.2831 60.7573 37.1748 60.5024C37.3406 60.3568 37.6722 60.0656 38.1222 59.8746C38.315 59.7928 38.5349 59.7746 38.6262 59.8111C38.8089 59.884 38.9171 60.1389 39.0524 60.4576L40.3509 63.5168L41.7008 62.9438L40.3752 59.8209C40.0776 59.1198 39.9051 58.8921 39.577 58.6553C39.1203 58.4731 38.6535 58.4456 38.075 58.6912Z" fill="#9AA2BD"/>
<path fill-rule="evenodd" clip-rule="evenodd" d="M45.4937 58.4755C44.8445 56.9459 45.4029 55.5807 46.8813 54.9531C48.3597 54.3255 49.6654 54.8996 50.3147 56.4292C50.964 57.9588 50.4699 59.2968 48.9914 59.9243C47.4487 60.5792 46.143 60.0052 45.4937 58.4755ZM46.9079 57.8753C47.5301 59.3412 48.1898 59.2868 48.6397 59.0958C49.0897 58.9048 49.5228 58.4953 48.9378 56.9384C48.3426 55.5363 47.6829 55.5906 47.233 55.7816C46.7187 55.9999 46.2857 56.4094 46.9079 57.8753Z" fill="#9AA2BD"/>
<path fill-rule="evenodd" clip-rule="evenodd" d="M80.3975 43.6598C79.7482 42.1302 80.3066 40.7649 81.785 40.1374C83.3277 39.4825 84.6334 40.0565 85.2827 41.5862C85.932 43.1158 85.3736 44.481 83.8952 45.1086C82.3525 45.7634 81.0468 45.1894 80.3975 43.6598ZM81.8116 43.0595C82.4339 44.5254 83.0935 44.4711 83.5435 44.2801C84.0577 44.0618 84.4908 43.6523 83.8415 42.1227C83.2464 40.7205 82.5867 40.7749 82.1367 40.9659C81.6225 41.1842 81.1894 41.5937 81.8116 43.0595Z" fill="#9AA2BD"/>
<path d="M89.1459 41.7515L88.2359 42.2883C88.043 42.3701 87.9517 42.3337 87.8604 42.2972C87.8333 42.2335 87.769 42.2608 87.6067 41.8784C87.5796 41.8146 86.6057 39.5202 86.4975 39.2653C86.7546 39.1561 87.8474 38.6923 87.8474 38.6923L87.4957 37.8638C87.4957 37.8638 86.4029 38.3276 86.1458 38.4367C86.0376 38.1818 85.6048 37.1621 85.6048 37.1621L85.4119 37.2439L84.309 37.8625L86.2298 42.3876C86.4462 42.8975 86.6458 43.1889 86.9468 43.3619C87.2479 43.535 87.6234 43.5261 88.0733 43.3351C88.5233 43.1441 88.9191 42.8256 89.3522 42.4161L89.4537 42.2978L89.1459 41.7515Z" fill="#9AA2BD"/>
<path fill-rule="evenodd" clip-rule="evenodd" d="M69.92 48.1073C69.2707 46.5776 69.8291 45.2124 71.3075 44.5848C72.7859 43.9573 74.0916 44.5313 74.7409 46.0609C75.3902 47.5905 74.8961 48.9285 73.4177 49.556C71.8749 50.2109 70.5692 49.6369 69.92 48.1073ZM71.3341 47.507C71.9563 48.9729 72.616 48.9185 73.066 48.7275C73.5802 48.5092 74.0133 48.0997 73.364 46.5701C72.7688 45.168 72.1091 45.2224 71.6592 45.4134C71.1449 45.6316 70.7119 46.0411 71.3341 47.507Z" fill="#9AA2BD"/>
<path fill-rule="evenodd" clip-rule="evenodd" d="M77.561 42.339C77.1841 42.3064 76.8042 42.402 76.5039 42.5295C75.1541 43.1025 74.6498 44.5952 75.272 46.0611C75.8672 47.4632 77.0173 48.0281 78.1743 47.537C78.4957 47.4005 78.7901 47.2004 79.3619 46.5816L79.5242 46.964C79.8759 47.7925 79.6627 48.1839 78.6342 48.6204C78.1843 48.8114 77.5144 49.0206 76.9461 49.1114L77.2978 49.9399C78.4074 49.6945 78.8201 49.5946 79.3344 49.3763C79.9772 49.1034 80.5016 48.7304 80.8061 48.3755C81.2493 47.8113 81.2528 47.2833 80.9011 46.4547L78.8451 41.611L77.4952 42.1839L77.561 42.339ZM78.5399 46.2535C78.797 46.1444 78.9255 46.0898 79.1556 45.917L77.9382 43.0489C77.654 43.0943 77.5255 43.1489 77.3969 43.2035C76.5613 43.5582 76.2635 44.2863 76.6963 45.3061C77.1021 46.2621 77.7042 46.6082 78.5399 46.2535Z" fill="#9AA2BD"/>
<path fill-rule="evenodd" clip-rule="evenodd" d="M32.6552 61.2926L33.9407 60.7469L35.5369 64.5072L36.0511 64.2889L36.3758 65.0537L34.5928 66.0362L34.4035 65.59C33.9873 66.218 33.6557 66.5092 33.3343 66.6456C32.113 67.164 31.0272 66.5719 30.432 65.1697C29.7827 63.6401 30.314 62.2111 31.5996 61.6654C31.9853 61.5017 32.3338 61.429 32.7363 61.4838L32.6552 61.2926ZM33.6356 65.3895C33.8927 65.2803 34.0212 65.2258 34.2513 65.0529L33.0069 62.1211C32.7227 62.1665 32.6584 62.1938 32.4656 62.2757C31.5657 62.6577 31.2949 63.4496 31.7278 64.4693C32.1336 65.4253 32.7999 65.7442 33.6356 65.3895Z" fill="#9AA2BD"/>
<path fill-rule="evenodd" clip-rule="evenodd" d="M91.2138 36.436L92.4993 35.8903L94.0955 39.6506L94.6097 39.4323L94.9344 40.1971L93.1514 41.1795L92.962 40.7334C92.5459 41.3614 92.2143 41.6526 91.8929 41.789C90.6716 42.3074 89.5858 41.7153 88.9906 40.3131C88.3413 38.7835 88.8726 37.3545 90.1582 36.8088C90.5439 36.6451 90.8924 36.5724 91.2949 36.6272L91.2138 36.436ZM92.1299 40.5601C92.387 40.451 92.5156 40.3964 92.7456 40.2235L91.5012 37.2918C91.217 37.3372 91.1527 37.3645 90.9599 37.4463C90.06 37.8283 89.7892 38.6202 90.2221 39.6399C90.6279 40.596 91.2942 40.9148 92.1299 40.5601Z" fill="#9AA2BD"/>
<path d="M91.3425 34.9522L90.5883 34.0689L90.4868 34.1872L88.7172 35.9161L89.1536 36.4079L91.3425 34.9522Z" fill="#9AA2BD"/>
<path fill-rule="evenodd" clip-rule="evenodd" d="M54.7305 49.1391L54.7948 49.1119C54.7948 49.1119 57.3277 55.2576 57.3919 55.2303L57.9705 54.9847L58.2139 55.5583L56.5223 56.5773L56.36 56.1949C55.954 56.6681 55.1352 57.2413 54.4113 57.3229C53.3761 57.3862 52.4831 56.7122 52.0232 55.6288C51.5092 54.4178 51.736 53.3437 52.5007 52.6431C53.0623 52.179 53.8878 51.9791 54.4831 51.952L53.8339 50.4224L53.1911 50.6952L52.9476 50.1216L54.602 49.1937L54.7305 49.1391ZM54.2355 56.194C54.8376 56.5402 55.5177 56.1763 56.015 55.7396C56.0062 55.7189 55.97 55.6287 55.9151 55.4922C55.6315 54.7876 54.8515 52.8487 54.7976 52.8715C54.1752 52.8349 53.441 53.0713 53.2447 53.6811C53.1229 54.1089 53.1296 54.4822 53.346 54.992L53.4001 55.1195C53.5895 55.5657 53.8432 55.9845 54.2355 56.194Z" fill="#9AA2BD"/>
<path fill-rule="evenodd" clip-rule="evenodd" d="M58.12 50.333C58.323 50.0964 58.5801 49.9873 58.9015 49.8508C58.9027 49.8504 58.9044 49.8496 58.9067 49.8486C59.0346 49.7926 60.9497 48.9538 61.9696 51.1811L62.1049 51.4998L62.132 51.5635L61.7463 51.7272L59.148 52.7549C59.3104 53.1373 59.5911 53.6199 59.9835 53.8294C60.7101 54.2174 61.3644 53.6688 61.9032 53.217C61.9463 53.1809 61.9887 53.1454 62.0302 53.111L62.4261 52.7926L62.9165 53.4118L62.8522 53.4391C62.206 54.2399 61.0929 55.0133 60.149 55.113C59.0496 55.2036 58.0923 54.5569 57.6053 53.4097C57.0643 52.1351 57.2911 51.0609 58.12 50.333ZM59.216 50.7704C58.3804 51.1251 58.7219 52.1084 58.749 52.1721L60.5488 51.4081C60.5217 51.3444 60.1159 50.3884 59.216 50.7704Z" fill="#9AA2BD"/>
<path d="M103.061 23.1955C98.2151 25.355 95.6551 30.5471 97.5056 35.4023C99.3599 40.259 104.724 42.7317 109.486 40.9219C111.91 40.0022 113.711 38.1509 114.654 35.9111C115.56 33.7542 114.375 31.139 113.656 32.8573C112.866 34.747 111.314 36.3354 109.225 37.1324C105.242 38.6534 100.81 36.7207 99.3252 32.816C97.9474 29.1927 100.214 24.9006 103.242 23.4137L103.214 23.1272C103.165 23.1514 103.114 23.1729 103.061 23.1955Z" fill="#9AA2BD"/>
<path d="M103.851 23.155C107.891 21.7289 112.584 23.7794 102.585 32.0668C105.752 31.415 108.501 31.8992 108.501 31.8992C116.144 22.6404 108.76 20.7541 103.218 23.1257L103.245 23.4122C103.444 23.3117 103.646 23.226 103.851 23.155Z" fill="#9AA2BD"/>
<path d="M99.8165 26.9936C100.605 25.4145 101.857 24.0965 103.28 23.3959C103.48 23.2979 103.683 23.2119 103.889 23.1408C105.874 22.4398 108.018 22.5776 108.509 23.884L108.981 22.3071C107.317 21.9789 105.175 22.2886 103.253 23.1107C103.203 23.1322 103.152 23.1537 103.099 23.1763C101.301 23.9782 99.8182 25.1974 98.7617 26.6645L99.8165 26.9936Z" fill="#9AA2BD"/>
<path d="M113.712 34.651C113.69 34.606 113.049 33.5422 113.049 33.5422C111.511 31.0215 110.959 28.1812 114.906 26.2529C107.832 25.8707 105.103 30.2698 102.524 32.1237C105.26 31.3498 112.003 32.0169 113.712 34.651Z" fill="#9AA2BD"/>
<path d="M113.136 27.9287C111.086 30.0379 112.575 32.8364 113.539 34.4397C113.646 34.5581 114.346 35.5124 114.238 36.8645C114.05 38.4142 113.288 39.8481 111.309 41.4071C117.16 39.2446 121.336 30.8347 113.136 27.9287Z" fill="#9AA2BD"/>
<path d="M52.5233 82.3783L54.19 86.3048L53.3836 86.6471L51.7169 82.7205L52.5233 82.3783ZM53.7314 81.8654L54.0004 82.4992L50.7966 83.8591L50.5276 83.2254L53.7314 81.8654ZM54.1926 81.6697L55.6569 81.0481C55.9572 80.9207 56.2342 80.8561 56.4881 80.8544C56.7438 80.852 56.9675 80.914 57.1592 81.0406C57.3508 81.1672 57.5012 81.359 57.6103 81.6161C57.6996 81.8265 57.7404 82.0224 57.7326 82.204C57.7258 82.383 57.679 82.5503 57.5923 82.7059C57.5067 82.859 57.3901 83.0018 57.2427 83.1344L57.0437 83.378L55.7709 83.9183L55.4976 83.2895L56.4442 82.8877C56.5862 82.8274 56.6933 82.7523 56.7654 82.6623C56.8375 82.5722 56.8779 82.4724 56.8865 82.3626C56.8968 82.2521 56.8768 82.1375 56.8265 82.0189C56.7731 81.893 56.7035 81.7942 56.6179 81.7223C56.5322 81.6505 56.4314 81.6105 56.3155 81.6024C56.1996 81.5943 56.0698 81.6208 55.9259 81.6819L55.2706 81.96L56.6683 85.2528L55.8593 85.5962L54.1926 81.6697ZM58.0545 84.6644L56.4162 83.2942L57.2688 82.926L58.9041 84.2592L58.9201 84.297L58.0545 84.6644ZM59.6123 80.1616L59.926 83.87L59.0658 84.2351L58.858 79.6893L59.4055 79.4569L59.6123 80.1616ZM61.8812 83.0401L59.4289 80.2395L59.0576 79.6046L59.6104 79.3699L62.7442 82.6737L61.8812 83.0401ZM61.2122 81.599L61.4812 82.2327L59.4074 83.113L59.1384 82.4793L61.2122 81.599ZM64.6372 77.2362L66.304 81.1627L65.4949 81.5061L62.8001 79.5437L63.9173 82.1758L63.1083 82.5192L61.4415 78.5927L62.2506 78.2493L64.9493 80.2132L63.8309 77.5785L64.6372 77.2362ZM68.6159 78.9688C68.5861 78.8987 68.5486 78.8403 68.5034 78.7937C68.4592 78.7446 68.3993 78.7085 68.3237 78.6854C68.2474 78.6605 68.1489 78.6461 68.0284 78.6421C67.9079 78.638 67.7569 78.6448 67.5756 78.6624C67.3732 78.6804 67.1767 78.6874 66.9861 78.6835C66.7974 78.6787 66.6217 78.6546 66.459 78.6112C66.2973 78.5653 66.1543 78.4934 66.03 78.3955C65.9075 78.2968 65.8104 78.163 65.7387 77.994C65.6692 77.8304 65.6422 77.6668 65.6577 77.5032C65.6723 77.3379 65.7242 77.1801 65.8132 77.0298C65.9014 76.8778 66.0226 76.7383 66.1766 76.6114C66.3325 76.4837 66.5165 76.3748 66.7286 76.2848C67.0181 76.1619 67.2928 76.1068 67.5528 76.1195C67.8128 76.1322 68.0407 76.2042 68.2364 76.3354C68.434 76.4659 68.5823 76.648 68.6816 76.8817L67.8779 77.2228C67.8291 77.1077 67.7621 77.0174 67.6769 76.9517C67.5928 76.8834 67.4915 76.8447 67.373 76.8356C67.2563 76.8257 67.1252 76.8517 66.9796 76.9135C66.8393 76.973 66.7316 77.0442 66.6565 77.127C66.5805 77.208 66.5345 77.2944 66.5182 77.3862C66.5013 77.4762 66.5115 77.5652 66.5489 77.6533C66.5771 77.7198 66.6188 77.7732 66.6741 77.8134C66.7312 77.8528 66.8029 77.8818 66.8892 77.9003C66.9756 77.9188 67.0761 77.9281 67.1907 77.9282C67.3054 77.9284 67.4349 77.9211 67.5793 77.9065C67.8208 77.8804 68.0395 77.8735 68.2357 77.8857C68.4336 77.8972 68.6088 77.93 68.7612 77.9841C68.9136 78.0382 69.0448 78.1173 69.1547 78.2213C69.2646 78.3253 69.3539 78.4582 69.4226 78.62C69.4951 78.7908 69.5267 78.9577 69.5174 79.1208C69.5081 79.2838 69.4604 79.4388 69.3742 79.5857C69.2881 79.7327 69.1681 79.8674 69.0143 79.99C68.8605 80.1125 68.6758 80.2196 68.46 80.3112C68.2658 80.3936 68.0637 80.4497 67.8535 80.4795C67.6426 80.5075 67.4377 80.5022 67.2389 80.4635C67.0418 80.4241 66.8631 80.343 66.7027 80.2201C66.5423 80.0972 66.4152 79.9252 66.3213 79.704L67.1331 79.3595C67.185 79.4817 67.2477 79.5771 67.3213 79.6456C67.395 79.714 67.477 79.7598 67.5674 79.783C67.6597 79.8054 67.7584 79.808 67.8636 79.7909C67.9706 79.7731 68.0817 79.7398 68.1967 79.6909C68.337 79.6314 68.4436 79.5628 68.5167 79.4851C68.5916 79.4066 68.6358 79.3231 68.6492 79.2347C68.6644 79.1455 68.6532 79.0569 68.6159 78.9688ZM70.626 75.4866L70.9397 79.1949L70.0795 79.5601L69.8717 75.0143L70.4192 74.7819L70.626 75.4866ZM72.8949 78.365L70.4426 75.5644L70.0713 74.9296L70.6241 74.6949L73.7579 77.9987L72.8949 78.365ZM72.2259 76.924L72.4949 77.5577L70.4211 78.438L70.1521 77.8043L72.2259 76.924ZM75.7966 75.5961L76.6029 75.2538C76.6989 75.525 76.7257 75.7905 76.6833 76.0504C76.6426 76.3095 76.5317 76.5455 76.3504 76.7582C76.1709 76.9702 75.9202 77.1445 75.5984 77.2811C75.3467 77.3879 75.1028 77.4406 74.8666 77.439C74.6296 77.4356 74.4054 77.3822 74.1939 77.2789C73.9843 77.1749 73.7933 77.0225 73.6212 76.8219C73.449 76.6212 73.3019 76.3771 73.1798 76.0894L73.0642 75.817C72.9421 75.5294 72.8695 75.2536 72.8466 74.9896C72.8247 74.7231 72.85 74.4778 72.9226 74.2539C72.997 74.0293 73.1153 73.8306 73.2775 73.6578C73.4396 73.4849 73.6439 73.3463 73.8902 73.2417C74.2174 73.1028 74.5185 73.045 74.7936 73.0683C75.0705 73.0908 75.3153 73.18 75.5278 73.3359C75.7422 73.491 75.9185 73.6963 76.0566 73.9517L75.2475 74.2951C75.1714 74.1407 75.0831 74.0201 74.9826 73.9333C74.8813 73.8448 74.7641 73.7959 74.6307 73.7867C74.4984 73.775 74.3424 73.8072 74.1626 73.8836C74.0278 73.9408 73.9207 74.0159 73.8414 74.109C73.7621 74.2021 73.71 74.3144 73.6852 74.4459C73.6604 74.5773 73.6641 74.7285 73.6963 74.8994C73.7296 75.0678 73.7905 75.2562 73.879 75.4648L73.9969 75.7426C74.0831 75.9457 74.1744 76.1181 74.2706 76.2598C74.366 76.3996 74.4677 76.5092 74.5756 76.5886C74.6846 76.6654 74.8009 76.7094 74.9245 76.7206C75.0491 76.7292 75.1833 76.703 75.3271 76.642C75.4961 76.5702 75.624 76.4841 75.7108 76.3836C75.7976 76.2831 75.8472 76.1677 75.8597 76.0372C75.874 75.9059 75.853 75.7589 75.7966 75.5961ZM79.4103 74.0622L80.2166 73.7199C80.3127 73.991 80.3394 74.2566 80.297 74.5165C80.2563 74.7756 80.1454 75.0116 79.9641 75.2243C79.7846 75.4363 79.5339 75.6106 79.2121 75.7472C78.9604 75.854 78.7165 75.9066 78.4803 75.9051C78.2433 75.9017 78.0191 75.8483 77.8076 75.745C77.598 75.6409 77.407 75.4886 77.2349 75.2879C77.0627 75.0873 76.9156 74.8432 76.7935 74.5555L76.6779 74.2831C76.5558 73.9955 76.4832 73.7196 76.4603 73.4557C76.4384 73.1891 76.4637 72.9439 76.5363 72.72C76.6107 72.4954 76.729 72.2966 76.8912 72.1238C77.0533 71.951 77.2576 71.8123 77.5039 71.7078C77.8311 71.5689 78.1322 71.5111 78.4073 71.5344C78.6842 71.5569 78.929 71.6461 79.1416 71.8019C79.3559 71.9571 79.5322 72.1623 79.6703 72.4177L78.8612 72.7612C78.7851 72.6068 78.6968 72.4862 78.5963 72.3994C78.495 72.3108 78.3778 72.262 78.2444 72.2528C78.1121 72.241 77.9561 72.2733 77.7763 72.3496C77.6415 72.4069 77.5344 72.482 77.4551 72.5751C77.3758 72.6682 77.3237 72.7805 77.2989 72.9119C77.2741 73.0434 77.2778 73.1946 77.31 73.3655C77.3433 73.5339 77.4042 73.7223 77.4927 73.9309L77.6106 74.2086C77.6968 74.4118 77.7881 74.5842 77.8843 74.7258C77.9797 74.8657 78.0814 74.9753 78.1893 75.0547C78.2983 75.1315 78.4146 75.1755 78.5382 75.1867C78.6628 75.1953 78.797 75.1691 78.9408 75.108C79.1098 75.0363 79.2377 74.9502 79.3245 74.8497C79.4113 74.7492 79.4609 74.6337 79.4734 74.5032C79.4877 74.372 79.4667 74.225 79.4103 74.0622ZM80.4944 70.5052L82.1611 74.4318L81.3548 74.774L79.688 70.8475L80.4944 70.5052ZM85.272 70.6861L85.351 70.8721C85.4776 71.1706 85.5509 71.4556 85.5707 71.7273C85.5906 71.999 85.5623 72.2497 85.4858 72.4794C85.4086 72.7074 85.2862 72.909 85.1186 73.0841C84.9529 73.2584 84.7459 73.3982 84.4978 73.5035C84.2515 73.6081 84.0072 73.6598 83.7648 73.6587C83.5243 73.6569 83.2943 73.6049 83.0749 73.5028C82.8547 73.399 82.6529 73.2459 82.4694 73.0437C82.2878 72.8407 82.1336 72.59 82.0069 72.2916L81.928 72.1055C81.8005 71.8053 81.7273 71.5202 81.7082 71.2504C81.6884 70.9787 81.7167 70.728 81.7931 70.4982C81.8714 70.2677 81.9934 70.0652 82.1591 69.8909C82.3267 69.7158 82.5336 69.576 82.7799 69.4714C83.028 69.3661 83.2724 69.3144 83.5129 69.3162C83.7553 69.3173 83.9856 69.3702 84.204 69.4748C84.4242 69.5787 84.6252 69.7321 84.8068 69.9351C84.9895 70.1355 85.1445 70.3858 85.272 70.6861ZM84.5338 71.219L84.4526 71.0275C84.364 70.819 84.2673 70.6436 84.1624 70.5014C84.0575 70.3592 83.9453 70.2498 83.8258 70.1733C83.7063 70.0967 83.582 70.0539 83.4531 70.045C83.3233 70.0343 83.1902 70.058 83.0535 70.116C82.9169 70.174 82.8074 70.2533 82.7249 70.3541C82.6436 70.4523 82.5889 70.571 82.561 70.7101C82.5349 70.8485 82.5365 71.0048 82.5659 71.1791C82.5953 71.3533 82.6543 71.5447 82.7428 71.7533L82.8241 71.9447C82.9118 72.1515 83.0085 72.3269 83.1142 72.4708C83.2191 72.613 83.3317 72.7233 83.452 72.8017C83.5715 72.8783 83.6961 72.9219 83.8258 72.9326C83.9556 72.9433 84.0888 72.9197 84.2254 72.8617C84.362 72.8037 84.4716 72.7243 84.554 72.6236C84.6364 72.5228 84.6907 72.4032 84.7168 72.2648C84.7421 72.1246 84.7401 71.9674 84.7107 71.7932C84.6806 71.6171 84.6216 71.4257 84.5338 71.219ZM82.3384 69.4583L82.5144 68.4034L83.3585 68.0451L82.9694 69.1905L82.3384 69.4583ZM88.2557 67.2107L89.9225 71.1373L89.1134 71.4807L86.4186 69.5183L87.5358 72.1503L86.7268 72.4938L85.06 68.5672L85.8691 68.2238L88.5678 70.1878L87.4494 67.553L88.2557 67.2107ZM93.2072 69.743L92.3523 70.1059L92.0898 69.4725L92.9393 69.1119C93.1514 69.0219 93.3101 68.8983 93.4153 68.7412C93.5197 68.5823 93.5695 68.3946 93.5646 68.1782C93.5615 67.9609 93.5042 67.7211 93.3928 67.4586L93.3115 67.2671C93.226 67.0657 93.1293 66.8978 93.0213 66.7633C92.9151 66.628 92.7985 66.5258 92.6715 66.4567C92.5446 66.3875 92.4098 66.3524 92.2672 66.3514C92.1238 66.3486 91.974 66.3804 91.8175 66.4468L90.9384 66.82L90.6694 66.1862L91.5485 65.813C91.811 65.7016 92.0701 65.6447 92.3258 65.6422C92.5825 65.6372 92.826 65.6835 93.0562 65.7809C93.2865 65.8784 93.4936 66.0239 93.6775 66.2174C93.8626 66.4083 94.0146 66.644 94.1336 66.9245L94.2126 67.1106C94.3309 67.3893 94.3948 67.6623 94.4044 67.9299C94.4158 68.1966 94.3766 68.4467 94.2868 68.68C94.198 68.9108 94.0622 69.118 93.8792 69.3018C93.6972 69.483 93.4732 69.63 93.2072 69.743ZM91.144 65.9847L92.8107 69.9113L92.0017 70.2547L90.335 66.3282L91.144 65.9847ZM94.7874 64.4382L96.4541 68.3647L95.6477 68.707L93.981 64.7805L94.7874 64.4382ZM99.4529 64.6698L100.113 66.2259C100.084 66.3255 100.023 66.4456 99.9321 66.5861C99.8403 66.7248 99.7067 66.8674 99.5313 67.014C99.3559 67.1606 99.1252 67.2946 98.8394 67.4159C98.5859 67.5235 98.3373 67.5802 98.0936 67.586C97.8492 67.5901 97.6172 67.5432 97.3975 67.4455C97.1795 67.3471 96.9805 67.1981 96.8004 66.9988C96.6196 66.7976 96.465 66.546 96.3368 66.2439L96.2326 65.9985C96.1044 65.6965 96.029 65.4113 96.0063 65.143C95.9855 64.8739 96.0135 64.6275 96.0904 64.4039C96.1674 64.1803 96.2886 63.9835 96.4541 63.8135C96.6196 63.6435 96.8255 63.5063 97.0718 63.4017C97.4134 63.2567 97.7175 63.1934 97.9842 63.2118C98.2501 63.2283 98.4821 63.3102 98.6804 63.4573C98.8796 63.6019 99.0462 63.7943 99.18 64.0345L98.3952 64.3676C98.319 64.243 98.232 64.143 98.1343 64.0678C98.0366 63.9926 97.9238 63.9493 97.7958 63.9378C97.6697 63.9255 97.5248 63.9542 97.3612 64.0236C97.2264 64.0808 97.1178 64.1598 97.0353 64.2606C96.954 64.3588 96.8998 64.4762 96.8729 64.6128C96.8461 64.7494 96.8469 64.9039 96.8756 65.0763C96.9042 65.2488 96.9624 65.4384 97.0502 65.6451L97.1566 65.8959C97.2436 66.1009 97.3405 66.2741 97.4472 66.4155C97.5531 66.5551 97.6677 66.6625 97.7908 66.7375C97.9149 66.81 98.0459 66.8488 98.1839 66.8539C98.3218 66.859 98.4672 66.8291 98.6201 66.7643C98.7477 66.7101 98.8492 66.6543 98.9245 66.5968C99.0017 66.5386 99.0598 66.4832 99.099 66.4305C99.1392 66.3752 99.1676 66.3271 99.1841 66.2861L98.8888 65.5903L98.1499 65.904L97.9049 65.3269L99.4529 64.6698ZM100.17 62.1534L101.837 66.0799L101.031 66.4222L99.3638 62.4956L100.17 62.1534ZM102.603 61.1208L104.269 65.0473L103.463 65.3896L101.796 61.4631L102.603 61.1208ZM103.811 60.608L104.08 61.2417L100.876 62.6017L100.607 61.9679L103.811 60.608ZM105.862 60.5297L106.176 64.238L105.316 64.6032L105.108 60.0574L105.655 59.825L105.862 60.5297ZM108.131 63.4081L105.679 60.6075L105.308 59.9727L105.86 59.738L108.994 63.0418L108.131 63.4081ZM107.462 61.9671L107.731 62.6008L105.657 63.4811L105.388 62.8473L107.462 61.9671ZM111.615 61.1848L111.882 61.8158L109.906 62.6549L109.638 62.0238L111.615 61.1848ZM108.501 58.6173L110.167 62.5438L109.358 62.8873L107.692 58.9607L108.501 58.6173Z" fill="#99A1C0"/>
<path d="M35.4959 110.824L36.8032 126.276L33.2187 127.797L32.3531 108.856L34.6341 107.888L35.4959 110.824ZM44.9498 122.818L34.7318 111.149L33.1846 108.504L35.4881 107.526L48.5455 121.292L44.9498 122.818ZM42.1623 116.813L43.2832 119.454L34.6422 123.122L33.5214 120.481L42.1623 116.813ZM53.9581 112.111L49.7893 113.881L48.6732 111.252L52.842 109.482C53.4863 109.209 53.9661 108.881 54.2816 108.5C54.5939 108.111 54.7626 107.685 54.7877 107.224C54.8128 106.762 54.7236 106.292 54.5201 105.813C54.3135 105.326 54.0274 104.912 53.6621 104.572C53.2967 104.232 52.8578 104.021 52.3451 103.938C51.8325 103.855 51.2541 103.95 50.6098 104.223L47.6097 105.497L53.4334 119.217L50.0624 120.648L43.1178 104.287L49.489 101.583C50.7699 101.039 51.966 100.805 53.077 100.882C54.1924 100.948 55.1652 101.282 55.9956 101.884C56.8259 102.487 57.4621 103.308 57.9041 104.35C58.3524 105.406 58.4969 106.423 58.3375 107.401C58.1781 108.38 57.7267 109.274 56.9834 110.085C56.2475 110.892 55.2391 111.568 53.9581 112.111ZM57.9501 97.9912L64.0516 95.4012C65.3026 94.8702 66.4571 94.6012 67.515 94.5942C68.5804 94.584 69.5124 94.8426 70.311 95.37C71.1095 95.8975 71.7361 96.6968 72.1908 97.768C72.5629 98.6445 72.7326 99.4609 72.7001 100.217C72.6718 100.963 72.4771 101.66 72.1158 102.309C71.7588 102.946 71.2732 103.542 70.659 104.094L69.83 105.109L64.5263 107.36L63.3877 104.74L67.3318 103.066C67.9236 102.815 68.3697 102.502 68.6702 102.127C68.9707 101.752 69.1389 101.336 69.1747 100.878C69.2179 100.418 69.1346 99.9406 68.9248 99.4461C68.7022 98.9218 68.4124 98.5099 68.0555 98.2105C67.6986 97.9111 67.2786 97.7446 66.7958 97.7109C66.3129 97.6771 65.7718 97.7875 65.1725 98.0418L62.442 99.2009L68.2658 112.921L64.8948 114.352L57.9501 97.9912ZM74.0414 110.469L67.2153 104.76L70.7678 103.226L77.5816 108.781L77.6484 108.938L74.0414 110.469ZM89.4418 93.8271L89.7709 94.6024C90.2987 95.8459 90.604 97.0336 90.6866 98.1655C90.7692 99.2975 90.6513 100.342 90.3327 101.3C90.011 102.249 89.501 103.089 88.8029 103.819C88.1122 104.545 87.2499 105.128 86.2162 105.567C85.1899 106.002 84.1719 106.218 83.1621 106.213C82.1598 106.205 81.2015 105.989 80.2872 105.564C79.3697 105.131 78.5288 104.493 77.7645 103.651C77.0076 102.805 76.3653 101.76 75.8375 100.517L75.5083 99.7414C74.9773 98.4904 74.6721 97.3027 74.5926 96.1783C74.51 95.0464 74.628 94.0017 74.9465 93.0443C75.2725 92.0837 75.7809 91.2402 76.4716 90.5138C77.1698 89.7843 78.032 89.2017 79.0583 88.7661C80.092 88.3273 81.1101 88.1117 82.1124 88.1195C83.1222 88.124 84.0821 88.3443 84.9921 88.7802C85.9095 89.213 86.7467 89.8522 87.5035 90.6979C88.2647 91.533 88.9107 92.576 89.4418 93.8271ZM86.3662 96.0476L86.0275 95.2498C85.6587 94.3808 85.2557 93.6501 84.8185 93.0577C84.3814 92.4652 83.9139 92.0095 83.416 91.6904C82.918 91.3713 82.4004 91.1932 81.863 91.1561C81.3225 91.1114 80.7675 91.21 80.1982 91.4516C79.6289 91.6933 79.1725 92.024 78.8291 92.4439C78.4901 92.853 78.2623 93.3475 78.146 93.9274C78.0371 94.504 78.044 95.1553 78.1665 95.8813C78.289 96.6073 78.5346 97.4048 78.9035 98.2738L79.2421 99.0716C79.6078 99.933 80.0108 100.664 80.4511 101.264C80.8883 101.856 81.3574 102.316 81.8585 102.642C82.3564 102.961 82.8756 103.143 83.4162 103.188C83.9567 103.232 84.5117 103.134 85.081 102.892C85.6503 102.651 86.1067 102.32 86.4501 101.9C86.7935 101.48 87.0196 100.982 87.1285 100.405C87.2341 99.8211 87.2257 99.166 87.1032 98.44C86.9775 97.7065 86.7318 96.9091 86.3662 96.0476ZM98.8604 91.4602L94.6579 93.2441L93.6529 90.9389L97.1812 89.4412C97.803 89.1773 98.279 88.8824 98.6092 88.5565C98.9363 88.2232 99.132 87.8616 99.1964 87.4718C99.2651 87.0713 99.2041 86.6464 99.0133 86.1969C98.7971 85.6875 98.5248 85.3168 98.1965 85.0849C97.8757 84.8498 97.4828 84.7469 97.0179 84.7763C96.5604 84.8025 96.0171 84.9491 95.3878 85.2162L93.0506 86.2083L98.8744 99.9282L95.5034 101.359L88.5587 84.9986L94.2669 82.5756C95.2183 82.1718 96.1067 81.9008 96.9321 81.7626C97.765 81.6212 98.5216 81.6227 99.2018 81.7672C99.882 81.9117 100.48 82.206 100.996 82.6502C101.508 83.0869 101.926 83.6873 102.251 84.4514C102.537 85.1256 102.647 85.8125 102.582 86.5122C102.524 87.2087 102.245 87.8751 101.746 88.5113C101.255 89.1443 100.496 89.7006 99.4708 90.18L98.8604 91.4602ZM101.762 98.7024L96.7843 100.815L96.9829 97.628L100.646 96.073C101.238 95.8218 101.681 95.5231 101.976 95.1768C102.268 94.8231 102.434 94.4432 102.474 94.0373C102.514 93.6314 102.443 93.2149 102.262 92.788C102.058 92.3085 101.8 91.9277 101.485 91.6456C101.179 91.3603 100.809 91.1987 100.378 91.1609C99.943 91.1156 99.4372 91.2154 98.8604 91.4602L95.613 92.8386L94.653 90.5144L98.6982 88.7973L99.8598 89.3783C100.85 88.9404 101.726 88.7762 102.489 88.8857C103.256 88.9846 103.9 89.2636 104.422 89.7227C104.952 90.1787 105.356 90.7363 105.636 91.3955C106.081 92.4443 106.228 93.4252 106.076 94.3383C105.921 95.2439 105.478 96.0642 104.747 96.7989C104.023 97.5305 103.028 98.165 101.762 98.7024ZM111.096 78.7341L112.403 94.1855L108.819 95.7071L107.953 76.7661L110.234 75.7979L111.096 78.7341ZM120.55 90.7275L110.332 79.0585L108.785 76.4132L111.088 75.4354L124.146 89.2012L120.55 90.7275ZM117.762 84.7231L118.883 87.3637L110.242 91.0316L109.121 88.391L117.762 84.7231ZM130.685 86.4253L127.123 87.9373L126.03 85.2984L129.569 83.7959C130.453 83.4207 131.114 82.9058 131.552 82.2512C131.988 81.5891 132.195 80.8071 132.174 79.9052C132.162 79 131.923 78.0006 131.459 76.9069L131.12 76.1091C130.764 75.2701 130.361 74.5704 129.911 74.01C129.468 73.4464 128.982 73.0205 128.453 72.7322C127.924 72.444 127.363 72.2978 126.769 72.2936C126.171 72.2819 125.547 72.4144 124.895 72.6911L121.232 74.246L120.111 71.6054L123.774 70.0505C124.868 69.5862 125.948 69.349 127.013 69.3388C128.083 69.3179 129.097 69.5106 130.056 69.9167C131.016 70.3229 131.879 70.9291 132.645 71.7354C133.416 72.5309 134.05 73.513 134.546 74.6816L134.875 75.4569C135.368 76.6181 135.634 77.756 135.674 78.8706C135.721 79.9821 135.558 81.0239 135.184 81.9961C134.814 82.9576 134.248 83.8212 133.485 84.5869C132.727 85.3419 131.794 85.9547 130.685 86.4253ZM122.089 70.7659L129.033 87.1264L125.662 88.5573L118.718 72.1968L122.089 70.7659ZM141.278 65.9228L142.585 81.3742L139 82.8957L138.135 63.9548L140.416 62.9866L141.278 65.9228ZM150.731 77.9162L140.513 66.2472L138.966 63.6019L141.27 62.6241L154.327 76.3899L150.731 77.9162ZM147.944 71.9118L149.065 74.5524L140.424 78.2203L139.303 75.5797L147.944 71.9118Z" fill="#99A1C0"/>
<path d="M16.1374 89.4208L138.565 37.4536" stroke="#9AA2BD" stroke-width="2"/>
<path d="M23.5613 106.91L145.988 54.9432" stroke="#9AA2BD" stroke-width="2"/>
</g>
</svg>
