<svg xmlns="http://www.w3.org/2000/svg" width="18" height="19" viewBox="0 0 18 19">
    <path fill="#9B9B9B" fill-rule="evenodd" d="M16.875 1.813c.316 0 .583.108.8.325.217.216.325.483.325.8V17c0 .305-.108.568-.325.791a1.073 1.073 0 0 1-.8.334H1.125c-.316 0-.583-.111-.8-.334A1.096 1.096 0 0 1 0 17V2.937c0-.316.108-.583.325-.8.217-.216.484-.325.8-.325h4.5V.688a.54.54 0 0 1 .167-.395.54.54 0 0 1 .396-.167.54.54 0 0 1 .395.167.54.54 0 0 1 .167.396v1.125h4.5V.688a.54.54 0 0 1 .167-.396.54.54 0 0 1 .396-.167.54.54 0 0 1 .395.167.54.54 0 0 1 .167.396v1.125h4.5zm0 15.187V2.937h-4.5V3.5a.54.54 0 0 1-.167.396.54.54 0 0 1-.396.167.54.54 0 0 1-.395-.167.54.54 0 0 1-.167-.396v-.563h-4.5V3.5a.54.54 0 0 1-.167.396.54.54 0 0 1-.396.167.54.54 0 0 1-.395-.167.54.54 0 0 1-.167-.396v-.563h-4.5V17h15.75zm-3.938-7.875a.54.54 0 0 1-.395-.167.54.54 0 0 1-.167-.396V7.438a.54.54 0 0 1 .167-.396.54.54 0 0 1 .396-.167h1.124a.54.54 0 0 1 .396.167.54.54 0 0 1 .167.396v1.125a.54.54 0 0 1-.167.395.54.54 0 0 1-.396.167h-1.124zm0 4.5a.54.54 0 0 1-.395-.167.54.54 0 0 1-.167-.396v-1.124a.54.54 0 0 1 .167-.396.54.54 0 0 1 .396-.167h1.124a.54.54 0 0 1 .396.167.54.54 0 0 1 .167.396v1.124a.54.54 0 0 1-.167.396.54.54 0 0 1-.396.167h-1.124zm-3.374-2.25a.54.54 0 0 1 .395.167.54.54 0 0 1 .167.396v1.124a.54.54 0 0 1-.167.396.54.54 0 0 1-.396.167H8.438a.54.54 0 0 1-.396-.167.54.54 0 0 1-.167-.396v-1.124a.54.54 0 0 1 .167-.396.54.54 0 0 1 .396-.167h1.124zm0-4.5a.54.54 0 0 1 .395.167.54.54 0 0 1 .167.396v1.125a.54.54 0 0 1-.167.395.54.54 0 0 1-.396.167H8.438a.54.54 0 0 1-.396-.167.54.54 0 0 1-.167-.396V7.438a.54.54 0 0 1 .167-.396.54.54 0 0 1 .396-.167h1.124zm-4.5 0a.54.54 0 0 1 .395.167.54.54 0 0 1 .167.396v1.125a.54.54 0 0 1-.167.395.54.54 0 0 1-.396.167H3.938a.54.54 0 0 1-.395-.167.54.54 0 0 1-.167-.396V7.438a.54.54 0 0 1 .167-.396.54.54 0 0 1 .396-.167h1.124zm0 4.5a.54.54 0 0 1 .395.167.54.54 0 0 1 .167.396v1.124a.54.54 0 0 1-.167.396.54.54 0 0 1-.396.167H3.938a.54.54 0 0 1-.395-.167.54.54 0 0 1-.167-.396v-1.124a.54.54 0 0 1 .167-.396.54.54 0 0 1 .396-.167h1.124z"/>
</svg>
