<svg xmlns="http://www.w3.org/2000/svg" width="19" height="16" viewBox="0 0 19 16">
    <path fill="#9B9B9B" fill-rule="evenodd" d="M13.683 3.695c.633.07 1.228.246 1.784.528a5.252 5.252 0 0 1 1.46 1.08c.415.44.743.944.984 1.512.24.569.36 1.175.36 1.82 0 .61-.1 1.219-.299 1.828-.199.61-.489 1.157-.87 1.643-.38.487-.847.888-1.397 1.205-.551.316-1.178.486-1.881.51a.54.54 0 0 1-.396-.168.54.54 0 0 1-.167-.395.54.54 0 0 1 .167-.396.54.54 0 0 1 .396-.167h.158c.48 0 .917-.12 1.31-.36.392-.24.73-.557 1.01-.95a4.64 4.64 0 0 0 .65-1.309c.153-.48.23-.96.23-1.441a3.54 3.54 0 0 0-.317-1.486 3.877 3.877 0 0 0-.861-1.212 4.288 4.288 0 0 0-1.249-.827 3.687 3.687 0 0 0-1.494-.307l-.404-.018-.123-.387c-.293-.937-.765-1.667-1.415-2.188-.65-.522-1.532-.782-2.646-.782-.703 0-1.336.12-1.898.36a4.287 4.287 0 0 0-1.45 1.002 4.399 4.399 0 0 0-.932 1.53 5.502 5.502 0 0 0-.325 1.907h.018l.035.527-.51.088c-.621.105-1.149.44-1.582 1.002a3.03 3.03 0 0 0-.65 1.898c0 .797.266 1.488.8 2.074.533.586 1.162.88 1.889.88h.492a.556.556 0 0 1 .563.563.556.556 0 0 1-.563.561h-.492a3.362 3.362 0 0 1-1.459-.325 3.893 3.893 0 0 1-1.204-.888 4.394 4.394 0 0 1-.826-1.3A4.027 4.027 0 0 1 .27 9.742c0-.902.252-1.717.756-2.443.504-.727 1.148-1.213 1.934-1.46.046-.784.22-1.514.518-2.188a5.763 5.763 0 0 1 1.195-1.757A5.398 5.398 0 0 1 6.432.724C7.106.445 7.853.304 8.673.304c.633 0 1.213.079 1.74.237a4.99 4.99 0 0 1 1.424.677c.422.293.786.65 1.09 1.072.305.422.557.89.756 1.406zm-2.056 9.053l.14.123a.37.37 0 0 1 .123.264.37.37 0 0 1-.123.263l-2.074 2.268v.018l-.14.14a.405.405 0 0 1-.141.097.448.448 0 0 1-.308 0 .268.268 0 0 1-.132-.097l-.14-.14v-.018l-2.04-2.232a.407.407 0 0 1-.122-.3c0-.116.04-.216.123-.298l.14-.088a.342.342 0 0 1 .29-.105.47.47 0 0 1 .29.14L8.71 14.12V8.46a.556.556 0 0 1 .562-.563.54.54 0 0 1 .396.167.54.54 0 0 1 .167.396v5.66l1.23-1.371a.397.397 0 0 1 .29-.123c.111 0 .202.041.273.123z"/>
</svg>
