<svg xmlns="http://www.w3.org/2000/svg" width="19" height="19" viewBox="0 0 19 19">
    <path fill="#9B9B9B" fill-rule="evenodd" d="M16.887 4.607c.34 0 .633.123.88.37.245.246.369.539.369.878v7.63c0 .35-.124.65-.37.896a1.2 1.2 0 0 1-.879.369h-2.126v3.375H3.51V14.75H1.384a1.2 1.2 0 0 1-.88-.37 1.22 1.22 0 0 1-.368-.896V5.855c0-.34.123-.632.369-.878a1.2 1.2 0 0 1 .879-.37H3.51V.125h11.25v4.482h2.126zM4.636 1.232v3.375h9V1.232h-9zm9 15.768v-6.205h-9V17h9zm3.375-3.516V5.855a.12.12 0 0 0-.124-.123H1.384a.12.12 0 0 0-.123.123v7.63a.12.12 0 0 0 .123.122H3.51V9.67h11.25v3.955h2.126a.108.108 0 0 0 .088-.044.151.151 0 0 0 .036-.097zm-2.25-6.627a.54.54 0 0 1 .395.167.54.54 0 0 1 .167.396.556.556 0 0 1-.563.563h-.562a.556.556 0 0 1-.562-.563.54.54 0 0 1 .167-.396.54.54 0 0 1 .395-.167h.563z"/>
</svg>
