<svg xmlns="http://www.w3.org/2000/svg" width="100" height="72" viewBox="0 0 100 72">
    <g fill="none" fill-rule="evenodd">
        <path d="M0 0H100V72H0z"/>
        <g>
            <path fill="#FFF" d="M3.954 1.098h22.814c1.588 0 2.875 1.288 2.875 2.876v48.052c0 1.588-1.287 2.876-2.875 2.876H3.954c-1.588 0-2.876-1.288-2.876-2.876V3.974c0-1.588 1.288-2.876 2.876-2.876z" transform="translate(27 7)"/>
            <path fill="#F2FCFC" d="M8.085 3.294H26.41c1.786 0 3.233 1.475 3.233 3.294v.55H4.851v-.55c0-1.82 1.448-3.294 3.234-3.294z" transform="translate(27 7)"/>
            <path fill="#C1E0FF" d="M8.624 11.53H30.72c1.786 0 3.234 1.474 3.234 3.294v33.49c0 1.819-1.448 3.294-3.234 3.294H8.624c-1.786 0-3.234-1.475-3.234-3.294v-33.49c0-1.82 1.448-3.295 3.234-3.295z" opacity=".5" transform="translate(27 7)"/>
            <path fill="#FFF" d="M6.791 14.483h17.463c1.607 0 2.91 1.297 2.91 2.896v1.931c0 1.6-1.303 2.897-2.91 2.897H6.79c-1.607 0-2.91-1.297-2.91-2.897v-1.93c0-1.6 1.303-2.897 2.91-2.897z" transform="translate(27 7)"/>
            <g fill="#F69B31">
                <path d="M1.94 0C.873 0 0 .869 0 1.931s.873 1.931 1.94 1.931 1.94-.869 1.94-1.931S3.008 0 1.94 0zM6.791 0c-1.067 0-1.94.869-1.94 1.931s.873 1.931 1.94 1.931 1.94-.869 1.94-1.931S7.858 0 6.791 0zM11.642 0c-1.067 0-1.94.869-1.94 1.931s.873 1.931 1.94 1.931 1.94-.869 1.94-1.931S12.71 0 11.642 0zM16.493 0c-1.068 0-1.94.869-1.94 1.931s.872 1.931 1.94 1.931c1.067 0 1.94-.869 1.94-1.931S17.56 0 16.493 0z" transform="translate(27 7) translate(5.82 16.414)"/>
            </g>
            <path fill="#6680AD" fill-rule="nonzero" d="M4.312 2.196c-1.19 0-2.156.983-2.156 2.196v47.216c0 1.213.965 2.196 2.156 2.196H26.41c1.19 0 2.156-.983 2.156-2.196V4.392c0-1.213-.966-2.196-2.156-2.196H4.312zm0-2.196H26.41c2.38 0 4.311 1.966 4.311 4.392v47.216c0 2.426-1.93 4.392-4.311 4.392H4.312C1.93 56 0 54.034 0 51.608V4.392C0 1.966 1.93 0 4.312 0z" transform="translate(27 7)"/>
            <path fill="#6680AD" fill-rule="nonzero" d="M2.156 8.235v37.883h26.41V8.235H2.156zM1.078 6.04h28.565c.596 0 1.078.492 1.078 1.098v40.079c0 .606-.482 1.098-1.078 1.098H1.078C.483 48.314 0 47.822 0 47.216V7.137C0 6.531.483 6.04 1.078 6.04z" transform="translate(27 7)"/>
            <path fill="#C4D4E3" d="M15.318 2.745c-.717 0-1.305.597-1.305 1.328 0 .73.588 1.327 1.305 1.327.718 0 1.306-.597 1.306-1.327s-.588-1.328-1.306-1.328z" transform="translate(27 7)"/>
            <path fill="#6680AD" fill-rule="nonzero" d="M11.857 52.157c-.595 0-1.078-.492-1.078-1.098 0-.607.483-1.098 1.078-1.098h6.694c.595 0 1.078.491 1.078 1.098 0 .606-.483 1.098-1.078 1.098h-6.694z" transform="translate(27 7)"/>
            <g>
                <path fill="#FFF" d="M13.5 1.564L10.25 3.922 1.704 21.879 3.829 25.641 23.038 25.641 25.515 21.879 15.75 2.281z" transform="translate(27 7) translate(20 29)"/>
                <path fill="#F69B31" fill-rule="nonzero" stroke="#FFF" stroke-width=".8" d="M13.5 0c1.913 0 3.661 1.08 4.516 2.791h0l8.452 16.904c.782 1.565.698 3.424-.222 4.912C25.326 26.094 23.7 27 21.952 27h0H5.048c-1.75 0-3.374-.906-4.294-2.393-.92-1.488-1.004-3.347-.222-4.912h0L8.984 2.792C9.84 1.08 11.587 0 13.5 0zm0 3c-.776 0-1.485.438-1.832 1.133h0L3.216 21.037c-.317.634-.283 1.388.09 1.992.373.604 1.032.971 1.742.971h16.904c.71 0 1.369-.367 1.742-.971s.407-1.358.09-1.992h0L15.332 4.132C14.985 3.438 14.276 3 13.5 3zm0 15l.245.013c1.127.122 2.005 1.077 2.005 2.237 0 1.243-1.007 2.25-2.25 2.25s-2.25-1.007-2.25-2.25c0-1.16.878-2.115 2.005-2.237L13.5 18zm0-10.5c.76 0 1.387.564 1.486 1.296L15 9v6c0 .828-.672 1.5-1.5 1.5-.76 0-1.387-.564-1.486-1.296L12 15V9c0-.828.672-1.5 1.5-1.5z" transform="translate(27 7) translate(20 29)"/>
            </g>
        </g>
    </g>
</svg>
