<svg xmlns="http://www.w3.org/2000/svg" width="95" height="34" viewBox="0 0 95 34">
    <defs>
        <linearGradient id="8jrlnvg3ja" x1="56.088%" x2="94.609%" y1="81.668%" y2="81.668%">
            <stop offset="0%" stop-color="#ED1C24"/>
            <stop offset="94.816%" stop-color="#FFF" stop-opacity="0"/>
        </linearGradient>
        <linearGradient id="cc9ejgoekb" x1="10.322%" x2="88.651%" y1="49.953%" y2="49.953%">
            <stop offset="0%" stop-color="#ED1C24"/>
            <stop offset="100%" stop-color="#FFCB05"/>
        </linearGradient>
        <linearGradient id="8lwawfwh4c" x1="50.002%" x2="50.002%" y1="-.786%" y2="35.658%">
            <stop offset="0%" stop-color="#E39717"/>
            <stop offset="12.36%" stop-color="#E8A116"/>
            <stop offset="43.44%" stop-color="#F4B710"/>
            <stop offset="73.21%" stop-color="#FCC509"/>
            <stop offset="100%" stop-color="#FFCB05"/>
        </linearGradient>
        <linearGradient id="1nott7qukd" x1="34.979%" x2="47.912%" y1="24.367%" y2="60.204%">
            <stop offset="0%" stop-color="#E39717"/>
            <stop offset="10.13%" stop-color="#E8A116"/>
            <stop offset="35.61%" stop-color="#F4B710"/>
            <stop offset="60%" stop-color="#FCC509"/>
            <stop offset="81.96%" stop-color="#FFCB05"/>
            <stop offset="100%" stop-color="#FFCB05"/>
        </linearGradient>
    </defs>
    <g fill="none" fill-rule="evenodd">
        <g fill-rule="nonzero">
            <path fill="url(#8jrlnvg3ja)" d="M15.824.005C7.337.155.32 6.202.01 14.51c-.306 8.312 6.05 15.308 14.194 15.62 4.144.16 7.955-1.44 10.744-4.15 2.683-2.61 2.572-7.203.44-5.121-2.345 2.289-5.625 3.658-9.2 3.526-6.817-.25-12.136-5.868-11.882-12.547C4.543 5.641 10.565.736 15.953.44l.14-.439c-.089.005-.177.005-.27.005z" transform="translate(0 1)"/>
            <path fill="#FFCB05" d="M17.013.44c6.841.424 12.472 6.378-7.437 12.333 5.072 1.02 8.818 3.451 8.818 3.451C35.44 7.366 25.744-.028 16.1 0l-.139.44c.356-.024.707-.024 1.053 0z" transform="translate(0 1)"/>
            <path fill="url(#cc9ejgoekb)" d="M8.67 3.57C10.82 1.738 13.489.58 16.022.437c.357-.02.709-.02 1.056.005 3.362.208 6.433 1.751 6.34 3.983L25.1 2.398C22.852.874 19.504-.01 16.16 0h-.269c-3.15.057-6.095.926-8.568 2.426L8.671 3.57z" transform="translate(0 1)"/>
            <path fill="url(#8lwawfwh4c)" d="M24.349 23.535c-.005-.08-.283-2.047-.283-2.047-.69-4.674.274-9.202 7.292-9.575-10.18-4.986-16.949-.212-21.907.906 4.514.57 14.027 5.768 14.898 10.716z" transform="translate(0 1)"/>
            <path fill="url(#1nott7qukd)" d="M27.704 13.275c-4.339 1.824-3.894 6.877-3.478 9.84.084.242.519 2.085-.486 4.01-1.245 2.164-3.264 3.8-7.154 4.859 9.97.472 21.378-9.303 11.118-18.71z" transform="translate(0 1)"/>
        </g>
        <g fill="#00A3DA">
            <path d="M24.864 21.802c-1.639-.902-1.672-2.154-1.587-2.613.086-.467.414-.26.617-.26 1.076 0 2.213-.323 3.617-1.753 1.58-1.61 2.075-5.199-.352-7.532-2.619-2.518-5.401-2.078-7.193.183-.37.464-1.267.806-2.045.78-1.146-.044-.424.861-.424 1.05 0 .191-.175.322-.274.292-.392-.111-.235.47-.235.645 0 .175-.163.26-.245.26-.485 0-.358.438-.342.555.014.118-.025.32-.189.41-.153.084-.334.465-.334.758 0 .525.482.89 1.283 1.49.802.598.907 1.167.917 1.577.018.407.056 1.064.24 1.501.214.525.188 1.492-.926 1.536-1.353.05-3.761 1.135-3.97 1.209-.764.274-1.77.37-2.558.17-.43-.297-.835-.627-1.219-.976-.155-.546.115-1.135.394-1.529.457.451 1.124.422 1.505.438.376.013 2.234-.279 2.495-.366.264-.09.377-.058.539 0 .708.26 1.682.334 2.072-1.02.392-1.361-.541-.98-.654-.92l-.22-.075c.172-.346-.085-.304-.234-.32-.38-.038-.879.364-1.036.51-.161.148-.32.134-.376.104-.507-.252-2.003.11-2.47-.704.042-.217-.38-3.514-.595-4.085-.05-.121-.097-.32.054-.541.382-.569 1.432.046 1.999.032.684-.018.793-.303.976-.533.181-.225.314-.1.412-.16l.05-.33.21-.145.048-.41c.165-.254.627-.05.344-.713-.147-.366.064-.76.269-1.025.332-.425 1.603-2.22-.643-4.083-2.152-1.782-4.322-1.639-5.722-.12-1.402 1.518-.7 3.736-.557 4.319.152.586-.27 1.115-.76 1.346-.38.181-1.254.764-1.917 1.339.106-4.764 2.998-8.953 7.429-10.735.187.237.398.46.626.669-.49.36-1.567 1.326-1.567 1.326s.145.018.28.054l.297.088s.949-.812 1.396-1.13c.346.26.722.481 1.126.658-.213.366-.758 1.38-.758 1.38l.24.152.18.137s.59-1.11.813-1.48c.495.163 1.013.26 1.542.285v2.036c-.299-.012-1.043-.04-1.345-.073l-.19-.016.109.157.195.34.025.046.05.002c.219.02.901.045 1.156.05v3.707h.513v-.85c.754-.033 1.38-.085 2.136-.153l.034-.002.664-.594-.36.035c-.8.104-1.504.152-2.144.19l-.33.015V6.038c.929-.022 1.863-.149 2.77-.391.25.614.72 2.098.72 2.098l.484-.151s-.466-1.472-.714-2.089c.77-.238 1.515-.553 2.221-.94.567.698 1.058 1.461 1.466 2.273-.368.169-1.036.406-1.036.406.537.055.94.18.94.18l.309-.13.14.322.663.294-.073-.187-.277-.648c.708-.347 1.4-.746 2.067-1.194 1.259 1.93 1.925 4.169 1.925 6.482 0 3.847-1.838 7.272-4.686 9.44zM16.391.58c-.727.32-1.426.704-2.082 1.15-.203-.174-.382-.363-.547-.56.843-.296 1.734-.493 2.63-.59zm-.708 2.009c-.336-.14-.654-.32-.948-.531.664-.44 1.382-.818 2.134-1.126-.424.529-.826 1.082-1.186 1.657zm1.749-1.552v1.951c-.432-.02-.854-.097-1.26-.222.377-.595.798-1.172 1.26-1.729zm.513 2.46c.53-.02 1.054-.119 1.56-.284.373.627.711 1.285 1.007 1.965-.839.217-1.702.336-2.567.356V3.497zm0-2.484c.451.551.879 1.134 1.279 1.753-.418.125-.848.202-1.28.224V1.012zm2.72 1.045c-.304.212-.622.391-.954.53-.358-.564-.76-1.123-1.193-1.658.75.306 1.467.684 2.148 1.128zm.965-.884c-.17.2-.354.386-.545.561-.658-.45-1.352-.833-2.074-1.151.899.1 1.774.294 2.62.59zm1.462 2.998c-.668.356-1.366.648-2.08.869-.307-.688-.655-1.366-1.033-2.017.394-.175.778-.398 1.124-.656.726.523 1.396 1.133 1.99 1.804zm-.957-2.809c.983.398 1.918.935 2.767 1.592-.424.35-.883.67-1.36.96-.605-.696-1.291-1.328-2.035-1.881.229-.21.434-.432.628-.67zm5.201 4.104c-.632.425-1.304.809-1.998 1.151-.402-.817-.897-1.595-1.472-2.309.507-.31.99-.654 1.44-1.032.767.642 1.452 1.378 2.03 2.19zM17.694 0C10.87 0 5.325 5.547 5.325 12.363c0 6.82 5.545 12.365 12.37 12.365 6.81 0 12.358-5.545 12.358-12.365C30.053 5.547 24.504 0 17.694 0zM4.206 3.286l-.195.17c-.72.641-2.385 2.336-2.128 4.2l.03.129.077.368.233-.215C3.237 7.01 3.999 5.44 4.309 3.624l.09-.511-.193.173M.04 17.04l.044.21c.364 1.771 2.05 4.639 4.64 5.474l.354.118-.126-.35C4.47 21.167 1.97 18.076.358 17.06L0 16.83l.04.21M5.255 5.956l-.207.122C3.117 7.259 2.216 8.685 2.28 10.449l.018.404.285-.235c1.042-.865 2.347-3.076 2.732-4.331l.144-.454-.205.123M4.117 9.816l-.148.137c-.49.471-2.094 2.176-1.957 4.284.022.32.098.668.225 1.032l.11.336.21-.288c.768-1.078 1.776-3.916 1.72-5.24l-.013-.4-.147.139M4.194 13.473l-.101.157c-.808 1.2-1.22 2.433-1.192 3.564.018.838.285 1.64.792 2.385l.17.247.142-.26c.346-.655.627-2.781.585-4.464-.014-.595-.072-1.084-.177-1.42l-.1-.372-.119.163M5.136 17.382l-.047.165c-.247.784-.36 1.543-.338 2.263.045 1.633.767 2.914 2.157 3.8l.23.146.049-.316.016-.25c-.034-1.329-1.024-4.676-1.798-5.697l-.215-.28-.054.169M2.413 22.565l.1.167c1.042 1.744 2.808 3.994 6.106 3.415l.28-.046-.157-.23c-.617-.917-4.624-3.18-6.042-3.41l-.386-.063.1.167M7.298 26.992l-.519.144.497.202c2.107.86 4.734 1.11 6.257.6.573-.198.927-.51 1.35-.924 2.684.279 5.2 2.512 6.67 4.332l.075.096.116-.04c.167-.056.42-.25.525-.366l.103-.114-.091-.12c-1.528-2.002-3.925-3.24-4.032-3.289-2.158-1.056-5.957-1.873-10.95-.52" transform="translate(0 1) translate(64)"/>
            <path d="M7.41 21.407l.03.18c.31 1.976 1.118 4.57 4.458 4.285l.214-.02-.05-.206c-.23-.901-3.29-3.513-4.36-4.249l-.321-.165.03.175M17.178 27.513c-.105.048-2.504 1.287-4.033 3.288l-.09.123.104.111c.107.116.362.314.525.366l.115.04.08-.092c1.462-1.823 3.978-4.057 6.665-4.337.425.415.775.73 1.348.924 1.528.512 4.161.261 6.263-.598l.496-.203-.522-.143c-4.99-1.35-8.79-.533-10.95.52M28.046 21.231l-.32.166c-1.067.74-4.132 3.35-4.356 4.248l-.05.207.209.02c3.341.286 4.145-2.31 4.461-4.285l.028-.18.028-.176" transform="translate(0 1) translate(64)"/>
        </g>
        <path stroke="#D6D6D6" stroke-linecap="round" d="M48 0L48 32" transform="translate(0 1)"/>
    </g>
</svg>
