<svg xmlns="http://www.w3.org/2000/svg" width="286" height="48" viewBox="0 0 286 48">
    <defs>
        <linearGradient id="kv76b2d9za" x1="56.088%" x2="100%" y1="81.668%" y2="81.668%">
            <stop offset="0%" stop-color="#ED1C24"/>
            <stop offset="100%" stop-color="#FFF" stop-opacity="0"/>
        </linearGradient>
        <linearGradient id="blhmdqbutb" x1="10.322%" x2="88.651%" y1="49.953%" y2="49.953%">
            <stop offset="0%" stop-color="#ED1C24"/>
            <stop offset="100%" stop-color="#FFCB05"/>
        </linearGradient>
        <linearGradient id="13r1nngcsc" x1="50.002%" x2="50.002%" y1="-.786%" y2="35.658%">
            <stop offset="0%" stop-color="#E39717"/>
            <stop offset="12.36%" stop-color="#E8A116"/>
            <stop offset="43.44%" stop-color="#F4B710"/>
            <stop offset="73.21%" stop-color="#FCC509"/>
            <stop offset="100%" stop-color="#FFCB05"/>
        </linearGradient>
        <linearGradient id="zy26wcg08d" x1="34.979%" x2="47.912%" y1="24.367%" y2="60.204%">
            <stop offset="0%" stop-color="#E39717"/>
            <stop offset="10.13%" stop-color="#E8A116"/>
            <stop offset="35.61%" stop-color="#F4B710"/>
            <stop offset="60%" stop-color="#FCC509"/>
            <stop offset="81.96%" stop-color="#FFCB05"/>
            <stop offset="100%" stop-color="#FFCB05"/>
        </linearGradient>
    </defs>
    <g fill="none" fill-rule="evenodd">
        <g fill-rule="nonzero">
            <g fill="#002C76">
                <path d="M36.088 10.413c-.893.222-1.564.333-2.234.333-1.676 0-2.011-1.44-2.011-2.659 0-1.883.67-2.88 2.01-2.88.671 0 1.118.11 1.118.11l1.23.444V4.21l-.113-.111c-.446-.222-1.452-.554-2.681-.554-2.458 0-4.022 1.772-4.022 4.431 0 2.548 1.564 4.21 3.799 4.21 1.005 0 1.899-.222 3.24-.776l.223-.11-.335-1.219-.224.332zM7.821 6.093c1.117-.443 1.564-1.219 1.564-2.548 0-1.219-.558-2.216-1.564-2.548-.67-.332-1.34-.332-3.464-.332H0v1.218s1.006.111 1.34.222v10.192h3.464c1.676 0 2.458-.111 3.129-.443C9.05 11.3 9.72 10.303 9.72 8.974c.112-1.552-.558-2.549-1.899-2.881zM3.799 2.105h.67c.894 0 1.564 0 2.011.332.335.222.447.665.447 1.108 0 1.108-.335 1.662-1.676 1.772l-1.005.111-.447.776v-4.1zm2.793 8.198c-.559.443-1.34.443-2.346.443h-.447V6.979h.894c.893 0 1.564 0 2.01.333.336.332.56.775.56 1.44 0 .664-.224 1.218-.671 1.55zM76.31 6.093c1.118-.443 1.565-1.219 1.565-2.548 0-1.219-.559-2.216-1.564-2.548-.67-.332-1.34-.332-3.464-.332H68.49v1.218s1.005.111 1.34.222v10.192h3.464c1.676 0 2.458-.111 3.129-.443 1.117-.554 1.787-1.551 1.787-2.88.112-1.552-.558-2.549-1.9-2.881zM72.29 2.105h.67c.894 0 1.564 0 2.011.332.335.222.447.665.447 1.108 0 1.108-.335 1.662-1.676 1.772l-1.005.111-.447.776v-4.1zm2.793 8.198c-.559.443-1.34.443-2.346.443h-.447V6.979h.893c.894 0 1.565 0 2.012.333.335.332.558.775.558 1.44.112.664-.223 1.218-.67 1.55zM25.921 3.656c-.67 0-1.564.221-2.681.664v-.664l-3.464.443v1.218h1.34v6.869h2.347V5.76c.335-.111 1.006-.333 1.788-.333.335 0 .67.111.782.222.223.221.223.664.223 1.218v5.318h2.347V6.758c0-1.219-.112-1.662-.447-2.216-.559-.554-1.23-.886-2.235-.886zM41.228 3.656c-2.57 0-4.246 1.661-4.246 4.32 0 2.659 1.565 4.32 4.246 4.32 2.57 0 4.134-1.661 4.134-4.32 0-2.659-1.564-4.32-4.134-4.32zm0 7.2c-.782 0-1.788-.332-1.788-2.88s.894-2.88 1.788-2.88c.782 0 1.788.332 1.788 2.77-.112 2.658-1.006 2.99-1.788 2.99zM101.897 3.656c-2.57 0-4.246 1.661-4.246 4.32 0 2.659 1.564 4.32 4.246 4.32 2.57 0 4.246-1.661 4.246-4.32 0-2.659-1.565-4.32-4.246-4.32zm0 7.2c-.782 0-1.788-.332-1.788-2.88s.894-2.88 1.788-2.88c.782 0 1.788.332 1.788 2.77 0 2.658-.894 2.99-1.788 2.99zM111.729 10.635l-1.676.221c-.335 0-.447-.11-.559-.221 0-.11-.111-.11-.111-.776V5.317h2.346v-1.44h-2.346V1.662h-.335l-2.012.221V9.75c0 .886.112 1.44.447 1.883.335.443.894.665 1.676.665.782 0 1.564-.222 2.458-.554l.224-.111-.112-.997zM83.685 3.656c-2.57 0-4.246 1.661-4.246 4.32 0 2.659 1.565 4.32 4.246 4.32 2.57 0 4.134-1.661 4.134-4.32 0-2.659-1.564-4.32-4.134-4.32zm0 7.2c-.782 0-1.788-.332-1.788-2.88s.894-2.88 1.788-2.88c.782 0 1.788.332 1.788 2.77 0 2.658-.894 2.99-1.788 2.99zM94.411 4.32c-.559-.332-1.229-.443-1.788-.443-2.346 0-4.022 1.884-4.022 4.432 0 2.437 1.34 3.988 3.352 3.988.559 0 1.117-.111 2.346-.665v.665c0 1.44-.558 1.883-2.346 1.883-.782 0-1.9-.11-2.793-.332v1.44c1.787.332 2.458.443 3.352.443 1.117 0 2.122-.222 2.793-.554 1.005-.554 1.34-1.33 1.34-2.77V3.988H94.3v.332h.112zm0 6.204c-.447.11-.67.11-1.117.11-1.453 0-2.123-.885-2.123-2.547 0-1.773.894-2.659 2.346-2.659.224 0 .447 0 .894.111v4.985zM18.547 4.099h-2.235v.332c-.558-.332-1.117-.443-1.787-.443-2.235 0-3.91 1.773-3.91 4.431 0 2.437 1.228 3.988 3.351 3.988.559 0 1.23-.221 2.235-.886v.776l3.24-.333v-1.33h-.894V4.1zm-2.235 6.536c-.446.11-.67.11-1.117.11-1.452 0-2.234-.886-2.234-2.547 0-1.773.893-2.77 2.458-2.77.335 0 .447 0 .893.111v5.096zM120.332 4.099h-2.234v.332c-.56-.332-1.118-.443-1.788-.443-2.235 0-3.91 1.773-3.91 4.431 0 2.437 1.228 3.988 3.351 3.988.559 0 1.23-.221 2.235-.886v.776l3.24-.333v-1.33h-.894V4.1zm-2.346 6.536c-.447.11-.67.11-1.117.11-1.453 0-2.235-.886-2.235-2.547 0-1.773.894-2.77 2.458-2.77.335 0 .447 0 .894.111v5.096zM119.215 1.994L118.656.222 118.433.332 114.746 1.772 115.081 2.77zM56.535 0H56.2l-3.017.332v.997H54.3v2.66c-.894-.333-2.234-.555-3.352-.222-1.564.553-2.57 1.994-2.57 4.098 0 1.884.894 3.435 2.459 3.989 1.117.332 2.681 0 3.575-.444v.665l3.128-.443v-.997h-1.005c-.112 0 0-10.635 0-10.635zm-2.346 10.524c-1.006.332-2.235.443-2.905-.443-.447-.554-.559-1.33-.559-2.105v-.221c0-.887.223-1.44.67-1.994.67-.776 1.9-.665 2.794-.222.111 0 0 4.764 0 4.985zM62.121 3.656c-.558 0-1.005 0-1.452.221-1.676.554-2.682 1.994-2.682 4.21 0 1.994 1.006 3.545 2.682 4.099 1.452.443 3.575 0 5.028-.776h.111l-.335-1.218-.782.221c-1.117.333-2.57.887-3.464-.221-.446-.554-.558-1.44-.558-2.105l4.469.11h.67v-.664c-.111-3.988-3.575-3.877-3.687-3.877zm-1.676 3.323c0-.11.112-1.772 1.565-1.772 1.564 0 1.564 1.661 1.564 1.772h-3.129z" transform="translate(0 1) translate(0 7) translate(0 8)"/>
            </g>
            <g>
                <path fill="url(#kv76b2d9za)" d="M15.824.005C7.337.155.32 6.202.01 14.51c-.306 8.312 6.05 15.308 14.194 15.62 4.144.16 7.955-1.44 10.744-4.15 2.683-2.61 2.572-7.203.44-5.121-2.345 2.289-5.625 3.658-9.2 3.526-6.817-.25-12.136-5.868-11.882-12.547C4.543 5.641 10.565.736 15.953.44l.14-.439c-.089.005-.177.005-.27.005z" transform="translate(0 1) translate(0 7) translate(128)"/>
                <path fill="#FFCB05" d="M17.013.44c6.841.424 12.472 6.378-7.437 12.333 5.072 1.02 8.818 3.451 8.818 3.451C35.44 7.366 25.744-.028 16.1 0l-.139.44c.356-.024.707-.024 1.053 0z" transform="translate(0 1) translate(0 7) translate(128)"/>
                <path fill="url(#blhmdqbutb)" d="M8.67 3.57C10.82 1.738 13.489.58 16.022.437c.357-.02.709-.02 1.056.005 3.362.208 6.433 1.751 6.34 3.983L25.1 2.398C22.852.874 19.504-.01 16.16 0h-.269c-3.15.057-6.095.926-8.568 2.426L8.671 3.57z" transform="translate(0 1) translate(0 7) translate(128)"/>
                <path fill="url(#13r1nngcsc)" d="M24.349 23.535c-.005-.08-.283-2.047-.283-2.047-.69-4.674.274-9.202 7.292-9.575-10.18-4.986-16.949-.212-21.907.906 4.514.57 14.027 5.768 14.898 10.716z" transform="translate(0 1) translate(0 7) translate(128)"/>
                <path fill="url(#zy26wcg08d)" d="M27.704 13.275c-4.339 1.824-3.894 6.877-3.478 9.84.084.242.519 2.085-.486 4.01-1.245 2.164-3.264 3.8-7.154 4.859 9.97.472 21.378-9.303 11.118-18.71z" transform="translate(0 1) translate(0 7) translate(128)"/>
            </g>
        </g>
        <g fill="#00A3DA">
            <path d="M89.89 16.352c-1.229-.677-1.254-1.616-1.19-1.96.064-.35.31-.196.463-.196.807 0 1.66-.241 2.713-1.314 1.184-1.208 1.556-3.9-.264-5.649-1.965-1.888-4.052-1.559-5.396.137-.277.348-.95.605-1.533.585-.86-.033-.318.646-.318.788 0 .143-.131.241-.206.22-.293-.084-.176.351-.176.482 0 .132-.122.196-.183.196-.364 0-.269.328-.257.416.01.088-.019.24-.141.307-.115.063-.25.35-.25.569 0 .393.36.668.961 1.117.601.449.68.875.688 1.183.013.306.042.798.18 1.126.16.394.14 1.119-.695 1.152-1.014.037-2.82.851-2.977.906-.573.206-1.328.278-1.918.127-.323-.222-.627-.47-.915-.73-.116-.41.087-.852.295-1.148.344.339.843.316 1.13.328.282.01 1.675-.208 1.87-.274.199-.067.284-.043.405 0 .53.195 1.261.25 1.554-.765.294-1.02-.406-.734-.49-.69l-.165-.056c.128-.26-.064-.228-.176-.24-.285-.029-.66.273-.777.383-.121.11-.24.1-.282.078-.38-.19-1.502.082-1.853-.528.032-.163-.285-2.636-.446-3.064-.037-.091-.073-.24.04-.406.287-.427 1.074.034 1.5.024.513-.014.595-.227.732-.4.136-.169.236-.075.309-.12l.037-.247.158-.109.036-.307c.124-.191.47-.037.258-.536-.11-.274.048-.57.201-.768.25-.32 1.203-1.665-.481-3.062-1.614-1.337-3.242-1.23-4.292-.09-1.052 1.138-.525 2.802-.418 3.239.114.44-.202.837-.57 1.01-.284.135-.94.572-1.437 1.003.079-3.572 2.248-6.714 5.571-8.05.14.177.298.344.47.501-.369.27-1.176.995-1.176.995s.11.013.21.04l.223.066s.712-.609 1.047-.847c.26.195.542.36.845.493-.16.275-.569 1.036-.569 1.036l.18.113.135.103s.443-.832.61-1.11c.371.122.76.195 1.156.213V4.15c-.224-.01-.782-.03-1.008-.055l-.144-.012.083.118.146.255.02.034.036.001c.164.015.676.035.867.038v2.78h.385v-.637c.565-.025 1.035-.064 1.602-.115l.025-.001.499-.446-.27.027c-.6.077-1.128.113-1.608.142l-.248.011V4.53c.697-.017 1.398-.112 2.078-.294.188.46.54 1.574.54 1.574l.362-.114s-.349-1.104-.535-1.566c.577-.179 1.136-.415 1.666-.706.425.524.794 1.097 1.1 1.705-.277.127-.778.305-.778.305.403.041.706.135.706.135l.231-.098.104.242.499.22-.056-.14-.207-.486c.531-.26 1.05-.56 1.55-.895.944 1.447 1.444 3.126 1.444 4.861 0 2.885-1.378 5.454-3.514 7.08zM83.537.434c-.546.24-1.07.528-1.562.862-.152-.13-.286-.271-.41-.419.632-.222 1.3-.37 1.972-.443zm-.531 1.507c-.252-.105-.49-.24-.712-.399.499-.33 1.037-.613 1.6-.844-.317.397-.618.812-.888 1.243zM84.316.777v1.464c-.324-.015-.64-.074-.944-.168.282-.446.598-.878.944-1.296zm.385 1.845c.398-.015.79-.09 1.17-.213.28.47.533.964.756 1.474-.63.162-1.277.252-1.926.267V2.622zm0-1.863c.339.413.66.85.96 1.314-.314.094-.636.153-.96.169V.759zm2.04.783c-.228.16-.466.294-.715.399-.269-.424-.57-.843-.895-1.244.562.23 1.1.513 1.61.845zm.724-.662c-.128.15-.265.29-.409.42C86.563.965 86.042.677 85.5.438c.675.075 1.331.22 1.965.443zm1.096 2.248c-.5.267-1.024.486-1.56.652-.23-.516-.49-1.025-.774-1.513.295-.13.583-.298.843-.492.544.392 1.047.85 1.491 1.353zm-.717-2.106c.737.298 1.438.7 2.075 1.193-.318.263-.662.503-1.02.72-.454-.521-.969-.996-1.526-1.41.171-.157.325-.324.47-.503zm3.9 3.077c-.474.32-.978.607-1.498.864-.302-.613-.673-1.196-1.104-1.732.38-.233.743-.49 1.08-.774.575.482 1.089 1.034 1.523 1.642zM84.514 0c-5.118 0-9.277 4.16-9.277 9.272 0 5.115 4.159 9.274 9.277 9.274 5.108 0 9.27-4.159 9.27-9.274C93.782 4.16 89.62 0 84.512 0zM74.397 2.464l-.146.129c-.54.48-1.789 1.75-1.596 3.149l.022.096.058.276.175-.16c.76-.696 1.332-1.874 1.564-3.236l.068-.384-.145.13M71.87 4.874l-.059.168c-.086.233-.245.72-.33 1.373-.113.92-.092 2.22.709 3.195l.09.115.09.117.12-.589c.133-1.047-.037-3.235-.425-4.215l-.13-.333-.064.169M70.952 8.64l-.014.17c-.065.94-.016 3.251 1.857 4.48l.218.144-.009-.263c-.031-.877-1.054-3.5-1.826-4.438l-.214-.264-.012.17M71.272 12.78l.033.158c.273 1.328 1.538 3.479 3.48 4.105l.266.088-.094-.262c-.363-.994-2.238-3.312-3.446-4.074l-.269-.173.03.158M75.183 4.467l-.155.091c-1.448.886-2.124 1.956-2.075 3.279l.014.303.213-.176c.782-.65 1.76-2.308 2.05-3.25l.107-.34-.154.093M74.33 7.362l-.11.103c-.369.353-1.571 1.632-1.468 3.213.016.24.073.501.168.774l.082.252.158-.216c.576-.809 1.332-2.937 1.29-3.93l-.01-.3-.11.104M74.388 10.105l-.076.118c-.606.9-.914 1.824-.894 2.673.014.628.214 1.229.594 1.788l.127.185.107-.195c.26-.49.47-2.086.439-3.347-.01-.446-.054-.813-.133-1.066l-.074-.278-.09.122M75.095 13.036l-.036.124c-.185.588-.27 1.158-.254 1.698.035 1.224.576 2.185 1.619 2.849l.171.11.038-.237.011-.188c-.025-.996-.768-3.507-1.348-4.272l-.161-.21-.04.126M73.052 16.924l.075.125c.781 1.308 2.106 2.995 4.58 2.561l.21-.034-.118-.173c-.463-.688-3.468-2.385-4.532-2.557l-.29-.048.075.126M76.716 20.244l-.39.108.374.152c1.58.644 3.55.832 4.692.449.43-.148.695-.382 1.013-.692 2.013.209 3.9 1.884 5.002 3.249l.057.071.086-.03c.125-.041.315-.188.394-.274l.077-.085-.068-.091c-1.146-1.5-2.943-2.43-3.024-2.466-1.618-.792-4.467-1.405-8.213-.39" transform="translate(0 1) translate(192 11)"/>
            <path d="M76.8 16.055l.023.135c.232 1.482.838 3.428 3.343 3.214l.16-.015-.037-.155c-.173-.675-2.468-2.634-3.27-3.186l-.241-.124.022.131M84.126 20.635c-.079.035-1.878.965-3.025 2.465l-.067.093.077.083c.081.087.272.236.394.275l.087.03.06-.069c1.096-1.368 2.983-3.043 4.998-3.253.32.312.582.547 1.011.693 1.146.384 3.121.196 4.698-.449l.371-.152-.39-.107c-3.743-1.013-6.594-.4-8.214.39M92.277 15.924l-.24.123c-.8.555-3.099 2.514-3.267 3.187l-.038.155.157.015c2.506.215 3.109-1.732 3.346-3.213l.02-.136.022-.131M29.216 20.919h2.631V7.007h-2.631V20.92zm-.25-17.152H32.1V.911h-3.132v2.856zM9.34 7.022h2.63v13.913H9.397v-2.051H9.34c-1.054 1.745-2.828 2.464-4.764 2.464-2.91 0-4.575-2.215-4.575-5.014V7.022h2.633v8.234c0 2.407.555 4.181 3.076 4.181 1.078 0 2.549-.553 3.104-1.994.501-1.303.526-2.938.526-3.272v-7.15M17.231 9.073h.054c.886-1.746 2.828-2.465 4.21-2.465.97 0 5.267.249 5.267 4.709v9.618H24.13v-8.757c0-2.3-.97-3.548-3.189-3.548 0 0-1.44-.083-2.548 1.025-.386.388-1.108.997-1.108 3.713v7.567h-2.631V7.021h2.577v2.052M42.873 11.483c-.14-1.736-.963-2.943-2.838-2.943-2.501 0-3.468 2.17-3.468 5.424 0 3.247.967 5.422 3.468 5.422 1.734 0 2.81-1.126 2.945-3.109h2.62c-.223 3.109-2.532 5.01-5.591 5.01-4.432 0-6.194-3.138-6.194-7.215 0-4.051 2.038-7.436 6.416-7.436 2.92 0 5.12 1.847 5.252 4.847h-2.61M56.521 12.642c.06-2.312-.99-4.103-3.525-4.103-2.176 0-3.466 1.84-3.466 4.103h6.991zM49.53 14.46c-.193 2.421.798 4.929 3.466 4.929 2.038 0 3.06-.797 3.358-2.812h2.76c-.416 3.144-2.843 4.71-6.141 4.71-4.437 0-6.2-3.135-6.2-7.212 0-4.053 2.04-7.437 6.419-7.437 4.129.086 6.083 2.7 6.083 6.53v1.292H49.53zM62.236 20.872V8.87h-2.375V7.046h2.375V4.077c.088-3.03 2.37-3.827 4.327-3.827.63 0 1.238.164 1.872.274v2.175c-.444-.024-.881-.085-1.323-.085-1.484 0-2.343.39-2.258 1.902v2.53h3.195V8.87h-3.195v12.002h-2.618" transform="translate(0 1) translate(192 11)"/>
        </g>
        <path stroke="#D6D6D6" stroke-linecap="round" d="M175.5 0L175.5 46" transform="translate(0 1)"/>
    </g>
</svg>
