<svg xmlns="http://www.w3.org/2000/svg" width="24" height="24" viewBox="0 0 24 24">
    <g fill="none" fill-rule="evenodd">
        <path d="M0 0H24V24H0z"/>
        <path fill="#0040a8" fill-rule="nonzero" d="M18.25 20.5c1.243 0 1.243 1.5 0 1.5h-15c-1.243 0-1.25-1.5 0-1.5zm2.145-17.756l.144.135.134.144c1.035 1.178.99 2.974-.134 4.098l-9.546 9.546c-.115.115-.264.19-.425.212l-3.712.531c-.495.071-.919-.353-.848-.848l.53-3.713c.023-.16.097-.31.212-.424l9.546-9.546c1.125-1.125 2.92-1.17 4.099-.135zm-4.63 2.787l-7.778 7.778-.353 2.475 2.475-.354 7.777-7.778-2.12-2.121zm1.592-1.592l-.53.531 2.12 2.121.53-.53c.587-.586.587-1.536 0-2.122-.585-.585-1.535-.585-2.12 0z"/>
    </g>
</svg>
