<svg width="48" height="48" xmlns="http://www.w3.org/2000/svg">
    <g fill-rule="nonzero" fill="none">
        <circle fill="#FFF" cx="24" cy="24" r="24"/>
        <path d="M24 12c6.627 0 12 5.373 12 12s-5.373 12-12 12-12-5.373-12-12 5.373-12 12-12zm0 1.5c-5.799 0-10.5 4.701-10.5 10.5S18.201 34.5 24 34.5 34.5 29.799 34.5 24 29.799 13.5 24 13.5zm-.75 8.25a1.5 1.5 0 0 1 1.5 1.5V27c0 .414.336.75.75.75h.75a.75.75 0 1 1 0 1.5h-.75A2.25 2.25 0 0 1 23.25 27v-3.75h-.75a.75.75 0 1 1 0-1.5zm.375-3.75.123.007a1.125 1.125 0 1 1-.123-.007z" fill="#5C5C5C"/>
    </g>
</svg>
