<svg width="48" height="48" xmlns="http://www.w3.org/2000/svg">
    <g fill-rule="nonzero" fill="none">
        <circle fill="#FFF" cx="24" cy="24" r="24"/>
        <path d="m29.024 35.787-.032.03a.749.749 0 0 1-.175.113l.061-.032a.752.752 0 0 1-.742.008l-.014-.008-.02-.012a.746.746 0 0 1-.056-.039l.076.05a.755.755 0 0 1-.275-.278l.005.009a1.855 1.855 0 0 0-3.115-.138l-.084.129a.746.746 0 0 1-.116.155l-.013.013a.744.744 0 0 1-.207.143l.061-.032a.752.752 0 0 1-.742.008l-.014-.008-.02-.012a.746.746 0 0 1-.056-.039l.076.05a.755.755 0 0 1-.275-.278l.005.009a1.855 1.855 0 0 0-3.115-.138l-.09.138a.75.75 0 0 1-1.231.093l-.064-.093a1.855 1.855 0 0 0-3.115-.138l-.09.138c-.367.63-1.302.411-1.39-.272l-.007-.106v-22.5c0-.765 1.01-1.039 1.397-.379.334.57.944.92 1.601.922a1.864 1.864 0 0 0 1.605-.922.75.75 0 0 1 1.294 0c.334.57.944.92 1.601.922a1.864 1.864 0 0 0 1.605-.922.75.75 0 0 1 1.294 0c.334.57.944.92 1.601.922a1.864 1.864 0 0 0 1.605-.922.75.75 0 0 1 1.294 0c.334.57.944.92 1.601.922a1.864 1.864 0 0 0 1.605-.922c.368-.629 1.302-.41 1.39.273l.007.106v22.5c0 .73-.918 1.012-1.339.466l-.059-.088a1.855 1.855 0 0 0-3.115-.138l-.084.129a.746.746 0 0 1-.116.155l-.013.013zM28.5 13.924a3.367 3.367 0 0 1-2.042.862l-.21.007a3.362 3.362 0 0 1-2.074-.722L24 13.924a3.367 3.367 0 0 1-2.042.862l-.21.007a3.362 3.362 0 0 1-2.074-.722l-.174-.147a3.367 3.367 0 0 1-2.042.862l-.21.007a3.36 3.36 0 0 1-1.397-.307l-.101-.05v19.127l.1-.05c.37-.17.774-.273 1.19-.299l.21-.006c.766 0 1.494.26 2.077.72l.173.145a3.363 3.363 0 0 1 2.04-.859l.21-.006c.844 0 1.642.317 2.25.867a3.351 3.351 0 0 1 4.5 0 3.351 3.351 0 0 1 3.65-.561l.1.05V14.435l-.101.05c-.37.17-.773.274-1.19.301l-.21.007a3.362 3.362 0 0 1-2.075-.722l-.174-.147zm-.75 7.546a.75.75 0 0 1 .743.648l.007.102v.353a2.973 2.973 0 0 1 1.705 1.098.75.75 0 0 1-1.12.991l-.074-.083A1.49 1.49 0 0 0 27.75 24c-.764 0-1.313.411-1.313.797 0 .36.478.743 1.163.793l.15.005c1.514 0 2.812.974 2.812 2.297 0 1.103-.902 1.963-2.061 2.219l-.001.358a.75.75 0 0 1-1.493.102L27 30.469v-.352a2.971 2.971 0 0 1-1.705-1.1.75.75 0 0 1 1.12-.99l.074.083c.29.383.75.6 1.261.579.764 0 1.312-.411 1.312-.797 0-.36-.478-.742-1.162-.792l-.15-.005c-1.514 0-2.813-.974-2.813-2.298 0-1.103.903-1.964 2.063-2.219v-.358a.75.75 0 0 1 .75-.75zm-6 5.53a.75.75 0 0 1 .102 1.493l-.102.007H18a.75.75 0 0 1-.102-1.493L18 27h3.75zm0-4.5a.75.75 0 0 1 .102 1.493L21.75 24H18a.75.75 0 0 1-.102-1.493L18 22.5h3.75zM24 18a.75.75 0 0 1 .102 1.493L24 19.5h-6a.75.75 0 0 1-.102-1.493L18 18h6zm6 0a.75.75 0 0 1 .102 1.493L30 19.5h-1.5a.75.75 0 0 1-.102-1.493L28.5 18H30z" fill="#5C5C5C"/>
    </g>
</svg>
