<svg xmlns="http://www.w3.org/2000/svg" width="77" height="24" viewBox="0 0 77 24">
    <g fill="none" fill-rule="nonzero">
        <path fill="#7DD7C2" d="M40.588 5.706a5.799 5.799 0 0 0-3.174-.908c-.8 0-1.589.196-2.296.573a5.317 5.317 0 0 0-1.712 1.342V6.61a1.533 1.533 0 0 0-.433-1.11 1.56 1.56 0 0 0-2.188 0 1.54 1.54 0 0 0-.433 1.11v15.674c-.015.42.141.826.433 1.126.29.29.687.447 1.096.435.41.012.807-.15 1.092-.448.288-.297.444-.698.433-1.113V17.27a6.09 6.09 0 0 0 1.794 1.215c.722.334 1.509.506 2.305.504a5.659 5.659 0 0 0 3.116-.907 6.306 6.306 0 0 0 2.227-2.532 8.068 8.068 0 0 0 .813-3.67 7.88 7.88 0 0 0-.82-3.656 6.342 6.342 0 0 0-2.253-2.518zm-.89 9.231a3.55 3.55 0 0 1-2.685 1.229 3.55 3.55 0 0 1-2.684-1.229c-.695-.818-1.043-1.84-1.044-3.068 0-1.227.347-2.246 1.044-3.056a3.39 3.39 0 0 1 2.698-1.214 3.354 3.354 0 0 1 2.684 1.214c.688.811 1.032 1.83 1.03 3.056 0 1.226-.349 2.249-1.043 3.068zM57.074 4.756a.906.906 0 0 0 .55.232 1.5 1.5 0 0 0 1.147-.435l1.934-2.148a1.95 1.95 0 0 0 .484-1.1 1.188 1.188 0 0 0-.319-.92c-.232-.239-.577-.358-1.035-.358-.288 0-.566.098-.789.28-.25.204-.458.457-.611.742l-1.478 2.61a.945.945 0 0 0-.154.483.681.681 0 0 0 .27.614zM76.275 12.668a3.927 3.927 0 0 0-1.553-1.252 16.49 16.49 0 0 0-2.29-.792c-.66-.188-1.17-.346-1.539-.475a2.398 2.398 0 0 1-.902-.536 1.205 1.205 0 0 1-.357-.91c0-.936.645-1.404 1.934-1.404a3.892 3.892 0 0 1 1.64.336c.459.202.864.508 1.185.894.243.241.574.37.915.358.296.003.584-.096.815-.28.307-.228.486-.59.483-.972 0-.337-.118-.663-.334-.92a4.523 4.523 0 0 0-2.035-1.433 7.373 7.373 0 0 0-2.597-.485 5.91 5.91 0 0 0-2.405.503 4.62 4.62 0 0 0-1.837 1.407 3.386 3.386 0 0 0-.7 2.134c0 .938.222 1.684.668 2.238.427.537.977.962 1.603 1.24.782.328 1.586.601 2.405.817.733.17 1.444.424 2.118.759.42.214.68.652.669 1.126 0 .953-.662 1.457-1.986 1.51a4.692 4.692 0 0 1-1.996-.384 5.37 5.37 0 0 1-1.592-1.175 1.434 1.434 0 0 0-1.02-.486 1.332 1.332 0 0 0-.736.23c-.445.306-.668.68-.668 1.124-.01.274.07.544.229.767a5.2 5.2 0 0 0 2.367 1.816c.999.381 2.06.572 3.128.562a6.13 6.13 0 0 0 2.38-.485 4.667 4.667 0 0 0 1.896-1.42c.49-.62.751-1.39.738-2.182.007-.924-.202-1.667-.626-2.23zM27.777 5.048h-2.03a1.409 1.409 0 0 0-.404.083c-.053.015-.117.013-.167.033a1.497 1.497 0 0 0-.808.84c-.071.174-.108.36-.11.548v6.55c0 1.041-.23 1.813-.687 2.315-.458.502-1.153.754-2.086.755-.915 0-1.603-.251-2.061-.755-.46-.503-.688-1.275-.688-2.314V6.608a1.533 1.533 0 0 0-.433-1.111 1.56 1.56 0 0 0-2.188 0 1.533 1.533 0 0 0-.433 1.11v6.496c0 1.841.501 3.282 1.504 4.321 1.002 1.04 2.435 1.56 4.3 1.56 1.867 0 3.304-.52 4.313-1.56s1.514-2.48 1.515-4.321V8.108h.464c.824 0 1.492-.671 1.492-1.499v-.064c0-.397-.158-.778-.438-1.059-.28-.28-.66-.438-1.055-.438zM49.529.027h-2.03c-.823 0-1.491.67-1.491 1.499v15.861a1.53 1.53 0 0 0 .433 1.111c.277.294.665.457 1.069.449a1.52 1.52 0 0 0 1.105-.448c.293-.295.454-.696.446-1.112v-14.3h.468c.824 0 1.491-.672 1.491-1.5v-.061c0-.828-.667-1.5-1.491-1.5z"/>
        <path fill="#7DD7C2" d="M64.204 5.048h-2.03c-.018 0-.033.01-.051.01-.39 0-.763.159-1.036.439-.289.295-.446.696-.434 1.11v6.496c0 1.04-.229 1.812-.687 2.314-.457.502-1.153.754-2.086.755-.916 0-1.604-.251-2.063-.755-.458-.503-.687-1.275-.686-2.314V6.608a1.538 1.538 0 0 0-.43-1.111 1.561 1.561 0 0 0-2.19 0 1.533 1.533 0 0 0-.433 1.11v6.496c0 1.841.5 3.282 1.503 4.321 1.002 1.04 2.436 1.56 4.301 1.56 1.865 0 3.303-.52 4.313-1.56 1.01-1.04 1.514-2.48 1.513-4.321V8.108h.501c.824 0 1.492-.671 1.492-1.499v-.064c0-.398-.159-.78-.44-1.06a1.488 1.488 0 0 0-1.057-.437zM12.267 8.482c.927 0 1.678-.755 1.678-1.686 0-.932-.751-1.687-1.678-1.687H6.973c-.444 0-.87.178-1.184.494a1.682 1.682 0 0 0-.486 1.193v6.513c.004 3.132 2.53 5.67 5.647 5.674.927 0 1.679-.755 1.679-1.686 0-.932-.752-1.687-1.679-1.687a2.288 2.288 0 0 1-1.623-.672 2.31 2.31 0 0 1-.675-1.629V8.482h3.615z"/>
        <path fill="#F3D000" d="M6.973 0c-.444 0-.87.178-1.184.495a1.682 1.682 0 0 0-.486 1.192v3.422H1.68C.752 5.109 0 5.864 0 6.796c0 .931.752 1.686 1.679 1.686h5.294a1.683 1.683 0 0 0 1.67-1.678V1.687C8.644.758 7.898.005 6.974 0z" style="mix-blend-mode:multiply"/>
    </g>
</svg>
