<svg xmlns="http://www.w3.org/2000/svg" width="24" height="24" viewBox="0 0 24 24">
     <path fill-rule="nonzero" d="M12.56 19.563H3.54c-.85 0-1.54-.709-1.54-1.579v-1.97c0-.87.69-1.58 1.54-1.58h9.02v-2.856c0-1.316 1.485-2.054 2.493-1.24l6.72 5.42a1.603 1.603 0 0 1 0 2.481l-6.72 5.421c-1.008.813-2.493.076-2.493-1.24v-2.857zm.34-3.943H3.54a.387.387 0 0 0-.38.393v1.971c0 .218.171.393.38.393h9.36a.83.83 0 0 1 .82.84v3.203c0 .328.366.51.614.31l6.72-5.422a.4.4 0 0 0 0-.62l-6.72-5.42c-.247-.2-.614-.018-.614.31v3.203a.83.83 0 0 1-.82.84zm-2.1-6.055v2.857c0 1.315-1.484 2.054-2.492 1.24l-6.72-5.42a1.603 1.603 0 0 1 0-2.481L8.307.34C9.318-.474 10.8.266 10.8 1.58v2.857h9.02c.85 0 1.54.709 1.54 1.579v1.97c0 .87-.69 1.58-1.54 1.58H10.8zM2.307 6.691a.4.4 0 0 0 0 .62l6.72 5.421c.247.2.613.018.613-.31V9.22a.83.83 0 0 1 .82-.84h9.36c.21 0 .38-.175.38-.392V6.016a.387.387 0 0 0-.38-.393h-9.36a.83.83 0 0 1-.82-.84V1.58c0-.327-.364-.51-.614-.31l-6.72 5.421z"/>
</svg>
