<svg xmlns="http://www.w3.org/2000/svg" width="100" height="72" viewBox="0 0 100 72">
    <g fill="none" fill-rule="evenodd">
        <path d="M0 0H100V72H0z"/>
        <g>
            <g stroke="#FFF">
                <path fill="#6680AD" fill-rule="nonzero" d="M58.324 11.347C38.058 7.32 39.37 7.53 38.911 7.607c-.147.024-1.946.386-6.139 1.224C31.015 3.763 26.192.114 20.533.114 14.87.114 10.043 3.77 8.29 8.846L2.091 7.614C1.011 7.4 0 8.226 0 9.331v41.066c0 .835.59 1.554 1.409 1.717 20.095 3.994 18.78 3.736 18.913 3.752.423.052-.883.268 18.88-3.684l18.44 3.665c1.081.215 2.091-.613 2.091-1.716V13.064c0-.835-.59-1.554-1.409-1.717zm-37.79-7.733c5.21 0 9.45 4.24 9.45 9.45 0 4.396-7.035 15.556-9.45 19.249-2.413-3.689-9.45-14.852-9.45-19.249 0-5.21 4.239-9.45 9.45-9.45zM3.5 11.463l4.108.816c-.016.26-.025.521-.025.785 0 2.918 1.91 7.628 5.837 14.398 2.293 3.953 4.553 7.347 5.363 8.542v15.994L3.5 48.961V11.463zm18.783 24.541c.81-1.195 3.07-4.59 5.364-8.542 3.927-6.77 5.836-11.48 5.836-14.398 0-.269-.009-.536-.025-.8l3.992-.799v37.498l-15.167 3.033V36.004zm33.95 15.995L40.95 48.96V11.463L56.233 14.5V52z" transform="translate(13 8)"/>
                <path fill="#F69B31" d="M20.533 18.547c3.024 0 5.484-2.46 5.484-5.483 0-3.024-2.46-5.483-5.484-5.483-3.023 0-5.483 2.46-5.483 5.483 0 3.024 2.46 5.483 5.483 5.483zm0-7.466c1.094 0 1.984.89 1.984 1.983 0 1.094-.89 1.983-1.984 1.983-1.093 0-1.983-.89-1.983-1.983 0-1.094.89-1.983 1.983-1.983z" transform="translate(13 8)"/>
            </g>
            <g>
                <path fill="#FFF" d="M13.5 1.564L10.25 3.922 1.704 21.879 3.829 25.641 23.038 25.641 25.515 21.879 15.75 2.281z" transform="translate(13 8) translate(47 29)"/>
                <path fill="#F69B31" fill-rule="nonzero" stroke="#FFF" stroke-width=".8" d="M13.5 0c1.913 0 3.661 1.08 4.516 2.791h0l8.452 16.904c.782 1.565.698 3.424-.222 4.912C25.326 26.094 23.7 27 21.952 27h0H5.048c-1.75 0-3.374-.906-4.294-2.393-.92-1.488-1.004-3.347-.222-4.912h0L8.984 2.792C9.84 1.08 11.587 0 13.5 0zm0 3c-.776 0-1.485.438-1.832 1.133h0L3.216 21.037c-.317.634-.283 1.388.09 1.992.373.604 1.032.971 1.742.971h16.904c.71 0 1.369-.367 1.742-.971s.407-1.358.09-1.992h0L15.332 4.132C14.985 3.438 14.276 3 13.5 3zm0 15l.245.013c1.127.122 2.005 1.077 2.005 2.237 0 1.243-1.007 2.25-2.25 2.25s-2.25-1.007-2.25-2.25c0-1.16.878-2.115 2.005-2.237L13.5 18zm0-10.5c.76 0 1.387.564 1.486 1.296L15 9v6c0 .828-.672 1.5-1.5 1.5-.76 0-1.387-.564-1.486-1.296L12 15V9c0-.828.672-1.5 1.5-1.5z" transform="translate(13 8) translate(47 29)"/>
            </g>
        </g>
    </g>
</svg>
