<svg xmlns="http://www.w3.org/2000/svg" width="161" height="32" viewBox="0 0 161 32">
    <defs>
        <linearGradient id="5uycaxthia" x1="56.088%" x2="94.609%" y1="81.668%" y2="81.668%">
            <stop offset="0%" stop-color="#ED1C24"/>
            <stop offset="94.816%" stop-color="#FFF" stop-opacity="0"/>
        </linearGradient>
        <linearGradient id="dyff5adbdb" x1="10.322%" x2="88.651%" y1="49.953%" y2="49.953%">
            <stop offset="0%" stop-color="#ED1C24"/>
            <stop offset="100%" stop-color="#FFCB05"/>
        </linearGradient>
        <linearGradient id="rbtu73uxmc" x1="50.002%" x2="50.002%" y1="-.786%" y2="35.658%">
            <stop offset="0%" stop-color="#E39717"/>
            <stop offset="12.36%" stop-color="#E8A116"/>
            <stop offset="43.44%" stop-color="#F4B710"/>
            <stop offset="73.21%" stop-color="#FCC509"/>
            <stop offset="100%" stop-color="#FFCB05"/>
        </linearGradient>
        <linearGradient id="9mcm8z29wd" x1="34.979%" x2="47.912%" y1="24.367%" y2="60.204%">
            <stop offset="0%" stop-color="#E39717"/>
            <stop offset="10.13%" stop-color="#E8A116"/>
            <stop offset="35.61%" stop-color="#F4B710"/>
            <stop offset="60%" stop-color="#FCC509"/>
            <stop offset="81.96%" stop-color="#FFCB05"/>
            <stop offset="100%" stop-color="#FFCB05"/>
        </linearGradient>
    </defs>
    <g fill="none" fill-rule="evenodd">
        <g fill-rule="nonzero">
            <g>
                <g>
                    <g fill="#002C76">
                        <path d="M36.088 10.413c-.893.222-1.564.333-2.234.333-1.676 0-2.011-1.44-2.011-2.659 0-1.883.67-2.88 2.01-2.88.671 0 1.118.11 1.118.11l1.23.444V4.21l-.113-.111c-.446-.222-1.452-.554-2.681-.554-2.458 0-4.022 1.772-4.022 4.431 0 2.548 1.564 4.21 3.799 4.21 1.005 0 1.899-.222 3.24-.776l.223-.11-.335-1.219-.224.332zM7.821 6.093c1.117-.443 1.564-1.219 1.564-2.548 0-1.219-.558-2.216-1.564-2.548-.67-.332-1.34-.332-3.464-.332H0v1.218s1.006.111 1.34.222v10.192h3.464c1.676 0 2.458-.111 3.129-.443C9.05 11.3 9.72 10.303 9.72 8.974c.112-1.552-.558-2.549-1.899-2.881zM3.799 2.105h.67c.894 0 1.564 0 2.011.332.335.222.447.665.447 1.108 0 1.108-.335 1.662-1.676 1.772l-1.005.111-.447.776v-4.1zm2.793 8.198c-.559.443-1.34.443-2.346.443h-.447V6.979h.894c.893 0 1.564 0 2.01.333.336.332.56.775.56 1.44 0 .664-.224 1.218-.671 1.55zM76.31 6.093c1.118-.443 1.565-1.219 1.565-2.548 0-1.219-.559-2.216-1.564-2.548-.67-.332-1.34-.332-3.464-.332H68.49v1.218s1.005.111 1.34.222v10.192h3.464c1.676 0 2.458-.111 3.129-.443 1.117-.554 1.787-1.551 1.787-2.88.112-1.552-.558-2.549-1.9-2.881zM72.29 2.105h.67c.894 0 1.564 0 2.011.332.335.222.447.665.447 1.108 0 1.108-.335 1.662-1.676 1.772l-1.005.111-.447.776v-4.1zm2.793 8.198c-.559.443-1.34.443-2.346.443h-.447V6.979h.893c.894 0 1.565 0 2.012.333.335.332.558.775.558 1.44.112.664-.223 1.218-.67 1.55zM25.921 3.656c-.67 0-1.564.221-2.681.664v-.664l-3.464.443v1.218h1.34v6.869h2.347V5.76c.335-.111 1.006-.333 1.788-.333.335 0 .67.111.782.222.223.221.223.664.223 1.218v5.318h2.347V6.758c0-1.219-.112-1.662-.447-2.216-.559-.554-1.23-.886-2.235-.886zM41.228 3.656c-2.57 0-4.246 1.661-4.246 4.32 0 2.659 1.565 4.32 4.246 4.32 2.57 0 4.134-1.661 4.134-4.32 0-2.659-1.564-4.32-4.134-4.32zm0 7.2c-.782 0-1.788-.332-1.788-2.88s.894-2.88 1.788-2.88c.782 0 1.788.332 1.788 2.77-.112 2.658-1.006 2.99-1.788 2.99zM101.897 3.656c-2.57 0-4.246 1.661-4.246 4.32 0 2.659 1.564 4.32 4.246 4.32 2.57 0 4.246-1.661 4.246-4.32 0-2.659-1.565-4.32-4.246-4.32zm0 7.2c-.782 0-1.788-.332-1.788-2.88s.894-2.88 1.788-2.88c.782 0 1.788.332 1.788 2.77 0 2.658-.894 2.99-1.788 2.99zM111.729 10.635l-1.676.221c-.335 0-.447-.11-.559-.221 0-.11-.111-.11-.111-.776V5.317h2.346v-1.44h-2.346V1.662h-.335l-2.012.221V9.75c0 .886.112 1.44.447 1.883.335.443.894.665 1.676.665.782 0 1.564-.222 2.458-.554l.224-.111-.112-.997zM83.685 3.656c-2.57 0-4.246 1.661-4.246 4.32 0 2.659 1.565 4.32 4.246 4.32 2.57 0 4.134-1.661 4.134-4.32 0-2.659-1.564-4.32-4.134-4.32zm0 7.2c-.782 0-1.788-.332-1.788-2.88s.894-2.88 1.788-2.88c.782 0 1.788.332 1.788 2.77 0 2.658-.894 2.99-1.788 2.99zM94.411 4.32c-.559-.332-1.229-.443-1.788-.443-2.346 0-4.022 1.884-4.022 4.432 0 2.437 1.34 3.988 3.352 3.988.559 0 1.117-.111 2.346-.665v.665c0 1.44-.558 1.883-2.346 1.883-.782 0-1.9-.11-2.793-.332v1.44c1.787.332 2.458.443 3.352.443 1.117 0 2.122-.222 2.793-.554 1.005-.554 1.34-1.33 1.34-2.77V3.988H94.3v.332h.112zm0 6.204c-.447.11-.67.11-1.117.11-1.453 0-2.123-.885-2.123-2.547 0-1.773.894-2.659 2.346-2.659.224 0 .447 0 .894.111v4.985zM18.547 4.099h-2.235v.332c-.558-.332-1.117-.443-1.787-.443-2.235 0-3.91 1.773-3.91 4.431 0 2.437 1.228 3.988 3.351 3.988.559 0 1.23-.221 2.235-.886v.776l3.24-.333v-1.33h-.894V4.1zm-2.235 6.536c-.446.11-.67.11-1.117.11-1.452 0-2.234-.886-2.234-2.547 0-1.773.893-2.77 2.458-2.77.335 0 .447 0 .893.111v5.096zM120.332 4.099h-2.234v.332c-.56-.332-1.118-.443-1.788-.443-2.235 0-3.91 1.773-3.91 4.431 0 2.437 1.228 3.988 3.351 3.988.559 0 1.23-.221 2.235-.886v.776l3.24-.333v-1.33h-.894V4.1zm-2.346 6.536c-.447.11-.67.11-1.117.11-1.453 0-2.235-.886-2.235-2.547 0-1.773.894-2.77 2.458-2.77.335 0 .447 0 .894.111v5.096zM119.215 1.994L118.656.222 118.433.332 114.746 1.772 115.081 2.77zM56.535 0H56.2l-3.017.332v.997H54.3v2.66c-.894-.333-2.234-.555-3.352-.222-1.564.553-2.57 1.994-2.57 4.098 0 1.884.894 3.435 2.459 3.989 1.117.332 2.681 0 3.575-.444v.665l3.128-.443v-.997h-1.005c-.112 0 0-10.635 0-10.635zm-2.346 10.524c-1.006.332-2.235.443-2.905-.443-.447-.554-.559-1.33-.559-2.105v-.221c0-.887.223-1.44.67-1.994.67-.776 1.9-.665 2.794-.222.111 0 0 4.764 0 4.985zM62.121 3.656c-.558 0-1.005 0-1.452.221-1.676.554-2.682 1.994-2.682 4.21 0 1.994 1.006 3.545 2.682 4.099 1.452.443 3.575 0 5.028-.776h.111l-.335-1.218-.782.221c-1.117.333-2.57.887-3.464-.221-.446-.554-.558-1.44-.558-2.105l4.469.11h.67v-.664c-.111-3.988-3.575-3.877-3.687-3.877zm-1.676 3.323c0-.11.112-1.772 1.565-1.772 1.564 0 1.564 1.661 1.564 1.772h-3.129z" transform="translate(-544 -24) translate(.5) translate(544 24) translate(0 8)"/>
                    </g>
                    <g>
                        <path fill="url(#5uycaxthia)" d="M15.824.005C7.337.155.32 6.202.01 14.51c-.306 8.312 6.05 15.308 14.194 15.62 4.144.16 7.955-1.44 10.744-4.15 2.683-2.61 2.572-7.203.44-5.121-2.345 2.289-5.625 3.658-9.2 3.526-6.817-.25-12.136-5.868-11.882-12.547C4.543 5.641 10.565.736 15.953.44l.14-.439c-.089.005-.177.005-.27.005z" transform="translate(-544 -24) translate(.5) translate(544 24) translate(128)"/>
                        <path fill="#FFCB05" d="M17.013.44c6.841.424 12.472 6.378-7.437 12.333 5.072 1.02 8.818 3.451 8.818 3.451C35.44 7.366 25.744-.028 16.1 0l-.139.44c.356-.024.707-.024 1.053 0z" transform="translate(-544 -24) translate(.5) translate(544 24) translate(128)"/>
                        <path fill="url(#dyff5adbdb)" d="M8.67 3.57C10.82 1.738 13.489.58 16.022.437c.357-.02.709-.02 1.056.005 3.362.208 6.433 1.751 6.34 3.983L25.1 2.398C22.852.874 19.504-.01 16.16 0h-.269c-3.15.057-6.095.926-8.568 2.426L8.671 3.57z" transform="translate(-544 -24) translate(.5) translate(544 24) translate(128)"/>
                        <path fill="url(#rbtu73uxmc)" d="M24.349 23.535c-.005-.08-.283-2.047-.283-2.047-.69-4.674.274-9.202 7.292-9.575-10.18-4.986-16.949-.212-21.907.906 4.514.57 14.027 5.768 14.898 10.716z" transform="translate(-544 -24) translate(.5) translate(544 24) translate(128)"/>
                        <path fill="url(#9mcm8z29wd)" d="M27.704 13.275c-4.339 1.824-3.894 6.877-3.478 9.84.084.242.519 2.085-.486 4.01-1.245 2.164-3.264 3.8-7.154 4.859 9.97.472 21.378-9.303 11.118-18.71z" transform="translate(-544 -24) translate(.5) translate(544 24) translate(128)"/>
                    </g>
                </g>
            </g>
        </g>
    </g>
</svg>
