<svg xmlns="http://www.w3.org/2000/svg" width="25" height="24" viewBox="0 0 25 24">
    <g fill="none" fill-rule="evenodd">
        <g>
            <g>
                <g>
                    <g>
                        <g>
                            <path d="M0 0L24 0 24 24 0 24z" transform="translate(-1063 -28) translate(.5) translate(157 24) translate(819) translate(87 4)"/>
                            <path fill="#0040A8" fill-rule="nonzero" d="M10.514 14.792l1.097 1.097L15.5 12l-3.889-3.889-1.097 1.097 2.007 2.014H5v1.556h7.521l-2.007 2.014zM17.444 5H6.556C5.692 5 5 5.7 5 6.556v3.11h1.556v-3.11h10.888v10.888H6.556v-3.11H5v3.11C5 18.3 5.692 19 6.556 19h10.888C18.3 19 19 18.3 19 17.444V6.556C19 5.7 18.3 5 17.444 5z" transform="translate(-1063 -28) translate(.5) translate(157 24) translate(819) translate(87 4)"/>
                        </g>
                    </g>
                </g>
            </g>
        </g>
    </g>
</svg>
