<svg xmlns="http://www.w3.org/2000/svg" width="272" height="48" viewBox="0 0 272 48">
    <defs>
        <linearGradient id="1qhgvgxyda" x1="56.088%" x2="100%" y1="81.668%" y2="81.668%">
            <stop offset="0%" stop-color="#ED1C24"/>
            <stop offset="100%" stop-color="#FFF" stop-opacity="0"/>
        </linearGradient>
        <linearGradient id="tv6fqozvyb" x1="10.322%" x2="88.651%" y1="49.953%" y2="49.953%">
            <stop offset="0%" stop-color="#ED1C24"/>
            <stop offset="100%" stop-color="#FFCB05"/>
        </linearGradient>
        <linearGradient id="o854xd08bc" x1="50.002%" x2="50.002%" y1="-.786%" y2="35.658%">
            <stop offset="0%" stop-color="#E39717"/>
            <stop offset="12.36%" stop-color="#E8A116"/>
            <stop offset="43.44%" stop-color="#F4B710"/>
            <stop offset="73.21%" stop-color="#FCC509"/>
            <stop offset="100%" stop-color="#FFCB05"/>
        </linearGradient>
        <linearGradient id="10upkh0cbd" x1="34.979%" x2="47.912%" y1="24.367%" y2="60.204%">
            <stop offset="0%" stop-color="#E39717"/>
            <stop offset="10.13%" stop-color="#E8A116"/>
            <stop offset="35.61%" stop-color="#F4B710"/>
            <stop offset="60%" stop-color="#FCC509"/>
            <stop offset="81.96%" stop-color="#FFCB05"/>
            <stop offset="100%" stop-color="#FFCB05"/>
        </linearGradient>
    </defs>
    <g fill="none" fill-rule="evenodd">
        <g>
            <g>
                <g>
                    <g fill-rule="nonzero">
                        <g fill="#002C76">
                            <path d="M36.088 10.413c-.893.222-1.564.333-2.234.333-1.676 0-2.011-1.44-2.011-2.659 0-1.883.67-2.88 2.01-2.88.671 0 1.118.11 1.118.11l1.23.444V4.21l-.113-.111c-.446-.222-1.452-.554-2.681-.554-2.458 0-4.022 1.772-4.022 4.431 0 2.548 1.564 4.21 3.799 4.21 1.005 0 1.899-.222 3.24-.776l.223-.11-.335-1.219-.224.332zM7.821 6.093c1.117-.443 1.564-1.219 1.564-2.548 0-1.219-.558-2.216-1.564-2.548-.67-.332-1.34-.332-3.464-.332H0v1.218s1.006.111 1.34.222v10.192h3.464c1.676 0 2.458-.111 3.129-.443C9.05 11.3 9.72 10.303 9.72 8.974c.112-1.552-.558-2.549-1.899-2.881zM3.799 2.105h.67c.894 0 1.564 0 2.011.332.335.222.447.665.447 1.108 0 1.108-.335 1.662-1.676 1.772l-1.005.111-.447.776v-4.1zm2.793 8.198c-.559.443-1.34.443-2.346.443h-.447V6.979h.894c.893 0 1.564 0 2.01.333.336.332.56.775.56 1.44 0 .664-.224 1.218-.671 1.55zM76.31 6.093c1.118-.443 1.565-1.219 1.565-2.548 0-1.219-.559-2.216-1.564-2.548-.67-.332-1.34-.332-3.464-.332H68.49v1.218s1.005.111 1.34.222v10.192h3.464c1.676 0 2.458-.111 3.129-.443 1.117-.554 1.787-1.551 1.787-2.88.112-1.552-.558-2.549-1.9-2.881zM72.29 2.105h.67c.894 0 1.564 0 2.011.332.335.222.447.665.447 1.108 0 1.108-.335 1.662-1.676 1.772l-1.005.111-.447.776v-4.1zm2.793 8.198c-.559.443-1.34.443-2.346.443h-.447V6.979h.893c.894 0 1.565 0 2.012.333.335.332.558.775.558 1.44.112.664-.223 1.218-.67 1.55zM25.921 3.656c-.67 0-1.564.221-2.681.664v-.664l-3.464.443v1.218h1.34v6.869h2.347V5.76c.335-.111 1.006-.333 1.788-.333.335 0 .67.111.782.222.223.221.223.664.223 1.218v5.318h2.347V6.758c0-1.219-.112-1.662-.447-2.216-.559-.554-1.23-.886-2.235-.886zM41.228 3.656c-2.57 0-4.246 1.661-4.246 4.32 0 2.659 1.565 4.32 4.246 4.32 2.57 0 4.134-1.661 4.134-4.32 0-2.659-1.564-4.32-4.134-4.32zm0 7.2c-.782 0-1.788-.332-1.788-2.88s.894-2.88 1.788-2.88c.782 0 1.788.332 1.788 2.77-.112 2.658-1.006 2.99-1.788 2.99zM101.897 3.656c-2.57 0-4.246 1.661-4.246 4.32 0 2.659 1.564 4.32 4.246 4.32 2.57 0 4.246-1.661 4.246-4.32 0-2.659-1.565-4.32-4.246-4.32zm0 7.2c-.782 0-1.788-.332-1.788-2.88s.894-2.88 1.788-2.88c.782 0 1.788.332 1.788 2.77 0 2.658-.894 2.99-1.788 2.99zM111.729 10.635l-1.676.221c-.335 0-.447-.11-.559-.221 0-.11-.111-.11-.111-.776V5.317h2.346v-1.44h-2.346V1.662h-.335l-2.012.221V9.75c0 .886.112 1.44.447 1.883.335.443.894.665 1.676.665.782 0 1.564-.222 2.458-.554l.224-.111-.112-.997zM83.685 3.656c-2.57 0-4.246 1.661-4.246 4.32 0 2.659 1.565 4.32 4.246 4.32 2.57 0 4.134-1.661 4.134-4.32 0-2.659-1.564-4.32-4.134-4.32zm0 7.2c-.782 0-1.788-.332-1.788-2.88s.894-2.88 1.788-2.88c.782 0 1.788.332 1.788 2.77 0 2.658-.894 2.99-1.788 2.99zM94.411 4.32c-.559-.332-1.229-.443-1.788-.443-2.346 0-4.022 1.884-4.022 4.432 0 2.437 1.34 3.988 3.352 3.988.559 0 1.117-.111 2.346-.665v.665c0 1.44-.558 1.883-2.346 1.883-.782 0-1.9-.11-2.793-.332v1.44c1.787.332 2.458.443 3.352.443 1.117 0 2.122-.222 2.793-.554 1.005-.554 1.34-1.33 1.34-2.77V3.988H94.3v.332h.112zm0 6.204c-.447.11-.67.11-1.117.11-1.453 0-2.123-.885-2.123-2.547 0-1.773.894-2.659 2.346-2.659.224 0 .447 0 .894.111v4.985zM18.547 4.099h-2.235v.332c-.558-.332-1.117-.443-1.787-.443-2.235 0-3.91 1.773-3.91 4.431 0 2.437 1.228 3.988 3.351 3.988.559 0 1.23-.221 2.235-.886v.776l3.24-.333v-1.33h-.894V4.1zm-2.235 6.536c-.446.11-.67.11-1.117.11-1.452 0-2.234-.886-2.234-2.547 0-1.773.893-2.77 2.458-2.77.335 0 .447 0 .893.111v5.096zM120.332 4.099h-2.234v.332c-.56-.332-1.118-.443-1.788-.443-2.235 0-3.91 1.773-3.91 4.431 0 2.437 1.228 3.988 3.351 3.988.559 0 1.23-.221 2.235-.886v.776l3.24-.333v-1.33h-.894V4.1zm-2.346 6.536c-.447.11-.67.11-1.117.11-1.453 0-2.235-.886-2.235-2.547 0-1.773.894-2.77 2.458-2.77.335 0 .447 0 .894.111v5.096zM119.215 1.994L118.656.222 118.433.332 114.746 1.772 115.081 2.77zM56.535 0H56.2l-3.017.332v.997H54.3v2.66c-.894-.333-2.234-.555-3.352-.222-1.564.553-2.57 1.994-2.57 4.098 0 1.884.894 3.435 2.459 3.989 1.117.332 2.681 0 3.575-.444v.665l3.128-.443v-.997h-1.005c-.112 0 0-10.635 0-10.635zm-2.346 10.524c-1.006.332-2.235.443-2.905-.443-.447-.554-.559-1.33-.559-2.105v-.221c0-.887.223-1.44.67-1.994.67-.776 1.9-.665 2.794-.222.111 0 0 4.764 0 4.985zM62.121 3.656c-.558 0-1.005 0-1.452.221-1.676.554-2.682 1.994-2.682 4.21 0 1.994 1.006 3.545 2.682 4.099 1.452.443 3.575 0 5.028-.776h.111l-.335-1.218-.782.221c-1.117.333-2.57.887-3.464-.221-.446-.554-.558-1.44-.558-2.105l4.469.11h.67v-.664c-.111-3.988-3.575-3.877-3.687-3.877zm-1.676 3.323c0-.11.112-1.772 1.565-1.772 1.564 0 1.564 1.661 1.564 1.772h-3.129z" transform="translate(-248.000000, -42.000000) translate(0.000000, 28.000000) translate(248.000000, 15.000000) translate(0.000000, 7.000000) translate(0.000000, 8.000000)"/>
                        </g>
                        <g>
                            <path fill="url(#1qhgvgxyda)" d="M15.824.005C7.337.155.32 6.202.01 14.51c-.306 8.312 6.05 15.308 14.194 15.62 4.144.16 7.955-1.44 10.744-4.15 2.683-2.61 2.572-7.203.44-5.121-2.345 2.289-5.625 3.658-9.2 3.526-6.817-.25-12.136-5.868-11.882-12.547C4.543 5.641 10.565.736 15.953.44l.14-.439c-.089.005-.177.005-.27.005z" transform="translate(-248.000000, -42.000000) translate(0.000000, 28.000000) translate(248.000000, 15.000000) translate(0.000000, 7.000000) translate(128.000000, 0.000000)"/>
                            <path fill="#FFCB05" d="M17.013.44c6.841.424 12.472 6.378-7.437 12.333 5.072 1.02 8.818 3.451 8.818 3.451C35.44 7.366 25.744-.028 16.1 0l-.139.44c.356-.024.707-.024 1.053 0z" transform="translate(-248.000000, -42.000000) translate(0.000000, 28.000000) translate(248.000000, 15.000000) translate(0.000000, 7.000000) translate(128.000000, 0.000000)"/>
                            <path fill="url(#tv6fqozvyb)" d="M8.67 3.57C10.82 1.738 13.489.58 16.022.437c.357-.02.709-.02 1.056.005 3.362.208 6.433 1.751 6.34 3.983L25.1 2.398C22.852.874 19.504-.01 16.16 0h-.269c-3.15.057-6.095.926-8.568 2.426L8.671 3.57z" transform="translate(-248.000000, -42.000000) translate(0.000000, 28.000000) translate(248.000000, 15.000000) translate(0.000000, 7.000000) translate(128.000000, 0.000000)"/>
                            <path fill="url(#o854xd08bc)" d="M24.349 23.535c-.005-.08-.283-2.047-.283-2.047-.69-4.674.274-9.202 7.292-9.575-10.18-4.986-16.949-.212-21.907.906 4.514.57 14.027 5.768 14.898 10.716z" transform="translate(-248.000000, -42.000000) translate(0.000000, 28.000000) translate(248.000000, 15.000000) translate(0.000000, 7.000000) translate(128.000000, 0.000000)"/>
                            <path fill="url(#10upkh0cbd)" d="M27.704 13.275c-4.339 1.824-3.894 6.877-3.478 9.84.084.242.519 2.085-.486 4.01-1.245 2.164-3.264 3.8-7.154 4.859 9.97.472 21.378-9.303 11.118-18.71z" transform="translate(-248.000000, -42.000000) translate(0.000000, 28.000000) translate(248.000000, 15.000000) translate(0.000000, 7.000000) translate(128.000000, 0.000000)"/>
                        </g>
                    </g>
                    <path stroke="#D6D6D6" stroke-linecap="round" d="M175.5 0L175.5 46" transform="translate(-248.000000, -42.000000) translate(0.000000, 28.000000) translate(248.000000, 15.000000)"/>
                    <g fill="#479850">
                        <path d="M26.478 19.041c-1.965.794-5.05 3.378-6.879.56 0 0 2.01-1.807 5.21-2.187 0 0-1.447-.715-5.365 1.686 0 0-.491-2.839 2.639-3.636 3.13-.798 7.197 3.363 7.197 3.363s-.836-.58-2.802.214m-13.805 11.69s1.976-4.256 2.176-9.117c.2-4.86-4.181-7.966-4.181-7.966s2.377 1.237 3.18 2.352c.8 1.115 1.374 2.123 2.262 2.123.888 0 .916-.305 2.148-1.944 1.232-1.64 3.352-2.53 3.352-2.53s-4.211 2.789-4.211 7.994 2.406 9.088 2.406 9.088c-3.982 1.093-7.132 0-7.132 0m-.18-11.63c-3.918-2.402-5.365-1.687-5.365-1.687 3.2.38 5.21 2.186 5.21 2.186-1.83 2.819-4.914.235-6.88-.559-1.965-.793-2.801-.214-2.801-.214s4.068-4.16 7.197-3.363c3.13.797 2.639 3.636 2.639 3.636M6.867 11.45c1.775.63 1.34 2.253 1.34 2.253-2.149-1.604-3.027-1.266-3.027-1.266 1.838.392 2.91 1.548 2.91 1.548-1.213 1.54-2.867-.126-3.967-.692s-1.616-.275-1.616-.275 2.584-2.2 4.36-1.568m4.473-2.391c1.878 1.877.348 3.677.348 3.677C9.921 9.393 8.601 9.29 8.601 9.29c2.102 1.613 2.77 3.733 2.77 3.733-2.467 1.223-3.57-1.898-4.627-3.284-1.058-1.386-1.89-1.33-1.89-1.33s4.607-1.23 6.486.649m.974-4.107c.72 1.63-.67 2.38-.67 2.38-.296-2.517-1.095-2.902-1.095-2.902.923 1.518.827 3.004.827 3.004-1.835.162-1.77-2.054-2.094-3.177-.326-1.122-.859-1.29-.859-1.29s3.173.355 3.891 1.985m5.228 10.57c0 .778-.628 1.409-1.403 1.409s-1.404-.631-1.404-1.41c0-.778.629-1.409 1.404-1.409.775 0 1.403.631 1.403 1.41m1.452-13.15s-.918.725-.721 3.161c.197 2.436 1.967 6.716-1.738 7.77 0 0-1.287-2.832-.61-6.486 0 0-1.276 1.35.011 6.485 0 0-3.27-.428-3.073-4.148.196-3.72 6.131-6.782 6.131-6.782m.629 2.58c.718-1.63 3.891-1.984 3.891-1.984s-.533.167-.859 1.29c-.325 1.122-.259 3.338-2.094 3.176 0 0-.095-1.486.827-3.004 0 0-.8.385-1.095 2.902 0 0-1.39-.75-.67-2.38m7.46 3.459s-.832-.057-1.89 1.329c-1.057 1.386-2.16 4.507-4.627 3.284 0 0 .668-2.12 2.77-3.733 0 0-1.32.103-3.087 3.445 0 0-1.53-1.8.349-3.677 1.878-1.878 6.486-.648 6.486-.648m2.346 4.607s-.517-.291-1.616.275c-1.1.566-2.754 2.231-3.967.692 0 0 1.072-1.156 2.91-1.548 0 0-.878-.338-3.026 1.266 0 0-.436-1.623 1.34-2.253 1.775-.631 4.359 1.568 4.359 1.568M15.936 0C7.135 0 0 7.164 0 16s7.135 16 15.936 16 15.937-7.164 15.937-16S24.737 0 15.936 0M40.733 4.676c.559.561.84 1.355.84 2.382v.37l-2.087.204V7.1c0-.41-.096-.722-.286-.935-.192-.212-.464-.318-.82-.318-.354 0-.626.106-.817.318-.191.213-.286.524-.286.935v.184c0 .439.13.866.389 1.284.259.417.736.921 1.431 1.509.995.849 1.698 1.616 2.107 2.3.409.685.613 1.451.613 2.3v.718c0 1.027-.29 1.82-.87 2.382-.579.562-1.407.842-2.484.842s-1.905-.28-2.485-.842c-.58-.561-.869-1.355-.869-2.382v-.965l2.086-.205v1.026c0 .904.408 1.356 1.227 1.356.818 0 1.227-.452 1.227-1.356v-.472c0-.465-.136-.906-.409-1.324-.272-.418-.763-.927-1.472-1.53-.982-.835-1.67-1.591-2.066-2.269-.396-.677-.593-1.44-.593-2.29v-.307c0-1.027.279-1.82.839-2.382.558-.562 1.356-.842 2.392-.842 1.036 0 1.834.28 2.393.842M46.173 7.119l-.88 6.058h1.82l-.879-6.058h-.061zm3.906 11.294H47.87l-.471-3.265h-2.393l-.47 3.265h-2.168l2.475-14.374h2.76l2.475 14.374zM55.581 18.413L52.779 18.413 50.366 4.039 52.575 4.039 54.19 15.004 54.231 15.004 55.826 4.039 57.995 4.039zM59.549 18.413L61.717 18.413 61.717 4.039 59.549 4.039zM71.103 18.413L68.976 18.413 66.134 8.885 66.092 8.885 66.092 18.413 64.047 18.413 64.047 4.039 66.461 4.039 69.017 12.602 69.058 12.602 69.058 4.039 71.103 4.039zM79.1 4.738c.6.602.9 1.45.9 2.545v.986l-2.086.103v-.863c0-1.108-.424-1.663-1.269-1.663-.422 0-.74.123-.951.37-.21.246-.316.609-.316 1.088v7.844c0 .972.416 1.458 1.247 1.458.422 0 .737-.133.94-.4.206-.267.307-.689.307-1.263v-2.465h-1.227v-2.012H80v4.702c0 1.096-.3 1.944-.9 2.546-.6.603-1.439.904-2.516.904-1.078 0-1.909-.301-2.495-.904-.587-.602-.88-1.45-.88-2.546V7.283c0-1.094.293-1.943.88-2.545.586-.603 1.417-.904 2.495-.904 1.077 0 1.915.301 2.516.904M36.55 28.095L36.55 20.251 34.852 20.251 34.852 19.75 38.782 19.75 38.782 20.251 37.096 20.251 37.096 28.095zM40.043 24.173L40.043 28.095 39.496 28.095 39.496 19.75 40.043 19.75 40.043 23.672 42.632 23.672 42.632 19.75 43.19 19.75 43.19 28.095 42.632 28.095 42.632 24.173zM46.956 23.612L46.956 24.113 44.688 24.113 44.688 27.594 47.419 27.594 47.419 28.095 44.142 28.095 44.142 19.75 47.419 19.75 47.419 20.251 44.688 20.251 44.688 23.612zM51.03 25.77h2.423l-1.223-5.4-1.2 5.4zm-.082.477l-.416 1.848h-.499l1.817-8.356h.796l1.852 8.356h-.547l-.415-1.848h-2.588zM58.122 28.083L57.576 28.083 55.819 20.704 55.819 28.095 55.332 28.095 55.332 19.75 56.116 19.75 57.861 27.129 59.594 19.75 60.378 19.75 60.378 28.095 59.856 28.095 59.856 20.68zM62.21 25.77h2.421l-1.223-5.4-1.198 5.4zm-.084.477l-.415 1.848h-.5l1.817-8.356h.796l1.852 8.356h-.546l-.416-1.848h-2.588zM70.179 28.095L66.439 28.095 66.439 27.594 69.657 20.251 66.593 20.251 66.593 19.75 70.226 19.75 70.226 20.263 67.008 27.594 70.179 27.594zM71.63 26.092c0 .906.357 1.574 1.27 1.574.926 0 1.294-.668 1.294-1.574v-4.339c0-.906-.368-1.574-1.294-1.574-.913 0-1.27.668-1.27 1.574v4.34zm-.547-4.303c0-1.216.56-2.11 1.817-2.11 1.283 0 1.84.894 1.84 2.11v4.267c0 1.216-.557 2.11-1.84 2.11-1.258 0-1.817-.894-1.817-2.11V21.79zM76.145 28.095L75.646 28.095 75.646 19.75 76.358 19.75 78.851 26.796 78.851 19.75 79.35 19.75 79.35 28.095 78.745 28.095 76.145 20.656z" transform="translate(-248.000000, -42.000000) translate(0.000000, 28.000000) translate(248.000000, 15.000000) translate(192.000000, 7.000000)"/>
                    </g>
                </g>
            </g>
        </g>
    </g>
</svg>
