<?xml version="1.0" encoding="UTF-8"?>
<svg width="29px" height="29px" viewBox="0 0 29 29" version="1.1" xmlns="http://www.w3.org/2000/svg" xmlns:xlink="http://www.w3.org/1999/xlink">
    <!-- Generator: sketchtool 48.2 (47327) - http://www.bohemiancoding.com/sketch -->
    <title>B12BBAD8-DF17-412C-9EF5-8696872DCFF9</title>
    <desc>Created with sketchtool.</desc>
    <defs></defs>
    <g id="01_01_consulta-productos_drop" stroke="none" stroke-width="1" fill="none" fill-rule="evenodd" transform="translate(-240.000000, -227.000000)">
        <g id="Group-4-Copy" transform="translate(240.000000, 227.000000)" fill="#6680AD">
            <g id="BIll">
                <path d="M28.3150407,27.4602956 C28.3857724,27.4646972 28.404065,27.4626965 28.4727642,27.480703 C28.5760163,27.5079128 28.6707317,27.5619322 28.7463415,27.6359589 C28.8028455,27.6915789 28.8479675,27.7580029 28.8784553,27.8308291 C28.9504065,28.0016907 28.9369919,28.2001622 28.8430894,28.36062 C28.8162602,28.4058363 28.7837398,28.4478515 28.7463415,28.4846647 C28.7085366,28.5218782 28.6662602,28.5538897 28.6199187,28.5802992 C28.550813,28.6195133 28.4739837,28.6451226 28.3947154,28.6555263 C19.1943089,28.6607282 10.0739837,28.6607282 0.953252033,28.6607282 C0.794308943,28.6451226 0.717479675,28.6195133 0.648373984,28.5802992 C0.579268293,28.5410851 0.518292683,28.488266 0.469512195,28.4258435 C0.43699187,28.3842286 0.410162602,28.3386121 0.389837398,28.2901947 C0.317886179,28.1193331 0.331300813,27.9204614 0.425203252,27.7604037 C0.45203252,27.7147873 0.484552846,27.6731723 0.52195122,27.6359589 C0.597560976,27.5619322 0.692276423,27.5079128 0.795528455,27.480703 C0.864227642,27.4626965 0.882520325,27.4646972 0.953252033,27.4602956 L5.60487805,27.4602956 L5.60487805,0.749870224 C5.61666667,0.619423216 5.63089431,0.568604903 5.65121951,0.520187455 C5.72317073,0.349325883 5.87520325,0.218078587 6.05650407,0.170061283 C6.12520325,0.152054795 6.14390244,0.15445566 6.21463415,0.149653929 L23.0536585,0.149653929 C23.1243902,0.15445566 23.1430894,0.152054795 23.2117886,0.170061283 C23.3930894,0.218078587 23.545122,0.349325883 23.6170732,0.520187455 C23.6373984,0.568604903 23.651626,0.619423216 23.6585366,0.671441961 C23.6607046,0.688781543 23.6623306,9.61839942 23.6634146,27.4602956 L28.3150407,27.4602956 Z M22.4439024,27.4602956 L22.4439024,1.35008652 L6.82439024,1.35008652 C6.82439024,10.0536229 6.82439024,18.7567592 6.82439024,27.4602956 L8.84390244,27.4602956 C8.8402439,26.9893259 8.84308943,26.517956 8.85162602,26.0469863 C8.85650407,25.9597549 8.87682927,25.8753244 8.91707317,25.7972963 C8.95365854,25.7264708 9.00487805,25.6628479 9.06626016,25.6112293 C9.12235772,25.5644124 9.18658537,25.5279993 9.25609756,25.5035905 C9.47357724,25.4267628 9.72317073,25.4811824 9.88821138,25.6404398 C9.9300813,25.6808544 9.96626016,25.7276712 9.99430894,25.7780894 C10.0414634,25.8613194 10.0650407,25.9525523 10.0703252,26.0469863 C10.0788618,26.517956 10.0817073,26.9893259 10.0784553,27.4602956 L19.1898374,27.4602956 C19.1865854,26.9893259 19.1894309,26.517956 19.1979675,26.0469863 C19.203252,25.9525523 19.2272358,25.8613194 19.2739837,25.7780894 C19.3020325,25.7276712 19.3382114,25.6808544 19.3800813,25.6404398 C19.545122,25.4811824 19.7947154,25.4267628 20.0121951,25.5035905 C20.0817073,25.5279993 20.145935,25.5644124 20.2020325,25.6112293 C20.2634146,25.6628479 20.3146341,25.7264708 20.3512195,25.7972963 C20.3914634,25.8753244 20.4117886,25.9597549 20.4166667,26.0469863 C20.4252033,26.517956 20.4280488,26.9893259 20.4243902,27.4602956 L22.4439024,27.4602956 Z M13.8256098,25.2210887 C13.2829268,25.1454614 12.751626,24.9926063 12.2528455,24.7685256 C11.6593496,24.5020296 11.1134146,24.1354975 10.6430894,23.690137 C10.1727642,23.2451766 9.77926829,22.7225883 9.48373984,22.149982 C9.24674797,21.6906164 9.07276423,21.1996395 8.96869919,20.6946575 C8.81219512,19.9359841 8.81219512,19.1456994 8.96869919,18.387026 C9.07764228,17.8592358 9.26219512,17.3470512 9.51585366,16.8700793 C9.80772358,16.3214816 10.1898374,15.8205011 10.6430894,15.3911464 C11.1471545,14.9141745 11.7386179,14.527235 12.3821138,14.2571377 C13.0691057,13.9682336 13.8126016,13.8149784 14.5593496,13.8053749 C15.3093496,13.7961716 16.0589431,13.9310202 16.7556911,14.2039185 C17.4060976,14.4588104 18.0077236,14.8317448 18.5235772,15.2975126 C18.9869919,15.7156633 19.3808943,16.2074405 19.6857724,16.7484355 C19.9617886,17.2386121 20.1646341,17.7688032 20.2849593,18.3170007 C20.4560976,19.0972819 20.4609756,19.9123756 20.2995935,20.6946575 C20.2,21.1772314 20.0373984,21.6466006 19.8162602,22.0879596 C19.5378049,22.6437599 19.1674797,23.1543439 18.7243902,23.5941024 C18.2654472,24.0498666 17.7288618,24.4288032 17.1426829,24.7097044 C16.6512195,24.9449892 16.1256098,25.1102487 15.5861789,25.1990807 C15.3203252,25.2426965 15.052439,25.266305 14.7833333,25.274708 C14.7085366,25.2763086 14.7085366,25.2763086 14.6341463,25.2767087 C14.3634146,25.2751081 14.0939024,25.2583021 13.8256098,25.2210887 Z M15.2719512,24.0322603 C15.6987805,23.9730389 16.1166667,23.8525955 16.5089431,23.6765321 C16.9776423,23.4660562 17.4085366,23.1763518 17.7800813,22.8250252 C18.1520325,22.4728983 18.4634146,22.0591492 18.697561,21.606186 C18.8760163,21.2596611 19.0093496,20.8907282 19.0926829,20.5109913 C19.2284553,19.8923684 19.2325203,19.2461355 19.1044715,18.625912 C19.0223577,18.2265681 18.8849593,17.8388284 18.697561,17.4754975 C18.4634146,17.0225342 18.1520325,16.6087851 17.7800813,16.2566583 C17.3821138,15.8801226 16.9154472,15.5744124 16.4077236,15.3611355 C15.8662602,15.1338536 15.2813008,15.0130101 14.6930894,15.0058075 C14.1028455,14.9982048 13.5121951,15.104243 12.9634146,15.3195205 C12.4504065,15.5203929 11.9760163,15.8148991 11.5686992,16.1826316 C11.1886179,16.5255552 10.8670732,16.9313014 10.6223577,17.3786626 C10.4085366,17.7692033 10.2536585,18.1909553 10.1638211,18.625912 C10.0394309,19.2273288 10.0394309,19.8539546 10.1638211,20.4557714 C10.2386179,20.8191024 10.3593496,21.17323 10.5215447,21.5077505 C10.7443089,21.9667159 11.045935,22.3876676 11.4097561,22.7489978 C11.7723577,23.1087275 12.195935,23.4084355 12.6589431,23.6301154 C13.0455285,23.814982 13.4589431,23.945429 13.8833333,24.0150541 C14.0926829,24.0494665 14.304065,24.0682733 14.5162602,24.0746756 C14.5752033,24.075876 14.5752033,24.075876 14.6341463,24.0762761 C14.847561,24.0750757 15.0605691,24.0618709 15.2719512,24.0322603 Z M19.5910569,12.6621629 C19.4243902,12.6001406 19.2910569,12.4656921 19.2321138,12.3000324 C19.2121951,12.2448125 19.202439,12.1883922 19.198374,12.1299712 C19.1686992,10.930739 19.197561,9.73110671 19.197561,8.53147441 C19.2,8.43383922 19.2211382,8.33980534 19.2674797,8.2525739 C19.2947154,8.20135544 19.3296748,8.15373828 19.3707317,8.11252343 C19.4955285,7.98687815 19.6735772,7.92045422 19.851626,7.93285869 C19.9101626,7.93726027 19.9682927,7.94966474 20.0235772,7.97047224 C20.0878049,7.99448089 20.1479675,8.02929344 20.2004065,8.07290916 C20.2605691,8.12292718 20.3105691,8.18414924 20.3471545,8.2525739 C20.3890244,8.33100216 20.4097561,8.41503244 20.4162602,8.50266402 C20.445935,9.70189618 20.4170732,10.9015285 20.4170732,12.1011608 C20.4154472,12.1595818 20.4085366,12.2164023 20.3914634,12.2724225 C20.3406504,12.4408832 20.2142276,12.5813338 20.050813,12.651359 C19.9869919,12.6785689 19.9203252,12.692974 19.851626,12.6997765 C19.8219512,12.7009769 19.8219512,12.7009769 19.7926829,12.7009769 C19.7231707,12.6977758 19.6560976,12.6865717 19.5910569,12.6621629 Z M9.26422764,12.6689654 C9.09390244,12.6117448 8.95569106,12.4804975 8.89146341,12.3152379 C8.87560976,12.2744232 8.86422764,12.2316078 8.85772358,12.1883922 C8.85203252,12.1495782 8.85284553,12.1399748 8.85121951,12.1011608 L8.85121951,4.07666907 C8.85284553,4.03865537 8.85203252,4.02905191 8.85731707,3.99103821 C8.86382114,3.94862293 8.87439024,3.90700793 8.8898374,3.86699351 C8.95609756,3.69093006 9.10650407,3.55368061 9.28943089,3.50086157 C9.34593496,3.48445566 9.40243902,3.4784535 9.46097561,3.47645278 L12.451626,3.47645278 C12.4963415,3.47805335 12.5398374,3.48085436 12.5841463,3.49085797 C12.7004065,3.51606705 12.8077236,3.57568854 12.8902439,3.66011896 C12.9418699,3.71253785 12.9837398,3.7745602 13.0126016,3.84178443 C13.0357724,3.89580389 13.0512195,3.95262437 13.0577236,4.01104542 C13.0642276,4.06906633 13.0617886,4.12788753 13.0512195,4.18550829 C13.0154472,4.37437635 12.8869919,4.53843547 12.7101626,4.62006489 C12.6565041,4.64487383 12.599187,4.66167988 12.5402439,4.67048306 C12.5012195,4.67608508 12.4910569,4.67528479 12.451626,4.67688536 L10.0707317,4.67688536 L10.0707317,12.1011608 L10.0691057,12.1447765 C10.0626016,12.2035977 10.0520325,12.260018 10.0304878,12.3152379 C9.97195122,12.4664924 9.85081301,12.590137 9.6995935,12.6533598 C9.65853659,12.670566 9.61544715,12.6833706 9.57195122,12.6913735 C9.53292683,12.6981759 9.52276423,12.6977758 9.48333333,12.7009769 C9.46829268,12.7009769 9.45365854,12.7009769 9.43861789,12.7009769 C9.37886179,12.6965753 9.32113821,12.6881723 9.26422764,12.6689654 Z M15.0191057,5.45636626 L16.596748,5.45636626 C16.3463415,5.93453857 16.0808943,6.18062725 15.7166667,6.18062725 C15.3605691,6.18062725 15.0723577,5.86731435 15.0191057,5.45636626 Z M15.1934959,3.65731795 L15.5121951,3.87379596 C15.5955285,3.93341745 15.6333333,4.02304975 15.5650407,4.10507931 C15.5272358,4.14229272 15.1479675,4.59045422 15.049187,5.0982372 C15.6256098,5.0982372 16.1869919,5.10583994 16.7638211,5.10583994 C17.0593496,4.35877073 17.4313008,3.7093367 18.2731707,3.65731795 C18.3638211,3.64971521 18.4552846,3.65731795 18.5463415,3.66452055 C19.0845528,3.71693944 19.7065041,4.14989546 19.8052846,5.10583994 L20.0479675,5.10583994 C20.1313008,5.10583994 20.1918699,5.17306417 20.1918699,5.24749099 L20.1918699,5.32231795 C20.1918699,5.39674477 20.1313008,5.463969 20.0479675,5.463969 L19.7979675,5.463969 C19.7447154,6.12100577 19.4105691,6.60638068 19.3654472,6.6736049 C19.3272358,6.73322639 19.2211382,6.78564528 19.1073171,6.71842105 C18.9101626,6.5839726 18.6219512,6.44952415 18.7430894,6.2706597 C18.7662602,6.2254434 19.0239837,5.84490627 19.1150407,5.463969 C18.5613821,5.463969 18,5.45636626 17.4463415,5.45636626 C17.1126016,6.23304614 16.6955285,6.96450973 15.7849593,6.96450973 C14.9963415,6.96450973 14.4272358,6.34508652 14.3589431,5.44916366 L14.0845528,5.44916366 C13.9934959,5.44916366 13.948374,5.3743367 13.948374,5.29230714 C13.948374,5.21027758 13.9711382,5.0982372 14.0845528,5.0982372 L14.3589431,5.0982372 C14.4199187,4.30675198 14.8447154,3.80657174 14.950813,3.69413122 C15.0113821,3.63450973 15.0646341,3.57528839 15.1934959,3.65731795 Z M17.5979675,5.0982372 C17.8256098,4.63527037 18.0833333,4.38157895 18.4703252,4.38157895 C18.7280488,4.38157895 19.0772358,4.59045422 19.1300813,5.0982372 L17.5979675,5.0982372 Z" id="Shape"></path>
            </g>
        </g>
    </g>
</svg>