<svg xmlns="http://www.w3.org/2000/svg" width="62" height="17" viewBox="0 0 62 17">
    <defs>
        <linearGradient id="a" x1="87.766%" x2="-7.985%" y1="86.2%" y2="-5.592%">
            <stop offset="0%" stop-color="#3E5FA6"/>
            <stop offset="17%" stop-color="#3D5EA3"/>
            <stop offset="28%" stop-color="#3B599B"/>
            <stop offset="36%" stop-color="#37528D"/>
            <stop offset="44%" stop-color="#314879"/>
            <stop offset="50%" stop-color="#2B3C62"/>
        </linearGradient>
        <linearGradient id="b" x1="87.754%" x2="-7.997%" y1="86.2%" y2="-5.592%">
            <stop offset="0%" stop-color="#3E5FA6"/>
            <stop offset="17%" stop-color="#3D5EA3"/>
            <stop offset="28%" stop-color="#3B599B"/>
            <stop offset="36%" stop-color="#37528D"/>
            <stop offset="44%" stop-color="#314879"/>
            <stop offset="50%" stop-color="#2B3C62"/>
        </linearGradient>
        <linearGradient id="c" x1="16.175%" x2="63.748%" y1="16.379%" y2="63.665%">
            <stop offset="0%" stop-color="#B4281D"/>
            <stop offset="35%" stop-color="#B1281E"/>
            <stop offset="56%" stop-color="#A92721"/>
            <stop offset="74%" stop-color="#9B2526"/>
            <stop offset="89%" stop-color="#87222D"/>
            <stop offset="90%" stop-color="#85222E"/>
        </linearGradient>
        <linearGradient id="d" x1="50.018%" x2="50.018%" y1="2.704%" y2="131.894%">
            <stop offset="0%" stop-color="#3E5FA6"/>
            <stop offset="20%" stop-color="#3D5EA3"/>
            <stop offset="32%" stop-color="#3B599B"/>
            <stop offset="42%" stop-color="#37528D"/>
            <stop offset="51%" stop-color="#314879"/>
            <stop offset="58%" stop-color="#2B3C62"/>
        </linearGradient>
    </defs>
    <g fill="none" fill-rule="nonzero">
        <g fill="#3E5FA6">
            <path d="M9.9 2.162h2.42c.007.073.01.147.008.22a2.252 2.252 0 0 1-.62 1.611c-.408.428-.98.662-1.573.644A2.272 2.272 0 0 1 8.092 3.54a2.254 2.254 0 0 1-.008-2.313 2.272 2.272 0 0 1 2.037-1.11c.966 0 1.749.47 2.063 1.262l-.462.16c-.307-.616-.889-.938-1.6-.938a1.666 1.666 0 0 0-1.24.52 1.834 1.834 0 0 0 0 2.529c.33.336.786.522 1.26.512a1.61 1.61 0 0 0 1.142-.429c.31-.287.502-.678.541-1.097H9.9v-.474zM16.182 1.344l-.038.469a1.616 1.616 0 0 0-.19 0c-.824 0-1.295.603-1.295 1.507v1.234h-.502V1.349h.502v.786c.3-.545.731-.82 1.295-.82a.742.742 0 0 1 .228.029zM20.678 1.35v3.197h-.503v-.52c-.274.402-.68.603-1.214.604a1.235 1.235 0 0 1-.942-.377 1.385 1.385 0 0 1-.353-.988V1.35h.503v1.827c0 .597.353.993.888.993.685 0 1.116-.469 1.116-1.28v-1.54h.505zM25.623 1.746c.322.318.495.757.477 1.208.016.454-.157.893-.477 1.215a1.546 1.546 0 0 1-1.129.47c-.555 0-.979-.196-1.279-.587v1.61h-.501V1.35h.496v.514c.3-.396.724-.586 1.28-.586.427-.01.838.161 1.133.469zm-.353 2.11c.46-.515.46-1.291 0-1.807a1.216 1.216 0 0 0-1.334-.238c-.452.199-.737.65-.722 1.142-.012.325.11.64.336.874.226.234.538.366.864.367.32.01.63-.112.857-.337h-.001zM30.481 1.752c.33.309.51.744.496 1.195.014.455-.166.894-.496 1.21a1.664 1.664 0 0 1-1.207.468 1.694 1.694 0 0 1-1.222-.469 1.618 1.618 0 0 1-.488-1.209c-.015-.45.162-.884.488-1.195a1.697 1.697 0 0 1 1.222-.47c.45-.012.885.157 1.207.47zm-.353 2.092c.239-.236.367-.562.353-.897a1.205 1.205 0 0 0-.346-.87 1.214 1.214 0 0 0-.867-.363 1.197 1.197 0 0 0-.869.352c-.24.23-.372.55-.359.883-.01.33.115.649.347.884.232.236.55.367.88.363a1.18 1.18 0 0 0 .861-.352z"/>
        </g>
        <path fill="url(#a)" d="M.11 2.418l6.757 6.74L9.28 6.752 2.522.012z" transform="translate(7.885 7.738)"/>
        <path fill="#3E5FA6" d="M9.803 7.141a1.71 1.71 0 0 0-2.417 0L0 14.49l2.411 2.406 6.17-6.158a3.42 3.42 0 0 1 4.834 0L9.803 7.141z"/>
        <path fill="url(#b)" d="M.04 2.418l6.756 6.74 2.412-2.406L2.45.012z" transform="translate(40.014 7.738)"/>
        <path fill="#3E5FA6" d="M41.86 7.141a1.71 1.71 0 0 0-2.417 0l-7.386 7.349 2.411 2.406 6.17-6.158a3.42 3.42 0 0 1 4.834 0L41.86 7.141z"/>
        <g fill="url(#c)" transform="translate(16.123 6.566)">
            <path d="M9.236 6.816L2.48.076.068 2.482l6.757 6.741z"/>
        </g>
        <g fill="#B4281D">
            <path d="M23.552 16.397a1.712 1.712 0 0 0 2.418 0l7.386-7.35-2.411-2.405-6.17 6.157a3.42 3.42 0 0 1-4.834 0l3.61 3.598z"/>
        </g>
        <g fill="url(#d)" transform="translate(50.959 6.566)">
            <path d="M.058.052h3.209V7.9H.057z"/>
        </g>
        <g fill="#3E5FA6">
            <path d="M51.021 15.27c0 .425.17.833.472 1.133.302.3.71.468 1.137.468l9.071.013v-3.195h-7.466a3.212 3.212 0 0 1-3.218-3.203l.004 4.785z"/>
        </g>
    </g>
</svg>
