<svg xmlns="http://www.w3.org/2000/svg" width="17" height="16" viewBox="0 0 17 16">
    <g fill="none" fill-rule="evenodd">
        <path d="M-4-4h24v24H-4z"/>
        <g fill="#8A8D94">
            <path d="M6.51 6.34h3.835a.611.611 0 0 0 .622-.6c0-.331-.278-.6-.622-.6H6.51a.611.611 0 0 0-.622.6c0 .331.278.6.622.6zM13.248 7.94H6.51a.611.611 0 0 0-.622.6c0 .331.278.6.622.6h6.738a.611.611 0 0 0 .622-.6c0-.331-.279-.6-.622-.6z"/>
            <path fill-rule="nonzero" d="M16.233.66a1.258 1.258 0 0 0-1.327.2l-.705.6L12.874.32a1.278 1.278 0 0 0-1.658 0L9.889 1.46 8.562.32a1.278 1.278 0 0 0-1.658 0L5.577 1.46l-.705-.6a1.28 1.28 0 0 0-1.34-.2 1.198 1.198 0 0 0-.733 1.1v9.32H.663a.611.611 0 0 0-.622.6v1.46c0 1.541 1.265 2.806 2.861 2.86h11.092c1.637 0 2.965-1.28 2.965-2.86V1.74c0-.467-.284-.89-.726-1.08zM3.006 14.82c-.95 0-1.72-.743-1.72-1.66v-.88h9.743v.86c.002.596.197 1.177.56 1.66l-8.583.02zm12.709-1.66c0 .922-.775 1.67-1.731 1.67-.957 0-1.732-.748-1.732-1.67v-1.48c0-.331-.278-.6-.622-.6H4.043V1.74l.705.6a1.278 1.278 0 0 0 1.658 0L7.733 1.2 9.06 2.34a1.278 1.278 0 0 0 1.658 0l1.327-1.14 1.327 1.14a1.278 1.278 0 0 0 1.658 0l.705-.6-.02 11.42z"/>
        </g>
    </g>
</svg>
