<svg xmlns="http://www.w3.org/2000/svg" width="46" height="62" viewBox="0 0 46 62">
    <defs>
        <linearGradient id="a" x1="28.596%" x2="87.154%" y1="44.404%" y2="57.371%">
            <stop offset="0%" stop-color="#ED1C24"/>
            <stop offset="100%" stop-color="#8B0304"/>
        </linearGradient>
        <linearGradient id="b" x1="10.322%" x2="88.651%" y1="49.953%" y2="49.953%">
            <stop offset="0%" stop-color="#ED1C24"/>
            <stop offset="100%" stop-color="#FFCB05"/>
        </linearGradient>
        <linearGradient id="c" x1="50.002%" x2="50.002%" y1="-.786%" y2="35.658%">
            <stop offset="0%" stop-color="#E39717"/>
            <stop offset="12.36%" stop-color="#E8A116"/>
            <stop offset="43.44%" stop-color="#F4B710"/>
            <stop offset="73.21%" stop-color="#FCC509"/>
            <stop offset="100%" stop-color="#FFCB05"/>
        </linearGradient>
        <linearGradient id="d" x1="27.043%" x2="46.808%" y1="24.367%" y2="60.204%">
            <stop offset="0%" stop-color="#E39717"/>
            <stop offset="10.13%" stop-color="#E8A116"/>
            <stop offset="35.61%" stop-color="#F4B710"/>
            <stop offset="60%" stop-color="#FCC509"/>
            <stop offset="81.96%" stop-color="#FFCB05"/>
            <stop offset="100%" stop-color="#FFCB05"/>
        </linearGradient>
    </defs>
    <g fill="none" fill-rule="evenodd">
        <g fill-rule="nonzero">
            <path fill="url(#a)" d="M17.543.005C8.133.17.355 6.745.012 15.78c-.339 9.04 6.707 16.647 15.737 16.986a16.314 16.314 0 0 0 11.911-4.512c2.974-2.84 2.851-7.834.487-5.57-2.6 2.49-6.235 3.978-10.199 3.835-7.558-.272-13.455-6.381-13.173-13.645C5.037 6.134 11.713.801 17.687.477L17.84 0c-.098.005-.195.005-.298.005z" transform="translate(5)"/>
            <path fill="#FFCB05" d="M24.473.466c7.723.451 14.08 6.772-8.396 13.092 5.726 1.083 9.955 3.664 9.955 3.664C45.276 7.82 34.33-.03 23.44 0l-.156.466a9.41 9.41 0 0 1 1.189 0z"/>
            <path fill="url(#b)" d="M9.308 4.034c2.477-2.07 5.552-3.38 8.473-3.54a10.23 10.23 0 0 1 1.217.005c3.877.236 7.417 1.98 7.31 4.501l1.938-2.29C25.656.986 21.796-.01 17.941 0h-.31c-3.63.064-7.026 1.046-9.877 2.741l1.554 1.293z" transform="translate(5)"/>
            <path fill="url(#c)" d="M28.026 25.556c-.005-.09-.321-2.3-.321-2.3-.785-5.249.31-10.334 8.295-10.752-11.582-5.6-19.282-.239-24.923 1.017 5.135.64 15.959 6.478 16.949 12.035z" transform="translate(5)"/>
            <path fill="url(#d)" d="M30.878 14.444c-4.917 2.003-4.414 7.55-3.941 10.804.094.264.588 2.288-.551 4.4-1.412 2.376-3.7 4.172-8.11 5.334 11.3.519 24.233-10.212 12.602-20.538z" transform="translate(5)"/>
        </g>
        <g fill="#FEFEFE">
            <path d="M9.201 57.989c-.38.291-.95.316-1.65.316h-.303v-2.736c.008.003.04.008.04.008h.556c.615 0 1.108.02 1.424.278.264.221.41.586.41 1.027 0 .473-.173.875-.477 1.107zm-1.953-5.851h.468c.628-.002 1.12-.003 1.425.262.205.177.316.472.316.832 0 .825-.249 1.152-1.207 1.25l-.686.074c0-.006-.316.537-.316.537v-2.955zm2.811 2.835c.746-.314 1.098-.881 1.098-1.79 0-.884-.41-1.564-1.127-1.858-.504-.212-.976-.263-2.408-.263h-3.03v.885s.732.108.952.142v7.294h2.41c1.185 0 1.68-.075 2.218-.326.812-.384 1.281-1.133 1.281-2.057 0-1.075-.475-1.73-1.394-2.027zM27.895 58.425c-.525 0-1.22-.21-1.22-2.028 0-1.788.62-2.03 1.233-2.03.523 0 1.221.21 1.221 2.019 0 1.796-.623 2.04-1.234 2.04m.013-5.148c-1.811 0-2.935 1.195-2.935 3.119 0 1.943 1.096 3.103 2.935 3.103 1.802 0 2.922-1.194 2.922-3.114 0-1.946-1.091-3.108-2.922-3.108M34.719 58.235l-1.143.178c-.252 0-.319-.069-.364-.132-.033-.06-.04-.1-.04-.563l.003-3.233h1.615V53.47h-1.615v-1.581l-.203.016-1.428.122v5.661c0 .629.052 1.03.316 1.344.247.311.629.456 1.19.456.515 0 1.107-.131 1.755-.392l.16-.065-.246-.795zM15.163 58.425c-.525 0-1.22-.21-1.22-2.028 0-1.788.623-2.03 1.23-2.03.524 0 1.223.21 1.223 2.019 0 1.796-.623 2.04-1.233 2.04m.01-5.148c-1.809 0-2.934 1.195-2.934 3.119 0 1.943 1.098 3.103 2.934 3.103 1.806 0 2.925-1.194 2.925-3.114 0-1.946-1.091-3.108-2.925-3.108M22.643 58.184c-.295.045-.49.07-.752.07-.982 0-1.52-.647-1.52-1.835 0-1.235.606-1.947 1.668-1.947.196 0 .342.01.604.056v3.656zm.045-4.425a2.55 2.55 0 0 0-1.265-.328c-1.622 0-2.773 1.314-2.773 3.157 0 1.767.913 2.876 2.372 2.876.38 0 .743-.101 1.621-.465v.476c0 1.03-.366 1.325-1.63 1.325-.573 0-1.347-.089-1.943-.238v.996c1.214.272 1.715.351 2.332.351.783 0 1.461-.135 1.938-.397.708-.386.97-.928.97-1.97V53.51h-1.622v.25zM39.144 58.23c-.304.048-.5.072-.77.072-1.003 0-1.552-.655-1.552-1.856 0-1.248.619-1.969 1.703-1.969.197 0 .351.01.62.06v3.693zm1.584-4.683H39.14v.248a2.483 2.483 0 0 0-1.235-.326c-1.592 0-2.717 1.307-2.717 3.145 0 1.76.89 2.865 2.321 2.865.37 0 .849-.17 1.587-.6v.546l2.29-.235v-.984h-.657v-4.66zM39.985 52.054l-.383-1.26-.171.072-2.535 1.046.221.75zM25.247 46.486c-.59.176-1.103.265-1.524.265-1.162 0-1.404-1.039-1.404-1.908 0-1.348.48-2.032 1.427-2.032.48 0 .786.118.789.118l.835.342.017-1.117-.113-.05c-.29-.125-1.053-.416-1.857-.416-1.701 0-2.801 1.244-2.801 3.162 0 1.83 1.06 3.059 2.641 3.059.69 0 1.321-.159 2.262-.572l.15-.067-.243-.837-.18.053zM4.673 46.398c-.38.293-.947.316-1.65.316H2.72V43.98c.011 0 .04.006.04.006h.56c.613 0 1.108.02 1.422.278.26.222.408.587.408 1.028 0 .472-.172.874-.477 1.106zM2.72 40.547H3.19c.63-.002 1.12-.003 1.425.262.203.178.316.472.316.833 0 .825-.249 1.153-1.207 1.249l-.688.074c0-.006-.316.539-.316.539v-2.957zm2.813 2.837c.744-.316 1.099-.883 1.099-1.791 0-.885-.41-1.562-1.13-1.859-.501-.21-.972-.26-2.405-.26H.066v.883s.734.11.953.141v7.294h2.41c1.18 0 1.679-.074 2.215-.326.814-.382 1.283-1.133 1.283-2.056 0-1.076-.474-1.73-1.394-2.026zM18.201 41.688c-.494 0-1.13.18-1.85.485l-.033-.472-2.457.318v.876h.904v4.897h1.611l.014-4.574c.222-.078.742-.24 1.25-.24.259 0 .432.05.535.154.154.16.152.473.148.837l-.002 3.823h1.63V43.88c0-.905-.04-1.203-.32-1.573-.31-.409-.792-.618-1.43-.618M28.823 46.835c-.525 0-1.223-.212-1.223-2.029 0-1.787.626-2.03 1.235-2.03.523 0 1.22.21 1.22 2.02 0 1.795-.623 2.04-1.232 2.04m.012-5.148c-1.811 0-2.936 1.195-2.936 3.118 0 1.943 1.095 3.103 2.936 3.103 1.802 0 2.923-1.193 2.923-3.114 0-1.946-1.092-3.107-2.923-3.107M11.458 46.64c-.302.049-.5.071-.77.071-1.002 0-1.552-.654-1.552-1.855 0-1.248.62-1.97 1.706-1.97.196 0 .347.01.616.06v3.694zm1.583-4.684h-1.588v.248a2.49 2.49 0 0 0-1.237-.326c-1.59 0-2.716 1.308-2.716 3.146 0 1.76.89 2.866 2.321 2.866.372 0 .852-.172 1.587-.602v.546l.034-.002 2.256-.232v-.984h-.657v-4.66zM37.92 46.59c-.73.2-1.54.352-2.063-.292-.307-.373-.369-.933-.369-1.503 0-.064.005-.13.005-.196.011-.627.178-1.03.492-1.39.5-.572 1.353-.459 1.975-.162 0 0-.04 3.425-.04 3.543m1.626-7.506l-.082.008-.193.023-2.143.279v.735h.79l-.001 1.92c-.639-.219-1.527-.406-2.343-.128-1.122.385-1.757 1.419-1.79 2.912-.03 1.352.655 2.463 1.747 2.827.803.269 1.866-.033 2.46-.32l.02.486 2.16-.291v-.737h-.692c0-.149.067-7.714.067-7.714M42.301 44.015c.016-.103.06-1.306 1.112-1.306 1.074 0 1.09 1.176 1.103 1.306h-2.215zm1.108-2.33a2.963 2.963 0 0 0-1.038.143c-1.193.398-1.869 1.462-1.903 3.001-.034 1.392.696 2.537 1.858 2.913 1.026.333 2.529-.03 3.48-.558l.052-.028-.27-.842-.534.172c-.77.216-1.764.618-2.4-.135-.343-.407-.39-1.02-.393-1.508l3.155.063h.473l.004-.07c.012-.141.02-.28.02-.417 0-2.793-2.397-2.729-2.504-2.734z"/>
        </g>
    </g>
</svg>
