<svg xmlns="http://www.w3.org/2000/svg" width="36" height="41" viewBox="0 0 36 41">
    <path fill="#6680AD" fill-rule="evenodd" d="M34.615 1.367H1.385v37.3l2.972-2.934a.698.698 0 0 1 .979 0L9 39.35l2.28-2.25a.695.695 0 0 1 .979 0l2.28 2.25 2.28-2.25a.698.698 0 0 1 .978 0l.895.884 2.28-2.25a.698.698 0 0 1 .979 0l2.28 2.25 1.587-1.567a.698.698 0 0 1 .98 0l1.587 1.567 3.664-3.617a.698.698 0 0 1 .979 0l1.587 1.567V1.367zM36 .683v36.902a.678.678 0 0 1-.27.54.696.696 0 0 1-.374.14.698.698 0 0 1-.493-.158l-.001-.001a.473.473 0 0 1-.044-.04l-2.28-2.25-3.664 3.617a.698.698 0 0 1-.979 0l-1.587-1.567-1.588 1.567a.698.698 0 0 1-.979 0l-2.28-2.25-2.28 2.25a.698.698 0 0 1-.978 0l-.895-.884-2.28 2.25a.698.698 0 0 1-.979 0l-2.28-2.25-2.28 2.25a.698.698 0 0 1-.978 0l-3.665-3.616L1.182 40.8a.697.697 0 0 1-.755.148.683.683 0 0 1-.427-.632V.683C0 .306.31 0 .692 0h34.616c.383 0 .692.306.692.683zM7.615 27.333H9a.688.688 0 0 0 .692-.683.688.688 0 0 0-.692-.683H7.615a.688.688 0 0 0-.692.683c0 .377.31.683.692.683zm0-4.1H9a.688.688 0 0 0 .692-.683.688.688 0 0 0-.692-.683H7.615a.688.688 0 0 0-.692.683c0 .377.31.683.692.683zm0-4.1H9a.688.688 0 0 0 .692-.683.688.688 0 0 0-.692-.683H7.615a.688.688 0 0 0-.692.683c0 .377.31.683.692.683zm0-4.1H9a.688.688 0 0 0 .692-.683.688.688 0 0 0-.692-.683H7.615a.688.688 0 0 0-.692.683c0 .377.31.683.692.683zm4.154 0h4.154a.688.688 0 0 0 .692-.683.688.688 0 0 0-.692-.683H11.77a.688.688 0 0 0-.692.683c0 .377.31.683.692.683zm14.539 8.884a1.377 1.377 0 0 1-1.385-1.367.688.688 0 0 0-.692-.683.688.688 0 0 0-.693.683c0 1.27.886 2.33 2.077 2.636v.097c0 .377.31.684.693.684a.688.688 0 0 0 .692-.684v-.097c1.191-.305 2.077-1.366 2.077-2.636 0-1.508-1.242-2.733-2.77-2.733a1.377 1.377 0 0 1-1.384-1.367c0-.754.621-1.367 1.385-1.367.763 0 1.384.613 1.384 1.367 0 .377.31.683.693.683a.688.688 0 0 0 .692-.683c0-1.27-.886-2.33-2.077-2.636v-.097a.688.688 0 0 0-.692-.684.688.688 0 0 0-.693.684v.097c-1.191.305-2.077 1.366-2.077 2.636 0 1.507 1.242 2.733 2.77 2.733.763 0 1.384.613 1.384 1.367s-.62 1.367-1.384 1.367zm6.251 8.883a.688.688 0 0 0 .693-.683.688.688 0 0 0-.693-.684h-.007a.685.685 0 0 0-.689.684c0 .377.314.683.696.683zm-4.154-1.367h-.007a.685.685 0 0 0-.688.684c0 .377.313.683.695.683a.688.688 0 0 0 .693-.683.688.688 0 0 0-.693-.684zm-4.153 0h-.007a.685.685 0 0 0-.69.684c0 .377.314.683.697.683a.688.688 0 0 0 .692-.683.688.688 0 0 0-.692-.684zM20.098 32.8a.688.688 0 0 0 .692-.683.688.688 0 0 0-.692-.684h-.007a.685.685 0 0 0-.69.684c0 .377.315.683.697.683zm-4.154-1.367h-.007a.685.685 0 0 0-.689.684c0 .377.314.683.696.683a.688.688 0 0 0 .692-.683.688.688 0 0 0-.692-.684zm-4.154 0h-.007a.685.685 0 0 0-.689.684c0 .377.314.683.696.683a.688.688 0 0 0 .692-.683.688.688 0 0 0-.692-.684zm-4.154 0H7.63a.685.685 0 0 0-.689.684c0 .377.314.683.696.683a.688.688 0 0 0 .692-.683.688.688 0 0 0-.692-.684zM3.482 32.8a.688.688 0 0 0 .693-.683.688.688 0 0 0-.693-.684h-.007a.685.685 0 0 0-.688.684c0 .377.313.683.695.683zm13.826-10.933h-5.539a.688.688 0 0 0-.692.683c0 .377.31.683.692.683h5.539A.688.688 0 0 0 18 22.55a.688.688 0 0 0-.692-.683zm-2.77 4.1H11.77a.688.688 0 0 0-.692.683c0 .377.31.683.692.683h2.77a.688.688 0 0 0 .692-.683.688.688 0 0 0-.693-.683zm4.154-8.2H11.77a.688.688 0 0 0-.692.683c0 .377.31.683.692.683h6.923a.688.688 0 0 0 .693-.683.688.688 0 0 0-.693-.683zM25.615 8.2h2.77a.688.688 0 0 0 .692-.683.688.688 0 0 0-.692-.684h-2.77a.688.688 0 0 0-.692.684c0 .377.31.683.692.683zM6.923 7.517c0-.378.31-.684.692-.684h11.077c.383 0 .693.306.693.684 0 .377-.31.683-.693.683H7.615a.688.688 0 0 1-.692-.683z" opacity=".7"/>
</svg>
