<svg xmlns="http://www.w3.org/2000/svg" width="36" height="36" viewBox="0 0 36 36">
    <path fill="#6680AD" fill-rule="evenodd" d="M21 26.4a.6.6 0 0 0 0-1.2h-1.2a.6.6 0 0 0-.6.6v2.4a.6.6 0 0 0 .6.6H21a.6.6 0 0 0 0-1.2h-.6v-1.2h.6zm9 2.4V27a.6.6 0 0 0-1.2 0v2.4a.6.6 0 0 0 .6.6H33a.6.6 0 0 0 0-1.2h-3zm4.8.6c0-2.977-2.423-5.4-5.4-5.4a5.407 5.407 0 0 0-5.4 5.4c0 2.977 2.423 5.4 5.4 5.4 2.977 0 5.4-2.423 5.4-5.4zm1.2 0c0 3.639-2.961 6.6-6.6 6.6a6.608 6.608 0 0 1-6.6-6.6c0-3.639 2.961-6.6 6.6-6.6s6.6 2.961 6.6 6.6zm-8.4-15h-1.2v1.2h1.2v-1.2zm1.2 1.8a.6.6 0 0 1-.6.6h-2.4a.6.6 0 0 1-.6-.6v-2.4a.6.6 0 0 1 .6-.6h2.4a.6.6 0 0 1 .6.6v2.4zM15.6 26.4h-1.2v1.2h1.2v-1.2zm1.2-.6v2.4a.6.6 0 0 1-.6.6h-2.4a.6.6 0 0 1-.6-.6v-2.4a.6.6 0 0 1 .6-.6h2.4a.6.6 0 0 1 .6.6zm-7.2.6H8.4v1.2h1.2v-1.2zm1.2-.6v2.4a.6.6 0 0 1-.6.6H7.8a.6.6 0 0 1-.6-.6v-2.4a.6.6 0 0 1 .6-.6h2.4a.6.6 0 0 1 .6.6zm10.8-11.4h-1.2v1.2h1.2v-1.2zm1.2 1.8a.6.6 0 0 1-.6.6h-2.4a.6.6 0 0 1-.6-.6v-2.4a.6.6 0 0 1 .6-.6h2.4a.6.6 0 0 1 .6.6v2.4zm5.4 5.4a.6.6 0 0 0 .6-.6v-1.2a.6.6 0 0 0-.6-.6h-2.4a.6.6 0 0 0-.6.6V21a.6.6 0 0 0 1.2 0v-.6h1.2v.6a.6.6 0 0 0 .6.6zm-6.6-1.2h-1.2v1.2h1.2v-1.2zm.6 2.4h-2.4a.6.6 0 0 1-.6-.6v-2.4a.6.6 0 0 1 .6-.6h2.4a.6.6 0 0 1 .6.6v2.4a.6.6 0 0 1-.6.6zm-6.6-2.4h-1.2v1.2h1.2v-1.2zm1.2 1.8a.6.6 0 0 1-.6.6h-2.4a.6.6 0 0 1-.6-.6v-2.4a.6.6 0 0 1 .6-.6h2.4a.6.6 0 0 1 .6.6v2.4zm-1.2-7.8h-1.2v1.2h1.2v-1.2zm1.2 1.8a.6.6 0 0 1-.6.6h-2.4a.6.6 0 0 1-.6-.6v-2.4a.6.6 0 0 1 .6-.6h2.4a.6.6 0 0 1 .6.6v2.4zm-7.2 4.2H8.4v1.2h1.2v-1.2zm1.2 1.8a.6.6 0 0 1-.6.6H7.8a.6.6 0 0 1-.6-.6v-2.4a.6.6 0 0 1 .6-.6h2.4a.6.6 0 0 1 .6.6v2.4zm-1.2-7.8H8.4v1.2h1.2v-1.2zm1.2 1.8a.6.6 0 0 1-.6.6H7.8a.6.6 0 0 1-.6-.6v-2.4a.6.6 0 0 1 .6-.6h2.4a.6.6 0 0 1 .6.6v2.4zm15.6-12a.601.601 0 0 0 1.2 0V1.8a.601.601 0 0 0-1.2 0v2.4zm-1.2 0V1.8c0-.992.808-1.8 1.8-1.8s1.8.808 1.8 1.8v2.4c0 .992-.808 1.8-1.8 1.8s-1.8-.808-1.8-1.8zm-4.8 0a.601.601 0 0 0 1.2 0V1.8a.601.601 0 0 0-1.2 0v2.4zm-1.2 0V1.8c0-.992.808-1.8 1.8-1.8s1.8.808 1.8 1.8v2.4c0 .992-.808 1.8-1.8 1.8s-1.8-.808-1.8-1.8zm-4.8 0a.601.601 0 0 0 1.2 0V1.8a.601.601 0 0 0-1.2 0v2.4zm-1.2 0V1.8c0-.992.808-1.8 1.8-1.8s1.8.808 1.8 1.8v2.4c0 .992-.808 1.8-1.8 1.8s-1.8-.808-1.8-1.8zm-4.8 0a.601.601 0 0 0 1.2 0V1.8a.601.601 0 0 0-1.2 0v2.4zm-1.2 0V1.8C7.2.808 8.008 0 9 0s1.8.808 1.8 1.8v2.4C10.8 5.192 9.992 6 9 6s-1.8-.808-1.8-1.8zm25.8 18a.6.6 0 0 0 .6-.6V10.2a.6.6 0 0 0-.6-.6H3a.6.6 0 0 0-.6.6v21c0 1.324 1.076 2.4 2.4 2.4h16.8a.6.6 0 0 0 0-1.2H4.8c-.662 0-1.2-.538-1.2-1.2V10.8h28.8v10.8a.6.6 0 0 0 .6.6zM22.8 34.8H3c-.875 0-1.8-.925-1.8-1.8V8.4H33a.6.6 0 0 0 0-1.2H.6a.6.6 0 0 0-.6.6V33c0 1.542 1.458 3 3 3h19.8a.6.6 0 0 0 0-1.2zM33 1.2h-2.4a.6.6 0 0 0 0 1.2H33c.875 0 1.8.925 1.8 1.8v18.6a.6.6 0 0 0 1.2 0V4.2c0-1.542-1.458-3-3-3zM0 5.4V4.2c0-1.542 1.458-3 3-3h2.4a.6.6 0 0 1 0 1.2H3c-.875 0-1.8.925-1.8 1.8v1.2a.6.6 0 0 1-1.2 0z" opacity=".7"/>
</svg>
