<svg xmlns="http://www.w3.org/2000/svg" width="29" height="29" viewBox="0 0 29 29">
    <path fill="#6680AD" fill-rule="evenodd" d="M16.917 21.267a.484.484 0 0 0 0-.967h-.967a.484.484 0 0 0-.483.483v1.934c0 .266.216.483.483.483h.967a.484.484 0 0 0 0-.967h-.484v-.966h.484zm7.25 1.933v-1.45a.484.484 0 0 0-.967 0v1.933c0 .267.217.484.483.484h2.9a.484.484 0 0 0 0-.967h-2.416zm3.866.483a4.355 4.355 0 0 0-4.35-4.35 4.355 4.355 0 0 0-4.35 4.35 4.355 4.355 0 0 0 4.35 4.35 4.355 4.355 0 0 0 4.35-4.35zm.967 0A5.323 5.323 0 0 1 23.683 29a5.323 5.323 0 0 1-5.316-5.317 5.323 5.323 0 0 1 5.316-5.316A5.323 5.323 0 0 1 29 23.683zM22.233 11.6h-.966v.967h.966V11.6zm.967 1.45a.484.484 0 0 1-.483.483h-1.934a.484.484 0 0 1-.483-.483v-1.933c0-.267.217-.484.483-.484h1.934c.266 0 .483.217.483.484v1.933zm-10.633 8.217H11.6v.966h.967v-.966zm.966-.484v1.934a.484.484 0 0 1-.483.483h-1.933a.484.484 0 0 1-.484-.483v-1.934c0-.266.217-.483.484-.483h1.933c.267 0 .483.217.483.483zm-5.8.484h-.966v.966h.966v-.966zm.967-.484v1.934a.484.484 0 0 1-.483.483H6.283a.484.484 0 0 1-.483-.483v-1.934c0-.266.217-.483.483-.483h1.934c.266 0 .483.217.483.483zm8.7-9.183h-.967v.967h.967V11.6zm.967 1.45a.484.484 0 0 1-.484.483H15.95a.484.484 0 0 1-.483-.483v-1.933c0-.267.216-.484.483-.484h1.933c.267 0 .484.217.484.484v1.933zm4.35 4.35a.484.484 0 0 0 .483-.483v-.967a.484.484 0 0 0-.483-.483h-1.934a.484.484 0 0 0-.483.483v.967a.484.484 0 0 0 .967 0v-.484h.966v.484c0 .266.217.483.484.483zm-5.317-.967h-.967v.967h.967v-.967zm.483 1.934H15.95a.484.484 0 0 1-.483-.484V15.95c0-.267.216-.483.483-.483h1.933c.267 0 .484.216.484.483v1.933a.484.484 0 0 1-.484.484zm-5.316-1.934H11.6v.967h.967v-.967zm.966 1.45a.484.484 0 0 1-.483.484h-1.933a.484.484 0 0 1-.484-.484V15.95c0-.267.217-.483.484-.483h1.933c.267 0 .483.216.483.483v1.933zm-.966-6.283H11.6v.967h.967V11.6zm.966 1.45a.484.484 0 0 1-.483.483h-1.933a.484.484 0 0 1-.484-.483v-1.933c0-.267.217-.484.484-.484h1.933c.267 0 .483.217.483.484v1.933zm-5.8 3.383h-.966v.967h.966v-.967zm.967 1.45a.484.484 0 0 1-.483.484H6.283a.484.484 0 0 1-.483-.484V15.95c0-.267.217-.483.483-.483h1.934c.266 0 .483.216.483.483v1.933zM7.733 11.6h-.966v.967h.966V11.6zm.967 1.45a.484.484 0 0 1-.483.483H6.283a.484.484 0 0 1-.483-.483v-1.933c0-.267.217-.484.483-.484h1.934c.266 0 .483.217.483.484v1.933zm12.567-9.667a.484.484 0 0 0 .966 0V1.45a.484.484 0 0 0-.966 0v1.933zm-.967 0V1.45c0-.8.65-1.45 1.45-1.45.8 0 1.45.65 1.45 1.45v1.933c0 .8-.65 1.45-1.45 1.45-.8 0-1.45-.65-1.45-1.45zm-3.867 0a.484.484 0 0 0 .967 0V1.45a.484.484 0 0 0-.967 0v1.933zm-.966 0V1.45c0-.8.65-1.45 1.45-1.45.8 0 1.45.65 1.45 1.45v1.933c0 .8-.65 1.45-1.45 1.45-.8 0-1.45-.65-1.45-1.45zm-3.867 0a.484.484 0 0 0 .967 0V1.45a.484.484 0 0 0-.967 0v1.933zm-.967 0V1.45c0-.8.65-1.45 1.45-1.45.8 0 1.45.65 1.45 1.45v1.933c0 .8-.65 1.45-1.45 1.45-.8 0-1.45-.65-1.45-1.45zm-3.866 0a.484.484 0 0 0 .966 0V1.45a.484.484 0 0 0-.966 0v1.933zm-.967 0V1.45C5.8.65 6.45 0 7.25 0c.8 0 1.45.65 1.45 1.45v1.933c0 .8-.65 1.45-1.45 1.45-.8 0-1.45-.65-1.45-1.45zm20.783 14.5a.484.484 0 0 0 .484-.483V8.217a.484.484 0 0 0-.484-.484H2.417a.484.484 0 0 0-.484.484v16.916c0 1.067.867 1.934 1.934 1.934H17.4a.484.484 0 0 0 0-.967H3.867a.968.968 0 0 1-.967-.967V8.7h23.2v8.7c0 .267.217.483.483.483zm-8.216 10.15H2.417c-.705 0-1.45-.745-1.45-1.45V6.767h25.616a.484.484 0 0 0 0-.967H.483A.484.484 0 0 0 0 6.283v20.3C0 27.825 1.174 29 2.417 29h15.95a.484.484 0 0 0 0-.967zM26.583.967H24.65a.484.484 0 0 0 0 .966h1.933c.705 0 1.45.746 1.45 1.45v14.984a.484.484 0 0 0 .967 0V3.383C29 2.141 27.826.967 26.583.967zM0 4.35v-.967C0 2.141 1.174.967 2.417.967H4.35a.484.484 0 0 1 0 .966H2.417c-.705 0-1.45.746-1.45 1.45v.967a.484.484 0 0 1-.967 0z"/>
</svg>
