<svg xmlns="http://www.w3.org/2000/svg" width="65" height="49" viewBox="0 0 65 49">
    <g fill="none" fill-rule="evenodd">
        <path fill="#C1E0FF" d="M9.958 4.9h50.084A4.958 4.958 0 0 1 65 9.858v.723H5v-.723A4.958 4.958 0 0 1 9.958 4.9zM59.013 39.913v-18.68h4.334c.913 0 1.653.74 1.653 1.653v21.156A4.958 4.958 0 0 1 60.042 49H9.958A4.958 4.958 0 0 1 5 44.042v-2.477h52.36c.913 0 1.653-.74 1.653-1.652z" opacity=".5"/>
        <path fill="#6680AD" d="M59 17.373H5c-.552 0-1 .432-1 .965 0 .533.448.965 1 .965h53v18.338c0 1.596-1.346 2.895-3 2.895H5c-1.391 0-3-.99-3-2.895V16.408c0-.533-.448-.966-1-.966s-1 .433-1 .966V37.64c0 2.32 1.947 4.826 5 4.826h50c2.757 0 5-2.165 5-4.826V18.338c0-.533-.448-.965-1-.965zm1-12.547v9.651c0 .533-.448.965-1 .965s-1-.432-1-.965V4.826c0-1.597-1.346-2.896-3-2.896H5c-1.654 0-3 1.3-3 2.896v4.826h53c.552 0 1 .432 1 .965 0 .532-.448.965-1 .965H1c-.552 0-1-.433-1-.965V4.826C0 2.165 2.243 0 5 0h50c2.757 0 5 2.165 5 4.826z"/>
        <path fill="#437BDA" d="M9 32.815h18c.552 0 1-.432 1-.965 0-.533-.448-.965-1-.965H9c-.552 0-1 .432-1 .965 0 .533.448.965 1 .965z"/>
        <path fill="#FDC130" d="M35 28.955c.552 0 1-.433 1-.966 0-.532-.448-.965-1-.965h-8c-.552 0-1 .433-1 .965 0 .533.448.966 1 .966h8z"/>
        <path fill="#437BDA" d="M9 28.955h14c.552 0 1-.433 1-.966 0-.532-.448-.965-1-.965H9c-.552 0-1 .433-1 .965 0 .533.448.966 1 .966z"/>
    </g>
</svg>
