<svg xmlns="http://www.w3.org/2000/svg" xmlns:xlink="http://www.w3.org/1999/xlink" width="39" height="39" viewBox="0 0 39 39">
    <defs>
        <path id="a" d="M16.91 38.61C7.369 37.37 0 29.236 0 19.385 0 15.5 1.148 11.88 3.123 8.844l8.173 14.114a8.9 8.9 0 0 0 8.147 5.3 8.881 8.881 0 0 0 4.011-.95L16.91 38.608zm1.445.132l7.91-13.66a8.86 8.86 0 0 0-2.159-13.254h13.247a19.276 19.276 0 0 1 1.533 7.558c0 10.707-8.705 19.386-19.443 19.386-.365 0-.728-.01-1.088-.03zM3.959 7.66A19.432 19.432 0 0 1 19.443 0c7.532 0 14.063 4.27 17.292 10.514H19.113v.006c-4.647.17-8.385 3.892-8.561 8.524L3.959 7.66zm15.484 18.627c-3.822 0-6.92-3.09-6.92-6.9 0-3.81 3.098-6.9 6.92-6.9s6.92 3.09 6.92 6.9c0 3.81-3.098 6.9-6.92 6.9z"/>
    </defs>
    <g fill="none" fill-rule="evenodd">
        <path d="M-5-4h48v48H-5z"/>
        <g>
            <mask id="b" fill="#fff">
                <use xlink:href="#a"/>
            </mask>
            <use fill="#92ACD9" xlink:href="#a"/>
            <path fill="#859ABE" d="M2.93 5.846l7.785 14.967 1.021-4.36 2.857-3.624 4.943-1.304 5.022-.287L43 10.985 23.866-2.358 10.686.035z" mask="url(#b)"/>
            <path fill="#859ABE" d="M22.362 11.183l2.984 3.056 1.92 3.055v2.567l-1.435 3.947-8.402 15.784 4.453.244 9.668-3.253 6.816-8.42 2.283-8.461-.98-6.632-1.228-1.755z" mask="url(#b)"/>
            <path fill="#859ABE" d="M3.023 7.714l3.347 5.613 4.858 7.369 2.447 4.069 2.123 1.59 2.74.775 3.718-.085 2.133-.858-7.593 13.835-13.344-5.167-5.55-12.08.612-9.077z" mask="url(#b)"/>
        </g>
    </g>
</svg>
