<svg xmlns="http://www.w3.org/2000/svg" width="36" height="36" viewBox="0 0 36 36">
    <path fill="#6680AD" fill-rule="evenodd" d="M13.2 28.2a.6.6 0 0 1 .6-.6h3.6a.6.6 0 0 1 0 1.2h-3.6a.6.6 0 0 1-.6-.6m0 2.4a.6.6 0 0 1 .6-.6h3.9a.6.6 0 0 1 0 1.2h-3.9a.6.6 0 0 1-.6-.6m0 2.4a.6.6 0 0 1 .6-.6h4.94a.6.6 0 1 1 0 1.2H13.8a.6.6 0 0 1-.6-.6m8.4 2.4a.6.6 0 0 1-.6.6h-7.2a.6.6 0 0 1 0-1.2H21a.6.6 0 0 1 .6.6m-12-7.2a.6.6 0 0 1-.6.6H.6a.6.6 0 0 1 0-1.2H9a.6.6 0 0 1 .6.6m0 2.4a.6.6 0 0 1-.6.6H.6a.6.6 0 0 1 0-1.2H9a.6.6 0 0 1 .6.6m0 2.4a.6.6 0 0 1-.6.6H.6a.6.6 0 0 1 0-1.2H9a.6.6 0 0 1 .6.6m0 2.4a.6.6 0 0 1-.6.6H.6a.6.6 0 0 1 0-1.2H9a.6.6 0 0 1 .6.6m2.4-7.2v7.2a.6.6 0 0 1-1.2 0v-7.2a.6.6 0 0 1 1.2 0M1.928 26.113A17.811 17.811 0 0 1 0 18C0 8.075 8.075 0 18 0s18 8.075 18 18c0 .77 0 1.885-.205 2.713a.6.6 0 1 1-1.165-.288c.17-.687.17-1.714.17-2.394C34.8 8.737 27.263 1.2 18 1.2 8.737 1.2 1.2 8.737 1.2 18c0 2.664.605 5.212 1.799 7.571a.6.6 0 1 1-1.071.542m30.435-7.428c.044-.227.041-.543.037-.636a.805.805 0 0 1 0-.077C32.4 10.06 25.94 3.6 18 3.6S3.6 10.06 3.6 18c0 2.66.73 5.258 2.113 7.513a.599.599 0 1 1-1.023.627A15.568 15.568 0 0 1 2.4 18C2.4 9.398 9.398 2.4 18 2.4S33.6 9.398 33.6 18c0 .044.02.504-.058.908a.6.6 0 0 1-1.179-.223M26.4 25.8c0 .662.538 1.2 1.2 1.2 1.324 0 2.4 1.076 2.4 2.4a2.398 2.398 0 0 1-1.8 2.315v.085a.6.6 0 0 1-1.2 0v-.085a2.398 2.398 0 0 1-1.8-2.315.6.6 0 0 1 1.2 0 1.201 1.201 0 0 0 2.4 0c0-.662-.538-1.2-1.2-1.2a2.402 2.402 0 0 1-2.4-2.4c0-1.115.768-2.047 1.8-2.315V23.4a.6.6 0 0 1 1.2 0v.085c1.032.268 1.8 1.2 1.8 2.315a.6.6 0 0 1-1.2 0 1.201 1.201 0 0 0-2.4 0m1.2 9c-3.97 0-7.2-3.23-7.2-7.2s3.23-7.2 7.2-7.2 7.2 3.23 7.2 7.2-3.23 7.2-7.2 7.2m0-15.6c-4.632 0-8.4 3.768-8.4 8.4 0 4.632 3.768 8.4 8.4 8.4 4.632 0 8.4-3.768 8.4-8.4 0-4.632-3.768-8.4-8.4-8.4m-20.4-.6H5.401a.6.6 0 0 1 0-1.2H7.2a.6.6 0 0 1 0 1.2m-.713 5.996a.6.6 0 0 1 .22-.82l.518-.3a.6.6 0 1 1 .6 1.039l-.518.3a.6.6 0 0 1-.82-.219m1.608-12.45a.599.599 0 0 1-.82.219l-.519-.3a.6.6 0 0 1 .6-1.04l.52.3a.6.6 0 0 1 .22.82m4.128-5.439l.3.52a.6.6 0 0 1-1.039.6l-.3-.52a.6.6 0 0 1 1.04-.6m12.53-.17a.6.6 0 0 1 .22.82l-.3.52a.6.6 0 1 1-1.04-.6l.3-.52a.599.599 0 0 1 .82-.22m4.758 4.868a.6.6 0 0 1-.22.82l-.518.3a.599.599 0 1 1-.6-1.039l.518-.3a.6.6 0 0 1 .82.22M18 17.4a.601.601 0 0 1 0 1.2.601.601 0 0 1 0-1.2m0 2.4c.781 0 1.44-.503 1.69-1.2h.71a.6.6 0 0 0 0-1.2h-.71a1.798 1.798 0 0 0-1.09-1.09V5.4a.6.6 0 0 0-1.2 0v10.91a1.798 1.798 0 0 0-1.09 1.09H9.6a.6.6 0 0 0 0 1.2h6.711c.248.697.908 1.2 1.689 1.2" opacity=".7"/>
</svg>
