<svg xmlns="http://www.w3.org/2000/svg" width="29" height="29" viewBox="0 0 29 29">
    <path fill="#8A8D94" fill-rule="evenodd" d="M10.633 22.65c0-.267.217-.483.484-.483h3.141a.484.484 0 0 1 0 .966h-3.141a.484.484 0 0 1-.484-.483m0 2.933c0-.266.217-.483.484-.483h3.98a.483.483 0 1 1 0 .967h-3.98a.484.484 0 0 1-.484-.484m6.767 2.934a.484.484 0 0 1-.483.483h-5.8a.484.484 0 0 1 0-.967h5.8c.266 0 .483.217.483.484M7.733 22.65a.484.484 0 0 1-.483.483H.483a.484.484 0 0 1 0-.966H7.25c.267 0 .483.216.483.483m0 2.933a.484.484 0 0 1-.483.484H.483a.484.484 0 0 1 0-.967H7.25c.267 0 .483.217.483.483m0 2.934A.484.484 0 0 1 7.25 29H.483a.484.484 0 0 1 0-.967H7.25c.267 0 .483.217.483.484m1.934-5.8v5.8a.484.484 0 0 1-.967 0v-5.8a.484.484 0 0 1 .967 0m-8.114-1.682A14.348 14.348 0 0 1 0 14.5C0 6.505 6.505 0 14.5 0S29 6.505 29 14.5c0 .62 0 1.518-.165 2.185a.483.483 0 1 1-.938-.232c.136-.553.136-1.38.136-1.928C28.033 7.038 21.963.967 14.5.967 7.038.967.967 7.037.967 14.5c0 2.146.487 4.198 1.449 6.1a.484.484 0 1 1-.863.435m19.714-.252c0 .533.433.967.966.967 1.067 0 1.934.867 1.934 1.933 0 .898-.619 1.649-1.45 1.865v.069a.484.484 0 0 1-.967 0v-.069a1.932 1.932 0 0 1-1.45-1.865.484.484 0 0 1 .967 0 .968.968 0 0 0 1.933 0 .968.968 0 0 0-.967-.966 1.935 1.935 0 0 1-1.933-1.934c0-.898.619-1.648 1.45-1.864v-.069a.484.484 0 0 1 .967 0v.069c.831.216 1.45.966 1.45 1.864a.484.484 0 0 1-.967 0 .968.968 0 0 0-1.933 0m.966 7.25a5.806 5.806 0 0 1-5.8-5.8c0-3.198 2.602-5.8 5.8-5.8 3.199 0 5.8 2.602 5.8 5.8 0 3.199-2.601 5.8-5.8 5.8m0-12.566a6.774 6.774 0 0 0-6.766 6.766A6.774 6.774 0 0 0 22.233 29 6.774 6.774 0 0 0 29 22.233a6.774 6.774 0 0 0-6.767-6.766M5.8 14.984H4.351a.484.484 0 0 1 0-.967H5.8a.484.484 0 0 1 0 .967m-.574 4.83a.484.484 0 0 1 .176-.661l.418-.242a.483.483 0 1 1 .484.837l-.418.242a.483.483 0 0 1-.66-.176M6.52 9.783a.483.483 0 0 1-.66.177l-.419-.242a.483.483 0 0 1 .484-.837l.418.241c.231.134.31.43.177.66m3.326-4.38l.242.417a.484.484 0 0 1-.837.484l-.242-.418a.483.483 0 0 1 .837-.484m10.094-.137c.231.134.31.43.177.66l-.241.42a.483.483 0 1 1-.838-.484l.242-.419a.482.482 0 0 1 .66-.177m3.833 3.922a.484.484 0 0 1-.176.66l-.418.242a.482.482 0 1 1-.484-.837l.418-.242a.483.483 0 0 1 .66.177m-9.274 4.83a.484.484 0 1 1-.002.968.484.484 0 0 1 .002-.968m0 1.933c.63 0 1.16-.434 1.361-1.036h.572c.267 0 .484-.232.484-.518 0-.286-.217-.518-.484-.518h-.572a1.504 1.504 0 0 0-.878-.94v-9.42c0-.286-.216-.518-.483-.518s-.483.232-.483.518v9.42c-.41.156-.732.501-.878.94H7.733c-.266 0-.483.232-.483.518 0 .286.217.518.483.518h5.406c.2.602.732 1.036 1.361 1.036" opacity=".5"/>
</svg>
