<svg xmlns="http://www.w3.org/2000/svg" width="26" height="18" viewBox="0 0 26 18">
    <path fill="#0040A8" fill-rule="nonzero" stroke="#0040A8" stroke-width=".3" d="M13 .169c1.841 0 3.687.69 5.092 2.084a7.091 7.091 0 0 1 1.983 3.839C22.863 6.542 25 8.926 25 11.816c0 3.21-2.633 5.823-5.867 5.823H6.067C3.269 17.64 1 15.387 1 12.61c0-2.704 2.155-4.89 4.85-5.005-.078-1.926.588-3.884 2.067-5.352A7.186 7.186 0 0 1 13 .17zm0 1.059a6.116 6.116 0 0 0-4.333 1.778 6.052 6.052 0 0 0-1.75 5.038.527.527 0 0 1-.13.418.535.535 0 0 1-.404.177h-.316c-2.226 0-4 1.762-4 3.971s1.774 3.97 4 3.97h13.066c2.658 0 4.8-2.126 4.8-4.764 0-2.49-1.911-4.528-4.358-4.748a.532.532 0 0 1-.483-.464 6.029 6.029 0 0 0-1.75-3.598A6.137 6.137 0 0 0 13 1.228zm0 5.294c.295 0 .533.237.533.53v5.69l2.042-1.844a.561.561 0 0 1 .758.033.541.541 0 0 1-.041.753l-2.934 2.647a.582.582 0 0 1-.358.132.47.47 0 0 1-.358-.132l-2.934-2.647c-.208-.186-.247-.549-.041-.753.198-.197.551-.22.758-.033l2.042 1.844v-5.69c0-.293.238-.53.533-.53z"/>
</svg>
