<svg xmlns="http://www.w3.org/2000/svg" width="14" height="18" viewBox="0 0 14 18">
    <path fill="#FFF" fill-rule="evenodd" d="M2.057 7.2V4.886a4.886 4.886 0 0 1 9.772 0V7.2h.257a1.8 1.8 0 0 1 1.8 1.8v7.2a1.8 1.8 0 0 1-1.8 1.8H1.8A1.8 1.8 0 0 1 0 16.2V9a1.8 1.8 0 0 1 1.8-1.8h.257zm.772 1.543H1.8A.257.257 0 0 0 1.543 9v7.2c0 .142.115.257.257.257h10.286a.257.257 0 0 0 .257-.257V9a.257.257 0 0 0-.257-.257H2.829zM10.286 7.2V4.886a3.343 3.343 0 0 0-6.686 0V7.2h6.686zm-3.848 5.1a1.138 1.138 0 0 1-.379-1.514c.21-.463.673-.757 1.136-.757.042 0 .127.042.21.042.59.126 1.01.63 1.01 1.22a1.2 1.2 0 0 1-.504 1.01h-.042V13.689c0 .253-.169.505-.38.632a.793.793 0 0 1-.336.084.737.737 0 0 1-.715-.716v-1.346-.042z"/>
</svg>
