<svg xmlns="http://www.w3.org/2000/svg" width="36" height="26" viewBox="0 0 36 26">
    <path fill="#8A8D94" fill-rule="evenodd" d="M5.4 20.09a.596.596 0 0 1-.6-.59c0-.326.269-.59.6-.59h10.8c.331 0 .6.264.6.59 0 .326-.269.59-.6.59H5.4zM21 17.728h-4.8a.596.596 0 0 1-.6-.59c0-.327.269-.592.6-.592H21c.331 0 .6.265.6.591 0 .327-.269.591-.6.591zm-15.6 0a.596.596 0 0 1-.6-.59c0-.327.269-.592.6-.592h8.4c.331 0 .6.265.6.591 0 .327-.269.591-.6.591H5.4zm30-7.09H3c-.331 0-.6.264-.6.59 0 .326.269.591.6.591h31.8v11.227c0 .978-.808 1.773-1.8 1.773H3c-.835 0-1.8-.606-1.8-1.773v-13a.596.596 0 0 0-.6-.59c-.331 0-.6.264-.6.59v13C0 24.465 1.168 26 3 26h30c1.654 0 3-1.325 3-2.955V11.227a.596.596 0 0 0-.6-.59zm.6-7.682v5.909c0 .326-.269.59-.6.59a.596.596 0 0 1-.6-.59v-5.91c0-.977-.808-1.772-1.8-1.772H3c-.992 0-1.8.795-1.8 1.773v2.954H33c.331 0 .6.265.6.591 0 .326-.269.59-.6.59H.6A.596.596 0 0 1 0 6.5V2.955C0 1.325 1.346 0 3 0h30c1.654 0 3 1.325 3 2.955z" opacity=".5"/>
</svg>
