<?xml version="1.0" encoding="UTF-8"?>
<svg width="20px" height="14px" viewBox="0 0 20 14" version="1.1" xmlns="http://www.w3.org/2000/svg" xmlns:xlink="http://www.w3.org/1999/xlink">
    <!-- Generator: sketchtool 51.2 (57519) - http://www.bohemiancoding.com/sketch -->
    <title>75F36257-8946-47B0-82E7-B3E73A823997</title>
    <desc>Created with sketchtool.</desc>
    <defs></defs>
    <g id="Page-4" stroke="none" stroke-width="1" fill="none" fill-rule="evenodd">
        <g id="02_Desktop_login---Clave-segura---vacío" transform="translate(-639.000000, -521.000000)" fill="#4070BE">
            <g id="Group-11" transform="translate(498.000000, 515.000000)">
                <g id="Group-10" transform="translate(141.000000, 3.000000)">
                    <g id="Group-8">
                        <path d="M18.125,3.6875 C18.6458359,3.6875 19.0885398,3.86978984 19.453125,4.234375 C19.8177102,4.59896016 20,5.04166406 20,5.5625 L20,14.9375 C20,15.4583359 19.8177102,15.9010398 19.453125,16.265625 C19.0885398,16.6302102 18.6458359,16.8125 18.125,16.8125 L1.875,16.8125 C1.35416406,16.8125 0.911460156,16.6302102 0.546875,16.265625 C0.182289844,15.9010398 0,15.4583359 0,14.9375 L0,5.5625 C0,5.04166406 0.182289844,4.59896016 0.546875,4.234375 C0.911460156,3.86978984 1.35416406,3.6875 1.875,3.6875 L18.125,3.6875 Z M1.875,4.9375 C1.70572832,4.9375 1.55924541,4.99934834 1.43554688,5.12304688 C1.31184834,5.24674541 1.25,5.39322832 1.25,5.5625 L1.25,6.8125 L18.75,6.8125 L18.75,5.5625 C18.75,5.39322832 18.6881517,5.24674541 18.5644531,5.12304688 C18.4407546,4.99934834 18.2942717,4.9375 18.125,4.9375 L1.875,4.9375 Z M18.125,15.5625 C18.2942717,15.5625 18.4407546,15.5006517 18.5644531,15.3769531 C18.6881517,15.2532546 18.75,15.1067717 18.75,14.9375 L18.75,9.3125 L1.25,9.3125 L1.25,14.9375 C1.25,15.1067717 1.31184834,15.2532546 1.43554688,15.3769531 C1.55924541,15.5006517 1.70572832,15.5625 1.875,15.5625 L18.125,15.5625 Z" id="credit-card---simple-line-icons"></path>
                    </g>
                </g>
            </g>
        </g>
    </g>
</svg>