<svg xmlns="http://www.w3.org/2000/svg" width="29" height="21" viewBox="0 0 29 21">
    <g fill="#6680AD" fill-rule="evenodd">
        <path d="M28.138 8.51H2.385a.475.475 0 0 0-.477.472c0 .26.213.473.477.473h25.277v8.981c0 .782-.642 1.419-1.431 1.419H2.385c-.664 0-1.431-.485-1.431-1.419v-10.4a.475.475 0 0 0-.477-.472.475.475 0 0 0-.477.472v10.4C0 19.572.929 20.8 2.385 20.8H26.23c1.315 0 2.384-1.06 2.384-2.364V8.982a.475.475 0 0 0-.477-.473zm.477-6.146V7.09c0 .26-.213.473-.477.473a.475.475 0 0 1-.476-.473V2.364c0-.782-.642-1.419-1.431-1.419H2.385c-.79 0-1.431.637-1.431 1.419v2.363H26.23c.263 0 .477.212.477.473 0 .26-.214.473-.477.473H.477A.475.475 0 0 1 0 5.2V2.364C0 1.06 1.07 0 2.385 0H26.23c1.315 0 2.384 1.06 2.384 2.364z"/>
        <path d="M4.292 16.073h8.585a.475.475 0 0 0 .477-.473.475.475 0 0 0-.477-.473H4.292a.475.475 0 0 0-.477.473c0 .26.214.473.477.473zM16.692 14.182a.475.475 0 0 0 .477-.473.475.475 0 0 0-.477-.473h-3.815a.475.475 0 0 0-.477.473c0 .261.214.473.477.473h3.815zM4.292 14.182h6.677a.475.475 0 0 0 .477-.473.475.475 0 0 0-.477-.473H4.292a.475.475 0 0 0-.477.473c0 .261.214.473.477.473z"/>
    </g>
</svg>
