<svg xmlns="http://www.w3.org/2000/svg" width="24" height="22" viewBox="0 0 24 22">
    <g fill="#4070BE" fill-rule="nonzero">
        <path d="M2.484 13.106a.469.469 0 1 0 0 .938.469.469 0 0 0 0-.938z"/>
        <path d="M23.231 14.657a1.811 1.811 0 0 0-1.664-.216l-4.43 1.736a1.876 1.876 0 0 0-1.856-2.134h-3.035a.47.47 0 0 1-.23-.06L9.539 12.59a3.288 3.288 0 0 0-1.61-.42h-3.1v-.469a.468.468 0 0 0-.47-.468H.47a.468.468 0 0 0-.469.468v8.426c0 .258.21.468.469.468h3.89c.26 0 .47-.21.47-.468v-.468h.352l4.472 1.807a7.285 7.285 0 0 0 2.74.533 7.261 7.261 0 0 0 3.032-.658l7.454-3.539a1.805 1.805 0 1 0 .353-3.146zM3.891 19.66H.937v-7.49h2.954v7.49zm18.625-2.72a.463.463 0 0 0-.027.012l-7.463 3.543a6.327 6.327 0 0 1-2.633.569 6.35 6.35 0 0 1-2.388-.464l-4.557-1.842a.47.47 0 0 0-.176-.035h-.444v-5.617H7.93c.402 0 .8.104 1.15.301l2.476 1.391c.21.118.448.18.69.18h3.035c.517 0 .938.42.938.937 0 .324-.17.626-.447.796l-.003.002a.468.468 0 0 0-.098.053.934.934 0 0 1-.39.085h-4.765c-.775 0-1.406.63-1.406 1.404a.468.468 0 0 0 .937 0c0-.258.21-.468.469-.468h4.765c.315 0 .624-.08.896-.229l5.726-2.243a.86.86 0 0 1 .79.108.865.865 0 0 1-.177 1.517z"/>
        <path d="M2.484 14.979a.468.468 0 0 0-.468.468v2.808a.468.468 0 0 0 .937 0v-2.808a.468.468 0 0 0-.469-.468zM18.563 7.49a2.814 2.814 0 0 0-2.813 2.808 2.814 2.814 0 0 0 5.625 0 2.814 2.814 0 0 0-2.813-2.809zm0 4.68a1.876 1.876 0 0 1-1.875-1.872 1.876 1.876 0 0 1 3.75 0 1.876 1.876 0 0 1-1.875 1.872zM16.688 0a2.814 2.814 0 0 0-2.813 2.809 2.814 2.814 0 0 0 5.625 0A2.814 2.814 0 0 0 16.687 0zm0 4.68a1.876 1.876 0 0 1-1.875-1.871 1.876 1.876 0 0 1 3.75 0 1.876 1.876 0 0 1-1.875 1.872zM11.063 5.617A2.814 2.814 0 0 0 8.25 8.426a2.814 2.814 0 0 0 5.625 0 2.814 2.814 0 0 0-2.813-2.809zm0 4.68a1.876 1.876 0 0 1-1.876-1.871 1.876 1.876 0 0 1 3.75 0 1.876 1.876 0 0 1-1.874 1.872z"/>
    </g>
</svg>
