<svg xmlns="http://www.w3.org/2000/svg" width="34" height="36" viewBox="0 0 34 36">
    <path fill="#8A8D94" fill-rule="evenodd" d="M31.571 18.6v3c0 5.955-4.902 10.8-10.928 10.8h-2.177l2.606 2.576a.594.594 0 0 1 0 .848.61.61 0 0 1-.858 0l-3.643-3.6a.594.594 0 0 1 0-.85l3.643-3.598a.612.612 0 0 1 .858 0 .594.594 0 0 1 0 .848L18.466 31.2h2.177c5.356 0 9.714-4.307 9.714-9.6v-3c0-.331.272-.6.607-.6.335 0 .607.269.607.6M2.43 17.4v-3c0-5.955 4.902-10.8 10.928-10.8h2.177l-2.606-2.576a.594.594 0 0 1 0-.848.612.612 0 0 1 .858 0l3.643 3.6a.594.594 0 0 1 0 .85l-3.643 3.598a.61.61 0 0 1-.858 0 .594.594 0 0 1 0-.848L15.534 4.8h-2.177c-5.356 0-9.714 4.307-9.714 9.6v3c0 .331-.272.6-.607.6a.604.604 0 0 1-.607-.6M8.5 33.6c-4.017 0-7.286-3.23-7.286-7.2s3.269-7.2 7.286-7.2c4.017 0 7.286 3.23 7.286 7.2s-3.269 7.2-7.286 7.2m0-15.6C3.813 18 0 21.768 0 26.4c0 4.632 3.813 8.4 8.5 8.4 4.687 0 8.5-3.768 8.5-8.4 0-4.632-3.813-8.4-8.5-8.4m18.214-6.6c0-.662-.544-1.2-1.214-1.2-1.34 0-2.429-1.076-2.429-2.4 0-1.115.778-2.046 1.822-2.315V5.4c0-.331.272-.6.607-.6.335 0 .607.269.607.6v.085c1.044.269 1.822 1.2 1.822 2.315 0 .331-.272.6-.608.6a.604.604 0 0 1-.607-.6c0-.662-.544-1.2-1.214-1.2-.67 0-1.214.538-1.214 1.2 0 .662.544 1.2 1.214 1.2 1.34 0 2.429 1.077 2.429 2.4 0 1.115-.778 2.047-1.822 2.315v.085c0 .331-.272.6-.607.6a.604.604 0 0 1-.607-.6v-.085c-1.044-.268-1.822-1.2-1.822-2.315 0-.331.272-.6.608-.6.335 0 .607.269.607.6 0 .662.544 1.2 1.214 1.2.67 0 1.214-.538 1.214-1.2M9.643 28.6c0-.662-.545-1.2-1.214-1.2C7.089 27.4 6 26.324 6 25c0-1.115.777-2.047 1.821-2.315V22.6c0-.331.272-.6.608-.6.335 0 .607.269.607.6v.085c1.044.268 1.821 1.2 1.821 2.315 0 .331-.272.6-.607.6a.604.604 0 0 1-.607-.6c0-.662-.545-1.2-1.214-1.2-.67 0-1.215.538-1.215 1.2 0 .662.545 1.2 1.215 1.2 1.339 0 2.428 1.076 2.428 2.4 0 1.115-.777 2.047-1.821 2.315V31c0 .331-.272.6-.607.6a.604.604 0 0 1-.608-.6v-.085C6.777 30.647 6 29.715 6 28.6c0-.331.272-.6.607-.6.335 0 .607.269.607.6 0 .662.545 1.2 1.215 1.2s1.214-.538 1.214-1.2M25.5 2.4c4.017 0 7.286 3.23 7.286 7.2s-3.269 7.2-7.286 7.2c-4.017 0-7.286-3.23-7.286-7.2s3.269-7.2 7.286-7.2m0 15.6c4.687 0 8.5-3.768 8.5-8.4 0-4.632-3.813-8.4-8.5-8.4-4.687 0-8.5 3.768-8.5 8.4 0 4.632 3.813 8.4 8.5 8.4" opacity=".5"/>
</svg>
