<svg xmlns="http://www.w3.org/2000/svg" width="27" height="29" viewBox="0 0 27 29">
    <path fill="#6680AD" fill-rule="evenodd" d="M25.071 14.983V17.4c0 4.797-3.893 8.7-8.678 8.7h-1.73l2.07 2.075a.484.484 0 0 1-.681.683l-2.893-2.9a.485.485 0 0 1 0-.684l2.893-2.899a.484.484 0 0 1 .682.683l-2.07 2.075h1.729c4.253 0 7.714-3.469 7.714-7.733v-2.417a.483.483 0 1 1 .964 0M1.93 14.017V11.6c0-4.797 3.893-8.7 8.678-8.7h1.73L10.266.825a.484.484 0 0 1 .681-.683l2.893 2.9a.485.485 0 0 1 0 .684l-2.893 2.9a.48.48 0 0 1-.682 0 .484.484 0 0 1 0-.684l2.07-2.075h-1.729c-4.253 0-7.714 3.47-7.714 7.733v2.417a.483.483 0 1 1-.964 0m4.821 13.05c-3.19 0-5.786-2.602-5.786-5.8 0-3.199 2.596-5.8 5.786-5.8 3.19 0 5.786 2.601 5.786 5.8 0 3.198-2.596 5.8-5.786 5.8m0-12.567C3.028 14.5 0 17.535 0 21.267c0 3.731 3.028 6.766 6.75 6.766s6.75-3.035 6.75-6.766c0-3.732-3.028-6.767-6.75-6.767m14.464-5.317a.966.966 0 0 0-.964-.966 1.93 1.93 0 1 1-.482-3.798V4.35a.483.483 0 1 1 .964 0v.069a1.93 1.93 0 0 1 1.447 1.864.483.483 0 1 1-.965 0 .966.966 0 0 0-.964-.966.966.966 0 0 0 0 1.933 1.93 1.93 0 1 1 .482 3.798v.069a.483.483 0 1 1-.964 0v-.069a1.93 1.93 0 0 1-1.447-1.865.483.483 0 1 1 .965 0c0 .534.432.967.964.967a.966.966 0 0 0 .964-.967M7.658 23.04a.966.966 0 0 0-.965-.967 1.93 1.93 0 1 1-.482-3.798v-.068a.483.483 0 1 1 .964 0v.068a1.93 1.93 0 0 1 1.447 1.865.483.483 0 1 1-.964 0 .966.966 0 0 0-.965-.967.966.966 0 0 0 0 1.934 1.93 1.93 0 1 1 .482 3.798v.068a.483.483 0 1 1-.964 0v-.068a1.93 1.93 0 0 1-1.446-1.865.483.483 0 1 1 .964 0c0 .533.432.967.964.967a.966.966 0 0 0 .965-.967M20.25 1.933c3.19 0 5.786 2.602 5.786 5.8 0 3.199-2.596 5.8-5.786 5.8-3.19 0-5.786-2.601-5.786-5.8 0-3.198 2.596-5.8 5.786-5.8m0 12.567c3.722 0 6.75-3.035 6.75-6.767 0-3.73-3.028-6.766-6.75-6.766S13.5 4.002 13.5 7.733c0 3.732 3.028 6.767 6.75 6.767"/>
</svg>
