<svg xmlns="http://www.w3.org/2000/svg" width="17" height="20" viewBox="0 0 17 20">
    <g fill="none" fill-rule="nonzero">
        <path fill="#DFEFFF" d="M8.5 10a7.5 7.5 0 0 1 7.5 7.5V19H1v-1.5A7.5 7.5 0 0 1 8.5 10z"/>
        <path fill="#6680AD" stroke="#6680AD" stroke-width=".4" d="M6.19 9.363a4.5 4.5 0 1 1 4.62 0A7.503 7.503 0 0 1 16 16.5v.141l-.002.093C16 18 15 19 13.636 19H3.308C2 19 1 18 1 16.641V16.5a7.503 7.503 0 0 1 5.19-7.137zM8.5 9a3.5 3.5 0 1 0 0-7 3.5 3.5 0 0 0 0 7zm6.5 7.5a6.5 6.5 0 1 0-13 0A1.5 1.5 0 0 0 3.5 18h10a1.5 1.5 0 0 0 1.5-1.5z"/>
    </g>
</svg>
