<svg xmlns="http://www.w3.org/2000/svg" width="19" height="19" viewBox="0 0 19 19">
    <g fill="none" fill-rule="nonzero">
        <path fill="#DFEFFF" d="M11.09 18c-.65 0-1.19-.392-1.37-.997l-1.735-5.782a.306.306 0 0 0-.207-.206L1.997 9.281A1.384 1.384 0 0 1 1 7.89c.02-.555.352-1.031.868-1.243L16.524.652a1.376 1.376 0 0 1 1.519.306c.405.406.522.987.305 1.518L12.353 17.13c-.22.536-.704.868-1.262.868z"/>
        <path fill="#6680AD" stroke="#6680AD" stroke-width=".4" d="M11.09 18c-.65 0-1.19-.392-1.37-.997l-1.735-5.782a.306.306 0 0 0-.207-.206L1.997 9.281A1.384 1.384 0 0 1 1 7.89c.02-.555.352-1.031.868-1.243L16.524.652a1.376 1.376 0 0 1 1.519.306c.405.406.522.987.305 1.518L12.353 17.13c-.22.536-.704.868-1.262.868zM16.939 1.66L2.282 7.657a.292.292 0 0 0-.191.271.298.298 0 0 0 .219.308L8.09 9.97c.452.136.803.487.938.938l1.735 5.782c.059.197.248.219.327.219.116 0 .2-.064.252-.191l5.995-14.656a.297.297 0 0 0-.067-.333.298.298 0 0 0-.333-.068z"/>
    </g>
</svg>
