<svg xmlns="http://www.w3.org/2000/svg" width="32" height="32" viewBox="0 0 32 32">
    <g fill="none" fill-rule="evenodd">
        <g fill="#5C5C5C" fill-rule="nonzero">
            <g>
                <g>
                    <g>
                        <g>
                            <g>
                                <path d="M29 0c1.657 0 3 1.343 3 3v18c0 1.657-1.343 3-3 3H3c-1.657 0-3-1.343-3-3V3c0-1.657 1.343-3 3-3zm1 8H2v13c0 .513.386.936.883.993L3 22h26c.552 0 1-.448 1-1V8zm-16 8c.552 0 1 .448 1 1 0 .506-.376.925-.864.99L14 18H7c-.552 0-1-.448-1-1 0-.506.376-.925.864-.99L7 16h7zm4-4c.552 0 1 .448 1 1 0 .506-.376.925-.864.99L18 14H7c-.552 0-1-.448-1-1 0-.506.376-.925.864-.99L7 12h11zM29 2H3c-.552 0-1 .448-1 1v3h28V3c0-.513-.386-.936-.883-.993L29 2z" transform="translate(-104 -257) translate(72 224) translate(24 25) translate(8 8) translate(0 4)"/>
                            </g>
                        </g>
                    </g>
                </g>
            </g>
        </g>
    </g>
</svg>
