<svg xmlns="http://www.w3.org/2000/svg" width="20" height="33" viewBox="0 0 20 33">
    <g fill="none" fill-rule="evenodd">
        <rect width="16.825" height="31.706" x=".635" y=".647" fill="#FFF" rx="1.68"/>
        <path fill="#F2FCFC" d="M4.762 1.941h10.794c1.052 0 1.904.87 1.904 1.941v.324H2.857v-.324c0-1.072.853-1.94 1.905-1.94z"/>
        <path fill="#C1E0FF" d="M5.08 6.794h13.015c1.052 0 1.905.87 1.905 1.941v19.736c0 1.072-.853 1.94-1.905 1.94H5.08c-1.052 0-1.904-.868-1.904-1.94V8.735c0-1.072.852-1.94 1.904-1.94z" opacity=".5"/>
        <path fill="#6680AD" fill-rule="nonzero" d="M2.54 1.294c-.702 0-1.27.58-1.27 1.294v27.824c0 .714.568 1.294 1.27 1.294h13.016c.7 0 1.27-.58 1.27-1.294V2.588c0-.714-.57-1.294-1.27-1.294H2.54zM2.54 0h13.016c1.402 0 2.54 1.159 2.54 2.588v27.824c0 1.43-1.138 2.588-2.54 2.588H2.54C1.137 33 0 31.841 0 30.412V2.588C0 1.158 1.137 0 2.54 0z"/>
        <path fill="#6680AD" fill-rule="nonzero" d="M1.27 4.853v22.323h15.555V4.853H1.27zM.635 3.559H17.46c.351 0 .635.29.635.647v23.618a.641.641 0 0 1-.635.647H.635A.641.641 0 0 1 0 27.824V4.206c0-.357.284-.647.635-.647z"/>
        <path fill="#C4D4E3" d="M9.023 1.618a.778.778 0 0 0-.769.782c0 .43.346.782.769.782A.778.778 0 0 0 9.79 2.4a.778.778 0 0 0-.768-.782z"/>
        <path fill="#FDC130" fill-rule="nonzero" d="M6.984 30.735a.641.641 0 0 1-.635-.647c0-.357.284-.647.635-.647h3.943c.35 0 .635.29.635.647a.641.641 0 0 1-.635.647H6.984z"/>
    </g>
</svg>
