<?xml version="1.0" encoding="UTF-8"?>
<svg width="40px" height="40px" viewBox="0 0 40 40" version="1.1" xmlns="http://www.w3.org/2000/svg" xmlns:xlink="http://www.w3.org/1999/xlink">
    <!-- Generator: sketchtool 50.2 (55047) - http://www.bohemiancoding.com/sketch -->
    <title>F339740F-9FE9-49BA-A5EB-F1D50DF0E7EA</title>
    <desc>Created with sketchtool.</desc>
    <defs>
        <linearGradient x1="85.3027344%" y1="100%" x2="21.328125%" y2="0%" id="linearGradient-1">
            <stop stop-color="#0E43A0" offset="0%"></stop>
            <stop stop-color="#427EE6" offset="100%"></stop>
        </linearGradient>
    </defs>
    <g id="Sprint09" stroke="none" stroke-width="1" fill="none" fill-rule="evenodd">
        <g id="04_00_m_masopciones" transform="translate(-20.000000, -134.000000)">
            <g id="docs-icon" transform="translate(20.000000, 134.000000)">
                <circle id="Oval-3" fill="url(#linearGradient-1)" cx="20" cy="20" r="20"></circle>
                <path d="M14.5806452,11 L22.335549,11 C22.7547622,11 23.1568055,11.1701918 23.453234,11.4731352 L26.5370398,14.6247169 C26.8334682,14.9276603 27,15.3385397 27,15.7669664 L27,27.3846154 C27,28.2767677 26.2923211,29 25.4193548,29 L14.5806452,29 C13.7076789,29 13,28.2767677 13,27.3846154 L13,12.6153846 C13,11.7232323 13.7076789,11 14.5806452,11 Z M14.5806452,12.3846154 C14.4559357,12.3846154 14.3548387,12.4879343 14.3548387,12.6153846 L14.3548387,27.3846154 C14.3548387,27.5120657 14.4559357,27.6153846 14.5806452,27.6153846 L25.4193548,27.6153846 C25.5440643,27.6153846 25.6451613,27.5120657 25.6451613,27.3846154 L25.6451613,15.7669664 C25.6451613,15.7057626 25.621371,15.6470655 25.5790241,15.6037879 L22.4952183,12.4522061 C22.4528714,12.4089285 22.3954366,12.3846154 22.335549,12.3846154 L14.5806452,12.3846154 Z M16.4444444,21 C16.1989846,21 16,20.7761424 16,20.5 C16,20.2238576 16.1989846,20 16.4444444,20 L23.5555556,20 C23.8010154,20 24,20.2238576 24,20.5 C24,20.7761424 23.8010154,21 23.5555556,21 L16.4444444,21 Z M16.4444444,18 C16.1989846,18 16,17.7761424 16,17.5 C16,17.2238576 16.1989846,17 16.4444444,17 L23.5555556,17 C23.8010154,17 24,17.2238576 24,17.5 C24,17.7761424 23.8010154,18 23.5555556,18 L16.4444444,18 Z M16.4375,24 C16.1958754,24 16,23.7761424 16,23.5 C16,23.2238576 16.1958754,23 16.4375,23 L22.5625,23 C22.8041246,23 23,23.2238576 23,23.5 C23,23.7761424 22.8041246,24 22.5625,24 L16.4375,24 Z" id="Combined-Shape" fill="#FFFFFF" fill-rule="nonzero"></path>
            </g>
        </g>
    </g>
</svg>