<svg xmlns="http://www.w3.org/2000/svg" width="26" height="18" viewBox="0 0 26 18">
    <path fill="#8A8D94" fill-rule="nonzero" stroke="#8A8D94" stroke-width=".3" d="M13 .265c1.841 0 3.687.69 5.092 2.084a7.091 7.091 0 0 1 1.983 3.839C22.863 6.638 25 9.022 25 11.912c0 3.21-2.633 5.823-5.867 5.823H6.067C3.269 17.735 1 15.483 1 12.705c0-2.703 2.155-4.889 4.85-5.004-.078-1.926.588-3.884 2.067-5.352A7.186 7.186 0 0 1 13 .265zm0 1.059a6.116 6.116 0 0 0-4.333 1.778 6.052 6.052 0 0 0-1.75 5.038.527.527 0 0 1-.13.418.535.535 0 0 1-.404.177h-.316c-2.226 0-4 1.762-4 3.97 0 2.21 1.774 3.971 4 3.971h13.066c2.658 0 4.8-2.127 4.8-4.764 0-2.49-1.911-4.528-4.358-4.748a.532.532 0 0 1-.483-.464 6.029 6.029 0 0 0-1.75-3.598A6.137 6.137 0 0 0 13 1.324zm0 5.294c.295 0 .533.237.533.53v5.69l2.042-1.844a.561.561 0 0 1 .758.033.541.541 0 0 1-.041.752l-2.934 2.647a.582.582 0 0 1-.358.133.47.47 0 0 1-.358-.133L9.708 11.78c-.208-.185-.247-.548-.041-.752.198-.197.551-.221.758-.033l2.042 1.844v-5.69c0-.293.238-.53.533-.53z"/>
</svg>
