<svg xmlns="http://www.w3.org/2000/svg" width="35" height="39" viewBox="0 0 35 39">
    <g fill="none" fill-rule="evenodd">
        <path d="M-6-5h48v48H-6z"/>
        <path fill="#859ABE" d="M32.06 7.601a7.788 7.788 0 0 0-.131-.184C28.692 2.915 23.528 0 17.709 0 8.296 0 .596 7.623 0 17.26 1.434 14.553 7.982 7.41 16.679 7.41c8.696 0 7.886 8.38 7.886 8.38H10.94c.252-3.3 2.58-6.122 2.58-6.122-9.626 4-9.194 14.086-9.194 14.086.235 4.714 1.746 7.972 3.754 10.223 4.758 5.334 12.307 5.018 12.307 5.018 6.797 0 11.379-2.799 11.379-2.799v-8.17S27.829 30.86 21.36 30.97c-10.785-.22-10.265-8.32-10.265-8.32h23.901l.001-.003V18.31s.213-6.16-2.938-10.709z"/>
    </g>
</svg>
