<svg xmlns="http://www.w3.org/2000/svg" width="22" height="25" viewBox="0 0 22 25">
    <g fill="#8A8D94" fill-rule="evenodd" opacity=".5">
        <path d="M10.678 17.288a.387.387 0 0 1 0 .576l-3.036 2.718a.7.7 0 0 1-.934 0l-1.386-1.24a.387.387 0 0 1 0-.577.483.483 0 0 1 .644 0l1.209 1.083 2.86-2.56a.483.483 0 0 1 .643 0z"/>
        <path d="M15.654 12.5h-2.539a.42.42 0 0 0-.423.417c0 .23.19.416.423.416h2.539a.42.42 0 0 0 .423-.416.42.42 0 0 0-.423-.417m-5.923.833h1.692a.42.42 0 0 0 .423-.416.42.42 0 0 0-.423-.417H9.731a.42.42 0 0 0-.423.417c0 .23.19.416.423.416m-5.077 0h3.384a.42.42 0 0 0 .424-.416.42.42 0 0 0-.424-.417H4.654a.42.42 0 0 0-.423.417c0 .23.19.416.423.416M17.346 10h-3.384a.42.42 0 0 0-.424.417c0 .23.19.416.424.416h3.384a.42.42 0 0 0 .423-.416.42.42 0 0 0-.423-.417m-12.692.833h7.615a.42.42 0 0 0 .423-.416.42.42 0 0 0-.423-.417H4.654a.42.42 0 0 0-.423.417c0 .23.19.416.423.416m0-3.333h4.23a.42.42 0 0 0 .424-.417.42.42 0 0 0-.423-.416H4.654a.42.42 0 0 0-.423.416c0 .23.19.417.423.417M22 6.25v16.667C22 24.065 21.051 25 19.885 25H2.115C.95 25 0 24.065 0 22.917V2.083C0 .935.949 0 2.115 0h13.539c.112 0 .22.044.299.122l4.23 4.167a.412.412 0 0 1 0 .589.427.427 0 0 1-.598 0L15.48.833H2.115c-.7 0-1.269.561-1.269 1.25v20.834c0 .689.57 1.25 1.27 1.25h17.769c.7 0 1.269-.561 1.269-1.25V6.667h-3.808c-1.166 0-2.115-.935-2.115-2.084V2.5c0-.23.19-.417.423-.417a.42.42 0 0 1 .423.417v2.083c0 .69.57 1.25 1.27 1.25h4.23A.42.42 0 0 1 22 6.25"/>
    </g>
</svg>
