<svg xmlns="http://www.w3.org/2000/svg" width="22" height="25" viewBox="0 0 22 25">
    <path fill="#6680AD" fill-rule="evenodd" d="M17.346 20.833a.42.42 0 0 0 .423-.416v-8.334a.42.42 0 0 0-.423-.416h-1.692a.42.42 0 0 0-.423.416V20h-.846v-4.583a.42.42 0 0 0-.423-.417h-1.693a.42.42 0 0 0-.423.417V20H11v-6.25a.42.42 0 0 0-.423-.417H8.885a.42.42 0 0 0-.423.417V20h-.847v-2.917a.42.42 0 0 0-.423-.416H5.5a.42.42 0 0 0-.423.416V20h-.423a.42.42 0 0 0-.423.417c0 .23.19.416.423.416H5.5a.42.42 0 0 0 .423-.416V17.5h.846v2.917c0 .23.19.416.423.416h1.693a.42.42 0 0 0 .423-.416v-6.25h.846v6.25c0 .23.19.416.423.416h1.692a.42.42 0 0 0 .423-.416v-4.584h.846v4.584c0 .23.19.416.424.416h1.692a.42.42 0 0 0 .423-.416V12.5h.846v7.917c0 .23.19.416.423.416M22 6.25v16.667C22 24.065 21.051 25 19.885 25H2.115C.95 25 0 24.065 0 22.917V2.083C0 .935.949 0 2.115 0h13.539c.112 0 .22.044.299.122l4.23 4.167a.412.412 0 0 1 0 .589.427.427 0 0 1-.598 0L15.48.833H2.115c-.7 0-1.269.561-1.269 1.25v20.834c0 .689.57 1.25 1.27 1.25h17.769c.7 0 1.269-.561 1.269-1.25V6.667h-3.808c-1.166 0-2.115-.935-2.115-2.084V2.5c0-.23.189-.417.423-.417a.42.42 0 0 1 .423.417v2.083c0 .69.57 1.25 1.27 1.25h4.23A.42.42 0 0 1 22 6.25"/>
</svg>
