<svg xmlns="http://www.w3.org/2000/svg" width="22" height="25" viewBox="0 0 22 25">
    <path fill="#6680AD" fill-rule="evenodd" d="M16.923 15.833h-4.23V17.5h4.23v-1.667zm-5.077 2.5h-4.23V20h4.23v-1.667zM5.076 20H6.77v-1.667H5.077V20zm0-5H6.77v-2.5H5.077V15zm6.77-2.5h-4.23V15h4.23v-2.5zm-4.23 5h4.23v-1.667h-4.23V17.5zm-2.54 0H6.77v-1.667H5.077V17.5zm11.847-5h-4.23V15h4.23v-2.5zm0 7.917v-2.084h-4.23V20h2.96a.42.42 0 0 1 .424.417.42.42 0 0 1-.423.416h-11a.42.42 0 0 1-.423-.416v-8.334c0-.23.19-.416.423-.416h12.692a.42.42 0 0 1 .423.416v8.334a.42.42 0 0 1-.423.416.42.42 0 0 1-.423-.416zM22 6.25v16.667C22 24.065 21.051 25 19.885 25H2.115C.95 25 0 24.065 0 22.917V2.083C0 .935.949 0 2.115 0h13.539c.112 0 .22.044.299.122l4.23 4.167a.412.412 0 0 1 0 .589.427.427 0 0 1-.598 0L15.48.833H2.115c-.7 0-1.269.561-1.269 1.25v20.834c0 .689.57 1.25 1.27 1.25h17.769c.7 0 1.269-.561 1.269-1.25V6.667h-3.808c-1.166 0-2.115-.935-2.115-2.084V2.5c0-.23.19-.417.423-.417a.42.42 0 0 1 .423.417v2.083c0 .69.57 1.25 1.27 1.25h4.23A.42.42 0 0 1 22 6.25z"/>
</svg>
