<svg xmlns="http://www.w3.org/2000/svg" width="31" height="36" viewBox="0 0 31 36">
    <path fill="#8A8D94" fill-rule="evenodd" d="M24.442 30c.33 0 .596-.269.596-.6v-12c0-.331-.266-.6-.596-.6h-2.384a.598.598 0 0 0-.596.6v11.4h-1.193v-6.6c0-.331-.266-.6-.596-.6h-2.385a.598.598 0 0 0-.596.6v6.6H15.5v-9c0-.331-.267-.6-.596-.6h-2.385a.598.598 0 0 0-.596.6v9h-1.192v-4.2c0-.331-.267-.6-.596-.6H7.75a.598.598 0 0 0-.596.6v4.2h-.596a.598.598 0 0 0-.596.6c0 .331.267.6.596.6H7.75c.33 0 .596-.269.596-.6v-4.2h1.192v4.2c0 .331.268.6.597.6h2.384c.33 0 .596-.269.596-.6v-9h1.193v9c0 .331.267.6.596.6h2.384c.33 0 .597-.269.597-.6v-6.6h1.192v6.6c0 .331.266.6.596.6h2.385c.33 0 .596-.269.596-.6V18h1.192v11.4c0 .331.267.6.596.6M31 9v24c0 1.654-1.337 3-2.98 3H2.98C1.338 36 0 34.654 0 33V3c0-1.654 1.337-3 2.98-3h19.078c.158 0 .31.063.421.176l5.962 6a.602.602 0 0 1 0 .848.593.593 0 0 1-.843 0L21.81 1.2H2.98c-.986 0-1.789.808-1.789 1.8v30c0 .992.803 1.8 1.789 1.8h25.038c.986 0 1.789-.808 1.789-1.8V9.6h-5.366c-1.643 0-2.98-1.346-2.98-3v-3c0-.331.266-.6.596-.6.33 0 .596.269.596.6v3c0 .992.802 1.8 1.788 1.8h5.962c.33 0 .596.269.596.6" opacity=".5"/>
</svg>
