<svg xmlns="http://www.w3.org/2000/svg" width="22" height="25" viewBox="0 0 22 25">
    <g fill="#8A8D94" fill-rule="evenodd" opacity=".5">
        <path d="M4.506 21.667h4.471c.138 0 .249-.187.249-.417 0-.23-.111-.417-.249-.417h-4.47c-.138 0-.249.187-.249.417 0 .23.111.417.248.417M22 6.25v16.667C22 24.065 21.051 25 19.885 25H2.115C.95 25 0 24.065 0 22.917V2.083C0 .935.949 0 2.115 0h13.539c.112 0 .22.044.299.122l4.23 4.167a.412.412 0 0 1 0 .589.427.427 0 0 1-.598 0L15.48.833H2.115c-.7 0-1.269.561-1.269 1.25v20.834c0 .689.57 1.25 1.27 1.25h17.769c.7 0 1.269-.561 1.269-1.25V6.667h-3.808c-1.166 0-2.115-.935-2.115-2.084V2.5c0-.23.19-.417.423-.417a.42.42 0 0 1 .423.417v2.083c0 .69.57 1.25 1.27 1.25h4.23A.42.42 0 0 1 22 6.25"/>
        <path d="M18.795 13.805c.679.66.679 1.582 0 2.241l-5.578 5.424a.432.432 0 0 1-.301.122h-2.555a.42.42 0 0 1-.426-.414v-2.484c0-.11.045-.216.125-.293l5.578-5.424a1.632 1.632 0 0 1 2.306 0l.851.828zm-.602 1.656c.345-.335.345-.736 0-1.07l-.851-.829c-.338-.328-.765-.326-1.102 0l-.55.535 1.953 1.899.55-.535zm-7.406 5.303h1.952l-1.952-1.899v1.899zm1.277-1.828l3.7-3.597-.676-.656-3.699 3.597.675.656zm1.278 1.242l3.699-3.597-.676-.656-3.699 3.597.676.656z"/>
    </g>
</svg>
