<svg xmlns="http://www.w3.org/2000/svg" width="31" height="36" viewBox="0 0 31 36">
    <g fill="#8A8D94" fill-rule="evenodd" opacity=".5">
        <path d="M6.35 31.2h6.3c.193 0 .35-.269.35-.6 0-.331-.157-.6-.35-.6h-6.3c-.193 0-.35.269-.35.6 0 .331.157.6.35.6M31 9v24c0 1.654-1.337 3-2.98 3H2.98C1.338 36 0 34.654 0 33V3c0-1.654 1.337-3 2.98-3h19.078c.158 0 .31.063.421.176l5.962 6a.602.602 0 0 1 0 .848.593.593 0 0 1-.843 0L21.81 1.2H2.98c-.986 0-1.789.808-1.789 1.8v30c0 .992.803 1.8 1.789 1.8h25.038c.986 0 1.789-.808 1.789-1.8V9.6h-5.366c-1.643 0-2.98-1.346-2.98-3v-3c0-.331.267-.6.596-.6.329 0 .596.269.596.6v3c0 .992.802 1.8 1.788 1.8h5.962c.329 0 .596.269.596.6"/>
        <path d="M26.484 19.879c.956.95.956 2.278 0 3.227l-7.86 7.811a.601.601 0 0 1-.424.175h-3.6a.598.598 0 0 1-.6-.596v-3.577c0-.158.063-.31.175-.422l7.86-7.81c.922-.915 2.327-.917 3.25 0l1.2 1.192zm-.848 2.384c.486-.482.486-1.058 0-1.541l-1.2-1.192c-.476-.473-1.077-.47-1.552 0l-.775.77 2.751 2.734.776-.77zM15.2 29.9h2.75l-2.75-2.734V29.9zm1.8-2.632l5.212-5.18-.952-.944-5.212 5.179.952.945zm1.8 1.789l5.212-5.18-.952-.945-5.212 5.18.952.945z"/>
    </g>
</svg>
