<svg xmlns="http://www.w3.org/2000/svg" width="31" height="36" viewBox="0 0 31 36">
    <path fill="#6680AD" fill-rule="evenodd" d="M23.846 22.8h-5.961v2.4h5.961v-2.4zm-7.154 3.6h-5.961v2.4h5.961v-2.4zm-9.538 2.4h2.384v-2.4H7.154v2.4zm0-7.2h2.384V18H7.154v3.6zm9.538-3.6h-5.961v3.6h5.961V18zm-5.961 7.2h5.961v-2.4h-5.961v2.4zm-3.577 0h2.384v-2.4H7.154v2.4zM23.846 18h-5.961v3.6h5.961V18zm0 11.4v-3h-5.961v2.4h4.173c.329 0 .596.269.596.6 0 .331-.267.6-.596.6h-15.5a.598.598 0 0 1-.596-.6v-12c0-.331.267-.6.596-.6h17.884c.33 0 .596.269.596.6v12c0 .331-.267.6-.596.6a.598.598 0 0 1-.596-.6zM31 9v24c0 1.654-1.337 3-2.98 3H2.98C1.338 36 0 34.654 0 33V3c0-1.654 1.337-3 2.98-3h19.078c.158 0 .31.063.421.176l5.962 6a.602.602 0 0 1 0 .848.593.593 0 0 1-.843 0L21.81 1.2H2.98c-.986 0-1.789.808-1.789 1.8v30c0 .992.803 1.8 1.789 1.8h25.038c.986 0 1.789-.808 1.789-1.8V9.6h-5.366c-1.643 0-2.98-1.346-2.98-3v-3c0-.331.267-.6.596-.6.329 0 .596.269.596.6v3c0 .992.802 1.8 1.788 1.8h5.962c.329 0 .596.269.596.6z" opacity=".7"/>
</svg>
