<svg xmlns="http://www.w3.org/2000/svg" width="31" height="36" viewBox="0 0 31 36">
    <path fill="#8A8D94" fill-rule="evenodd" d="M16.096 30h5.962c.329 0 .596-.269.596-.6 0-.331-.267-.6-.596-.6h-5.962a.598.598 0 0 0-.596.6c0 .331.267.6.596.6m-9.538 0h7.154c.329 0 .596-.269.596-.6 0-.331-.267-.6-.596-.6H6.558a.598.598 0 0 0-.596.6c0 .331.267.6.596.6m7.154-7.2h9.538c.33 0 .596-.269.596-.6 0-.331-.267-.6-.596-.6h-9.538a.598.598 0 0 0-.597.6c0 .331.267.6.597.6m5.365 3c0-.331-.267-.6-.596-.6h-5.962a.598.598 0 0 0-.596.6c0 .331.267.6.596.6h5.962c.329 0 .596-.269.596-.6m5.961 0c0-.331-.267-.6-.596-.6h-3.577a.598.598 0 0 0-.596.6c0 .331.267.6.596.6h3.577c.33 0 .596-.269.596-.6m-18.48.6h3.577c.329 0 .596-.269.596-.6 0-.331-.267-.6-.596-.6H6.558a.598.598 0 0 0-.596.6c0 .331.267.6.596.6m15.5-8.4H18.48a.598.598 0 0 0-.596.6c0 .331.267.6.596.6h3.577c.329 0 .596-.269.596-.6 0-.331-.267-.6-.596-.6m-8.346 1.2h2.384c.33 0 .596-.269.596-.6 0-.331-.267-.6-.596-.6h-2.384a.598.598 0 0 0-.597.6c0 .331.267.6.597.6m-7.154 0h4.769c.329 0 .596-.269.596-.6 0-.331-.267-.6-.596-.6h-4.77a.598.598 0 0 0-.595.6c0 .331.267.6.596.6m0 3.6h4.769c.329 0 .596-.269.596-.6 0-.331-.267-.6-.596-.6h-4.77a.598.598 0 0 0-.595.6c0 .331.267.6.596.6m17.884-8.4h-4.769a.598.598 0 0 0-.596.6c0 .331.267.6.596.6h4.77c.328 0 .595-.269.595-.6 0-.331-.267-.6-.596-.6M6.558 15.6h10.73c.33 0 .597-.269.597-.6 0-.331-.267-.6-.597-.6H6.558a.598.598 0 0 0-.596.6c0 .331.267.6.596.6m0-4.8h5.961c.33 0 .596-.269.596-.6 0-.331-.267-.6-.596-.6H6.558a.598.598 0 0 0-.596.6c0 .331.267.6.596.6M31 9v24c0 1.654-1.337 3-2.98 3H2.98C1.338 36 0 34.654 0 33V3c0-1.654 1.337-3 2.98-3h19.078c.158 0 .31.063.421.176l5.962 6a.602.602 0 0 1 0 .848.593.593 0 0 1-.843 0L21.81 1.2H2.98c-.986 0-1.789.808-1.789 1.8v30c0 .992.803 1.8 1.789 1.8h25.038c.986 0 1.789-.808 1.789-1.8V9.6h-5.366c-1.643 0-2.98-1.346-2.98-3v-3c0-.331.267-.6.596-.6.329 0 .596.269.596.6v3c0 .992.802 1.8 1.788 1.8h5.962c.329 0 .596.269.596.6" opacity=".5"/>
</svg>
