<svg xmlns="http://www.w3.org/2000/svg" width="22" height="25" viewBox="0 0 22 25">
    <path fill="#6680AD" fill-rule="evenodd" d="M11.423 20.833h4.23a.42.42 0 0 0 .424-.416.42.42 0 0 0-.423-.417h-4.23a.42.42 0 0 0-.424.417c0 .23.19.416.423.416m-6.77 0h5.078a.42.42 0 0 0 .423-.416A.42.42 0 0 0 9.73 20H4.654a.42.42 0 0 0-.423.417c0 .23.19.416.423.416m5.077-5H16.5a.42.42 0 0 0 .423-.416A.42.42 0 0 0 16.5 15H9.73a.42.42 0 0 0-.422.417c0 .23.19.416.423.416m3.807 2.084a.42.42 0 0 0-.423-.417h-4.23a.42.42 0 0 0-.423.417c0 .23.19.416.423.416h4.23a.42.42 0 0 0 .423-.416m4.231 0a.42.42 0 0 0-.423-.417h-2.538a.42.42 0 0 0-.423.417c0 .23.19.416.423.416h2.538a.42.42 0 0 0 .423-.416m-13.115.416h2.538a.42.42 0 0 0 .423-.416.42.42 0 0 0-.423-.417H4.654a.42.42 0 0 0-.423.417c0 .23.19.416.423.416m11-5.833h-2.539a.42.42 0 0 0-.423.417c0 .23.19.416.423.416h2.539a.42.42 0 0 0 .423-.416.42.42 0 0 0-.423-.417m-5.923.833h1.692a.42.42 0 0 0 .423-.416.42.42 0 0 0-.423-.417H9.731a.42.42 0 0 0-.423.417c0 .23.19.416.423.416m-5.077 0h3.384a.42.42 0 0 0 .424-.416.42.42 0 0 0-.424-.417H4.654a.42.42 0 0 0-.423.417c0 .23.19.416.423.416m0 2.5h3.384a.42.42 0 0 0 .424-.416.42.42 0 0 0-.424-.417H4.654a.42.42 0 0 0-.423.417c0 .23.19.416.423.416M17.346 10h-3.384a.42.42 0 0 0-.424.417c0 .23.19.416.424.416h3.384a.42.42 0 0 0 .423-.416.42.42 0 0 0-.423-.417m-12.692.833h7.615a.42.42 0 0 0 .423-.416.42.42 0 0 0-.423-.417H4.654a.42.42 0 0 0-.423.417c0 .23.19.416.423.416m0-3.333h4.23a.42.42 0 0 0 .424-.417.42.42 0 0 0-.423-.416H4.654a.42.42 0 0 0-.423.416c0 .23.19.417.423.417M22 6.25v16.667C22 24.065 21.051 25 19.885 25H2.115C.95 25 0 24.065 0 22.917V2.083C0 .935.949 0 2.115 0h13.539c.112 0 .22.044.299.122l4.23 4.167a.412.412 0 0 1 0 .589.427.427 0 0 1-.598 0L15.48.833H2.115c-.7 0-1.269.561-1.269 1.25v20.834c0 .689.57 1.25 1.27 1.25h17.769c.7 0 1.269-.561 1.269-1.25V6.667h-3.808c-1.166 0-2.115-.935-2.115-2.084V2.5c0-.23.19-.417.423-.417a.42.42 0 0 1 .423.417v2.083c0 .69.57 1.25 1.27 1.25h4.23A.42.42 0 0 1 22 6.25"/>
</svg>
