<svg xmlns="http://www.w3.org/2000/svg" width="52" height="60" viewBox="0 0 52 60">
    <path fill="#6680AD" fill-rule="evenodd" d="M26.931 49.835h9.953a.996.996 0 0 0 0-1.993h-9.953a.996.996 0 0 0 0 1.993m-15.925 0H22.95a.996.996 0 0 0 0-1.993H11.006a.996.996 0 0 0 0 1.993m11.944-11.96h15.925a.996.996 0 0 0 0-1.994H22.95a.996.996 0 0 0 0 1.994m8.958 4.983a.996.996 0 0 0-.996-.996H20.96a.996.996 0 0 0 0 1.993h9.953c.55 0 .996-.447.996-.997m9.953 0a.996.996 0 0 0-.995-.996h-5.972a.996.996 0 0 0 0 1.993h5.972c.55 0 .995-.447.995-.997m-30.855.997h5.972a.996.996 0 0 0 0-1.993h-5.972a.996.996 0 0 0 0 1.993M36.884 29.9h-5.972a.996.996 0 0 0 0 1.994h5.972a.996.996 0 0 0 0-1.994M22.95 31.895h3.981a.996.996 0 0 0 0-1.994H22.95a.996.996 0 0 0 0 1.994m-11.944 0h7.962a.996.996 0 0 0 0-1.994h-7.962a.996.996 0 0 0 0 1.994m0 5.98h7.962a.996.996 0 0 0 0-1.994h-7.962a.996.996 0 0 0 0 1.994m29.86-13.954h-7.963a.996.996 0 0 0 0 1.993h7.963a.996.996 0 0 0 0-1.993m-29.86 1.993h17.916a.996.996 0 0 0 0-1.993H11.006a.996.996 0 0 0 0 1.993M51.815 54.82a4.986 4.986 0 0 1-4.977 4.983H5.034A4.986 4.986 0 0 1 .057 54.82V4.984A4.986 4.986 0 0 1 5.034 0h31.85c.264 0 .518.105.704.292l9.954 9.967a.997.997 0 0 1-1.408 1.41l-9.662-9.676H5.034a2.992 2.992 0 0 0-2.986 2.99V54.82c0 1.648 1.34 2.99 2.986 2.99h41.804a2.992 2.992 0 0 0 2.986-2.99V15.947h-8.958a4.986 4.986 0 0 1-4.977-4.983V5.98a.996.996 0 1 1 1.99 0v4.984c0 1.648 1.34 2.99 2.987 2.99h9.953c.55 0 .996.446.996.997v39.868z"/>
</svg>
