<svg xmlns="http://www.w3.org/2000/svg" width="36" height="36" viewBox="0 0 36 36">
    <path fill="#8A8D94" fill-rule="evenodd" d="M15 30h.6a.6.6 0 0 0 0-1.2H15a.6.6 0 0 0 0 1.2zm0-3.6h.6a.6.6 0 0 0 0-1.2H15a.6.6 0 0 0 0 1.2zm0-3.6h.6a.6.6 0 0 0 0-1.2H15a.6.6 0 0 0 0 1.2zm3 6a.6.6 0 0 0 0 1.2h4.8a.6.6 0 1 0 0-1.2H18zm6-3a.6.6 0 0 0-.6-.6H18a.6.6 0 0 0 0 1.2h5.4a.6.6 0 0 0 .6-.6zm4.2-12.6a.6.6 0 1 0 0-1.2h-3.6a.6.6 0 1 0 0 1.2h3.6zm-13.2 0h7.2a.6.6 0 1 0 0-1.2H15a.6.6 0 0 0 0 1.2zm3 9.6h4.2a.6.6 0 1 0 0-1.2H18a.6.6 0 0 0 0 1.2zm-3-6h15.6a.6.6 0 1 0 0-1.2H15a.6.6 0 0 0 0 1.2zm13.8 6c.662 0 1.2.538 1.2 1.2a.6.6 0 1 0 1.2 0 2.397 2.397 0 0 0-1.8-2.315V21.6a.6.6 0 1 0-1.2 0v.085A2.397 2.397 0 0 0 26.4 24c0 1.324 1.076 2.4 2.4 2.4a1.201 1.201 0 0 1 0 2.4c-.662 0-1.2-.538-1.2-1.2a.6.6 0 1 0-1.2 0c0 1.115.767 2.047 1.8 2.315V30a.6.6 0 1 0 1.2 0v-.085a2.397 2.397 0 0 0 1.8-2.315c0-1.324-1.076-2.4-2.4-2.4a1.201 1.201 0 0 1 0-2.4zm7.2-15v27.6a.6.6 0 0 1-.6.6H10.2a.6.6 0 0 1-.6-.6v-4.2h-3a.6.6 0 0 1 0-1.2h3V7.8c0-.992-.808-1.8-1.8-1.8S6 6.808 6 7.8v20.4c0 1.654-1.346 3-3 3s-3-1.346-3-3V.6A.6.6 0 0 1 .6 0h25.2a.6.6 0 0 1 .6.6V3a.6.6 0 1 1-1.2 0V1.2h-24v27c0 .992.808 1.8 1.8 1.8s1.8-.808 1.8-1.8V7.8c0-1.654 1.346-3 3-3s3 1.346 3 3v27h24v-27c0-.992-.808-1.8-1.8-1.8H12a.6.6 0 0 1 0-1.2h21c1.654 0 3 1.346 3 3z" opacity=".5"/>
</svg>
