<svg xmlns="http://www.w3.org/2000/svg" width="29" height="29" viewBox="0 0 29 29">
    <path fill="#8A8D94" fill-rule="evenodd" d="M12.333 24h.334c.184 0 .333-.224.333-.5s-.15-.5-.333-.5h-.334c-.184 0-.333.224-.333.5s.15.5.333.5zm0-3h.334c.184 0 .333-.224.333-.5s-.15-.5-.333-.5h-.334c-.184 0-.333.224-.333.5s.15.5.333.5zm0-3h.334c.184 0 .333-.224.333-.5s-.15-.5-.333-.5h-.334c-.184 0-.333.224-.333.5s.15.5.333.5zm2.167 5a.5.5 0 0 0 0 1h4a.5.5 0 1 0 0-1h-4zm4.5-2.5c0-.276-.203-.5-.455-.5h-4.09c-.251 0-.455.224-.455.5s.204.5.455.5h4.09c.252 0 .455-.224.455-.5zm3.5-9.5a.5.5 0 1 0 0-1h-3a.5.5 0 1 0 0 1h3zm-10 0h6a.5.5 0 1 0 0-1h-6a.5.5 0 0 0 0 1zm1.944 7h3.112c.245 0 .444-.224.444-.5s-.199-.5-.444-.5h-3.112c-.245 0-.444.224-.444.5s.2.5.444.5zM12.5 14h13a.5.5 0 1 0 0-1h-13a.5.5 0 0 0 0 1zM23 18.5c.551 0 1 .448 1 1a.5.5 0 1 0 1 0c0-.929-.64-1.706-1.5-1.929V17.5a.5.5 0 1 0-1 0v.071c-.86.223-1.5 1-1.5 1.929 0 1.103.897 2 2 2a1.001 1.001 0 0 1 0 2c-.551 0-1-.448-1-1a.5.5 0 1 0-1 0c0 .929.64 1.706 1.5 1.929v.071a.5.5 0 1 0 1 0v-.071c.86-.223 1.5-1 1.5-1.929 0-1.103-.897-2-2-2a1.001 1.001 0 0 1 0-2zm6-12.217v22.234a.483.483 0 0 1-.483.483h-20.3a.484.484 0 0 1-.484-.483v-3.384H5.317a.484.484 0 0 1 0-.966h2.416V6.283c0-.8-.65-1.45-1.45-1.45-.8 0-1.45.65-1.45 1.45v16.434a2.42 2.42 0 0 1-2.416 2.416A2.42 2.42 0 0 1 0 22.717V.483C0 .217.217 0 .483 0h20.3c.268 0 .484.217.484.483v1.934a.483.483 0 1 1-.967 0V.967H.967v21.75c0 .8.65 1.45 1.45 1.45.8 0 1.45-.65 1.45-1.45V6.283a2.42 2.42 0 0 1 2.416-2.416A2.42 2.42 0 0 1 8.7 6.283v21.75h19.333V6.283c0-.8-.65-1.45-1.45-1.45H9.667a.484.484 0 0 1 0-.966h16.916A2.42 2.42 0 0 1 29 6.283z" opacity=".5"/>
</svg>
