<svg xmlns="http://www.w3.org/2000/svg" width="40" height="40" viewBox="0 0 40 40">
    <g fill="none" fill-rule="evenodd">
        <path d="M-5-4h48v48H-5z"/>
        <g fill="#859ABE">
            <path d="M19.568 39.133C8.76 39.133 0 30.373 0 19.567 0 8.76 8.76 0 19.568 0c10.807 0 19.568 8.76 19.568 19.567 0 10.806-8.761 19.566-19.568 19.566zm.554-3.501c10.11 0 15.697-5.992 15.697-16.065 0-6.184-2.237-11.057-6.72-14.356-.313-.23.344-1.04 0-1.249a18.27 18.27 0 0 0-9.485-2.635A18.313 18.313 0 0 0 2.887 12.144c-1.015 2.267-.351 4.78-.351 7.423 0 10.073 7.475 16.065 17.586 16.065z"/>
            <path d="M3.547 4.114L6.178 7.91l4.513.41 4.375-2.508L13.69 8.73s.67.985.67 1.914h4.357s.875.573.12 1.461c-.753.889-3.852 3.295-3.852 3.295l-.02 2.55-2.858.062s-.087 3.468 2.208 4.107c2.295.64 5.312-.923 5.312-.923s2.304-.356 3.18.68c.875 1.035.777 1.361-.341 1.733-1.118.372-3.64 2.525-5.57 2.525-1.932 0-2.538-.083-2.538-.083s.786 1.21 2.39 1.727c1.604.516 9.031 2.361 12.733-4.228.755-1.674.734-4.848.734-4.848l1.583 1.07s1.034-4.092 0-6.61l1.254-.17s-2.188-4.687-7.226-5.934l2.916-.776s-1.968-1.867-5.117-2.464l5.538.145 5.803 5.46 2.47 7.924-.83 8.006-3.825 6.406-4.919 4.126-6.255 1.767-9.875-1.355-8.944-8.17-1.784-12.362 1.417-5.339 1.127-6.312z"/>
        </g>
    </g>
</svg>
