<svg xmlns="http://www.w3.org/2000/svg" width="67" height="58" viewBox="0 0 67 58">
    <g fill="none" fill-rule="evenodd">
        <g>
            <rect width="29.444" height="55.725" x="1.111" y="1.137" fill="#FFF" rx="3"/>
            <path fill="#F2FCFC" d="M8.333 3.412h18.89c1.84 0 3.333 1.527 3.333 3.412v.568H5v-.568c0-1.885 1.492-3.412 3.333-3.412z"/>
            <path fill="#C1E0FF" d="M8.889 11.941h22.778c1.84 0 3.333 1.528 3.333 3.412v34.686c0 1.884-1.492 3.412-3.333 3.412H8.889c-1.841 0-3.333-1.528-3.333-3.412V15.353c0-1.884 1.492-3.412 3.333-3.412z" opacity=".5"/>
            <path fill="#6680AD" fill-rule="nonzero" d="M4.444 2.275c-1.227 0-2.222 1.018-2.222 2.274v48.902c0 1.256.995 2.274 2.222 2.274h22.778c1.228 0 2.222-1.018 2.222-2.274V4.549c0-1.256-.994-2.274-2.222-2.274H4.444zm0-2.275h22.778c2.455 0 4.445 2.037 4.445 4.549v48.902c0 2.512-1.99 4.549-4.445 4.549H4.444C1.99 58 0 55.963 0 53.451V4.549C0 2.037 1.99 0 4.444 0z"/>
            <path fill="#6680AD" fill-rule="nonzero" d="M2.222 8.53v39.235h27.222V8.529H2.222zm-1.11-2.275h29.444c.613 0 1.11.51 1.11 1.137v41.51c0 .628-.497 1.137-1.11 1.137H1.11C.497 50.04 0 49.53 0 48.902V7.392c0-.628.497-1.137 1.111-1.137z"/>
            <path fill="#C4D4E3" d="M15.79 2.843c-.74 0-1.346.619-1.346 1.375s.606 1.375 1.346 1.375c.74 0 1.345-.619 1.345-1.375s-.605-1.375-1.345-1.375z"/>
            <path fill="#6680AD" fill-rule="nonzero" d="M12.222 54.02c-.613 0-1.11-.51-1.11-1.138 0-.628.497-1.137 1.11-1.137h6.9c.613 0 1.11.51 1.11 1.137 0 .628-.497 1.138-1.11 1.138h-6.9z"/>
            <rect width="24" height="8" x="4" y="15" fill="#FFF" rx="3"/>
            <g fill="#FDC130">
                <path d="M8 17c-1.1 0-2 .9-2 2s.9 2 2 2 2-.9 2-2-.9-2-2-2zM13 17c-1.1 0-2 .9-2 2s.9 2 2 2 2-.9 2-2-.9-2-2-2zM18 17c-1.1 0-2 .9-2 2s.9 2 2 2 2-.9 2-2-.9-2-2-2zM23 17c-1.1 0-2 .9-2 2s.9 2 2 2 2-.9 2-2-.9-2-2-2z"/>
            </g>
        </g>
        <g transform="translate(19 5)">
            <rect width="48" height="48" fill="#D0021B" rx="24"/>
            <rect width="4" height="17" x="23" y="14" fill="#FFF" rx="2"/>
            <rect width="4" height="4" x="23" y="33" fill="#FFF" rx="2"/>
        </g>
    </g>
</svg>
