<svg xmlns="http://www.w3.org/2000/svg" width="26" height="26" viewBox="0 0 26 26">
    <g fill="none" fill-rule="evenodd">
        <circle cx="12" cy="12" r="12" fill="#D0021B" stroke="#F5F8FA" stroke-width=".75" transform="translate(1 1)"/>
        <path d="M1 1h24v24H1z"/>
        <path fill="#FFF" fill-rule="nonzero" d="M19.3 6.71a.996.996 0 0 0-1.41 0L13 11.59 8.11 6.7A.996.996 0 1 0 6.7 8.11L11.59 13 6.7 17.89a.996.996 0 1 0 1.41 1.41L13 14.41l4.89 4.89a.996.996 0 1 0 1.41-1.41L14.41 13l4.89-4.89c.38-.38.38-1.02 0-1.4z"/>
    </g>
</svg>
