<svg xmlns="http://www.w3.org/2000/svg" width="32" height="32" viewBox="0 0 32 32">
    <g fill="none" fill-rule="nonzero">
        <path fill="#C1E0FF" d="M16.465.35C8.03.35 1.164 7.214 1.164 15.65c0 2.386 1.047 5.354 1.105 5.47.116.233.116.873.058 1.105L.465 28.393c-.232.814-.116 1.57.291 2.21.408.582 1.106.873 1.804.873.29 0 .524-.058.815-.116l5.934-1.804c.058 0 .175-.058.407-.058.291 0 .582.058.64.058.117.059 3.433 1.339 6.11 1.339 8.436 0 15.301-6.866 15.301-15.302C31.71 7.215 24.844.349 16.465.349z" opacity=".5"/>
        <circle cx="16.5" cy="15.5" r="10.5" fill="#FFF"/>
        <path fill="#6680AD" d="M16.465.35C8.03.35 1.164 7.214 1.164 15.65c0 2.386 1.047 5.354 1.105 5.47.116.233.116.873.058 1.105L.465 28.393c-.232.814-.116 1.57.291 2.21.408.582 1.106.873 1.804.873.29 0 .524-.058.815-.116l5.934-1.804c.058 0 .175-.058.407-.058.291 0 .582.058.64.058.117.059 3.433 1.339 6.11 1.339 8.436 0 15.301-6.866 15.301-15.302C31.71 7.215 24.844.349 16.465.349zm0 28.8c-2.385 0-5.41-1.223-5.41-1.223-.35-.116-.815-.232-1.28-.232-.35 0-.64.058-.931.116l-5.935 1.804c-.116.058-.233.058-.29.058-.408 0-.64-.35-.466-.815l1.862-6.167c.174-.64.174-1.63-.059-2.211 0 0-.989-2.735-.989-4.887 0-7.448 6.051-13.557 13.557-13.557 7.505 0 13.556 6.051 13.556 13.557 0 7.505-6.167 13.556-13.615 13.556z"/>
        <path fill="#6680AD" d="M15.767 20.19c-.232.232-.349.523-.349.814 0 .29.117.581.35.814.232.233.523.35.814.35.29 0 .582-.117.814-.35.233-.233.35-.523.35-.814 0-.291-.117-.582-.35-.815-.407-.407-1.221-.407-1.629 0zM16.582 10.14a3.586 3.586 0 0 0-3.59 3.59c0 .503.412.915.913.915a.917.917 0 0 0 .914-.914c0-.972.77-1.763 1.763-1.763.971 0 1.763.77 1.763 1.763 0 .971-.77 1.763-1.763 1.763a.917.917 0 0 0-.914.913v1.63c0 .501.412.913.914.913a.917.917 0 0 0 .913-.914v-.766l.177-.054c1.448-.446 2.5-1.832 2.5-3.369 0-2.093-1.597-3.706-3.59-3.706z"/>
    </g>
</svg>
