<svg xmlns="http://www.w3.org/2000/svg" width="199" height="39" viewBox="0 0 199 39">
    <defs>
        <linearGradient id="a" x1="28.596%" x2="93.759%" y1="44.404%" y2="55.611%">
            <stop offset="0%" stop-color="#ED1C24"/>
            <stop offset="100%" stop-color="#FFF"/>
        </linearGradient>
        <linearGradient id="b" x1="10.322%" x2="88.651%" y1="49.953%" y2="49.953%">
            <stop offset="0%" stop-color="#ED1C24"/>
            <stop offset="100%" stop-color="#FFCB05"/>
        </linearGradient>
        <linearGradient id="c" x1="50.002%" x2="50.002%" y1="-.786%" y2="35.658%">
            <stop offset="0%" stop-color="#E39717"/>
            <stop offset="12.36%" stop-color="#E8A116"/>
            <stop offset="43.44%" stop-color="#F4B710"/>
            <stop offset="73.21%" stop-color="#FCC509"/>
            <stop offset="100%" stop-color="#FFCB05"/>
        </linearGradient>
        <linearGradient id="d" x1="27.043%" x2="46.808%" y1="24.367%" y2="60.204%">
            <stop offset="0%" stop-color="#E39717"/>
            <stop offset="10.13%" stop-color="#E8A116"/>
            <stop offset="35.61%" stop-color="#F4B710"/>
            <stop offset="60%" stop-color="#FCC509"/>
            <stop offset="81.96%" stop-color="#FFCB05"/>
            <stop offset="100%" stop-color="#FFCB05"/>
        </linearGradient>
    </defs>
    <g fill="none" fill-rule="nonzero">
        <path fill="url(#a)" d="M19.76.006C9.162.185.4 7.356.013 17.207c-.381 9.858 7.555 18.154 17.725 18.523 5.175.19 9.934-1.707 13.417-4.92 3.35-3.096 3.21-8.542.548-6.074-2.928 2.715-7.023 4.339-11.487 4.182C11.703 28.62 5.06 21.96 5.379 14.039 5.673 6.69 13.193.873 19.92.521L20.095 0c-.11.006-.22.006-.335.006z" transform="translate(159.314 .109)"/>
        <path fill="#FFCB05" d="M180.559.63c8.542.504 15.573 7.565-9.287 14.626 6.333 1.21 11.011 4.094 11.011 4.094C203.568 8.845 191.46.076 179.416.11l-.173.52c.445-.028.883-.028 1.316 0z"/>
        <path fill="url(#b)" d="M10.828 4.234C13.51 2.061 16.842.687 20.006.518c.445-.022.885-.022 1.319.006 4.198.247 8.033 2.077 7.917 4.723l2.1-2.404C28.535 1.036 24.354-.01 20.178 0h-.335c-3.933.068-7.611 1.098-10.7 2.877l1.684 1.357z" transform="translate(159.314 .109)"/>
        <path fill="url(#c)" d="M30.405 27.91c-.006-.095-.353-2.427-.353-2.427-.861-5.544.341-10.914 9.105-11.355-12.712-5.913-21.164-.252-27.355 1.074 5.636.676 17.516 6.84 18.603 12.708z" transform="translate(159.314 .109)"/>
        <path fill="url(#d)" d="M34.594 15.742c-5.417 2.164-4.862 8.156-4.342 11.671.104.286.648 2.472-.607 4.754-1.555 2.567-4.076 4.507-8.933 5.762 12.448.56 26.695-11.032 13.882-22.187z" transform="translate(159.314 .109)"/>
        <g fill="#002C76">
            <path d="M45.224 23.725c-1.12.274-1.96.412-2.8.412-2.1 0-2.52-1.784-2.52-3.293 0-2.332.84-3.567 2.52-3.567.84 0 1.4.137 1.4.137l1.54.549v-1.92l-.14-.138c-.56-.274-1.82-.686-3.36-.686-3.08 0-5.041 2.195-5.041 5.488 0 3.155 1.96 5.213 4.76 5.213 1.26 0 2.38-.274 4.06-.96l.28-.137-.42-1.51-.28.412zM9.8 18.375c1.4-.55 1.96-1.51 1.96-3.156 0-1.509-.7-2.744-1.96-3.155-.84-.412-1.68-.412-4.34-.412H0v1.51s1.26.137 1.68.274v12.621h4.34c2.1 0 3.08-.137 3.92-.549 1.4-.685 2.241-1.92 2.241-3.566.14-1.921-.7-3.156-2.38-3.567zm-5.04-4.94H5.6c1.12 0 1.96 0 2.52.412.42.275.56.823.56 1.372 0 1.372-.42 2.058-2.1 2.195l-1.26.137-.56.96v-5.075zm3.5 10.153c-.7.549-1.68.549-2.94.549h-.56v-4.665h1.12c1.12 0 1.96 0 2.52.412.42.411.7.96.7 1.783s-.28 1.51-.84 1.92zM95.628 18.375c1.4-.55 1.96-1.51 1.96-3.156 0-1.509-.7-2.744-1.96-3.155-.84-.412-1.68-.412-4.34-.412h-5.461v1.51s1.26.137 1.68.274v12.621h4.34c2.1 0 3.08-.137 3.92-.549 1.4-.685 2.24-1.92 2.24-3.566.14-1.921-.7-3.156-2.38-3.567zm-5.04-4.94H91.427c1.12 0 1.96 0 2.52.412.42.275.56.823.56 1.372 0 1.372-.42 2.058-2.1 2.195l-1.26.137-.56.96v-5.075zm3.5 10.153c-.7.549-1.68.549-2.94.549h-.56v-4.665h1.12c1.12 0 1.96 0 2.52.412.42.411.7.96.7 1.783.14.823-.28 1.51-.84 1.92zM32.483 15.356c-.84 0-1.96.275-3.36.824v-.824l-4.341.55v1.508h1.68v8.506h2.94v-7.957c.42-.137 1.26-.412 2.24-.412.42 0 .84.138.98.275.28.274.28.823.28 1.509v6.585h2.94v-6.722c0-1.51-.14-2.058-.56-2.744-.7-.686-1.54-1.098-2.8-1.098zM51.664 15.356c-3.22 0-5.32 2.058-5.32 5.35 0 3.293 1.96 5.351 5.32 5.351 3.22 0 5.18-2.058 5.18-5.35 0-3.293-1.96-5.35-5.18-5.35zm0 8.918c-.98 0-2.24-.412-2.24-3.567 0-3.156 1.12-3.567 2.24-3.567.98 0 2.24.411 2.24 3.43-.14 3.292-1.26 3.704-2.24 3.704zM127.69 15.356c-3.22 0-5.32 2.058-5.32 5.35 0 3.293 1.96 5.351 5.32 5.351 3.22 0 5.32-2.058 5.32-5.35 0-3.293-1.96-5.35-5.32-5.35zm0 8.918c-.98 0-2.24-.412-2.24-3.567 0-3.156 1.12-3.567 2.24-3.567.98 0 2.24.411 2.24 3.43 0 3.292-1.12 3.704-2.24 3.704zM140.011 24l-2.1.274c-.42 0-.56-.137-.7-.275 0-.137-.14-.137-.14-.96v-5.625h2.94v-1.783h-2.94v-2.744h-.42l-2.52.274v9.74c0 1.098.14 1.784.56 2.333.42.549 1.12.823 2.1.823s1.96-.274 3.08-.686l.28-.137-.14-1.235zM104.868 15.356c-3.22 0-5.32 2.058-5.32 5.35 0 3.293 1.96 5.351 5.32 5.351 3.22 0 5.18-2.058 5.18-5.35 0-3.293-1.96-5.35-5.18-5.35zm0 8.918c-.98 0-2.24-.412-2.24-3.567 0-3.156 1.12-3.567 2.24-3.567.98 0 2.24.411 2.24 3.43 0 3.292-1.12 3.704-2.24 3.704zM118.31 16.18c-.7-.412-1.54-.55-2.24-.55-2.94 0-5.041 2.333-5.041 5.488 0 3.019 1.68 4.94 4.2 4.94.7 0 1.4-.138 2.94-.824v.823c0 1.784-.7 2.332-2.94 2.332-.98 0-2.38-.137-3.5-.411v1.783c2.24.412 3.08.55 4.2.55 1.4 0 2.66-.275 3.5-.687 1.26-.686 1.68-1.646 1.68-3.43V15.768h-2.94v.412h.14zm0 7.682c-.56.137-.84.137-1.4.137-1.82 0-2.66-1.097-2.66-3.155 0-2.195 1.12-3.293 2.94-3.293.28 0 .56 0 1.12.138v6.173zM23.242 15.905h-2.8v.412c-.7-.412-1.4-.549-2.24-.549-2.8 0-4.9 2.195-4.9 5.488 0 3.018 1.54 4.938 4.2 4.938.7 0 1.54-.274 2.8-1.097v.96l4.06-.411v-1.647h-1.12v-8.094zM20.442 24c-.56.138-.84.138-1.4.138-1.82 0-2.8-1.098-2.8-3.156 0-2.195 1.12-3.43 3.08-3.43.42 0 .56 0 1.12.138v6.31zM150.792 15.905h-2.8v.412c-.7-.412-1.4-.549-2.24-.549-2.8 0-4.9 2.195-4.9 5.488 0 3.018 1.54 4.938 4.2 4.938.7 0 1.54-.274 2.8-1.097v.96l4.06-.411v-1.647h-1.12v-8.094zM147.852 24c-.56.138-.84.138-1.4.138-1.82 0-2.8-1.098-2.8-3.156 0-2.195 1.12-3.43 3.08-3.43.42 0 .56 0 1.12.138v6.31zM149.392 13.299l-.7-2.195-.28.137-4.62 1.783.42 1.235zM70.846 10.83H70.426l-3.78.41v1.235h1.4v3.293c-1.12-.412-2.8-.686-4.2-.274-1.961.686-3.221 2.469-3.221 5.076 0 2.332 1.12 4.253 3.08 4.938 1.4.412 3.36 0 4.48-.548v.823l3.92-.549V24h-1.26c-.14 0 0-13.17 0-13.17zm-2.94 13.032c-1.26.412-2.8.549-3.64-.549-.56-.686-.7-1.646-.7-2.606v-.275c0-1.097.28-1.783.84-2.469.84-.96 2.38-.823 3.5-.274.14 0 0 5.899 0 6.173zM77.846 15.356c-.7 0-1.26 0-1.82.275-2.1.686-3.36 2.47-3.36 5.213 0 2.47 1.26 4.39 3.36 5.076 1.82.549 4.48 0 6.3-.96h.14l-.42-1.51-.98.275c-1.4.412-3.22 1.098-4.34-.274-.56-.686-.7-1.784-.7-2.607l5.6.137h.84V20.158c-.14-4.939-4.48-4.802-4.62-4.802zm-2.1 4.116c0-.137.14-2.195 1.96-2.195 1.96 0 1.96 2.058 1.96 2.195h-3.92z"/>
        </g>
    </g>
</svg>
