<svg xmlns="http://www.w3.org/2000/svg" width="17" height="17" viewBox="0 0 17 17">
    <g fill="#FFF" fill-rule="evenodd" opacity=".8">
        <path fill-rule="nonzero" d="M7.268 15.037l6.663-6.663c.359-.358.57-.838.592-1.344l.201-4.624c-.005-.143-.11-.24-.234-.234l-4.624.201a2.025 2.025 0 0 0-1.344.592L1.86 9.628l5.41 5.41zm2.54-14.012L14.43.823a1.575 1.575 0 0 1 1.642 1.642L15.87 7.09a3.375 3.375 0 0 1-.985 2.24l-7.14 7.14a.675.675 0 0 1-.955 0L.427 10.105a.675.675 0 0 1 0-.954l7.14-7.141a3.375 3.375 0 0 1 2.24-.985z"/>
        <path d="M12.694 4.202c.52.521.501 1.384-.043 1.929-.544.544-1.407.563-1.928.042-.52-.52-.502-1.384.042-1.928.545-.544 1.408-.563 1.929-.043z"/>
        <path fill-rule="nonzero" d="M4.601 9.553a.675.675 0 0 1 .955-.955l2.67 2.67a.675.675 0 0 1-.955.954L4.6 9.552z"/>
    </g>
</svg>
