<svg xmlns="http://www.w3.org/2000/svg" xmlns:xlink="http://www.w3.org/1999/xlink" width="22" height="22" viewBox="0 0 22 22">
    <defs>
        <path id="a" d="M4 16a1 1 0 0 0 1 1h4a2 2 0 1 0 4 0h4a1 1 0 1 0 0-2v-5a6.002 6.002 0 0 0-5-5.917V4a1 1 0 1 0-2 0v.083A6.002 6.002 0 0 0 5 10v5a1 1 0 0 0-1 1zm7-10.057l.67.112A4.002 4.002 0 0 1 15 10v5H7v-5c0-1.98 1.44-3.628 3.33-3.945l.67-.112z"/>
    </defs>
    <g fill="none" fill-rule="evenodd">
        <mask id="b" fill="#fff">
            <use xlink:href="#a"/>
        </mask>
        <use fill="#000" xlink:href="#a"/>
        <g fill="#4A5B6D" mask="url(#b)">
            <path d="M0 0h22v22H0z"/>
        </g>
        <circle cx="16" cy="6" r="2.5" stroke="#F00"/>
        <circle cx="16" cy="6" r="3" fill="#FF4A7A"/>
    </g>
</svg>
