<svg xmlns="http://www.w3.org/2000/svg" width="14" height="18" viewBox="0 0 14 18">
    <g fill="#FFF" fill-rule="nonzero">
        <path d="M3.444 10C3.2 10 3 9.776 3 9.5s.199-.5.444-.5h7.112c.245 0 .444.224.444.5s-.199.5-.444.5H3.444zM3.438 13C3.196 13 3 12.776 3 12.5s.196-.5.438-.5h6.124c.242 0 .438.224.438.5s-.196.5-.438.5H3.439z"/>
        <path d="M1.58 1.385a.228.228 0 0 0-.225.23v14.77c0 .127.1.23.226.23h10.838a.228.228 0 0 0 .226-.23V4.767a.233.233 0 0 0-.066-.163L9.495 1.452a.223.223 0 0 0-.16-.067H1.582zM1.58 0h7.756c.419 0 .82.17 1.117.473l3.084 3.152c.296.303.463.714.463 1.142v11.618c0 .892-.708 1.615-1.58 1.615H1.58C.709 18 0 17.277 0 16.385V1.615C0 .723.708 0 1.58 0z"/>
        <path d="M9 0c.698 0 1.263.566 1.263 1.263v1.263c0 .117.094.21.21.21h1.264C12.434 2.737 13 3.303 13 4h-2.526C9.66 4 9 3.34 9 2.526V0z"/>
    </g>
</svg>
