<svg xmlns="http://www.w3.org/2000/svg" width="20" height="20" viewBox="0 0 20 20">
    <path fill="#FFF" fill-rule="nonzero" d="M17.8 10.308a.806.806 0 0 0-.063-1.128l-7.15-6.464a.87.87 0 0 0-1.163.014L2.249 9.525a.802.802 0 0 0-.035 1.126l.18.194c.299.32.781.359 1.077.085l.536-.496v6.26c0 .445.35.806.78.806h2.797c.431 0 .781-.36.781-.806v-3.078a1 1 0 0 1 1-1h1.567a1 1 0 0 1 1 1v3.078c-.006.445.303.806.734.806h2.963c.431 0 .781-.361.781-.807v-6.157l.33.3c.183.166.566.033.856-.297l.204-.23z"/>
</svg>
