<svg width="24" height="24" viewBox="0 0 24 24" fill="none" xmlns="http://www.w3.org/2000/svg">
<path fill-rule="evenodd" clip-rule="evenodd" d="M12 3C7.02944 3 3 7.02944 3 12C3 16.9706 7.02944 21 12 21C16.9706 21 21 16.9706 21 12C21 7.02944 16.9706 3 12 3ZM1.5 12C1.5 6.20101 6.20101 1.5 12 1.5C17.799 1.5 22.5 6.20101 22.5 12C22.5 17.799 17.799 22.5 12 22.5C6.20101 22.5 1.5 17.799 1.5 12Z" fill="white"/>
<path fill-rule="evenodd" clip-rule="evenodd" d="M14.1921 8.49502C13.9351 7.37994 12.8824 6.6354 11.7458 6.76458C10.6091 6.89377 9.75022 7.85558 9.75 8.9999C9.74992 9.41412 9.41407 9.74984 8.99986 9.74976C8.58564 9.74968 8.24992 9.41383 8.25 8.99962C8.25036 7.09266 9.68165 5.48952 11.5764 5.27418C13.4711 5.05884 15.2256 6.29994 15.6538 8.15821C16.082 10.0165 15.0476 11.9003 13.2497 12.536C13.1768 12.5618 13.1172 12.5821 13.0646 12.6001C12.9874 12.6265 12.9253 12.6477 12.8584 12.6733C12.8082 12.6925 12.7737 12.7077 12.7504 12.719C12.75 12.7277 12.7498 12.7379 12.7498 12.7496V14.25C12.7498 14.6642 12.414 15 11.9998 15C11.5856 15 11.2498 14.6642 11.2498 14.25V12.7504C11.2497 12.5147 11.2865 12.2743 11.393 12.0481C11.5031 11.8142 11.6649 11.6436 11.8407 11.5189C12.0051 11.4021 12.1807 11.3266 12.3226 11.2723C12.4107 11.2386 12.5191 11.2014 12.6171 11.1677C12.6649 11.1513 12.7103 11.1357 12.7497 11.1218C13.8283 10.7404 14.449 9.61012 14.1921 8.49502Z" fill="white"/>
<path fill-rule="evenodd" clip-rule="evenodd" d="M10.875 17.625C10.875 18.2463 11.3787 18.75 12 18.75C12.6213 18.75 13.125 18.2463 13.125 17.625C13.125 17.0037 12.6213 16.5 12 16.5C11.3787 16.5 10.875 17.0037 10.875 17.625Z" fill="white"/>
</svg>
