<svg xmlns="http://www.w3.org/2000/svg" width="24" height="24" viewBox="0 0 24 24">
    <g fill="#FFF" fill-rule="nonzero" opacity=".5">
        <path d="M8.444 13C8.2 13 8 12.776 8 12.5s.199-.5.444-.5h7.112c.245 0 .444.224.444.5s-.199.5-.444.5H8.444zM8.438 16C8.195 16 8 15.776 8 15.5s.196-.5.438-.5h6.124c.242 0 .438.224.438.5s-.196.5-.438.5H8.439z"/>
        <path d="M6.58 4.385a.228.228 0 0 0-.225.23v14.77c0 .127.1.23.226.23h10.838a.228.228 0 0 0 .226-.23V7.767a.233.233 0 0 0-.066-.163l-3.084-3.152a.223.223 0 0 0-.16-.067H6.582zM6.58 3h7.756c.419 0 .82.17 1.117.473l3.084 3.152c.296.303.463.714.463 1.142v11.618c0 .892-.708 1.615-1.58 1.615H6.58C5.709 21 5 20.277 5 19.385V4.615C5 3.723 5.708 3 6.58 3z"/>
        <path d="M14 3c.698 0 1.263.566 1.263 1.263v1.263c0 .117.094.21.21.21h1.264C17.434 5.737 18 6.303 18 7h-2.526C14.66 7 14 6.34 14 5.526V3z"/>
    </g>
</svg>
