<svg xmlns="http://www.w3.org/2000/svg" width="20" height="20" viewBox="0 0 20 20">
    <path fill="#FFF" fill-rule="nonzero" d="M14.046 17.894a.532.532 0 0 1-.85-.427v-1.6h-4.68c-3.623 0-6.374-2.053-7.005-5.23a.531.531 0 0 1 .853-.52l.847.68c1.21.97 2.508 1.87 3.799 1.87h6.186v-1.6a.533.533 0 0 1 .85-.427l4.253 3.2c.268.202.268.653 0 .853l-4.253 3.2zm2.743-8.69c-1.21-.972-2.508-1.87-3.799-1.87H6.804v1.6a.532.532 0 0 1-.85.426L1.7 6.16c-.268-.202-.268-.653 0-.853l4.253-3.2a.532.532 0 0 1 .85.426v1.6h4.68c3.622 0 6.373 2.053 7.005 5.23a.531.531 0 0 1-.854.52l-.846-.68z"/>
</svg>
