<svg xmlns="http://www.w3.org/2000/svg" width="20" height="20" viewBox="0 0 20 20">
    <path fill="#FFF" fill-rule="nonzero" d="M12.696 11.067a1.034 1.034 0 0 1 1.65-.827l4.254 3.2c.534.402.534 1.253 0 1.653l-4.253 3.2a1.033 1.033 0 0 1-1.651-.826v-1.1h-4.18c-3.853 0-6.816-2.211-7.494-5.626a1.03 1.03 0 0 1 1.655-1.014l.847.68c1.499 1.203 2.525 1.76 3.486 1.76h5.686v-1.1zm.294-3.234H7.305v1.1a1.032 1.032 0 0 1-1.652.827L1.4 6.56c-.533-.402-.533-1.253 0-1.653l4.254-3.2a1.032 1.032 0 0 1 1.65.826v1.1h4.18c3.852 0 6.815 2.211 7.495 5.626a1.03 1.03 0 0 1-1.656 1.014l-.847-.68c-1.499-1.203-2.524-1.76-3.486-1.76zm5.01 6.46l-.001-.053-4.253-3.2c-.043.002-.05.013-.05.027v2.1H7.01c-1.263 0-2.442-.64-4.112-1.98l-.847-.68c-.045.004-.05.014-.05.026.583 2.94 3.121 4.834 6.515 4.834h5.18v2.1c0 .013.007.025.018.03.006.003 1.435-1.065 4.286-3.204zm-.898-5.48l.848.68c.044-.004.05-.014.05-.026-.585-2.94-3.123-4.834-6.516-4.834h-5.18v-2.1a.034.034 0 0 0-.018-.03C6.28 2.5 4.85 3.568 2 5.707v.053l4.255 3.201c.042-.004.049-.015.049-.028v-2.1h6.685c1.264 0 2.443.64 4.112 1.98z" opacity=".7"/>
</svg>
