<svg xmlns="http://www.w3.org/2000/svg" width="61" height="56" viewBox="0 0 61 56">
    <defs>
        <linearGradient id="prefix__a" x1="72.734%" x2="72.734%" y1=".438%" y2="100%">
            <stop offset="0%" stop-color="#0070D9"/>
            <stop offset="100%" stop-color="#0040A8"/>
        </linearGradient>
    </defs>
    <g fill="none" fill-rule="evenodd">
        <path fill="url(#prefix__a)" fill-rule="nonzero" d="M57.337 31.03c-1.025 1.206-2.027 2.432-3.063 3.628-.207.238-.255.396-.127.69 2.051 4.708-1.508 9.655-6.624 9.181-.674-.062-1.34-.312-1.988-.539-.309-.108-.485-.107-.727.136-3.213 3.229-6.446 6.439-9.659 9.669-2.835 2.85-6.851 2.866-9.687.023-3.217-3.227-6.436-6.452-9.656-9.676-.254-.256-.443-.283-.765-.14-4.65 2.026-9.679-1.655-9.102-6.68.075-.66.314-1.309.542-1.94.113-.315.075-.497-.14-.742-.972-1.108-1.928-2.23-2.868-3.365m0 0c-.986-1.465-2.059-3.766-2.337-4.634-2.114-6.576-1.319-12.775 2.73-18.4C7.21 3.59 11.833.909 17.535.178c4.396-.565 8.526.311 12.39 2.459.283.16.487.146.764-.01C34.014.763 37.588-.14 41.394.019c8.872.37 16.202 6.339 18.478 14.613 1.447 5.266.83 10.327-1.768 15.138-.082.151-.672 1.113-.763 1.26"/>
        <path fill="#FFF" fill-rule="nonzero" d="M20.713 37.447l9.553 9.555 9.176-9.178 2.494 2.415-10.443 10.445c-.284.284-.658.46-1.055.5l-.172.008c-.403 0-.79-.14-1.1-.393l-.127-.115L18.317 39.96l2.396-2.513zm27.832-1.862l.756.757c.754.754.754 1.978 0 2.733-.746.746-1.951.755-2.708.025l-.025-.025-.665-.664 2.642-2.826zm-36.58.016l2.532 2.935-.54.539c-.745.746-1.95.755-2.707.025l-.025-.025c-.747-.746-.755-1.95-.026-2.707l.766-.767zm19.638-16.956l6.44 6.44v-2.243c0-1.068.866-1.933 1.933-1.933 1.057 0 1.915.848 1.933 1.9v6.14l2.12 2.12-2.777 2.69-10.99-10.989-11.291 11.292-2.668-2.8L28.896 18.67c.746-.746 1.95-.754 2.707-.025zm-1.337-9.817c6.003-5.609 15.37-5.455 21.185.348 5.854 5.868 5.938 15.315.254 21.286l-.254.261-1.101 1.1-2.494-2.414 1.14-1.14c4.515-4.517 4.59-11.79.228-16.4l-.23-.236c-4.515-4.516-11.787-4.593-16.397-.232l-.236.23-.868.868c-.638.638-1.648.675-2.33.112l-.124-.112-.868-.868c-4.594-4.59-12.038-4.587-16.63.005-4.514 4.515-4.593 11.786-.235 16.397l.23.236 1.095 1.094-2.396 2.514-1.154-1.154C3.288 24.93 3.127 15.61 8.655 9.621l.251-.266c5.783-5.977 15.29-6.211 21.36-.527z"/>
        <path fill="#FFF" fill-rule="nonzero" d="M38.043 25.085v-2.243c0-1.068.866-1.933 1.933-1.933 1.057 0 1.915.848 1.933 1.9v6.14l7.392 7.393c.754.754.754 1.978 0 2.733-.746.746-1.951.755-2.708.025l-.025-.025L30.263 22.77 13.958 39.075c-.746.746-1.95.755-2.708.025l-.025-.025c-.747-.746-.755-1.95-.026-2.707L28.896 18.67c.746-.746 1.95-.754 2.707-.025l6.44 6.44z"/>
        <circle cx="30.263" cy="33.468" r="2.923" fill="#FFF"/>
    </g>
</svg>
