<svg width="22" height="22" viewBox="0 0 22 22" fill="none" xmlns="http://www.w3.org/2000/svg">
<path fill-rule="evenodd" clip-rule="evenodd" d="M13.7485 8.06716C13.3774 6.42679 11.8569 5.33131 10.2148 5.52139C8.57283 5.71146 7.33235 7.12653 7.33203 8.80988C7.33196 9.17551 7.62292 9.47197 7.9819 9.47204C8.34088 9.47211 8.63194 9.17576 8.63201 8.81013L8.63531 8.69433C8.68981 7.73585 9.41438 6.94664 10.3616 6.83699C11.3468 6.72295 12.2591 7.38021 12.4818 8.36446C12.7044 9.34873 12.1665 10.3465 11.2317 10.6831L11.0329 10.7533L10.8277 10.83C10.2386 11.0729 9.93144 11.4354 9.9318 12.1207L9.9318 13.4445L9.93617 13.5217C9.97372 13.8509 10.2484 14.1065 10.5818 14.1065C10.9408 14.1065 11.2318 13.8101 11.2318 13.4445V12.1204L11.2303 12.1016L11.2278 12.0793L11.3232 12.052L11.6651 11.9315C13.2231 11.3703 14.1196 9.7075 13.7485 8.06716ZM10.5885 17.0092C10.0501 17.0092 9.61354 16.5646 9.61354 16.0162C9.61354 15.4677 10.0501 15.0231 10.5885 15.0231C11.127 15.0231 11.5635 15.4677 11.5635 16.0162C11.5635 16.5646 11.127 17.0092 10.5885 17.0092Z" fill="#0040A8"/>
<circle cx="11" cy="11" r="10.5" stroke="#0040A8"/>
</svg>
