<svg xmlns="http://www.w3.org/2000/svg" width="22" height="22" viewBox="0 0 22 22">
    <g fill="#FFF" fill-rule="nonzero">
        <path d="M1.61 7.78C.72 7.78 0 8.501 0 9.39v2.951c0 .89.72 1.61 1.61 1.61h.402c.106.342.241.674.403.993l-.295.295a1.61 1.61 0 0 0 0 2.254l2.119 2.12a1.61 1.61 0 0 0 2.254 0l.295-.296c.319.162.65.296.992.403v.402c0 .889.721 1.61 1.61 1.61h2.951c.89 0 1.61-.721 1.61-1.61v-.402c.342-.107.674-.241.993-.403l.295.295a1.61 1.61 0 0 0 2.254 0l2.12-2.12a1.61 1.61 0 0 0 0-2.253l-.296-.295c.162-.32.296-.651.403-.993h.402c.889 0 1.61-.72 1.61-1.61v-2.95c0-.89-.721-1.61-1.61-1.61h-.402a6.412 6.412 0 0 0-.403-.993l.295-.295a1.61 1.61 0 0 0 0-2.254l-2.12-2.12a1.61 1.61 0 0 0-2.253 0l-.295.296a6.412 6.412 0 0 0-.993-.403V1.61c0-.89-.72-1.61-1.61-1.61h-2.95C8.5 0 7.78.72 7.78 1.61v.402c-.342.106-.674.241-.993.403l-.295-.295a1.61 1.61 0 0 0-2.254 0l-2.12 2.119a1.61 1.61 0 0 0 0 2.254l.296.295c-.162.319-.297.65-.403.992H1.61zm.992 1.61a.832.832 0 0 0 .778-.59c.163-.62.406-1.215.725-1.77a.778.778 0 0 0-.134-.967l-.698-.697 2.093-2.093.697.698c.25.266.653.321.966.134A7.244 7.244 0 0 1 8.8 3.38a.832.832 0 0 0 .59-.778V1.61h2.951v.992c.008.36.246.674.59.778.62.163 1.216.406 1.771.725a.778.778 0 0 0 .966-.134l.698-.698 2.093 2.093-.698.697a.778.778 0 0 0-.134.966c.319.556.562 1.151.724 1.771a.832.832 0 0 0 .778.59h.993v2.951h-.993a.832.832 0 0 0-.778.59 7.244 7.244 0 0 1-.724 1.771.778.778 0 0 0 .134.966l.698.698-2.093 2.093-.698-.698a.778.778 0 0 0-.966-.134 7.244 7.244 0 0 1-1.77.724.832.832 0 0 0-.59.778v.993H9.39v-.993a.832.832 0 0 0-.59-.778 7.244 7.244 0 0 1-1.77-.724.698.698 0 0 0-.403-.107.805.805 0 0 0-.564.241l-.697.698-2.093-2.093.698-.698a.778.778 0 0 0 .134-.966 7.244 7.244 0 0 1-.725-1.77.832.832 0 0 0-.778-.59H1.61V9.39h.992z"/>
        <path d="M10.874 15.461a4.588 4.588 0 1 0-4.588-4.587 4.615 4.615 0 0 0 4.588 4.587zm0-7.566a2.978 2.978 0 1 1 0 5.957 2.978 2.978 0 0 1 0-5.957z"/>
    </g>
</svg>
