<svg xmlns="http://www.w3.org/2000/svg" width="18" height="20" viewBox="0 0 18 20">
    <path fill="#6680AD" fill-rule="evenodd" d="M.727 16.28c0 .705.53.81 1.182.81h5.093c0 1.118.95 1.965 1.998 1.965s2.014-.821 2.014-1.964h5.077c.653 0 1.182-.196 1.182-.811 0-.616-.53-.823-1.182-.823V8.818a7.093 7.093 0 0 0-5.91-6.993v-.098a1.182 1.182 0 1 0-2.363 0v.098A7.093 7.093 0 0 0 1.91 8.818v6.64c-.653 0-1.182.117-1.182.822zM9 3.35l.921.155c2.603.437 4.381 2.494 4.381 5.22v6.702H3.68V8.727c0-2.727 1.795-4.784 4.398-5.22L9 3.35z" opacity=".4"/>
</svg>
