<svg xmlns="http://www.w3.org/2000/svg" width="22" height="22" viewBox="0 0 22 22">
    <path fill="#4070BE" fill-rule="nonzero" d="M10.665 21.33C4.775 21.33 0 16.555 0 10.665 0 4.775 4.775 0 10.665 0c5.89 0 10.665 4.775 10.665 10.665 0 5.89-4.775 10.665-10.665 10.665zm0-1.456a9.21 9.21 0 1 0 0-18.418 9.21 9.21 0 0 0 0 18.418zM7.105 14.8c-.313-.24-.532-.542-.532-.872 0-.466.313-.782.798-.782.173 0 .329.045.486.136.844.51 1.423.961 2.894.961 1.502 0 2.097-.586 2.097-1.262 0-.737-.61-1.112-2.488-1.593-2.832-.722-3.677-1.594-3.677-3.097 0-1.611 1.27-2.561 3.266-2.768v-.57a.716.716 0 1 1 1.432 0v.553c.458.039.97.12 1.436.245.72.196 1.627.632 1.627 1.233 0 .406-.25.826-.782.826a.84.84 0 0 1-.376-.075c-.72-.315-1.47-.631-2.456-.631-1.393 0-2.238.36-2.238 1.142 0 .737.626.992 2.504 1.518 2.143.602 3.661 1.188 3.661 3.112 0 1.592-1.15 2.759-3.376 2.949v.555a.716.716 0 0 1-1.432 0v-.572c-1.048-.118-2.116-.467-2.844-1.008z"/>
</svg>
