<svg xmlns="http://www.w3.org/2000/svg" width="19" height="19" viewBox="0 0 19 19">
    <path fill="#FFF" fill-rule="nonzero" d="M9.5 19a9.5 9.5 0 1 1 0-19 9.5 9.5 0 0 1 0 19zm0-1.056a8.444 8.444 0 1 0 0-16.888 8.444 8.444 0 0 0 0 16.888zm-.647-3.802c-.946-.106-1.91-.42-2.567-.91-.283-.217-.48-.489-.48-.787 0-.42.282-.706.72-.706.155 0 .297.04.438.122.763.462 1.286.869 2.614.869 1.356 0 1.893-.53 1.893-1.14 0-.665-.551-1.004-2.246-1.439-2.558-.651-3.32-1.438-3.32-2.795 0-1.455 1.145-2.313 2.948-2.5v-.515a.647.647 0 0 1 1.293 0v.5c.414.035.875.108 1.297.221.65.177 1.469.57 1.469 1.113 0 .367-.226.747-.707.747a.758.758 0 0 1-.339-.068c-.65-.285-1.328-.57-2.218-.57-1.257 0-2.02.325-2.02 1.031 0 .665.565.896 2.26 1.37 1.936.544 3.306 1.073 3.306 2.81 0 1.438-1.037 2.491-3.048 2.662v.502a.647.647 0 0 1-1.293 0v-.517z"/>
</svg>
