<svg xmlns="http://www.w3.org/2000/svg" width="20" height="20" viewBox="0 0 20 20">
    <path fill="#FFF" fill-rule="nonzero" d="M10 18.5a8.5 8.5 0 1 1 0-17 8.5 8.5 0 0 1 0 17zm0-.944a7.556 7.556 0 1 0 0-15.112 7.556 7.556 0 0 0 0 15.112zm-.579-3.402c-.846-.095-1.71-.377-2.297-.815-.253-.194-.43-.437-.43-.704 0-.377.253-.632.645-.632.14 0 .266.037.392.11.683.413 1.15.777 2.339.777 1.213 0 1.693-.474 1.693-1.02 0-.595-.493-.899-2.01-1.287-2.287-.583-2.97-1.287-2.97-2.501 0-1.303 1.025-2.07 2.638-2.237v-.461a.578.578 0 0 1 1.157 0v.447c.37.031.783.097 1.16.198.582.158 1.315.51 1.315.996 0 .328-.203.668-.632.668a.679.679 0 0 1-.304-.06c-.581-.256-1.188-.51-1.984-.51-1.125 0-1.808.29-1.808.922 0 .595.506.801 2.023 1.226 1.731.486 2.958.96 2.958 2.514 0 1.287-.929 2.229-2.728 2.382v.449a.578.578 0 1 1-1.157 0v-.462z" opacity=".7"/>
</svg>
