<svg xmlns="http://www.w3.org/2000/svg" width="20" height="20" viewBox="0 0 20 20">
    <path fill="#FFF" fill-rule="nonzero" d="M10 18.5a8.5 8.5 0 1 1 0-17 8.5 8.5 0 0 1 0 17zm-2.876-5.16c.588.437 1.45.719 2.297.814v.462a.578.578 0 1 0 1.157 0v-.449c1.8-.153 2.728-1.095 2.728-2.382 0-1.554-1.227-2.028-2.958-2.514-1.517-.425-2.023-.63-2.023-1.226 0-.631.683-.923 1.808-.923.796 0 1.403.255 1.984.51.101.049.203.061.304.061.43 0 .632-.34.632-.668 0-.486-.733-.838-1.315-.996a6.815 6.815 0 0 0-1.16-.198v-.447a.578.578 0 1 0-1.157 0v.461c-1.613.167-2.638.934-2.638 2.237 0 1.214.683 1.918 2.97 2.5 1.517.39 2.01.693 2.01 1.288 0 .546-.48 1.02-1.693 1.02-1.189 0-1.656-.364-2.339-.777a.763.763 0 0 0-.392-.11c-.392 0-.645.255-.645.632 0 .267.177.51.43.704z"/>
</svg>
