<svg xmlns="http://www.w3.org/2000/svg" width="24" height="27" viewBox="0 0 24 27">
    <path fill="#4070BE" fill-rule="evenodd" stroke="#4070BE" stroke-width=".8" d="M5.654 21.833h5.077a.42.42 0 0 0 .423-.416.42.42 0 0 0-.423-.417H5.654a.42.42 0 0 0-.423.417c0 .23.19.416.423.416m0-5h3.384a.42.42 0 0 0 .424-.416.42.42 0 0 0-.424-.417H5.654a.42.42 0 0 0-.423.417c0 .23.19.416.423.416m0-5h7.615a.42.42 0 0 0 .423-.416.42.42 0 0 0-.423-.417H5.654a.42.42 0 0 0-.423.417c0 .23.19.416.423.416M23 23.917C23 25.065 22.051 26 20.885 26H3.115C1.95 26 1 25.065 1 23.917V3.083C1 1.935 1.949 1 3.115 1h13.539c.112 0 .22.044.299.122l4.23 4.167a.412.412 0 0 1 0 .589.427.427 0 0 1-.598 0L16.48 1.833H3.115c-.7 0-1.269.561-1.269 1.25v20.834c0 .689.57 1.25 1.27 1.25h17.769c.7 0 1.269-.561 1.269-1.25V7.667h-3.808c-1.166 0-2.115-.935-2.115-2.084V3.5c0-.23.19-.417.423-.417a.42.42 0 0 1 .423.417v2.083c0 .69.57 1.25 1.27 1.25h4.23A.42.42 0 0 1 23 7.25v16.667z"/>
</svg>
