<svg xmlns="http://www.w3.org/2000/svg" width="20" height="20" viewBox="0 0 20 20">
    <path fill="#FFF" fill-rule="nonzero" d="M2.028 11.185l-.18-.193a1.302 1.302 0 0 1 .057-1.83L9.08 2.367a1.37 1.37 0 0 1 1.842-.022l7.15 6.464c.528.477.573 1.295.103 1.83l-.203.23c-.3.341-.698.558-1.062.544v5.28c0 .718-.57 1.307-1.28 1.307h-2.964c-.715 0-1.244-.592-1.234-1.306v-3.078a.5.5 0 0 0-.5-.5H9.365a.5.5 0 0 0-.5.5v3.078c0 .718-.57 1.306-1.28 1.306H4.787c-.711 0-1.28-.588-1.28-1.306V11.5c-.484.225-1.088.106-1.48-.316zm15.374-1.634l-7.15-6.464a.37.37 0 0 0-.484.006L2.593 9.888a.302.302 0 0 0-.012.423l.18.193c.116.126.284.14.37.059l.537-.496a.5.5 0 0 1 .84.367v6.26c0 .173.128.306.28.306h2.796c.152 0 .281-.133.281-.306v-3.078a1.5 1.5 0 0 1 1.5-1.5h1.567a1.5 1.5 0 0 1 1.5 1.5V16.7c-.002.184.1.299.234.299h2.963c.152 0 .281-.134.281-.307v-6.157a.5.5 0 0 1 .835-.37c.06.052.146.131.248.224a.73.73 0 0 0 .228-.181l.203-.231a.306.306 0 0 0-.022-.427z" opacity=".7"/>
</svg>
