<svg xmlns="http://www.w3.org/2000/svg" xmlns:xlink="http://www.w3.org/1999/xlink" width="48" height="48" viewBox="0 0 48 48">
    <defs>
        <circle id="a" cx="24" cy="24" r="24"/>
    </defs>
    <g fill="none" fill-rule="evenodd">
        <g>
            <mask id="b" fill="#fff">
                <use xlink:href="#a"/>
            </mask>
            <use fill="#FFF" fill-rule="nonzero" xlink:href="#a"/>
            <g mask="url(#b)">
                <path fill="#0041A8" stroke="#0041A8" stroke-linecap="round" stroke-linejoin="round" stroke-width="1.536" d="M9.6 22.44H6V48h36V22.44h-3.6v3.094l-12.152 9.853-2.236-1.787-2.235 1.787-12.178-9.875z"/>
                <path fill="#002C76" stroke="#002C76" stroke-linecap="round" stroke-linejoin="round" stroke-width="1.536" d="M41.679 22.437v.415L26.234 35.387 24 33.6l-2.234 1.787L6.321 22.852v-.415z"/>
                <path fill="#C1E0FF" stroke="#C1E0FF" stroke-linecap="round" stroke-linejoin="round" stroke-width="1.536" d="M38.4 13.91c0-1.055-.863-1.91-1.913-1.91H11.511A1.92 1.92 0 0 0 9.6 13.922v11.59l12.178 9.875 2.235-1.787 2.236 1.787L38.4 25.534V13.91z"/>
                <g fill="#FFF" fill-rule="nonzero">
                    <path d="M32.995 14c-1.606.029-2.934 1.152-2.993 2.696a2.797 2.797 0 0 0 2.687 2.902 2.785 2.785 0 0 0 2.034-.77c.507-.486.486-1.34.083-.952a2.387 2.387 0 0 1-1.742.655c-1.29-.047-2.297-1.09-2.249-2.331.045-1.152 1.185-2.063 2.205-2.118l.026-.082h-.05z"/>
                    <path d="M33.2 14.083c1.299.08 2.368 1.206-1.413 2.331a5.344 5.344 0 0 1 1.675.653c3.236-1.675 1.395-3.072-.436-3.067l-.027.083c.068-.004.135-.004.2 0z"/>
                    <path d="M31.656 14.753c.401-.386.9-.63 1.372-.66.067-.005.133-.005.198 0 .627.044 1.2.37 1.183.84l.314-.427c-.419-.322-1.044-.508-1.669-.506h-.05a2.925 2.925 0 0 0-1.6.512l.252.241zM34.565 18.4c0-.015-.052-.374-.052-.374-.129-.855.05-1.683 1.36-1.752-1.899-.911-3.161-.038-4.086.166.842.104 2.616 1.055 2.778 1.96z"/>
                    <path d="M35.253 16.533c-.805.338-.722 1.274-.645 1.822.016.045.096.386-.09.742-.231.401-.605.704-1.327.9 1.849.087 3.964-1.722 2.062-3.464z"/>
                </g>
                <path stroke="#6680AD" stroke-linecap="round" stroke-linejoin="round" stroke-width="1.536" d="M14.25 21.75h14M14.25 26.25h19.502M14.25 17.25h9.902" opacity=".5"/>
                <path fill="#437BDA" stroke="#437BDA" stroke-linecap="round" stroke-linejoin="round" stroke-width="1.536" d="M24 33.6L6 48h36z"/>
            </g>
        </g>
        <g transform="translate(33 33)">
            <circle cx="7.5" cy="7.5" r="7.5" fill="#53BE3E"/>
            <path fill="#FFF" fill-rule="nonzero" d="M10.445 4.688l.805.81-4.781 4.814L3.75 7.575l.805-.81 1.914 1.927z"/>
        </g>
    </g>
</svg>
