<svg xmlns="http://www.w3.org/2000/svg" width="30" height="30" viewBox="0 0 30 30">
    <path fill="#8A8D94" fill-rule="evenodd" d="M17.165 20.98a.87.87 0 0 1 .637.27.87.87 0 0 1 .269.636.87.87 0 0 1-.27.637.87.87 0 0 1-.636.268h-3.62a.87.87 0 0 1-.637-.268.87.87 0 0 1-.269-.637.87.87 0 0 1 .269-.636.87.87 0 0 1 .636-.27h.906V13.74h-.906a.87.87 0 0 1-.636-.269.87.87 0 0 1-.269-.636.87.87 0 0 1 .269-.637.87.87 0 0 1 .636-.269h1.81a.87.87 0 0 1 .637.269.87.87 0 0 1 .27.637v8.147h.904zm-1.81-10.862a1.75 1.75 0 0 1-1.287-.524 1.75 1.75 0 0 1-.524-1.287c0-.509.175-.938.524-1.287a1.75 1.75 0 0 1 1.287-.523c.51 0 .938.174 1.287.523.349.349.523.778.523 1.287 0 .51-.174.938-.523 1.287a1.75 1.75 0 0 1-1.287.524zm0-9.958c1.999 0 3.88.377 5.644 1.131 1.763.755 3.3 1.787 4.61 3.098A14.535 14.535 0 0 1 28.708 9c.755 1.764 1.132 3.645 1.132 5.644 0 2-.377 3.88-1.132 5.644a14.535 14.535 0 0 1-3.097 4.61 14.535 14.535 0 0 1-4.611 3.099c-1.764.754-3.645 1.131-5.644 1.131-2 0-3.88-.377-5.644-1.131A14.535 14.535 0 0 1 5.1 24.899a14.535 14.535 0 0 1-3.098-4.611C1.248 18.524.871 16.643.871 14.644c0-2 .377-3.88 1.131-5.644A14.535 14.535 0 0 1 5.1 4.39 14.535 14.535 0 0 1 9.711 1.29C11.475.537 13.356.16 15.355.16zm0 27.186c1.754 0 3.4-.335 4.936-1.004a12.79 12.79 0 0 0 4.017-2.73 13.086 13.086 0 0 0 2.716-4.031c.67-1.538 1.004-3.183 1.004-4.937 0-1.754-.334-3.4-1.004-4.936a12.911 12.911 0 0 0-2.716-4.018 12.911 12.911 0 0 0-4.017-2.715c-1.537-.67-3.182-1.005-4.936-1.005s-3.4.335-4.937 1.005A12.911 12.911 0 0 0 6.401 5.69a12.911 12.911 0 0 0-2.715 4.018c-.67 1.537-1.005 3.182-1.005 4.936s.335 3.4 1.005 4.937A13.086 13.086 0 0 0 6.4 23.61a12.79 12.79 0 0 0 4.017 2.73c1.537.67 3.183 1.005 4.937 1.005z"/>
</svg>
