<svg xmlns="http://www.w3.org/2000/svg" width="15" height="29" viewBox="0 0 15 29">
    <path fill="#8A8D94" fill-rule="evenodd" d="M0 21.75V2.417C0 1.175 1.14 0 2.344 0h10.312C13.861 0 15 1.175 15 2.417c0 .266-.21.483-.469.483a.476.476 0 0 1-.469-.483c0-.705-.722-1.45-1.406-1.45H2.344c-.684 0-1.406.745-1.406 1.45V21.75c0 .267-.21.483-.47.483A.476.476 0 0 1 0 21.75zM14.531 3.867H2.344a.476.476 0 0 0-.469.483c0 .267.21.483.469.483h11.719v21.75c0 .705-.723 1.45-1.407 1.45H2.344c-.684 0-1.406-.745-1.406-1.45v-2.416h11.718a.476.476 0 0 0 .469-.484.476.476 0 0 0-.469-.483H.47a.476.476 0 0 0-.469.483v2.9C0 27.825 1.14 29 2.344 29h10.312C13.861 29 15 27.825 15 26.583V4.35a.476.476 0 0 0-.469-.483zM6.562 26.1c0 .533.421.967.938.967.517 0 .938-.434.938-.967 0-.533-.421-.967-.938-.967-.517 0-.938.434-.938.967zM6.104 1.933a.474.474 0 0 0-.466.484c0 .266.212.483.47.483.26 0 .47-.217.47-.483a.476.476 0 0 0-.47-.484h-.004zm1.866 0a.476.476 0 0 0-.469.484c0 .266.21.483.469.483h1.875a.476.476 0 0 0 .469-.483.476.476 0 0 0-.47-.484H7.97zm3.75 6.767a.46.46 0 0 0 .331-.142.493.493 0 0 0 0-.683l-.937-.967a.458.458 0 0 0-.663 0 .493.493 0 0 0 0 .684l.937.966a.46.46 0 0 0 .332.142zM7.637 6.908a.493.493 0 0 0 0 .684l3.75 3.866a.46.46 0 0 0 .663 0 .493.493 0 0 0 0-.683L8.3 6.908a.458.458 0 0 0-.663 0z" opacity=".5"/>
</svg>
