<svg xmlns="http://www.w3.org/2000/svg" width="24" height="36" viewBox="0 0 24 36">
    <path fill="#8A8D94" fill-rule="evenodd" d="M12 0C5.383 0 0 5.383 0 12c0 5.064 1.986 8.842 6.251 11.888.02.015.05.033.073.045.031.017.677.377.839 1.389A1.792 1.792 0 0 0 6.46 28.2a1.792 1.792 0 0 0 0 2.4c-.286.319-.46.74-.46 1.2 0 .992.808 1.8 1.8 1.8a.6.6 0 0 0 0-1.2.601.601 0 0 1 0-1.2h6a.6.6 0 1 0 0-1.2h-6a.601.601 0 0 1 0-1.2h6a.6.6 0 1 0 0-1.2h-6a.601.601 0 0 1 0-1.2h6a.6.6 0 1 0 0-1.2H8.36c-.213-1.51-1.192-2.165-1.438-2.307C2.965 20.057 1.2 16.696 1.2 12 1.2 6.045 6.045 1.2 12 1.2c5.955 0 10.8 4.845 10.8 10.8 0 4.696-1.765 8.057-5.722 10.893-.276.159-1.478.966-1.478 2.907a.6.6 0 0 0 .6.6.6.6 0 0 1 0 1.2.6.6 0 1 0 0 1.2.6.6 0 0 1 0 1.2.6.6 0 1 0 0 1.2.6.6 0 0 1 .6.6c0 .342-.258.6-.6.6h-6a.6.6 0 0 0-.6.6v1.2c0 .992.808 1.8 1.8 1.8h1.2c.992 0 1.8-.808 1.8-1.8v-.6h1.8c1.01 0 1.8-.79 1.8-1.8 0-.46-.174-.881-.46-1.2a1.792 1.792 0 0 0 0-2.4 1.792 1.792 0 0 0-.703-2.878c.162-1.012.807-1.372.831-1.386a.57.57 0 0 0 .08-.048C22.014 20.842 24 17.064 24 12c0-6.617-5.383-12-12-12zm1.2 34.2a.6.6 0 0 1-.6.6h-1.2c-.33 0-.6-.27-.6-.6v-.6h2.4v.6zm.6-10.8a.6.6 0 0 0 .6-.6v-8.4h1.8c1.654 0 3-1.346 3-3s-1.346-3-3-3-3 1.346-3 3v1.8h-2.4v-1.8c0-1.654-1.346-3-3-3s-3 1.346-3 3 1.346 3 3 3h1.8v8.4a.6.6 0 0 0 1.2 0v-8.4h2.4v8.4a.6.6 0 0 0 .6.6zm.6-12c0-.992.808-1.8 1.8-1.8s1.8.808 1.8 1.8-.808 1.8-1.8 1.8h-1.8v-1.8zm-4.8 1.8H7.8c-.992 0-1.8-.808-1.8-1.8s.808-1.8 1.8-1.8 1.8.808 1.8 1.8v1.8z" opacity=".5"/>
</svg>
