<svg xmlns="http://www.w3.org/2000/svg" width="19" height="29" viewBox="0 0 19 29">
    <path fill="#8A8D94" fill-rule="evenodd" d="M9.5 0C4.262 0 0 4.336 0 9.667c0 4.079 1.572 7.122 4.949 9.576.016.012.04.027.057.036.025.014.536.304.665 1.12a1.458 1.458 0 0 0-.557 2.319 1.458 1.458 0 0 0-.364.965c0 .372.138.71.364.967a1.458 1.458 0 0 0-.364.967c0 .8.64 1.45 1.425 1.45a.48.48 0 0 0 .475-.484.48.48 0 0 0-.475-.483.48.48 0 0 1-.475-.483.48.48 0 0 1 .475-.484h4.75a.48.48 0 0 0 .475-.483.48.48 0 0 0-.475-.483h-4.75a.48.48 0 0 1-.475-.484.48.48 0 0 1 .475-.483h4.75a.48.48 0 0 0 .475-.483.48.48 0 0 0-.475-.484h-4.75a.48.48 0 0 1-.475-.483.48.48 0 0 1 .475-.483h4.75a.48.48 0 0 0 .475-.484.48.48 0 0 0-.475-.483H6.618c-.168-1.217-.944-1.744-1.138-1.858C2.347 16.157.95 13.45.95 9.667c0-4.797 3.836-8.7 8.55-8.7s8.55 3.903 8.55 8.7c0 3.783-1.397 6.49-4.53 8.775-.219.128-1.17.778-1.17 2.341a.48.48 0 0 0 .475.484.48.48 0 0 1 .475.483.48.48 0 0 1-.475.483.48.48 0 0 0-.475.484.48.48 0 0 0 .475.483.48.48 0 0 1 .475.483.48.48 0 0 1-.475.484.48.48 0 0 0-.475.483.48.48 0 0 0 .475.483.48.48 0 0 1 .475.484.469.469 0 0 1-.475.483h-4.75a.48.48 0 0 0-.475.483v.967c0 .8.64 1.45 1.425 1.45h.95c.786 0 1.425-.65 1.425-1.45v-.483h1.425c.8 0 1.425-.637 1.425-1.45 0-.372-.138-.71-.364-.967.226-.257.364-.595.364-.967 0-.37-.138-.71-.364-.966a1.458 1.458 0 0 0-.557-2.319c.128-.815.639-1.105.658-1.116a.449.449 0 0 0 .064-.039C17.427 16.79 19 13.746 19 9.667 19 4.337 14.738 0 9.5 0zm.95 27.55a.48.48 0 0 1-.475.483h-.95a.48.48 0 0 1-.475-.483v-.483h1.9v.483zm.475-8.7a.48.48 0 0 0 .475-.483V11.6h1.425c1.31 0 2.375-1.084 2.375-2.417 0-1.332-1.065-2.416-2.375-2.416S10.45 7.85 10.45 9.183v1.45h-1.9v-1.45c0-1.332-1.065-2.416-2.375-2.416S3.8 7.85 3.8 9.183c0 1.333 1.065 2.417 2.375 2.417H7.6v6.767a.48.48 0 0 0 .475.483.48.48 0 0 0 .475-.483V11.6h1.9v6.767a.48.48 0 0 0 .475.483zm.475-9.667c0-.8.64-1.45 1.425-1.45.786 0 1.425.65 1.425 1.45 0 .8-.64 1.45-1.425 1.45H11.4v-1.45zm-3.8 1.45H6.175c-.786 0-1.425-.65-1.425-1.45 0-.8.64-1.45 1.425-1.45.786 0 1.425.65 1.425 1.45v1.45z" opacity=".5"/>
</svg>
