<svg xmlns="http://www.w3.org/2000/svg" width="16" height="24" viewBox="0 0 16 24">
    <g fill="#4070BE" fill-rule="nonzero">
        <path d="M8.038.21c-4.348 0-7.9 3.5-7.9 7.785 0 2.24.995 4.397 2.671 5.853 1.25 1.232 1.137 3.865 1.109 3.893 0 .14.028.252.142.364.085.084.227.14.34.14h7.246a.474.474 0 0 0 .341-.14.528.528 0 0 0 .142-.364c0-.028-.142-2.66 1.108-3.893l.086-.084c1.647-1.484 2.614-3.585 2.614-5.77 0-4.284-3.552-7.785-7.9-7.785zm4.546 12.91c-.029.028-.085.084-.085.112-1.109 1.176-1.308 3.109-1.336 4.033h-6.28c-.028-.924-.227-2.94-1.42-4.145a6.784 6.784 0 0 1-2.387-5.153c0-3.78 3.097-6.833 6.933-6.833s6.933 3.052 6.933 6.833a6.757 6.757 0 0 1-2.358 5.153z"/>
        <path d="M8.01 2.198a.494.494 0 0 0-.484.476c0 .252.227.476.483.476 2.87 0 5.171 2.296 5.171 5.097 0 .252.228.476.483.476a.494.494 0 0 0 .483-.476c.029-3.333-2.727-6.05-6.137-6.05zM11.163 18.777H4.855c-.653 0-1.193.532-1.193 1.176 0 .644.54 1.176 1.193 1.176h6.28c.682-.028 1.221-.532 1.221-1.176 0-.644-.54-1.176-1.193-1.176zm0 1.372H4.855a.223.223 0 0 1-.227-.224c0-.14.085-.224.227-.224h6.28c.113 0 .227.084.227.224s-.085.224-.199.224zM10.225 21.606H5.793c-.654 0-1.193.532-1.193 1.176 0 .644.54 1.176 1.193 1.176h4.432c.654 0 1.194-.532 1.194-1.176 0-.672-.54-1.176-1.194-1.176zm0 1.372H5.793a.223.223 0 0 1-.227-.224c0-.14.085-.224.227-.224h4.432c.114 0 .228.084.228.224s-.114.224-.228.224z"/>
    </g>
</svg>
