<?xml version="1.0" encoding="UTF-8"?>
<svg width="18px" height="21px" viewBox="0 0 18 21" version="1.1" xmlns="http://www.w3.org/2000/svg" xmlns:xlink="http://www.w3.org/1999/xlink">
    <!-- Generator: sketchtool 51.2 (57519) - http://www.bohemiancoding.com/sketch -->
    <title>F75C7613-FEAA-40B3-B46A-51A6C72E0B2F</title>
    <desc>Created with sketchtool.</desc>
    <defs></defs>
    <g id="Page-4" stroke="none" stroke-width="1" fill="none" fill-rule="evenodd">
        <g id="02_Desktop_login---Clave-segura---vacío" transform="translate(-498.000000, -518.000000)" fill="#4070BE">
            <g id="Group-11" transform="translate(498.000000, 515.000000)">
                <g id="Group-4" transform="translate(0.000000, 3.000000)">
                    <g id="Group-9">
                        <path d="M14.625,7.75 C15.3151076,7.75 15.9042944,7.99413818 16.3925781,8.48242188 C16.8808618,8.97070557 17.125,9.55989238 17.125,10.25 L17.125,17.75 C17.125,18.4401076 16.8808618,19.0292944 16.3925781,19.5175781 C15.9042944,20.0058618 15.3151076,20.25 14.625,20.25 L3.375,20.25 C2.68489238,20.25 2.09570557,20.0058618 1.60742188,19.5175781 C1.11913818,19.0292944 0.875,18.4401076 0.875,17.75 L0.875,10.25 C0.875,9.55989238 1.11913818,8.97070557 1.60742188,8.48242188 C2.09570557,7.99413818 2.68489238,7.75 3.375,7.75 L4,7.75 L4,5.3671875 C4,4.66405898 4.1204415,4.00000312 4.36132812,3.375 C4.60221475,2.74999688 4.94075303,2.20638252 5.37695312,1.74414062 C5.81315322,1.28189873 6.33723652,0.917319043 6.94921875,0.650390625 C7.56120098,0.383462207 8.23827754,0.25 8.98046875,0.25 C9.70963906,0.25 10.3834604,0.383462207 11.0019531,0.650390625 C11.6204458,0.917319043 12.1510395,1.27864355 12.59375,1.734375 C13.0364605,2.19010645 13.3815092,2.73046563 13.6289062,3.35546875 C13.8763033,3.98047187 14,4.65103809 14,5.3671875 L14,7.75 L14.625,7.75 Z M5.25,5.3671875 L5.25,7.75 L12.75,7.75 L12.75,5.3671875 C12.75,4.28645293 12.4016962,3.37174854 11.7050781,2.62304688 C11.0084601,1.87434521 10.100266,1.5 8.98046875,1.5 C7.84765059,1.5 6.94271172,1.87760039 6.265625,2.6328125 C5.58853828,3.38802461 5.25,4.29947383 5.25,5.3671875 Z M15.875,17.75 L15.875,10.25 C15.875,9.91145664 15.7513033,9.61849082 15.5039062,9.37109375 C15.2565092,9.12369668 14.9635434,9 14.625,9 L3.375,9 C3.03645664,9 2.74349082,9.12369668 2.49609375,9.37109375 C2.24869668,9.61849082 2.125,9.91145664 2.125,10.25 L2.125,17.75 C2.125,18.0885434 2.24869668,18.3815092 2.49609375,18.6289062 C2.74349082,18.8763033 3.03645664,19 3.375,19 L14.625,19 C14.9635434,19 15.2565092,18.8763033 15.5039062,18.6289062 C15.7513033,18.3815092 15.875,18.0885434 15.875,17.75 Z M9,11.5 C9.35156426,11.5 9.64778525,11.6204415 9.88867188,11.8613281 C10.1295585,12.1022147 10.25,12.3984357 10.25,12.75 C10.25,12.9843762 10.1914068,13.1959626 10.0742188,13.3847656 C9.95703066,13.5735687 9.80729258,13.7200516 9.625,13.8242188 L9.625,15.875 C9.625,16.0442717 9.56315166,16.1907546 9.43945312,16.3144531 C9.31575459,16.4381517 9.16927168,16.5 9,16.5 C8.83072832,16.5 8.68424541,16.4381517 8.56054688,16.3144531 C8.43684834,16.1907546 8.375,16.0442717 8.375,15.875 L8.375,13.8242188 C8.19270742,13.7200516 8.04296934,13.5735687 7.92578125,13.3847656 C7.80859316,13.1959626 7.75,12.9843762 7.75,12.75 C7.75,12.3984357 7.8704415,12.1022147 8.11132812,11.8613281 C8.35221475,11.6204415 8.64843574,11.5 9,11.5 Z" id="lock---simple-line-icons"></path>
                    </g>
                </g>
            </g>
        </g>
    </g>
</svg>