<svg xmlns="http://www.w3.org/2000/svg" width="20" height="24" viewBox="0 0 20 24">
    <path fill="#FDC130" fill-rule="evenodd" d="M16.5 9a2.89 2.89 0 0 1 2.121.879A2.89 2.89 0 0 1 19.5 12v9a2.89 2.89 0 0 1-.879 2.121A2.89 2.89 0 0 1 16.5 24H3a2.89 2.89 0 0 1-2.121-.879A2.89 2.89 0 0 1 0 21v-9c0-.828.293-1.535.879-2.121A2.89 2.89 0 0 1 3 9h.75V6.14c0-.843.145-1.64.434-2.39.289-.75.695-1.402 1.218-1.957A5.686 5.686 0 0 1 7.29.48C8.023.16 8.836 0 9.727 0c.875 0 1.683.16 2.425.48.743.32 1.38.754 1.91 1.301a5.843 5.843 0 0 1 1.243 1.946 6.5 6.5 0 0 1 .445 2.414V9h.75zM5.25 6.14V9h9V6.14c0-1.296-.418-2.394-1.254-3.292C12.16 1.949 11.07 1.5 9.726 1.5c-1.359 0-2.445.453-3.257 1.36-.813.906-1.219 2-1.219 3.28zM18 21v-9c0-.406-.148-.758-.445-1.055A1.442 1.442 0 0 0 16.5 10.5H3c-.406 0-.758.148-1.055.445A1.442 1.442 0 0 0 1.5 12v9c0 .406.148.758.445 1.055.297.297.649.445 1.055.445h13.5c.406 0 .758-.148 1.055-.445.297-.297.445-.649.445-1.055zm-8.25-7.5c.422 0 .777.145 1.066.434.29.289.434.644.434 1.066 0 .281-.07.535-.21.762-.142.226-.321.402-.54.527v2.461a.72.72 0 0 1-.223.527.72.72 0 0 1-.527.223.72.72 0 0 1-.527-.223A.72.72 0 0 1 9 18.75v-2.46a1.513 1.513 0 0 1-.54-.528c-.14-.227-.21-.48-.21-.762 0-.422.145-.777.434-1.066A1.45 1.45 0 0 1 9.75 13.5z"/>
</svg>
