<svg xmlns="http://www.w3.org/2000/svg" width="42" height="42" viewBox="0 0 42 42">
    <defs>
        <linearGradient id="a" x1="28.596%" x2="87.154%" y1="44.404%" y2="57.371%">
            <stop offset="0%" stop-color="#ED1C24"/>
            <stop offset="100%" stop-color="#8B0304"/>
        </linearGradient>
        <linearGradient id="b" x1="10.322%" x2="88.651%" y1="49.953%" y2="49.953%">
            <stop offset="0%" stop-color="#ED1C24"/>
            <stop offset="100%" stop-color="#FFCB05"/>
        </linearGradient>
        <linearGradient id="c" x1="50.002%" x2="50.002%" y1="-.786%" y2="35.658%">
            <stop offset="0%" stop-color="#E39717"/>
            <stop offset="12.36%" stop-color="#E8A116"/>
            <stop offset="43.44%" stop-color="#F4B710"/>
            <stop offset="73.21%" stop-color="#FCC509"/>
            <stop offset="100%" stop-color="#FFCB05"/>
        </linearGradient>
        <linearGradient id="d" x1="27.043%" x2="46.808%" y1="24.367%" y2="60.204%">
            <stop offset="0%" stop-color="#E39717"/>
            <stop offset="10.13%" stop-color="#E8A116"/>
            <stop offset="35.61%" stop-color="#F4B710"/>
            <stop offset="60%" stop-color="#FCC509"/>
            <stop offset="81.96%" stop-color="#FFCB05"/>
            <stop offset="100%" stop-color="#FFCB05"/>
        </linearGradient>
    </defs>
    <g fill="none" fill-rule="evenodd" transform="translate(1 1)">
        <circle cx="20" cy="20" r="20" fill="#FFF" stroke="#EDF1F3"/>
        <path fill="url(#a)" fill-rule="nonzero" d="M19.716 9.003c-6.284.106-11.479 4.355-11.708 10.191-.226 5.84 4.48 10.755 10.51 10.973a11.104 11.104 0 0 0 7.955-2.915c1.986-1.833 1.904-5.06.325-3.598-1.736 1.609-4.164 2.57-6.811 2.478-5.048-.176-8.986-4.122-8.798-8.815.175-4.354 4.634-7.8 8.623-8.009L19.915 9c-.065.003-.13.003-.199.003z"/>
        <path fill="#FFCB05" fill-rule="nonzero" d="M20.597 9.309c5.065.298 9.234 4.481-5.506 8.665 3.755.716 6.529 2.425 6.529 2.425C34.24 14.175 27.06 8.98 19.92 9l-.103.309c.264-.017.523-.017.78 0z"/>
        <path fill="url(#b)" fill-rule="nonzero" d="M14.42 11.508c1.591-1.287 3.567-2.101 5.442-2.201.264-.013.525-.013.782.003 2.49.147 4.763 1.231 4.695 2.799l1.245-1.425C24.92 9.614 22.44 8.994 19.965 9h-.199c-2.332.04-4.513.65-6.344 1.704l.998.804z"/>
        <path fill="url(#c)" fill-rule="nonzero" d="M26.028 25.535c-.003-.057-.209-1.439-.209-1.439-.51-3.283.202-6.465 5.399-6.726-7.538-3.503-12.549-.15-16.22.636 3.342.4 10.386 4.053 11.03 7.529z"/>
        <path fill="url(#d)" fill-rule="nonzero" d="M28.512 18.326c-3.212 1.282-2.883 4.832-2.574 6.914.061.17.384 1.465-.36 2.816-.923 1.521-2.417 2.67-5.297 3.414 7.381.332 15.828-6.535 8.231-13.144z"/>
    </g>
</svg>
