<svg xmlns="http://www.w3.org/2000/svg" width="41" height="39" viewBox="0 0 41 39">
    <defs>
        <linearGradient id="a" x1="28.596%" x2="87.154%" y1="44.404%" y2="57.371%">
            <stop offset="0%" stop-color="#ED1C24"/>
            <stop offset="100%" stop-color="#ED1C24" stop-opacity=".049"/>
        </linearGradient>
        <linearGradient id="b" x1="10.322%" x2="88.651%" y1="49.953%" y2="49.953%">
            <stop offset="0%" stop-color="#ED1C24"/>
            <stop offset="100%" stop-color="#FFCB05"/>
        </linearGradient>
        <linearGradient id="c" x1="50.002%" x2="50.002%" y1="-.786%" y2="35.658%">
            <stop offset="0%" stop-color="#E39717"/>
            <stop offset="12.36%" stop-color="#E8A116"/>
            <stop offset="43.44%" stop-color="#F4B710"/>
            <stop offset="73.21%" stop-color="#FCC509"/>
            <stop offset="100%" stop-color="#FFCB05"/>
        </linearGradient>
        <linearGradient id="d" x1="27.043%" x2="46.808%" y1="24.367%" y2="60.204%">
            <stop offset="0%" stop-color="#E39717"/>
            <stop offset="10.13%" stop-color="#E8A116"/>
            <stop offset="35.61%" stop-color="#F4B710"/>
            <stop offset="60%" stop-color="#FCC509"/>
            <stop offset="81.96%" stop-color="#FFCB05"/>
            <stop offset="100%" stop-color="#FFCB05"/>
        </linearGradient>
    </defs>
    <g fill="none" fill-rule="nonzero">
        <path fill="url(#a)" d="M20.18.006C9.356.186.409 7.393.013 17.296c-.389 9.909 7.716 18.248 18.103 18.62 5.285.19 10.145-1.717 13.702-4.947 3.42-3.111 3.279-8.586.56-6.105-2.99 2.73-7.173 4.361-11.732 4.203-8.694-.298-15.477-6.994-15.153-14.955.3-7.388 7.98-13.234 14.852-13.589L20.522 0c-.112.006-.224.006-.342.006z" transform="translate(.15 .11)"/>
        <path fill="#FFCB05" d="M21.847.633c8.724.507 15.905 7.604-9.484 14.702 6.468 1.216 11.245 4.115 11.245 4.115C45.346 8.89 32.981.076 20.681.11l-.177.523c.454-.028.901-.028 1.343 0z"/>
        <path fill="url(#b)" d="M11.058 4.256C13.798 2.07 17.2.69 20.432.52c.454-.023.903-.023 1.346.005 4.288.25 8.204 2.089 8.086 4.749l2.144-2.417C29.144 1.041 24.873-.012 20.608 0h-.342C16.25.068 12.493 1.104 9.34 2.892l1.719 1.364z" transform="translate(.15 .11)"/>
        <path fill="url(#c)" d="M31.052 28.055c-.006-.096-.36-2.44-.36-2.44-.88-5.573.348-10.97 9.298-11.414-12.982-5.943-21.614-.253-27.937 1.08 5.756.68 17.889 6.876 18.999 12.774z" transform="translate(.15 .11)"/>
        <path fill="url(#d)" d="M35.33 15.824c-5.533 2.175-4.966 8.198-4.434 11.73.106.288.661 2.486-.62 4.78-1.589 2.58-4.163 4.53-9.123 5.791 12.713.564 27.263-11.088 14.177-22.301z" transform="translate(.15 .11)"/>
    </g>
</svg>
