<svg xmlns="http://www.w3.org/2000/svg" width="42" height="42" viewBox="0 0 42 42">
    <defs>
        <linearGradient id="a" x1="22.725%" x2="92.816%" y1="2.861%" y2="122.003%">
            <stop offset="0%" stop-color="#C71248"/>
            <stop offset="100%" stop-color="#391150"/>
        </linearGradient>
    </defs>
    <g fill="none" fill-rule="evenodd" transform="translate(1 1)">
        <circle cx="20" cy="20" r="20" fill="url(#a)" stroke="#F5F8FA" stroke-width=".833"/>
        <path fill="#FFF" d="M25.602 13.781c0-.503.757-1.087 1.197-.923.672.25.021 1.366-.797 1.366-.303 0-.4-.108-.4-.443m-10.981 4.837c-.316-.225-.318-.262-.022-.7.443-.656.953-.892 1.23-.57.29.34.092.892-.443 1.232-.362.23-.485.236-.765.038m10.26 1.794c-.114-.132-.168-.512-.122-.844.046-.333.138-1.24.205-2.017.1-1.166.2-1.487.572-1.848.375-.364.497-.4.733-.21.191.154.25.406.182.776-.055.302-.115 1.192-.132 1.979-.038 1.725-.07 1.821-.72 2.148-.429.214-.547.217-.719.016m-8.598 3.809c-.21-.33.11-4.151.383-4.563.214-.325 1.724-.963 2.277-.963.101 0 .24.17.307.376.093.285-.043.542-.56 1.056-.65.645-.69.755-.805 2.193-.068.843-.232 1.643-.372 1.805-.284.333-1.042.391-1.23.096m-2.725 1.492c-.175-.274.187-4.26.425-4.693.469-.85 1.201-.987 1.346-.253.131.665-.363 4.534-.617 4.831-.226.265-1.01.343-1.154.115m-3.513 4.634c-.13-.206-.76-3.682-1.215-6.708-.477-3.18-.579-3.353-1.09-1.861-.22.642-.551 1.3-.735 1.46-.351.309-.85.235-1.001-.147C5.93 22.91 7.21 19 7.823 17.532c.27-.648.794-.805 1.241-.371.144.14.36.884.48 1.654.12.77.352 2.004.514 2.741.315 1.43.358 1.7.426 2.683l.043.626.145-.716c.08-.393.284-1.48.454-2.414.406-2.237 1.463-6.242 2.057-7.794.26-.68.76-2 1.109-2.932.798-2.131 1.159-2.731 1.767-2.939.361-.123.602-.088.958.138.708.45.628 1.148-.252 2.181-.798.936-1.947 3.473-2.589 5.713a34.835 34.835 0 0 1-.754 2.325 15.13 15.13 0 0 0-.809 3.227c-.045.345-.121.689-.17.763-.047.075-.132.616-.188 1.203-.056.586-.146 1.267-.2 1.513-.055.246-.227 1.373-.382 2.504-.343 2.503-.478 2.86-1.079 2.86-.25 0-.497-.067-.55-.15m12.239 2.294c-.129-.233-.18-1.647-.145-4.024.03-2.015.027-3.663-.006-3.663-.116 0-2.352 1.702-3.903 2.97a47.743 47.743 0 0 0-3.098 2.833c-1.628 1.65-2.04 1.818-2.566 1.045-.254-.373-.213-.454.716-1.411 1.225-1.264 3.737-3.327 6.515-5.352 2.132-1.553 2.992-2.425 2.09-2.119-.237.08-.76.149-1.161.152-1.03.006-1.258-.46-1.12-2.275.13-1.68.316-2.196 1.068-2.952 1.012-1.017 1.95-.576 1.09.513-.458.579-.592.978-.684 2.033-.096 1.102.086 1.46.604 1.19.429-.222.562-.758.714-2.868.116-1.611.378-2.164 1.028-2.164.19 0 .389.11.442.244.053.135.03 1.423-.052 2.862-.082 1.439-.101 2.617-.043 2.617.058 0 .68-.35 1.383-.779a99.196 99.196 0 0 1 3.348-1.906c1.65-.898 2.03-1.177 1.867-1.368-.138-.161-.163-.76-.078-1.849.14-1.78-.009-1.999-.803-1.179-.339.35-.437.706-.52 1.887-.075 1.055-.2 1.577-.458 1.894-.369.455-.954.579-1.166.246-.067-.105-.062-1.084.011-2.175.117-1.744.185-2.034.564-2.401a1.485 1.485 0 0 1 1.04-.418c.396 0 .684-.117.825-.336.119-.185.474-.423.789-.53.487-.164.626-.14.934.158.31.301.361.6.361 2.128 0 .978.08 1.826.178 1.884.097.059.574-.086 1.06-.323.485-.236 1.04-.405 1.232-.376.342.053.655.373.661.676.006.358-1.141 1.126-2.141 1.433-.595.183-1.87.74-2.833 1.238l-2.212 1.14c-.253.128-1.29.739-2.304 1.357l-1.843 1.123-.026 3.217c-.015 1.769.062 3.714.17 4.322.156.87.147 1.166-.042 1.386-.348.407-1.245.359-1.486-.08"/>
    </g>
</svg>
