<svg xmlns="http://www.w3.org/2000/svg" width="24" height="23" viewBox="0 0 24 23">
    <g fill="#C4D4E3" fill-rule="nonzero" opacity=".5">
        <path d="M11.981.003C5.555.111.243 4.417.008 10.334c-.231 5.92 4.58 10.903 10.747 11.125 3.138.114 6.024-1.026 8.136-2.955 2.03-1.86 1.947-5.13.332-3.648-1.775 1.63-4.258 2.606-6.965 2.511-5.162-.178-9.19-4.178-8.997-8.935C3.44 4.017 8 .524 12.08.312L12.184 0c-.066.003-.133.003-.203.003z"/>
        <path d="M12.798.318c5.196.308 9.473 4.622-5.65 8.937 3.853.739 6.699 2.5 6.699 2.5C26.794 5.338 19.429-.02 12.103 0l-.105.318c.27-.017.537-.017.8 0z"/>
        <path d="M6.624 2.887C8.229 1.405 10.22.468 12.114.353c.266-.015.529-.015.788.004 2.512.169 4.805 1.417 4.736 3.22l1.256-1.638C17.216.706 14.714-.008 12.217 0h-.2a12.052 12.052 0 0 0-6.4 1.962l1.007.925zM18.261 16.867c-.003-.057-.21-1.435-.21-1.435-.515-3.278.203-6.452 5.438-6.713-7.593-3.496-12.642-.15-16.34.635 3.367.4 10.463 4.044 11.112 7.513z"/>
        <path d="M21.011 9.711c-3.218 1.295-2.888 4.88-2.579 6.984.062.171.385 1.48-.36 2.845-.924 1.536-2.421 2.697-5.306 3.448 7.394.336 15.855-6.601 8.245-13.277z"/>
    </g>
</svg>
