<?xml version="1.0" encoding="UTF-8"?>
<svg width="197px" height="39px" viewBox="0 0 197 39" version="1.1" xmlns="http://www.w3.org/2000/svg" xmlns:xlink="http://www.w3.org/1999/xlink">
    <!-- Generator: sketchtool 51.2 (57519) - http://www.bohemiancoding.com/sketch -->
    <title>87CCCBCD-A1FC-45BF-A832-B527F6E6C40B</title>
    <desc>Created with sketchtool.</desc>
    <defs>
        <linearGradient x1="28.5955376%" y1="44.4035565%" x2="87.1535448%" y2="57.3710305%" id="linearGradient-1">
            <stop stop-color="#ED1C24" offset="0%"></stop>
            <stop stop-color="#8B0304" offset="100%"></stop>
        </linearGradient>
        <linearGradient x1="10.3215998%" y1="49.9533251%" x2="88.6510422%" y2="49.9533251%" id="linearGradient-2">
            <stop stop-color="#ED1C24" offset="0%"></stop>
            <stop stop-color="#FFCB05" offset="100%"></stop>
        </linearGradient>
        <linearGradient x1="50.0021978%" y1="-0.786073229%" x2="50.0021978%" y2="35.6584867%" id="linearGradient-3">
            <stop stop-color="#E39717" offset="0%"></stop>
            <stop stop-color="#E8A116" offset="12.36%"></stop>
            <stop stop-color="#F4B710" offset="43.44%"></stop>
            <stop stop-color="#FCC509" offset="73.21%"></stop>
            <stop stop-color="#FFCB05" offset="100%"></stop>
        </linearGradient>
        <linearGradient x1="27.0427298%" y1="24.3674127%" x2="46.8081566%" y2="60.2040022%" id="linearGradient-4">
            <stop stop-color="#E39717" offset="0%"></stop>
            <stop stop-color="#E8A116" offset="10.13%"></stop>
            <stop stop-color="#F4B710" offset="35.61%"></stop>
            <stop stop-color="#FCC509" offset="60%"></stop>
            <stop stop-color="#FFCB05" offset="81.96%"></stop>
            <stop stop-color="#FFCB05" offset="100%"></stop>
        </linearGradient>
    </defs>
    <g id="Symbols" stroke="none" stroke-width="1" fill="none" fill-rule="evenodd">
        <g id="logo/horizontal-neg" fill-rule="nonzero">
            <g id="logo-full">
                <g id="logo" transform="translate(157.260035, 0.109514)">
                    <path d="M19.5048813,0.00562162526 C9.04346315,0.185513633 0.394977454,7.38681559 0.01300742,17.280876 C-0.363261569,27.1805581 7.46997465,35.5118067 17.5095154,35.882834 C22.617652,36.0739693 27.3153133,34.1682383 30.7530436,30.9414254 C34.0596499,27.8326666 33.9228248,22.3628253 31.2946429,24.841962 C28.4042129,27.5684503 24.3621718,29.1987216 19.9552638,29.0413161 C11.5519231,28.7433699 4.995721,22.0536359 5.30927849,14.0990361 C5.6000318,6.71784218 13.0227928,0.87697354 19.6645105,0.522811149 L19.8355419,0 C19.727222,0.00562162526 19.6189022,0.00562162526 19.5048813,0.00562162526 Z" id="icon" fill="url(#linearGradient-1)"></path>
                    <path d="M20.9710184,0.523089838 C29.4034743,1.02921229 36.3441655,8.12055019 11.8040678,15.2118881 C18.0558142,16.426582 22.6734521,19.3227271 22.6734521,19.3227271 C43.6834199,8.7728858 31.7322214,-0.0336448591 19.8436543,9.66376372e-05 L19.6728416,0.523089838 C20.111261,0.494971924 20.5439866,0.494971924 20.9710184,0.523089838 Z" id="icon" fill="#FFCB05"></path>
                    <path d="M10.6879345,4.25207288 C13.3368714,2.06953925 16.6252069,0.689906599 19.7479838,0.520279633 C20.1875703,0.497662705 20.6214479,0.497662705 21.0496166,0.525933866 C25.1942894,0.774720082 28.9793005,2.61234554 28.8651222,5.26983467 L30.9374586,2.85547753 C28.1686345,1.04046899 24.0410884,-0.0112181921 19.9192513,9.02722601e-05 L19.5881341,9.02722601e-05 C15.7060715,0.0679410585 12.075201,1.10266555 9.02664005,2.88940292 L10.6879345,4.25207288 Z" id="icon" fill="url(#linearGradient-2)"></path>
                    <path d="M30.0130189,28.0294105 C30.0073125,27.933913 29.6649274,25.5914157 29.6649274,25.5914157 C28.8146712,20.0244738 30.0016061,14.6316743 38.6525356,14.1878919 C26.1041227,8.25019496 17.7613398,13.9351044 11.6497662,15.2664518 C17.2135236,15.9461692 28.9402124,22.1366536 30.0130189,28.0294105 Z" id="icon" fill="url(#linearGradient-3)"></path>
                    <path d="M34.1482911,15.809504 C28.8005082,17.9825042 29.3484134,24.0004763 29.8620745,27.5301943 C29.9648067,27.8173005 30.5012972,30.0128189 29.2628032,32.3040393 C27.7275272,34.882366 25.2391244,36.8301849 20.444954,38.0912005 C32.7328694,38.6541539 46.7957694,27.0122771 34.1482911,15.809504 Z" id="icon" fill="url(#linearGradient-4)"></path>
                </g>
                <g id="banco-de-bogota" transform="translate(0.000000, 10.875436)" fill="#FFFFFF">
                    <path d="M44.6406834,12.9509005 C43.5350318,13.2264516 42.7057931,13.3642272 41.8765544,13.3642272 C39.8034576,13.3642272 39.3888383,11.5731452 39.3888383,10.0576142 C39.3888383,7.71543011 40.218077,6.47545027 41.8765544,6.47545027 C42.7057931,6.47545027 43.2586189,6.61322581 43.2586189,6.61322581 L44.7788898,7.16432796 L44.7788898,5.23547043 L44.6406834,5.09769489 C44.0878576,4.82214382 42.8439995,4.4088172 41.3237286,4.4088172 C38.2831867,4.4088172 36.3482964,6.61322581 36.3482964,9.91983871 C36.3482964,13.0886761 38.2831867,15.1553091 41.0473157,15.1553091 C42.2911737,15.1553091 43.3968253,14.8797581 45.0553027,14.1908804 L45.3317156,14.0531048 L44.9170963,12.5375739 L44.6406834,12.9509005 Z" id="Shape"></path>
                    <path d="M9.6744515,7.57765457 C11.056516,7.02655242 11.6093418,6.06212366 11.6093418,4.4088172 C11.6093418,2.89328629 10.9183096,1.65330645 9.6744515,1.23997984 C8.8452128,0.826653226 8.0159741,0.826653226 5.39005155,0.826653226 L0,0.826653226 L0,2.34218414 C0,2.34218414 1.24385805,2.47995968 1.6584774,2.61773522 L1.6584774,15.2930847 L5.94287735,15.2930847 C8.0159741,15.2930847 8.98341925,15.1553091 9.81265795,14.7419825 C11.1947225,14.0531048 12.0239612,12.813125 12.0239612,11.1598185 C12.1621676,9.23096102 11.3329289,7.99098118 9.6744515,7.57765457 Z M4.6990193,2.61773522 L5.2518451,2.61773522 L5.528258,2.61773522 C6.6339096,2.61773522 7.4631483,2.61773522 8.0159741,3.03106183 C8.43059345,3.3066129 8.5687999,3.85771505 8.5687999,4.4088172 C8.5687999,5.78657258 8.15418055,6.47545027 6.49570315,6.61322581 L5.2518451,6.75100134 L4.6990193,7.71543011 L4.6990193,2.61773522 Z M8.15418055,12.813125 C7.4631483,13.3642272 6.49570315,13.3642272 5.2518451,13.3642272 L4.6990193,13.3642272 L4.6990193,8.67985887 L4.83722575,8.67985887 L5.8046709,8.67985887 C6.9103225,8.67985887 7.7395612,8.67985887 8.292387,9.09318548 C8.70700635,9.5065121 8.98341925,10.0576142 8.98341925,10.8842675 C8.98341925,11.7109207 8.70700635,12.3997984 8.15418055,12.813125 Z" id="Shape"></path>
                    <path d="M94.3950054,7.57765457 C95.7770699,7.02655242 96.3298957,6.06212366 96.3298957,4.4088172 C96.3298957,2.89328629 95.6388634,1.65330645 94.3950054,1.23997984 C93.5657667,0.826653226 92.736528,0.826653226 90.1106054,0.826653226 L84.7205539,0.826653226 L84.7205539,2.34218414 C84.7205539,2.34218414 85.9644119,2.47995968 86.3790313,2.61773522 L86.3790313,15.2930847 L90.6634312,15.2930847 C92.736528,15.2930847 93.7039731,15.1553091 94.5332118,14.7419825 C95.9152763,14.0531048 96.744515,12.813125 96.744515,11.1598185 C96.8827215,9.23096102 96.0534828,7.99098118 94.3950054,7.57765457 Z M89.4195732,2.61773522 L89.972399,2.61773522 L90.2488119,2.61773522 C91.3544635,2.61773522 92.1837022,2.61773522 92.736528,3.03106183 C93.1511473,3.3066129 93.2893538,3.85771505 93.2893538,4.4088172 C93.2893538,5.78657258 92.8747344,6.47545027 91.216257,6.61322581 L89.972399,6.75100134 L89.4195732,7.71543011 L89.4195732,2.61773522 Z M92.8747344,12.813125 C92.1837022,13.3642272 91.216257,13.3642272 89.972399,13.3642272 L89.4195732,13.3642272 L89.4195732,8.67985887 L89.5577796,8.67985887 L90.5252248,8.67985887 C91.6308764,8.67985887 92.4601151,8.67985887 93.0129409,9.09318548 C93.4275602,9.5065121 93.7039731,10.0576142 93.7039731,10.8842675 C93.8421796,11.7109207 93.4275602,12.3997984 92.8747344,12.813125 Z" id="Shape"></path>
                    <path d="M32.0638964,4.54659274 C31.2346577,4.54659274 30.1290061,4.82214382 28.7469416,5.37324597 L28.7469416,4.54659274 L24.4625417,5.09769489 L24.4625417,6.61322581 L26.1210191,6.61322581 L26.1210191,15.1553091 L29.0233545,15.1553091 L29.0233545,7.16432796 C29.4379739,7.02655242 30.2672126,6.75100134 31.2346577,6.75100134 C31.6492771,6.75100134 32.0638964,6.88877688 32.2021029,7.02655242 C32.4785158,7.30210349 32.4785158,7.85320565 32.4785158,8.54208333 L32.4785158,15.1553091 L35.3808512,15.1553091 L35.3808512,8.4043078 C35.3808512,6.88877688 35.2426448,6.33767473 34.8280254,5.64879704 C34.1369932,4.95991935 33.3077545,4.54659274 32.0638964,4.54659274 Z" id="Shape"></path>
                    <path d="M50.9981801,4.54659274 C47.8194317,4.54659274 45.746335,6.61322581 45.746335,9.91983871 C45.746335,13.2264516 47.6812253,15.2930847 50.9981801,15.2930847 C54.1769284,15.2930847 56.1118187,13.2264516 56.1118187,9.91983871 C56.1118187,6.61322581 54.1769284,4.54659274 50.9981801,4.54659274 Z M50.9981801,13.5020027 C50.0307349,13.5020027 48.7868769,13.0886761 48.7868769,9.91983871 C48.7868769,6.75100134 49.8925285,6.33767473 50.9981801,6.33767473 C51.9656252,6.33767473 53.2094833,6.75100134 53.2094833,9.78206317 C53.0712768,13.0886761 51.9656252,13.5020027 50.9981801,13.5020027 Z" id="Shape"></path>
                    <path d="M126.044282,4.54659274 C122.865534,4.54659274 120.792437,6.61322581 120.792437,9.91983871 C120.792437,13.2264516 122.727328,15.2930847 126.044282,15.2930847 C129.223031,15.2930847 131.296128,13.2264516 131.296128,9.91983871 C131.296128,6.61322581 129.361237,4.54659274 126.044282,4.54659274 Z M126.044282,13.5020027 C125.076837,13.5020027 123.832979,13.0886761 123.832979,9.91983871 C123.832979,6.75100134 124.938631,6.33767473 126.044282,6.33767473 C127.011728,6.33767473 128.255586,6.75100134 128.255586,9.78206317 C128.255586,13.0886761 127.149934,13.5020027 126.044282,13.5020027 Z" id="Shape"></path>
                    <path d="M138.20645,13.2264516 L136.133353,13.5020027 C135.718734,13.5020027 135.580527,13.3642272 135.442321,13.2264516 C135.442321,13.0886761 135.304115,13.0886761 135.304115,12.2620228 L135.304115,6.61322581 L138.20645,6.61322581 L138.20645,4.82214382 L135.304115,4.82214382 L135.304115,2.06663306 L134.889495,2.06663306 L132.401779,2.34218414 L132.401779,12.1242473 C132.401779,13.2264516 132.539986,13.9153293 132.954605,14.4664315 C133.369224,15.0175336 134.060257,15.2930847 135.027702,15.2930847 C135.995147,15.2930847 136.962592,15.0175336 138.068244,14.604207 L138.344656,14.4664315 L138.20645,13.2264516 Z" id="Shape"></path>
                    <path d="M103.516631,4.54659274 C100.337883,4.54659274 98.264786,6.61322581 98.264786,9.91983871 C98.264786,13.2264516 100.199676,15.2930847 103.516631,15.2930847 C106.695379,15.2930847 108.63027,13.2264516 108.63027,9.91983871 C108.63027,6.61322581 106.695379,4.54659274 103.516631,4.54659274 Z M103.516631,13.5020027 C102.549186,13.5020027 101.305328,13.0886761 101.305328,9.91983871 C101.305328,6.75100134 102.410979,6.33767473 103.516631,6.33767473 C104.484076,6.33767473 105.727934,6.75100134 105.727934,9.78206317 C105.727934,13.0886761 104.622283,13.5020027 103.516631,13.5020027 Z" id="Shape"></path>
                    <path d="M116.78445,5.37324597 C116.093418,4.95991935 115.264179,4.82214382 114.573147,4.82214382 C111.670812,4.82214382 109.597715,7.16432796 109.597715,10.3331653 C109.597715,13.3642272 111.256192,15.2930847 113.743908,15.2930847 C114.434941,15.2930847 115.125973,15.1553091 116.646244,14.4664315 L116.646244,15.2930847 C116.646244,17.0841667 115.955212,17.6352688 113.743908,17.6352688 C112.776463,17.6352688 111.394399,17.4974933 110.288747,17.2219422 L110.288747,19.0130242 C112.50005,19.4263508 113.329289,19.5641263 114.434941,19.5641263 C115.817005,19.5641263 117.060863,19.2885753 117.890102,18.8752487 C119.13396,18.186371 119.548579,17.2219422 119.548579,15.4308602 L119.548579,4.95991935 L116.646244,4.95991935 L116.646244,5.37324597 L116.78445,5.37324597 Z M116.78445,13.0886761 C116.231624,13.2264516 115.955212,13.2264516 115.402386,13.2264516 C113.605702,13.2264516 112.776463,12.1242473 112.776463,10.0576142 C112.776463,7.85320565 113.882115,6.75100134 115.678799,6.75100134 C115.955212,6.75100134 116.231624,6.75100134 116.78445,6.88877688 L116.78445,13.0886761 Z" id="Shape"></path>
                    <path d="M22.9422707,5.09769489 L20.1781417,5.09769489 L20.1781417,5.51102151 C19.4871095,5.09769489 18.7960772,4.95991935 17.9668385,4.95991935 C15.2027095,4.95991935 13.1296128,7.16432796 13.1296128,10.4709409 C13.1296128,13.5020027 14.6498837,15.4308602 17.2758063,15.4308602 C17.9668385,15.4308602 18.7960772,15.1553091 20.0399353,14.3286559 L20.0399353,15.2930847 L20.0399353,15.2930847 L24.0479223,14.8797581 L24.0479223,13.2264516 L22.9422707,13.2264516 L22.9422707,5.09769489 L22.9422707,5.09769489 Z M20.1781417,13.2264516 C19.6253159,13.3642272 19.348903,13.3642272 18.7960772,13.3642272 C16.9993934,13.3642272 16.0319482,12.2620228 16.0319482,10.1953898 C16.0319482,7.99098118 17.1375998,6.75100134 19.0724901,6.75100134 C19.4871095,6.75100134 19.6253159,6.75100134 20.1781417,6.88877688 L20.1781417,13.2264516 Z" id="Shape"></path>
                    <path d="M148.848347,5.09769489 L146.084218,5.09769489 L146.084218,5.51102151 C145.393185,5.09769489 144.702153,4.95991935 143.872914,4.95991935 C141.108785,4.95991935 139.035689,7.16432796 139.035689,10.4709409 C139.035689,13.5020027 140.55596,15.4308602 143.181882,15.4308602 C143.872914,15.4308602 144.702153,15.1553091 145.946011,14.3286559 L145.946011,15.2930847 L149.953998,14.8797581 L149.953998,13.2264516 L148.848347,13.2264516 L148.848347,5.09769489 Z M145.946011,13.2264516 C145.393185,13.3642272 145.116773,13.3642272 144.563947,13.3642272 C142.767263,13.3642272 141.799818,12.2620228 141.799818,10.1953898 C141.799818,7.99098118 142.905469,6.75100134 144.84036,6.75100134 C145.254979,6.75100134 145.393185,6.75100134 145.946011,6.88877688 L145.946011,13.2264516 Z" id="Shape"></path>
                    <polygon id="Shape" points="147.466282 2.47995968 146.77525 0.275551075 146.498837 0.413326613 141.938024 2.2044086 142.352644 3.44438844"></polygon>
                    <path d="M69.9324637,0 L69.7942573,0 L69.5178444,0 L65.7862702,0.413326613 L65.7862702,1.65330645 L67.1683347,1.65330645 L67.1683347,4.95991935 C66.0626831,4.54659274 64.4042057,4.27104167 63.0221412,4.68436828 C61.0872509,5.37324597 59.8433929,7.16432796 59.8433929,9.78206317 C59.8433929,12.1242473 60.9490445,14.0531048 62.8839348,14.7419825 C64.2659993,15.1553091 66.2008896,14.7419825 67.3065412,14.1908804 L67.3065412,15.0175336 L71.1763218,14.4664315 L71.1763218,13.2264516 L69.9324637,13.2264516 C69.7942573,13.2264516 69.9324637,0 69.9324637,0 Z M67.0301283,13.0886761 C65.7862702,13.5020027 64.2659993,13.6397782 63.4367606,12.5375739 C62.8839348,11.8486962 62.7457283,10.8842675 62.7457283,9.91983871 L62.7457283,9.64428763 C62.7457283,8.54208333 63.0221412,7.85320565 63.574967,7.16432796 C64.4042057,6.19989919 65.9244767,6.33767473 67.0301283,6.88877688 C67.1683347,6.88877688 67.0301283,12.813125 67.0301283,13.0886761 Z" id="Shape"></path>
                    <path d="M76.8427862,4.54659274 C76.151754,4.54659274 75.5989282,4.54659274 75.0461024,4.82214382 C72.9730056,5.51102151 71.7291476,7.30210349 71.7291476,10.0576142 C71.7291476,12.5375739 72.9730056,14.4664315 75.0461024,15.1553091 C76.8427862,15.7064113 79.4687088,15.1553091 81.2653926,14.1908804 L81.4035991,14.1908804 L80.9889797,12.6753495 L80.0215346,12.9509005 C78.6394701,13.3642272 76.8427862,14.0531048 75.7371346,12.6753495 C75.1843088,11.9864718 75.0461024,10.8842675 75.0461024,10.0576142 L80.5743604,10.1953898 L81.4035991,10.1953898 L81.4035991,10.0576142 L81.4035991,9.36873656 C81.2653926,4.4088172 76.9809927,4.54659274 76.8427862,4.54659274 Z M74.7696895,8.67985887 C74.7696895,8.54208333 74.9078959,6.47545027 76.7045798,6.47545027 C78.6394701,6.47545027 78.6394701,8.54208333 78.6394701,8.67985887 L74.7696895,8.67985887 Z" id="Shape"></path>
                </g>
            </g>
        </g>
    </g>
</svg>