<svg xmlns="http://www.w3.org/2000/svg" width="42" height="42" viewBox="0 0 42 42">
    <g fill="none" fill-rule="evenodd" transform="translate(1 1)">
        <circle cx="20" cy="20" r="20" fill="#02A9E0" stroke="#F5F8FA" stroke-width="1.25"/>
        <path fill="#FFF" fill-rule="nonzero" d="M30 20.605c-.015 1.059-.086 2.17-.33 3.261-.074.33-.229.619-.45.86-.287.313-.647.457-1.066.351-.417-.105-.628-.42-.716-.822-.122-.548-.02-1.1.035-1.646.084-.83.155-1.659.12-2.494-.018-.437-.072-.883-.392-1.21-.429-.438-1.023-.384-1.541.108-.472.446-.79 1-1.054 1.592-.533 1.2-.894 2.463-1.277 3.715-.209.675-.442 1.34-.912 1.878-1.638 1.87-4.67 1.667-6.026-.443-.757-1.178-1.402-2.424-2.1-3.64a4.057 4.057 0 0 0-.524-.742c-.226-.24-.477-.35-.807-.266-.348.09-.47.361-.528.67-.087.469-.026.933.066 1.396.198 1.015.584 1.976.827 2.976.077.31.125.62.105.94-.026.366-.176.668-.516.812-.389.167-.775.126-1.11-.15-.325-.268-.503-.646-.645-1.028-.731-1.942-1.252-3.93-1.145-6.036.071-1.38.312-2.728.947-3.97.516-1.012 1.252-1.77 2.428-1.947.8-.121 1.51.075 2.13.61.724.626 1.23 1.425 1.748 2.216.39.592.706 1.24 1.165 1.783.442.525.97.92 1.69.894.8-.029 1.29-.516 1.597-1.216.533-1.221.97-2.484 1.528-3.697.43-.935 1.052-1.695 1.999-2.102 1.422-.611 2.722-.119 3.487 1.293.624 1.157.93 2.419 1.107 3.717.102.758.14 1.518.16 2.337z"/>
    </g>
</svg>
