<svg xmlns="http://www.w3.org/2000/svg" width="40" height="40" viewBox="0 0 40 40">
    <g fill="none" fill-rule="evenodd">
        <circle cx="20" cy="20" r="20" fill="#EF3829"/>
        <path fill="#FFF" fill-rule="nonzero" d="M28.563 18.794c-.885 0-1.65.353-2.28 1.059-.646.706-.952 1.56-.952 2.544s.306 1.839.953 2.526c.629.706 1.394 1.058 2.279 1.058.884 0 1.667-.352 2.313-1.058.63-.687.953-1.542.953-2.526 0-.984-.323-1.838-.953-2.544-.646-.706-1.412-1.059-2.313-1.059zm1.225 4.922a1.544 1.544 0 0 1-1.208.557c-.46 0-.868-.186-1.208-.557a1.99 1.99 0 0 1-.51-1.337c0-.539.187-.985.51-1.338.323-.371.732-.557 1.208-.538.476-.019.884.167 1.225.538.323.353.476.799.493 1.338-.017.52-.187.965-.51 1.337zM8.014 18.72c-.68 0-1.275.279-1.735.836-.493.538-.731 1.17-.714 1.931-.017.762.221 1.393.714 1.932.477.52 1.055.798 1.752.798.494 0 .919-.148 1.344-.427a2.95 2.95 0 0 0 .885-1.133h1.633a4.579 4.579 0 0 1-1.412 2.34 3.678 3.678 0 0 1-2.45.91c-1.122 0-2.058-.427-2.84-1.281C4.39 23.753 4 22.676 4 21.469c0-1.226.391-2.266 1.19-3.139.783-.873 1.702-1.3 2.824-1.3.902 0 1.735.297 2.45.929.714.594 1.174 1.392 1.412 2.34h-1.633a2.818 2.818 0 0 0-.885-1.133c-.425-.297-.867-.446-1.344-.446zm11.738.501c.51.298.782.873.799 1.69v5.015h-1.565v-.706c-.476.464-1.157.687-2.007.706-.527-.019-.953-.186-1.276-.483-.357-.372-.544-.854-.527-1.467-.017-.873.272-1.486.85-1.857.34-.223.783-.372 1.344-.446l1.208-.204c.238-.112.357-.298.357-.52-.017-.279-.085-.483-.272-.576a1.328 1.328 0 0 0-.766-.167c-.39-.019-.663.111-.833.334-.102.13-.187.334-.221.631h-1.565c.034-.612.17-1.114.442-1.485.425-.613 1.157-.929 2.211-.91.68-.019 1.276.13 1.82.445zm-.868 3.919v-.706l-.306.186-.783.223c-.323.037-.578.13-.731.223-.255.185-.374.427-.374.78 0 .315.068.52.22.668.154.13.341.205.562.205.357 0 .664-.13.97-.353.289-.223.442-.632.442-1.226zm-6.209-6.11h1.565v8.896h-1.565V17.03zm12.095 1.82l.425-.037.017 1.746-.476-.038c-.29 0-.579.093-.85.298-.24.167-.443.39-.545.65-.136.26-.204.65-.204 1.207v3.268h-1.548V19.11l1.48.019V20c.306-.464.68-.78 1.105-.965l.596-.186zm10.104-4.996l.986 1.077-3.759 4.123-.987-1.077 3.76-4.123zM28.053 13h1.394v4.42h-1.394V13zm4.728 7.763h4.134v1.523H32.78v-1.523z"/>
    </g>
</svg>
