<svg xmlns="http://www.w3.org/2000/svg" width="40" height="40" viewBox="0 0 40 40">
    <g fill="none" fill-rule="evenodd">
        <circle cx="20" cy="20" r="20" fill="#012E6E"/>
        <path fill="#FFF" fill-rule="nonzero" d="M27.583 13.442c1.043-.516 2.296-.534 3.374-.116.623.247 1.216.63 1.602 1.188.317.48.254 1.075.245 1.62-.323-.343-.646-.694-1.045-.953-.793-.547-1.79-.755-2.742-.647-1.161.087-2.298.648-2.995 1.594.01-.463-.076-.954.123-1.391.264-.616.858-1.009 1.438-1.295zm-13.018.932c.554-.139 1.177.214 1.323.77.213.66-.35 1.412-1.042 1.405-.6.035-1.13-.513-1.121-1.105-.01-.497.359-.958.84-1.07zm-5.452 1.088c.245-.126.53-.09.795-.092-.003.572-.004 1.144 0 1.716.873-.002 1.745-.001 2.618 0-.013.316.023.636-.025.95-.103.446-.569.71-1.003.717-.53.007-1.06.004-1.59 0-.004 1.021-.002 2.043-.002 3.064 0 .398.106.846.456 1.082.353.235.8.194 1.203.169.336-.02.658-.124.96-.266-.024.447.084.937-.168 1.34-.242.396-.723.551-1.162.597-.604.048-1.23-.014-1.787-.26a2.182 2.182 0 0 1-1.17-1.264c-.164-.446-.215-.926-.208-1.4V17.36c.006-.378.05-.777.268-1.098.214-.316.47-.624.815-.8zm20.035 1.463c.773-.046 1.572.128 2.22.561.906.602 1.455 1.644 1.577 2.71.099.975-.034 1.997-.516 2.861-.431.79-1.183 1.404-2.058 1.632-1.064.285-2.281.185-3.194-.47-.85-.59-1.355-1.581-1.49-2.591-.115-.97.02-1.986.476-2.856a3.338 3.338 0 0 1 1.373-1.411c.493-.27 1.054-.402 1.612-.436zm-8.494.312c.787-.247 1.637-.345 2.453-.195.574.112 1.165.413 1.432.96.208.387.124.84.14 1.26l-.23.003c-.638-.474-1.455-.634-2.236-.642-.734-.013-1.497.278-1.96.863-.368.435-.516 1.024-.486 1.586.02.624.178 1.293.641 1.741.496.506 1.25.643 1.93.614.258-.016.615-.087.65-.397.033-.68.023-1.37-.132-2.036.362.01.726-.012 1.088.011.464.044.907.443.876.933-.03.677.103 1.398-.191 2.035-.264.575-.881.881-1.474 1-1.138.221-2.374.12-3.395-.462-.872-.476-1.545-1.307-1.793-2.272-.278-1.07-.16-2.26.404-3.217.495-.86 1.345-1.485 2.283-1.785zm-6.761.015c.44.015.916-.053 1.311.186.387.215.563.673.564 1.098.007 1.01 0 2.02.004 3.031.003.328-.022.66.036.984.033.204.145.409.338.502.347.185.755.141 1.134.145-.005.395.042.828-.18 1.178-.176.275-.525.352-.83.364-.621.023-1.294-.113-1.75-.563-.48-.464-.628-1.16-.627-1.805v-5.12zm5.957 8.897c.56.714 1.192 1.39 1.972 1.869.94.595 2.065.875 3.175.836 1.468-.021 2.94-.54 4.044-1.519.408-.332.714-.76 1.032-1.173.007.606.068 1.234-.147 1.814-.264.858-.959 1.492-1.687 1.972-1.008.661-2.215 1.045-3.425.993-1.558-.057-3.11-.717-4.164-1.876-.296-.322-.548-.691-.668-1.116-.204-.578-.151-1.2-.132-1.8zm8.95-7.497a1.422 1.422 0 0 0-.882.697c-.3.52-.337 1.14-.309 1.726.028.553.15 1.137.518 1.57.399.462 1.07.584 1.648.474.45-.092.82-.431 1.007-.843.246-.527.271-1.128.228-1.7-.05-.56-.193-1.16-.618-1.56-.414-.401-1.047-.48-1.592-.364z"/>
    </g>
</svg>
