<svg xmlns="http://www.w3.org/2000/svg" width="17" height="16" viewBox="0 0 17 16">
    <path fill="#8A8D94" fill-rule="evenodd" d="M14.871 8.49l-1.842 1.827a.52.52 0 0 0-.14.359.52.52 0 0 0 .14.359c.052.041.11.075.172.101a.484.484 0 0 0 .375 0 .711.711 0 0 0 .171-.101l2.95-3.028-2.95-3.028a.493.493 0 0 0-.718 0 .476.476 0 0 0-.14.351c0 .14.047.258.14.351l1.81 1.81H6.225a.486.486 0 0 0-.359.141.486.486 0 0 0-.14.36.493.493 0 0 0 .5.499h8.646zM1.714 0a.973.973 0 0 0-.703.289.952.952 0 0 0-.296.71v13.985c0 .28.099.517.296.71a.973.973 0 0 0 .703.288h8.49c.281 0 .518-.096.71-.288a.965.965 0 0 0 .29-.71v-4.511h-1v3.902c0 .166-.06.31-.18.43a.586.586 0 0 1-.428.179H2.322a.56.56 0 0 1-.421-.18.6.6 0 0 1-.172-.43l.016-12.766a.6.6 0 0 1 .172-.43.56.56 0 0 1 .421-.18h7.258c.166 0 .31.06.429.18.12.12.18.263.18.43v3.886h.998V.999a.965.965 0 0 0-.288-.71.965.965 0 0 0-.71-.289H1.713z"/>
</svg>
