<svg xmlns="http://www.w3.org/2000/svg" width="173" height="163" viewBox="0 0 173 163">
    <g fill="none" fill-rule="nonzero" opacity=".2">
        <path fill="#E1E2E6" d="M86.227.024C39.979.791 1.747 31.484.057 73.657c-1.663 42.195 32.966 77.706 77.349 79.287 22.582.815 43.35-7.308 58.547-21.062 14.618-13.25 14.013-36.565 2.394-25.998-12.778 11.621-30.647 18.57-50.129 17.9-37.15-1.27-66.133-29.784-64.747-63.69 1.286-31.46 34.1-56.356 63.462-57.866L87.689 0c-.48.024-.958.024-1.462.024z"/>
        <path fill="#E1E2E6" d="M92.562 2.247C129.874 4.42 160.586 34.88 52 65.342 79.663 70.56 100.095 83 100.095 83 193.061 37.684 140.18-.145 87.574 0l-.756 2.247c1.94-.12 3.855-.12 5.744 0z"/>
        <path fill="#C4D4E3" d="M47.279 19.365C58.885 9.425 73.292 3.142 86.974 2.369a46.776 46.776 0 0 1 5.703.026c18.16 1.133 34.744 9.502 34.243 21.605L136 13.004C123.869 4.74 105.784-.05 87.725 0h-1.45C69.264.31 53.356 5.022 40 13.16l7.279 6.206z"/>
        <path fill="#E1E2E6" d="M132.926 120c-.025-.405-1.534-10.345-1.534-10.345-3.747-23.622 1.484-46.505 39.608-48.388-55.3-25.195-92.067-1.072-119 4.577 24.52 2.884 76.198 29.152 80.926 54.156z"/>
        <path fill="#E1E2E6" d="M151.184 68c-23.487 9.257-21.08 34.892-18.824 49.928.45 1.223 2.807 10.576-2.632 20.336-6.743 10.983-17.672 19.28-38.728 24.652 53.968 2.398 115.732-47.194 60.184-94.916z"/>
    </g>
</svg>
