<svg xmlns="http://www.w3.org/2000/svg" width="34" height="33" viewBox="0 0 34 33">
    <g fill="none" fill-rule="nonzero">
        <path fill="#C1E0FF" d="M13.8 22.9c-5.293 0-9.6-4.307-9.6-9.6 0-5.293 4.307-9.6 9.6-9.6 5.293 0 9.6 4.307 9.6 9.6 0 5.293-4.307 9.6-9.6 9.6z" opacity=".5"/>
        <path fill="#6680AD" stroke="#6680AD" stroke-width=".5" d="M18.977 12.39a.533.533 0 1 1-.754.754l-4.267-4.267a.533.533 0 1 1 .754-.754l4.267 4.267zm1.067-3.2a.533.533 0 1 1-.754.754L17.156 7.81a.533.533 0 1 1 .754-.754l2.134 2.134zM33 29.834a2.65 2.65 0 0 1-.781 1.885 2.66 2.66 0 0 1-1.886.78c-.683 0-1.366-.26-1.885-.78l-6.32-6.32a.534.534 0 0 1 .754-.754l6.32 6.32a1.602 1.602 0 0 0 2.731-1.131c0-.428-.167-.83-.468-1.132l-3.36-3.359-1.127 1.133a.532.532 0 1 1-.756-.752l1.504-1.512c.1-.1.236-.157.377-.157h.001c.142 0 .277.056.377.156l3.738 3.737A2.65 2.65 0 0 1 33 29.834zm-19.2-4.8c-6.47 0-11.733-5.264-11.733-11.734S7.33 1.567 13.8 1.567c6.47 0 11.733 5.263 11.733 11.733 0 6.47-5.263 11.733-11.733 11.733zm10.105-3.891l2.371 2.37a.53.53 0 0 0 .754 0 .534.534 0 0 0 0-.753l-2.497-2.498A12.725 12.725 0 0 0 26.6 13.3C26.6 6.242 20.858.5 13.8.5 6.742.5 1 6.242 1 13.3c0 7.058 5.742 12.8 12.8 12.8 4.104 0 7.761-1.944 10.105-4.957z"/>
    </g>
</svg>
