<?xml version="1.0" encoding="UTF-8"?>
<svg width="17px" height="12px" viewBox="0 0 17 12" version="1.1" xmlns="http://www.w3.org/2000/svg" xmlns:xlink="http://www.w3.org/1999/xlink">
    <!-- Generator: sketchtool 51.1 (57501) - http://www.bohemiancoding.com/sketch -->
    <title>456105E4-2AA5-401D-A3A0-D2CF5AADD441</title>
    <desc>Created with sketchtool.</desc>
    <defs></defs>
    <g id="11_comprobantes" stroke="none" stroke-width="1" fill="none" fill-rule="evenodd">
        <g id="comprobante_correo_focus" transform="translate(-757.000000, -584.000000)" fill="#C6C8CC" fill-rule="nonzero">
            <g id="Group-12" transform="translate(741.000000, 570.000000)">
                <path d="M18.377936,15.3333333 L24.3593917,20.0396548 L30.5935115,15.3333333 L18.377936,15.3333333 Z M31.6923077,16.1628471 L24.7403116,21.4111146 C24.505288,21.5885409 24.1832947,21.585274 23.9517804,21.4031142 L17.3076923,16.1754212 L17.3076923,24.6666667 L31.6923077,24.6666667 L31.6923077,16.1628471 Z M17.3076923,14 L31.6923077,14 C32.4145262,14 33,14.5969537 33,15.3333333 L33,24.6666667 C33,25.4030463 32.4145262,26 31.6923077,26 L17.3076923,26 C16.5854738,26 16,25.4030463 16,24.6666667 L16,15.3333333 C16,14.5969537 16.5854738,14 17.3076923,14 Z" id="Combined-Shape-Copy"></path>
            </g>
        </g>
    </g>
</svg>