<svg xmlns="http://www.w3.org/2000/svg" width="48" height="24" viewBox="0 0 48 24">
    <g fill="none" fill-rule="evenodd">
        <path fill="#FF4D00" d="M35.053 6.03a7.701 7.701 0 0 1 5.052-1.885c4.302 0 7.79 3.532 7.79 7.89 0 4.356-3.488 7.888-7.79 7.888a7.701 7.701 0 0 1-5.052-1.884A7.701 7.701 0 0 1 30 19.923c-4.302 0-7.79-3.532-7.79-7.889S25.699 4.145 30 4.145c1.928 0 3.692.71 5.053 1.885z"/>
        <path fill="#F00" d="M35.053 6.03a7.913 7.913 0 0 0-2.737 6.004 7.913 7.913 0 0 0 2.737 6.005A7.701 7.701 0 0 1 30 19.923c-4.302 0-7.79-3.532-7.79-7.889S25.699 4.145 30 4.145c1.928 0 3.692.71 5.053 1.885z"/>
        <path fill="#FF9B00" d="M35.053 18.039a7.913 7.913 0 0 0 2.736-6.005 7.913 7.913 0 0 0-2.736-6.004 7.701 7.701 0 0 1 5.052-1.885c4.302 0 7.79 3.532 7.79 7.89 0 4.356-3.488 7.888-7.79 7.888a7.701 7.701 0 0 1-5.052-1.884z"/>
    </g>
</svg>
