<svg xmlns="http://www.w3.org/2000/svg" width="48" height="31" viewBox="0 0 48 31">
    <g fill="none" fill-rule="evenodd">
        <g fill-rule="nonzero">
            <g>
                <g>
                    <g>
                        <path fill="#FF5F00" d="M16.753 3.215H30.874000000000002V26.279H16.753z" transform="translate(-1267 -1007) translate(1019 870) translate(248 128) translate(0 9.6)"/>
                        <path fill="#EB001B" d="M18.208 14.749c-.004-4.5 2.062-8.752 5.602-11.53C17.796-1.507 9.16-.82 3.971 4.8c-5.189 5.62-5.189 14.283 0 19.902 5.19 5.619 13.825 6.307 19.839 1.581-3.541-2.78-5.607-7.033-5.602-11.534z" transform="translate(-1267 -1007) translate(1019 870) translate(248 128) translate(0 9.6)"/>
                        <path fill="#F79E1B" d="M46.141 23.839v-.473h.204v-.098h-.485v.098h.191v.473h.09zm.941 0v-.57h-.146l-.172.407-.17-.408h-.147v.57h.106v-.431l.159.37h.11l.158-.37v.432h.102zM47.543 14.749c0 5.616-3.207 10.738-8.258 13.192-5.051 2.454-11.06 1.809-15.475-1.662 3.538-2.78 5.604-7.032 5.604-11.532S27.348 5.995 23.81 3.215C28.225-.256 34.234-.902 39.285 1.552c5.051 2.454 8.258 7.577 8.258 13.193v.004z" transform="translate(-1267 -1007) translate(1019 870) translate(248 128) translate(0 9.6)"/>
                    </g>
                </g>
            </g>
        </g>
    </g>
</svg>