<?xml version="1.0" encoding="UTF-8"?>
<svg width="29px" height="23px" viewBox="0 0 29 23" version="1.1" xmlns="http://www.w3.org/2000/svg" xmlns:xlink="http://www.w3.org/1999/xlink">
    <!-- Generator: sketchtool 48.2 (47327) - http://www.bohemiancoding.com/sketch -->
    <title>D990E371-24BF-40CC-BE9C-D0595FA8C178</title>
    <desc>Created with sketchtool.</desc>
    <defs></defs>
    <g id="01_01_consulta-productos_drop" stroke="none" stroke-width="1" fill="none" fill-rule="evenodd" transform="translate(-554.000000, -233.000000)" opacity="0.600000024">
        <g id="Group-6" transform="translate(536.000000, 208.000000)" fill="#FFFFFF" fill-rule="nonzero">
            <g id="noun_1401831_cc" transform="translate(18.000000, 25.000000)">
                <g id="Group">
                    <path d="M26.147125,0.201388889 L2.852875,0.201388889 C1.29855556,0.201388889 0.0334305556,1.46611111 0.0334305556,3.02083333 L0.0334305556,19.5347222 C0.0334305556,21.0890417 1.29855556,22.3541667 2.852875,22.3541667 L26.147125,22.3541667 C27.7014444,22.3541667 28.9665694,21.0890417 28.9665694,19.5347222 L28.9665694,3.02083333 C28.9665694,1.46611111 27.7014444,0.201388889 26.147125,0.201388889 Z M2.852875,1.00694444 L26.147125,1.00694444 C27.2575833,1.00694444 28.1610139,1.910375 28.1610139,3.02083333 L28.1610139,5.50476389 L0.838986111,5.50476389 L0.838986111,3.02083333 C0.838986111,1.910375 1.74241667,1.00694444 2.852875,1.00694444 Z M26.147125,21.5486111 L2.852875,21.5486111 C1.74241667,21.5486111 0.838986111,20.6451806 0.838986111,19.5347222 L0.838986111,6.31031944 L28.1610139,6.31031944 L28.1610139,19.5347222 C28.1610139,20.6451806 27.2575833,21.5486111 26.147125,21.5486111 Z" id="Shape"></path>
                    <path d="M21.7947083,11.610875 C20.767625,11.610875 19.8065972,12.0140556 19.0916667,12.7285833 C18.3984861,12.0374167 17.4426944,11.6096667 16.3890278,11.6096667 C14.2772639,11.6096667 12.5590139,13.3279167 12.5590139,15.4400833 C12.5590139,17.5518472 14.2772639,19.2700972 16.3890278,19.2700972 C17.4426944,19.2700972 18.3980833,18.8419444 19.0916667,18.1511806 C19.8061944,18.8657083 20.767625,19.2692917 21.7947083,19.2692917 C23.9060694,19.2692917 25.6239167,17.5514444 25.6239167,15.4400833 C25.6239167,13.3287222 23.9064722,11.610875 21.7947083,11.610875 Z M21.7947083,18.4637361 C20.9549167,18.4637361 20.1715139,18.1209722 19.6015833,17.5184167 C19.9906667,16.9194861 20.2190417,16.2061667 20.2190417,15.4400833 C20.2190417,14.674 19.9906667,13.9606806 19.6015833,13.3613472 C20.1715139,12.7591944 20.9549167,12.4164306 21.7947083,12.4164306 C23.4622083,12.4164306 24.8183611,13.7725833 24.8183611,15.4400833 C24.8183611,17.1075833 23.4622083,18.4637361 21.7947083,18.4637361 Z" id="Shape"></path>
                </g>
            </g>
        </g>
    </g>
</svg>