<svg xmlns="http://www.w3.org/2000/svg" width="21" height="24" viewBox="0 0 21 24">
    <path fill="none" fill-rule="evenodd" stroke="#C6C8CC" stroke-width=".704" d="M5.02 19.333h4.384a.366.366 0 0 0 0-.733H5.019a.366.366 0 0 0 0 .733m0-4.4h2.923a.366.366 0 0 0 0-.733H5.02a.366.366 0 0 0 0 .733m0-4.4h6.577a.366.366 0 0 0 0-.733H5.02a.366.366 0 0 0 0 .733M20 21.167c0 1.01-.82 1.833-1.827 1.833H2.827A1.832 1.832 0 0 1 1 21.167V2.833C1 1.823 1.82 1 2.827 1h11.692c.097 0 .19.038.259.107l3.653 3.667a.367.367 0 0 1 0 .519.364.364 0 0 1-.516 0l-3.547-3.56H2.827a1.1 1.1 0 0 0-1.096 1.1v18.334a1.1 1.1 0 0 0 1.096 1.1h15.346a1.1 1.1 0 0 0 1.096-1.1v-14.3h-3.288a1.832 1.832 0 0 1-1.827-1.834V3.2a.366.366 0 1 1 .73 0v1.833a1.1 1.1 0 0 0 1.097 1.1h3.654c.201 0 .365.165.365.367v14.667z"/>
</svg>
