<svg xmlns="http://www.w3.org/2000/svg" width="24" height="19" viewBox="0 0 24 19">
    <path fill="#C6C8CC" fill-rule="nonzero" d="M11.743 10.27H8.717l.006 1.433c.001.494-.195.969-.547 1.318a1.875 1.875 0 0 1-2.64 0L.546 8.065a1.845 1.845 0 0 1 0-2.622L5.48.543C5.828.197 6.3.002 6.793 0a1.86 1.86 0 0 1 1.873 1.847l.006 1.472h3.566c.411 0 .745.331.745.74s-.334.74-.745.74H7.93a.743.743 0 0 1-.746-.737l-.008-2.21a.374.374 0 0 0-.642-.262l-4.933 4.9a.371.371 0 0 0 0 .528l4.99 4.956a.377.377 0 0 0 .64-.265l-.008-2.18a.74.74 0 0 1 .75-.74h7.355l.006-1.506a1.86 1.86 0 0 1 1.873-1.847c.493.002.965.197 1.313.543l4.933 4.9a1.845 1.845 0 0 1 0 2.622l-4.99 4.956a1.875 1.875 0 0 1-2.639 0 1.848 1.848 0 0 1-.547-1.318l.006-1.433-3.579.023a.743.743 0 0 1-.75-.736.743.743 0 0 1 .743-.745l4.33-.027a.743.743 0 0 1 .75.744l-.009 2.18a.377.377 0 0 0 .641.265l4.99-4.956a.371.371 0 0 0 0-.528l-4.933-4.9a.377.377 0 0 0-.642.262l-.008 2.21c-.002.406-.333.77-.742.772H11.743z"/>
</svg>
