<svg xmlns="http://www.w3.org/2000/svg" width="29" height="36" viewBox="0 0 29 36">
    <path fill="#8A8D94" fill-rule="evenodd" d="M27.792 26.4c0-4.869 0-7.552-4.052-11.576L18.479 9.6h-7.958l-5.26 5.224C1.207 18.848 1.207 21.531 1.207 26.4c0 1.46.39 2.905 1.128 4.178.052.078.555.924.251 2.852a7.63 7.63 0 0 1 1.167-.096c1.114 0 1.64.303 1.734.363A8.482 8.482 0 0 0 9.667 34.8h9.666c1.47 0 2.925-.388 4.207-1.12.066-.043.592-.346 1.706-.346.364 0 .754.032 1.167.096-.304-1.928.201-2.778.268-2.88a8.327 8.327 0 0 0 1.11-4.15zm-.018 7.654a.597.597 0 0 1-.16.57.606.606 0 0 1-.573.158c-.665-.165-1.27-.248-1.795-.248-.76 0-1.088.178-1.092.179A9.721 9.721 0 0 1 19.334 36H9.666a9.719 9.719 0 0 1-4.81-1.28c-.015-.008-.343-.186-1.103-.186-.526 0-1.13.083-1.795.248a.606.606 0 0 1-.574-.158.597.597 0 0 1-.159-.57c.515-2.043.074-2.858.07-2.867A9.541 9.541 0 0 1 0 26.4c0-5.019 0-8.048 4.406-12.424l5.438-5.4a.604.604 0 0 1 .427-.176h8.458c.16 0 .314.063.427.176l5.438 5.4C29 18.352 29 21.38 29 26.4c0 1.67-.445 3.322-1.289 4.777-.011.019-.452.834.063 2.877zM9.719 6.844a.604.604 0 0 0 1.104-.488L8.515 1.2h11.97L18.336 6h-5.65a.602.602 0 0 0-.604.6c0 .331.27.6.604.6h6.042c.24 0 .455-.14.552-.356l2.337-5.222c.247-.537.088-.921-.03-1.102-.247-.383-.703-.52-1.046-.52H8.458c-.35 0-.81.142-1.056.539-.118.192-.273.599.004 1.138L9.72 6.844zM13.292 22.2c0 .662.542 1.2 1.208 1.2a2.41 2.41 0 0 1 2.417 2.4 2.4 2.4 0 0 1-1.813 2.315v.085c0 .331-.27.6-.604.6a.602.602 0 0 1-.604-.6v-.085a2.4 2.4 0 0 1-1.813-2.315c0-.331.27-.6.604-.6.335 0 .605.269.605.6 0 .662.542 1.2 1.208 1.2.666 0 1.208-.538 1.208-1.2 0-.662-.542-1.2-1.208-1.2a2.41 2.41 0 0 1-2.417-2.4 2.4 2.4 0 0 1 1.813-2.315V19.8c0-.331.27-.6.604-.6.334 0 .604.269.604.6v.085a2.4 2.4 0 0 1 1.813 2.315c0 .331-.27.6-.605.6a.602.602 0 0 1-.604-.6c0-.662-.542-1.2-1.208-1.2-.666 0-1.208.538-1.208 1.2z" opacity=".5"/>
</svg>
