<svg xmlns="http://www.w3.org/2000/svg" width="36" height="36" viewBox="0 0 36 36">
    <path fill="#6680AD" fill-rule="evenodd" d="M19.2 9a.6.6 0 1 0 1.2 0 2.397 2.397 0 0 0-1.8-2.315V6.6a.6.6 0 1 0-1.2 0v.085A2.397 2.397 0 0 0 15.6 9c0 1.324 1.076 2.4 2.4 2.4a1.201 1.201 0 0 1 0 2.4c-.662 0-1.2-.538-1.2-1.2a.6.6 0 1 0-1.2 0c0 1.115.767 2.047 1.8 2.315V15a.6.6 0 1 0 1.2 0v-.085a2.397 2.397 0 0 0 1.8-2.315c0-1.324-1.076-2.4-2.4-2.4a1.201 1.201 0 0 1 0-2.4c.662 0 1.2.538 1.2 1.2zM18 1.2c-5.293 0-9.6 4.307-9.6 9.6 0 5.293 4.307 9.6 9.6 9.6 5.293 0 9.6-4.307 9.6-9.6 0-5.293-4.307-9.6-9.6-9.6zM7.2 10.8C7.2 4.845 12.045 0 18 0c5.955 0 10.8 4.845 10.8 10.8 0 5.955-4.845 10.8-10.8 10.8-5.955 0-10.8-4.845-10.8-10.8zM18 3.6c-3.97 0-7.2 3.23-7.2 7.2S14.03 18 18 18s7.2-3.23 7.2-7.2-3.23-7.2-7.2-7.2zm0 15.6c-4.632 0-8.4-3.768-8.4-8.4 0-4.632 3.768-8.4 8.4-8.4 4.632 0 8.4 3.768 8.4 8.4 0 4.632-3.768 8.4-8.4 8.4zm4.2 13.2a.6.6 0 0 0-.6.6v2.4a.6.6 0 1 0 1.2 0v-1.8h8.4v1.8a.6.6 0 1 0 1.2 0V33a.6.6 0 0 0-.6-.6h-9.6zm5.576-7.024a.6.6 0 1 0 .848.848l3-3a2.467 2.467 0 0 0 .74-1.636c.025-.63-.211-1.23-.667-1.685a2.233 2.233 0 0 0-1.686-.666 2.464 2.464 0 0 0-1.635.739l-4.169 4.171c-.058.05-1.407 1.245-1.407 3.453v3a.6.6 0 1 0 1.2 0v-3c0-1.64.956-2.513 1.024-2.576l4.2-4.2c.238-.238.535-.376.837-.388.306-.013.568.097.787.316.219.219.329.491.316.787-.012.302-.15.599-.388.837l-3 3zM31.2 13.2v4.75a.6.6 0 1 0 1.2 0V13.2a1.201 1.201 0 0 1 2.4 0v9c0 1.662-.95 2.51-1.024 2.576l-4.8 4.8a.6.6 0 1 0 .848.848l4.763-4.766C34.645 25.61 36 24.44 36 22.2v-9c0-1.324-1.076-2.4-2.4-2.4a2.402 2.402 0 0 0-2.4 2.4zm-27 19.2a.6.6 0 0 0-.6.6v2.4a.6.6 0 1 0 1.2 0v-1.8h8.4v1.8a.6.6 0 1 0 1.2 0V33a.6.6 0 0 0-.6-.6H4.2zm9-1.8v-3c0-2.208-1.35-3.403-1.376-3.424l-4.2-4.2a2.464 2.464 0 0 0-1.635-.74 2.233 2.233 0 0 0-1.686.667 2.231 2.231 0 0 0-.666 1.685c.025.604.287 1.185.739 1.636l3 3a.6.6 0 1 0 .848-.848l-3-3a1.263 1.263 0 0 1-.388-.837 1.033 1.033 0 0 1 .316-.787 1.02 1.02 0 0 1 .787-.316c.302.012.599.15.837.388l4.228 4.227c.04.036.996.909.996 2.549v3a.6.6 0 1 0 1.2 0zM1.376 25.624C1.356 25.61 0 24.44 0 22.2v-9c0-1.324 1.076-2.4 2.4-2.4 1.324 0 2.4 1.076 2.4 2.4v4.75a.6.6 0 1 1-1.2 0V13.2a1.201 1.201 0 0 0-2.4 0v9c0 1.662.95 2.51.99 2.545l4.834 4.83a.6.6 0 1 1-.848.85l-4.8-4.8z" opacity=".7"/>
</svg>
