<svg xmlns="http://www.w3.org/2000/svg" width="23" height="29" viewBox="0 0 23 29">
    <path fill="#6680AD" fill-rule="evenodd" d="M18.828 11.942l-4.172-4.209H8.344l-4.172 4.209C.958 15.183.958 17.344.958 21.267c0 1.176.31 2.34.895 3.365.04.063.44.745.199 2.298a5.96 5.96 0 0 1 .926-.078c.883 0 1.3.244 1.374.293a6.647 6.647 0 0 0 3.315.888h7.666c1.166 0 2.32-.312 3.337-.902.052-.035.469-.279 1.352-.279.29 0 .598.026.926.078-.24-1.554.16-2.238.212-2.32a6.789 6.789 0 0 0 .882-3.343c0-3.923 0-6.084-3.214-9.325zm3.073 15.95a.475.475 0 0 1-.454.127 5.924 5.924 0 0 0-1.425-.2c-.602 0-.863.143-.865.144A7.618 7.618 0 0 1 15.333 29H7.667a7.616 7.616 0 0 1-3.815-1.03c-.011-.008-.272-.151-.874-.151-.418 0-.897.067-1.425.2a.476.476 0 0 1-.454-.127.486.486 0 0 1-.126-.46c.408-1.645.058-2.302.055-2.309A7.778 7.778 0 0 1 0 21.267c0-4.043 0-6.484 3.495-10.009l4.312-4.35a.475.475 0 0 1 .339-.141h6.708c.128 0 .25.05.339.141l4.312 4.35C23 14.783 23 17.224 23 21.267a7.777 7.777 0 0 1-1.022 3.847c-.01.016-.359.673.05 2.319a.486.486 0 0 1-.127.459zM7.708 5.512a.479.479 0 1 0 .876-.392L6.753.967h9.493l-1.703 3.866h-4.48a.481.481 0 0 0-.48.484c0 .266.215.483.48.483h4.791a.48.48 0 0 0 .438-.287l1.853-4.206c.197-.433.07-.742-.023-.888C16.926.11 16.564 0 16.292 0H6.708c-.277 0-.643.114-.837.434-.094.155-.217.482.003.917l1.834 4.162zM11.5 18.938c1.379 0 2.5 1.01 2.5 2.25 0 1.046-.8 1.92-1.875 2.17v.08c0 .311-.28.563-.625.563-.346 0-.625-.252-.625-.563v-.08C9.799 23.108 9 22.234 9 21.188c0-.31.28-.562.625-.562.346 0 .625.252.625.563 0 .62.56 1.125 1.25 1.125s1.25-.505 1.25-1.125-.56-1.125-1.25-1.125c-1.379 0-2.5-1.01-2.5-2.25 0-1.046.8-1.92 1.875-2.17v-.08c0-.311.28-.563.625-.563.346 0 .625.252.625.563v.08c1.076.25 1.875 1.124 1.875 2.17 0 .31-.28.562-.625.562-.346 0-.625-.252-.625-.563 0-.62-.56-1.125-1.25-1.125s-1.25.505-1.25 1.125.56 1.125 1.25 1.125z"/>
</svg>
