<svg xmlns="http://www.w3.org/2000/svg" width="29" height="29" viewBox="0 0 29 29">
    <path fill="#8A8D94" fill-rule="evenodd" d="M15.467 7.25a.483.483 0 1 0 .966 0c0-.898-.618-1.649-1.45-1.865v-.068a.483.483 0 1 0-.966 0v.068a1.931 1.931 0 0 0-1.45 1.865c0 1.066.867 1.933 1.933 1.933a.968.968 0 0 1 0 1.934.968.968 0 0 1-.967-.967.483.483 0 1 0-.966 0c0 .898.618 1.649 1.45 1.865v.068a.483.483 0 1 0 .966 0v-.068a1.931 1.931 0 0 0 1.45-1.865A1.935 1.935 0 0 0 14.5 8.217a.968.968 0 0 1 0-1.934c.533 0 .967.434.967.967zM14.5.967c-4.264 0-7.733 3.469-7.733 7.733 0 4.264 3.469 7.733 7.733 7.733 4.264 0 7.733-3.469 7.733-7.733 0-4.264-3.469-7.733-7.733-7.733zM5.8 8.7C5.8 3.903 9.703 0 14.5 0c4.797 0 8.7 3.903 8.7 8.7 0 4.797-3.903 8.7-8.7 8.7-4.797 0-8.7-3.903-8.7-8.7zm8.7-5.8a5.806 5.806 0 0 0-5.8 5.8c0 3.198 2.602 5.8 5.8 5.8s5.8-2.602 5.8-5.8-2.602-5.8-5.8-5.8zm0 12.567A6.774 6.774 0 0 1 7.733 8.7 6.774 6.774 0 0 1 14.5 1.933 6.774 6.774 0 0 1 21.267 8.7a6.774 6.774 0 0 1-6.767 6.767zM17.883 26.1a.483.483 0 0 0-.483.483v1.934a.483.483 0 1 0 .967 0v-1.45h6.766v1.45a.483.483 0 1 0 .967 0v-1.934a.483.483 0 0 0-.483-.483h-7.734zm4.492-5.658a.483.483 0 1 0 .683.683l2.417-2.416c.364-.364.575-.832.596-1.319.02-.508-.17-.99-.537-1.357a1.8 1.8 0 0 0-1.358-.537c-.486.02-.954.232-1.318.596l-3.358 3.36c-.046.04-1.133 1.003-1.133 2.781v2.417a.483.483 0 1 0 .966 0v-2.417c0-1.321.77-2.024.825-2.075l3.384-3.383a1.02 1.02 0 0 1 .673-.313.82.82 0 0 1 .635.255.832.832 0 0 1 .254.634 1.02 1.02 0 0 1-.312.674l-2.417 2.417zm2.758-9.809v3.827a.483.483 0 1 0 .967 0v-3.827a.968.968 0 0 1 1.933 0v7.25c0 1.34-.765 2.022-.825 2.075l-3.866 3.867a.483.483 0 1 0 .683.683l3.837-3.839c.046-.039 1.138-.98 1.138-2.786v-7.25A1.935 1.935 0 0 0 27.067 8.7a1.935 1.935 0 0 0-1.934 1.933zM3.383 26.1a.483.483 0 0 0-.483.483v1.934a.483.483 0 1 0 .967 0v-1.45h6.766v1.45a.483.483 0 1 0 .967 0v-1.934a.483.483 0 0 0-.483-.483H3.383zm7.25-1.45v-2.417c0-1.778-1.087-2.741-1.108-2.758l-3.383-3.383a1.985 1.985 0 0 0-1.318-.596 1.8 1.8 0 0 0-1.358.537c-.367.367-.557.85-.537 1.357.02.487.232.955.596 1.318l2.417 2.417a.483.483 0 1 0 .683-.683l-2.417-2.418a1.017 1.017 0 0 1-.312-.673.832.832 0 0 1 .254-.634.821.821 0 0 1 .635-.255c.242.01.481.121.673.313l3.406 3.405c.033.03.803.732.803 2.053v2.417a.483.483 0 1 0 .966 0zm-9.525-4.008C1.092 20.63 0 19.688 0 17.883v-7.25C0 9.567.867 8.7 1.933 8.7c1.067 0 1.934.867 1.934 1.933v3.827a.483.483 0 1 1-.967 0v-3.827a.968.968 0 0 0-1.933 0v7.25c0 1.34.765 2.022.797 2.05l3.894 3.892a.483.483 0 1 1-.683.683l-3.867-3.866z" opacity=".5"/>
</svg>
