<svg xmlns="http://www.w3.org/2000/svg" width="29" height="29" viewBox="0 0 29 29">
    <path fill="#8A8D94" fill-rule="evenodd" d="M19.333 16.433c4.264 0 7.733-3.469 7.733-7.733 0-4.264-3.47-7.733-7.733-7.733C15.069.967 11.6 4.436 11.6 8.7c0 4.264 3.469 7.733 7.733 7.733zm0-16.433c4.797 0 8.7 3.903 8.7 8.7 0 4.797-3.903 8.7-8.7 8.7-4.797 0-8.7-3.903-8.7-8.7 0-4.797 3.903-8.7 8.7-8.7zM.967 25.858a.726.726 0 0 1 1.45 0 .726.726 0 0 1-1.45 0zm17.4-15.708a.483.483 0 1 0-.968 0c0 .898.619 1.649 1.45 1.865v.068a.483.483 0 1 0 .967 0v-.068a1.931 1.931 0 0 0 1.45-1.865 1.935 1.935 0 0 0-1.933-1.933.968.968 0 0 1 0-1.934c.533 0 .966.434.966.967a.483.483 0 1 0 .967 0c0-.898-.618-1.649-1.45-1.865v-.068a.483.483 0 1 0-.967 0v.068A1.931 1.931 0 0 0 17.4 7.25c0 1.066.868 1.933 1.934 1.933a.968.968 0 0 1 0 1.934.968.968 0 0 1-.967-.967zm.966 4.35c3.198 0 5.8-2.602 5.8-5.8s-2.602-5.8-5.8-5.8a5.806 5.806 0 0 0-5.8 5.8c0 3.198 2.602 5.8 5.8 5.8zm0-12.567A6.774 6.774 0 0 1 26.099 8.7a6.774 6.774 0 0 1-6.766 6.767A6.774 6.774 0 0 1 12.566 8.7a6.774 6.774 0 0 1 6.767-6.767zM10.15 18.367c.564 0 1.522.719 2.368 1.353 1.06.796 2.062 1.547 2.948 1.547h2.9c.734 0 1.099.333 1.108.341a.482.482 0 0 0 .684 0 .483.483 0 0 0 0-.683c-.064-.064-.658-.625-1.792-.625h-2.9c-.564 0-1.522-.72-2.368-1.353-1.06-.796-2.062-1.547-2.948-1.547H6.283a.483.483 0 1 0 0 .967h3.867zm15.98 1.21l-5.563 2.707c-.865.433-1.738.433-3.65.433-1.87 0-4.726-.473-4.755-.477a.483.483 0 1 0-.158.953c.12.02 2.961.49 4.912.49 2.007 0 3.014 0 4.078-.532l5.589-2.721a.961.961 0 0 1 1.32.354.97.97 0 0 1-.367 1.329L21 26.178c-.014.01-1.408.888-4.568.888-2.74 0-6.973-2.333-7.034-2.366-.044-.022-1.092-.534-3.116-.534a.483.483 0 1 0 0 .966c1.758 0 2.664.423 2.666.423.182.101 4.494 2.477 7.484 2.477 3.49 0 5.037-1.005 5.088-1.04l6.512-4.052a1.92 1.92 0 0 0 .9-1.174c.134-.499.065-1.02-.193-1.467-.533-.924-1.72-1.24-2.61-.724zM4.832 27.55c0 .8-.65 1.45-1.45 1.45h-2.9a.483.483 0 1 1 0-.967h2.9a.484.484 0 0 0 .484-.483V16.917a.484.484 0 0 0-.484-.484h-2.9a.483.483 0 1 1 0-.966h2.9c.8 0 1.45.65 1.45 1.45V27.55z" opacity=".5"/>
</svg>
