<svg xmlns="http://www.w3.org/2000/svg" width="44" height="45" viewBox="0 0 44 45">
    <g fill="none" fill-rule="evenodd" transform="rotate(45 37.83 16.218)">
        <rect width="24.621" height="41.276" x="21.707" y="13.742" fill="#DFEFFF" fill-rule="nonzero" rx="12.24"/>
        <rect width="2.897" height="10.138" x="31.121" y="15.914" fill="#FDC130" fill-rule="nonzero" rx="1.44"/>
        <path fill="#6680AD" d="M31.003 1.062c-.4 0-.724.324-.724.724v9.14a.743.743 0 0 0 .114.466.725.725 0 0 0 .759.32c6.303.086 11.405 5.24 11.406 11.563v3.39H31.215V25.45c.402-.12.686-.325.869-.508.649-.649.668-1.55.668-1.65v-7.168c-.001-.91-.603-2.26-2.261-2.26-.812 0-1.315.331-1.593.61-.648.648-.667 1.549-.668 1.65v7.168c.001.76.43 1.818 1.537 2.148v1.224H19.428v-3.388c0-5.42 3.682-10.055 8.953-11.27a.723.723 0 1 0-.325-1.411c-5.932 1.367-10.076 6.582-10.077 12.681l.005 20.47c0 7.297 5.717 13.013 13.013 13.013 3.649.001 6.902-1.429 9.243-3.77 2.341-2.34 3.77-5.595 3.77-9.243l-.003-16.31c0-.017.009-.03.01-.047 0-.018-.01-.032-.01-.048l-.001-4.066c0-6.929-5.444-12.61-12.279-12.992V1.787c0-.4-.324-.725-.724-.725zm-1.324 22.23v-7.168c0-.004.018-.401.243-.626.046-.046.186-.186.569-.186.69 0 .805.513.811.812l.001 7.168c0 .004-.018.4-.243.626-.046.046-.186.186-.57.186-.688 0-.804-.514-.81-.812zm12.883 20.454c0 3.113-1.183 6.019-3.33 8.184-2.18 2.198-5.087 3.38-8.235 3.381-6.484 0-11.564-5.08-11.565-11.565l-.003-15.634h23.13l.003 15.634z"/>
    </g>
</svg>
