<svg xmlns="http://www.w3.org/2000/svg" width="21" height="21" viewBox="0 0 21 21">
    <g fill="#8A8D94" fill-rule="nonzero" opacity=".8">
        <path d="M1.665 7.555c-.849 0-1.537.688-1.537 1.536v2.818c0 .848.688 1.536 1.537 1.536h.384c.101.326.23.643.384.948l-.282.281a1.537 1.537 0 0 0 0 2.152l2.023 2.023a1.537 1.537 0 0 0 2.152 0l.281-.282c.305.154.622.283.948.384v.384c0 .849.688 1.537 1.536 1.537h2.818c.848 0 1.536-.688 1.536-1.537v-.384a6.12 6.12 0 0 0 .948-.384l.281.282a1.537 1.537 0 0 0 2.152 0l2.023-2.023a1.537 1.537 0 0 0 0-2.152l-.282-.281a6.12 6.12 0 0 0 .384-.948h.384c.849 0 1.537-.688 1.537-1.536V9.09c0-.848-.688-1.536-1.537-1.536h-.384a6.12 6.12 0 0 0-.384-.948l.282-.281a1.537 1.537 0 0 0 0-2.152l-2.023-2.023a1.537 1.537 0 0 0-2.152 0l-.281.282a6.12 6.12 0 0 0-.948-.384v-.384c0-.849-.688-1.537-1.536-1.537H9.09c-.848 0-1.536.688-1.536 1.537v.384a6.12 6.12 0 0 0-.948.384l-.281-.282a1.537 1.537 0 0 0-2.152 0L2.151 4.174a1.537 1.537 0 0 0 0 2.152l.282.281a6.12 6.12 0 0 0-.384.948h-.384zm.947 1.536a.794.794 0 0 0 .743-.563c.155-.591.387-1.16.691-1.69a.743.743 0 0 0-.128-.922l-.666-.666L5.25 3.252l.666.666c.239.254.623.307.922.128a6.915 6.915 0 0 1 1.69-.691c.329-.1.556-.4.563-.743v-.947h2.818v.947a.794.794 0 0 0 .563.743c.591.155 1.16.387 1.69.691.3.18.683.126.922-.128l.666-.666 1.998 1.998-.666.666a.743.743 0 0 0-.128.922c.304.53.536 1.099.691 1.69.1.329.4.556.743.563h.947v2.818h-.947a.794.794 0 0 0-.743.563 6.915 6.915 0 0 1-.691 1.69c-.18.3-.126.683.128.922l.666.666-1.998 1.998-.666-.666a.743.743 0 0 0-.922-.128 6.915 6.915 0 0 1-1.69.691c-.329.1-.556.4-.563.743v.947H9.09v-.947a.794.794 0 0 0-.563-.743 6.915 6.915 0 0 1-1.69-.691.666.666 0 0 0-.384-.103.768.768 0 0 0-.538.23l-.666.667-1.998-1.998.666-.666a.743.743 0 0 0 .128-.922 6.915 6.915 0 0 1-.691-1.69.794.794 0 0 0-.743-.563h-.947V9.09h.947z"/>
        <path d="M10.5 14.88a4.38 4.38 0 1 0-4.38-4.38 4.405 4.405 0 0 0 4.38 4.38zm0-7.223a2.843 2.843 0 1 1 0 5.686 2.843 2.843 0 0 1 0-5.686z"/>
    </g>
</svg>
