<svg xmlns="http://www.w3.org/2000/svg" width="24" height="17" viewBox="0 0 24 17">
    <path fill="#8A8D94" fill-rule="nonzero" d="M2.341 0C1.054 0 0 1.037 0 2.303v11.514c0 1.266 1.054 2.303 2.341 2.303H21.66c1.287 0 2.341-1.037 2.341-2.303V2.303C24 1.037 22.946 0 21.659 0H2.34zm0 1.151H21.66c.169 0 .322.04.466.1l-9.393 8.248c-.444.39-1 .39-1.445 0L1.875 1.25a1.19 1.19 0 0 1 .466-.099zM1.18 2.186l6.732 5.901-6.613 6.252a1.174 1.174 0 0 1-.128-.522V2.303c0-.04.005-.078.009-.117zm21.64 0c.004.039.01.077.01.117v11.514c0 .188-.052.367-.129.522l-6.594-6.261 6.713-5.892zM15.23 8.852l6.457 6.117H2.314L8.79 8.86l1.719 1.502c.856.75 2.144.752 3 0l1.72-1.511z"/>
</svg>
