<svg xmlns="http://www.w3.org/2000/svg" width="39" height="38" viewBox="0 0 39 38">
    <g fill="none" fill-rule="evenodd">
        <path fill="#DFEFFF" fill-rule="nonzero" d="M11.982 1.04l6.755 6.849a1 1 0 0 1-.212 1.568c-4.702 2.717-4.927 6.452-.674 11.205 4.332 4.843 8.52 4.992 12.561.45a1 1 0 0 1 1.459-.04l6.48 6.555a1 1 0 0 1 .125 1.251c-2.69 4.103-6.18 6.043-10.472 5.818-5.027-.264-10.174-3.622-15.248-9.137-5.86-6.37-10.383-12.863-8.16-17.5C5.981 5.173 8.015 2.794 10.698.923a1 1 0 0 1 1.284.119z"/>
        <path fill="#6680AD" d="M37.794 29.44a.71.71 0 0 1 0 1l-1.97 1.986a.699.699 0 0 1-.994 0 .71.71 0 0 1 0-1.001l1.473-1.484-7.018-7.067-3.508 3.533c-2.241 2.257-6.67 2.353-11.51-2.52-4.481-4.513-4.732-8.67-2.966-11.052L5.755 7.25a.712.712 0 0 1 0-1.001.7.7 0 0 1 .994 0l6.008 6.05a.71.71 0 0 1 0 1c-1.746 1.759-1.648 5.405 2.505 9.587 4.153 4.182 7.774 4.278 9.52 2.52l4.006-4.033a.72.72 0 0 1 .994 0l8.012 8.067zM27.78 27.423a.699.699 0 0 0-.994 0 .712.712 0 0 0 0 1l5.501 5.54c-2.92 2.685-5.945 3.299-9.25 1.873-.05-.019-4.953-2.041-11.781-8.917-6.803-6.849-8.839-11.813-8.882-11.916-1.759-3.54-1.094-6.28 2.372-9.77l3.508-3.532 7.018 7.065-1.506 1.516a.71.71 0 0 0 0 1.001.7.7 0 0 0 .994 0l2.004-2.017a.712.712 0 0 0 0-1L8.751.199a.72.72 0 0 0-.994 0L3.752 4.232c-3.93 3.957-4.694 7.26-2.66 11.351.085.211 2.138 5.258 9.169 12.337 7.032 7.08 12.044 9.146 12.238 9.224 1.322.571 2.621.856 3.894.856 2.587 0 5.063-1.178 7.396-3.526a.708.708 0 0 0 0-1.001l-6.01-6.05z"/>
        <path fill="#FDC130" fill-rule="nonzero" d="M4.551 9.688a.799.799 0 0 1 .027-1.13.799.799 0 0 1 1.13.013l3.423 3.545a.799.799 0 0 1-.027 1.13.799.799 0 0 1-1.13-.013L4.552 9.688z"/>
    </g>
</svg>
