<?xml version="1.0" encoding="UTF-8"?>
<svg width="25px" height="41px" viewBox="0 0 25 41" version="1.1" xmlns="http://www.w3.org/2000/svg" xmlns:xlink="http://www.w3.org/1999/xlink">
    <!-- Generator: sketchtool 50.2 (55047) - http://www.bohemiancoding.com/sketch -->
    <title>CF265660-6406-46C4-BC4E-DFF1AF005705</title>
    <desc>Created with sketchtool.</desc>
    <defs></defs>
    <g id="00_login" stroke="none" stroke-width="1" fill="none" fill-rule="evenodd">
        <g id="00_01_TM-hover" transform="translate(-64.000000, -263.000000)">
            <g id="devices" transform="translate(64.000000, 263.000000)">
                <g id="mobile">
                    <rect id="Rectangle-3" fill="#FFFFFF" x="0.793650794" y="0.803921569" width="21.031746" height="39.3921569" rx="2.1"></rect>
                    <path d="M5.95238095,2.41176471 L19.4444444,2.41176471 C20.7594081,2.41176471 21.8253968,3.49154854 21.8253968,4.82352941 L21.8253968,5.2254902 L3.57142857,5.2254902 L3.57142857,4.82352941 C3.57142857,3.49154854 4.63741726,2.41176471 5.95238095,2.41176471 Z" id="Rectangle-5-Copy" fill="#F2FCFC"></path>
                    <path d="M6.34920635,8.44117647 L22.6190476,8.44117647 C23.9340113,8.44117647 25,9.52096031 25,10.8529412 L25,35.372549 C25,36.7045299 23.9340113,37.7843137 22.6190476,37.7843137 L6.34920635,37.7843137 C5.03424266,37.7843137 3.96825397,36.7045299 3.96825397,35.372549 L3.96825397,10.8529412 C3.96825397,9.52096031 5.03424266,8.44117647 6.34920635,8.44117647 Z" id="Rectangle-5" fill="#C1E0FF" opacity="0.5"></path>
                    <path d="M3.17460317,1.60784314 C2.29796071,1.60784314 1.58730159,2.32769903 1.58730159,3.21568627 L1.58730159,37.7843137 C1.58730159,38.672301 2.29796071,39.3921569 3.17460317,39.3921569 L19.4444444,39.3921569 C20.3210869,39.3921569 21.031746,38.672301 21.031746,37.7843137 L21.031746,3.21568627 C21.031746,2.32769903 20.3210869,1.60784314 19.4444444,1.60784314 L3.17460317,1.60784314 Z M3.17460317,0 L19.4444444,0 C21.1977294,-3.57012894e-16 22.6190476,1.43971178 22.6190476,3.21568627 L22.6190476,37.7843137 C22.6190476,39.5602882 21.1977294,41 19.4444444,41 L3.17460317,41 C1.42131825,41 1.76225877e-16,39.5602882 0,37.7843137 L0,3.21568627 C-1.76225877e-16,1.43971178 1.42131825,3.57012894e-16 3.17460317,0 Z" id="Rectangle-3" fill="#6680AD" fill-rule="nonzero"></path>
                    <path d="M1.58730159,6.02941176 L1.58730159,33.7647059 L21.031746,33.7647059 L21.031746,6.02941176 L1.58730159,6.02941176 Z M0.793650794,4.42156863 L21.8253968,4.42156863 C22.2637181,4.42156863 22.6190476,4.78149657 22.6190476,5.2254902 L22.6190476,34.5686275 C22.6190476,35.0126211 22.2637181,35.372549 21.8253968,35.372549 L0.793650794,35.372549 C0.355329564,35.372549 0,35.0126211 0,34.5686275 L0,5.2254902 C0,4.78149657 0.355329564,4.42156863 0.793650794,4.42156863 Z" id="Rectangle-5" fill="#6680AD" fill-rule="nonzero"></path>
                    <g id="Group-3" transform="translate(9.682540, 2.009804)" fill="#C4D4E3">
                        <path d="M1.59584312,0 C1.06733575,0 0.634920635,0.437357331 0.634920635,0.97190518 C0.634920635,1.50645303 1.06733575,1.94381036 1.59584312,1.94381036 C2.12435049,1.94381036 2.55676561,1.50645303 2.55676561,0.97190518 C2.55676561,0.437357331 2.12435049,0 1.59584312,0 Z" id="Path-Copy-2"></path>
                    </g>
                    <path d="M8.73015873,38.1862745 C8.2918375,38.1862745 7.93650794,37.8263466 7.93650794,37.3823529 C7.93650794,36.9383593 8.2918375,36.5784314 8.73015873,36.5784314 L13.6583164,36.5784314 C14.0966376,36.5784314 14.4519672,36.9383593 14.4519672,37.3823529 C14.4519672,37.8263466 14.0966376,38.1862745 13.6583164,38.1862745 L8.73015873,38.1862745 Z" id="Path-14" fill="#FDC130" fill-rule="nonzero"></path>
                </g>
            </g>
        </g>
    </g>
</svg>