<svg xmlns="http://www.w3.org/2000/svg" width="24" height="24" viewBox="0 0 24 24">
    <g fill="none" fill-rule="nonzero">
        <path fill="#000" d="M6.42 15.253a.51.51 0 0 0 .172-.676.456.456 0 0 0-.64-.181.51.51 0 0 0-.172.676c.13.236.416.317.64.18z"/>
        <path fill="#333" d="M4.5 18.668l2.36 4.317c.51.932 1.655 1.277 2.561.724.897-.547 1.205-1.756.686-2.703l-1.406-2.572 1.218-.742a.51.51 0 0 0 .172-.676L9.48 15.9l8.978-1.859c1.042-.06 1.666-1.263 1.14-2.224l-1.558-2.849.996-1.592a.519.519 0 0 0 .015-.52l-.938-1.714a.464.464 0 0 0-.434-.246l-1.803.114-1.73-3.162c-.25-.459-.699-.736-1.2-.743h-.018c-.484 0-.924.255-1.184.685l-6.123 8.235-3.981 2.426C.075 13.406-.467 15.526.44 17.184c.829 1.515 2.576 2.111 4.06 1.484zm4.796 2.833c.259.472.105 1.077-.344 1.351-.45.275-1.024.107-1.28-.362l-2.344-4.286 1.624-.99 2.344 4.287zm-1.064-3.924l-.468-.857.812-.495.468.857-.812.495zm9.215-11.674l.648 1.184-.578.924-1.116-2.042 1.046-.066zm-4.918-3.57a.455.455 0 1 1 .806.01l5.452 9.97c.178.324-.038.732-.394.741-.064.002-.093.014-.257.046L12.369 2.555c.12-.164.136-.18.16-.222zm-.784 1.06l5.418 9.909-8.177 1.693-2.487-4.546 5.246-7.055zM1.252 16.69a2.577 2.577 0 0 1-.315-1.235c0-.882.45-1.704 1.173-2.145l3.653-2.227 2.344 4.286-3.654 2.227c-1.119.682-2.555.275-3.201-.906z"/>
        <path fill="#000" d="M4.968 15.567a.456.456 0 0 0-.64-.182l-.812.495a.456.456 0 0 1-.64-.18.456.456 0 0 0-.64-.182.51.51 0 0 0-.172.676c.385.706 1.246.954 1.92.543l.812-.494a.51.51 0 0 0 .172-.676zM23.303 2.165l-2.612 1.534a.51.51 0 0 0-.181.673c.125.239.41.325.637.192L23.76 3.03a.51.51 0 0 0 .182-.673.456.456 0 0 0-.638-.192zM23.03 7.29l-1.812-.512a.467.467 0 0 0-.574.35.498.498 0 0 0 .332.606l1.81.512a.467.467 0 0 0 .575-.35.498.498 0 0 0-.332-.606zM18.478.367l-.486 1.912a.498.498 0 0 0 .332.606c.25.07.507-.085.574-.35l.486-1.912a.498.498 0 0 0-.332-.606.467.467 0 0 0-.574.35z"/>
    </g>
</svg>
