<?xml version="1.0" encoding="UTF-8"?>
<svg width="28px" height="28px" viewBox="0 0 28 28" version="1.1" xmlns="http://www.w3.org/2000/svg" xmlns:xlink="http://www.w3.org/1999/xlink">
    <!-- Generator: sketchtool 51.1 (57501) - http://www.bohemiancoding.com/sketch -->
    <title>9F4CDCD2-B24A-4ED4-8C95-0BF2AE15A15D</title>
    <desc>Created with sketchtool.</desc>
    <defs></defs>
    <g id="Finales" stroke="none" stroke-width="1" fill="none" fill-rule="evenodd">
        <g id="05_02_mas-opciones" transform="translate(-16.000000, -189.000000)" fill="#0041A8" fill-rule="nonzero">
            <g id="Group-3-Copy" transform="translate(16.000000, 189.000000)">
                <path d="M22.5552173,11.8947804 C23.3523388,11.8947804 24,12.5006214 24,13.2462717 L24,21.9507042 C24,24.1824772 22.0570163,26 19.6711874,26 L8.32881262,26 C5.94298367,26 4,24.1824772 4,21.9507042 L4,13.2462717 C4,12.5006214 4.64766122,11.8947804 5.44478273,11.8947804 L20.6675893,11.8947804 L20.6675893,8.63773819 C20.6675893,5.19428335 17.672848,2.39809445 13.9972322,2.39809445 C10.3160808,2.39809445 7.32687517,5.19946147 7.32687517,8.63773819 C7.32687517,9.02609776 6.99474121,9.33678542 6.57957376,9.33678542 C6.16440631,9.33678542 5.83227235,9.02609776 5.83227235,8.63773819 C5.83227235,4.42274234 9.49681705,1 13.9972322,1 C18.503183,1 22.1621921,4.42792046 22.1621921,8.63773819 L22.1621921,11.8947804 L22.5552173,11.8947804 Z M19.6711874,24.6019056 C21.2377526,24.6019056 22.5053972,23.4109362 22.5053972,21.9507042 L22.5053972,13.2928749 L5.50013839,13.2928749 L5.50013839,21.9507042 C5.50013839,23.4161143 6.77331857,24.6019056 8.33434819,24.6019056 L19.6711874,24.6019056 Z M14.6542429,22.8280632 C14.6542429,23.1654941 14.3923691,23.4456522 14.0562588,23.4456522 C13.7201484,23.4456522 13.4582747,23.1654941 13.4582747,22.8280632 L13.4582747,22.2489777 C13.2313378,22.2131721 12.9914398,22.1503099 12.6924195,22.0511276 C12.0479116,21.8054533 11.6111111,21.4566365 11.6111111,21 C11.6111111,20.6259918 11.8516209,20.3725296 12.2184716,20.3725296 C12.3586087,20.3725296 12.4817015,20.4024654 12.579989,20.4672647 C12.6912533,20.5368081 12.741841,20.5682107 12.7988117,20.6026 C13.250398,20.8751916 13.5763455,20.9851779 14.0750117,20.9851779 C14.6769883,20.9851779 14.9866385,20.7704343 14.9866385,20.4268775 C14.9866385,20.0601824 14.6924573,19.8353298 13.8140208,19.5334559 C12.284965,19.0136491 11.6861228,18.4238649 11.6861228,17.3735178 C11.6861228,16.3921548 12.3519791,15.7717282 13.4957806,15.6178546 L13.4957806,15.041502 C13.4957806,14.7040711 13.7576543,14.423913 14.0937647,14.423913 C14.429875,14.423913 14.6917487,14.7040711 14.6917487,15.041502 L14.6917487,15.6191916 C14.8505283,15.6429829 15.0256278,15.6814194 15.2294188,15.7351643 C15.8249653,15.9103138 16.2669948,16.2178254 16.2669948,16.6324111 C16.2669948,16.9957702 16.0455968,17.2796443 15.6690108,17.2796443 C15.5539922,17.2796443 15.4829113,17.2657723 15.3967732,17.2268087 C14.8911959,17.0136869 15.0256832,17.0695985 14.9057013,17.0262948 C14.6357247,16.9288552 14.4035634,16.8843874 14.1125176,16.8843874 C13.4256944,16.8843874 13.0977496,17.055204 13.0977496,17.3735178 C13.0977496,17.7224867 13.2893959,17.8665802 14.3032238,18.2488621 C15.8098183,18.8114437 16.3888889,19.3058543 16.3888889,20.3379447 C16.3888889,21.3127951 15.7686236,22.0187113 14.6542429,22.2337583 L14.6542429,22.8280632 Z" id="Combined-Shape"></path>
            </g>
        </g>
    </g>
</svg>