<?xml version="1.0" encoding="UTF-8"?>
<svg width="18px" height="19px" viewBox="0 0 18 19" version="1.1" xmlns="http://www.w3.org/2000/svg" xmlns:xlink="http://www.w3.org/1999/xlink">
    <!-- Generator: sketchtool 51.2 (57519) - http://www.bohemiancoding.com/sketch -->
    <title>CA71EDD4-258B-4CB1-9D5F-801A7B702525</title>
    <desc>Created with sketchtool.</desc>
    <defs></defs>
    <g id="Page-4" stroke="none" stroke-width="1" fill="none" fill-rule="evenodd">
        <g id="02_Desktop_login---Clave-segura---vacío" transform="translate(-478.000000, -414.000000)" fill="#4070BE">
            <g id="Group-9" transform="translate(478.000000, 409.000000)">
                <path d="M13.5175781,6.46289062 C14.9003975,7.25976961 15.99316,8.34960246 16.7958984,9.73242188 C17.5986368,11.1152413 18,12.6210856 18,14.25 C18,15.8789144 17.5986368,17.3847587 16.7958984,18.7675781 C15.99316,20.1503975 14.9003975,21.24316 13.5175781,22.0458984 C12.1347587,22.8486368 10.6289144,23.25 9,23.25 C7.37108561,23.25 5.86524129,22.8486368 4.48242188,22.0458984 C3.09960246,21.24316 2.00683995,20.1503975 1.20410156,18.7675781 C0.401363174,17.3847587 0,15.8789144 0,14.25 C0,12.6210856 0.401363174,11.1152413 1.20410156,9.73242188 C2.00683995,8.34960246 3.09960246,7.25683995 4.48242188,6.45410156 C5.86524129,5.65136317 7.37108561,5.25 9,5.25 C10.6289144,5.25 12.1347587,5.65429283 13.5175781,6.46289062 Z M14.4667969,19.7167969 C15.1816442,19.0019496 15.7382793,18.1816453 16.1367188,17.2558594 C16.5351582,16.3066359 16.734375,15.3046928 16.734375,14.25 C16.734375,13.1953072 16.5292989,12.1933641 16.1191406,11.2441406 C15.7324199,10.3183547 15.1816442,9.49805045 14.4667969,8.78320312 C13.7519496,8.0683558 12.9316453,7.51172074 12.0058594,7.11328125 C11.0566359,6.71484176 10.0546928,6.515625 9,6.515625 C7.94530723,6.515625 6.94336412,6.72070107 5.99414062,7.13085938 C5.06835475,7.51758006 4.24805045,8.0683558 3.53320312,8.78320312 C2.8183558,9.49805045 2.26172074,10.3183547 1.86328125,11.2441406 C1.46484176,12.1933641 1.265625,13.1953072 1.265625,14.25 C1.265625,15.3046928 1.47070107,16.3066359 1.88085938,17.2558594 C2.26758006,18.1816453 2.8183558,19.0019496 3.53320312,19.7167969 C4.24805045,20.4316442 5.06835475,20.9882793 5.99414062,21.3867188 C6.94336412,21.7851582 7.94530723,21.984375 9,21.984375 C10.0546928,21.984375 11.0566359,21.7792989 12.0058594,21.3691406 C12.9316453,20.9824199 13.7519496,20.4316442 14.4667969,19.7167969 Z M8.91210938,16.921875 L8.84179688,16.921875 C8.66601475,16.8984374 8.52246149,16.8193366 8.41113281,16.6845703 C8.29980413,16.549804 8.25585926,16.3945321 8.27929688,16.21875 C8.3144533,15.8320293 8.45214724,15.4628924 8.69238281,15.1113281 C8.93261839,14.7597639 9.2753884,14.3671897 9.72070312,13.9335938 C10.0722674,13.5820295 10.3388663,13.277345 10.5205078,13.0195312 C10.7021493,12.7617175 10.807617,12.577149 10.8369141,12.4658203 C10.8662111,12.3544916 10.8808594,12.2167977 10.8808594,12.0527344 C10.904297,11.5957008 10.7519548,11.191408 10.4238281,10.8398438 C10.0371074,10.4296854 9.56250281,10.2246094 9,10.2246094 C8.47265361,10.2246094 8.02441591,10.4121075 7.65527344,10.7871094 C7.28613097,11.1621112 7.1015625,11.6074193 7.1015625,12.1230469 C7.1015625,12.298829 7.04003968,12.4482416 6.91699219,12.5712891 C6.7939447,12.6943366 6.64453213,12.7558594 6.46875,12.7558594 C6.29296787,12.7558594 6.1435553,12.6943366 6.02050781,12.5712891 C5.89746032,12.4482416 5.8359375,12.298829 5.8359375,12.1230469 C5.8359375,11.255855 6.14355161,10.5146515 6.75878906,9.89941406 C7.37402651,9.28417661 8.11523004,8.97070318 8.98242188,8.95898438 C9.91992656,8.95898438 10.705075,9.29296541 11.3378906,9.9609375 C11.9238311,10.5820344 12.1933596,11.3027303 12.1464844,12.1230469 C12.1230468,12.5566428 12.0087901,12.9667949 11.8037109,13.3535156 C11.5986318,13.7402363 11.2031279,14.2324189 10.6171875,14.8300781 C9.92577779,15.509769 9.56835949,16.0136702 9.54492188,16.3417969 C9.52148426,16.5058602 9.45117246,16.6435541 9.33398437,16.7548828 C9.21679629,16.8662115 9.0761727,16.921875 8.91210938,16.921875 Z M8.34960938,19.3125 C8.19726486,19.1601555 8.12109375,18.9785167 8.12109375,18.7675781 C8.12109375,18.5566396 8.19726486,18.3779304 8.34960938,18.2314453 C8.50195389,18.0849602 8.68066304,18.0117188 8.88574219,18.0117188 C9.09082134,18.0117188 9.26953049,18.0849602 9.421875,18.2314453 C9.57421951,18.3779304 9.65039062,18.5566396 9.65039062,18.7675781 C9.65039062,18.9785167 9.57421951,19.1572258 9.421875,19.3037109 C9.26953049,19.450196 9.09082134,19.5234375 8.88574219,19.5234375 C8.68066304,19.5234375 8.50195389,19.4531257 8.34960938,19.3125 Z" id="question-circle-o---anticon"></path>
            </g>
        </g>
    </g>
</svg>