<svg xmlns="http://www.w3.org/2000/svg" width="20" height="24" viewBox="0 0 20 24">
    <g fill="#4070BE" fill-rule="nonzero">
        <path d="M13.052 12.398a.395.395 0 0 0-.39.4V18.4H.974V3.2h11.688v5.6c0 .22.174.4.39.4.215 0 .39-.18.39-.4V1.761c0-.971-.77-1.762-1.717-1.762H1.911C.965 0 .195.79.195 1.762v20.476C.195 23.209.965 24 1.91 24h9.814c.946 0 1.716-.79 1.716-1.762v-9.44c0-.221-.174-.4-.39-.4zM1.91.8h9.814c.517 0 .937.432.937.962V2.4H.974v-.638c0-.53.42-.962.937-.962zm9.814 22.4H1.911a.95.95 0 0 1-.937-.962V19.2h11.688v3.038a.95.95 0 0 1-.937.962z"/>
        <path d="M6.818 19.6c-.86 0-1.558.718-1.558 1.6 0 .882.699 1.6 1.558 1.6.86 0 1.559-.718 1.559-1.6 0-.882-.7-1.6-1.559-1.6zm0 2.4a.79.79 0 0 1-.779-.8c0-.441.35-.8.78-.8.429 0 .778.359.778.8 0 .441-.35.8-.779.8zM5.26 2h1.558c.216 0 .39-.179.39-.4 0-.221-.174-.4-.39-.4H5.26a.395.395 0 0 0-.39.4c0 .221.174.4.39.4zM7.987 2h.39c.215 0 .39-.179.39-.4 0-.221-.175-.4-.39-.4h-.39a.395.395 0 0 0-.39.4c0 .221.175.4.39.4zM19.416 10.4H7.369l3.101-3.194a.407.407 0 0 0 0-.566.382.382 0 0 0-.55 0l-3.766 3.877a.41.41 0 0 0 0 .567l3.765 3.877a.386.386 0 0 0 .551-.001.407.407 0 0 0 0-.566L7.37 11.2h12.046c.215 0 .39-.179.39-.4 0-.221-.175-.4-.39-.4z"/>
    </g>
</svg>
