<svg xmlns="http://www.w3.org/2000/svg" width="20" height="17" viewBox="0 0 20 17">
    <g fill="none" fill-rule="evenodd">
        <path d="M-2-4h24v24H-2z"/>
        <g fill="#0040A8" fill-rule="nonzero">
            <path d="M11.42 1.842H.725A.71.71 0 0 0 0 2.55a.71.71 0 0 0 .725.708H11.42a2.584 2.584 0 0 0 2.493 1.814c1.16 0 2.174-.765 2.464-1.814h2.637a.71.71 0 0 0 .725-.708.71.71 0 0 0-.725-.708h-2.637A2.575 2.575 0 0 0 13.913.028a2.584 2.584 0 0 0-2.493 1.814zm3.594.708c0 .623-.521 1.105-1.13 1.105-.609 0-1.13-.482-1.13-1.105s.521-1.105 1.13-1.105c.58 0 1.13.482 1.13 1.105zM2.725 7.508h-2A.71.71 0 0 0 0 8.217a.71.71 0 0 0 .725.708h2a2.584 2.584 0 0 0 2.492 1.813c1.16 0 2.174-.765 2.464-1.813h11.333a.71.71 0 0 0 .725-.708.71.71 0 0 0-.725-.709H7.681a2.575 2.575 0 0 0-2.464-1.813 2.584 2.584 0 0 0-2.492 1.813zm3.594.709c0 .623-.522 1.105-1.13 1.105-.61 0-1.131-.482-1.131-1.105 0-.624.522-1.105 1.13-1.105.61 0 1.13.481 1.13 1.105zM7.942 13.742H.725A.71.71 0 0 0 0 14.45a.71.71 0 0 0 .725.708h7.217a2.584 2.584 0 0 0 2.493 1.814c1.16 0 2.174-.765 2.464-1.814h6.115a.71.71 0 0 0 .725-.708.71.71 0 0 0-.725-.708H12.9a2.575 2.575 0 0 0-2.464-1.814 2.584 2.584 0 0 0-2.493 1.814zm3.594.708c0 .623-.522 1.105-1.13 1.105-.609 0-1.13-.482-1.13-1.105s.521-1.105 1.13-1.105c.608 0 1.13.482 1.13 1.105z"/>
        </g>
    </g>
</svg>
