<svg xmlns="http://www.w3.org/2000/svg" width="39" height="39" viewBox="0 0 39 39">
    <g fill="none" fill-rule="evenodd">
        <path d="M-5-4h48v48H-5z"/>
        <g>
            <circle cx="19.5" cy="19.5" r="19.5" fill="#859ABE"/>
            <path fill="#FFF" d="M12.477 16.122l1.34 2a5.72 5.72 0 0 0-.167 1.378c0 3.103 2.474 5.619 5.525 5.619S24.7 22.603 24.7 19.5c0-3.103-2.474-5.619-5.525-5.619a5.45 5.45 0 0 0-1.321.162l-1.958-1.376c.626-.311 1.3-.536 2.008-.66l1.271-6.719 1.27 6.72c3.11.541 5.565 3.037 6.097 6.2L33.15 19.5l-6.608 1.292c-.532 3.163-2.986 5.659-6.096 6.2l-1.271 6.72-1.27-6.72c-3.11-.541-5.565-3.037-6.097-6.2L5.2 19.5l6.608-1.292a7.637 7.637 0 0 1 .669-2.086z"/>
            <path fill="#92ACD9" d="M6.794 6.894L21.272 17.41l-4.137 4.207z"/>
            <path fill="#E0EBFF" d="M31.553 32.073L17.075 21.556l4.137-4.206z"/>
            <ellipse cx="19.175" cy="19.5" fill="#FFF" rx="2.925" ry="2.975"/>
        </g>
    </g>
</svg>
