<?xml version="1.0" encoding="UTF-8"?>
<svg width="14px" height="18px" viewBox="0 0 14 18" version="1.1" xmlns="http://www.w3.org/2000/svg" xmlns:xlink="http://www.w3.org/1999/xlink">
    <!-- Generator: sketchtool 50.2 (55047) - http://www.bohemiancoding.com/sketch -->
    <title>993B66FF-20E0-4177-8C32-FC1FF9CAF565</title>
    <desc>Created with sketchtool.</desc>
    <defs></defs>
    <g id="00_login" stroke="none" stroke-width="1" fill="none" fill-rule="evenodd" opacity="0.699999988">
        <g id="00_01_TM-celular" transform="translate(-121.000000, -296.000000)" fill="#8A8D94">
            <path d="M123.057143,303.2 L123.057143,300.885714 C123.057143,298.187409 125.244552,296 127.942857,296 C130.641163,296 132.828571,298.187409 132.828571,300.885714 L132.828571,303.2 L133.085714,303.2 C134.079827,303.2 134.885714,304.005887 134.885714,305 L134.885714,312.2 C134.885714,313.194113 134.079827,314 133.085714,314 L122.8,314 C121.805887,314 121,313.194113 121,312.2 L121,305 C121,304.005887 121.805887,303.2 122.8,303.2 L123.057143,303.2 Z M123.828571,304.742857 L122.8,304.742857 C122.657984,304.742857 122.542857,304.857984 122.542857,305 L122.542857,312.2 C122.542857,312.342016 122.657984,312.457143 122.8,312.457143 L133.085714,312.457143 C133.22773,312.457143 133.342857,312.342016 133.342857,312.2 L133.342857,305 C133.342857,304.857984 133.22773,304.742857 133.085714,304.742857 L132.057143,304.742857 L123.828571,304.742857 Z M131.285714,303.2 L131.285714,300.885714 C131.285714,299.039505 129.789066,297.542857 127.942857,297.542857 C126.096648,297.542857 124.6,299.039505 124.6,300.885714 L124.6,303.2 L131.285714,303.2 Z M127.437922,308.300779 C126.932987,307.964156 126.764675,307.332987 127.059221,306.785974 C127.26961,306.323117 127.732468,306.028571 128.195325,306.028571 C128.237403,306.028571 128.321558,306.070649 128.405714,306.070649 C128.994805,306.196883 129.415584,306.701818 129.415584,307.290909 C129.415584,307.711688 129.247273,308.048312 128.910649,308.300779 C128.868571,308.300779 128.868571,308.300779 128.868571,308.300779 C128.868571,308.300779 128.868571,308.300779 128.868571,308.342857 C128.868571,308.805714 128.868571,309.226494 128.868571,309.689351 C128.868571,309.941818 128.70026,310.194286 128.48987,310.320519 C128.405714,310.362597 128.279481,310.404675 128.153247,310.404675 C127.774545,310.404675 127.437922,310.068052 127.437922,309.689351 C127.437922,309.226494 127.437922,308.805714 127.437922,308.342857 C127.437922,308.342857 127.437922,308.300779 127.437922,308.300779 Z" id="Combined-Shape-Copy"></path>
        </g>
    </g>
</svg>