<svg xmlns="http://www.w3.org/2000/svg" width="24" height="22" viewBox="0 0 24 22">
    <g fill="none" fill-rule="evenodd">
        <path d="M24 23H0V-1h24z" opacity=".87"/>
        <g fill="#8A8D94" fill-rule="nonzero">
            <path d="M23.668 2.873c-.15-.15-.298-.233-.503-.233h-18l-.098-.082-.079-.448A2.375 2.375 0 0 0 2.635.1H.809a.642.642 0 0 0-.657.66c0 .363.295.659.657.659H2.66c.513 0 .95.37 1.038.87l1.566 9.47c0 .054.017.116.051.194l.261 1.624c.226 1.385 1.457 2.43 2.85 2.43H20.53a.642.642 0 0 0 .657-.66.659.659 0 0 0-.657-.659H8.4c-.771 0-1.42-.551-1.533-1.287l-.157-.864.099-.118 14.103.001c.159.027.255.018.351-.04a.73.73 0 0 0 .345-.436l2.196-8.423c.082-.183.056-.378-.066-.578l-.07-.07zm-1.442 1.139l.097.125-1.826 6.915-.097.074H6.574l-.099-.084-1.122-6.914.1-.116h16.773zM8.635 16.94a2.466 2.466 0 0 0-2.457 2.467 2.466 2.466 0 0 0 2.457 2.467 2.466 2.466 0 0 0 2.456-2.467 2.466 2.466 0 0 0-2.456-2.467zm0 1.346c.625 0 1.091.485 1.091 1.121 0 .605-.514 1.122-1.117 1.122-.6 0-1.092-.512-1.092-1.122a1.12 1.12 0 0 1 1.118-1.121zM17.087 16.94a2.466 2.466 0 0 0-2.457 2.467c0 1.374 1.092 2.493 2.457 2.493a2.45 2.45 0 0 0 2.456-2.467c0-1.364-1.108-2.493-2.456-2.493zm-.026 1.346c.63 0 1.117.49 1.117 1.121 0 .605-.514 1.122-1.117 1.122a1.137 1.137 0 0 1-1.117-1.117c-.03-.608.487-1.126 1.117-1.126z"/>
        </g>
    </g>
</svg>
