<svg xmlns="http://www.w3.org/2000/svg" width="24" height="16" viewBox="0 0 24 16">
    <path fill="#4070BE" fill-rule="nonzero" d="M.998 7.002v6.487c0 .826.672 1.497 1.497 1.497h18.963c.826 0 1.497-.671 1.497-1.497V7.002H.998zm0-3.992h21.957v-.5c0-.825-.672-1.496-1.497-1.496H2.495c-.825 0-1.497.671-1.497 1.497v.499zM21.458.016a2.499 2.499 0 0 1 2.495 2.495v10.978a2.499 2.499 0 0 1-2.495 2.495H2.495A2.499 2.499 0 0 1 0 13.49V2.511A2.499 2.499 0 0 1 2.495.016h18.963zm1.497 5.988V4.008H.998v1.996h21.957zM9.481 9.996a.5.5 0 0 1 0 .998H3.493a.5.5 0 0 1 0-.998h5.988zm0 1.996a.5.5 0 0 1 0 .998H3.493a.5.5 0 0 1 0-.998h5.988zm9.981-2.994c.825 0 1.497.672 1.497 1.497v.998c0 .826-.672 1.497-1.497 1.497h-.998a1.499 1.499 0 0 1-1.497-1.497v-.998c0-.825.672-1.497 1.497-1.497h.998zm.499 2.495v-.998a.5.5 0 0 0-.499-.499h-.998a.5.5 0 0 0-.5.5v.997a.5.5 0 0 0 .5.5h.998a.5.5 0 0 0 .499-.5z"/>
</svg>
