<svg xmlns="http://www.w3.org/2000/svg" width="43" height="41" viewBox="0 0 43 41">
    <g fill="none" fill-rule="evenodd">
        <rect width="20.655" height="39.392" x=".779" y=".804" fill="#FFF" rx="2.1"/>
        <path fill="#F2FCFC" d="M5.846 2.412h13.25c1.292 0 2.338 1.08 2.338 2.412v.401H3.507v-.401c0-1.332 1.047-2.412 2.339-2.412z"/>
        <path fill="#C1E0FF" d="M6.235 8.441h15.979c1.291 0 2.338 1.08 2.338 2.412v24.52c0 1.332-1.047 2.411-2.338 2.411H6.235c-1.29 0-2.338-1.08-2.338-2.411v-24.52c0-1.332 1.047-2.412 2.338-2.412z" opacity=".5"/>
        <path fill="#6680AD" fill-rule="nonzero" d="M3.118 1.608c-.861 0-1.56.72-1.56 1.608v34.568c0 .888.699 1.608 1.56 1.608h15.978c.861 0 1.56-.72 1.56-1.608V3.216c0-.888-.699-1.608-1.56-1.608H3.118zm0-1.608h15.978c1.722 0 3.118 1.44 3.118 3.216v34.568c0 1.776-1.396 3.216-3.118 3.216H3.118C1.396 41 0 39.56 0 37.784V3.216C0 1.44 1.396 0 3.118 0z"/>
        <path fill="#6680AD" fill-rule="nonzero" d="M1.559 6.03v27.735h19.096V6.029H1.56zm-.78-1.608h20.655c.431 0 .78.36.78.803V34.57a.792.792 0 0 1-.78.804H.78c-.43 0-.779-.36-.779-.804V5.225c0-.444.349-.803.78-.803z"/>
        <path fill="#C4D4E3" d="M11.076 2.01c-.519 0-.943.437-.943.972 0 .534.424.972.943.972.52 0 .944-.438.944-.972 0-.535-.425-.972-.944-.972z"/>
        <path fill="#6680AD" fill-rule="nonzero" d="M8.574 38.186c-.43 0-.78-.36-.78-.804 0-.444.35-.804.78-.804h4.84c.43 0 .78.36.78.804a.792.792 0 0 1-.78.804h-4.84z"/>
        <g fill="#FDC130">
            <path d="M27.709 24.034a1.06 1.06 0 0 0-1.052 1.06c0 .584.473 1.061 1.052 1.061a1.06 1.06 0 0 0 1.052-1.06 1.06 1.06 0 0 0-1.052-1.06zM30.515 24.034a1.06 1.06 0 0 0-1.052 1.06c0 .584.473 1.061 1.052 1.061a1.06 1.06 0 0 0 1.052-1.06 1.06 1.06 0 0 0-1.052-1.06zM33.32 24.034a1.06 1.06 0 0 0-1.051 1.06c0 .584.473 1.061 1.052 1.061a1.06 1.06 0 0 0 1.052-1.06 1.06 1.06 0 0 0-1.052-1.06zM36.127 24.034a1.06 1.06 0 0 0-1.052 1.06c0 .584.473 1.061 1.052 1.061a1.06 1.06 0 0 0 1.052-1.06 1.06 1.06 0 0 0-1.052-1.06z"/>
        </g>
        <rect width="16.836" height="5.655" x="2.806" y="10.603" fill="#FFF" rx="2.1"/>
        <path fill="#FFF" d="M24.082 22.055h14.827c1.299 0 2.352 1.092 2.352 2.439v1.697c0 1.346-1.053 2.438-2.352 2.438H24.333a3.993 3.993 0 0 1-2.705 1.06c-2.26 0-4.09-1.898-4.09-4.24 0-2.343 1.83-4.242 4.09-4.242.92 0 1.77.316 2.454.848z"/>
        <g transform="translate(10.731 19.086)">
            <path fill="#FFF" d="M6.71 0h15.772a6.279 6.279 0 0 1 6.28 6.279c0 3.17-2.57 5.738-5.739 5.738H6.71A6.009 6.009 0 1 1 6.71 0zM28.807 7.776c.065-.531.083-1.11.083-1.735 0-.645-.044-1.245-.132-1.8h1.743a1.767 1.767 0 1 1 0 3.535h-1.694z"/>
            <path fill="#C1E0FF" d="M31.567 7.521v.611c0 .745-.527 1.356-1.2 1.42-.02.282-.046.55-.078.806-.276 2.166-1.985 3.78-4.004 3.78H8.68c-3.245 0-8.02-3.423-8.02-8.04 0-4.616 2.676-4.684 5.92-4.684H26.2c1.905 0 3.551 1.44 3.952 3.457.075.379.134.788.178 1.228.69.043 1.238.663 1.238 1.422z" opacity=".5"/>
            <path stroke="#6680AD" stroke-width="1.4" d="M28.798 7.776a19.4 19.4 0 0 0 .061-1.735c0-.645-.032-1.245-.098-1.8h.262c1.018 0 1.843.652 1.843 1.456v.623c0 .804-.825 1.456-1.843 1.456h-.225z"/>
            <path fill="#FFF" d="M9.35 2.969h14.827c1.3 0 2.352 1.092 2.352 2.439v1.696c0 1.347-1.053 2.44-2.352 2.44H9.602a3.993 3.993 0 0 1-2.706 1.06c-2.259 0-4.09-1.9-4.09-4.242s1.831-4.241 4.09-4.241c.921 0 1.771.315 2.455.848z"/>
            <path stroke="#6680AD" stroke-width="1.4" d="M6.74 0h17.738c1.92 0 3.583 1.407 3.997 3.382.19.912.286 2 .286 3.266 0 3.356-2.582 6.076-5.767 6.076H6.74C3.405 12.724.7 9.876.7 6.362.701 2.848 3.405 0 6.741 0z"/>
            <ellipse cx="7.015" cy="6.362" stroke="#6680AD" stroke-width="1.05" rx="2.806" ry="2.828"/>
        </g>
        <g fill="#FDC130">
            <path d="M24.06 24.034c-.772 0-1.403.637-1.403 1.414 0 .778.631 1.414 1.403 1.414.771 0 1.403-.636 1.403-1.414 0-.777-.632-1.414-1.403-1.414zM27.567 24.034c-.771 0-1.403.637-1.403 1.414 0 .778.632 1.414 1.403 1.414.772 0 1.403-.636 1.403-1.414 0-.777-.631-1.414-1.403-1.414zM31.075 24.034c-.772 0-1.403.637-1.403 1.414 0 .778.631 1.414 1.403 1.414.771 0 1.403-.636 1.403-1.414 0-.777-.632-1.414-1.403-1.414zM34.582 24.034c-.772 0-1.403.637-1.403 1.414 0 .778.631 1.414 1.403 1.414s1.403-.636 1.403-1.414c0-.777-.631-1.414-1.403-1.414z"/>
        </g>
        <g fill="#FDC130">
            <path d="M5.612 12.017c-.772 0-1.403.636-1.403 1.414 0 .778.631 1.414 1.403 1.414s1.403-.636 1.403-1.414c0-.778-.631-1.414-1.403-1.414zM9.12 12.017c-.772 0-1.404.636-1.404 1.414 0 .778.632 1.414 1.403 1.414.772 0 1.403-.636 1.403-1.414 0-.778-.631-1.414-1.403-1.414zM12.627 12.017c-.772 0-1.403.636-1.403 1.414 0 .778.631 1.414 1.403 1.414s1.403-.636 1.403-1.414c0-.778-.631-1.414-1.403-1.414zM16.134 12.017c-.771 0-1.403.636-1.403 1.414 0 .778.632 1.414 1.403 1.414.772 0 1.403-.636 1.403-1.414 0-.778-.631-1.414-1.403-1.414z"/>
        </g>
    </g>
</svg>
