<?xml version="1.0" encoding="UTF-8"?>
<svg width="43px" height="41px" viewBox="0 0 43 41" version="1.1" xmlns="http://www.w3.org/2000/svg" xmlns:xlink="http://www.w3.org/1999/xlink">
    <!-- Generator: sketchtool 50.2 (55047) - http://www.bohemiancoding.com/sketch -->
    <title>910F2F05-5621-41B3-9431-18B61EBAF286</title>
    <desc>Created with sketchtool.</desc>
    <defs></defs>
    <g id="00_login" stroke="none" stroke-width="1" fill="none" fill-rule="evenodd">
        <g id="00_01_TM-hover" transform="translate(-64.000000, -410.000000)">
            <g id="Group-19" transform="translate(64.000000, 410.000000)">
                <g id="devices">
                    <g id="mobile">
                        <rect id="Rectangle-3" fill="#FFFFFF" x="0.779436153" y="0.803921569" width="20.655058" height="39.3921569" rx="2.1"></rect>
                        <path d="M5.84577114,2.41176471 L19.0961857,2.41176471 C20.3875978,2.41176471 21.4344942,3.49154854 21.4344942,4.82352941 L21.4344942,5.2254902 L3.50746269,5.2254902 L3.50746269,4.82352941 C3.50746269,3.49154854 4.55435904,2.41176471 5.84577114,2.41176471 Z" id="Rectangle-5-Copy" fill="#F2FCFC"></path>
                        <path d="M6.23548922,8.44117647 L22.2139303,8.44117647 C23.5053424,8.44117647 24.5522388,9.52096031 24.5522388,10.8529412 L24.5522388,35.372549 C24.5522388,36.7045299 23.5053424,37.7843137 22.2139303,37.7843137 L6.23548922,37.7843137 C4.94407712,37.7843137 3.89718076,36.7045299 3.89718076,35.372549 L3.89718076,10.8529412 C3.89718076,9.52096031 4.94407712,8.44117647 6.23548922,8.44117647 Z" id="Rectangle-5" fill="#C1E0FF" opacity="0.5"></path>
                        <path d="M3.11774461,1.60784314 C2.25680321,1.60784314 1.55887231,2.32769903 1.55887231,3.21568627 L1.55887231,37.7843137 C1.55887231,38.672301 2.25680321,39.3921569 3.11774461,39.3921569 L19.0961857,39.3921569 C19.9571271,39.3921569 20.655058,38.672301 20.655058,37.7843137 L20.655058,3.21568627 C20.655058,2.32769903 19.9571271,1.60784314 19.0961857,1.60784314 L3.11774461,1.60784314 Z M3.11774461,0 L19.0961857,0 C20.8180685,-3.57012894e-16 22.2139303,1.43971178 22.2139303,3.21568627 L22.2139303,37.7843137 C22.2139303,39.5602882 20.8180685,41 19.0961857,41 L3.11774461,41 C1.39586181,41 1.73069593e-16,39.5602882 0,37.7843137 L0,3.21568627 C-1.73069593e-16,1.43971178 1.39586181,3.57012894e-16 3.11774461,0 Z" id="Rectangle-3" fill="#6680AD" fill-rule="nonzero"></path>
                        <path d="M1.55887231,6.02941176 L1.55887231,33.7647059 L20.655058,33.7647059 L20.655058,6.02941176 L1.55887231,6.02941176 Z M0.779436153,4.42156863 L21.4344942,4.42156863 C21.8649649,4.42156863 22.2139303,4.78149657 22.2139303,5.2254902 L22.2139303,34.5686275 C22.2139303,35.0126211 21.8649649,35.372549 21.4344942,35.372549 L0.779436153,35.372549 C0.348965452,35.372549 0,35.0126211 0,34.5686275 L0,5.2254902 C0,4.78149657 0.348965452,4.42156863 0.779436153,4.42156863 Z" id="Rectangle-5" fill="#6680AD" fill-rule="nonzero"></path>
                        <g id="Group-3" transform="translate(9.509121, 2.009804)" fill="#C4D4E3">
                            <path d="M1.56726086,0 C1.04821929,0 0.623548922,0.437357331 0.623548922,0.97190518 C0.623548922,1.50645303 1.04821929,1.94381036 1.56726086,1.94381036 C2.08630242,1.94381036 2.51097279,1.50645303 2.51097279,0.97190518 C2.51097279,0.437357331 2.08630242,0 1.56726086,0 Z" id="Path-Copy-2"></path>
                        </g>
                        <path d="M8.57379768,38.1862745 C8.14332698,38.1862745 7.79436153,37.8263466 7.79436153,37.3823529 C7.79436153,36.9383593 8.14332698,36.5784314 8.57379768,36.5784314 L13.4136898,36.5784314 C13.8441605,36.5784314 14.193126,36.9383593 14.193126,37.3823529 C14.193126,37.8263466 13.8441605,38.1862745 13.4136898,38.1862745 L8.57379768,38.1862745 Z" id="Path-14" fill="#6680AD" fill-rule="nonzero"></path>
                    </g>
                </g>
                <g id="Group-20" transform="translate(26.656716, 24.034483)" fill="#FDC130">
                    <path d="M1.05223881,0 C0.473507463,0 0,0.477155172 0,1.06034483 C0,1.64353448 0.473507463,2.12068966 1.05223881,2.12068966 C1.63097015,2.12068966 2.10447761,1.64353448 2.10447761,1.06034483 C2.10447761,0.477155172 1.63097015,0 1.05223881,0 Z" id="Path-Copy-2"></path>
                    <path d="M3.85820896,0 C3.27947761,0 2.80597015,0.477155172 2.80597015,1.06034483 C2.80597015,1.64353448 3.27947761,2.12068966 3.85820896,2.12068966 C4.4369403,2.12068966 4.91044776,1.64353448 4.91044776,1.06034483 C4.91044776,0.477155172 4.4369403,0 3.85820896,0 Z" id="Path-Copy-7"></path>
                    <path d="M6.6641791,0 C6.08544776,0 5.6119403,0.477155172 5.6119403,1.06034483 C5.6119403,1.64353448 6.08544776,2.12068966 6.6641791,2.12068966 C7.24291045,2.12068966 7.71641791,1.64353448 7.71641791,1.06034483 C7.71641791,0.477155172 7.24291045,0 6.6641791,0 Z" id="Path-Copy-8"></path>
                    <path d="M9.47014925,0 C8.89141791,0 8.41791045,0.477155172 8.41791045,1.06034483 C8.41791045,1.64353448 8.89141791,2.12068966 9.47014925,2.12068966 C10.0488806,2.12068966 10.5223881,1.64353448 10.5223881,1.06034483 C10.5223881,0.477155172 10.0488806,0 9.47014925,0 Z" id="Path-Copy-9"></path>
                </g>
                <rect id="Rectangle-4" fill="#FFFFFF" x="2.80597015" y="10.6034483" width="16.8358209" height="5.65517241" rx="2.1"></rect>
                <path d="M24.0820438,22.0551724 L38.9086464,22.0551724 C40.2075479,22.0551724 41.2605156,23.1470573 41.2605156,24.4939655 L41.2605156,26.1905172 C41.2605156,27.5374255 40.2075479,28.6293103 38.9086464,28.6293103 L24.3330132,28.6293103 C23.611978,29.2892302 22.6648448,29.6896552 21.6275207,29.6896552 C19.3685616,29.6896552 17.5373134,27.790725 17.5373134,25.4482759 C17.5373134,23.1058268 19.3685616,21.2068966 21.6275207,21.2068966 C22.5484921,21.2068966 23.3983706,21.5225311 24.0820438,22.0551724 Z" id="Combined-Shape-Copy-2" fill="#FFFFFF"></path>
                <g id="Group-18" transform="translate(10.731343, 19.086207)">
                    <path d="M6.71011324,1.74061589e-10 L22.4821933,7.87917928e-06 C25.9499896,7.88499431e-06 28.761194,2.81121227 28.761194,6.27900862 C28.761194,6.27900862 28.761194,6.27900862 28.761194,6.27900862 C28.761194,6.27900862 28.761194,6.27900862 28.761194,6.27900862 L28.761194,6.27900862 C28.761194,9.44814261 26.1921033,12.0172333 23.0229693,12.0172333 L6.71011324,12.0172414 C3.39164366,12.0172414 0.701492542,9.32709027 0.701492537,6.0086207 L0.701492537,6.00862069 C0.701492537,2.69015111 3.39164365,1.74061038e-10 6.71011323,1.74060429e-10 Z" id="Rectangle-7-Copy" fill="#FFFFFF"></path>
                    <path d="M28.8071999,7.77586207 C28.8717832,7.24480354 28.8895939,6.66655178 28.8895939,6.04110678 C28.8895939,5.39617941 28.845861,4.79627025 28.7583953,4.24137931 L30.5014153,4.24137931 C31.4774358,4.24137931 32.2686567,5.03260023 32.2686567,6.00862069 C32.2686567,6.98464115 31.4774358,7.77586207 30.5014153,7.77586207 L28.8071999,7.77586207 Z" id="Combined-Shape-Copy-3" fill="#FFFFFF"></path>
                    <path d="M31.5671642,7.52137928 L31.5671642,8.1321379 C31.5671642,8.87666059 31.0399732,9.4878347 30.3678111,9.55172678 C30.3475959,9.83350972 30.3212125,10.1023406 30.2886609,10.3582194 C30.0131002,12.5243227 28.3037699,14.137931 26.2847305,14.137931 L8.68060745,14.137931 C5.43613486,14.137931 0.660731985,10.7149364 0.660731985,6.09870382 C0.660731985,1.48247128 3.33722634,1.4137931 6.58169893,1.4137931 L26.199145,1.41379312 C28.1038883,1.41379312 29.7501213,2.85399231 30.1505656,4.87067476 C30.2258848,5.24999071 30.2852647,5.65933373 30.3287054,6.09870382 C31.0194123,6.1421239 31.5671642,6.76247694 31.5671642,7.52137928 Z" id="Combined-Shape" fill="#C1E0FF" opacity="0.5"></path>
                    <path d="M28.797761,7.77586207 C28.8461503,7.24480354 28.859495,6.66655178 28.859495,6.04110678 C28.859495,5.39617941 28.826728,4.79627025 28.761194,4.24137931 L29.0229917,4.24137931 C30.0406757,4.24137931 30.8656716,4.89297301 30.8656716,5.69675456 L30.8656716,6.32048682 C30.8656716,7.12426837 30.0406757,7.77586207 29.0229917,7.77586207 L28.797761,7.77586207 Z" id="Combined-Shape-Copy-3" stroke="#6680AD" stroke-width="1.4"></path>
                    <path d="M9.35070054,2.96896552 L24.1773031,2.96896552 C25.4762046,2.96896552 26.5291723,4.06085038 26.5291723,5.40775862 L26.5291723,7.10431034 C26.5291723,8.45121858 25.4762046,9.54310345 24.1773031,9.54310345 L9.60166997,9.54310345 C8.88063473,10.2030233 7.9335015,10.6034483 6.89617742,10.6034483 C4.63721832,10.6034483 2.80597015,8.70451808 2.80597015,6.36206897 C2.80597015,4.01961985 4.63721832,2.12068966 6.89617742,2.12068966 C7.81714877,2.12068966 8.66702728,2.43632418 9.35070054,2.96896552 Z" id="Combined-Shape-Copy-2" fill="#FFFFFF"></path>
                    <path d="M6.74089183,1.53144592e-17 L24.4775278,3.21741585e-07 C26.3981582,3.25151676e-07 28.0605086,1.40669527 28.4745995,3.38235622 C28.6656625,4.29393313 28.761194,5.38260175 28.761194,6.64836207 C28.761194,10.0039176 26.178942,12.7241328 22.9935726,12.7241328 L6.74089183,12.7241379 C3.40542371,12.7241379 0.701492542,9.87574264 0.701492537,6.36206897 C0.701492537,2.8483953 3.4054237,6.45451381e-16 6.74089182,0 Z" id="Rectangle-7-Copy" stroke="#6680AD" stroke-width="1.4"></path>
                    <ellipse id="Oval-5-Copy-2" stroke="#6680AD" stroke-width="1.05" cx="7.01492537" cy="6.36206897" rx="2.80597015" ry="2.82758621"></ellipse>
                </g>
                <g id="Group-20-Copy" transform="translate(22.656716, 24.034483)" fill="#FDC130">
                    <path d="M1.40298507,0 C0.631343284,0 0,0.636206897 0,1.4137931 C0,2.19137931 0.631343284,2.82758621 1.40298507,2.82758621 C2.17462687,2.82758621 2.80597015,2.19137931 2.80597015,1.4137931 C2.80597015,0.636206897 2.17462687,0 1.40298507,0 Z" id="Path-Copy-2"></path>
                    <path d="M4.91044776,0 C4.13880597,0 3.50746269,0.636206897 3.50746269,1.4137931 C3.50746269,2.19137931 4.13880597,2.82758621 4.91044776,2.82758621 C5.68208955,2.82758621 6.31343284,2.19137931 6.31343284,1.4137931 C6.31343284,0.636206897 5.68208955,0 4.91044776,0 Z" id="Path-Copy-7"></path>
                    <path d="M8.41791045,0 C7.64626866,0 7.01492537,0.636206897 7.01492537,1.4137931 C7.01492537,2.19137931 7.64626866,2.82758621 8.41791045,2.82758621 C9.18955224,2.82758621 9.82089552,2.19137931 9.82089552,1.4137931 C9.82089552,0.636206897 9.18955224,0 8.41791045,0 Z" id="Path-Copy-8"></path>
                    <path d="M11.9253731,0 C11.1537313,0 10.5223881,0.636206897 10.5223881,1.4137931 C10.5223881,2.19137931 11.1537313,2.82758621 11.9253731,2.82758621 C12.6970149,2.82758621 13.3283582,2.19137931 13.3283582,1.4137931 C13.3283582,0.636206897 12.6970149,0 11.9253731,0 Z" id="Path-Copy-9"></path>
                </g>
                <g id="Group-20-Copy" transform="translate(4.208955, 12.017241)" fill="#FDC130">
                    <path d="M1.40298507,0 C0.631343284,0 0,0.636206897 0,1.4137931 C0,2.19137931 0.631343284,2.82758621 1.40298507,2.82758621 C2.17462687,2.82758621 2.80597015,2.19137931 2.80597015,1.4137931 C2.80597015,0.636206897 2.17462687,0 1.40298507,0 Z" id="Path-Copy-2"></path>
                    <path d="M4.91044776,0 C4.13880597,0 3.50746269,0.636206897 3.50746269,1.4137931 C3.50746269,2.19137931 4.13880597,2.82758621 4.91044776,2.82758621 C5.68208955,2.82758621 6.31343284,2.19137931 6.31343284,1.4137931 C6.31343284,0.636206897 5.68208955,0 4.91044776,0 Z" id="Path-Copy-3"></path>
                    <path d="M8.41791045,0 C7.64626866,0 7.01492537,0.636206897 7.01492537,1.4137931 C7.01492537,2.19137931 7.64626866,2.82758621 8.41791045,2.82758621 C9.18955224,2.82758621 9.82089552,2.19137931 9.82089552,1.4137931 C9.82089552,0.636206897 9.18955224,0 8.41791045,0 Z" id="Path-Copy-4"></path>
                    <path d="M11.9253731,0 C11.1537313,0 10.5223881,0.636206897 10.5223881,1.4137931 C10.5223881,2.19137931 11.1537313,2.82758621 11.9253731,2.82758621 C12.6970149,2.82758621 13.3283582,2.19137931 13.3283582,1.4137931 C13.3283582,0.636206897 12.6970149,0 11.9253731,0 Z" id="Path-Copy-5"></path>
                </g>
            </g>
        </g>
    </g>
</svg>