<?xml version="1.0" encoding="UTF-8"?>
<svg width="72px" height="73px" viewBox="0 0 72 73" version="1.1" xmlns="http://www.w3.org/2000/svg" xmlns:xlink="http://www.w3.org/1999/xlink">
    <!-- Generator: sketchtool 51.1 (57501) - http://www.bohemiancoding.com/sketch -->
    <title>D35BC85B-A33C-438F-B04C-F57FA1B4A924</title>
    <desc>Created with sketchtool.</desc>
    <defs>
        <linearGradient x1="100%" y1="100%" x2="0%" y2="0%" id="linearGradient-1">
            <stop stop-color="#0E43A0" offset="0%"></stop>
            <stop stop-color="#225BBD" offset="100%"></stop>
        </linearGradient>
    </defs>
    <g id="Finales" stroke="none" stroke-width="1" fill="none" fill-rule="evenodd" stroke-linecap="round">
        <g id="00_touchid" transform="translate(-124.000000, -121.000000)" stroke="url(#linearGradient-1)" stroke-width="1.7704918">
            <g id="Glyphs/Touch-ID-Copy" transform="translate(125.000000, 122.000000)">
                <g id="Touch-ID" transform="translate(0.180328, 0.680328)">
                    <path d="M68.8593057,27.9039915 C65.0637015,9.07928148 46.7285457,-3.1029265 27.9046152,0.692677612 M22.8600491,2.10753469 C6.96319987,7.88358368 -2.75183533,24.5649763 0.692781551,41.6489272 M69.5505855,33.6342229 C69.486118,31.7380706 69.2653074,29.8218062 68.8779887,27.9005096 M0.711568583,41.6454972 C0.812389724,42.1446658 0.923085099,42.6391571 1.04417441,43.1289711" id="Stroke-1"></path>
                    <path d="M25.7998699,68.3715444 C27.1430432,66.8427814 28.364876,65.2127892 29.4543957,63.4980468 M30.9806464,60.8783853 C35.0897217,53.1565819 36.6491646,44.0180538 34.7854241,34.7747184" id="Stroke-7"></path>
                    <path d="M30.6674522,69.3084275 C34.2788859,64.6870703 36.9506519,59.3530524 38.4691309,53.6270017 M39.3101504,49.7438225 C40.1722014,44.6392614 40.1307095,39.2935002 39.0462606,33.9157898 C38.5826913,31.5459733 36.2786164,30.0146873 33.9129575,30.4917688 C31.5478183,30.9688503 30.0167921,33.2729251 30.4938736,35.6388439 C32.8868165,47.3489075 29.0639284,58.8752584 21.305118,66.8318133" id="Stroke-9"></path>
                    <path d="M35.886999,69.5299481 C37.4124406,67.3007512 38.7500404,64.9437185 39.8825075,62.4847814 M41.0037493,59.8453416 C44.2178162,51.6025122 45.1854498,42.3732385 43.3069672,33.0568613 C42.3657967,28.3364571 37.7714189,25.2834994 33.0546526,26.234804 M30.0588762,27.4480598 C27.1329331,29.3330769 25.5067906,32.8792362 26.236493,36.4972528 C27.7872399,44.0468291 26.3715456,51.5112659 22.8044127,57.7022129 M21.3079016,60.0466494 C20.1060984,61.7533596 18.7292974,63.3381917 17.1971502,64.7716061" id="Stroke-11"></path>
                    <path d="M41.4308625,68.9001278 C47.6952853,58.2211423 50.2074987,45.2884924 47.5676998,32.1975949 L47.5739361,32.1949964 C46.1486682,25.1268628 39.2642474,20.5524934 32.1963736,21.9777613 C25.12824,23.4030292 20.5538706,30.2874501 21.9793983,37.3558435 L22.0033044,37.3516859 C23.9308591,46.9122844 20.368079,56.304761 13.4859968,62.2651613" id="Stroke-13"></path>
                    <path d="M47.2507888,67.233175 C52.491929,56.4746759 54.3763489,43.9749333 51.8285363,31.3387703 C49.9316437,21.9171907 40.7571798,15.8214094 31.3381986,17.7206406 C21.9186978,19.6201317 15.8226567,28.7948554 17.7218879,38.2146161 C19.3911534,46.3881444 16.2186655,54.4161576 10.184988,59.3582124" id="Stroke-15"></path>
                    <path d="M7.30420577,56.0962588 C11.7901073,52.4924912 14.3451777,46.7756037 13.7400608,40.7821081 M13.1492625,37.0095976 C11.9979766,25.990166 19.3984694,15.6981453 30.4795559,13.4637278 C37.2737321,12.0937032 43.9660042,14.0525721 48.8667805,18.2176214 M51.3305194,20.6761725 C53.6506013,23.3953859 55.3313594,26.7259127 56.0881255,30.4785945 C57.1790306,35.8861268 57.516006,41.2702647 57.1719483,46.5226968 M56.9159972,49.3843627 C56.334609,54.5075768 55.1052534,59.4838029 53.2976146,64.2095022" id="Stroke-17"></path>
                    <path d="M59.4578383,59.2684868 C61.2978393,52.3669547 62.022766,45.0851178 61.4630917,37.6720005 M61.0467468,33.7430973 C60.8594405,32.3714538 60.6275964,30.9968488 60.3501573,29.6208352 C57.4978025,15.49834 43.7427328,6.35947531 29.621277,9.20663313 M25.3767229,10.4402806 C13.7247025,14.9250793 6.65663596,27.2812663 9.20733472,39.9318756 C10.1955378,44.7637547 8.36438684,49.5122226 4.84967874,52.4903439" id="Stroke-19"></path>
                    <path d="M65.4655569,51.1193063 C65.876897,47.8152256 66.0529207,44.4559471 65.9788426,41.0628171 M65.7291645,36.5044764 C65.5035641,33.9342773 65.1329081,31.3503289 64.6109159,28.7616988 C63.7870883,24.6866576 62.185151,20.9673091 59.9911215,17.7273318 M57.1128831,14.106333 C50.1428197,6.59158435 39.5444781,2.77584393 28.763024,4.94972033 C18.6119071,6.99653213 10.6678644,13.8747536 6.84253444,22.7073207 M5.28801557,27.249396 C4.18808174,31.5460431 4.0145891,36.1512298 4.95000617,40.7903364 C5.53648378,43.6463291 4.64182608,46.4584074 2.80002134,48.4454673" id="Stroke-21"></path>
                </g>
            </g>
        </g>
    </g>
</svg>