<svg xmlns="http://www.w3.org/2000/svg" xmlns:xlink="http://www.w3.org/1999/xlink" width="88" height="88" viewBox="0 0 88 88">
    <defs>
        <circle id="a" cx="44" cy="44" r="44"/>
    </defs>
    <g fill="none" fill-rule="evenodd">
        <g>
            <mask id="b" fill="#fff">
                <use xlink:href="#a"/>
            </mask>
            <use fill="#EAF5FD" xlink:href="#a"/>
            <path fill="#C4D4E3" d="M-3 75h88v21H-3z" mask="url(#b)"/>
        </g>
        <path fill="#7AD468" d="M14.617 71.262v-1.417c-.511-.74-1.69-2.975.202-5.845 0 0 2.377 3.23.192 5.89v2.871c.391-1.029 1.502-2.874 4.465-3.069 0 0-1.021 3.992-4.465 3.771v.375c-.006.13-.058.154-.104.18-.118.064-.282-.033-.29-.18v-.877c-.919-.175-3.176-.943-3.784-4.267 0 0 2.743.385 3.784 2.568z"/>
        <path fill="#DDEBEF" d="M7 76.753l2.772-4.161 7.46-2.633 9.779 4.327 4.94 5.662H7.494z"/>
        <path fill="#7AD468" d="M63.889 72.13l1.421-1.756c.053-1.476.704-5.532 6.136-7.02 0 0-.034 6.596-5.65 7.505l-2.88 3.558c1.56-.848 4.909-1.921 9.1 1.074 0 0-5.38 3.83-9.804-.205l-.376.464c-.14.155-.234.127-.32.109-.224-.048-.35-.348-.21-.539l.878-1.085c-1.063-1.222-3.337-4.638-.823-9.42 0 0 3.314 3.473 2.528 7.315z"/>
        <path fill="#8CA5C5" d="M57.424 79.824H28.135c-4.117-.33-4.446-4.622-4.446-4.622L22.206 28h41.148L61.87 75.202s-.329 4.291-4.447 4.622z"/>
        <path fill="#6680AD" d="M67.762 27.012a1.03 1.03 0 0 0-.916-1.133L20.411 21a1.031 1.031 0 0 0-1.132.918l-.215 2.052c-.06.566.35 1.073.916 1.133l46.435 4.88a1.03 1.03 0 0 0 1.132-.918l.215-2.052z"/>
        <path fill="#95AAC9" d="M66.425 26.217l-45.672-4.8s5.223-2.97 18.23-2.733a5.59 5.59 0 0 1 .028-.746c.31-2.947 2.864-5.097 5.7-4.799 2.837.298 4.888 2.932 4.578 5.88a5.59 5.59 0 0 1-.127.735c12.762 2.472 17.256 6.457 17.263 6.463zm-19.666-6.894a2.92 2.92 0 0 0 .114-.559c.164-1.561-.923-2.957-2.426-3.115-1.502-.158-2.856.982-3.02 2.543-.02.193-.021.385-.005.57.863.04 1.757.094 2.681.163l.098.013c.883.121 1.736.25 2.558.385z"/>
        <path fill="#6680AD" d="M29.804 71.288h-1.977l-1.04-38.475h1.977l1.04 38.475zm5.492 0h-1.977l-.49-38.475h1.976l.49 38.475zm3.71 0h1.976V32.813h-1.977v38.475zm20.01-38.475l-1.04 38.475h-1.977l1.04-38.475h1.976zm-6.042 0l-.49 38.475h-1.977l.49-38.475h1.977zM44.82 71.288h1.976V32.813h-1.976v38.475zM22.206 28.272a.596.596 0 0 1 0-1.193h41.143a.596.596 0 0 1 0 1.193H22.206z"/>
    </g>
</svg>
