<svg xmlns="http://www.w3.org/2000/svg" width="24" height="20" viewBox="0 0 24 20">
    <g fill="#4070BE" fill-rule="nonzero">
        <path d="M22.315 7.484h-3.529l4.83-4.77c.248-.245.384-.57.384-.915 0-.346-.136-.67-.384-.915l-.503-.497a1.323 1.323 0 0 0-1.852 0l-7.186 7.097H1.54C.691 7.484 0 8.166 0 9.005v9.465c0 .84.691 1.522 1.54 1.522h20.775c.85 0 1.54-.683 1.54-1.522V9.005c0-.839-.69-1.521-1.54-1.521zm-.378-6.43a.357.357 0 0 1 .5 0l.503.498a.344.344 0 0 1 0 .494l-1.224 1.208-.86-.848-.143-.143 1.224-1.209zm-1.9 1.877l1.003.991-9.56 9.442-1.504.495.501-1.487 9.56-9.441zm2.862 15.54a.581.581 0 0 1-.584.576H1.54a.581.581 0 0 1-.584-.577V9.005c0-.318.262-.577.584-.577H13.12L9.72 11.783a.472.472 0 0 0-.115.185l-.84 2.488a.468.468 0 0 0 .116.484.481.481 0 0 0 .489.114l2.52-.83a.48.48 0 0 0 .186-.114l5.753-5.682h4.485c.322 0 .584.259.584.577v9.465z"/>
        <path d="M21.144 17.043h-.285a.475.475 0 0 0-.478.472c0 .26.214.472.478.472h.285a.475.475 0 0 0 .478-.472.475.475 0 0 0-.478-.472zM18.959 17.043H8.079a.475.475 0 0 0-.478.472c0 .26.214.472.478.472h10.88a.475.475 0 0 0 .478-.472.475.475 0 0 0-.478-.472zM21.144 14.321h-7.126a.475.475 0 0 0-.478.472c0 .261.214.473.478.473h7.126a.475.475 0 0 0 .478-.473.475.475 0 0 0-.478-.472zM5.043 12.788v-1.751c.611.043.838.319 1.048.319.262 0 .384-.328.384-.492 0-.422-.838-.603-1.432-.62v-.233c0-.104-.13-.199-.262-.199-.148 0-.253.095-.253.199v.25c-.83.086-1.66.517-1.66 1.604 0 1.104.874 1.414 1.66 1.69v2.027c-.89-.069-1.127-.673-1.415-.673-.218 0-.401.285-.401.492 0 .422.733 1 1.816 1.017v.268c0 .103.105.198.253.198.131 0 .262-.095.262-.198v-.293c.943-.13 1.59-.716 1.59-1.777 0-1.173-.83-1.552-1.59-1.828zm-.463-.164c-.462-.173-.838-.354-.838-.845 0-.449.35-.665.838-.725v1.57zm.41 2.94v-1.82c.429.182.77.423.77.967 0 .491-.298.767-.77.854z"/>
    </g>
</svg>
