<svg xmlns="http://www.w3.org/2000/svg" xmlns:xlink="http://www.w3.org/1999/xlink" width="9" height="89" viewBox="0 0 9 89">
    <defs>
        <path id="a" d="M.203.07h6.574v55.067H.203z"/>
        <path id="c" d="M0 88.93h8.986V.252H0z"/>
    </defs>
    <g fill="none" fill-rule="evenodd" opacity=".5">
        <path fill="#FFF" d="M6.03 86.239l-2.79.993v-.37l2.02-.666c.173-.054.327-.109.458-.145-.144-.035-.294-.083-.457-.132l-2.02-.698v-.35l2.788 1.014v.354zm-2.79-3.37h2.79v-.349H3.24v.35zm1.687-3.784h-.32v-1.097H5.64c.15.173.255.339.327.511.072.184.099.366.099.553 0 .253-.047.487-.16.685a1.036 1.036 0 0 1-.514.475c-.215.108-.47.157-.751.157-.269 0-.52-.049-.758-.157a1.055 1.055 0 0 1-.516-.457 1.29 1.29 0 0 1-.17-.67c0-.19.016-.362.091-.507a.901.901 0 0 1 .274-.36c.118-.085.269-.145.457-.196l.092.311a1.05 1.05 0 0 0-.333.142.708.708 0 0 0-.196.248.81.81 0 0 0-.075.362.86.86 0 0 0 .082.4c.045.109.124.207.196.27.091.07.183.125.274.158a1.5 1.5 0 0 0 .562.103c.25 0 .461-.03.64-.115a.794.794 0 0 0 .363-.344 1.045 1.045 0 0 0 .03-.919 1.41 1.41 0 0 0-.196-.32h-.53v.767zM3.24 75.786h2.79v-.347H3.24v.347zm2.79-2.568H3.24v-.35h2.451v-1.262h.338v1.612zm0-3.377l-2.79-.99v-.37l2.79-1.056v.392l-.844.302v1.075l.843.287v.36zm-1.148-.74v-.88l-.772.272a6.04 6.04 0 0 1-.582.182c.184.027.354.078.53.141l.824.285zm1.147-3.583H3.24v-.9c0-.19.01-.342.037-.45a.84.84 0 0 1 .206-.38c.121-.138.281-.234.473-.303.193-.073.415-.106.664-.106.219 0 .405.027.566.079.162.039.29.096.401.166.104.078.19.154.255.232a1.1 1.1 0 0 1 .148.311c.028.121.04.26.04.422v.93zm-.338-.347v-.553c0-.163-.013-.29-.039-.403a.6.6 0 0 0-.146-.223.807.807 0 0 0-.36-.184 1.555 1.555 0 0 0-.532-.073c-.29 0-.514.043-.667.136-.163.088-.268.187-.32.314a1.228 1.228 0 0 0-.066.447v.539h2.13zm-1.025-3.798c-.458 0-.823-.118-1.085-.344a1.126 1.126 0 0 1-.385-.885c0-.242.055-.448.17-.65.134-.184.306-.335.522-.432.222-.106.477-.154.745-.154.288 0 .543.056.765.16.223.109.392.25.507.444.113.202.16.396.16.632 0 .244-.047.456-.17.646-.132.2-.308.342-.53.44a1.716 1.716 0 0 1-.699.143zm0-.347c.36 0 .614-.084.806-.254a.793.793 0 0 0 .291-.628.811.811 0 0 0-.29-.638c-.2-.163-.474-.25-.84-.25a1.36 1.36 0 0 0-.589.114.839.839 0 0 0-.397.311.73.73 0 0 0-.14.45c0 .253.097.453.27.635.18.17.477.26.89.26z"/>
        <g transform="translate(1.09 .183)">
            <mask id="b" fill="#fff">
                <use xlink:href="#a"/>
            </mask>
            <path fill="#FFF" d="M6.732 38.997H4.153v-.812c0-.192.016-.333.04-.432a.747.747 0 0 1 .189-.344 1 1 0 0 1 .439-.284c.179-.066.382-.1.61-.1.196 0 .373.025.52.067.156.04.284.097.38.17.1.065.172.133.234.21a.705.705 0 0 1 .128.281c.039.124.039.248.039.388v.856zm-.3-.313v-.505c0-.16-.017-.283-.053-.377a.447.447 0 0 0-.131-.206.794.794 0 0 0-.326-.178 1.676 1.676 0 0 0-.505-.06c-.264 0-.47.045-.613.12a.64.64 0 0 0-.295.303 1.26 1.26 0 0 0-.049.404v.499h1.971zm.3-2.097H4.153V34.86h.307v1.416h.792v-1.328h.303v1.328h.876v-1.468h.301v1.78zm-.906-4.842l.096-.317c.277.058.483.183.643.347a.993.993 0 0 1 .212.643c0 .251-.045.457-.163.623-.11.16-.274.287-.497.372a1.996 1.996 0 0 1-.7.12c-.253 0-.49-.046-.688-.145a.936.936 0 0 1-.46-.402 1.132 1.132 0 0 1-.158-.585c0-.224.065-.43.196-.599a1.07 1.07 0 0 1 .555-.336l.086.305c-.197.058-.337.143-.405.243a.571.571 0 0 0-.141.404.714.714 0 0 0 .529.713c.16.051.324.07.486.07.23 0 .42-.025.582-.082a.724.724 0 0 0 .377-.278.727.727 0 0 0 .108-.4.661.661 0 0 0-.154-.452.827.827 0 0 0-.504-.244zm-.346-.617c-.427 0-.768-.105-1.01-.323a1.044 1.044 0 0 1-.36-.816c0-.22.06-.422.171-.595.111-.178.267-.31.484-.404a1.54 1.54 0 0 1 .69-.14c.257 0 .496.042.696.142.206.106.365.24.477.417.104.173.149.374.149.58a.997.997 0 0 1-.176.608 1.085 1.085 0 0 1-.471.398c-.208.091-.424.133-.65.133zm.003-.326c.314 0 .555-.063.739-.217a.81.81 0 0 0 .262-.596.745.745 0 0 0-.269-.583c-.177-.154-.438-.226-.767-.226-.2 0-.389.027-.549.092a.76.76 0 0 0-.356.285.66.66 0 0 0-.141.432c0 .22.094.408.25.569.169.169.446.244.83.244zm1.249-2.35H4.153v-.312h2.278v-1.177h.301v1.489zm-1.252-1.77c-.427 0-.768-.108-1.01-.322a1.047 1.047 0 0 1-.36-.818c0-.22.06-.426.171-.592a1.08 1.08 0 0 1 .484-.416 1.67 1.67 0 0 1 .69-.137c.257 0 .496.049.696.155.206.085.365.239.477.404.104.191.149.384.149.586 0 .23-.045.426-.176.601a1.12 1.12 0 0 1-.471.406 1.554 1.554 0 0 1-.65.132zm.003-.322c.314 0 .555-.08.739-.24a.751.751 0 0 0 .262-.578.75.75 0 0 0-.269-.586c-.177-.15-.438-.232-.767-.232-.2 0-.389.034-.549.09a.767.767 0 0 0-.356.297.68.68 0 0 0-.141.431c0 .22.094.42.25.578.169.16.446.24.83.24zm1.249-2.355H4.153v-.475l1.833-.564.39-.116c-.105-.017-.238-.075-.425-.12l-1.798-.575v-.428h2.579v.309H4.575l2.157.694v.275l-2.189.697h2.189v.303zm0-2.774H4.153v-.904c0-.176.03-.321.082-.434a.529.529 0 0 1 .243-.25.674.674 0 0 1 .343-.103c.107 0 .212.04.31.09.098.054.169.136.238.245a.641.641 0 0 1 .226-.335.731.731 0 0 1 .39-.112c.127 0 .237.02.345.065a.6.6 0 0 1 .235.18.59.59 0 0 1 .128.265c.039.109.039.233.039.387v.906zm-1.484-.308v-.526c0-.14-.019-.241-.032-.307a.32.32 0 0 0-.142-.181.403.403 0 0 0-.212-.049.499.499 0 0 0-.235.049.282.282 0 0 0-.13.169c-.027.065-.037.189-.037.358v.487h.788zm1.183 0v-.598c0-.102 0-.182-.006-.22a.614.614 0 0 0-.079-.182.504.504 0 0 0-.13-.125.688.688 0 0 0-.23-.037.412.412 0 0 0-.251.069.356.356 0 0 0-.147.18c-.02.077-.04.204-.04.354v.56h.883zm-2.278-1.985h2.579v-.314H4.153v.314zm2.579-.61l-2.579-.915v-.344l2.579-.97v.353l-.781.28v.995l.781.267v.334zm-1.052-.691v-.804l-.72.244a5.893 5.893 0 0 1-.541.174c.168.028.346.069.509.12l.752.266zm-3.686 37.5l-.02-.3a.771.771 0 0 0 .317-.099.619.619 0 0 0 .199-.242.888.888 0 0 0 .079-.366c0-.115-.027-.226-.056-.32a.55.55 0 0 0-.154-.205c-.084-.04-.144-.07-.238-.07a.33.33 0 0 0-.213.07.447.447 0 0 0-.144.214 3.844 3.844 0 0 0-.117.427c-.055.222-.12.365-.167.45a.594.594 0 0 1-.238.262.605.605 0 0 1-.334.079.703.703 0 0 1-.35-.097.666.666 0 0 1-.27-.296 1.204 1.204 0 0 1-.085-.453c0-.163.032-.321.097-.454a.635.635 0 0 1 .278-.314.761.761 0 0 1 .396-.115L1 53.62a.523.523 0 0 0-.366.154.602.602 0 0 0-.134.412c0 .202.043.335.12.416a.329.329 0 0 0 .275.137.29.29 0 0 0 .223-.094c.059-.055.124-.223.186-.475.068-.253.117-.428.167-.527.07-.14.163-.24.268-.313a.818.818 0 0 1 .366-.096.794.794 0 0 1 .673.42c.066.139.098.293.098.468 0 .215-.032.399-.104.54a.883.883 0 0 1-.778.475zM.25 51.233v-.311h1.488c.255 0 .46.024.62.084a.713.713 0 0 1 .38.297c.085.139.137.323.137.55 0 .226-.046.407-.13.546a.677.677 0 0 1-.354.312c-.164.06-.378.087-.653.087H.25v-.317h1.488c.228 0 .382-.019.489-.055a.438.438 0 0 0 .242-.192.624.624 0 0 0 .099-.352c0-.232-.056-.403-.17-.492-.124-.103-.34-.157-.66-.157H.25zm2.58-.843H.25v-.9c0-.154.013-.272.02-.356a.739.739 0 0 1 .121-.303.661.661 0 0 1 .262-.18.708.708 0 0 1 .343-.07c.215 0 .414.064.558.187.15.121.23.362.23.697v.624H2.83v.301zm-1.35-.3v-.625c0-.21-.044-.35-.128-.434-.078-.09-.196-.127-.343-.127a.562.562 0 0 0-.281.07c-.075.057-.135.117-.15.202-.02.048-.02.151-.02.29v.623h.921zm1.35-1.93H.25v-1.727h.308v1.416h.78V46.52h.314v1.33h.883v-1.465h.294v1.776zm0-2.223H.25v-1.06c0-.203.02-.372.07-.477a.528.528 0 0 1 .238-.27.782.782 0 0 1 .395-.096c.187 0 .347.049.46.17.128.11.21.27.246.501a.612.612 0 0 1 .124-.188c.092-.097.21-.18.337-.265l.71-.412v.396l-.54.321c-.154.085-.277.17-.356.23a1.018 1.018 0 0 0-.17.148.478.478 0 0 0-.066.147c-.02.045-.02.097-.02.178v.363H2.83v.314zm-1.438-.314v-.676a.916.916 0 0 0-.053-.34.39.39 0 0 0-.154-.187.544.544 0 0 0-.232-.063.421.421 0 0 0-.3.121c-.076.079-.118.215-.118.39v.755h.857zM.25 43.491h2.58v-.323H.25v.323zm2.58-.874H.25v-.326l2.024-1.248H.251v-.307h2.58v.326L.802 42.309H2.83v.308zm0-3.018H.558v.784H.25v-1.887h.308v.782H2.83v.321zm0-1.438H.25v-1.725h.308v1.411h.78v-1.316h.314v1.316h.883v-1.465h.294v1.779zm0-2.216H.25v-.333l2.024-1.238H.251v-.303h2.58v.32L.802 35.641H2.83v.303zm0-2.411H.25v-.817c0-.193.013-.326.037-.432a.809.809 0 0 1 .176-.353c.12-.12.265-.214.444-.277.183-.058.393-.097.618-.097.193 0 .37.033.53.063.14.05.277.097.369.17.11.06.17.137.235.22a.813.813 0 0 1 .124.283c.033.107.046.23.046.385v.855zm-.295-.315v-.504a.858.858 0 0 0-.066-.373.513.513 0 0 0-.117-.214.774.774 0 0 0-.34-.168 1.35 1.35 0 0 0-.487-.068c-.277 0-.48.036-.63.122-.134.078-.242.171-.292.292-.026.091-.045.23-.045.411v.502h1.977zm.294-2.103H.25v-1.722H.56v1.408h.78v-1.314h.314v1.314h.883v-1.46h.294v1.774zm0-2.211H.25v-.32l2.025-1.256H.251v-.3h2.58v.323L.802 28.597H2.83v.308zm-.915-4.109l.099-.323c.277.061.5.193.64.362.143.176.222.39.222.634 0 .248-.059.46-.176.618a.964.964 0 0 1-.485.38c-.221.078-.45.118-.689.118-.277 0-.51-.04-.703-.148a.967.967 0 0 1-.463-.394 1.232 1.232 0 0 1-.157-.582c0-.236.061-.442.192-.601.141-.17.324-.281.566-.347l.072.301c-.187.073-.326.142-.405.248a.623.623 0 0 0-.135.407c0 .182.05.34.148.458a.83.83 0 0 0 .375.265c.16.045.337.073.51.073.213 0 .402-.028.566-.089a.666.666 0 0 0 .365-.286.716.716 0 0 0 .124-.398.618.618 0 0 0-.165-.453c-.106-.119-.275-.204-.5-.243zm-1.664-.758h2.58v-.317H.25v.317zm2.58-.613l-2.58-.921v-.341l2.58-.98v.37l-.776.273v1.007l.775.254v.338zm-1.06-.695v-.81l-.716.255c-.212.072-.401.133-.536.172.161.03.327.069.497.13l.755.253zm1.06-2.737H.25v-1.607h.308v1.298h.794V18.56h.307v1.124h1.17v.31zM.25 17.921h2.58v-.315H.25v.315zm2.58-.876H.25v-.312l2.024-1.26H.251v-.307h2.58v.322l-2.028 1.26H2.83v.297zm0-2.143l-2.58-.924v-.335l2.58-.976v.357l-.776.29v.993l.775.264v.331zm-1.06-.692V13.4l-.716.247a3.7 3.7 0 0 1-.536.17c.161.046.327.075.497.13l.755.262zm1.06-1.788H.25v-.33l2.024-1.247H.251v-.305h2.58v.327L.802 12.113H2.83v.309zm-.916-4.126l.099-.308c.277.075.5.184.64.356.143.178.222.38.222.632 0 .259-.059.467-.176.63a.994.994 0 0 1-.485.363c-.221.084-.45.128-.689.128-.277 0-.51-.044-.703-.137-.203-.1-.359-.229-.463-.405a1.226 1.226 0 0 1-.157-.589c0-.235.061-.428.192-.6.141-.161.324-.27.566-.34l.072.316c-.187.063-.326.131-.405.237a.577.577 0 0 0-.135.397c0 .186.05.344.148.462.097.124.221.211.375.26.16.05.337.084.51.084.213 0 .402-.034.566-.094a.711.711 0 0 0 .365-.284A.72.72 0 0 0 2.581 9a.605.605 0 0 0-.165-.448c-.106-.133-.275-.208-.5-.256zm-1.664-.75h2.58V7.23H.25v.317zm2.58-.879H.25V4.942h.308v1.414h.78V5.032h.314v1.324h.883V4.882h.294v1.785zm0-2.223H.25V3.39c0-.218.02-.375.07-.49.039-.114.124-.202.238-.266a.85.85 0 0 1 .395-.097c.187 0 .347.055.46.161.128.108.21.278.246.514a.544.544 0 0 1 .124-.192c.092-.09.21-.184.337-.256l.71-.419v.397l-.54.306a3.984 3.984 0 0 0-.356.239c-.072.058-.142.107-.17.147a.498.498 0 0 0-.066.148c-.02.036-.02.097-.02.18v.367H2.83v.315zm-1.438-.315v-.676a.89.89 0 0 0-.053-.338.337.337 0 0 0-.154-.184.503.503 0 0 0-.232-.073.413.413 0 0 0-.3.121c-.076.09-.118.217-.118.392v.758h.857zM2.83 2.297L.25 1.38v-.335L2.83.07v.359l-.775.277v1l.775.254v.337zm-1.059-.68V.797l-.716.261c-.212.08-.401.129-.536.166a3.9 3.9 0 0 1 .497.125l.755.266z" mask="url(#b)"/>
        </g>
        <mask id="d" fill="#fff">
            <use xlink:href="#c"/>
        </mask>
        <path fill="#FFF" d="M0 88.93h1.081V57.213H0V88.93zm7.901 0h1.085V57.213H7.9V88.93z" mask="url(#d)"/>
    </g>
</svg>
