<svg xmlns="http://www.w3.org/2000/svg" width="48" height="24" viewBox="0 0 48 24">
    <defs>
        <linearGradient id="a" x1="100%" x2="0%" y1="63.689%" y2="63.689%">
            <stop offset="0%" stop-color="#004EA6"/>
            <stop offset="100%" stop-color="#251E62"/>
        </linearGradient>
    </defs>
    <path fill="url(#a)" fill-rule="evenodd" d="M15.725 18.891h-3.713L9.228 8.031c-.132-.5-.412-.942-.825-1.15A11.901 11.901 0 0 0 5 5.73v-.418h5.98c.826 0 1.445.628 1.548 1.358l1.445 7.834 3.71-9.192h3.61l-5.568 13.578zm7.632 0H19.85l2.887-13.578h3.507l-2.887 13.578zm7.423-9.816c.103-.732.722-1.15 1.444-1.15 1.135-.105 2.372.105 3.403.626l.62-2.923A8.704 8.704 0 0 0 33.05 5c-3.403 0-5.88 1.88-5.88 4.49 0 1.987 1.755 3.03 2.993 3.657 1.34.627 1.855 1.045 1.752 1.671 0 .94-1.032 1.358-2.062 1.358-1.238 0-2.476-.313-3.61-.837l-.618 2.926c1.238.521 2.577.731 3.815.731 3.816.103 6.187-1.776 6.187-4.596 0-3.551-4.847-3.76-4.847-5.325zm17.118 9.816L45.114 5.313h-2.99c-.619 0-1.238.418-1.444 1.045L35.524 18.89h3.61l.72-1.984h4.435l.413 1.984h3.196zM42.64 8.97l1.03 5.117h-2.887L42.64 8.97z"/>
</svg>
