<?xml version="1.0" encoding="UTF-8"?>
<svg width="29px" height="23px" viewBox="0 0 29 23" version="1.1" xmlns="http://www.w3.org/2000/svg" xmlns:xlink="http://www.w3.org/1999/xlink">
    <!-- Generator: sketchtool 48.2 (47327) - http://www.bohemiancoding.com/sketch -->
    <title>87AF56ED-8561-40BD-BFAA-FB20B7B10AAE</title>
    <desc>Created with sketchtool.</desc>
    <defs></defs>
    <g id="01_01_consulta-productos_drop" stroke="none" stroke-width="1" fill="none" fill-rule="evenodd" transform="translate(-866.000000, -233.000000)" opacity="0.600000024">
        <g id="noun_1401831_cc-copy" transform="translate(866.000000, 233.000000)" fill="#FFFFFF" fill-rule="nonzero">
            <g id="Group">
                <path d="M26.147125,0.201388889 L2.852875,0.201388889 C1.29855556,0.201388889 0.0334305556,1.46611111 0.0334305556,3.02083333 L0.0334305556,19.5347222 C0.0334305556,21.0890417 1.29855556,22.3541667 2.852875,22.3541667 L26.147125,22.3541667 C27.7014444,22.3541667 28.9665694,21.0890417 28.9665694,19.5347222 L28.9665694,3.02083333 C28.9665694,1.46611111 27.7014444,0.201388889 26.147125,0.201388889 Z M2.852875,1.00694444 L26.147125,1.00694444 C27.2575833,1.00694444 28.1610139,1.910375 28.1610139,3.02083333 L28.1610139,5.50476389 L0.838986111,5.50476389 L0.838986111,3.02083333 C0.838986111,1.910375 1.74241667,1.00694444 2.852875,1.00694444 Z M26.147125,21.5486111 L2.852875,21.5486111 C1.74241667,21.5486111 0.838986111,20.6451806 0.838986111,19.5347222 L0.838986111,6.31031944 L28.1610139,6.31031944 L28.1610139,19.5347222 C28.1610139,20.6451806 27.2575833,21.5486111 26.147125,21.5486111 Z" id="Shape"></path>
                <g id="visa" transform="translate(16.513889, 11.680556)">
                    <path d="M2.26552214,1.11247615 C1.5996368,0.69893288 0.839432128,0.369137207 0,0.155598508 L0.0329759776,0 L3.26028366,0 C3.69736469,0.0161473246 4.19008678,0.299217802 4.30558129,0.791776843 C4.30558129,0.791776843 4.76200487,3.09676132 4.93875278,3.98935587 C4.96193988,4.05231892 4.98307537,4.11510439 5.00206526,4.17760177 L5.21514524,5.20395344 L7.16202907,0 C7.16202907,0 9.26388889,0 9.26388889,0 L6.13927079,7.65277778 L4.0365146,7.65277778 L2.26552214,1.11247615 Z" id="Combined-Shape"></path>
                </g>
            </g>
        </g>
    </g>
</svg>