<svg xmlns="http://www.w3.org/2000/svg" width="48" height="17" viewBox="0 0 48 17">
    <g fill="none" fill-rule="evenodd">
        <g fill="#FFF">
            <g>
                <g>
                    <path d="M18.224 16.776L11.94 31.882h-4.1L4.747 19.826c-.187-.741-.35-1.014-.92-1.327-.934-.51-2.473-.988-3.827-1.285l.092-.438h6.6c.84 0 1.597.563 1.789 1.539l1.634 8.742 4.034-10.281h4.075zM34.288 26.95c.017-3.986-5.47-4.207-5.433-5.989.012-.54.524-1.117 1.645-1.265.555-.072 2.088-.13 3.825.676l.68-3.205c-.934-.34-2.135-.667-3.628-.667-3.835 0-6.532 2.052-6.554 4.993-.024 2.175 1.927 3.387 3.394 4.112 1.513.74 2.02 1.215 2.012 1.876-.01 1.014-1.206 1.463-2.32 1.48-1.95.03-3.081-.532-3.983-.955l-.704 3.311c.908.42 2.58.783 4.312.802 4.076 0 6.742-2.028 6.754-5.169zm10.126 4.932H48l-3.133-15.106h-3.309c-.745 0-1.374.436-1.652 1.107l-5.82 13.999h4.074l.808-2.256h4.976l.47 2.256zm-4.33-5.352l2.042-5.673L43.3 26.53h-3.216zm-16.317-9.754L20.56 31.882H16.68l3.207-15.106h3.879z" transform="translate(-476 -284) translate(228 140) translate(248 128)"/>
                </g>
            </g>
        </g>
    </g>
</svg>