<svg xmlns="http://www.w3.org/2000/svg" width="239" height="82" viewBox="0 0 239 82">
    <defs>
        <linearGradient id="a" x1="72.734%" x2="72.734%" y1="5.57%" y2="100%">
            <stop offset="0%" stop-color="#0074D3"/>
            <stop offset="100%" stop-color="#0040A8"/>
        </linearGradient>
    </defs>
    <g fill="none" fill-rule="evenodd">
        <path stroke="#0040A8" stroke-linecap="round" stroke-linejoin="round" stroke-width="3" d="M2 80.5h235"/>
        <g transform="translate(67)">
            <rect width="104" height="78" x=".5" y=".5" fill="#FFF" stroke="#D6E0F1" rx="10"/>
            <path fill="url(#a)" d="M10 0h85c5.523 0 10 4.477 10 10v5H0v-5C0 4.477 4.477 0 10 0z" opacity=".8"/>
            <path stroke="#FFF" d="M0 14.5h105" opacity=".8"/>
            <circle cx="9" cy="8" r="2" fill="#FFF"/>
            <circle cx="15" cy="8" r="2" fill="#FFF"/>
            <circle cx="21" cy="8" r="2" fill="#FFF"/>
            <g transform="translate(46 34)">
                <ellipse cx="2.917" cy="2.941" fill="#FFF" rx="2.917" ry="2.941"/>
                <ellipse cx="11.083" cy="2.941" fill="#FFF" rx="2.917" ry="2.941"/>
                <path stroke="#FFF" stroke-linecap="round" stroke-width="3.6" d="M14 20c0-3.898-3.134-7.059-7-7.059S0 16.101 0 20"/>
            </g>
        </g>
        <path fill="#DEF1FF" d="M148.04 57.739c-1.733 4.662-4.352 8.716-7.787 12.047-3.91 3.792-9.03 6.805-15.218 8.955a4.772 4.772 0 0 1-1.479.26l-.055-.001a4.756 4.756 0 0 1-1.531-.258c-6.196-2.146-11.322-5.158-15.236-8.95-3.436-3.331-6.055-7.382-7.785-12.044-3.145-8.477-2.966-17.815-2.822-25.319l.003-.115c.029-.62.047-1.27.058-1.99.052-3.528 2.877-6.448 6.43-6.644 7.41-.411 13.141-2.81 18.038-7.552l.043-.039a4.144 4.144 0 0 1 5.604 0l.042.04c4.898 4.74 10.63 7.14 18.039 7.55 3.553.197 6.378 3.117 6.43 6.646.011.723.03 1.373.059 1.989l.001.049c.144 7.518.322 16.874-2.835 25.376z" opacity=".8"/>
        <g fill-rule="nonzero">
            <path fill="#FDC130" d="M144.04 53.739c-1.733 4.662-4.352 8.716-7.787 12.047-3.91 3.792-9.03 6.805-15.218 8.955a4.772 4.772 0 0 1-1.479.26l-.055-.001a4.756 4.756 0 0 1-1.531-.258c-6.196-2.146-11.322-5.158-15.236-8.95-3.436-3.331-6.055-7.382-7.785-12.044-3.145-8.477-2.966-17.815-2.822-25.319l.003-.115c.029-.62.047-1.27.058-1.99.052-3.528 2.877-6.448 6.43-6.644 7.41-.411 13.141-2.81 18.038-7.552l.043-.039a4.144 4.144 0 0 1 5.604 0l.042.04c4.898 4.74 10.63 7.14 18.039 7.55 3.553.197 6.378 3.117 6.43 6.646.011.723.03 1.373.059 1.989l.001.049c.144 7.518.322 16.874-2.835 25.376z"/>
            <path fill="#F69B31" d="M144.04 53.739c-1.733 4.662-4.352 8.716-7.787 12.047-3.91 3.792-9.03 6.805-15.218 8.955a4.772 4.772 0 0 1-1.479.26V11a4.15 4.15 0 0 1 2.747 1.088l.042.04c4.898 4.74 10.63 7.14 18.039 7.55 3.553.197 6.378 3.117 6.43 6.646.011.723.03 1.373.059 1.989l.001.049c.144 7.518.322 16.874-2.835 25.376z"/>
            <path fill="#FFF" d="M132.307 42.96c0 7.13-5.653 12.934-12.609 12.96h-.045c-6.976 0-12.653-5.815-12.653-12.96 0-7.146 5.677-12.96 12.653-12.96h.045c6.956.025 12.609 5.83 12.609 12.96z"/>
            <path fill="#EAF5FD" d="M132.307 42.96c0 7.13-5.653 12.934-12.609 12.96V30c6.956.025 12.609 5.83 12.609 12.96z"/>
            <path fill="#B4D2D7" d="M124.083 39.542h-.791v-1.584A3.96 3.96 0 0 0 119.333 34a3.96 3.96 0 0 0-3.958 3.958v1.584h-.792c-.87 0-1.583.712-1.583 1.583v7.917c0 .87.712 1.583 1.583 1.583h9.5c.871 0 1.584-.713 1.584-1.583v-7.917c0-.87-.713-1.583-1.584-1.583zm-4.75 7.125c-.87 0-1.583-.713-1.583-1.584 0-.87.712-1.583 1.583-1.583s1.584.713 1.584 1.583c0 .871-.713 1.584-1.584 1.584zm-2.375-7.125v-1.584a2.372 2.372 0 0 1 2.375-2.375 2.372 2.372 0 0 1 2.375 2.375v1.584h-4.75z"/>
        </g>
    </g>
</svg>
