<svg xmlns="http://www.w3.org/2000/svg" width="66" height="58" viewBox="0 0 66 58">
    <g fill="none" fill-rule="evenodd" transform="translate(1 1)">
        <path fill="#EAF5FD" d="M29.25 53c13.255 0 16.34-8.313 20.25-18.313 3.458-8.845-1.5-12.568-6.022-20.285C41.528 11.072 36.757 12 33 12 19.745 12 9 22.745 9 36s6.995 17 20.25 17z"/>
        <path fill="#6680AD" fill-rule="nonzero" stroke="#FFF" d="M17.066 3.479C14.152.006 8.983-.447 5.51 2.468L2.996 4.577C-.47 7.485-.923 12.669 1.985 16.134c.583.695 1.618.783 2.311.202l5.027-4.218c.398.472 1.01 1.21 1.126 1.332-4.775 4.603-7.605 10.91-7.605 17.831 0 6.615 2.607 13.012 7.6 17.827l-3.52 4.197c-.583.694-.493 1.729.202 2.311.69.58 1.726.495 2.31-.202l3.514-4.187C17.143 54.326 22.174 56 27.453 56s10.31-1.674 14.503-4.773l3.513 4.187c.581.692 1.616.786 2.312.202.694-.582.784-1.617.202-2.311l-3.521-4.197c4.8-4.63 7.6-10.945 7.6-17.827 0-6.603-2.6-13.007-7.604-17.83.133-.14-.125.15 1.125-1.333l5.027 4.218c.692.58 1.727.495 2.312-.202 2.907-3.465 2.454-8.65-1.011-11.557l-2.514-2.11C45.932-.44 40.747.015 37.84 3.48c-.28.333-.415.764-.377 1.197.038.434.246.835.58 1.114l5.027 4.219c-1.242 1.485-1.006 1.19-1.11 1.329-3.757-2.777-8.188-4.41-12.866-4.72V3.281h3.281c.906 0 1.64-.734 1.64-1.64 0-.906-.734-1.641-1.64-1.641h-9.844c-.906 0-1.64.735-1.64 1.64 0 .907.734 1.641 1.64 1.641h3.282v3.337c-4.68.31-9.11 1.943-12.867 4.72-.096-.129.05.058-1.11-1.33l5.028-4.218c.694-.582.785-1.617.202-2.311zm30.222 1.502l2.513 2.11c1.639 1.375 2.155 3.598 1.446 5.496l-9.623-8.075c1.746-1.028 4.025-.905 5.664.47h0zm1.493 26.3c0 11.821-9.568 21.438-21.328 21.438S6.125 43.102 6.125 31.28c0-11.82 9.568-21.437 21.328-21.437S48.781 19.46 48.781 31.28zM3.66 12.587c-.709-1.898-.193-4.121 1.446-5.496l2.513-2.11c1.687-1.414 3.974-1.47 5.666-.47L3.66 12.587z"/>
        <path fill="#6680AD" fill-rule="nonzero" stroke="#EAF5FD" d="M27.453 19.688c-.906 0-1.64.734-1.64 1.64v9.282l-6.092 6.193c-.635.646-.627 1.684.02 2.32.644.634 1.683.627 2.32-.02l6.562-6.671c.302-.307.47-.72.47-1.15v-9.954c0-.906-.734-1.64-1.64-1.64h0z"/>
        <circle cx="27.453" cy="14.766" r="1.641" fill="#A4B6C9" fill-rule="nonzero"/>
        <circle cx="27.453" cy="47.797" r="1.641" fill="#A4B6C9" fill-rule="nonzero"/>
        <circle cx="15.852" cy="19.571" r="1.641" fill="#A4B6C9" fill-rule="nonzero"/>
        <circle cx="39.054" cy="42.992" r="1.641" fill="#A4B6C9" fill-rule="nonzero"/>
        <circle cx="11.047" cy="31.281" r="1.641" fill="#A4B6C9" fill-rule="nonzero"/>
        <circle cx="43.859" cy="31.281" r="1.641" fill="#A4B6C9" fill-rule="nonzero"/>
        <circle cx="15.852" cy="42.992" r="1.641" fill="#A4B6C9" fill-rule="nonzero"/>
        <circle cx="39.054" cy="19.571" r="1.641" fill="#A4B6C9" fill-rule="nonzero"/>
        <g>
            <path fill="#FFF" d="M13.5 1.564L10.25 3.922 1.704 21.879 3.829 25.641 23.038 25.641 25.515 21.879 15.75 2.281z" transform="translate(37 29)"/>
            <path fill="#F69B31" fill-rule="nonzero" stroke="#FFF" stroke-width=".8" d="M13.5 0c1.913 0 3.661 1.08 4.516 2.791h0l8.452 16.904c.782 1.565.698 3.424-.222 4.912C25.326 26.094 23.7 27 21.952 27h0H5.048c-1.75 0-3.374-.906-4.294-2.393-.92-1.488-1.004-3.347-.222-4.912h0L8.984 2.792C9.84 1.08 11.587 0 13.5 0zm0 3c-.776 0-1.485.438-1.832 1.133h0L3.216 21.037c-.317.634-.283 1.388.09 1.992.373.604 1.032.971 1.742.971h16.904c.71 0 1.369-.367 1.742-.971s.407-1.358.09-1.992h0L15.332 4.132C14.985 3.438 14.276 3 13.5 3zm0 15l.245.013c1.127.122 2.005 1.077 2.005 2.237 0 1.243-1.007 2.25-2.25 2.25s-2.25-1.007-2.25-2.25c0-1.16.878-2.115 2.005-2.237L13.5 18zm0-10.5c.76 0 1.387.564 1.486 1.296L15 9v6c0 .828-.672 1.5-1.5 1.5-.76 0-1.387-.564-1.486-1.296L12 15V9c0-.828.672-1.5 1.5-1.5z" transform="translate(37 29)"/>
        </g>
    </g>
</svg>
