<svg xmlns="http://www.w3.org/2000/svg" width="20" height="17" viewBox="0 0 20 17">
    <g fill="none" fill-rule="evenodd">
        <path d="M22 20H-2V-4h24z" opacity=".87"/>
        <path fill="#FFF" d="M6 5h8v11H6z"/>
        <g fill="#F69B31" fill-rule="nonzero">
            <path d="M2.47 17h15.06c1.54 0 2.5-1.67 1.73-3L11.73.99c-.77-1.33-2.69-1.33-3.46 0L.74 14c-.77 1.33.19 3 1.73 3zM10 10c-.55 0-1-.45-1-1V7c0-.55.45-1 1-1s1 .45 1 1v2c0 .55-.45 1-1 1zm1 4H9v-2h2v2z"/>
        </g>
    </g>
</svg>
