<svg xmlns="http://www.w3.org/2000/svg" width="277" height="256" viewBox="0 0 277 256">
    <g fill="#F6FBFC" fill-rule="nonzero" transform="rotate(-15 134.702 129.404)">
        <path d="M211.875 207c6.009 3.056 10.125 9.297 10.125 16.5 0 10.217-8.283 18.5-18.5 18.5h-52c-10.217 0-18.5-8.283-18.5-18.5 0-7.203 4.116-13.444 10.125-16.5H44.5c-10.217 0-18.5-8.283-18.5-18.5S34.283 170 44.5 170h22c-10.217 0-18.5-8.283-18.5-18.5S56.283 133 66.5 133h-48C8.283 133 0 124.717 0 114.5S8.283 96 18.5 96h22.625C35.116 92.944 31 86.703 31 79.5 31 69.283 39.283 61 49.5 61h90.625C134.116 57.944 130 51.703 130 44.5c0-10.217 8.283-18.5 18.5-18.5h65c10.217 0 18.5 8.283 18.5 18.5S223.717 63 213.5 63h-24.625C194.884 66.056 199 72.297 199 79.5c0 7.203-4.116 13.444-10.125 16.5H217.5c10.217 0 18.5 8.283 18.5 18.5s-8.283 18.5-18.5 18.5h39c10.217 0 18.5 8.283 18.5 18.5s-8.283 18.5-18.5 18.5h-27c10.217 0 18.5 8.283 18.5 18.5s-8.283 18.5-18.5 18.5h-17.625z"/>
        <circle cx="115.5" cy="38.5" r="3.5"/>
        <circle cx="30.5" cy="160.5" r="6.5"/>
        <circle cx="193.5" cy="268.5" r="6.5"/>
        <circle cx="118.5" cy="236.5" r="3.5"/>
        <circle cx="240.5" cy="227.5" r="2.5"/>
        <circle cx="215.5" cy="79.5" r="6.5"/>
        <circle cx="264.5" cy="119.5" r="2.5" transform="matrix(1 0 0 -1 0 239)"/>
        <circle cx="11.5" cy="86.5" r="2.5"/>
        <circle cx="150.5" cy="5.5" r="5.5"/>
    </g>
</svg>
