<svg xmlns="http://www.w3.org/2000/svg" width="278" height="222" viewBox="0 0 278 222">
    <g fill="#F6FBFC" fill-rule="nonzero" transform="rotate(-15 -34.134 120.722)">
        <path d="M212.97 223.513c5.918 3.085 9.96 9.278 9.96 16.415v1.57c0 10.217-8.283 18.5-18.5 18.5h-52c-10.218 0-18.5-8.283-18.5-18.5v-1.57c0-7.137 4.04-13.33 9.96-16.415H45.43c-10.218 0-18.5-8.283-18.5-18.5v-1.57c0-10.218 8.282-18.5 18.5-18.5h22c-10.218 0-18.5-8.283-18.5-18.5v-1.571c0-10.217 8.282-18.5 18.5-18.5h-48c-10.218 0-18.5-8.283-18.5-18.5v-1.57c0-10.218 8.282-18.5 18.5-18.5h22.46c-5.92-3.086-9.96-9.279-9.96-16.415v-1.57c0-10.218 8.282-18.5 18.5-18.5h90.46c-5.92-3.086-9.96-9.28-9.96-16.416v-1.57c0-10.217 8.282-18.5 18.5-18.5h65c10.217 0 18.5 8.283 18.5 18.5v1.57c0 10.217-8.283 18.5-18.5 18.5h-24.46c5.918 3.086 9.96 9.279 9.96 16.415v1.57c0 7.137-4.042 13.33-9.96 16.416h28.46c10.217 0 18.5 8.282 18.5 18.5v1.57c0 10.217-8.283 18.5-18.5 18.5h39c10.217 0 18.5 8.283 18.5 18.5v1.57c0 10.218-8.283 18.5-18.5 18.5h-27c10.217 0 18.5 8.283 18.5 18.5v1.57c0 10.218-8.283 18.5-18.5 18.5h-17.46z"/>
        <ellipse cx="118.5" cy="40.134" rx="3.5" ry="3.649"/>
        <ellipse cx="33.5" cy="167.312" rx="6.5" ry="6.776"/>
        <ellipse cx="196.5" cy="279.895" rx="6.5" ry="6.776"/>
        <ellipse cx="121.5" cy="246.537" rx="3.5" ry="3.649"/>
        <ellipse cx="243.5" cy="237.155" rx="2.5" ry="2.606"/>
        <ellipse cx="218.5" cy="82.874" rx="6.5" ry="6.776"/>
        <ellipse cx="267.5" cy="124.572" rx="2.5" ry="2.606" transform="matrix(1 0 0 -1 0 249.143)"/>
        <ellipse cx="14.5" cy="90.171" rx="2.5" ry="2.606"/>
    </g>
</svg>
