<svg xmlns="http://www.w3.org/2000/svg" xmlns:xlink="http://www.w3.org/1999/xlink" width="202" height="111" viewBox="0 0 202 111">
    <defs>
        <linearGradient id="c" x1="100%" x2="0%" y1="100%" y2="0%">
            <stop offset="0%" stop-color="#002C76"/>
            <stop offset="100%" stop-color="#0041A8"/>
        </linearGradient>
        <path id="b" d="M2.098 0h34.08c1.16 0 2.1.94 2.1 2.099v6.323c0 1.159-.94 2.099-2.1 2.099H2.099A2.099 2.099 0 0 1 0 8.42V2.1C0 .939.94 0 2.098 0z"/>
        <filter id="a" width="110.5%" height="138%" x="-5.2%" y="-9.5%" filterUnits="objectBoundingBox">
            <feOffset dy="1" in="SourceAlpha" result="shadowOffsetOuter1"/>
            <feGaussianBlur in="shadowOffsetOuter1" result="shadowBlurOuter1" stdDeviation=".5"/>
            <feColorMatrix in="shadowBlurOuter1" values="0 0 0 0 0 0 0 0 0 0 0 0 0 0 0 0 0 0 0.05 0"/>
        </filter>
        <linearGradient id="d" x1="0%" y1="50%" y2="50%">
            <stop offset="0%" stop-color="#90B5FF"/>
            <stop offset="100%" stop-color="#90B5FF" stop-opacity=".8"/>
        </linearGradient>
        <rect id="e" width="46.629" height="93.283" rx="8.398"/>
        <linearGradient id="g" x1="0%" y1="2.209%" y2="100%">
            <stop offset="0%" stop-color="#EDF2F6"/>
            <stop offset="100%" stop-color="#E1E9F0"/>
        </linearGradient>
        <linearGradient id="j" x1="100%" x2="0%" y1="100%" y2="-102.018%">
            <stop offset="0%" stop-color="#0E43A0"/>
            <stop offset="100%" stop-color="#225BBD"/>
        </linearGradient>
        <path id="i" d="M2.329.247h7.546c.334 0 .605.27.605.604v75.926c0 .334-.271.605-.605.605H2.329A2.328 2.328 0 0 1 0 75.055V2.574A2.328 2.328 0 0 1 2.329.247z"/>
        <filter id="h" width="615.3%" height="170%" x="-257.6%" y="-27.2%" filterUnits="objectBoundingBox">
            <feOffset dy="6" in="SourceAlpha" result="shadowOffsetOuter1"/>
            <feGaussianBlur in="shadowOffsetOuter1" result="shadowBlurOuter1" stdDeviation="8"/>
            <feColorMatrix in="shadowBlurOuter1" values="0 0 0 0 0.4 0 0 0 0 0.501960784 0 0 0 0 0.678431373 0 0 0 0.3 0"/>
        </filter>
        <linearGradient id="k" x1="28.596%" x2="87.154%" y1="44.404%" y2="57.371%">
            <stop offset="0%" stop-color="#ED1C24"/>
            <stop offset="100%" stop-color="#8B0304"/>
        </linearGradient>
        <linearGradient id="l" x1="10.322%" x2="88.651%" y1="49.953%" y2="49.953%">
            <stop offset="0%" stop-color="#ED1C24"/>
            <stop offset="100%" stop-color="#FFCB05"/>
        </linearGradient>
        <linearGradient id="m" x1="50.002%" x2="50.002%" y1="-.786%" y2="35.658%">
            <stop offset="0%" stop-color="#E39717"/>
            <stop offset="12.36%" stop-color="#E8A116"/>
            <stop offset="43.44%" stop-color="#F4B710"/>
            <stop offset="73.21%" stop-color="#FCC509"/>
            <stop offset="100%" stop-color="#FFCB05"/>
        </linearGradient>
        <linearGradient id="n" x1="27.043%" x2="46.808%" y1="24.367%" y2="60.204%">
            <stop offset="0%" stop-color="#E39717"/>
            <stop offset="10.13%" stop-color="#E8A116"/>
            <stop offset="35.61%" stop-color="#F4B710"/>
            <stop offset="60%" stop-color="#FCC509"/>
            <stop offset="81.96%" stop-color="#FFCB05"/>
            <stop offset="100%" stop-color="#FFCB05"/>
        </linearGradient>
        <rect id="o" width="132.745" height="77.382" rx="1.75"/>
    </defs>
    <g fill="none" fill-rule="evenodd">
        <g transform="rotate(-15 39 11.394)">
            <path fill="#FFF" fill-rule="nonzero" d="M8.351 0h29.926c4.613 0 8.352 3.768 8.352 8.417v76.45c0 4.648-3.74 8.416-8.352 8.416H8.351C3.74 93.283 0 89.515 0 84.867V8.417C0 3.768 3.739 0 8.351 0z"/>
            <path fill="#6680AD" fill-rule="nonzero" d="M7.377 1.403c-3.305 0-5.985 2.7-5.985 6.032v78.413c0 3.332 2.68 6.032 5.985 6.032h31.875c3.305 0 5.985-2.7 5.985-6.032V7.435c0-3.332-2.68-6.032-5.985-6.032H7.377zm0-1.403h31.875c4.074 0 7.377 3.329 7.377 7.435v78.413c0 4.106-3.303 7.435-7.377 7.435H7.377C3.303 93.283 0 89.954 0 85.848V7.435C0 3.329 3.303 0 7.377 0z"/>
            <path fill="#C4D4E3" fill-rule="nonzero" d="M14.1 90.474a.42.42 0 0 1-.418-.421.42.42 0 0 1 .417-.421h17.929a.42.42 0 0 1 .417.42.42.42 0 0 1-.417.422H14.099z"/>
            <g transform="translate(4.176 77.151)">
                <use fill="#000" filter="url(#a)" xlink:href="#b"/>
                <use fill="url(#c)" xlink:href="#b"/>
                <path fill="url(#d)" d="M11.462 7.014h6.306c.18 0 .327.146.327.327v.047c0 .18-.147.327-.327.327h-6.306a.327.327 0 0 1-.327-.327v-.047c0-.18.147-.327.327-.327zM20.51 7.014h6.305c.18 0 .327.146.327.327v.047c0 .18-.146.327-.327.327H20.51a.327.327 0 0 1-.327-.327v-.047c0-.18.146-.327.327-.327z" opacity=".3"/>
                <path fill="url(#d)" d="M2.415 7.014H8.72c.18 0 .327.146.327.327v.047c0 .18-.146.327-.327.327H2.415a.327.327 0 0 1-.327-.327v-.047c0-.18.146-.327.327-.327z"/>
                <path fill="url(#d)" d="M29.557 7.014h6.305c.18 0 .327.146.327.327v.047c0 .18-.146.327-.327.327h-6.305a.327.327 0 0 1-.327-.327v-.047c0-.18.146-.327.327-.327z" opacity=".3"/>
                <ellipse cx="14.615" cy="4.208" fill="url(#d)" opacity=".3" rx="2.088" ry="2.104"/>
                <ellipse cx="23.662" cy="4.208" fill="url(#d)" opacity=".3" rx="2.088" ry="2.104"/>
                <ellipse cx="32.71" cy="4.208" fill="url(#d)" opacity=".3" rx="2.088" ry="2.104"/>
                <ellipse cx="5.568" cy="4.208" fill="url(#d)" rx="2.088" ry="2.104"/>
            </g>
            <mask id="f" fill="#fff">
                <use xlink:href="#e"/>
            </mask>
            <path fill="#C1E0FF" fill-rule="nonzero" d="M-14.615-48.947L.148-63.825 61.17-2.328 46.407 12.551zM-4.872-31.487l2.858-2.88L59.008 27.13l-2.858 2.88z" mask="url(#f)" opacity=".3" style="mix-blend-mode:multiply"/>
            <g transform="translate(4.872 11.923)">
                <rect width="36.022" height="13.487" fill="#C1E0FF" fill-rule="nonzero" opacity=".5" rx="2.519"/>
                <path fill="#FF0021" d="M1.392.276v12.877A2.314 2.314 0 0 1 0 11.026V2.492C0 1.544.542.682 1.392.276z"/>
                <ellipse cx="5.864" cy="6.744" fill="#C1E0FF" fill-rule="nonzero" rx="3.351" ry="3.372"/>
                <path fill="#C1E0FF" fill-rule="nonzero" d="M12.143 3.372h13.411c.692 0 1.253.565 1.253 1.262v.004c0 .697-.56 1.263-1.253 1.263H12.143a1.258 1.258 0 0 1-1.253-1.263v-.004c0-.697.561-1.262 1.253-1.262zM12.143 7.586h18.438c.691 0 1.252.566 1.252 1.263v.004c0 .697-.56 1.262-1.252 1.262H12.143a1.258 1.258 0 0 1-1.253-1.262v-.004c0-.697.561-1.263 1.253-1.263z"/>
            </g>
            <g transform="translate(6.264 27.354)">
                <rect width="36.022" height="13.487" fill="#C1E0FF" fill-rule="nonzero" opacity=".5" rx="2.519"/>
                <path fill="#008932" d="M1.392.276v12.877A2.314 2.314 0 0 1 0 11.026V2.492C0 1.544.542.682 1.392.276z"/>
                <ellipse cx="5.864" cy="6.744" fill="#C1E0FF" fill-rule="nonzero" rx="3.351" ry="3.372"/>
                <path fill="#C1E0FF" fill-rule="nonzero" d="M12.143 3.372h13.411c.692 0 1.253.565 1.253 1.262v.004c0 .697-.56 1.263-1.253 1.263H12.143a1.258 1.258 0 0 1-1.253-1.263v-.004c0-.697.561-1.262 1.253-1.262zM12.143 7.586h18.438c.691 0 1.252.566 1.252 1.263v.004c0 .697-.56 1.262-1.252 1.262H12.143a1.258 1.258 0 0 1-1.253-1.262v-.004c0-.697.561-1.263 1.253-1.263z"/>
            </g>
            <g transform="translate(4.872 43.131)">
                <rect width="36.022" height="13.487" fill="#C1E0FF" fill-rule="nonzero" opacity=".5" rx="2.519"/>
                <path fill="#0095E2" d="M1.392.276v12.877A2.314 2.314 0 0 1 0 11.026V2.492C0 1.544.542.682 1.392.276z"/>
                <ellipse cx="5.864" cy="6.744" fill="#C1E0FF" fill-rule="nonzero" rx="3.351" ry="3.372"/>
                <path fill="#C1E0FF" fill-rule="nonzero" d="M12.143 3.372h13.411c.692 0 1.253.565 1.253 1.262v.004c0 .697-.56 1.263-1.253 1.263H12.143a1.258 1.258 0 0 1-1.253-1.263v-.004c0-.697.561-1.262 1.253-1.262zM12.143 7.586h18.438c.691 0 1.252.566 1.252 1.263v.004c0 .697-.56 1.262-1.252 1.262H12.143a1.258 1.258 0 0 1-1.253-1.262v-.004c0-.697.561-1.263 1.253-1.263z"/>
            </g>
            <g transform="translate(4.872 58.562)">
                <rect width="36.022" height="13.487" fill="#C1E0FF" fill-rule="nonzero" opacity=".5" rx="2.519"/>
                <path fill="#FF8C00" d="M1.392.276v12.877A2.314 2.314 0 0 1 0 11.026V2.492C0 1.544.542.682 1.392.276z"/>
                <ellipse cx="5.864" cy="6.744" fill="#C1E0FF" fill-rule="nonzero" rx="3.351" ry="3.372"/>
                <path fill="#C1E0FF" fill-rule="nonzero" d="M12.143 3.372h13.411c.692 0 1.253.565 1.253 1.262v.004c0 .697-.56 1.263-1.253 1.263H12.143a1.258 1.258 0 0 1-1.253-1.263v-.004c0-.697.561-1.262 1.253-1.262zM12.143 7.586h18.438c.691 0 1.252.566 1.252 1.263v.004c0 .697-.56 1.262-1.252 1.262H12.143a1.258 1.258 0 0 1-1.253-1.262v-.004c0-.697.561-1.263 1.253-1.263z"/>
            </g>
            <path fill="url(#g)" fill-rule="nonzero" d="M11.586.701h23.456v2.533a2.515 2.515 0 0 1-2.505 2.525H14.092a2.515 2.515 0 0 1-2.506-2.525V.701z"/>
            <path fill="#6680AD" fill-rule="nonzero" d="M12.282 1.403v1.831c0 1.007.81 1.824 1.81 1.824h18.445c1 0 1.81-.817 1.81-1.824V1.403H12.281zM35.738 0v3.234c0 1.782-1.433 3.226-3.201 3.226H14.092c-1.768 0-3.202-1.444-3.202-3.226V0h24.848z"/>
            <ellipse cx="29.178" cy="3.23" fill="#C4D4E3" fill-rule="nonzero" rx="1" ry="1"/>
            <path fill="#C4D4E3" fill-rule="nonzero" d="M16.61 2.387h9.22c.461 0 .835.377.835.842v.002a.838.838 0 0 1-.835.842h-9.22a.838.838 0 0 1-.835-.842V3.23c0-.465.374-.842.835-.842z"/>
        </g>
        <g fill-rule="nonzero">
            <path fill="url(#g)" d="M77.383.919v.809H97.75v-.81h76.792c.386 0 .7.313.7.699V2.73c0 .319-.218.598-.527.676l-8.74 2.221H10.733l-9.536-1.14a.698.698 0 0 1-.616-.693V1.617c0-.386.313-.698.699-.698h76.102z" transform="translate(26.171 94.114)"/>
            <path fill="#6680AD" d="M27.452 95.615a.116.116 0 0 0-.116.116v2.178c0 .059.044.108.102.115l9.502 1.136h155.132l8.67-2.203a.116.116 0 0 0 .087-.112V95.73a.116.116 0 0 0-.116-.116h-76.21v.809h-21.53v-.81h-75.52zm95.886-1.164h77.375c.707 0 1.28.573 1.28 1.28v1.114a1.28 1.28 0 0 1-.964 1.24l-8.811 2.24H36.905L27.3 99.18a1.28 1.28 0 0 1-1.129-1.271V95.73c0-.707.574-1.28 1.281-1.28h76.685v.81h19.201v-.81z"/>
        </g>
        <g transform="translate(42.473 6.26)">
            <path fill="url(#g)" fill-rule="nonzero" d="M81.447 88.773v.81H61.081v-.81H3.133a2.095 2.095 0 0 1-2.096-2.094V4.77A4.19 4.19 0 0 1 5.229.58h133.349a4.19 4.19 0 0 1 4.192 4.19v81.908a2.095 2.095 0 0 1-2.096 2.094H81.447z"/>
            <path fill="#6680AD" fill-rule="nonzero" d="M80.865 88.192h59.809c.836 0 1.514-.678 1.514-1.513V4.77a3.609 3.609 0 0 0-3.61-3.607H5.228A3.609 3.609 0 0 0 1.62 4.77v81.908c0 .835.678 1.513 1.514 1.513h58.53V89h19.202v-.81zm1.164 1.972H60.5v-.809H3.133A2.677 2.677 0 0 1 .455 86.68V4.77A4.773 4.773 0 0 1 5.229 0h133.349a4.773 4.773 0 0 1 4.774 4.77V86.68c0 1.478-1.199 2.676-2.678 2.676H82.029v.81z"/>
            <ellipse cx="72.253" cy="3.382" fill="#C4D4E3" fill-rule="nonzero" rx="1" ry="1"/>
            <path fill="#FFF" fill-rule="nonzero" d="M8.02 6.181h128.465c1.157 0 2.096.938 2.096 2.095v72.803a2.095 2.095 0 0 1-2.096 2.095H8.02a2.095 2.095 0 0 1-2.096-2.095V8.276c0-1.157.939-2.095 2.096-2.095z"/>
            <path fill="#FFF" fill-rule="nonzero" d="M8.02 6.181h128.465c1.157 0 2.096.938 2.096 2.095v72.803a2.095 2.095 0 0 1-2.096 2.095H8.02a2.095 2.095 0 0 1-2.096-2.095V8.276c0-1.157.939-2.095 2.096-2.095z"/>
            <g transform="translate(5.822 5.818)">
                <use fill="#000" filter="url(#h)" xlink:href="#i"/>
                <use fill="url(#j)" xlink:href="#i"/>
                <rect width="7.02" height="1" x="1.73" y="25.794" fill="url(#d)" opacity=".3" rx=".303"/>
                <rect width="7.02" height="1" x="1.831" y="17.633" fill="url(#d)" rx=".303"/>
                <rect width="7.02" height="1" x="1.73" y="33.955" fill="url(#d)" opacity=".3" rx=".303"/>
                <rect width="7.02" height="1" x="1.73" y="42.117" fill="url(#d)" opacity=".3" rx=".303"/>
                <rect width="7.02" height="1" x="1.73" y="50.379" fill="url(#d)" opacity=".3" rx=".303"/>
                <ellipse cx="5.24" cy="22.922" fill="url(#d)" opacity=".3" rx="2.086" ry="2.066"/>
                <ellipse cx="5.24" cy="31.084" fill="url(#d)" opacity=".3" rx="2.086" ry="2.066"/>
                <ellipse cx="5.24" cy="39.245" fill="url(#d)" opacity=".3" rx="2.086" ry="2.066"/>
                <ellipse cx="5.24" cy="47.507" fill="url(#d)" opacity=".3" rx="2.086" ry="2.066"/>
                <g fill-rule="nonzero">
                    <path fill="url(#k)" d="M1.772 0C.822.018.036.682.002 1.595a1.654 1.654 0 0 0 2.792 1.26c.3-.287.288-.792.049-.563-.263.251-.63.402-1.03.387C1.049 2.651.453 2.034.483 1.3.508.62 1.182.08 1.785.048L1.802 0h-.03z" transform="translate(3.473 3.232)"/>
                    <path fill="#FFCB05" d="M5.44 3.279c.78.046 1.422.684-.848 1.322.578.11 1.005.37 1.005.37 1.944-.95.838-1.742-.262-1.74l-.016.048a.95.95 0 0 1 .12 0z"/>
                    <path fill="url(#l)" d="M.94.407c.25-.209.56-.34.856-.357.041-.002.082-.002.123 0 .391.024.749.2.738.455l.196-.231C2.59.1 2.2-.001 1.812 0h-.031a2.02 2.02 0 0 0-.998.277l.157.13z" transform="translate(3.473 3.232)"/>
                    <path fill="url(#m)" d="M2.83 2.581c0-.01-.032-.232-.032-.232-.08-.53.031-1.044.838-1.086-1.17-.566-1.948-.024-2.517.103.518.064 1.612.654 1.712 1.215z" transform="translate(3.473 3.232)"/>
                    <path fill="url(#n)" d="M3.119 1.459c-.497.202-.446.762-.398 1.09.01.028.059.232-.056.445-.143.24-.374.422-.82.54 1.142.051 2.448-1.032 1.274-2.075z" transform="translate(3.473 3.232)"/>
                </g>
                <ellipse cx="5.24" cy="14.761" fill="url(#d)" rx="2.086" ry="2.066"/>
            </g>
            <g fill="#6680AD" fill-rule="nonzero">
                <path d="M8.02 6.181a2.095 2.095 0 0 0-2.096 2.095v72.803c0 1.157.939 2.095 2.096 2.095h128.465a2.095 2.095 0 0 0 2.096-2.095V8.276a2.095 2.095 0 0 0-2.096-2.095H8.02zm0-1.163h128.465a3.26 3.26 0 0 1 3.26 3.258v72.803a3.26 3.26 0 0 1-3.26 3.259H8.02a3.26 3.26 0 0 1-3.26-3.259V8.276a3.26 3.26 0 0 1 3.26-3.258z"/>
                <path d="M16.745 6.181v76.993h38.4V6.18h-38.4zm-1.164-1.163h40.73v79.32H15.58V5.018z"/>
            </g>
            <g transform="translate(19.925 16.66)">
                <rect width="30.135" height="11.188" fill="#C1E0FF" fill-rule="nonzero" opacity=".5" rx="2.1"/>
                <path fill="#FF0021" d="M1.164.229v10.682A1.919 1.919 0 0 1 0 9.147v-7.08C0 1.28.453.565 1.164.229z"/>
                <ellipse cx="4.906" cy="5.594" fill="#C1E0FF" fill-rule="nonzero" rx="2.803" ry="2.797"/>
                <path fill="#C1E0FF" fill-rule="nonzero" d="M10.159 2.797h11.219c.579 0 1.048.469 1.048 1.047v.003c0 .579-.47 1.048-1.048 1.048h-11.22a1.048 1.048 0 0 1-1.047-1.048v-.003c0-.578.469-1.047 1.048-1.047zM10.159 6.293h15.424c.579 0 1.048.47 1.048 1.048v.003c0 .578-.47 1.047-1.048 1.047H10.159A1.048 1.048 0 0 1 9.11 7.344V7.34c0-.579.469-1.048 1.048-1.048z"/>
            </g>
            <g transform="translate(22.836 29.46)">
                <rect width="30.135" height="11.188" fill="#C1E0FF" fill-rule="nonzero" opacity=".5" rx="2.1"/>
                <path fill="#008932" d="M1.164.229v10.682A1.919 1.919 0 0 1 0 9.147v-7.08C0 1.28.453.565 1.164.229z"/>
                <ellipse cx="4.906" cy="5.594" fill="#C1E0FF" fill-rule="nonzero" rx="2.803" ry="2.797"/>
                <path fill="#C1E0FF" fill-rule="nonzero" d="M10.159 2.797h11.219c.579 0 1.048.469 1.048 1.047v.003c0 .579-.47 1.048-1.048 1.048h-11.22a1.048 1.048 0 0 1-1.047-1.048v-.003c0-.578.469-1.047 1.048-1.047zM10.159 6.293h15.424c.579 0 1.048.47 1.048 1.048v.003c0 .578-.47 1.047-1.048 1.047H10.159A1.048 1.048 0 0 1 9.11 7.344V7.34c0-.579.469-1.048 1.048-1.048z"/>
            </g>
            <g transform="translate(19.925 42.548)">
                <rect width="30.135" height="11.188" fill="#C1E0FF" fill-rule="nonzero" opacity=".5" rx="2.1"/>
                <path fill="#0095E2" d="M1.164.229v10.682A1.919 1.919 0 0 1 0 9.147v-7.08C0 1.28.453.565 1.164.229z"/>
                <ellipse cx="4.906" cy="5.594" fill="#C1E0FF" fill-rule="nonzero" rx="2.803" ry="2.797"/>
                <path fill="#C1E0FF" fill-rule="nonzero" d="M10.159 2.797h11.219c.579 0 1.048.469 1.048 1.047v.003c0 .579-.47 1.048-1.048 1.048h-11.22a1.048 1.048 0 0 1-1.047-1.048v-.003c0-.578.469-1.047 1.048-1.047zM10.159 6.293h15.424c.579 0 1.048.47 1.048 1.048v.003c0 .578-.47 1.047-1.048 1.047H10.159A1.048 1.048 0 0 1 9.11 7.344V7.34c0-.579.469-1.048 1.048-1.048z"/>
            </g>
            <g transform="translate(19.925 55.348)">
                <rect width="30.135" height="11.188" fill="#C1E0FF" fill-rule="nonzero" opacity=".5" rx="2.1"/>
                <path fill="#FF8C00" d="M1.164.229v10.682A1.919 1.919 0 0 1 0 9.147v-7.08C0 1.28.453.565 1.164.229z"/>
                <ellipse cx="4.906" cy="5.594" fill="#C1E0FF" fill-rule="nonzero" rx="2.803" ry="2.797"/>
                <path fill="#C1E0FF" fill-rule="nonzero" d="M10.159 2.797h11.219c.579 0 1.048.469 1.048 1.047v.003c0 .579-.47 1.048-1.048 1.048h-11.22a1.048 1.048 0 0 1-1.047-1.048v-.003c0-.578.469-1.047 1.048-1.047zM10.159 6.293h15.424c.579 0 1.048.47 1.048 1.048v.003c0 .578-.47 1.047-1.048 1.047H10.159A1.048 1.048 0 0 1 9.11 7.344V7.34c0-.579.469-1.048 1.048-1.048z"/>
            </g>
            <g fill="#C1E0FF" fill-rule="nonzero">
                <path d="M64.803 16.68h66.565c1.157 0 2.096.938 2.096 2.095V62.88a2.095 2.095 0 0 1-2.096 2.095H64.803a2.095 2.095 0 0 1-2.096-2.095V18.775c0-1.157.939-2.095 2.096-2.095z" opacity=".2"/>
                <path d="M71.554 23.736a.582.582 0 1 1 0-1.164h52.505a.582.582 0 1 1 0 1.164H71.554zM71.554 31.435a.582.582 0 1 1 0-1.163h52.505a.582.582 0 1 1 0 1.163H71.554zM71.554 38.435a.582.582 0 1 1 0-1.164h52.505a.582.582 0 1 1 0 1.164H71.554zM71.554 45.434a.582.582 0 1 1 0-1.164h52.505a.582.582 0 1 1 0 1.164H71.554zM71.554 52.433a.582.582 0 1 1 0-1.163h52.505a.582.582 0 1 1 0 1.163H71.554zM71.554 59.433a.582.582 0 1 1 0-1.164h52.505a.582.582 0 1 1 0 1.164H71.554z"/>
            </g>
            <g transform="translate(5.822 5.818)">
                <mask id="p" fill="#fff">
                    <use xlink:href="#o"/>
                </mask>
                <path fill="#C1E0FF" fill-rule="nonzero" d="M-13.973-134.858l12.35-12.342L149.171 3.49l-12.35 12.343zM-6.633-118.92l2.682-2.68L146.842 29.09l-2.682 2.68z" mask="url(#p)" opacity=".3" style="mix-blend-mode:multiply"/>
            </g>
        </g>
    </g>
</svg>
