<svg xmlns="http://www.w3.org/2000/svg" width="182" height="136" viewBox="0 0 182 136">
    <g fill="none" fill-rule="evenodd">
        <path d="M-71-7h320v148H-71z"/>
        <g transform="translate(-5 -2)">
            <path fill="#C6D3E0" fill-rule="nonzero" d="M116.193 132.374s-12.4-16.574-16.626-26.726c-1.96-4.71-3.085-9.51-4.605-16.43l-12.66 12.96 3.374 34.915H58.808c1.04-1.098 5.322-5.435 10.34-7.813 0 0-6.229-23.31-5.795-32.42.583-12.221 25.874-39.05 37.704-34.826 12.486 4.458 17.502 38.845 17.502 38.845l19.771 36.214h-25.64c.565-1.41 1.687-3.6 3.503-4.72z"/>
            <path stroke="#002256" stroke-linecap="round" stroke-linejoin="round" stroke-width=".717" d="M50.584 137.092h95.104"/>
            <g fill-rule="nonzero">
                <path fill="#6B80A8" d="M83.663 19.945s-6.6 4.814-7.067 10.437c-.466 5.623 6.317 10.012 6.317 10.012l16.672-7.712-15.922-12.737z"/>
                <path fill="#6B80A8" d="M118.7 59.515c0-12.768-10.302-23.119-23.011-23.119-12.71 0-23.013 10.35-23.013 23.119h46.025z"/>
                <path fill="#F2F5F7" d="M98.235 37.74l-3.427-11.2s3.746-3.413 2.113-6.334-4.44-.662-4.44-.662-2.68-3.886-7.38-2.972c-4.7.915-5.783 6.923-4.449 10.523 1.972 5.307 5.318 7.14 10.406 4.444l1.509 6.385"/>
                <path fill="#6B80A8" d="M97.02 33.767c-5.313.684-6.84-14.343-6.84-14.343-4.167 4.226-10.057 4.415-10.057 4.415s-.679-8.155 7.965-9.457c8.644-1.301 11.938 3.595 11.938 3.595s9.555-.224 11.628 7.025c2.074 7.25-2.99 9.941-2.99 9.941s-5.828-1.923-11.645-1.176z"/>
            </g>
            <path stroke="#002256" stroke-linecap="round" stroke-linejoin="round" stroke-width=".717" d="M117.131 53.51l5.895-7.225s1.136-13.433-2.44-18.906c-3.577-5.474-17.176-12.177-20.018-12.003-2.841.173-6.116 1.732-6.055 2.436.06.704 6.138.168 6.138.168s-7.556 1.455-7.45 2.656c.138 1.545 7.538.045 7.538.045s-6.442 1.787-6.373 2.757c.089 1.245 6.258.498 6.258.498l10.397 7.406.186 6.886-4.003 4.368"/>
            <path stroke="#FFF" stroke-linecap="round" stroke-linejoin="round" stroke-width=".717" d="M97.461 16.012c-1.684.563-2.987 1.353-2.948 1.8.06.704 6.138.168 6.138.168s-7.556 1.455-7.45 2.656c.138 1.545 7.538.045 7.538.045s-6.442 1.787-6.373 2.757c.089 1.245 6.258.498 6.258.498l10.397 7.406.024.913"/>
            <path stroke="#002256" stroke-linecap="round" stroke-linejoin="round" stroke-width=".717" d="M83.423 40.394S70.7 45.572 61.193 42.29c-8.458-2.922-9.365-3.63-9.365-3.63l3.061 9.616s11.285 8.103 23.532 1.814"/>
            <path fill="#FFF" stroke="#002256" stroke-linecap="round" stroke-linejoin="round" stroke-width=".717" d="M57.384 45.043L54.094 30.5 39.268 62.254l3.405 13.694 12.755 1.605 10.38 8.832L78.31 57.103l-9.052-9.384-.181-.101-11.693-2.575z"/>
            <path fill="#C6D3E0" fill-rule="nonzero" d="M42.96 75.622l12.618 1.588L69 47.968l-11.916-2.624z"/>
            <path fill="#FFF" stroke="#002256" stroke-linecap="round" stroke-linejoin="round" stroke-width=".717" d="M51.048 36.396s.661 12.484-.299 12.727c-.96.244-2.881-7.015-2.881-7.015s1.68 8.588.72 8.83c-.96.241-2.521-6.138-2.521-6.138s1.02 6.923 0 6.982c-1.02.06-2.012-7.3-.39-9.356a24.971 24.971 0 0 1 3.601-3.628"/>
            <path fill="#C6D3E0" fill-rule="nonzero" d="M186.557 100.277l-5.385 7.77v5.718l5.385-7.771z"/>
            <path fill="#6B80A8" fill-rule="nonzero" stroke="#6B80A8" d="M180.67 112.821v-4.508l-17.418-11.814v4.51l17.418 11.812z"/>
            <path fill="#FFF" stroke="#002256" stroke-width=".717" d="M168.237 88.276l-4.976 7.182 17.825 12.087 4.975-7.18-17.824-12.089z"/>
            <g transform="scale(-1 1) rotate(15 -13.885 -100.187)">
                <ellipse cx="8.828" cy="10.104" stroke="#C4D4E3" stroke-linecap="round" stroke-linejoin="round" stroke-width=".717" rx="8.447" ry="8.502"/>
                <ellipse cx="9.747" cy="8.502" stroke="#6B80A8" stroke-linecap="round" stroke-linejoin="round" stroke-width=".717" rx="8.447" ry="8.502"/>
                <path fill="#6B80A8" fill-rule="nonzero" stroke="#6B80A8" d="M17.27 14.127l8.448 5.886a.478.478 0 0 0 .547-.784l-8.447-5.887a.478.478 0 1 0-.547.785z"/>
            </g>
            <ellipse cx="136.452" cy="87.314" fill="#6B80A8" fill-rule="nonzero" rx="3.16" ry="3.177"/>
            <ellipse cx="149.251" cy="23.207" stroke="#002256" stroke-linecap="round" stroke-linejoin="round" stroke-width=".5" rx="2.394" ry="2.407"/>
            <g transform="translate(20.743 105.846)">
                <path stroke="#002256" stroke-linecap="round" stroke-linejoin="round" stroke-width=".5" d="M7.532 21.73l15.88-13.44M2.394 15.592l15.879-13.44"/>
                <ellipse cx="20.838" cy="5.215" fill="#C6D3E0" fill-rule="nonzero" rx="1.999" ry="4.403" transform="rotate(-40.09 20.838 5.215)"/>
                <ellipse cx="4.964" cy="18.648" fill="#6B80A8" fill-rule="nonzero" rx="1.999" ry="4.403" transform="rotate(-40.09 4.964 18.648)"/>
            </g>
        </g>
    </g>
</svg>
