<svg xmlns="http://www.w3.org/2000/svg" width="257" height="121" viewBox="0 0 257 121">
    <g fill="none" fill-rule="evenodd">
        <path d="M-53-13h364v148H-53z"/>
        <g transform="translate(1)">
            <path fill="#FFF" fill-rule="nonzero" stroke="#C4D4E3" stroke-linecap="round" stroke-linejoin="round" stroke-width=".5" d="M0 19.228h157.904v91.754H0z"/>
            <path stroke="#002256" stroke-linejoin="bevel" stroke-width=".534" d="M118.248 103.718h21.5c3.07 0 6.014-1.222 8.185-3.397a11.608 11.608 0 0 0 3.39-8.2V30.279c0-4.624-3.74-6.946-8.344-6.946-4.615 0-8.354 2.323-8.354 6.946v57.77h-21.948"/>
            <path fill="#C6D3E0" fill-rule="nonzero" d="M65.84 106.987H32.584c-13.906 0-24.448-12.57-22.051-26.296l8.166-46.74s-10.187-2.08-9.997-9.387l37.036-.903-9.822 51.616 23.803-.406-1.103-31.776c-.431-12.398 10.941-21.862 23.027-19.164l36.168 8.077s3.924-10.508 9.514-9.852l-2.85 34.318-38.58-8.034 2.883 33.494a23.097 23.097 0 0 1-5.972 17.579 23.003 23.003 0 0 1-16.966 7.474z"/>
            <path fill="#6B80A8" fill-rule="nonzero" d="M119.542 106.987h-27.64c-4.633 0-7.516-5.039-5.176-9.046l13.819-23.657c2.308-3.966 8.038-3.966 10.355 0l13.819 23.657c2.34 4.007-.543 9.046-5.177 9.046z"/>
            <path stroke="#002256" stroke-linejoin="bevel" stroke-width=".534" d="M96.588 89.145l-81.798.5s-10.077.16-9.68 1.837c.47 2.003 10.892 1.564 10.892 1.564s-13.847-.07-13.46 2.173c.288 1.694 12.667 1.347 12.667 1.347s-11.275-.018-10.927 1.912c.4 2.22 12.168 1.512 12.168 1.512s-5.278.316-5.074 2.17c.178 1.699 6.746 1.556 6.746 1.556l78.752-.122"/>
            <path fill="#C6D3E0" fill-rule="nonzero" d="M107.857 83.996l10.132-14.09s-3.409-4.791-.845-7.692c2.563-2.901 5.19.356 5.19.356s3.99-3.736 9.094-1.53c5.104 2.206 4.86 9.269 2.469 13.002-3.531 5.514-7.77 6.76-12.878 2.446l-6.696 9.735"/>
            <path fill="#6B80A8" fill-rule="nonzero" d="M120.153 61.106s1.209-5.978 8.944-4.968c7.735 1.01 8.015 3.984 11.225 3.541 3.21-.443 2.938 9.024-5.465 7.487-8.402-1.537-7.967-1.957-7.967-1.957s-1.282 3.618-3.291 2.704c-2.01-.914-1.477-4.92-1.477-4.92"/>
            <path stroke="#FFF" stroke-width="1.068" d="M73.252 74.373H59.53"/>
            <path stroke="#002256" stroke-linejoin="bevel" stroke-width=".534" d="M136.091 29.317s5.791.365 5.718 2.408c-.072 2.044-6.123 2.371-6.123 2.371"/>
            <path stroke="#002256" stroke-linejoin="bevel" stroke-width=".534" d="M150.876 29.317s.366 6.094-1.383 6.13c-1.749.035-2.73-6.13-2.73-6.13s.655 7.15-1.86 7.223c-2.513.073-2.875-7.77-2.875-7.77s-.329 8.026-2.294 7.953c-1.965-.073-2.398-2.797-2.398-2.797"/>
            <path fill="#6B80A8" fill-rule="nonzero" d="M255.442 111.05h-25.873c0-10.8-8.738-19.555-19.518-19.555-10.779 0-19.517 8.755-19.517 19.555h-25.857c0-25.111 20.316-45.469 45.38-45.469 25.063 0 45.385 20.358 45.385 45.47z"/>
            <path stroke="#FFF" stroke-linecap="round" stroke-linejoin="round" stroke-width=".5" d="M204.08 59l-1.054 8.342c-.08.588 0 1.386.567 1.495.345.017.68-.122.914-.378l3.21-2.622-.735 6.27c-.08.667 0 1.524.576 1.773.403.09.825.015 1.173-.209a52.293 52.293 0 0 0 11.012-7.196M241.416 114.272l-3.259-7.751c-.225-.55-.693-1.2-1.238-1.012a1.161 1.161 0 0 0-.602.785l-1.47 3.876-2.498-5.797c-.265-.618-.762-1.32-1.386-1.249-.394.124-.722.4-.91.768a52.293 52.293 0 0 0-5.94 11.738"/>
            <ellipse cx="59.906" cy="3.913" fill="#C6D3E0" fill-rule="nonzero" rx="3.906" ry="3.913"/>
            <path fill="#170C2C" fill-rule="nonzero" d="M206.052 31.639l32.786 7.212c-2.231 8.8-11.027 14.238-19.877 12.291-8.85-1.947-14.563-10.577-12.91-19.503zm-.416-.639a17.38 17.38 0 0 0 5.243 16.545 17.3 17.3 0 0 0 16.922 3.724 17.346 17.346 0 0 0 11.68-12.822L205.635 31z"/>
            <path stroke="#E7ECF3" stroke-width=".5" d="M135.143 32.98a61.574 61.574 0 0 0-13.835 11.67c-4.661 5.303-8.488 11.672-9.203 18.698-.716 7.027 2.256 14.761 8.448 18.18 6.788 3.708 15.544 1.365 21.626-3.429 6.083-4.794 10.168-11.591 14.51-18.01 6.61-9.737 14.263-19.016 24.033-25.555 9.77-6.538 21.945-10.156 33.454-7.824 6.541 1.326 12.71 4.847 17.192 9.77"/>
            <path fill="#C6D3E0" fill-rule="nonzero" d="M164.225 61.259l80.577-12.232a5.274 5.274 0 0 1 6.01 4.423c0 .001 0 .002-.002.003l.001.01a5.287 5.287 0 0 1-4.43 6.011l-80.576 12.232a5.274 5.274 0 0 1-6.01-4.423c0-.001 0-.002.003-.004l-.002-.01a5.287 5.287 0 0 1 4.43-6.01z"/>
            <path stroke="#FFF" stroke-linecap="round" stroke-linejoin="round" stroke-width=".5" d="M164 103.422a19.692 19.692 0 0 1 8.378-3.807 6.483 6.483 0 0 1 4.105.269 2.833 2.833 0 0 1 1.5 3.488M174.684 106.213a18.097 18.097 0 0 1 7.872-2.93 5.904 5.904 0 0 0-2.773 4.823M182.287 106.492a2.123 2.123 0 0 1 2.863.17 3.396 3.396 0 0 1 .765 2.99 8.473 8.473 0 0 1-1.292 2.87 38.369 38.369 0 0 1-6.56 7.973M171.603 115.482a11.782 11.782 0 0 1 6.66-4.077c.457-.16.963-.089 1.36.19.295.41.363.943.18 1.415a11.276 11.276 0 0 1-3.976 6.25"/>
            <path stroke="#FFF" stroke-linecap="round" stroke-linejoin="round" stroke-width=".5" d="M165.232 106.332a10.01 10.01 0 0 1 5.825-3.189 2.18 2.18 0 0 1 1.361.11c.583.379.863 1.087.696 1.764a4.49 4.49 0 0 1-.934 1.774 87.684 87.684 0 0 1-7.196 8.033"/>
            <ellipse cx="175.181" cy="96.385" fill="#FFF" fill-rule="nonzero" rx="1" ry="1"/>
            <ellipse cx="232.994" cy="102.997" fill="#FFF" fill-rule="nonzero" rx="1" ry="1"/>
            <ellipse cx="221.994" cy="78.997" fill="#FFF" fill-rule="nonzero" rx="1" ry="1"/>
            <ellipse cx="190.586" cy="103.861" fill="#FFF" fill-rule="nonzero" rx="1.491" ry="2.492"/>
            <ellipse cx="192.491" cy="84.492" fill="#FFF" fill-rule="nonzero" rx="1.491" ry="2.492" transform="rotate(-60 192.49 84.492)"/>
            <ellipse cx="229.491" cy="89.492" fill="#FFF" fill-rule="nonzero" rx="1.491" ry="2.492" transform="rotate(-60 229.49 89.492)"/>
            <ellipse cx="247.491" cy="105.492" fill="#FFF" fill-rule="nonzero" rx="1.491" ry="2.492" transform="rotate(-60 247.49 105.492)"/>
        </g>
    </g>
</svg>
