<svg xmlns="http://www.w3.org/2000/svg" xmlns:xlink="http://www.w3.org/1999/xlink" width="160" height="114" viewBox="0 0 160 114">
    <defs>
        <path id="a" d="M.404 0a17.38 17.38 0 0 0 5.242 16.545 17.3 17.3 0 0 0 16.922 3.724 17.346 17.346 0 0 0 11.68-12.822L.404 0z"/>
    </defs>
    <g fill="none" fill-rule="evenodd">
        <path d="M-80-17h320v148H-80z"/>
        <g transform="translate(1)">
            <path fill="#FFF" fill-rule="nonzero" stroke="#C4D4E3" stroke-linecap="round" stroke-linejoin="round" stroke-width=".5" d="M0 21.515h157.904v91.754H0z"/>
            <path stroke="#002256" stroke-linejoin="bevel" stroke-width=".534" d="M118.248 106.005h21.5c3.07 0 6.014-1.222 8.185-3.397a11.608 11.608 0 0 0 3.39-8.2V32.566c0-4.624-3.74-6.946-8.344-6.946-4.615 0-8.354 2.323-8.354 6.946v57.77h-21.948"/>
            <path fill="#C6D3E0" fill-rule="nonzero" d="M65.84 109.274H32.584c-13.906 0-24.448-12.57-22.051-26.296l8.166-46.74s-10.187-2.08-9.997-9.387l37.036-.903-9.822 51.616 23.803-.406-1.103-31.776c-.431-12.398 10.941-21.862 23.027-19.164l36.168 8.077s3.924-10.508 9.514-9.852l-2.85 34.318-38.58-8.034 2.883 33.494a23.097 23.097 0 0 1-5.972 17.579 23.003 23.003 0 0 1-16.966 7.474z"/>
            <path fill="#6B80A8" fill-rule="nonzero" d="M119.542 109.274h-27.64c-4.633 0-7.516-5.039-5.176-9.046l13.819-23.657c2.308-3.966 8.038-3.966 10.355 0l13.819 23.657c2.34 4.007-.543 9.046-5.177 9.046z"/>
            <path stroke="#002256" stroke-linejoin="bevel" stroke-width=".534" d="M96.588 91.432l-81.798.5s-10.077.16-9.68 1.837c.47 2.003 10.892 1.564 10.892 1.564s-13.847-.07-13.46 2.173C2.83 99.2 15.21 98.853 15.21 98.853s-11.275-.018-10.927 1.912c.4 2.22 12.168 1.512 12.168 1.512s-5.278.317-5.074 2.17c.178 1.699 6.746 1.556 6.746 1.556l78.752-.122"/>
            <path fill="#C6D3E0" fill-rule="nonzero" d="M107.857 86.283l10.132-14.09s-3.409-4.791-.845-7.692c2.563-2.901 5.19.356 5.19.356s3.99-3.736 9.094-1.53c5.104 2.206 4.86 9.269 2.469 13.002-3.531 5.514-7.77 6.76-12.878 2.446l-6.696 9.735"/>
            <path fill="#6B80A8" fill-rule="nonzero" d="M120.153 63.393s1.209-5.978 8.944-4.968c7.735 1.01 8.015 3.984 11.225 3.541 3.21-.443 2.938 9.024-5.465 7.487-8.402-1.537-7.967-1.957-7.967-1.957s-1.282 3.618-3.291 2.704c-2.01-.914-1.477-4.92-1.477-4.92"/>
            <path stroke="#FFF" stroke-width="1.068" d="M73.252 76.66H59.53"/>
            <path stroke="#FFF" stroke-linecap="round" stroke-linejoin="round" stroke-width=".5" d="M120.416 109.56l-17.303 1.357a52.293 52.293 0 0 1 5.94-11.738c.188-.367.516-.644.91-.767.624-.073 1.121.63 1.386 1.248l2.498 5.797 1.47-3.876c.073-.338.294-.626.602-.785.545-.188 1.013.463 1.238 1.012l3.259 7.751z"/>
            <ellipse cx="59.906" cy="6.2" fill="#C6D3E0" fill-rule="nonzero" rx="3.906" ry="3.913"/>
            <g transform="translate(101 1.287)">
                <mask id="b" fill="#fff">
                    <use xlink:href="#a"/>
                </mask>
                <use fill="#6B80A8" fill-rule="nonzero" xlink:href="#a"/>
                <g mask="url(#b)">
                    <g transform="translate(-3 -1)">
                        <path stroke="#FFF" stroke-linecap="round" stroke-linejoin="round" stroke-width=".5" d="M0 8.033a19.692 19.692 0 0 1 8.378-3.807 6.483 6.483 0 0 1 4.105.269 2.833 2.833 0 0 1 1.5 3.488M10.684 10.824a18.097 18.097 0 0 1 7.872-2.93 5.904 5.904 0 0 0-2.773 4.824M18.287 11.103a2.123 2.123 0 0 1 2.863.17 3.396 3.396 0 0 1 .765 2.99 8.473 8.473 0 0 1-1.292 2.87 38.369 38.369 0 0 1-6.56 7.973M7.603 20.093a11.782 11.782 0 0 1 6.66-4.076c.457-.16.963-.09 1.36.19.295.41.363.943.18 1.414a11.276 11.276 0 0 1-3.976 6.25"/>
                        <path stroke="#FFF" stroke-linecap="round" stroke-linejoin="round" stroke-width=".5" d="M1.232 10.944a10.01 10.01 0 0 1 5.825-3.19 2.18 2.18 0 0 1 1.361.11c.583.379.863 1.087.696 1.764a4.49 4.49 0 0 1-.934 1.774 87.684 87.684 0 0 1-7.196 8.033"/>
                        <ellipse cx="11.181" cy=".997" fill="#FFF" fill-rule="nonzero" rx="1" ry="1"/>
                        <ellipse cx="31.586" cy="11.472" fill="#FFF" fill-rule="nonzero" rx="1.491" ry="2.492"/>
                    </g>
                </g>
            </g>
            <path stroke="#E7ECF3" stroke-width=".5" d="M138.23 36.775c-11.49-2.486-23.481-1.545-35.077.465-7.634 1.334-15.362 3.118-23.035 2.073-7.674-1.046-15.442-5.717-17.49-13.176-1.842-6.829 1.657-14.339 7.209-18.705 5.551-4.367 24.501-8.715 35.23-5.152"/>
            <path stroke="#002256" stroke-linejoin="bevel" stroke-width=".534" d="M136.091 31.604s5.791.365 5.718 2.408c-.072 2.044-6.123 2.371-6.123 2.371"/>
            <path stroke="#002256" stroke-linejoin="bevel" stroke-width=".534" d="M150.876 31.604s.366 6.094-1.383 6.13c-1.749.035-2.73-6.13-2.73-6.13s.655 7.15-1.86 7.223c-2.513.073-2.875-7.77-2.875-7.77s-.329 8.026-2.294 7.953c-1.965-.072-2.398-2.797-2.398-2.797"/>
        </g>
    </g>
</svg>
