<svg xmlns="http://www.w3.org/2000/svg" width="48" height="48" viewBox="0 0 48 48">
    <g fill="none" fill-rule="evenodd">
        <g fill-rule="nonzero">
            <g>
                <g transform="translate(-167 -688) translate(151 672) translate(16 16)">
                    <circle cx="24" cy="24" r="24" fill="#FFF"/>
                    <g fill="#5C5C5C">
                        <g>
                            <path d="M9 0c3.314 0 6 2.686 6 6v3h.75C16.993 9 18 10.007 18 11.25v10.5c0 1.243-1.007 2.25-2.25 2.25H2.25C1.007 24 0 22.993 0 21.75v-10.5C0 10.007 1.007 9 2.25 9H3V6C3 2.762 5.566.122 8.775.004zm6.75 10.5H2.25c-.414 0-.75.336-.75.75v10.5c0 .414.336.75.75.75h13.5c.414 0 .75-.336.75-.75v-10.5c0-.414-.336-.75-.75-.75zM9 14.25c.414 0 .75.336.75.75v3c0 .414-.336.75-.75.75s-.75-.336-.75-.75v-3c0-.414.336-.75.75-.75zM9 1.5C6.515 1.5 4.5 3.515 4.5 6v3h9V6c0-2.414-1.901-4.384-4.288-4.495z" transform="translate(12 12) translate(3)"/>
                        </g>
                    </g>
                </g>
            </g>
        </g>
    </g>
</svg>
