<svg width="48" height="48" xmlns="http://www.w3.org/2000/svg">
    <g fill-rule="nonzero" fill="none">
        <circle fill="#FFF" cx="24" cy="24" r="24"/>
        <path d="m26.709 11.999.158.008a1.5 1.5 0 0 1 1.266 1.966L27.79 15h2.96a2.25 2.25 0 0 1 2.245 2.096l.005.154v3a.75.75 0 1 1-1.5 0v-3a.75.75 0 0 0-.75-.75h-3.46l-.158.475a1.501 1.501 0 0 1-1.423 1.025h-6.418a1.501 1.501 0 0 1-1.424-1.026l-.158-.474H14.25a.75.75 0 0 0-.743.648l-.007.102v16.5c0 .414.336.75.75.75h6a.75.75 0 1 1 0 1.5h-6a2.25 2.25 0 0 1-2.25-2.25v-16.5a2.25 2.25 0 0 1 2.25-2.25h2.959l-.341-1.025A1.499 1.499 0 0 1 18.29 12h8.418zm7.041 10.5a2.25 2.25 0 0 1 2.25 2.25v9a2.25 2.25 0 0 1-2.25 2.25h-9a2.25 2.25 0 0 1-2.25-2.25v-9a2.25 2.25 0 0 1 2.25-2.25h9zm0 1.5h-9a.75.75 0 0 0-.75.75v9c0 .414.336.75.75.75h9a.75.75 0 0 0 .75-.75v-9a.75.75 0 0 0-.75-.75zm-5.25 7.5a.75.75 0 1 1 0 1.5h-2.25a.75.75 0 1 1 0-1.5zm3.75-3a.75.75 0 1 1 0 1.5h-6a.75.75 0 1 1 0-1.5zm0-3a.75.75 0 1 1 0 1.5h-6a.75.75 0 1 1 0-1.5zm-5.541-12h-8.418l1 3h6.418l1-3z" fill="#5C5C5C"/>
    </g>
</svg>
