<svg xmlns="http://www.w3.org/2000/svg" width="48" height="48" viewBox="0 0 48 48">
    <g fill="none" fill-rule="evenodd">
        <g fill-rule="nonzero">
            <g>
                <g>
                    <g transform="translate(-624 -2277) translate(385 816) translate(223 1445) translate(16 16)">
                        <circle cx="24" cy="24" r="24" fill="#FFF"/>
                        <g fill="#5C5C5C">
                            <path d="M12 3c5.385 0 9.75 4.365 9.75 9.75 0 3.307-1.647 6.23-4.165 7.993l1.086 2.172c.185.37.035.82-.336 1.006-.37.185-.82.035-1.006-.336l-1.038-2.077c-1.295.635-2.751.992-4.291.992-1.54 0-2.995-.357-4.29-.992l-1.04 2.078c-.185.37-.635.52-1.006.335-.37-.186-.52-.636-.335-1.007l1.086-2.171C3.897 18.98 2.25 16.057 2.25 12.75 2.25 7.365 6.615 3 12 3zm0 1.5c-4.556 0-8.25 3.694-8.25 8.25S7.444 21 12 21s8.25-3.694 8.25-8.25S16.556 4.5 12 4.5zm0 2.25c.414 0 .75.336.75.75v5.25c0 .414-.336.75-.75.75H8.609c-.414 0-.75-.336-.75-.75s.336-.75.75-.75h2.641V7.5c0-.38.282-.693.648-.743zM4.781.164c.324-.258.796-.206 1.055.117.258.324.206.796-.117 1.055l-3.75 3c-.324.258-.796.206-1.055-.117-.258-.324-.206-.796.117-1.055zm13.383.117c.26-.323.731-.375 1.055-.117l3.75 3c.323.26.375.731.117 1.055-.26.323-.731.375-1.055.117l-3.75-3c-.323-.26-.375-.731-.117-1.055z" transform="translate(12 12)"/>
                        </g>
                    </g>
                </g>
            </g>
        </g>
    </g>
</svg>
