<svg xmlns="http://www.w3.org/2000/svg" width="48" height="48" viewBox="0 0 48 48">
    <g fill="none" fill-rule="evenodd">
        <g fill-rule="nonzero">
            <g>
                <g transform="translate(-167 -688) translate(151 672) translate(16 16)">
                    <circle cx="24" cy="24" r="24" fill="#FFF"/>
                    <g fill="#5C5C5C">
                        <g>
                            <path d="M16.301 3C16.8533 3 17.301 3.44772 17.301 4V6.36496L18.6608 5.23178C19.0851 4.87821 19.7156 4.93554 20.0692 5.35982C20.4228 5.78409 20.3654 6.41466 19.9412 6.76822L17.301 8.96838V14.2679L22.1708 11.4564L22.1858 8.09646C22.1883 7.54418 22.638 7.09847 23.1903 7.10094C23.7425 7.10342 24.1882 7.55313 24.1858 8.10541L24.176 10.2987L26.1018 9.1868C26.5801 8.91066 27.1917 9.07453 27.4678 9.55283C27.7439 10.0311 27.5801 10.6427 27.1018 10.9189L25.176 12.0307L27.0803 13.1189C27.5598 13.3929 27.7264 14.0037 27.4524 14.4832C27.1784 14.9628 26.5676 15.1294 26.0881 14.8554L23.1708 13.1884L18.301 16L22.7987 18.5967L26.179 17.0987C26.6839 16.8749 27.2746 17.1028 27.4984 17.6077C27.7222 18.1126 27.4943 18.7034 26.9893 18.9271L24.9423 19.8344L27.1018 21.0812C27.5801 21.3573 27.744 21.9689 27.4678 22.4472C27.1917 22.9255 26.5801 23.0893 26.1018 22.8132L23.9423 21.5664L24.1801 23.7928C24.2388 24.342 23.8412 24.8347 23.292 24.8934C22.7429 24.9521 22.2501 24.5545 22.1915 24.0053L21.7987 20.3288L17.301 17.7321V23.4648L19.8557 25.1679C20.3152 25.4743 20.4394 26.0952 20.133 26.5547C19.8267 27.0142 19.2058 27.1384 18.7463 26.8321L17.301 25.8685V28C17.301 28.5523 16.8533 29 16.301 29C15.7487 29 15.301 28.5523 15.301 28V25.8685L13.8557 26.8321C13.3961 27.1384 12.7753 27.0142 12.4689 26.5547C12.1626 26.0952 12.2867 25.4743 12.7463 25.1679L15.301 23.4648V17.732L10.8033 20.3288L10.4105 24.0053C10.3518 24.5545 9.85909 24.9521 9.30993 24.8934C8.76077 24.8347 8.36315 24.342 8.42182 23.7928L8.65969 21.5664L6.50017 22.8132C6.02187 23.0893 5.41028 22.9255 5.13414 22.4472C4.858 21.9689 5.02187 21.3573 5.50017 21.0811L7.65969 19.8343L5.61261 18.9271C5.10768 18.7034 4.87977 18.1126 5.10353 17.6077C5.3273 17.1028 5.91802 16.8749 6.42294 17.0986L9.8033 18.5967L14.301 16L9.43119 13.1884L6.5139 14.8554C6.03438 15.1294 5.42353 14.9628 5.14953 14.4832C4.87553 14.0037 5.04214 13.3929 5.52166 13.1189L7.42599 12.0307L5.50017 10.9189C5.02188 10.6427 4.85801 10.0311 5.13415 9.55283C5.41029 9.07454 6.02188 8.91066 6.50017 9.18681L8.42599 10.2987L8.41618 8.10541C8.4137 7.55314 8.85941 7.10342 9.41169 7.10095C9.96397 7.09848 10.4137 7.54419 10.4162 8.09646L10.4312 11.4564L15.301 14.268V8.96838L12.6608 6.76822C12.2365 6.41466 12.1792 5.78409 12.5328 5.35982C12.8863 4.93554 13.5169 4.87821 13.9412 5.23178L15.301 6.36496V4C15.301 3.44772 15.7487 3 16.301 3Z" transform="translate(6 8) translate(2)"/>
                            <!-- <path d="M9 0c3.314 0 6 2.686 6 6v3h.75C16.993 9 18 10.007 18 11.25v10.5c0 1.243-1.007 2.25-2.25 2.25H2.25C1.007 24 0 22.993 0 21.75v-10.5C0 10.007 1.007 9 2.25 9H3V6C3 2.762 5.566.122 8.775.004zm6.75 10.5H2.25c-.414 0-.75.336-.75.75v10.5c0 .414.336.75.75.75h13.5c.414 0 .75-.336.75-.75v-10.5c0-.414-.336-.75-.75-.75zM9 14.25c.414 0 .75.336.75.75v3c0 .414-.336.75-.75.75s-.75-.336-.75-.75v-3c0-.414.336-.75.75-.75zM9 1.5C6.515 1.5 4.5 3.515 4.5 6v3h9V6c0-2.414-1.901-4.384-4.288-4.495z" transform="translate(12 12) translate(3)"/> -->
                        </g>
                    </g>
                </g>
            </g>
        </g>
    </g>
</svg>
