<svg xmlns="http://www.w3.org/2000/svg" width="48" height="48" viewBox="0 0 48 48">
    <g fill="none" fill-rule="evenodd">
        <g fill-rule="nonzero">
            <g>
                <g transform="translate(-164 -688) translate(148 672) translate(16 16)">
                    <circle cx="24" cy="24" r="24" fill="#FFF"/>
                    <g fill="#5C5C5C">
                        <path d="M12 0c6.627 0 12 5.373 12 12s-5.373 12-12 12S0 18.627 0 12 5.373 0 12 0zm0 1.5C6.201 1.5 1.5 6.201 1.5 12S6.201 22.5 12 22.5 22.5 17.799 22.5 12 17.799 1.5 12 1.5zm-.75 8.25c.828 0 1.5.672 1.5 1.5V15c0 .414.336.75.75.75h.75c.414 0 .75.336.75.75s-.336.75-.75.75h-.75c-1.243 0-2.25-1.007-2.25-2.25v-3.75h-.75c-.414 0-.75-.336-.75-.75s.336-.75.75-.75zM11.625 6l.123.007c.563.06 1.002.538 1.002 1.118 0 .621-.504 1.125-1.125 1.125S10.5 7.746 10.5 7.125 11.003 6 11.625 6z" transform="translate(12 12)"/>
                    </g>
                </g>
            </g>
        </g>
    </g>
</svg>
