<svg xmlns="http://www.w3.org/2000/svg" width="48" height="48" viewBox="0 0 48 48">
    <g fill="none" fill-rule="evenodd">
        <g fill-rule="nonzero">
            <g>
                <g transform="translate(-173 -688) translate(157 672) translate(16 16)">
                    <circle cx="24" cy="24" r="24" fill="#FFF"/>
                    <g fill="#5C5C5C">
                        <g>
                            <path d="M20.251 5.25c.44 0 .785.377.747.815l-1.385 15.871c-.097 1.17-1.076 2.068-2.247 2.064H6.631c-1.17 0-2.145-.898-2.241-2.064L3.353 9.439c-.035-.413.272-.775.685-.81.413-.034.775.273.81.686l1.036 12.497c.033.389.357.688.747.688h10.738c.39.001.717-.298.75-.691L19.433 6.75h-1.807c-.414 0-.75-.336-.75-.75s.336-.75.75-.75zm-10.5 4.5c.414 0 .75.336.75.75V18c0 .414-.336.75-.75.75s-.75-.336-.75-.75v-7.5c0-.414.336-.75.75-.75zm4.5 0c.414 0 .75.336.75.75V18c0 .414-.336.75-.75.75s-.75-.336-.75-.75v-7.5c0-.414.336-.75.75-.75zM14.138.365c.5.326.85.837.974 1.42l.154.73 5.87-1.247c.371-.079.737.132.862.48l.028.098c.086.405-.173.803-.578.89l-6.564 1.397-.038.009-7.336 1.56-.047.007L.907 7.102C.536 7.18.17 6.97.045 6.622l-.028-.098c-.086-.405.173-.803.578-.89l5.868-1.247-.154-.73c-.126-.585-.013-1.196.313-1.697.326-.502.838-.853 1.424-.976L12.445.05c.584-.123 1.193-.01 1.693.316zm-1.382 1.152l-4.4.935-.115.033c-.148.057-.274.158-.361.292-.109.167-.146.371-.104.567l.154.73 5.869-1.247-.155-.731c-.04-.195-.158-.365-.324-.474-.167-.108-.37-.146-.564-.105z" transform="translate(12 12) translate(1)"/>
                        </g>
                    </g>
                </g>
            </g>
        </g>
    </g>
</svg>
