<svg xmlns="http://www.w3.org/2000/svg" width="48" height="48" viewBox="0 0 48 48">
    <g fill="none" fill-rule="evenodd">
        <g fill-rule="nonzero">
            <g>
                <g transform="translate(-167 -688) translate(151 672) translate(16 16)">
                    <circle cx="24" cy="24" r="24" fill="#FFF"/>
                    <g fill="#5C5C5C">
                        <path d="M6 0c3.314 0 6 2.686 6 6v3h9.75C22.993 9 24 10.007 24 11.25v10.5c0 1.243-1.007 2.25-2.25 2.25H8.25C7.007 24 6 22.993 6 21.75v-10.5C6 10.007 7.007 9 8.25 9h2.25V6c0-2.414-1.901-4.384-4.288-4.495L6 1.5C3.515 1.5 1.5 3.515 1.5 6v3.75c0 .414-.336.75-.75.75S0 10.164 0 9.75V6c0-3.314 2.686-6 6-6zm15.75 10.5H8.25c-.414 0-.75.336-.75.75v10.5c0 .414.336.75.75.75h13.5c.414 0 .75-.336.75-.75v-10.5c0-.414-.336-.75-.75-.75zM15 14.25c.414 0 .75.336.75.75v3c0 .414-.336.75-.75.75s-.75-.336-.75-.75v-3c0-.414.336-.75.75-.75z" transform="translate(12 12)"/>
                    </g>
                </g>
            </g>
        </g>
    </g>
</svg>
