<svg xmlns="http://www.w3.org/2000/svg" width="47" height="38" viewBox="0 0 47 38">
    <defs>
        <linearGradient id="ljdqoo2k2a" x1="50%" x2="91.578%" y1="2.795%" y2="75.051%">
            <stop offset="0%" stop-color="#E4ECF3"/>
            <stop offset="100%" stop-color="#C4D4E3"/>
        </linearGradient>
    </defs>
    <g fill="none" fill-rule="evenodd" transform="translate(1)">
        <rect width="33.6" height="17.16" x="10.216" y="14.8" fill="#C9D8E5" fill-rule="nonzero" rx="1.664"/>
        <rect width="32.8" height="17.6" x="8.216" y="12.4" fill="#F2F6F8" fill-rule="nonzero" rx="1.664"/>
        <path fill="#6680AD" fill-rule="nonzero" d="M24.056 17.68c.23 0 .416.186.416.416 0 .213-.161.39-.368.413l-.048.003h-7.12c-.23 0-.416-.186-.416-.416 0-.213.16-.39.367-.413l.049-.003h7.12z"/>
        <path fill="#FFC000" fill-rule="nonzero" d="M13.92 20.613c-.093.578-.232.97-.417 1.175-.278.307-.676.506-1.193.6v.254c0 .246-.2.446-.446.446s-.446-.2-.446-.446v-.21c-.156-.009-.311-.024-.465-.045-.153-.02-.337-.053-.55-.096-.066-.014-.147-.031-.243-.054-.234-.054-.4-.263-.4-.503 0-.19.154-.343.343-.343.019 0 .037.001.056.004.602.099 1.028.148 1.278.148.758 0 1.136-.255 1.136-.764 0-.165-.048-.305-.144-.42-.095-.115-.257-.227-.484-.334l-.992-.49c-.396-.2-.683-.425-.86-.674-.177-.248-.266-.548-.266-.898 0-.309.06-.58.182-.813.122-.234.303-.425.544-.573.241-.148.53-.245.865-.29v-.241c0-.246.2-.446.446-.446s.446.2.446.446v.214c.167.012.499.07.995.177.233.05.4.256.4.495 0 .184-.15.334-.334.334-.021 0-.042-.002-.062-.006-.516-.098-.899-.146-1.148-.146-.674 0-1.011.218-1.011.656 0 .161.053.296.158.404.105.108.308.233.609.377l.834.395c.409.192.706.42.891.683.124.176.216.504.278.984z"/>
        <rect width="11.96" height="1" x="16.52" y="20.28" fill="#6680AD" fill-rule="nonzero" rx=".442"/>
        <path fill="#6680AD" fill-rule="nonzero" d="M37.069 10.169l-29.731-.04c-1.275-.002-2.332.818-2.311 1.89l.264 13.874c.02 1.064 1.097 1.88 2.367 1.881l29.73.04c1.276.002 2.332-.818 2.312-1.89l-.265-13.874c-.02-1.064-1.097-1.88-2.366-1.881zm1.567 1.897l.264 13.873c.011.569-.643 1.077-1.51 1.076l-29.731-.04c-.872-.002-1.557-.52-1.568-1.098l-.265-13.872c-.01-.57.644-1.078 1.51-1.077l29.732.04c.872.002 1.557.52 1.568 1.098z"/>
        <g>
            <g fill-rule="nonzero" transform="translate(26.774 19.886)">
                <ellipse cx="10.204" cy="9.387" fill="url(#ljdqoo2k2a)" rx="7.543" ry="7.329"/>
                <ellipse cx="7.695" cy="7.477" fill="#F4F7F9" rx="7.695" ry="7.477"/>
                <path fill="#6680AD" d="M9.213 1.87c.103 0 .187.084.187.188v.748c0 .104-.084.188-.187.188s-.187-.084-.187-.188v-.748c0-.104.084-.188.187-.188zM9.213 13.664c.103 0 .187.084.187.187v.749c0 .103-.084.187-.187.187s-.187-.084-.187-.187v-.749c0-.103.084-.187.187-.187zM15.39 8.422c0 .104-.083.188-.186.188h-.75c-.103 0-.186-.084-.186-.188 0-.103.083-.187.187-.187h.749c.103 0 .187.084.187.187zM3.784 8.422c0 .104-.084.188-.187.188h-.749c-.103 0-.187-.084-.187-.188 0-.103.084-.187.187-.187h.75c.102 0 .186.084.186.187z"/>
                <circle cx="9.026" cy="8.422" r="1" fill="#FDC130"/>
                <path fill="#FDC130" d="M9.12 3.742c.155 0 .28.126.28.281v3.931c0 .155-.125.281-.28.281-.156 0-.281-.126-.281-.28V4.022c0-.155.125-.28.28-.28zM12.302 8.422c0 .155-.126.281-.28.281h-2.06c-.155 0-.28-.126-.28-.28 0-.156.125-.281.28-.281h2.06c.154 0 .28.125.28.28z"/>
            </g>
            <path stroke="#6680AD" stroke-width=".832" d="M9.026 16.098c-4.342 0-7.862-3.437-7.862-7.676 0-4.239 3.52-7.675 7.862-7.675 4.342 0 7.862 3.436 7.862 7.675 0 4.24-3.52 7.676-7.862 7.676z" transform="translate(26.774 19.886)"/>
        </g>
    </g>
</svg>
