<svg width="80" height="80" viewBox="0 0 80 80" fill="none" xmlns="http://www.w3.org/2000/svg">
<path fill-rule="evenodd" clip-rule="evenodd" d="M48.3175 24.3574L31.192 14.3861L29.7361 13.5381L7.09259 19.6115C5.3805 20.0707 2.42088 21.9804 3.47606 25.9223L15.011 69.0144C15.4723 70.738 17.3795 73.7199 21.2952 72.6697L53.6235 63.9986C55.3356 63.5394 58.2945 61.6294 57.2395 57.688L48.3175 24.3574Z" fill="#F2F6F8"/>
<path d="M42.7849 28.5792C43.1405 28.4839 43.5061 28.695 43.6014 29.0506C43.6899 29.3809 43.5142 29.7196 43.2039 29.8427L43.13 29.8671L17.372 36.7689C17.0163 36.8642 16.6508 36.6532 16.5555 36.2975C16.467 35.9673 16.6427 35.6285 16.9529 35.5055L17.0269 35.481L42.7849 28.5792Z" fill="#6680AD"/>
<path d="M21.4301 26.1469C21.7858 26.0516 22.1513 26.2627 22.2466 26.6183C22.3351 26.9486 22.1595 27.2874 21.8492 27.4104L21.7752 27.4348L15.3357 29.1603C14.9801 29.2556 14.6145 29.0445 14.5192 28.6889C14.4307 28.3586 14.6064 28.0198 14.9167 27.8968L14.9906 27.8724L21.4301 26.1469Z" fill="#6680AD"/>
<path d="M44.8149 35.9982C45.1706 35.9029 45.5361 36.114 45.6314 36.4696C45.7199 36.7999 45.5443 37.1387 45.234 37.2617L45.16 37.2861L19.402 44.188C19.0464 44.2833 18.6808 44.0722 18.5855 43.7166C18.497 43.3863 18.6727 43.0475 18.983 42.9245L19.0569 42.9001L44.8149 35.9982Z" fill="#6680AD"/>
<path d="M46.5404 42.4377C46.896 42.3424 47.2616 42.5535 47.3569 42.9091C47.4454 43.2394 47.2697 43.5782 46.9594 43.7012L46.8855 43.7256L21.1275 50.6275C20.7718 50.7228 20.4063 50.5117 20.311 50.1561C20.2225 49.8258 20.3981 49.487 20.7084 49.364L20.7824 49.3396L46.5404 42.4377Z" fill="#6680AD"/>
<path d="M48.2659 48.8772C48.6215 48.7819 48.9871 48.993 49.0824 49.3486C49.1708 49.6789 48.9952 50.0177 48.6849 50.1407L48.611 50.1651L22.8529 57.067C22.4973 57.1623 22.1317 56.9512 22.0364 56.5956C21.9479 56.2653 22.1236 55.9266 22.4339 55.8035L22.5078 55.7791L48.2659 48.8772Z" fill="#6680AD"/>
<path fill-rule="evenodd" clip-rule="evenodd" d="M34.6076 20.8393L32.0229 11.1932C31.8689 10.6187 32.4873 10.1454 33.0016 10.4441L50.4684 20.5889C50.9813 20.8867 50.879 21.6558 50.3061 21.8093L40.7277 24.3758C38.7492 24.906 37.1707 24.4704 36.0279 23.3247C35.2895 22.5845 34.8434 21.6821 34.6076 20.8393ZM48.412 20.9364L33.7284 12.4082L35.8935 20.4871C36.0551 21.0645 36.3598 21.7036 36.8268 22.229L36.9718 22.383C37.7803 23.1935 38.8682 23.4937 40.3826 23.0879L48.412 20.9364Z" fill="#6680AD"/>
<path fill-rule="evenodd" clip-rule="evenodd" d="M9.25925 16.031L31.9027 9.96369C32.0744 9.9177 32.2573 9.94214 32.4109 10.0316L50.9962 20.8548C51.1482 20.9433 51.2591 21.0884 51.3047 21.2583L60.2356 54.5889C61.2208 58.2658 59.0931 60.926 56.1495 61.7147L23.8212 70.377C20.1634 71.3572 17.5123 69.2092 16.7192 66.2491L5.17265 23.1569C4.18734 19.4797 6.31522 16.8199 9.25925 16.031ZM31.9796 11.3234L9.60434 17.3189C7.30103 17.9361 5.69276 19.9464 6.46055 22.8119L18.0071 65.904C18.6291 68.2255 20.6347 69.8505 23.4761 69.0891L55.8044 60.4268C58.1072 59.8098 59.7154 57.7991 58.9477 54.934L50.0871 21.8682L31.9796 11.3234Z" fill="#6680AD"/>
<path fill-rule="evenodd" clip-rule="evenodd" d="M69.3005 69.2185C69.0327 70.2925 67.9619 70.9501 66.9086 70.6875L37.6659 63.3965C36.6125 63.1338 35.9758 62.0505 36.2436 60.9764L40.7686 42.8275C41.0364 41.7535 42.1072 41.0959 43.1606 41.3585L72.4033 48.6495C73.4566 48.9122 74.0933 49.9955 73.8256 51.0696L69.3005 69.2185Z" fill="#C4D4E3"/>
<path fill-rule="evenodd" clip-rule="evenodd" d="M44.1431 44.1479L76.6201 52.2453L75.7525 55.725L43.2755 47.6276L44.1431 44.1479Z" fill="#FDC130"/>
<path d="M52.1554 58.9679C52.5127 59.057 52.7301 59.4188 52.641 59.7761C52.5583 60.1078 52.2404 60.3189 51.9094 60.2761L51.8328 60.2616L44.2935 58.3819C43.9363 58.2928 43.7189 57.931 43.808 57.5737C43.8907 57.242 44.2086 57.0309 44.5396 57.0737L44.6161 57.0882L52.1554 58.9679Z" fill="#6680AD"/>
<path d="M56.0633 56.1766C56.4206 56.2657 56.638 56.6275 56.5489 56.9848C56.4662 57.3165 56.1483 57.5276 55.8173 57.4848L55.7408 57.4703L45.3017 54.8676C44.9445 54.7785 44.7271 54.4167 44.8161 54.0595C44.8988 53.7277 45.2167 53.5166 45.5478 53.5594L45.6243 53.5739L56.0633 56.1766Z" fill="#6680AD"/>
<path fill-rule="evenodd" clip-rule="evenodd" d="M46.839 39.7236L75.5687 46.8867C76.9624 47.2342 77.8053 48.6539 77.4559 50.0554L73.0499 67.7267C72.7005 69.1282 71.2897 69.9859 69.896 69.6385L41.1664 62.4754C39.7727 62.1279 38.9297 60.7082 39.2792 59.3067L43.6851 41.6354C44.0346 40.2339 45.4454 39.3761 46.839 39.7236ZM75.2461 48.1804L46.5165 41.0173C45.8403 40.8487 45.1509 41.2679 44.9789 41.9579L40.5729 59.6293C40.4009 60.3193 40.8128 61.0131 41.4889 61.1816L70.2186 68.3447C70.8947 68.5133 71.5842 68.0941 71.7562 67.4041L76.1622 49.7328C76.3342 49.0428 75.9222 48.349 75.2461 48.1804Z" fill="#6680AD"/>
</svg>
