<svg width="40" height="36" viewBox="0 0 40 36" fill="none" xmlns="http://www.w3.org/2000/svg">
<path fill-rule="evenodd" clip-rule="evenodd" d="M24.3226 9.73532L15.3046 4.48458L14.5379 4.03803L2.61413 7.2362C1.71257 7.47801 0.154073 8.48359 0.709716 10.5594L6.78385 33.2511C7.02679 34.1587 8.0311 35.7289 10.093 35.1759L27.1167 30.6098C28.0182 30.368 29.5764 29.3622 29.0208 27.2867L24.3226 9.73532Z" fill="#F2F6F8"/>
<path d="M21.4093 11.9584C21.5965 11.9083 21.789 12.0194 21.8392 12.2067C21.8858 12.3806 21.7933 12.559 21.6299 12.6238L21.591 12.6366L8.02716 16.271C7.83989 16.3212 7.64739 16.2101 7.59721 16.0228C7.55061 15.8489 7.64311 15.6705 7.80651 15.6057L7.84544 15.5929L21.4093 11.9584Z" fill="#6680AD"/>
<path d="M10.1641 10.6776C10.3514 10.6274 10.5439 10.7386 10.5941 10.9258C10.6407 11.0997 10.5482 11.2781 10.3848 11.3429L10.3459 11.3558L6.9549 12.2644C6.76762 12.3146 6.57512 12.2034 6.52494 12.0162C6.47835 11.8423 6.57085 11.6639 6.73424 11.5991L6.77318 11.5862L10.1641 10.6776Z" fill="#6680AD"/>
<path d="M22.4781 15.8652C22.6654 15.815 22.8579 15.9262 22.9081 16.1134C22.9547 16.2873 22.8622 16.4657 22.6988 16.5305L22.6598 16.5434L9.09601 20.1778C8.90873 20.228 8.71624 20.1169 8.66606 19.9296C8.61946 19.7557 8.71196 19.5773 8.87536 19.5125L8.91429 19.4996L22.4781 15.8652Z" fill="#6680AD"/>
<path d="M23.3868 19.2562C23.5741 19.206 23.7666 19.3171 23.8168 19.5044C23.8634 19.6783 23.7709 19.8567 23.6075 19.9215L23.5685 19.9344L10.0047 23.5688C9.81743 23.619 9.62493 23.5078 9.57475 23.3205C9.52815 23.1466 9.62065 22.9682 9.78405 22.9035L9.82298 22.8906L23.3868 19.2562Z" fill="#6680AD"/>
<path d="M24.2954 22.6471C24.4827 22.5969 24.6751 22.7081 24.7253 22.8954C24.7719 23.0693 24.6794 23.2477 24.516 23.3124L24.4771 23.3253L10.9133 26.9597C10.726 27.0099 10.5335 26.8988 10.4833 26.7115C10.4367 26.5376 10.5292 26.3592 10.6926 26.2944L10.7316 26.2815L24.2954 22.6471Z" fill="#6680AD"/>
<path fill-rule="evenodd" clip-rule="evenodd" d="M17.1031 7.88273L15.742 2.80319C15.661 2.50066 15.9866 2.25146 16.2575 2.40875L25.4552 7.75084C25.7253 7.9077 25.6714 8.31267 25.3698 8.3935L20.3259 9.74501C19.2841 10.0242 18.4528 9.79478 17.851 9.19148C17.4622 8.80173 17.2273 8.32651 17.1031 7.88273ZM24.3723 7.93386L16.6401 3.44303L17.7802 7.69724C17.8654 8.00132 18.0258 8.33783 18.2717 8.61452L18.3481 8.69564C18.7738 9.12241 19.3467 9.2805 20.1441 9.06683L24.3723 7.93386Z" fill="#6680AD"/>
<path fill-rule="evenodd" clip-rule="evenodd" d="M3.75498 5.35072L15.6787 2.15576C15.7691 2.13154 15.8654 2.14441 15.9463 2.19152L25.7331 7.89086C25.8132 7.93749 25.8715 8.01387 25.8955 8.10337L30.5984 25.6548C31.1172 27.591 29.9968 28.9918 28.4468 29.4071L11.4231 33.9686C9.49694 34.4847 8.10094 33.3536 7.68327 31.7949L1.60304 9.10315C1.08418 7.16677 2.20469 5.76612 3.75498 5.35072ZM15.7192 2.8718L3.93671 6.02894C2.72382 6.35393 1.87693 7.41255 2.28124 8.92145L8.36147 31.6132C8.68902 32.8356 9.74517 33.6914 11.2414 33.2904L28.265 28.729C29.4777 28.404 30.3245 27.3453 29.9202 25.8365L25.2544 8.42452L15.7192 2.8718Z" fill="#6680AD"/>
<path fill-rule="evenodd" clip-rule="evenodd" d="M35.372 33.3585C35.231 33.9241 34.6671 34.2704 34.1124 34.1321L18.7136 30.2927C18.1589 30.1544 17.8236 29.5839 17.9647 29.0184L20.3475 19.4614C20.4885 18.8958 21.0524 18.5495 21.6071 18.6878L37.0059 22.5272C37.5606 22.6655 37.8958 23.236 37.7548 23.8015L35.372 33.3585Z" fill="#C4D4E3"/>
<path fill-rule="evenodd" clip-rule="evenodd" d="M22.1244 20.1567L39.2263 24.4207L38.7695 26.2531L21.6675 21.9891L22.1244 20.1567Z" fill="#FDC130"/>
<path d="M26.3436 27.9607C26.5317 28.0076 26.6462 28.1981 26.5993 28.3863C26.5557 28.561 26.3883 28.6721 26.214 28.6496L26.1737 28.642L22.2036 27.6521C22.0155 27.6052 21.901 27.4147 21.9479 27.2266C21.9915 27.0519 22.1589 26.9407 22.3332 26.9632L22.3735 26.9709L26.3436 27.9607Z" fill="#6680AD"/>
<path d="M28.4015 26.4909C28.5897 26.5378 28.7041 26.7283 28.6572 26.9164C28.6137 27.0911 28.4463 27.2023 28.272 27.1797L28.2317 27.1721L22.7346 25.8016C22.5465 25.7547 22.432 25.5641 22.4789 25.376C22.5225 25.2013 22.6899 25.0901 22.8642 25.1127L22.9045 25.1203L28.4015 26.4909Z" fill="#6680AD"/>
<path fill-rule="evenodd" clip-rule="evenodd" d="M23.5441 17.8269L38.6727 21.5989C39.4066 21.7819 39.8505 22.5295 39.6665 23.2675L37.3464 32.573C37.1624 33.311 36.4195 33.7627 35.6856 33.5797L20.5569 29.8077C19.8231 29.6247 19.3792 28.8771 19.5632 28.1391L21.8833 18.8336C22.0673 18.0956 22.8102 17.644 23.5441 17.8269ZM38.5029 22.2802L23.3743 18.5082C23.0182 18.4194 22.6552 18.6401 22.5646 19.0035L20.2445 28.309C20.1539 28.6723 20.3708 29.0377 20.7268 29.1264L35.8555 32.8984C36.2115 32.9872 36.5746 32.7665 36.6652 32.4031L38.9853 23.0976C39.0759 22.7343 38.8589 22.3689 38.5029 22.2802Z" fill="#6680AD"/>
</svg>
