<svg xmlns="http://www.w3.org/2000/svg" width="112" height="101" viewBox="0 0 112 101">
    <g fill="none" fill-rule="evenodd">
        <path fill="#C4D4E3" fill-opacity=".2" d="M6.549 65.714l13.04-8.796c1.57-1.06 3.788-.518 4.952 1.21 1.165 1.726.836 3.984-.734 5.043l-7.018 4.734c-1.707 1.151-2.064 3.607-.798 5.485 1.264 1.874 3.668 2.465 5.376 1.322l24.707-16.545c.703-.472 1.702-.269 2.265.474l3.474 5.15c.618.815.486 1.942-.288 2.458L12.709 92.093c-1.908 1.27-2.313 4.004-.904 6.094 1.405 2.082 4.078 2.734 5.97 1.457l7.529-5.078c2.643-1.782 6.375-.87 8.336 2.036 2.305 2.732 4.71 3.249 7.217 1.553l67.889-45.945c2.865-1.936 3.568-4.358 2.11-7.268-2.12-3.142-5.238-2.79-8.107-.882l-9.18 6.103c-.737.49-1.77.234-2.314-.573l-4.83-7.16c-.546-.81-.392-1.869.343-2.365l23.264-15.692c1.93-1.302 2.334-4.08.902-6.202-1.432-2.124-4.158-2.79-6.089-1.488l-11.59 7.818c-2.23-3.305-6.472-4.34-9.476-2.314l-6.065 4.09c-.736.497-1.775.243-2.321-.566l-1.994-2.957c-.546-.809-.393-1.868.344-2.365l19.29-13.01c1.594-1.075 1.927-3.368.745-5.121C92.595.504 90.344-.045 88.75 1.03L2.266 59.364C.672 60.44.338 62.732 1.521 64.486c1.183 1.753 3.434 2.303 5.028 1.228z"/>
        <path fill="#F2F6F8" fill-rule="nonzero" d="M94.23 64.965c.715 1.967-.256 4.126-2.17 4.822L38.91 89.132c-1.914.696-4.046-.333-4.762-2.3L22.053 53.597c-.716-1.966.255-4.125 2.17-4.822L77.37 29.43c1.914-.697 4.046.332 4.762 2.299l12.096 33.235z"/>
        <path fill="#ACC8DF" fill-rule="nonzero" d="M20.887 57.33l58.438-21.27 2.314 6.358-58.438 21.27z"/>
        <path stroke="#6680AD" stroke-linecap="round" stroke-linejoin="round" stroke-width="1.44" d="M18.292 55.657l58.439-21.27 2.524 6.936-58.439 21.27z"/>
        <path stroke="#FDC130" stroke-linecap="round" stroke-linejoin="round" stroke-width="1.44" d="M32.878 73.911l14.025-5.105M31.405 69.865l19.285-7.019"/>
        <path stroke="#6680AD" stroke-linecap="round" stroke-linejoin="round" stroke-width="1.886" d="M86.636 61.602c.687 1.887-.266 3.966-2.128 4.644L32.813 85.062c-1.862.678-3.928-.303-4.615-2.19L16.59 50.982c-.686-1.888.266-3.967 2.128-4.644l51.696-18.816c1.862-.678 3.928.303 4.615 2.19l11.607 31.89z"/>
        <g>
            <path fill="#F2F6F8" fill-rule="nonzero" d="M100.123 54.05c.363 2.062-.982 4.023-3.006 4.38l-56.192 9.908c-2.024.357-3.959-1.025-4.323-3.088l-6.146-34.855c-.363-2.063.982-4.024 3.007-4.38l56.19-9.909c2.025-.357 3.96 1.026 4.324 3.089l6.146 34.855z"/>
            <path fill="#ACC8DF" fill-rule="nonzero" d="M32.327 36.368l61.785-10.894 1.176 6.667-61.785 10.894z"/>
            <path stroke="#6680AD" stroke-linecap="round" stroke-linejoin="round" stroke-width="1.44" d="M30.047 34.27L91.83 23.376l1.283 7.274-61.785 10.894z"/>
            <path stroke="#FDC130" stroke-linecap="round" stroke-linejoin="round" stroke-width="1.44" d="M41.308 54.784l14.829-2.615M40.56 50.54l20.39-3.594"/>
            <path stroke="#6680AD" stroke-linecap="round" stroke-linejoin="round" stroke-width="1.886" d="M96.864 51.918c.35 1.98-.964 3.865-2.933 4.212l-54.655 9.637c-1.97.347-3.848-.976-4.197-2.955l-5.897-33.445c-.349-1.979.964-3.864 2.933-4.212l54.655-9.637c1.97-.347 3.848.976 4.197 2.955l5.897 33.445z"/>
        </g>
    </g>
</svg>
