<svg xmlns="http://www.w3.org/2000/svg" width="25" height="30" viewBox="0 0 25 30">
    <g fill="none" fill-rule="evenodd">
        <path fill="#C6D3E0" d="M13.459 10.313H9.194a.998.998 0 0 1-.995-.995c0-.548.448-.995.995-.995h4.265c.547 0 .995.447.995.995a.998.998 0 0 1-.995.995"/>
        <path fill="#C6D3E0" d="M13.53 8.393H9.265a.998.998 0 0 1-.995-.995c0-.547.448-.994.995-.994h4.265c.547 0 .995.447.995.994a.998.998 0 0 1-.995.995"/>
        <path fill="#F4F6F8" d="M9.194 6.333L7.915 1.357h4.833l-.866 4.976"/>
        <path fill="#F4F6F8" d="M13.601 6.333l1.848-4.246h-2.828l-.691 3.969M18.442 27.236c.284.284 4.55 1.705 5.544.568.995-1.137-.854-2.985-.854-2.985 0-8.553-3.395-12.255-6.219-13.855-2.225-1.261-4.933-1.276-7.203-.097-3.432 1.781-7.915 6.035-7.33 15.089 0 0-.854 1.848 0 2.417.851.568 3.125-.711 3.836-1.137 0 0 8.73 2.227 12.226 0"/>
        <path stroke="#FDC130" d="M7.915 20.435L9.97 19.03l1.072 1 1.788-1.452"/>
        <path stroke="#6B80A8" stroke-linecap="round" stroke-linejoin="round" stroke-width=".714" d="M4.574 27.585c-.71.426-2.985 1.705-3.838 1.137-.852-.57 0-2.417 0-2.417-.584-9.054 3.9-13.308 7.331-15.09 2.271-1.178 4.98-1.163 7.203.098 2.825 1.6 6.22 5.302 6.22 13.855 0 0 1.85 1.848.854 2.985-.996 1.137-5.26-.284-5.544-.568M3.224 26.66s9.24 4.549 15.637-.426"/>
        <path stroke="#6B80A8" stroke-linecap="round" stroke-linejoin="round" stroke-width=".714" d="M13.459 10.313H9.194a.998.998 0 0 1-.995-.995c0-.548.448-.995.995-.995h4.265c.547 0 .995.447.995.995a.998.998 0 0 1-.995.995z"/>
        <path stroke="#6B80A8" stroke-linecap="round" stroke-linejoin="round" stroke-width=".714" d="M13.53 8.393H9.265a.998.998 0 0 1-.995-.995c0-.547.448-.994.995-.994h4.265c.547 0 .995.447.995.994a.998.998 0 0 1-.995.995zM9.194 6.333L7.915 1.357h4.833l-.866 4.976M12.621 2.087h2.828l-1.848 4.246"/>
        <path stroke="#6680AD" stroke-linecap="round" stroke-linejoin="round" stroke-width=".714" d="M11.313 23.115a3.87 3.87 0 0 0 3.864-3.879 3.87 3.87 0 0 0-3.864-3.879 3.871 3.871 0 0 0-3.864 3.88 3.87 3.87 0 0 0 3.864 3.878z"/>
    </g>
</svg>
