<svg xmlns="http://www.w3.org/2000/svg" width="107" height="96" viewBox="0 0 107 96">
    <g fill="none" fill-rule="evenodd" transform="translate(-10 -4)">
        <path fill="#C4D4E3" fill-opacity=".2" d="M15.458 66.99l12.574-8.482c1.514-1.02 3.62-.546 4.704 1.06 1.083 1.607.734 3.737-.78 4.758l-6.766 4.565c-1.646 1.11-2.026 3.427-.847 5.174 1.176 1.744 3.459 2.262 5.106 1.16l23.82-15.956c.679-.455 1.628-.28 2.153.41l3.233 4.792c.576.757.433 1.82-.313 2.317L20.92 91.715c-1.84 1.226-2.27 3.805-.957 5.75 1.306 1.937 3.845 2.508 5.67 1.277l7.26-4.896c2.547-1.719 6.093-.92 7.917 1.785 2.155 2.534 4.441 2.983 6.859 1.348L113.13 52.68c2.762-1.866 3.47-4.156 2.125-6.872-1.972-2.923-4.95-2.542-7.717-.702l-8.85 5.886c-.71.472-1.692.248-2.198-.502l-4.494-6.664c-.508-.753-.344-1.751.365-2.23l22.432-15.13c1.86-1.255 2.29-3.875.957-5.85-1.333-1.976-3.922-2.56-5.784-1.305L98.792 26.85c-2.074-3.075-6.104-3.983-9.001-2.03l-5.848 3.945c-.71.48-1.697.257-2.205-.496l-1.855-2.751c-.508-.753-.345-1.752.365-2.231l18.6-12.545c1.537-1.037 1.89-3.2.79-4.83-1.1-1.632-3.237-2.114-4.775-1.077l-83.39 56.247c-1.537 1.037-1.89 3.2-.79 4.83 1.1 1.632 3.238 2.114 4.775 1.078z"/>
        <rect width="48.39" height="52.161" x="35.943" y="19.943" fill="#C4D4E3" rx=".186"/>
        <rect width="44.619" height="52.475" x="54.482" y="29.683" fill="#F2F6F8" rx=".186"/>
        <path fill="#6680AD" d="M65.228 76.69c.642 0 1.163-.421 1.163-.942 0-.52-.521-.942-1.163-.942h-1.163c-.641 0-1.162.422-1.162.942s.52.943 1.162.943h1.163zm0-6.975c.642 0 1.163-.422 1.163-.942s-.521-.943-1.163-.943h-1.163c-.641 0-1.162.422-1.162.943 0 .52.52.942 1.162.942h1.163zm0-6.976c.642 0 1.163-.422 1.163-.942s-.521-.943-1.163-.943h-1.163c-.641 0-1.162.422-1.162.943 0 .52.52.942 1.162.942h1.163zm4.65 12.067c-.641 0-1.162.422-1.162.942s.52.943 1.162.943h9.301c.643 0 1.163-.422 1.163-.943 0-.52-.52-.942-1.163-.942h-9.3zm10.464-6.976H69.878c-.641 0-1.162.422-1.162.943 0 .52.52.942 1.162.942h10.464c.643 0 1.163-.422 1.163-.942s-.52-.943-1.163-.943zm9.3-23.692c.644 0 1.164-.423 1.164-.943s-.52-.943-1.163-.943h-6.976c-.643 0-1.162.423-1.162.943s.52.943 1.162.943h6.976zm-11.625 0c.643 0 1.162-.423 1.162-.943s-.52-.943-1.162-.943H64.065c-.641 0-1.162.423-1.162.943s.52.943 1.162.943h13.952zm0 18.601c.643 0 1.162-.422 1.162-.942s-.52-.943-1.162-.943h-8.139c-.641 0-1.162.422-1.162.943 0 .52.52.942 1.162.942h8.139zm16.276-11.626c.643 0 1.163-.422 1.163-.942s-.52-.943-1.163-.943H64.065c-.641 0-1.162.422-1.162.943 0 .52.52.942 1.162.942h30.228zm10.464 36.481c0 .642-.52 1.163-1.163 1.163h-48.83c-.641 0-1.162-.52-1.162-1.163v-8.138h-5.813a1.163 1.163 0 0 1 0-2.325h5.813V34.114a3.492 3.492 0 0 0-3.488-3.488 3.492 3.492 0 0 0-3.488 3.488v39.529a5.82 5.82 0 0 1-5.813 5.813A5.82 5.82 0 0 1 35 73.643v-53.48c0-.642.52-1.163 1.163-1.163h48.83c.642 0 1.162.52 1.162 1.163v4.65c0 .642-.37 1.163-1.013 1.163-.643 0-.998-.521-.998-1.163v-3.802H37.011v52.632c0 1.923 1.88 3.802 3.802 3.802 1.923 0 3.802-1.88 3.802-3.802V34.114c0-3.205 2.294-5.499 5.499-5.499 3.205 0 5.499 2.294 5.499 5.499v52.632h47.133V34.114c0-1.923-1.88-3.802-3.802-3.802H58.252c-.641 0-1.162-.35-1.162-.992s.52-1.02 1.162-1.02h40.692a5.82 5.82 0 0 1 5.813 5.814v53.48z"/>
        <path fill="#FDC130" d="M90.228 61.254c0 .614.232 1.046.95 1.046.717 0 .946-.432.946-1.046 0-2.068-1.658-3.797-3.89-4.294v-.158c0-.615-.58-1.114-1.297-1.114s-1.297.5-1.297 1.114v.158c-2.232.497-3.89 2.226-3.89 4.294 0 2.456 2.586 4.453 5.187 4.453 1.43 0 3.291.381 3.291 2.226s-1.412 2.924-3.29 2.924c-1.88 0-3.292-1.696-3.292-2.924 0-.615-.193-1.093-.91-1.093-.717 0-.986.478-.986 1.093 0 2.068 1.658 3.797 3.89 4.294v.158c0 .615.58 1.113 1.297 1.113s1.297-.498 1.297-1.113v-.158c2.232-.497 3.89-2.226 3.89-4.294 0-2.456-2.326-3.755-5.187-3.755-1.43 0-3.291-1.145-3.291-2.924s1.86-2.924 3.291-2.924c1.919 0 3.291 1.696 3.291 2.924z"/>
    </g>
</svg>
