<svg xmlns="http://www.w3.org/2000/svg" width="31" height="30" viewBox="0 0 31 30">
    <g fill="none" fill-rule="evenodd" transform="translate(.333)">
        <rect width="20.811" height="22.432" x=".405" y=".405" fill="#C4D4E3" rx=".186"/>
        <rect width="19.189" height="22.568" x="8.378" y="4.595" fill="#F2F6F8" rx=".186"/>
        <path fill="#6680AD" d="M13 24.81c.276 0 .5-.18.5-.405 0-.223-.224-.405-.5-.405h-.5c-.276 0-.5.182-.5.405 0 .224.224.406.5.406h.5zm0-3c.276 0 .5-.18.5-.405 0-.223-.224-.405-.5-.405h-.5c-.276 0-.5.182-.5.405 0 .224.224.406.5.406h.5zm0-3c.276 0 .5-.18.5-.405 0-.223-.224-.405-.5-.405h-.5c-.276 0-.5.182-.5.405 0 .224.224.406.5.406h.5zM15 24c-.276 0-.5.182-.5.405 0 .224.224.406.5.406h4c.276 0 .5-.182.5-.406 0-.223-.224-.405-.5-.405h-4zm4.5-3H15c-.276 0-.5.182-.5.405 0 .224.224.406.5.406h4.5c.276 0 .5-.182.5-.406 0-.223-.224-.405-.5-.405zm4-10.19c.276 0 .5-.18.5-.405 0-.223-.224-.405-.5-.405h-3c-.276 0-.5.182-.5.405 0 .224.224.406.5.406h3zm-5 0c.276 0 .5-.18.5-.405 0-.223-.224-.405-.5-.405h-6c-.276 0-.5.182-.5.405 0 .224.224.406.5.406h6zm0 8c.276 0 .5-.18.5-.405 0-.223-.224-.405-.5-.405H15c-.276 0-.5.182-.5.405 0 .224.224.406.5.406h3.5zm7-5c.276 0 .5-.18.5-.405 0-.223-.224-.405-.5-.405h-13c-.276 0-.5.182-.5.405 0 .224.224.406.5.406h13zM30 29.5a.5.5 0 0 1-.5.5h-21a.5.5 0 0 1-.5-.5V26H5.5a.5.5 0 0 1 0-1H8V6.5C8 5.673 7.327 5 6.5 5S5 5.673 5 6.5v17C5 24.878 3.878 26 2.5 26A2.503 2.503 0 0 1 0 23.5V.5A.5.5 0 0 1 .5 0h21a.5.5 0 0 1 .5.5v2c0 .276-.16.5-.436.5s-.429-.224-.429-.5V.865H.865V23.5c0 .827.808 1.635 1.635 1.635s1.635-.808 1.635-1.635v-17c0-1.378.987-2.365 2.365-2.365 1.378 0 2.365.987 2.365 2.365v22.635h20.27V6.5c0-.827-.808-1.635-1.635-1.635H10c-.276 0-.5-.15-.5-.427 0-.276.224-.438.5-.438h17.5C28.878 4 30 5.122 30 6.5v23z"/>
        <path fill="#FDC130" d="M23.752 18.172c0 .264.1.45.408.45.308 0 .407-.186.407-.45 0-.89-.713-1.633-1.673-1.847v-.068c0-.264-.25-.479-.558-.479-.308 0-.557.215-.557.48v.067c-.96.214-1.674.958-1.674 1.847 0 1.056 1.113 1.915 2.231 1.915.615 0 1.416.164 1.416.957 0 .794-.608 1.258-1.416 1.258-.808 0-1.415-.73-1.415-1.258 0-.264-.083-.47-.392-.47-.308 0-.424.206-.424.47 0 .89.714 1.633 1.674 1.847v.068c0 .264.249.479.557.479.309 0 .558-.215.558-.479v-.068c.96-.214 1.673-.957 1.673-1.847 0-1.056-1-1.615-2.23-1.615-.616 0-1.416-.492-1.416-1.257 0-.765.8-1.257 1.415-1.257.825 0 1.416.729 1.416 1.257z"/>
    </g>
</svg>
