<svg xmlns="http://www.w3.org/2000/svg" width="29" height="34" viewBox="0 0 29 34">
    <g fill="none" fill-rule="evenodd">
        <path fill="#FFF" d="M24.348 12.81c0 7.2-4.175 13.827-10.807 16.785-6.454-2.879-10.807-9.39-10.807-16.784V7.49l10.807-4.544L24.348 7.49v5.32z" transform="translate(1 1)"/>
        <path fill="#F2F6F8" d="M26.54 14.032c0 7.199-4.175 13.826-10.807 16.784-6.454-2.879-10.807-9.39-10.807-16.784v-5.32l10.807-4.544L26.54 8.712v5.32z" transform="translate(1 1)"/>
        <path fill="#6680AD" stroke="#FFF" stroke-width="1.5" d="M25.77 5.154L13.733.095c-.301-.127-.64-.127-.942 0L.757 5.155C.3 5.346 0 5.8 0 6.302v6.15c0 8.468 5.055 16.086 12.8 19.286.297.123.63.123.927 0 7.744-3.2 12.8-10.817 12.8-19.286v-6.15c0-.503-.3-.956-.758-1.149zm-1.7 7.299c0 7.2-4.175 13.826-10.807 16.785-6.454-2.88-10.807-9.39-10.807-16.785v-5.32L13.263 2.59 24.07 7.133v5.32z" transform="translate(1 1)"/>
        <path fill="#FDC130" stroke="#F2F6F8" stroke-width="1.137" d="M11.906 16.644l5.278-5.344c.48-.486 1.257-.486 1.737 0 .48.485.48 1.273 0 1.758l-6.147 6.224c-.48.486-1.257.485-1.737 0l-3.432-3.475c-.48-.486-.48-1.273 0-1.759.48-.485 1.257-.485 1.737 0l2.564 2.596z" transform="translate(1 1)"/>
    </g>
</svg>
