<svg xmlns="http://www.w3.org/2000/svg" width="144" height="209" viewBox="0 0 144 209">
    <g fill="none" fill-rule="evenodd">
        <path fill="#FFF" fill-opacity=".01" fill-rule="nonzero" d="M0 0H143V209H0z" transform="translate(.507)"/>
        <path fill="#C4D4E3" fill-opacity=".2" d="M25.603 113.452l11.37-7.668c1.368-.924 3.38-.335 4.492 1.314 1.112 1.648.904 3.733-.465 4.657l-6.118 4.127c-1.489 1.004-1.715 3.272-.506 5.065 1.207 1.789 3.388 2.43 4.877 1.434l21.545-14.418c.614-.41 1.518-.184 2.053.528l3.317 4.918c.586.78.51 1.822-.164 2.271l-33.855 22.513c-1.664 1.107-1.923 3.63-.576 5.626 1.34 1.988 3.766 2.697 5.416 1.584l6.563-4.427c2.304-1.554 5.69-.564 7.563 2.212 2.174 2.625 4.354 3.199 6.54 1.72l59.182-40.066c2.497-1.688 3.035-3.91 1.614-6.67-2.024-3-4.81-2.792-7.312-1.131l-8.008 5.316c-.642.426-1.58.148-2.098-.621l-4.613-6.839c-.521-.772-.424-1.75.218-2.182l20.282-13.681c1.683-1.135 1.939-3.7.571-5.727-1.367-2.027-3.84-2.751-5.523-1.616l-10.106 6.816c-2.128-3.156-5.977-4.281-8.596-2.515l-5.288 3.567c-.642.433-1.584.157-2.106-.616l-1.904-2.823c-.521-.773-.424-1.75.218-2.184l16.818-11.342c1.39-.938 1.6-3.055.472-4.729-1.13-1.674-3.171-2.271-4.561-1.334L21.514 107.39c-1.39.937-1.601 3.054-.472 4.728 1.13 1.674 3.172 2.272 4.561 1.334z" transform="translate(.507)"/>
        <path fill="#4070BE" d="M14 119.38c0 1.867 1.513 3.38 3.38 3.38 1.866 0 3.38-1.513 3.38-3.38S19.246 116 17.38 116c-1.867 0-3.38 1.513-3.38 3.38z" transform="translate(.507)"/>
        <path fill="#D0021B" d="M99 32.835c0 1.566 1.265 2.835 2.825 2.835 1.56 0 2.825-1.27 2.825-2.835 0-1.566-1.265-2.835-2.825-2.835-1.56 0-2.825 1.27-2.825 2.835z" transform="translate(.507)"/>
        <path fill="#FDC130" d="M124.575 67.927v1.54h-1.589c-1.097 0-1.986.864-1.986 1.927 0 1.065.89 1.927 1.986 1.927h1.59v1.541c0 1.065.889 1.927 1.986 1.927 1.096 0 1.986-.862 1.986-1.927v-1.54h1.59c1.096 0 1.986-.863 1.986-1.928 0-1.063-.89-1.926-1.987-1.926h-1.589v-1.541c0-1.064-.89-1.927-1.986-1.927-1.097 0-1.987.863-1.987 1.927zM103.25 160.212v.97h-1c-.69 0-1.25.543-1.25 1.212 0 .67.56 1.213 1.25 1.213h1v.97c0 .67.56 1.212 1.25 1.212s1.25-.543 1.25-1.212v-.97h1c.69 0 1.25-.543 1.25-1.213 0-.669-.56-1.212-1.25-1.212h-1v-.97c0-.669-.56-1.212-1.25-1.212s-1.25.543-1.25 1.212z" transform="translate(.507)"/>
        <path fill="#7AD468" d="M32.41 30.426h-1.96c-1.353 0-2.45 1.102-2.45 2.46 0 1.358 1.097 2.458 2.45 2.458h1.96v1.967c0 1.359 1.097 2.46 2.45 2.46 1.353 0 2.45-1.101 2.45-2.46v-1.967h1.961c1.352 0 2.45-1.1 2.45-2.459 0-1.357-1.098-2.459-2.45-2.459h-1.96V28.46c0-1.357-1.098-2.459-2.45-2.459-1.354 0-2.45 1.102-2.45 2.459v1.967z" transform="translate(.507)"/>
        <g>
            <path fill="#FFF" d="M57.827 30.425c0 17.098-9.917 32.838-25.667 39.864C16.83 63.45 6.493 47.986 6.493 30.425V17.79L32.16 7l25.667 10.79v12.635z" transform="translate(.507) translate(40 67)"/>
            <path fill="#F2F6F8" d="M63.033 33.325c0 17.098-9.916 32.838-25.666 39.864C22.037 66.35 11.7 50.886 11.7 33.325V20.69L37.367 9.9l25.666 10.79v12.635z" transform="translate(.507) translate(40 67)"/>
            <path fill="#6680AD" stroke="#FFF" stroke-width="2.7" d="M61.202 12.242L32.618.226c-.716-.301-1.52-.301-2.236 0L1.798 12.242C.71 12.699 0 13.775 0 14.969v14.607C0 49.689 12.006 67.78 30.398 75.38c.706.292 1.498.292 2.204 0C50.993 67.781 63 49.69 63 29.576V14.969c0-1.194-.71-2.27-1.798-2.727zm-4.035 17.334c0 17.098-9.917 32.837-25.667 39.863C16.17 62.601 5.833 47.137 5.833 29.576V16.94L31.5 6.15l25.667 10.79v12.636z" transform="translate(.507) translate(40 67)"/>
            <path fill="#FDC130" stroke="#FFF" stroke-width="2.7" d="M28.276 39.53l12.537-12.693c1.139-1.153 2.985-1.153 4.124 0 1.14 1.153 1.14 3.023 0 4.176L30.34 45.794c-1.14 1.154-2.986 1.153-4.125 0l-8.151-8.253c-1.14-1.153-1.14-3.023 0-4.176 1.139-1.153 2.985-1.153 4.124 0l6.09 6.165z" transform="translate(.507) translate(40 67)"/>
        </g>
    </g>
</svg>
