<svg xmlns="http://www.w3.org/2000/svg" width="49" height="27" viewBox="0 0 49 27">
    <g fill="none" fill-rule="evenodd">
        <path fill="#F2F6F8" d="M48.44 14.928c.257.706-.298 1.557-1.241 1.9l-26.167 9.524c-.943.343-1.915.049-2.172-.657l-4.343-11.931c-.257-.706.299-1.557 1.242-1.9L41.926 2.34c.942-.343 1.915-.049 2.172.657l4.342 11.931z"/>
        <path stroke="#6680AD" stroke-linecap="round" stroke-linejoin="round" stroke-width=".828" d="M45.497 13.626c.257.706-.277 1.549-1.193 1.882l-25.426 9.255c-.916.333-1.867.031-2.124-.675l-4.342-11.931c-.257-.706.277-1.549 1.193-1.882L39.03 1.02c.916-.333 1.867-.03 2.124.675l4.342 11.931z"/>
        <path stroke="#6680AD" stroke-linecap="round" stroke-linejoin="round" stroke-width=".88" d="M16.71 11.749l2.512-.914M39.578 14.367l2.511-.914M36.31 5.64l2.512-.914M19.087 21.64l2.511-.915"/>
        <path stroke="#6680AD" stroke-width=".739" d="M29.04 7.348c2.948 0 5.346 2.414 5.346 5.382 0 2.967-2.398 5.381-5.346 5.381-2.947 0-5.345-2.414-5.345-5.381 0-2.968 2.398-5.382 5.345-5.382z"/>
        <path fill="#FDC130" d="M28.452 13.79c-.05-.184-.282-.282-.52-.218-.238.064-.39.265-.341.45.166.62.856.99 1.636.94l.012.048c.05.184.283.282.52.218.238-.064.39-.265.341-.449l-.013-.047c.7-.348 1.112-1.013.946-1.633-.197-.736-1.13-1.128-2.079-.874-.474.127-.94-.068-1.039-.437-.099-.368.208-.77.682-.897.474-.128.94.068 1.04.436.049.185.281.282.519.219.238-.064.39-.265.34-.45-.165-.62-.854-.99-1.635-.94l-.013-.048c-.049-.184-.281-.282-.52-.218-.237.063-.39.264-.34.449l.012.047c-.7.348-1.112 1.013-.945 1.633.197.736 1.13 1.128 2.078.874.475-.128.941.068 1.04.436.098.368-.208.771-.682.898-.474.127-.94-.068-1.04-.437z"/>
        <path fill="#ACC8DF" d="M18.569 15.494a5.434 5.434 0 0 1-1.978.338c-4.25-.003-5.689-1.926-5.979-2.405-1.572-.258-2.532-.74-2.805-1.426a1.172 1.172 0 0 1-.003-.897c-1.722-.227-2.765-.745-3.102-1.543-.278-.64-.023-1.271.168-1.633C1.942 7.243 1.508 5.29 1.5 5.203c-.022-.06-.003-.134.044-.196a.166.166 0 0 1 .184-.066l15.59 1.218c1.323.08 2.525.653 3.385 1.62a4.649 4.649 0 0 1 1.18 3.5c-.147 1.94-1.479 3.547-3.314 4.215z"/>
        <path fill="#6680AD" fill-rule="nonzero" stroke="#6680AD" stroke-width=".544" d="M17.347 16.173a5.417 5.417 0 0 1-1.971.337c-4.235-.002-5.67-1.918-5.958-2.395-1.566-.258-2.523-.737-2.795-1.421a1.167 1.167 0 0 1-.003-.894c-1.716-.225-2.756-.742-3.091-1.537-.278-.637-.024-1.267.167-1.627C.778 7.953.346 6.007.337 5.92c-.021-.06-.002-.133.045-.195a.166.166 0 0 1 .182-.067l15.538 1.213c1.318.08 2.515.65 3.372 1.614a4.631 4.631 0 0 1 1.177 3.487c-.148 1.933-1.475 3.534-3.304 4.2zm1.792-7.408a4.34 4.34 0 0 0-3.063-1.458L.894 6.12c.249.558.993 1.719 3.218 2.14l7.484.52c.116.002.227.118.202.24a.232.232 0 0 1-.14.184c-.02.008-.06.023-.088.01l-7.388-.51c-.146.232-.463.817-.234 1.383.293.676 1.338 1.146 3.032 1.312l6.42.125c.116.002.22.098.223.232-.012.094-.072.182-.153.212-.02.007-.061.022-.089.01l-6.31-.142c-.066.136-.177.4-.049.69.164.387.72.9 2.545 1.176l5.189.281c.116.003.22.1.202.24a.239.239 0 0 1-.16.192c-.02.008-.061.023-.089.01l-4.737-.244c.57.62 2.047 1.895 5.41 1.901 2.57-.018 4.645-1.78 4.826-4.128a4.324 4.324 0 0 0-1.07-3.19z"/>
    </g>
</svg>
