<svg xmlns="http://www.w3.org/2000/svg" width="124" height="95" viewBox="0 0 124 95">
    <g fill="none" fill-rule="evenodd">
        <path fill="#C4D4E3" fill-opacity=".2" d="M13.416 45.27l14.08-5.405c1.695-.651 3.802.728 4.705 3.08.903 2.352.26 4.786-1.435 5.437l-7.578 2.909c-1.843.707-2.542 3.355-1.56 5.913.98 2.552 3.263 4.052 5.106 3.354l26.66-10.105c.76-.288 1.713.287 2.163 1.32l2.693 7.015c.493 1.133.204 2.36-.63 2.673L15.756 77.168c-2.058.772-2.843 3.716-1.75 6.564 1.088 2.835 3.628 4.497 5.672 3.713l8.128-3.12c2.854-1.096 6.4 1.227 7.92 5.186 1.883 3.88 4.179 5.298 6.886 4.253l73.324-28.311c3.094-1.191 4.128-3.681 3.103-7.47-1.643-4.28-4.762-4.962-7.856-3.804l-9.9 3.704c-.794.297-1.775-.35-2.197-1.448l-3.744-9.754c-.423-1.103-.122-2.244.672-2.548l25.12-9.643c2.084-.8 2.873-3.794 1.763-6.686-1.11-2.892-3.7-4.589-5.785-3.788l-12.514 4.804c-1.728-4.502-5.759-7.141-9.003-5.896l-6.548 2.514c-.795.305-1.782-.342-2.205-1.444l-1.546-4.027c-.424-1.103-.123-2.244.672-2.55l20.829-7.993c1.721-.66 2.373-3.132 1.456-5.52-.917-2.39-3.055-3.79-4.776-3.128L10.096 36.62c-1.721.66-2.374 3.132-1.457 5.52.917 2.389 3.056 3.79 4.777 3.129z"/>
        <path fill="#F2F6F8" d="M118.754 51.051c.645 1.77-.704 3.885-3.013 4.726L51.658 79.1c-2.308.84-4.701.087-5.345-1.683L35.427 47.51c-.644-1.77.705-3.885 3.014-4.725l64.083-23.325c2.308-.84 4.701-.086 5.345 1.684l10.885 29.906z"/>
        <path stroke="#6680AD" stroke-linecap="round" stroke-linejoin="round" stroke-width="2.036" d="M111.547 47.779c.645 1.77-.651 3.866-2.894 4.682l-62.27 22.664c-2.243.817-4.583.044-5.227-1.726L30.27 43.492c-.644-1.77.652-3.866 2.895-4.682l62.269-22.664c2.243-.817 4.583-.044 5.227 1.726l10.885 29.907z"/>
        <path stroke="#6680AD" stroke-linecap="round" stroke-linejoin="round" stroke-width="2.166" d="M40.925 42.744l6.15-2.238M96.925 49.307l6.15-2.239M88.925 27.432l6.15-2.239M46.743 67.536l6.15-2.239"/>
        <path stroke="#6680AD" stroke-width="1.818" d="M71.119 31.74c7.219 0 13.09 6.052 13.09 13.49 0 7.438-5.871 13.489-13.09 13.489-7.218 0-13.091-6.05-13.091-13.49 0-7.437 5.873-13.49 13.09-13.49z"/>
        <path fill="#FDC130" d="M69.693 47.875c-.124-.461-.695-.71-1.278-.554-.582.156-.953.657-.83 1.119.417 1.555 2.113 2.492 4.026 2.38l.032.119c.124.461.696.71 1.278.554.582-.157.953-.657.83-1.12l-.032-.118c1.713-.86 2.713-2.519 2.296-4.074-.494-1.844-2.787-2.839-5.111-2.216-1.161.311-2.309-.185-2.556-1.108-.247-.922.498-1.926 1.66-2.237 1.162-.312 2.308.185 2.555 1.108.124.461.696.71 1.278.554.583-.156.953-.657.83-1.119-.417-1.554-2.112-2.491-4.026-2.38l-.032-.119c-.124-.461-.695-.71-1.278-.554-.582.156-.953.658-.83 1.12l.032.118c-1.712.86-2.713 2.52-2.296 4.074.494 1.845 2.786 2.839 5.111 2.216 1.162-.312 2.308.185 2.556 1.108.247.922-.497 1.926-1.66 2.237-1.16.312-2.308-.185-2.555-1.108z"/>
        <path fill="#ACC8DF" d="M45.63 52.232c-1.498.545-3.137.86-4.852.81-10.436-.086-14.005-4.921-14.725-6.123-3.865-.675-6.233-1.896-6.916-3.618-.375-.876-.229-1.717-.024-2.242-4.233-.598-6.804-1.914-7.645-3.915-.697-1.604-.083-3.178.381-4.078-7.203-1.769-8.304-6.658-8.327-6.875-.054-.15-.008-.335.105-.489a.4.4 0 0 1 .45-.163l38.31 3.334c3.249.225 6.21 1.68 8.34 4.113 2.129 2.433 3.2 5.532 2.965 8.77-.328 4.847-3.568 8.84-8.062 10.476z"/>
        <path fill="#6680AD" fill-rule="nonzero" stroke="#6680AD" stroke-width=".866" d="M42.638 53.935c-1.493.544-3.126.857-4.835.807-10.4-.084-13.958-4.902-14.675-6.1-3.852-.672-6.21-1.888-6.891-3.603-.375-.874-.229-1.712-.025-2.235-4.218-.595-6.78-1.906-7.619-3.9-.694-1.598-.081-3.167.381-4.064C1.795 33.08.698 28.207.676 27.99c-.054-.148-.008-.333.105-.486a.399.399 0 0 1 .448-.163l38.179 3.32c3.237.223 6.188 1.673 8.31 4.097 2.123 2.424 3.19 5.512 2.955 8.738-.327 4.83-3.556 8.809-8.035 10.44zm4.261-18.486a10.762 10.762 0 0 0-7.547-3.703L2.046 28.501c.622 1.4 2.472 4.316 7.942 5.41l18.39 1.437c.284.009.56.301.5.603a.566.566 0 0 1-.34.46c-.05.018-.149.055-.217.023l-18.153-1.411c-.354.577-1.12 2.033-.548 3.451.73 1.697 3.307 2.89 7.47 3.338l15.768.43a.586.586 0 0 1 .551.584c-.027.234-.172.455-.371.528-.05.018-.15.054-.217.023l-15.5-.471c-.16.338-.427.996-.107 1.72.41.973 1.783 2.268 6.272 2.99l12.747.8a.523.523 0 0 1 .501.602.583.583 0 0 1-.39.478c-.05.018-.149.055-.217.023l-11.638-.698c1.413 1.56 5.063 4.774 13.32 4.853 6.312.002 11.374-4.364 11.775-10.23.175-2.924-.753-5.783-2.685-7.995z"/>
    </g>
</svg>
