<svg xmlns="http://www.w3.org/2000/svg" width="112" height="101" viewBox="0 0 112 101">
    <g fill="none" fill-rule="evenodd" transform="translate(-10 -5)">
        <path fill="#C4D4E3" fill-opacity=".2" d="M16.019 70.59l13.04-8.796c1.57-1.06 3.787-.518 4.952 1.209s.836 3.985-.734 5.044l-7.018 4.734c-1.707 1.151-2.064 3.607-.798 5.485 1.264 1.874 3.668 2.465 5.376 1.322l24.706-16.545c.704-.472 1.702-.269 2.266.473l3.474 5.151c.618.815.486 1.942-.288 2.458L22.179 96.968c-1.908 1.27-2.314 4.005-.904 6.095 1.405 2.082 4.078 2.734 5.97 1.457l7.529-5.078c2.643-1.782 6.375-.87 8.336 2.036 2.304 2.732 4.71 3.249 7.217 1.553l67.889-45.945c2.864-1.936 3.567-4.358 2.11-7.268-2.12-3.143-5.238-2.79-8.107-.882l-9.181 6.103c-.736.49-1.77.233-2.313-.573l-4.83-7.161c-.546-.81-.393-1.868.343-2.364l23.264-15.692c1.93-1.302 2.334-4.08.902-6.202-1.432-2.124-4.158-2.79-6.089-1.488l-11.59 7.818c-2.23-3.305-6.472-4.34-9.476-2.314l-6.065 4.09c-.736.497-1.775.243-2.321-.566l-1.995-2.957c-.546-.81-.392-1.868.344-2.365l19.29-13.01c1.595-1.075 1.928-3.368.745-5.121-1.182-1.754-3.433-2.303-5.027-1.228L11.736 64.24c-1.594 1.075-1.928 3.368-.745 5.122 1.182 1.753 3.434 2.303 5.028 1.228z"/>
        <path fill="#C4D4E3" d="M30.324 32.48h72.288l9.86 25.443H22.31z"/>
        <path stroke="#6680AD" stroke-linecap="round" stroke-linejoin="round" stroke-width="1.859" d="M30.216 30.058h71.31l9.727 25.442H22.31z"/>
        <path fill="#F4F7F9" fill-rule="nonzero" d="M85.667 56.712h19.494v27.865H85.667zM28.402 56.712h19.495v27.865H28.402z"/>
        <path fill="#F4F7F9" fill-rule="nonzero" d="M86.885 48.166L67.391 30.058 47.897 48.166v36.41h38.988z"/>
        <ellipse cx="67.391" cy="47.019" stroke="#FDC130" stroke-linecap="round" stroke-linejoin="round" stroke-width="1.859" rx="3.655" ry="3.635"/>
        <path fill="#F2FCFC" fill-rule="nonzero" d="M34.494 65.192h9.747v12.115h-9.747zM92.977 65.192h9.747v12.115h-9.747z"/>
        <path fill="#C4D4E3" fill-rule="nonzero" d="M65.908 24L43.023 45.553v5.841l22.885-21.553L90.54 51.865v-5.84z"/>
        <path stroke="#6680AD" stroke-linecap="round" stroke-linejoin="round" stroke-width="1.859" d="M66.782 24L43.023 45.999v5.866l23.759-21.999 23.758 22v-5.867zM15 84.577h106M106.38 56.173V84.5M27.184 56.173V84.5"/>
        <path stroke="#FDC130" stroke-linecap="round" stroke-linejoin="round" stroke-width="1.859" d="M32.057 62.769h9.747v12.115h-9.747zM91.759 62.769h9.747v12.115h-9.747z"/>
        <path fill="#C4D4E3" d="M63.736 84.577h13.402V65.192H63.736z"/>
        <path fill="#C4D4E3" d="M61.299 84.577h14.62v-3.635H61.3z"/>
        <path stroke="#6680AC" stroke-linecap="round" stroke-linejoin="round" stroke-width="1.793" d="M61.299 79.73h12.184V62.77H61.299z"/>
        <g stroke-linecap="round" stroke-linejoin="round">
            <path stroke="#6680AD" stroke-width="1.859" d="M48.08 48.136v36.42M86.459 48.085v36.611"/>
            <path stroke="#6680AC" stroke-width="1.793" d="M59.043 84.83h16.79v-3.634h-16.79z"/>
        </g>
        <path fill="#6680AC" d="M71.046 71.856a.608.608 0 0 1-.61.606.608.608 0 0 1-.608-.606c0-.335.273-.606.609-.606.336 0 .609.271.609.606"/>
        <path fill="#C4D4E3" d="M17.223 84.665a6.31 6.31 0 0 1-.172-1.454c0-4.014 3.817-7.266 8.528-7.266 3.162 0 5.89 1.482 7.362 3.66a5.743 5.743 0 0 1 2.872-.753c2.825 0 5.117 1.953 5.117 4.36 0 .512-.123.995-.314 1.453H17.223z"/>
        <path fill="#F2FCFC" fill-rule="nonzero" d="M17.05 85.508c0-4.552 3.536-7.072 8.247-7.072 3.163 0 6.172 3.153 7.644 5.621a6.427 6.427 0 0 1 2.857-1.005c2.867-.265 6.327-.348 5.19 2.103-.172.371-23.937.598-23.937.353z"/>
        <path stroke="#6680AD" stroke-linecap="round" stroke-linejoin="round" stroke-width="1.859" d="M16.394 83.365a5.863 5.863 0 0 1-.176-1.413c0-3.904 3.896-7.067 8.703-7.067 3.227 0 6.01 1.441 7.512 3.559a6.086 6.086 0 0 1 2.932-.732c2.882 0 5.221 1.9 5.221 4.24 0 .499-.125.968-.32 1.413H16.394z"/>
        <path fill="#C4D4E3" d="M111.608 66.404c3.293 0 5.962 2.6 5.962 5.807 0 3.207-2.67 5.807-5.962 5.807s-5.961-2.6-5.961-5.807c0-3.207 2.669-5.807 5.961-5.807"/>
        <path fill="#F2FCFC" d="M115.103 71.63c0 2.459-2.025 4.452-4.523 4.452-2.497 0-4.522-1.993-4.522-4.452 0-2.459 2.025-4.452 4.522-4.452 2.498 0 4.523 1.993 4.523 4.452z"/>
        <path stroke="#6680AD" stroke-linecap="round" stroke-linejoin="round" stroke-width="1.859" d="M111.608 66.404c3.293 0 5.962 2.6 5.962 5.807 0 3.207-2.67 5.807-5.962 5.807s-5.961-2.6-5.961-5.807c0-3.207 2.669-5.807 5.961-5.807M111.862 74.279v12.115"/>
    </g>
</svg>
