<svg xmlns="http://www.w3.org/2000/svg" width="124" height="144" viewBox="0 0 124 144">
    <g fill="none" fill-rule="evenodd">
        <path fill="#C4D4E3" fill-opacity=".2" d="M6.526 100.028l13.36-9.01c1.607-1.085 3.971-.394 5.278 1.543 1.307 1.938 1.062 4.388-.547 5.472l-7.189 4.85c-1.749 1.18-2.015 3.844-.594 5.951 1.419 2.103 3.981 2.856 5.73 1.686l25.317-16.942c.72-.483 1.783-.216 2.41.62l3.899 5.779c.688.917.6 2.142-.193 2.67l-39.78 26.452c-1.955 1.3-2.259 4.266-.677 6.61 1.576 2.337 4.425 3.17 6.364 1.861l7.712-5.202c2.708-1.826 6.686-.661 8.886 2.6 2.555 3.085 5.116 3.758 7.684 2.02l69.54-47.077c2.935-1.983 3.567-4.595 1.897-7.838-2.378-3.525-5.651-3.28-8.592-1.328l-9.409 6.246c-.754.5-1.856.174-2.466-.73l-5.42-8.035c-.612-.908-.497-2.056.257-2.565l23.832-16.075c1.977-1.334 2.277-4.347.67-6.73-1.606-2.381-4.512-3.232-6.49-1.898l-11.874 8.009c-2.5-3.708-7.023-5.03-10.101-2.955l-6.213 4.19c-.754.51-1.862.186-2.474-.722l-2.238-3.318c-.612-.908-.498-2.057.256-2.565l19.762-13.328c1.633-1.102 1.88-3.59.554-5.556-1.327-1.968-3.726-2.67-5.36-1.568L1.722 92.905c-1.633 1.1-1.882 3.588-.554 5.556 1.326 1.967 3.726 2.669 5.359 1.567z"/>
        <g transform="translate(28.846 44.246)">
            <ellipse cx="39.99" cy="51.713" fill="#F2F6F8" rx="33.639" ry="25.506"/>
            <ellipse cx="43.298" cy="16.532" fill="#C4D4E3" rx="13.786" ry="13.862"/>
            <path fill="#6680AD" d="M60.693 69.457c-.188-.711-.82-1.04-1.52-.853-.706.19-.813.83-.624 1.54l.444 1.968a.824.824 0 0 1-.62.987l-4.336 1.005a.792.792 0 0 1-.96-.62l-.15-.771c-.189-.71-.738-1.091-1.445-.901-.705.19-.889.88-.701 1.59l.311 1.163c.181.687.62 1.262 1.232 1.617a2.626 2.626 0 0 0 2.01.265l5.113-1.377a2.633 2.633 0 0 0 1.611-1.242 2.653 2.653 0 0 0 .261-2.016l-.626-2.355zm-44.294 0c.188-.711.82-1.04 1.52-.853.706.19.813.83.624 1.54l-.444 1.968c-.1.442.173.883.62.987l4.337 1.005a.792.792 0 0 0 .959-.62l.151-.771c.188-.71.737-1.091 1.444-.901.705.19.89.88.701 1.59l-.31 1.163a2.634 2.634 0 0 1-1.233 1.617 2.626 2.626 0 0 1-2.01.265l-5.113-1.377a2.633 2.633 0 0 1-1.611-1.242 2.653 2.653 0 0 1-.26-2.016l.625-2.355zm52.562-20.26C67.189 60.82 53.727 69.999 38.194 69.999c-13.23 0-24.898-6.378-29.033-15.872a1.272 1.272 0 0 0-1.166-.766H4.044c-.237 0-.513-.457-.77-.985-.012-.024-1.14-2.33-1.14-5.828 0-3.457 1.13-5.807 1.157-5.864.205-.447.43-.948.753-.948h3.539c.505 0 .964.112 1.166-.353 2.689-6.175 9.177-11.651 17.079-14.302.667-.224 1.065-.778.843-1.448-.222-.671-.984-.79-1.65-.567-8.26 2.771-14.713 8.038-17.84 14.523H4.455c-1.38 0-2.469.72-3.048 1.988C1.351 39.69 0 42.453 0 46.547c0 4.095 1.35 6.857 1.403 6.963.628 1.287 1.712 1.996 3.053 1.996H7.18c4.806 9.987 17.14 16.639 31.014 16.639 16.778 0 30.911-9.698 32.872-22.56.107-.7-.062-1.16-.757-1.266-.695-.111-1.242.18-1.348.879zM37.032 16.952c0-.522-.512-.944-1.147-.944-.633 0-1.147.422-1.147.944 0 1.754 1.468 3.22 3.441 3.641v.134c0 .522.514.944 1.147.944.635 0 1.147-.422 1.147-.944v-.134c1.974-.422 3.441-1.887 3.441-3.641 0-2.082-2.057-3.776-4.588-3.776-1.264 0-2.294-.847-2.294-1.888 0-1.042 1.03-1.888 2.294-1.888 1.266 0 2.294.846 2.294 1.888 0 .52.514.944 1.147.944.635 0 1.147-.423 1.147-.944 0-1.754-1.467-3.22-3.44-3.642V7.51c0-.521-.513-.944-1.148-.944-.633 0-1.147.423-1.147.944v.134c-1.973.423-3.44 1.888-3.44 3.642 0 2.082 2.057 3.776 4.587 3.776 1.266 0 2.294.846 2.294 1.888 0 1.04-1.028 1.887-2.294 1.887-1.264 0-2.294-.846-2.294-1.887zm2.754 10.305c6.935 0 12.575-5.65 12.575-12.596 0-6.944-5.64-12.595-12.575-12.595-6.933 0-12.575 5.65-12.575 12.595 0 6.946 5.642 12.596 12.575 12.596zM39.747 0c8.03 0 14.56 6.567 14.56 14.638 0 8.072-6.53 14.638-14.56 14.638-8.028 0-14.56-6.566-14.56-14.638C25.186 6.568 31.718 0 39.746 0zm33.16 36.719a1.267 1.267 0 0 1 1.8-.07c.19.178 1.856 1.8 1.651 4.1-.146 1.639-1.192 3.093-3.105 4.319a8.135 8.135 0 0 1-2.762 1.123c-.133.062-3.8.48-6.258-1.132a1.284 1.284 0 0 1-.368-1.773c.384-.589 1.17-.342 1.757.04 1.988 1.07 3.727.735 3.727.735-1.14-7.489-7.861-14.68-16.891-18.29-.655-.262-.974-.594-.713-1.25a1.27 1.27 0 0 1 1.652-.717C63.264 27.75 69.748 35.39 71.05 43.759c.278-.12.556-.258.835-.438.835-.533 2.35-1.157 2.35-2.803s-.835-1.982-.845-1.99c-.517-.48-.96-1.29-.481-1.809zm-50.242 3.203a2.657 2.657 0 0 1-2.648 2.662 2.658 2.658 0 0 1-2.647-2.662 2.658 2.658 0 0 1 2.647-2.661 2.657 2.657 0 0 1 2.648 2.661z"/>
            <path fill="#FDC130" d="M29.283 33.908c-.73 0-1.323.448-1.323 1.001 0 .553.593 1.002 1.323 1.002h21.18c.732 0 1.323-.45 1.323-1.002 0-.553-.591-1.001-1.323-1.001h-21.18z"/>
        </g>
        <path fill="#4070BE" d="M5 104.38a3.38 3.38 0 1 0 6.76 0 3.38 3.38 0 0 0-6.76 0z"/>
        <path fill="#D0021B" d="M99 2.835a2.83 2.83 0 0 0 2.825 2.835 2.83 2.83 0 0 0 2.825-2.835A2.83 2.83 0 0 0 101.825 0 2.83 2.83 0 0 0 99 2.835z"/>
        <path fill="#FDC130" d="M115.575 52.927v1.54h-1.589c-1.097 0-1.986.864-1.986 1.927 0 1.065.89 1.927 1.986 1.927h1.59v1.541c0 1.065.889 1.927 1.986 1.927 1.096 0 1.986-.862 1.986-1.927v-1.54h1.59c1.096 0 1.986-.863 1.986-1.928 0-1.063-.89-1.926-1.987-1.926h-1.589v-1.541c0-1.064-.89-1.927-1.986-1.927-1.097 0-1.987.863-1.987 1.927zM107.25 138.212v.97h-1c-.69 0-1.25.543-1.25 1.212 0 .67.56 1.213 1.25 1.213h1v.97c0 .67.56 1.212 1.25 1.212s1.25-.543 1.25-1.212v-.97h1c.69 0 1.25-.543 1.25-1.213 0-.669-.56-1.212-1.25-1.212h-1v-.97c0-.669-.56-1.212-1.25-1.212s-1.25.543-1.25 1.212z"/>
        <path fill="#7AD468" d="M19.41 18.426h-1.96a2.455 2.455 0 0 0-2.45 2.46 2.454 2.454 0 0 0 2.45 2.458h1.96v1.967a2.454 2.454 0 0 0 2.45 2.46c1.353 0 2.45-1.101 2.45-2.46v-1.967h1.961c1.352 0 2.45-1.1 2.45-2.459a2.456 2.456 0 0 0-2.45-2.459h-1.96V16.46A2.456 2.456 0 0 0 21.86 14a2.455 2.455 0 0 0-2.45 2.459v1.967z"/>
    </g>
</svg>
