<svg xmlns="http://www.w3.org/2000/svg" width="34" height="35" viewBox="0 0 34 35">
    <g fill="none" fill-rule="evenodd">
        <ellipse cx="17.73" cy="23.358" fill="#F2F6F8" rx="14.914" ry="11.521"/>
        <ellipse cx="19.197" cy="7.467" fill="#C4D4E3" rx="6.112" ry="6.261"/>
        <path fill="#6680AD" d="M26.91 31.372c-.084-.32-.365-.47-.674-.385-.314.086-.361.375-.277.696l.198.895a.372.372 0 0 1-.287.442l-1.901.45a.355.355 0 0 1-.435-.27l-.068-.357c-.084-.32-.327-.493-.64-.407-.313.086-.395.397-.312.718l.138.526c.08.31.275.57.547.73a1.148 1.148 0 0 0 .89.12l2.268-.622a1.17 1.17 0 0 0 .714-.561c.156-.28.197-.603.116-.91l-.278-1.065zm-19.64 0c.084-.32.364-.47.674-.385.314.086.361.375.277.696l-.198.895a.372.372 0 0 0 .287.442l1.901.45a.355.355 0 0 0 .435-.27l.068-.357c.084-.32.327-.493.64-.407.313.086.395.397.311.718l-.137.526c-.08.31-.275.57-.547.73a1.148 1.148 0 0 1-.89.12l-2.268-.622a1.17 1.17 0 0 1-.714-.561 1.218 1.218 0 0 1-.116-.91l.278-1.065zm23.305-9.15c-.786 5.25-6.754 9.395-13.641 9.395-5.866 0-11.039-2.88-12.872-7.17a.564.564 0 0 0-.517-.345H1.793c-.105 0-.228-.207-.342-.445-.005-.01-.505-1.053-.505-2.632 0-1.562.5-2.623.513-2.65.091-.201.191-.427.334-.427h1.569c.224 0 .427.05.517-.16 1.192-2.789 4.069-5.262 7.572-6.46.296-.1.473-.351.374-.654-.098-.303-.437-.357-.731-.256-3.663 1.252-6.524 3.63-7.91 6.56H1.976c-.612 0-1.095.325-1.352.898C.6 17.928 0 19.176 0 21.025s.599 3.096.622 3.144c.278.582.76.902 1.354.902h1.208c2.13 4.511 7.598 7.516 13.75 7.516 7.439 0 13.705-4.38 14.574-10.19.047-.316-.027-.524-.336-.572-.308-.05-.55.081-.597.397zM16.419 7.656c0-.235-.228-.426-.509-.426-.28 0-.508.19-.508.426 0 .793.65 1.455 1.525 1.645v.06c0 .236.228.427.509.427s.508-.19.508-.426v-.06c.876-.191 1.526-.853 1.526-1.646 0-.94-.912-1.705-2.034-1.705-.56 0-1.017-.383-1.017-.853s.456-.853 1.017-.853c.56 0 1.017.383 1.017.853 0 .235.228.426.509.426.28 0 .508-.19.508-.426 0-.792-.65-1.454-1.526-1.645v-.06c0-.236-.227-.427-.508-.427-.28 0-.509.191-.509.426v.061c-.874.191-1.525.853-1.525 1.645 0 .94.912 1.705 2.034 1.705.56 0 1.017.383 1.017.853s-.456.853-1.017.853c-.56 0-1.017-.382-1.017-.853zm1.22 4.655c3.075 0 5.576-2.552 5.576-5.69 0-3.136-2.5-5.688-5.575-5.688-3.074 0-5.575 2.552-5.575 5.689s2.501 5.689 5.575 5.689zM17.623 0c3.56 0 6.456 2.966 6.456 6.612s-2.896 6.612-6.456 6.612c-3.56 0-6.455-2.966-6.455-6.612S14.063 0 17.622 0zm14.703 16.585a.555.555 0 0 1 .797-.031c.085.08.823.813.732 1.851-.064.74-.528 1.397-1.376 1.951a3.57 3.57 0 0 1-1.225.508c-.059.028-1.684.216-2.774-.512a.587.587 0 0 1-.164-.8c.17-.266.52-.155.78.018.881.483 1.652.332 1.652.332-.506-3.383-3.485-6.631-7.49-8.262-.29-.118-.43-.268-.315-.565a.56.56 0 0 1 .732-.323c4.375 1.782 7.25 5.233 7.827 9.013.123-.054.246-.117.37-.197.37-.242 1.042-.523 1.042-1.267 0-.743-.37-.895-.375-.899-.23-.217-.425-.583-.213-.817zm-22.276 1.447c0 .663-.527 1.202-1.174 1.202-.647 0-1.174-.539-1.174-1.202 0-.663.527-1.202 1.174-1.202.647 0 1.174.54 1.174 1.202z"/>
        <path fill="#FDC130" d="M12.983 15.315c-.324 0-.587.203-.587.453s.263.452.587.452h9.39c.325 0 .587-.202.587-.452s-.262-.453-.587-.453h-9.39z"/>
    </g>
</svg>
