<svg xmlns="http://www.w3.org/2000/svg" width="100" height="72" viewBox="0 0 100 72">
    <g fill="none" fill-rule="evenodd">
        <path d="M0 0H100V72H0z"/>
        <g>
            <path fill="#C1E0FF" d="M33.898 46.972c-.067.827-.768 1.475-1.595 1.475H12.136c-.827 0-1.528-.648-1.595-1.475L8.262 18.794c-.133-1.651 1.097-3.098 2.749-3.232.08-.006.16-.01.241-.01h25.186l-2.54 31.42z" opacity=".5" transform="translate(29 11)"/>
            <path fill="#6680AD" fill-rule="nonzero" stroke="#FFF" stroke-width=".5" d="M27.81 45.868l.078.002c.78 0 1.433-.612 1.473-1.4l1.387-26.617c.042-.815-.584-1.51-1.398-1.552-.816-.043-1.509.583-1.551 1.398l-1.387 26.617c-.042.815.584 1.51 1.398 1.552zM11.868 44.473c.043.787.695 1.397 1.473 1.397.027 0 .055-.001.082-.003.814-.044 1.438-.74 1.394-1.554l-1.452-26.618c-.044-.814-.74-1.438-1.555-1.394-.814.045-1.438.74-1.394 1.555l1.452 26.617zM20.598 45.87c.816 0 1.477-.661 1.477-1.477V17.776c0-.816-.661-1.477-1.477-1.477-.815 0-1.476.661-1.476 1.477v26.617c0 .816.66 1.477 1.476 1.477z" transform="translate(29 11)"/>
            <path fill="#6680AD" fill-rule="nonzero" stroke="#FFF" stroke-width=".5" d="M41.036 11.265L39.923 7.93c-.423-1.27-1.608-2.124-2.947-2.124h-9.353V2.76c0-1.521-1.237-2.76-2.759-2.76H16.3c-1.52 0-2.758 1.239-2.758 2.76v3.046H4.188c-1.34 0-2.524.853-2.948 2.124L.128 11.265c-.254.76-.125 1.6.343 2.25.468.65 1.225 1.038 2.025 1.038H3.66L6.22 46.21C6.41 48.56 8.404 50.4 10.76 50.4h20.166c2.355 0 4.348-1.84 4.538-4.19l2.56-31.657h.644c.801 0 1.558-.388 2.026-1.037.468-.65.597-1.491.343-2.25h0zM16.494 2.953h8.176v2.853h-8.176V2.953zm16.026 43.02c-.067.826-.768 1.474-1.595 1.474H10.759c-.828 0-1.529-.648-1.595-1.475l-2.542-31.42h28.439l-2.541 31.42zM3.13 11.598l.912-2.735c.02-.063.08-.105.146-.105h32.788c.066 0 .125.042.146.105l.913 2.735H3.13z" transform="translate(29 11)"/>
            <g>
                <path fill="#FFF" d="M8.1 0.938L6.15 2.353 1.022 13.128 2.297 15.385 13.823 15.385 15.309 13.128 9.45 1.369z" transform="translate(29 11) translate(25 34)"/>
                <path fill="#F69B31" fill-rule="nonzero" d="M8.1 0c1.148 0 2.197.648 2.71 1.675l5.07 10.142c.47.94.42 2.054-.132 2.947-.552.893-1.527 1.436-2.577 1.436H3.03c-1.05 0-2.025-.543-2.577-1.436C-.1 13.87-.15 12.756.32 11.817L5.39 1.675C5.903.648 6.952 0 8.1 0zm0 1.8c-.466 0-.891.263-1.1.68L1.93 12.622c-.19.38-.17.833.053 1.195.224.363.62.583 1.046.583H13.17c.426 0 .822-.22 1.046-.583.223-.362.244-.814.054-1.195L9.199 2.48c-.208-.416-.633-.68-1.099-.68zm0 9l.147.008c.676.073 1.203.646 1.203 1.342 0 .746-.604 1.35-1.35 1.35-.746 0-1.35-.604-1.35-1.35 0-.696.527-1.269 1.203-1.342L8.1 10.8zm0-6.3c.456 0 .832.339.892.778L9 5.4V9c0 .497-.403.9-.9.9-.456 0-.832-.339-.892-.778L7.2 9V5.4c0-.497.403-.9.9-.9z" transform="translate(29 11) translate(25 34)"/>
            </g>
        </g>
        <g>
            <path fill="#FFF" d="M13.5 1.564L10.25 3.922 1.704 21.879 3.829 25.641 23.038 25.641 25.515 21.879 15.75 2.281z" transform="translate(53 34)"/>
            <path fill="#F69B31" fill-rule="nonzero" stroke="#FFF" stroke-width=".8" d="M13.5 0c1.913 0 3.661 1.08 4.516 2.791h0l8.452 16.904c.782 1.565.698 3.424-.222 4.912C25.326 26.094 23.7 27 21.952 27h0H5.048c-1.75 0-3.374-.906-4.294-2.393-.92-1.488-1.004-3.347-.222-4.912h0L8.984 2.792C9.84 1.08 11.587 0 13.5 0zm0 3c-.776 0-1.485.438-1.832 1.133h0L3.216 21.037c-.317.634-.283 1.388.09 1.992.373.604 1.032.971 1.742.971h16.904c.71 0 1.369-.367 1.742-.971s.407-1.358.09-1.992h0L15.332 4.132C14.985 3.438 14.276 3 13.5 3zm0 15l.245.013c1.127.122 2.005 1.077 2.005 2.237 0 1.243-1.007 2.25-2.25 2.25s-2.25-1.007-2.25-2.25c0-1.16.878-2.115 2.005-2.237L13.5 18zm0-10.5c.76 0 1.387.564 1.486 1.296L15 9v6c0 .828-.672 1.5-1.5 1.5-.76 0-1.387-.564-1.486-1.296L12 15V9c0-.828.672-1.5 1.5-1.5z" transform="translate(53 34)"/>
        </g>
    </g>
</svg>
