<?xml version="1.0" encoding="UTF-8"?>
<svg width="100px" height="72px" viewBox="0 0 100 72" version="1.1" xmlns="http://www.w3.org/2000/svg" xmlns:xlink="http://www.w3.org/1999/xlink">
    <title>BA4878E8-82B1-4FF1-A7F6-9A0A2DC9774D</title>
    <g id="Alcancias" stroke="none" stroke-width="1" fill="none" fill-rule="evenodd">
        <g id="06_alcancias_error-limit" transform="translate(-574.000000, -270.000000)">
            <g id="Group-22-Copy-2" transform="translate(442.000000, 218.000000)">
                <g id="Group-7" transform="translate(132.000000, 52.000000)">
                    <rect id="Rectangle" x="0" y="0" width="100" height="72"></rect>
                    <g id="Group-9" transform="translate(17.000000, 12.000000)">
                        <g id="Group-3" transform="translate(31.000000, 26.000000) scale(-1, 1) translate(-31.000000, -26.000000) ">
                            <circle id="Oval" fill="#DFEFFF" cx="25" cy="28" r="21"></circle>
                            <polyline id="Path" stroke="#6680AD" stroke-width="2" fill="#FFFFFF" fill-rule="nonzero" stroke-linecap="round" stroke-linejoin="round" transform="translate(39.284610, 4.924243) scale(-1, 1) rotate(30.000000) translate(-39.284610, -4.924243) " points="38.9517641 7.91779767 36.4026479 1.93068916 42.1665729 3.00446405"></polyline>
                            <path d="M10.9184323,35.3347469 C16.2483508,44.560566 27.5949445,48.3892554 37.3981243,44.2698088 C47.201304,40.1503623 52.3999303,29.3691174 49.5302253,19.1094789 C46.6605203,8.84984042 36.6185778,2.3154815 26.0952147,3.86016134 C15.5718515,5.40484118 7.85309174,14.5462183 8.08184545,25.1935108" id="Path" stroke="#6680AD" stroke-width="2" stroke-linecap="round" stroke-linejoin="round"></path>
                            <path d="M12.7471565,12.924555 C18.1223701,9.81582643 24.7959324,10.0494641 29.9415131,13.5265197" id="Path" stroke="#6680AD" stroke-width="2" stroke-linecap="round" stroke-linejoin="round" transform="translate(21.344335, 12.136226) scale(-1, 1) rotate(30.000000) translate(-21.344335, -12.136226) "></path>
                            <polyline id="Path" stroke="#6680AD" stroke-width="2" stroke-linecap="round" stroke-linejoin="round" transform="translate(40.789805, 45.858821) scale(-1, 1) rotate(30.000000) translate(-40.789805, -45.858821) " points="37.5425236 43.0116901 39.1661645 48.7059509 40.7898053 46.2655534 43.2252666 48.7059509 44.037087 43.0116901"></polyline>
                            <polyline id="Path" stroke="#6680AD" stroke-width="2" fill="#DFEFFF" fill-rule="nonzero" stroke-linecap="round" stroke-linejoin="round" transform="translate(27.156910, 46.558514) scale(-1, 1) rotate(30.000000) translate(-27.156910, -46.558514) " points="23.2033442 46.5503789 27.7820114 50.2923217 27.7170658 47.3475754 31.1104751 47.9658094 28.5288862 42.8247053"></polyline>
                            <polyline id="Path" stroke="#6680AD" stroke-width="2" fill="#FFFFFF" fill-rule="nonzero" stroke-linecap="round" stroke-linejoin="round" transform="translate(14.977741, 42.008475) scale(-1, 1) rotate(30.000000) translate(-14.977741, -42.008475) " points="11.1784213 44.4163335 17.0072919 45.4413004 15.5297788 42.9195563 18.7770605 41.7969735 14.0197928 38.5756488"></polyline>
                            <polyline id="Path" stroke="#6680AD" stroke-width="2" stroke-linecap="round" stroke-linejoin="round" transform="translate(51.306582, 24.415523) scale(-1, 1) rotate(30.000000) translate(-51.306582, -24.415523) " points="49.4312763 17.2244847 43.7647698 20.4946173 50.1456783 31.6065606 58.8483933 26.5793417"></polyline>
                            <polyline id="Path" stroke="#6680AD" stroke-width="2" fill="#FFFFFF" fill-rule="nonzero" stroke-linecap="round" stroke-linejoin="round" transform="translate(31.711960, 4.618554) scale(-1, 1) rotate(30.000000) translate(-31.711960, -4.618554) " points="30.3156288 7.61210852 27.7665126 1.625 35.6574072 3.56104868"></polyline>
                            <path d="M1.625,31.9971978 C3.16085926,32.129267 4.70630203,31.90088 6.13872156,31.3301558 C7.58619408,30.730023 8.7167477,29.5499761 9.25611199,28.0762925 C9.77925865,26.5883653 9.39279482,24.9314555 8.26569108,23.8300008" id="Path" stroke="#6680AD" stroke-width="2" stroke-linecap="round" stroke-linejoin="round" transform="translate(5.555480, 27.931801) scale(-1, 1) rotate(30.000000) translate(-5.555480, -27.931801) "></path>
                        </g>
                        <g id="network-warning" transform="translate(40.000000, 25.000000)">
                            <polygon id="Path-4" fill="#FFFFFF" points="13.5 1.56409389 10.2498116 3.921875 1.70379338 21.8791924 3.82886746 25.6413091 23.0383576 25.6413091 25.5149602 21.8791924 15.75 2.28125"></polygon>
                            <path d="M13.5,-0.000431332297 C15.4126975,-0.000431332297 17.1611158,1.08058655 18.0156408,2.79117961 L18.0156408,2.79117961 L26.4677916,19.6954814 C27.2497845,21.260347 27.1658358,23.118527 26.2459217,24.606504 C25.326037,26.0944333 23.7013675,27 21.952,27 L21.952,27 L5.048,27 C3.29863254,27 1.67396295,26.0944333 0.754078319,24.606504 C-0.165835768,23.118527 -0.249784538,21.260347 0.532359214,19.6951796 L0.532359214,19.6951796 L8.98411725,2.79166375 C9.83888423,1.08058655 11.5873025,-0.000431332297 13.5,-0.000431332297 Z M13.5,2.99956867 C12.7240086,2.99956867 12.0146662,3.43814327 11.6676408,4.13282039 L11.6676408,4.13282039 L3.21579164,21.0365186 C2.89853303,21.6713928 2.93259148,22.4252661 3.30580544,23.0289461 C3.67899774,23.6325912 4.33816286,24 5.048,24 L5.048,24 L21.952,24 C22.6618371,24 23.3210023,23.6325912 23.6941946,23.0289461 C24.0674085,22.4252661 24.101467,21.6713928 23.7843592,21.0368204 L23.7843592,21.0368204 L15.3321172,4.13233625 C14.9853338,3.43814327 14.2759914,2.99956867 13.5,2.99956867 Z M13.5,18 L13.7451623,18.0132027 C14.8724781,18.1353603 15.75,19.090202 15.75,20.25 C15.75,21.4926407 14.7426407,22.5 13.5,22.5 C12.2573593,22.5 11.25,21.4926407 11.25,20.25 C11.25,19.090202 12.1275219,18.1353603 13.2548377,18.0132027 L13.5,18 Z M13.5,7.5 C14.2593915,7.5 14.8869819,8.06430776 14.9863068,8.79645889 L15,9 L15,15 C15,15.8284271 14.3284271,16.5 13.5,16.5 C12.7406085,16.5 12.1130181,15.9356922 12.0136932,15.2035411 L12,15 L12,9 C12,8.17157288 12.6715729,7.5 13.5,7.5 Z" id="Combined-Shape" stroke="#FFFFFF" stroke-width="0.8" fill="#F69B31" fill-rule="nonzero"></path>
                        </g>
                    </g>
                </g>
            </g>
        </g>
    </g>
</svg>