<svg xmlns="http://www.w3.org/2000/svg" width="24" height="24" viewBox="0 0 24 24">
    <path fill="#5C5C5C" d="M17.25 10.5c3.728 0 6.75 3.022 6.75 6.75S20.978 24 17.25 24s-6.75-3.022-6.75-6.75 3.022-6.75 6.75-6.75zm0 1.5c-2.9 0-5.25 2.35-5.25 5.25s2.35 5.25 5.25 5.25 5.25-2.35 5.25-5.25S20.15 12 17.25 12zm0 1.5c.38 0 .693.282.743.648l.007.102v2.25h2.25c.414 0 .75.336.75.75 0 .38-.282.693-.648.743L20.25 18H18v2.25c0 .414-.336.75-.75.75-.38 0-.693-.282-.743-.648l-.007-.102V18h-2.25c-.414 0-.75-.336-.75-.75 0-.38.282-.693.648-.743l.102-.007h2.25v-2.25c0-.414.336-.75.75-.75zm3-13.5c1.19 0 2.166.925 2.245 2.096l.005.154V9c0 .414-.336.75-.75.75-.38 0-.693-.282-.743-.648L21 9V2.562l-7.276 5.596c-1.4 1.078-3.328 1.12-4.77.13l-.178-.13L1.5 2.562V14.25c0 .38.282.693.648.743L2.25 15h6c.414 0 .75.336.75.75 0 .38-.282.693-.648.743l-.102.007h-6c-1.19 0-2.166-.925-2.245-2.096L0 14.25v-12C0 1.06.925.084 2.096.005L2.25 0h18zm-.331 1.5H2.58l7.11 5.47c.869.668 2.059.705 2.963.11l.157-.11 7.109-5.47z"/>
</svg>
