<?xml version="1.0" encoding="UTF-8"?>
<svg width="160px" height="138px" viewBox="0 0 160 138" version="1.1" xmlns="http://www.w3.org/2000/svg" xmlns:xlink="http://www.w3.org/1999/xlink">
    <title>7980B3EF-E750-4C4D-8E48-98E4525C844B</title>
    <defs>
        <path d="M2.91601565,6 L2.91601565,2.44628906 L4.22265627,2.44628906 L4.22265627,1.734375 L0.7480469,1.734375 L0.7480469,2.44628906 L2.0371094,2.44628906 L2.0371094,6 L2.91601565,6 Z M5.60253909,6 L5.60253909,4.43847656 L6.3027344,4.43847656 L7.10253909,6 L8.04589846,6 L8.04589846,5.95898438 L7.1230469,4.21582031 C7.37890627,4.10058594 7.56982424,3.94580078 7.69580081,3.75146484 C7.82177737,3.55712891 7.88476565,3.31445312 7.88476565,3.0234375 C7.88476565,2.61328125 7.7480469,2.29589844 7.4746094,2.07128906 C7.2011719,1.84667969 6.81250002,1.734375 6.30859377,1.734375 L6.30859377,1.734375 L4.72363284,1.734375 L4.72363284,6 L5.60253909,6 Z M6.31152346,3.7265625 L5.60253909,3.7265625 L5.60253909,2.44628906 L6.30859377,2.44628906 C6.5449219,2.44628906 6.72021487,2.50390625 6.83447268,2.61914062 C6.94873049,2.734375 7.0058594,2.89257812 7.0058594,3.09375 C7.0058594,3.29101562 6.94531252,3.44580078 6.82421877,3.55810547 C6.70312502,3.67041016 6.53222659,3.7265625 6.31152346,3.7265625 L6.31152346,3.7265625 Z M9.12695315,6 L9.4199219,5.12109375 L10.9609375,5.12109375 L11.256836,6 L12.1914063,6 L10.5947266,1.734375 L9.78027346,1.734375 L8.19238284,6 L9.12695315,6 Z M10.7236328,4.40917969 L9.65722659,4.40917969 L10.1875,2.8125 L10.7236328,4.40917969 Z M13.46875,6 L13.46875,3.19335938 L15.1796875,6 L16.0585938,6 L16.0585938,1.734375 L15.1826172,1.734375 L15.1826172,4.546875 L13.46875,1.734375 L12.5898438,1.734375 L12.5898438,6 L13.46875,6 Z M18.3730469,6.05859375 C18.8457031,6.05859375 19.2216797,5.95361328 19.5009766,5.74365234 C19.7802735,5.53369141 19.9199219,5.24414062 19.9199219,4.875 C19.9199219,4.54296875 19.8056641,4.265625 19.5771485,4.04296875 C19.3486328,3.8203125 18.984375,3.63378906 18.484375,3.48339844 C18.2128906,3.40136719 18.0073242,3.31347656 17.8676758,3.21972656 C17.7280274,3.12597656 17.6582031,3.00976562 17.6582031,2.87109375 C17.6582031,2.72265625 17.7177735,2.60302734 17.8369141,2.51220703 C17.9560547,2.42138672 18.1230469,2.37597656 18.3378906,2.37597656 C18.5605469,2.37597656 18.7333985,2.43017578 18.8564453,2.53857422 C18.9794922,2.64697266 19.0410156,2.79882812 19.0410156,2.99414062 L19.0410156,2.99414062 L19.9199219,2.99414062 C19.9199219,2.73828125 19.8540039,2.50976562 19.722168,2.30859375 C19.5903321,2.10742188 19.4052735,1.95166016 19.1669922,1.84130859 C18.928711,1.73095703 18.6572266,1.67578125 18.3525391,1.67578125 C18.0498047,1.67578125 17.7768555,1.7265625 17.5336914,1.828125 C17.2905274,1.9296875 17.1040039,2.07080078 16.9741211,2.25146484 C16.8442383,2.43212891 16.7792969,2.63769531 16.7792969,2.86816406 C16.7792969,3.31152344 17.0214844,3.6640625 17.5058594,3.92578125 C17.6835938,4.02148438 17.9248047,4.11865234 18.2294922,4.21728516 C18.5341797,4.31591797 18.7451172,4.40966797 18.8623047,4.49853516 C18.9794922,4.58740234 19.038086,4.71484375 19.038086,4.88085938 C19.038086,5.03320312 18.9794922,5.15185547 18.8623047,5.23681641 C18.7451172,5.32177734 18.5820313,5.36425781 18.3730469,5.36425781 C17.8105469,5.36425781 17.5292969,5.12890625 17.5292969,4.65820312 L17.5292969,4.65820312 L16.647461,4.65820312 C16.647461,4.93359375 16.7182617,5.17578125 16.8598633,5.38476562 C17.0014649,5.59375 17.2070313,5.75830078 17.4765625,5.87841797 C17.7460938,5.99853516 18.0449219,6.05859375 18.3730469,6.05859375 Z M21.0888672,6 L21.381836,5.12109375 L22.9228516,5.12109375 L23.21875,6 L24.1533203,6 L22.5566406,1.734375 L21.7421875,1.734375 L20.1542969,6 L21.0888672,6 Z M22.6855469,4.40917969 L21.6191406,4.40917969 L22.1494141,2.8125 L22.6855469,4.40917969 Z M26.1220703,6.05859375 C26.6220703,6.05859375 27.0249024,5.92675781 27.3305664,5.66308594 C27.6362305,5.39941406 27.8056641,5.03808594 27.8388672,4.57910156 L27.8388672,4.57910156 L26.959961,4.57910156 C26.9404297,4.83886719 26.8637696,5.03076172 26.7299805,5.15478516 C26.5961914,5.27880859 26.3935547,5.34082031 26.1220703,5.34082031 C25.8212891,5.34082031 25.6010742,5.234375 25.4614258,5.02148438 C25.3217774,4.80859375 25.2519531,4.47167969 25.2519531,4.01074219 L25.2519531,4.01074219 L25.2519531,3.68847656 C25.2558594,3.24707031 25.3305664,2.92138672 25.4760742,2.71142578 C25.6215821,2.50146484 25.8408203,2.39648438 26.1337891,2.39648438 C26.4033203,2.39648438 26.6040039,2.45849609 26.7358399,2.58251953 C26.8676758,2.70654297 26.944336,2.90625 26.9658203,3.18164062 L26.9658203,3.18164062 L27.8447266,3.18164062 C27.7978516,2.70507812 27.6240235,2.33496094 27.3232422,2.07128906 C27.022461,1.80761719 26.6259766,1.67578125 26.1337891,1.67578125 C25.7783203,1.67578125 25.4663086,1.75927734 25.1977539,1.92626953 C24.9291992,2.09326172 24.7226563,2.33300781 24.578125,2.64550781 C24.4335938,2.95800781 24.3613281,3.31933594 24.3613281,3.72949219 L24.3613281,3.72949219 L24.3613281,3.99023438 C24.3613281,4.6328125 24.5180664,5.13818359 24.831543,5.50634766 C25.1450196,5.87451172 25.5751953,6.05859375 26.1220703,6.05859375 Z M30.0478516,6.05859375 C30.5478516,6.05859375 30.9506836,5.92675781 31.2563477,5.66308594 C31.5620117,5.39941406 31.7314453,5.03808594 31.7646485,4.57910156 L31.7646485,4.57910156 L30.8857422,4.57910156 C30.866211,4.83886719 30.7895508,5.03076172 30.6557617,5.15478516 C30.5219727,5.27880859 30.319336,5.34082031 30.0478516,5.34082031 C29.7470703,5.34082031 29.5268555,5.234375 29.3872071,5.02148438 C29.2475586,4.80859375 29.1777344,4.47167969 29.1777344,4.01074219 L29.1777344,4.01074219 L29.1777344,3.68847656 C29.1816406,3.24707031 29.2563477,2.92138672 29.4018555,2.71142578 C29.5473633,2.50146484 29.7666016,2.39648438 30.0595703,2.39648438 C30.3291016,2.39648438 30.5297852,2.45849609 30.6616211,2.58251953 C30.7934571,2.70654297 30.8701172,2.90625 30.8916016,3.18164062 L30.8916016,3.18164062 L31.7705078,3.18164062 C31.7236328,2.70507812 31.5498047,2.33496094 31.2490235,2.07128906 C30.9482422,1.80761719 30.5517578,1.67578125 30.0595703,1.67578125 C29.7041016,1.67578125 29.3920899,1.75927734 29.1235352,1.92626953 C28.8549805,2.09326172 28.6484375,2.33300781 28.5039063,2.64550781 C28.359375,2.95800781 28.2871094,3.31933594 28.2871094,3.72949219 L28.2871094,3.72949219 L28.2871094,3.99023438 C28.2871094,4.6328125 28.4438477,5.13818359 28.7573242,5.50634766 C29.0708008,5.87451172 29.5009766,6.05859375 30.0478516,6.05859375 Z M33.2763672,6 L33.2763672,1.734375 L32.397461,1.734375 L32.397461,6 L33.2763672,6 Z M36.0595703,1.5 L36.8710938,0.591796875 L35.9482422,0.591796875 L35.3710938,1.5 L36.0595703,1.5 Z M35.7841797,6.05859375 C36.1416016,6.05859375 36.4584961,5.97265625 36.7348633,5.80078125 C37.0112305,5.62890625 37.2236328,5.38476562 37.3720703,5.06835938 C37.5205078,4.75195312 37.5947266,4.38378906 37.5947266,3.96386719 L37.5947266,3.96386719 L37.5947266,3.7734375 C37.5947266,3.35546875 37.519043,2.98681641 37.3676758,2.66748047 C37.2163086,2.34814453 37.0024414,2.10302734 36.7260742,1.93212891 C36.4497071,1.76123047 36.1337891,1.67578125 35.7783203,1.67578125 C35.4228516,1.67578125 35.1069336,1.76123047 34.8305664,1.93212891 C34.5541992,2.10302734 34.3403321,2.34814453 34.1889649,2.66748047 C34.0375977,2.98681641 33.9619141,3.35644531 33.9619141,3.77636719 L33.9619141,3.77636719 L33.9619141,3.98730469 C33.9638672,4.39746094 34.0410156,4.76025391 34.1933594,5.07568359 C34.3457031,5.39111328 34.5605469,5.63378906 34.8378906,5.80371094 C35.1152344,5.97363281 35.4306641,6.05859375 35.7841797,6.05859375 Z M35.7841797,5.33789062 C35.4833985,5.33789062 35.2529297,5.21777344 35.0927735,4.97753906 C34.9326172,4.73730469 34.8525391,4.39941406 34.8525391,3.96386719 L34.8525391,3.96386719 L34.8525391,3.75585938 C34.8544922,3.3125 34.9355469,2.97607422 35.0957031,2.74658203 C35.2558594,2.51708984 35.4833985,2.40234375 35.7783203,2.40234375 C36.0751953,2.40234375 36.303711,2.51855469 36.4638672,2.75097656 C36.6240235,2.98339844 36.7041016,3.32324219 36.7041016,3.77050781 L36.7041016,3.77050781 L36.7041016,3.97851562 C36.7021485,4.421875 36.6220703,4.75927734 36.4638672,4.99072266 C36.3056641,5.22216797 36.0791016,5.33789062 35.7841797,5.33789062 Z M39.1123047,6 L39.1123047,3.19335938 L40.8232422,6 L41.7021485,6 L41.7021485,1.734375 L40.8261719,1.734375 L40.8261719,4.546875 L39.1123047,1.734375 L38.2333985,1.734375 L38.2333985,6 L39.1123047,6 Z M45.2851563,6 C45.6582031,5.99804688 45.9931641,5.91210938 46.2900391,5.7421875 C46.5869141,5.57226562 46.8168946,5.33300781 46.9799805,5.02441406 C47.1430664,4.71582031 47.2246094,4.36328125 47.2246094,3.96679688 L47.2246094,3.96679688 L47.2246094,3.77050781 C47.2246094,3.37402344 47.1416016,3.02001953 46.975586,2.70849609 C46.8095703,2.39697266 46.5786133,2.15673828 46.2827149,1.98779297 C45.9868164,1.81884766 45.6513672,1.734375 45.2763672,1.734375 L45.2763672,1.734375 L43.9638672,1.734375 L43.9638672,6 L45.2851563,6 Z M45.2675781,5.29394531 L44.8427735,5.29394531 L44.8427735,2.44628906 L45.2763672,2.44628906 C45.6220703,2.44628906 45.8847656,2.55810547 46.0644531,2.78173828 C46.2441406,3.00537109 46.3339844,3.33398438 46.3339844,3.76757812 L46.3339844,3.76757812 L46.3339844,3.99316406 C46.3300781,4.41113281 46.2373047,4.73242188 46.0556641,4.95703125 C45.8740235,5.18164062 45.6113281,5.29394531 45.2675781,5.29394531 L45.2675781,5.29394531 Z M48.7978516,6 L48.7978516,1.734375 L47.9189453,1.734375 L47.9189453,6 L48.7978516,6 Z M51.3554688,6.05859375 C51.7070313,6.05859375 52.0273438,6.00634766 52.3164063,5.90185547 C52.6054688,5.79736328 52.8291016,5.65039062 52.9873047,5.4609375 L52.9873047,5.4609375 L52.9873047,3.75878906 L51.3085938,3.75878906 L51.3085938,4.40625 L52.1083985,4.40625 L52.1083985,5.14160156 C51.9677735,5.28222656 51.7324219,5.35253906 51.4023438,5.35253906 C51.0742188,5.35253906 50.8251953,5.23828125 50.6552735,5.00976562 C50.4853516,4.78125 50.4003906,4.44335938 50.4003906,3.99609375 L50.4003906,3.99609375 L50.4003906,3.72363281 C50.4023438,3.28027344 50.4814453,2.94628906 50.6376953,2.72167969 C50.7939453,2.49707031 51.0214844,2.38476562 51.3203125,2.38476562 C51.5546875,2.38476562 51.7387696,2.44140625 51.8725586,2.5546875 C52.0063477,2.66796875 52.0927735,2.84667969 52.131836,3.09082031 L52.131836,3.09082031 L52.9873047,3.09082031 C52.9345703,2.62988281 52.765625,2.27880859 52.4804688,2.03759766 C52.1953125,1.79638672 51.7998047,1.67578125 51.2939453,1.67578125 C50.9306641,1.67578125 50.6137696,1.75830078 50.3432617,1.92333984 C50.0727539,2.08837891 49.8657227,2.32666016 49.722168,2.63818359 C49.5786133,2.94970703 49.506836,3.31835938 49.506836,3.74414062 L49.506836,3.74414062 L49.506836,4.03417969 C49.5107422,4.44824219 49.5883789,4.80859375 49.7397461,5.11523438 C49.8911133,5.421875 50.1059571,5.65576172 50.3842774,5.81689453 C50.6625977,5.97802734 50.9863281,6.05859375 51.3554688,6.05859375 Z M54.6337891,6 L54.6337891,1.734375 L53.7548828,1.734375 L53.7548828,6 L54.6337891,6 Z M57.2675781,6 L57.2675781,2.44628906 L58.5742188,2.44628906 L58.5742188,1.734375 L55.0996094,1.734375 L55.0996094,2.44628906 L56.3886719,2.44628906 L56.3886719,6 L57.2675781,6 Z M59.2978516,6 L59.5908203,5.12109375 L61.131836,5.12109375 L61.4277344,6 L62.3623047,6 L60.765625,1.734375 L59.9511719,1.734375 L58.3632813,6 L59.2978516,6 Z M60.8945313,4.40917969 L59.828125,4.40917969 L60.3583985,2.8125 L60.8945313,4.40917969 Z M65.5058594,6 L65.5058594,5.29394531 L63.6396485,5.29394531 L63.6396485,1.734375 L62.7607422,1.734375 L62.7607422,6 L65.5058594,6 Z" id="path-1"></path>
        <path d="M5.83642574,23 L5.83642574,16.737793 L9.04687496,16.737793 C11.1546224,16.737793 12.8046061,16.2352702 13.9968261,15.2302246 C15.1890462,14.225179 15.7851562,12.851888 15.7851562,11.1103516 C15.7851562,9.96289062 15.5125325,8.93953451 14.9672851,8.0402832 C14.4220377,7.1410319 13.6428222,6.44726562 12.6296386,5.95898438 C11.616455,5.47070312 10.4425455,5.2265625 9.10791011,5.2265625 L9.10791011,5.2265625 L2.17431636,5.2265625 L2.17431636,23 L5.83642574,23 Z M9.10791011,13.7714844 L5.83642574,13.7714844 L5.83642574,8.19287109 L9.19335933,8.19287109 C10.0966796,8.20914714 10.8046875,8.48583984 11.3173828,9.02294922 C11.8300781,9.56005859 12.0864257,10.2639974 12.0864257,11.1347656 C12.0864257,11.9811198 11.8321126,12.6321615 11.3234863,13.0878906 C10.81486,13.5436198 10.0763346,13.7714844 9.10791011,13.7714844 L9.10791011,13.7714844 Z M18.5195312,23 L19.7402343,19.3378906 L26.1611328,19.3378906 L27.3940429,23 L31.2880859,23 L24.6352539,5.2265625 L21.2416992,5.2265625 L14.6254882,23 L18.5195312,23 Z M25.1723632,16.371582 L20.7290039,16.371582 L22.9384765,9.71875 L25.1723632,16.371582 Z M39.9550781,23.2441406 C41.4199218,23.2441406 42.7545572,23.0264486 43.9589843,22.5910645 C45.1634114,22.1556803 46.0952148,21.5432943 46.7543945,20.7539062 L46.7543945,20.7539062 L46.7543945,13.6616211 L39.7597656,13.6616211 L39.7597656,16.359375 L43.0922851,16.359375 L43.0922851,19.4233398 C42.5063476,20.0092773 41.5257161,20.3022461 40.1503906,20.3022461 C38.7832031,20.3022461 37.7456054,19.8261719 37.0375976,18.8740234 C36.3295898,17.921875 35.9755859,16.5139974 35.9755859,14.6503906 L35.9755859,14.6503906 L35.9755859,13.5151367 C35.9837239,11.667806 36.3133138,10.2762044 36.9643554,9.34033203 C37.6153971,8.40445964 38.5634765,7.93652344 39.8085937,7.93652344 C40.7851562,7.93652344 41.5521647,8.17252604 42.1096191,8.64453125 C42.6670735,9.11653646 43.0271809,9.86116536 43.1899414,10.878418 L43.1899414,10.878418 L46.7543945,10.878418 C46.5346679,8.95784505 45.8307291,7.49503581 44.6425781,6.48999023 C43.454427,5.48494466 41.8064778,4.98242188 39.6987304,4.98242188 C38.1850586,4.98242188 36.8646647,5.32625326 35.7375488,6.01391602 C34.6104329,6.70157878 33.7478027,7.69441732 33.1496582,8.99243164 C32.5515136,10.290446 32.2524414,11.8264974 32.2524414,13.6005859 L32.2524414,13.6005859 L32.2524414,14.809082 C32.2687174,16.5343424 32.5922037,18.0358073 33.2229003,19.3134766 C33.853597,20.5911458 34.7487793,21.5656738 35.9084472,22.2370605 C37.0681152,22.9084473 38.4169921,23.2441406 39.9550781,23.2441406 Z M52.1132812,23 L53.3339843,19.3378906 L59.7548828,19.3378906 L60.9877929,23 L64.8818359,23 L58.2290039,5.2265625 L54.8354492,5.2265625 L48.2192382,23 L52.1132812,23 Z M58.7661132,16.371582 L54.3227539,16.371582 L56.5322265,9.71875 L58.7661132,16.371582 Z M72.0473632,23 C73.6017252,22.991862 74.9973958,22.6337891 76.234375,21.9257812 C77.4713541,21.2177734 78.4296061,20.2208659 79.1091308,18.9350586 C79.7886556,17.6492513 80.1284179,16.1803385 80.1284179,14.5283203 L80.1284179,14.5283203 L80.1284179,13.7104492 C80.1284179,12.058431 79.782552,10.5834147 79.0908203,9.28540039 C78.3990885,7.98738607 77.4367675,6.98640951 76.2038574,6.2824707 C74.9709472,5.5785319 73.5732421,5.2265625 72.0107421,5.2265625 L72.0107421,5.2265625 L66.5419921,5.2265625 L66.5419921,23 L72.0473632,23 Z M71.9741211,20.0581055 L70.2041015,20.0581055 L70.2041015,8.19287109 L72.0107421,8.19287109 C73.4511718,8.19287109 74.5457356,8.65877279 75.2944336,9.59057617 C76.0431315,10.5223796 76.4174804,11.8916016 76.4174804,13.6982422 L76.4174804,13.6982422 L76.4174804,14.6381836 C76.4012044,16.3797201 76.0146484,17.7184245 75.2578125,18.6542969 C74.5009765,19.5901693 73.4064127,20.0581055 71.9741211,20.0581055 L71.9741211,20.0581055 Z M89.8452148,23.2441406 C91.3344726,23.2441406 92.6548665,22.8860677 93.8063964,22.1699219 C94.9579264,21.453776 95.8429362,20.4365234 96.4614257,19.1181641 C97.0799153,17.7998047 97.3891601,16.2657878 97.3891601,14.5161133 L97.3891601,14.5161133 L97.3891601,13.7226562 C97.3891601,11.9811198 97.0738118,10.4450684 96.4431152,9.11450195 C95.8124186,7.78393555 94.9213053,6.76261393 93.7697753,6.05053711 C92.6182454,5.33846029 91.3019205,4.98242188 89.8208007,4.98242188 C88.3396809,4.98242188 87.0233561,5.33846029 85.8718261,6.05053711 C84.7202962,6.76261393 83.8291829,7.78393555 83.1984863,9.11450195 C82.5677897,10.4450684 82.2524414,11.9851888 82.2524414,13.7348633 L82.2524414,13.7348633 L82.2524414,14.6137695 C82.2605794,16.3227539 82.5820312,17.8343913 83.2167968,19.1486816 C83.8515625,20.462972 84.7467447,21.4741211 85.9023437,22.1821289 C87.0579427,22.8901367 88.372233,23.2441406 89.8452148,23.2441406 Z M89.8452148,20.2412109 C88.5919596,20.2412109 87.6316731,19.7407227 86.9643554,18.7397461 C86.2970377,17.7387695 85.9633789,16.3308919 85.9633789,14.5161133 L85.9633789,14.5161133 L85.9633789,13.6494141 C85.9715169,11.8020833 86.3092447,10.4003092 86.9765625,9.4440918 C87.6438802,8.48787435 88.5919596,8.00976562 89.8208007,8.00976562 C91.0577799,8.00976562 92.0099283,8.49397786 92.6772461,9.46240234 C93.3445638,10.4308268 93.6782226,11.8468424 93.6782226,13.7104492 L93.6782226,13.7104492 L93.6782226,14.5771484 C93.6700846,16.4244792 93.3364257,17.8303223 92.6772461,18.7946777 C92.0180664,19.7590332 91.0740559,20.2412109 89.8452148,20.2412109 Z" id="path-2"></path>
    </defs>
    <g id="Page-1" stroke="none" stroke-width="1" fill="none" fill-rule="evenodd" opacity="0.265252976">
        <g id="stamp" transform="translate(-29.000000, -40.000000)">
            <g id="Recibo" transform="translate(30.000000, 41.000000)">
                <g id="Group" transform="translate(79.281462, 68.341010) rotate(-23.000000) translate(-79.281462, -68.341010) translate(12.781462, 22.841010)">
                    <rect id="Rectangle" stroke="#9AA2BD" stroke-width="3" x="1.5" y="0.5" width="130" height="86" rx="10"></rect>
                    <g id="Logo-/-BdB-/-Imagotipo-/-Horizontal-/-Positive" transform="translate(16.000000, 11.000000)" fill="#9AA2BD" fill-rule="nonzero">
                        <g id="tipo" transform="translate(0.000000, 5.000000)">
                            <path d="M22.5552926,6.50835929 C21.9966476,6.64683502 21.5776639,6.71607288 21.1586801,6.71607288 C20.1112207,6.71607288 19.9017288,5.81598064 19.9017288,5.05436413 C19.9017288,3.87732043 20.3207126,3.25417965 21.1586801,3.25417965 C21.5776639,3.25417965 21.8569864,3.32341751 21.8569864,3.32341751 L22.6251233,3.60036897 L22.6251233,2.63103886 L22.5552926,2.561801 C22.2759701,2.42332527 21.6474945,2.21561167 20.8793576,2.21561167 C19.3430838,2.21561167 18.365455,3.32341751 18.365455,4.98512626 C18.365455,6.57759716 19.3430838,7.61616513 20.7396963,7.61616513 C21.368172,7.61616513 21.926817,7.4776894 22.7647845,7.13150007 L22.9044458,7.06226221 L22.6949539,6.3006457 L22.5552926,6.50835929 Z" id="Shape"></path>
                            <path d="M4.88814392,3.80808256 C5.58645019,3.5311311 5.8657727,3.04646605 5.8657727,2.21561167 C5.8657727,1.45399516 5.51661956,0.830854377 4.88814392,0.623140783 C4.46916015,0.415427189 4.05017639,0.415427189 2.72339447,0.415427189 L0,0.415427189 L0,1.1770437 C0,1.1770437 0.628475647,1.24628157 0.837967529,1.31551943 L0.837967529,7.68540299 L3.00271698,7.68540299 C4.05017639,7.68540299 4.53899078,7.61616513 4.95797454,7.40845153 C5.65628082,7.06226221 6.07526458,6.43912143 6.07526458,5.60826705 C6.14509521,4.63893694 5.72611145,4.01579616 4.88814392,3.80808256 Z M2.37424133,1.31551943 L2.65356384,1.31551943 L2.7932251,1.31551943 C3.35187011,1.31551943 3.77085388,1.31551943 4.05017639,1.52323303 C4.25966827,1.66170875 4.3294989,1.93866021 4.3294989,2.21561167 C4.3294989,2.90799032 4.12000702,3.25417965 3.28203949,3.32341751 L2.65356384,3.39265537 L2.37424133,3.87732043 L2.37424133,1.31551943 Z M4.12000702,6.43912143 C3.77085388,6.71607288 3.28203949,6.71607288 2.65356384,6.71607288 L2.37424133,6.71607288 L2.37424133,4.36198548 L2.44407196,4.36198548 L2.93288635,4.36198548 C3.49153137,4.36198548 3.91051513,4.36198548 4.18983764,4.56969908 C4.39932953,4.77741267 4.53899078,5.05436413 4.53899078,5.46979132 C4.53899078,5.88521851 4.39932953,6.23140783 4.12000702,6.43912143 Z" id="Shape"></path>
                            <path d="M47.6943185,3.80808256 C48.3926248,3.5311311 48.6719473,3.04646605 48.6719473,2.21561167 C48.6719473,1.45399516 48.3227942,0.830854377 47.6943185,0.623140783 C47.2753347,0.415427189 46.856351,0.415427189 45.5295691,0.415427189 L42.8061746,0.415427189 L42.8061746,1.1770437 C42.8061746,1.1770437 43.4346502,1.24628157 43.6441421,1.31551943 L43.6441421,7.68540299 L45.8088916,7.68540299 C46.856351,7.68540299 47.3451654,7.61616513 47.7641491,7.40845153 C48.4624554,7.06226221 48.8814392,6.43912143 48.8814392,5.60826705 C48.9512698,4.63893694 48.532286,4.01579616 47.6943185,3.80808256 Z M45.1804159,1.31551943 L45.4597384,1.31551943 L45.5993997,1.31551943 C46.1580447,1.31551943 46.5770285,1.31551943 46.856351,1.52323303 C47.0658429,1.66170875 47.1356735,1.93866021 47.1356735,2.21561167 C47.1356735,2.90799032 46.9261816,3.25417965 46.0882141,3.32341751 L45.4597384,3.39265537 L45.1804159,3.87732043 L45.1804159,1.31551943 Z M46.9261816,6.43912143 C46.5770285,6.71607288 46.0882141,6.71607288 45.4597384,6.71607288 L45.1804159,6.71607288 L45.1804159,4.36198548 L45.2502465,4.36198548 L45.7390609,4.36198548 C46.297706,4.36198548 46.7166897,4.36198548 46.9960122,4.56969908 C47.2055041,4.77741267 47.3451654,5.05436413 47.3451654,5.46979132 C47.414996,5.88521851 47.2055041,6.23140783 46.9261816,6.43912143 Z" id="Shape"></path>
                            <path d="M16.2007056,2.28484954 C15.7817218,2.28484954 15.2230768,2.42332527 14.5247705,2.70027673 L14.5247705,2.28484954 L12.360021,2.561801 L12.360021,3.32341751 L13.1979886,3.32341751 L13.1979886,7.61616513 L14.6644318,7.61616513 L14.6644318,3.60036897 C14.8739236,3.5311311 15.2929074,3.39265537 15.7817218,3.39265537 C15.9912137,3.39265537 16.2007056,3.46189324 16.2705362,3.5311311 C16.4101974,3.66960683 16.4101974,3.94655829 16.4101974,4.29274762 L16.4101974,7.61616513 L17.8766406,7.61616513 L17.8766406,4.22350975 C17.8766406,3.46189324 17.80681,3.18494178 17.5973181,2.83875246 C17.248165,2.49256313 16.8291812,2.28484954 16.2007056,2.28484954 Z" id="Shape"></path>
                            <path d="M25.7675015,2.28484954 C24.1613971,2.28484954 23.1139377,3.32341751 23.1139377,4.98512626 C23.1139377,6.64683502 24.0915664,7.68540299 25.7675015,7.68540299 C27.3736059,7.68540299 28.3512347,6.64683502 28.3512347,4.98512626 C28.3512347,3.32341751 27.3736059,2.28484954 25.7675015,2.28484954 Z M25.7675015,6.78531075 C25.2786871,6.78531075 24.6502115,6.57759716 24.6502115,4.98512626 C24.6502115,3.39265537 25.2088565,3.18494178 25.7675015,3.18494178 C26.2563159,3.18494178 26.8847915,3.39265537 26.8847915,4.9158884 C26.8149609,6.57759716 26.2563159,6.78531075 25.7675015,6.78531075 Z" id="Shape"></path>
                            <path d="M63.6855322,2.28484954 C62.0794278,2.28484954 61.0319683,3.32341751 61.0319683,4.98512626 C61.0319683,6.64683502 62.0095971,7.68540299 63.6855322,7.68540299 C65.2916366,7.68540299 66.339096,6.64683502 66.339096,4.98512626 C66.339096,3.32341751 65.3614672,2.28484954 63.6855322,2.28484954 Z M63.6855322,6.78531075 C63.1967178,6.78531075 62.5682421,6.57759716 62.5682421,4.98512626 C62.5682421,3.39265537 63.1268872,3.18494178 63.6855322,3.18494178 C64.1743466,3.18494178 64.8028222,3.39265537 64.8028222,4.9158884 C64.8028222,6.57759716 64.2441772,6.78531075 63.6855322,6.78531075 Z" id="Shape"></path>
                            <path d="M69.8306274,6.64683502 L68.783168,6.78531075 C68.5736761,6.78531075 68.5038455,6.71607288 68.4340148,6.64683502 C68.4340148,6.57759716 68.3641842,6.57759716 68.3641842,6.16216997 L68.3641842,3.32341751 L69.8306274,3.32341751 L69.8306274,2.42332527 L68.3641842,2.42332527 L68.3641842,1.03856797 L68.1546923,1.03856797 L66.897741,1.1770437 L66.897741,6.0929321 C66.897741,6.64683502 66.9675717,6.99302434 67.1770636,7.2699758 C67.3865554,7.54692726 67.7357086,7.68540299 68.224523,7.68540299 C68.7133374,7.68540299 69.2021517,7.54692726 69.7607968,7.33921367 L69.900458,7.2699758 L69.8306274,6.64683502 Z" id="Shape"></path>
                            <path d="M52.3031399,2.28484954 C50.6970355,2.28484954 49.6495761,3.32341751 49.6495761,4.98512626 C49.6495761,6.64683502 50.6272049,7.68540299 52.3031399,7.68540299 C53.9092443,7.68540299 54.8868731,6.64683502 54.8868731,4.98512626 C54.8868731,3.32341751 53.9092443,2.28484954 52.3031399,2.28484954 Z M52.3031399,6.78531075 C51.8143255,6.78531075 51.1858499,6.57759716 51.1858499,4.98512626 C51.1858499,3.39265537 51.7444949,3.18494178 52.3031399,3.18494178 C52.7919543,3.18494178 53.42043,3.39265537 53.42043,4.9158884 C53.42043,6.57759716 52.8617849,6.78531075 52.3031399,6.78531075 Z" id="Shape"></path>
                            <path d="M59.0068801,2.70027673 C58.657727,2.49256313 58.2387432,2.42332527 57.8895901,2.42332527 C56.4231469,2.42332527 55.3756875,3.60036897 55.3756875,5.19283986 C55.3756875,6.71607288 56.213655,7.68540299 57.4706063,7.68540299 C57.8197595,7.68540299 58.1689126,7.61616513 58.9370495,7.2699758 L58.9370495,7.68540299 C58.9370495,8.58549523 58.5878964,8.86244669 57.4706063,8.86244669 C56.981792,8.86244669 56.2834857,8.79320883 55.7248407,8.6547331 L55.7248407,9.55482534 C56.8421307,9.76253894 57.2611145,9.8317768 57.8197595,9.8317768 C58.5180658,9.8317768 59.1465414,9.69330107 59.5655252,9.48558748 C60.1940008,9.13939815 60.4034927,8.6547331 60.4034927,7.75464086 L60.4034927,2.49256313 L58.9370495,2.49256313 L58.9370495,2.70027673 L59.0068801,2.70027673 Z M59.0068801,6.57759716 C58.7275576,6.64683502 58.5878964,6.64683502 58.3085739,6.64683502 C57.4007757,6.64683502 56.981792,6.0929321 56.981792,5.05436413 C56.981792,3.94655829 57.540437,3.39265537 58.4482351,3.39265537 C58.5878964,3.39265537 58.7275576,3.39265537 59.0068801,3.46189324 L59.0068801,6.57759716 Z" id="Shape"></path>
                            <path d="M11.5918841,2.561801 L10.1952716,2.561801 L10.1952716,2.76951459 C9.84611846,2.561801 9.49696533,2.49256313 9.07798156,2.49256313 C7.68136901,2.49256313 6.6339096,3.60036897 6.6339096,5.26207772 C6.6339096,6.78531075 7.4020465,7.75464086 8.72882842,7.75464086 C9.07798156,7.75464086 9.49696533,7.61616513 10.125441,7.20073794 L10.125441,7.68540299 L10.125441,7.68540299 L12.1505292,7.4776894 L12.1505292,6.64683502 L11.5918841,6.64683502 L11.5918841,2.561801 L11.5918841,2.561801 Z M10.1952716,6.64683502 C9.91594909,6.71607288 9.77628783,6.71607288 9.49696533,6.71607288 C8.58916717,6.71607288 8.10035278,6.16216997 8.10035278,5.12360199 C8.10035278,4.01579616 8.6589978,3.39265537 9.63662658,3.39265537 C9.84611846,3.39265537 9.91594909,3.39265537 10.1952716,3.46189324 L10.1952716,6.64683502 Z" id="Shape"></path>
                            <path d="M75.2075857,2.561801 L73.8109732,2.561801 L73.8109732,2.76951459 C73.46182,2.561801 73.1126669,2.49256313 72.6936831,2.49256313 C71.2970706,2.49256313 70.2496112,3.60036897 70.2496112,5.26207772 C70.2496112,6.78531075 71.0177481,7.75464086 72.34453,7.75464086 C72.6936831,7.75464086 73.1126669,7.61616513 73.7411425,7.20073794 L73.7411425,7.68540299 L75.7662307,7.4776894 L75.7662307,6.64683502 L75.2075857,6.64683502 L75.2075857,2.561801 Z M73.7411425,6.64683502 C73.46182,6.71607288 73.3221588,6.71607288 73.0428363,6.71607288 C72.1350381,6.71607288 71.6462237,6.16216997 71.6462237,5.12360199 C71.6462237,4.01579616 72.2048687,3.39265537 73.1824975,3.39265537 C73.3919894,3.39265537 73.46182,3.39265537 73.7411425,3.46189324 L73.7411425,6.64683502 Z" id="Shape"></path>
                            <polygon id="Shape" points="74.5092794 1.24628157 74.1601263 0.13847573 74.020465 0.207713594 71.7160543 1.10780584 71.9255462 1.73094662"></polygon>
                            <path d="M35.3342975,0 L35.2644668,0 L35.1248056,0 L33.2393786,0.207713594 L33.2393786,0.830854377 L33.9376849,0.830854377 L33.9376849,2.49256313 C33.3790399,2.28484954 32.5410724,2.14637381 31.8427661,2.3540874 C30.8651373,2.70027673 30.2366617,3.60036897 30.2366617,4.9158884 C30.2366617,6.0929321 30.7953067,7.06226221 31.7729355,7.40845153 C32.4712417,7.61616513 33.4488705,7.40845153 34.0075155,7.13150007 L34.0075155,7.54692726 L35.9627731,7.2699758 L35.9627731,6.64683502 L35.3342975,6.64683502 C35.2644668,6.64683502 35.3342975,0 35.3342975,0 Z M33.8678543,6.57759716 C33.2393786,6.78531075 32.4712417,6.85454861 32.052258,6.3006457 C31.7729355,5.95445637 31.7031048,5.46979132 31.7031048,4.98512626 L31.7031048,4.84665054 C31.7031048,4.29274762 31.8427661,3.94655829 32.1220886,3.60036897 C32.5410724,3.11570392 33.3092093,3.18494178 33.8678543,3.46189324 C33.9376849,3.46189324 33.8678543,6.43912143 33.8678543,6.57759716 Z" id="Shape"></path>
                            <path d="M38.8258288,2.28484954 C38.4766757,2.28484954 38.1973532,2.28484954 37.9180307,2.42332527 C36.8705713,2.76951459 36.2420956,3.66960683 36.2420956,5.05436413 C36.2420956,6.3006457 36.8705713,7.2699758 37.9180307,7.61616513 C38.8258288,7.89311659 40.1526107,7.61616513 41.0604089,7.13150007 L41.1302395,7.13150007 L40.9207477,6.36988356 L40.4319333,6.50835929 C39.733627,6.71607288 38.8258288,7.06226221 38.2671838,6.36988356 C37.9878613,6.02369424 37.9180307,5.46979132 37.9180307,5.05436413 L40.7112558,5.12360199 L41.1302395,5.12360199 L41.1302395,5.05436413 L41.1302395,4.70817481 C41.0604089,2.21561167 38.8956595,2.28484954 38.8258288,2.28484954 Z M37.7783694,4.36198548 C37.7783694,4.29274762 37.8482,3.25417965 38.7559982,3.25417965 C39.733627,3.25417965 39.733627,4.29274762 39.733627,4.36198548 L37.7783694,4.36198548 Z" id="Shape"></path>
                        </g>
                        <g id="monogram" transform="translate(80.000000, 0.000000)">
                            <path d="M9.88987493,0.00295014554 C4.58545317,0.0973548029 0.200271797,3.87649124 0.00659536221,9.0687474 C-0.18419038,14.2639537 3.78762188,18.6360694 8.87813236,18.830779 C11.4681933,18.931084 13.8501244,17.9309846 15.5932123,16.2376011 C17.2698143,14.6061706 17.2004377,11.735679 15.8678282,13.0366932 C14.4022468,14.4675137 12.3527454,15.323056 10.1182397,15.2404519 C5.85735811,15.0840942 2.5330611,11.573421 2.69204921,7.39896502 C2.83947456,3.52542392 6.60315692,0.460222705 9.97081434,0.274363536 L10.0575351,0 C10.002612,0.00295014554 9.94768879,0.00295014554 9.88987493,0.00295014554 Z" id="Shape"></path>
                            <path d="M10.6332741,0.274509787 C14.9089184,0.540115342 18.4281692,4.26154428 5.9852071,7.98297322 C9.15513109,8.62042655 11.4964866,10.1402806 11.4964866,10.1402806 C22.1495098,4.60388033 16.0897007,-0.017656323 10.0616485,-5.15143483e-14 L9.97503856,0.274509787 C10.1973374,0.259753923 10.4167493,0.259753923 10.6332741,0.274509787 Z" id="Shape"></path>
                            <path d="M5.41927604,2.23142477 C6.7624093,1.0860635 8.42974713,0.362052749 10.0131391,0.273035034 C10.2360298,0.261166005 10.4560257,0.261166005 10.673127,0.276002291 C12.7746674,0.406561607 14.6938427,1.37092019 14.6359491,2.76553106 L15.6867193,1.49851225 C14.2827977,0.546022694 12.1899413,-0.00588714081 10.0999796,4.7373543e-05 L9.93208799,4.7373543e-05 C7.96370305,0.0356544597 6.12268419,0.578662523 4.57692308,1.51631579 L5.41927604,2.23142477 Z" id="Shape"></path>
                            <path d="M15.2179857,14.7094188 C15.2150923,14.6593032 15.0414872,13.4299954 15.0414872,13.4299954 C14.6103681,10.5085468 15.2121988,7.67848564 19.5986193,7.44559519 C13.2359949,4.32957993 9.00581893,7.31293607 5.9069691,8.01160742 C8.72805088,8.36831305 14.6740232,11.6169874 15.2179857,14.7094188 Z" id="Shape"></path>
                            <path d="M17.3147595,8.29659319 C14.6031868,9.43695147 14.881,12.595094 15.1414499,14.4474376 C15.1935399,14.5981067 15.4655653,15.7502821 14.8375917,16.9526806 C14.0591359,18.3057482 12.7974008,19.3279347 10.3665352,19.989697 C16.5970754,20.2851266 23.7276147,14.1756423 17.3147595,8.29659319 Z" id="Shape"></path>
                        </g>
                    </g>
                    <g id="TRANSACCIÓN-DIGITAL" transform="translate(34.000000, 38.000000)" fill-rule="nonzero">
                        <g id="TRANSACCIÓNDIGITAL">
                            <use fill="#000000" xlink:href="#path-1"></use>
                            <use fill="#99A1C0" xlink:href="#path-1"></use>
                        </g>
                    </g>
                    <g id="PAGADO" transform="translate(18.000000, 62.000000)" fill-rule="nonzero">
                        <g>
                            <use fill="#000000" xlink:href="#path-2"></use>
                            <use fill="#99A1C0" xlink:href="#path-2"></use>
                        </g>
                    </g>
                    <line x1="0" y1="38" x2="133" y2="38" id="Path-2" stroke="#9AA2BD" stroke-width="2"></line>
                    <line x1="0" y1="57" x2="133" y2="57" id="Path-2-Copy" stroke="#9AA2BD" stroke-width="2"></line>
                </g>
            </g>
        </g>
    </g>
</svg>