<svg xmlns="http://www.w3.org/2000/svg" width="160" height="138" viewBox="0 0 160 138">
    <g fill="none" fill-rule="evenodd" opacity=".265" transform="rotate(-23 131.982 23.551)">
        <rect width="130" height="86" x="1.5" y=".5" stroke="#9AA2BD" stroke-width="3" rx="10"/>
        <g fill="#9AA2BD" fill-rule="nonzero">
            <g>
                <path d="M22.555 6.508c-.558.139-.977.208-1.396.208-1.048 0-1.257-.9-1.257-1.662 0-1.177.419-1.8 1.257-1.8.419 0 .698.07.698.07l.768.276v-.969l-.07-.07c-.279-.138-.908-.345-1.676-.345-1.536 0-2.514 1.107-2.514 2.77 0 1.592.978 2.63 2.375 2.63.628 0 1.187-.138 2.025-.484l.14-.07-.21-.761-.14.207zM4.888 3.808c.698-.277.978-.762.978-1.592 0-.762-.35-1.385-.978-1.593C4.47.415 4.05.415 2.723.415H0v.762s.628.07.838.139v6.37h2.165c1.047 0 1.536-.07 1.955-.278.698-.346 1.117-.969 1.117-1.8.07-.97-.349-1.592-1.187-1.8zM2.374 1.316H2.794c.558 0 .977 0 1.256.207.21.139.28.416.28.693 0 .692-.21 1.038-1.048 1.107l-.628.07-.28.484V1.316zM4.12 6.439c-.35.277-.838.277-1.466.277h-.28V4.362H2.933c.559 0 .978 0 1.257.208.21.207.349.484.349.9 0 .415-.14.761-.419.97zM47.694 3.808c.699-.277.978-.762.978-1.592 0-.762-.35-1.385-.978-1.593-.419-.208-.838-.208-2.164-.208h-2.724v.762s.629.07.838.139v6.37h2.165c1.047 0 1.536-.07 1.955-.278.698-.346 1.117-.969 1.117-1.8.07-.97-.349-1.592-1.187-1.8zM45.18 1.316H45.6c.558 0 .977 0 1.256.207.21.139.28.416.28.693 0 .692-.21 1.038-1.048 1.107l-.628.07-.28.484V1.316zm1.746 5.123c-.349.277-.838.277-1.466.277h-.28V4.362h.56c.558 0 .977 0 1.256.208.21.207.35.484.35.9.069.415-.14.761-.42.97zM16.2 2.285c-.418 0-.977.138-1.675.415v-.415l-2.165.277v.761h.838v4.293h1.466V3.6c.21-.069.629-.207 1.118-.207.21 0 .419.069.489.138.14.139.14.416.14.762v3.323h1.466V4.224c0-.762-.07-1.04-.28-1.385-.349-.346-.768-.554-1.396-.554zM25.768 2.285c-1.607 0-2.654 1.038-2.654 2.7 0 1.662.978 2.7 2.654 2.7 1.606 0 2.583-1.038 2.583-2.7 0-1.662-.977-2.7-2.583-2.7zm0 4.5c-.49 0-1.118-.207-1.118-1.8 0-1.592.559-1.8 1.118-1.8.488 0 1.117.208 1.117 1.73-.07 1.663-.629 1.87-1.117 1.87zM63.686 2.285c-1.607 0-2.654 1.038-2.654 2.7 0 1.662.978 2.7 2.654 2.7 1.606 0 2.653-1.038 2.653-2.7 0-1.662-.978-2.7-2.653-2.7zm0 4.5c-.49 0-1.118-.207-1.118-1.8 0-1.592.559-1.8 1.118-1.8.488 0 1.117.208 1.117 1.73 0 1.663-.559 1.87-1.117 1.87zM69.83 6.647l-1.047.138c-.21 0-.28-.069-.349-.138 0-.07-.07-.07-.07-.485V3.323h1.467v-.9h-1.467V1.04h-.21l-1.256.138v4.916c0 .554.07.9.28 1.177.209.277.558.415 1.047.415.488 0 .977-.138 1.536-.346l.14-.069-.07-.623zM52.303 2.285c-1.606 0-2.653 1.038-2.653 2.7 0 1.662.977 2.7 2.653 2.7 1.606 0 2.584-1.038 2.584-2.7 0-1.662-.978-2.7-2.584-2.7zm0 4.5c-.489 0-1.117-.207-1.117-1.8 0-1.592.558-1.8 1.117-1.8.489 0 1.117.208 1.117 1.73 0 1.663-.558 1.87-1.117 1.87zM59.007 2.7c-.35-.207-.768-.277-1.117-.277-1.467 0-2.514 1.177-2.514 2.77 0 1.523.838 2.492 2.095 2.492.349 0 .698-.069 1.466-.415v.415c0 .9-.35 1.177-1.466 1.177-.49 0-1.188-.069-1.746-.207v.9c1.117.208 1.536.277 2.095.277.698 0 1.327-.139 1.746-.346.628-.347.837-.831.837-1.731V2.493h-1.466V2.7h.07zm0 3.878c-.28.069-.42.069-.698.069-.908 0-1.327-.554-1.327-1.593 0-1.107.558-1.661 1.466-1.661.14 0 .28 0 .559.069v3.116zM11.592 2.562h-1.397v.208c-.349-.208-.698-.277-1.117-.277-1.397 0-2.444 1.107-2.444 2.77 0 1.522.768 2.492 2.095 2.492.349 0 .768-.139 1.396-.554v.484l2.026-.207v-.831h-.56V2.562zm-1.397 4.085c-.28.07-.419.07-.698.07-.908 0-1.397-.555-1.397-1.593 0-1.108.559-1.731 1.537-1.731.21 0 .279 0 .558.069v3.185zM75.208 2.562H73.81v.208c-.35-.208-.698-.277-1.117-.277-1.397 0-2.444 1.107-2.444 2.77 0 1.522.768 2.492 2.095 2.492.349 0 .768-.139 1.396-.554v.484l2.025-.207v-.831h-.558V2.562zM73.74 6.647c-.28.07-.419.07-.698.07-.908 0-1.397-.555-1.397-1.593 0-1.108.559-1.731 1.536-1.731.21 0 .28 0 .56.069v3.185zM74.509 1.246L74.16.138 74.02.208 71.716 1.108 71.926 1.731zM35.334 0H35.124L33.24.208V.83h.699v1.662c-.559-.208-1.397-.347-2.095-.139-.978.346-1.606 1.246-1.606 2.562 0 1.177.558 2.146 1.536 2.492.698.208 1.676 0 2.235-.276v.415l1.955-.277v-.623h-.629c-.07 0 0-6.647 0-6.647zm-1.466 6.578c-.629.207-1.397.277-1.816-.277-.28-.347-.349-.831-.349-1.316v-.138c0-.554.14-.9.42-1.247.418-.484 1.186-.415 1.745-.138.07 0 0 2.977 0 3.116zM38.826 2.285c-.35 0-.629 0-.908.138-1.047.347-1.676 1.247-1.676 2.631 0 1.247.629 2.216 1.676 2.562.908.277 2.235 0 3.142-.484h.07l-.21-.762-.488.138c-.698.208-1.606.554-2.165-.138-.28-.346-.349-.9-.349-1.316l2.793.07h.42v-.416c-.07-2.492-2.235-2.423-2.305-2.423zm-1.048 2.077c0-.07.07-1.108.978-1.108.978 0 .978 1.039.978 1.108h-1.956z" transform="translate(16 11) translate(0 5)"/>
            </g>
            <g>
                <path d="M9.89.003C4.585.097.2 3.876.007 9.069c-.191 5.195 3.78 9.567 8.871 9.762 2.59.1 4.972-.9 6.715-2.593 1.677-1.632 1.607-4.502.275-3.201-1.466 1.43-3.515 2.286-5.75 2.203-4.26-.156-7.585-3.667-7.426-7.841C2.839 3.525 6.603.46 9.971.274L10.058 0c-.055.003-.11.003-.168.003z" transform="translate(16 11) translate(80)"/>
                <path d="M10.633.275c4.276.265 7.795 3.987-4.648 7.708 3.17.637 5.511 2.157 5.511 2.157C22.15 4.604 16.09-.018 10.062 0l-.087.275c.222-.015.442-.015.658 0z" transform="translate(16 11) translate(80)"/>
                <path d="M5.42 2.231C6.761 1.086 8.43.362 10.012.273c.223-.012.443-.012.66.003 2.102.13 4.02 1.095 3.963 2.49l1.05-1.267C14.284.546 12.19-.006 10.1 0h-.168c-1.968.036-3.81.579-5.355 1.516l.842.715zM15.218 14.71c-.003-.05-.177-1.28-.177-1.28-.43-2.921.171-5.752 4.558-5.984-6.363-3.116-10.593-.133-13.692.566 2.821.356 8.767 3.605 9.311 6.697z" transform="translate(16 11) translate(80)"/>
                <path d="M17.315 8.297c-2.712 1.14-2.434 4.298-2.174 6.15.053.151.325 1.303-.303 2.506-.779 1.353-2.04 2.375-4.471 3.037 6.23.295 13.36-5.814 6.948-11.693z" transform="translate(16 11) translate(80)"/>
            </g>
        </g>
        <text fill="#99A1C0" fill-rule="nonzero" font-family="Roboto-Bold, Roboto" font-size="6" font-weight="bold" transform="translate(34 38)">
            <tspan x=".631" y="6">TRANSACCIÓN DIGITAL</tspan>
        </text>
        <text fill="#99A1C0" fill-rule="nonzero" font-family="Roboto-Bold, Roboto" font-size="25" font-weight="bold" transform="translate(18 62)">
            <tspan x=".587" y="23">PAGADO</tspan>
        </text>
        <path stroke="#9AA2BD" stroke-width="2" d="M0 38L133 38M0 57L133 57"/>
    </g>
</svg>
