<svg xmlns="http://www.w3.org/2000/svg" width="100" height="72" viewBox="0 0 100 72">
    <g fill="none" fill-rule="evenodd">
        <g>
            <g>
                <g>
                    <path d="M0 0H100V72H0z" transform="translate(-574.000000, -272.000000) translate(442.000000, 220.000000) translate(132.000000, 52.000000)"/>
                    <g>
                        <g>
                            <g>
                                <path fill="#FFF" d="M3.954 1.098h22.814c1.588 0 2.875 1.288 2.875 2.876v48.052c0 1.588-1.287 2.876-2.875 2.876H3.954c-1.588 0-2.876-1.288-2.876-2.876V3.974c0-1.588 1.288-2.876 2.876-2.876z" transform="translate(-574.000000, -272.000000) translate(442.000000, 220.000000) translate(132.000000, 52.000000) translate(27.000000, 8.000000)"/>
                                <path fill="#F2FCFC" d="M8.085 3.294H26.41c1.786 0 3.233 1.475 3.233 3.294v.55H4.851v-.55c0-1.82 1.448-3.294 3.234-3.294z" transform="translate(-574.000000, -272.000000) translate(442.000000, 220.000000) translate(132.000000, 52.000000) translate(27.000000, 8.000000)"/>
                                <path fill="#C1E0FF" d="M8.624 11.53H30.72c1.786 0 3.234 1.474 3.234 3.294v33.49c0 1.819-1.448 3.294-3.234 3.294H8.624c-1.786 0-3.234-1.475-3.234-3.294v-33.49c0-1.82 1.448-3.295 3.234-3.295z" opacity=".5" transform="translate(-574.000000, -272.000000) translate(442.000000, 220.000000) translate(132.000000, 52.000000) translate(27.000000, 8.000000)"/>
                                <path fill="#6680AD" fill-rule="nonzero" d="M26.41.1H4.312C2.054.1.212 1.91.105 4.184L.1 4.392v47.216c0 2.301 1.777 4.179 4.008 4.287l.204.005H26.41c2.257 0 4.1-1.81 4.207-4.084l.004-.208V4.392c0-2.301-1.776-4.179-4.007-4.287L26.41.1zm0 1.996c1.194 0 2.171.945 2.25 2.139l.006.157v47.216c0 1.215-.928 2.21-2.102 2.29l-.154.006H4.312c-1.195 0-2.172-.945-2.25-2.139l-.006-.157V4.392c0-1.215.927-2.21 2.101-2.29l.155-.006H26.41z" transform="translate(-574.000000, -272.000000) translate(442.000000, 220.000000) translate(132.000000, 52.000000) translate(27.000000, 8.000000)"/>
                                <path fill="#6680AD" fill-rule="nonzero" d="M29.643 6.14H1.078c-.501 0-.915.384-.971.88L.1 7.138v40.079c0 .512.378.933.864.991l.114.007h28.565c.502 0 .915-.385.972-.882l.006-.116V7.137c0-.512-.377-.933-.864-.991l-.114-.007zm-1.077 1.995l.1.1v37.883l-.1.1H2.156l-.1-.1V8.235l.1-.1h26.41z" transform="translate(-574.000000, -272.000000) translate(442.000000, 220.000000) translate(132.000000, 52.000000) translate(27.000000, 8.000000)"/>
                                <g fill="#C4D4E3" fill-rule="nonzero">
                                    <path d="M2.167 0C1.45 0 .862.597.862 1.327s.588 1.328 1.305 1.328c.718 0 1.306-.597 1.306-1.328C3.473.597 2.885 0 2.167 0z" transform="translate(-574.000000, -272.000000) translate(442.000000, 220.000000) translate(132.000000, 52.000000) translate(27.000000, 8.000000) translate(13.150912, 2.745098)"/>
                                </g>
                                <path fill="#6680AD" fill-rule="nonzero" d="M11.857 50.06h6.694c.54 0 .978.447.978.999 0 .551-.438.998-.978.998h-6.694c-.54 0-.978-.447-.978-.998 0-.552.439-.998.978-.998z" transform="translate(-574.000000, -272.000000) translate(442.000000, 220.000000) translate(132.000000, 52.000000) translate(27.000000, 8.000000)"/>
                            </g>
                            <path fill="#FFF" d="M6.791 14.483h17.463c1.607 0 2.91 1.297 2.91 2.896v1.931c0 1.6-1.303 2.897-2.91 2.897H6.79c-1.607 0-2.91-1.297-2.91-2.897v-1.93c0-1.6 1.303-2.897 2.91-2.897z" transform="translate(-574.000000, -272.000000) translate(442.000000, 220.000000) translate(132.000000, 52.000000) translate(27.000000, 8.000000)"/>
                            <g fill="#F69B31" fill-rule="nonzero">
                                <path d="M1.94 0C.873 0 0 .869 0 1.931s.873 1.931 1.94 1.931 1.94-.869 1.94-1.931S3.008 0 1.94 0zM6.791 0c-1.067 0-1.94.869-1.94 1.931s.873 1.931 1.94 1.931 1.94-.869 1.94-1.931S7.858 0 6.791 0zM11.642 0c-1.067 0-1.94.869-1.94 1.931s.873 1.931 1.94 1.931 1.94-.869 1.94-1.931S12.71 0 11.642 0zM16.493 0c-1.068 0-1.94.869-1.94 1.931s.872 1.931 1.94 1.931c1.067 0 1.94-.869 1.94-1.931S17.56 0 16.493 0z" transform="translate(-574.000000, -272.000000) translate(442.000000, 220.000000) translate(132.000000, 52.000000) translate(27.000000, 8.000000) translate(5.820896, 16.413793)"/>
                            </g>
                        </g>
                        <g fill-rule="nonzero">
                            <path fill="#FFF" d="M13 0C11.352 0 9.84.891 9.037 2.318l-.105.198L.485 19.407l-.105.226c-.597 1.366-.486 2.94.3 4.211.787 1.274 2.147 2.074 3.633 2.15l.235.007H21.44l.226-.006c1.497-.07 2.865-.874 3.655-2.151.785-1.27.894-2.84.305-4.2l-.105-.224-8.447-16.895-.102-.192C16.171.894 14.651 0 13 0z" transform="translate(-574.000000, -272.000000) translate(442.000000, 220.000000) translate(132.000000, 52.000000) translate(27.000000, 8.000000) translate(21.000000, 30.000000)"/>
                            <path fill="#F69B31" d="M13 0C11.352 0 9.84.891 9.037 2.318l-.105.198L.485 19.407l-.105.226c-.597 1.366-.486 2.94.3 4.211.787 1.274 2.147 2.074 3.633 2.15l.235.007H21.44l.226-.006c1.497-.07 2.865-.874 3.655-2.151.785-1.27.894-2.84.305-4.2l-.105-.224-8.447-16.895-.102-.192C16.171.894 14.651 0 13 0zm0 2c.905 0 1.738.48 2.193 1.251l.087.158 8.461 16.924.08.181c.297.747.223 1.592-.201 2.278-.434.701-1.177 1.146-1.992 1.202l-.176.006H4.528l-.182-.008c-.808-.064-1.538-.509-1.965-1.2-.431-.697-.499-1.556-.19-2.307l.078-.172 8.46-16.921.09-.162C11.28 2.468 12.108 2 13 2zM13 18l-.19.01c-.883.096-1.559.845-1.559 1.74 0 .967.784 1.75 1.75 1.75.967 0 1.75-.783 1.75-1.75 0-.842-.599-1.555-1.382-1.714l-.15-.023L13 18zM13 7.5c-.513 0-.935.386-.993.884L12 8.5v5.967l.01.17c.066.492.489.863.99.863.513 0 .936-.386.993-.883L14 14.5l.001-5.966-.01-.17c-.067-.492-.49-.864-.99-.864z" transform="translate(-574.000000, -272.000000) translate(442.000000, 220.000000) translate(132.000000, 52.000000) translate(27.000000, 8.000000) translate(21.000000, 30.000000)"/>
                        </g>
                    </g>
                </g>
            </g>
        </g>
    </g>
</svg>
