<svg width="50" height="50" viewBox="0 0 50 50" fill="none" xmlns="http://www.w3.org/2000/svg">
<path d="M24.6812 0.00726916C11.4791 0.239882 0.564861 9.55167 0.0828214 22.3454C-0.392023 35.1464 9.49338 45.9193 22.1631 46.399C28.6095 46.6462 34.5378 44.1819 38.8762 40.0094C43.0491 35.9896 42.8764 28.9167 39.5597 32.1224C35.912 35.648 30.811 37.756 25.2496 37.5525C14.6447 37.1672 6.37091 28.5169 6.76662 18.2311C7.13354 8.68665 16.5009 1.13399 24.8827 0.676032L25.0985 0C24.9618 0.00726916 24.8251 0.00726916 24.6812 0.00726916Z" fill="url(#paint0_linear_2467_88429)"/>
<path d="M26.5314 0.676392C37.173 1.33084 45.932 10.5004 14.9629 19.67C22.8525 21.2407 28.6799 24.9857 28.6799 24.9857C55.194 11.344 40.1118 -0.0435052 25.1087 0.000124959L24.8931 0.676392C25.4464 0.640034 25.9925 0.640034 26.5314 0.676392Z" fill="#FFCB05"/>
<path d="M13.5545 5.49823C16.8974 2.67606 21.0473 0.892098 24.9881 0.672758C25.5429 0.643513 26.0904 0.643513 26.6308 0.68007C31.8613 1.00177 36.6379 3.37795 36.4938 6.81427L39.109 3.69233C35.6148 1.3454 30.406 -0.0145059 25.2043 0.000116728C25.0674 0.000116728 24.9305 0.000116728 24.7864 0.000116728C19.8873 0.0878526 15.3052 1.42582 11.458 3.7362L13.5545 5.49823Z" fill="url(#paint1_linear_2467_88429)"/>
<path d="M37.9426 36.244C37.9354 36.1205 37.5034 33.0915 37.5034 33.0915C36.4304 25.893 37.9282 18.9198 48.8456 18.3459C33.0097 10.6681 22.4812 18.019 14.7686 19.7406C21.7899 20.6195 36.5888 28.6242 37.9426 36.244Z" fill="url(#paint2_linear_2467_88429)"/>
<path d="M43.1606 20.4429C36.4117 23.2527 37.1032 31.0344 37.7514 35.5986C37.8811 35.9698 38.5581 38.8088 36.9952 41.7715C35.0577 45.1054 31.9173 47.6241 25.8672 49.2547C41.3743 49.9826 59.1214 34.9288 43.1606 20.4429Z" fill="url(#paint3_linear_2467_88429)"/>
<defs>
<linearGradient id="paint0_linear_2467_88429" x1="23.603" y1="46.8467" x2="39.7675" y2="46.8467" gradientUnits="userSpaceOnUse">
<stop stop-color="#ED1C24"/>
<stop offset="0.948157" stop-color="white" stop-opacity="0.01"/>
</linearGradient>
<linearGradient id="paint1_linear_2467_88429" x1="14.312" y1="6.07274" x2="35.9709" y2="6.07274" gradientUnits="userSpaceOnUse">
<stop stop-color="#ED1C24"/>
<stop offset="1" stop-color="#FFCB05"/>
</linearGradient>
<linearGradient id="paint2_linear_2467_88429" x1="25.5982" y1="14.7447" x2="25.5982" y2="22.5189" gradientUnits="userSpaceOnUse">
<stop stop-color="#E39717"/>
<stop offset="0.1236" stop-color="#E8A116"/>
<stop offset="0.4344" stop-color="#F4B710"/>
<stop offset="0.7321" stop-color="#FCC509"/>
<stop offset="1" stop-color="#FFCB05"/>
</linearGradient>
<linearGradient id="paint3_linear_2467_88429" x1="28.0171" y1="30.3196" x2="34.2672" y2="39.5786" gradientUnits="userSpaceOnUse">
<stop stop-color="#E39717"/>
<stop offset="0.1013" stop-color="#E8A116"/>
<stop offset="0.3561" stop-color="#F4B710"/>
<stop offset="0.6" stop-color="#FCC509"/>
<stop offset="0.8196" stop-color="#FFCB05"/>
<stop offset="1" stop-color="#FFCB05"/>
</linearGradient>
</defs>
</svg>
