<svg width="200" height="40" viewBox="0 0 200 40" fill="none" xmlns="http://www.w3.org/2000/svg">
<path d="M45.1857 23.0166C44.0665 23.2936 43.2271 23.4321 42.3878 23.4321C40.2894 23.4321 39.8697 21.6319 39.8697 20.1087C39.8697 17.7546 40.709 16.5083 42.3878 16.5083C43.2271 16.5083 43.7867 16.6468 43.7867 16.6468L45.3256 17.2007V15.262L45.1857 15.1235C44.6261 14.8466 43.367 14.4312 41.8282 14.4312C38.7505 14.4312 36.792 16.6468 36.792 19.9702C36.792 23.1551 38.7505 25.2323 41.5484 25.2323C42.8075 25.2323 43.9266 24.9553 45.6053 24.2629L45.8851 24.1245L45.4655 22.6012L45.1857 23.0166Z" fill="#002C76"/>
<path fill-rule="evenodd" clip-rule="evenodd" d="M9.79261 17.6161C11.1916 17.0622 11.7511 16.0929 11.7511 14.4312C11.7511 12.9079 11.0517 11.6617 9.79261 11.2462C8.95324 10.8308 8.11388 10.8308 5.45588 10.8308H0V12.354C0 12.354 1.25905 12.4925 1.67873 12.631V25.3708H6.01546C8.11388 25.3708 9.09314 25.2323 9.9325 24.8169C11.3314 24.1245 12.1708 22.8782 12.1708 21.2165C12.3107 19.2778 11.4713 18.0315 9.79261 17.6161ZM4.75641 12.631H5.31599H5.59578C6.71493 12.631 7.5543 12.631 8.11388 13.0464C8.53356 13.3234 8.67345 13.8773 8.67345 14.4312C8.67345 15.8159 8.25377 16.5083 6.57504 16.6468L5.31599 16.7853L4.75641 17.7546V12.631ZM5.31599 23.4321C6.57504 23.4321 7.5543 23.4321 8.25377 22.8782C8.81335 22.4628 9.09314 21.7704 9.09314 20.9395C9.09314 20.1087 8.81335 19.5548 8.39367 19.1394C7.83409 18.7239 6.99472 18.7239 5.87557 18.7239H4.89631H4.75641V23.4321H5.31599Z" fill="#002C76"/>
<path fill-rule="evenodd" clip-rule="evenodd" d="M95.5475 17.6161C96.9464 17.0622 97.506 16.0929 97.506 14.4312C97.506 12.9079 96.8065 11.6617 95.5475 11.2462C94.7081 10.8308 93.8688 10.8308 91.2108 10.8308H85.7549V12.354C85.7549 12.354 87.0139 12.4925 87.4336 12.631V25.3708H91.7703C93.8688 25.3708 94.848 25.2323 95.6874 24.8169C97.0863 24.1245 97.9257 22.8782 97.9257 21.2165C98.0656 19.2778 97.2262 18.0315 95.5475 17.6161ZM90.5113 12.631H91.0709H91.3507C92.4698 12.631 93.3092 12.631 93.8688 13.0464C94.2884 13.3234 94.4283 13.8773 94.4283 14.4312C94.4283 15.8159 94.0087 16.5083 92.3299 16.6468L91.0709 16.7853L90.5113 17.7546V12.631ZM91.0709 23.4321C92.3299 23.4321 93.3092 23.4321 94.0087 22.8782C94.5682 22.4628 94.9879 21.7704 94.848 20.9395C94.848 20.1087 94.5682 19.5548 94.1486 19.1394C93.589 18.7239 92.7496 18.7239 91.6304 18.7239H90.6512H90.5113V23.4321H91.0709Z" fill="#002C76"/>
<path d="M32.4559 14.5696C31.6165 14.5696 30.4974 14.8465 29.0984 15.4004C29.0984 15.1235 29.0984 14.5696 29.0984 14.5696L24.7617 15.1235V16.6467C24.7617 16.6467 26.0208 16.6467 26.4405 16.6467C26.4405 17.2006 26.4405 25.2322 26.4405 25.2322H29.3782C29.3782 25.2322 29.3782 17.7545 29.3782 17.2006C29.7979 17.0621 30.6373 16.7852 31.6165 16.7852C32.0362 16.7852 32.4559 16.9237 32.5958 17.0621C32.8756 17.3391 32.8756 17.893 32.8756 18.5854V25.2322H35.8134V18.4469C35.8134 16.9237 35.6735 16.3698 35.2538 15.6774C34.5543 14.985 33.715 14.5696 32.4559 14.5696Z" fill="#002C76"/>
<path fill-rule="evenodd" clip-rule="evenodd" d="M46.3047 19.9701C46.3047 16.6467 48.4031 14.5696 51.6207 14.5696C54.8382 14.5696 56.7968 16.6467 56.7968 19.9701C56.7968 23.2936 54.8382 25.3707 51.6207 25.3707C48.2632 25.3707 46.3047 23.2936 46.3047 19.9701ZM49.3824 19.9701C49.3824 23.1551 50.6414 23.5705 51.6207 23.5705C52.5999 23.5705 53.7191 23.1551 53.859 19.8317C53.859 16.7852 52.5999 16.3698 51.6207 16.3698C50.5015 16.3698 49.3824 16.7852 49.3824 19.9701Z" fill="#002C76"/>
<path fill-rule="evenodd" clip-rule="evenodd" d="M122.268 19.9701C122.268 16.6467 124.366 14.5696 127.584 14.5696C130.941 14.5696 132.9 16.6467 132.9 19.9701C132.9 23.2936 130.801 25.3707 127.584 25.3707C124.226 25.3707 122.268 23.2936 122.268 19.9701ZM125.345 19.9701C125.345 23.1551 126.604 23.5705 127.584 23.5705C128.703 23.5705 129.822 23.1551 129.822 19.8317C129.822 16.7852 128.563 16.3698 127.584 16.3698C126.464 16.3698 125.345 16.7852 125.345 19.9701Z" fill="#002C76"/>
<path d="M139.894 23.2937L137.796 23.5706C137.376 23.5706 137.236 23.4322 137.096 23.2937C137.096 23.1552 136.956 23.1552 136.956 22.3244C136.956 22.1859 136.956 17.2008 136.956 16.6468C137.516 16.6468 139.894 16.6468 139.894 16.6468V14.8467C139.894 14.8467 137.516 14.8467 136.956 14.8467C136.956 14.2928 136.956 12.0771 136.956 12.0771H136.537L134.019 12.3541V22.1859C134.019 23.2937 134.158 23.9861 134.578 24.54C134.998 25.0939 135.697 25.3708 136.677 25.3708C137.656 25.3708 138.635 25.0939 139.754 24.6784L140.034 24.54L139.894 23.2937Z" fill="#002C76"/>
<path fill-rule="evenodd" clip-rule="evenodd" d="M99.4648 19.9701C99.4648 16.6467 101.563 14.5696 104.781 14.5696C107.998 14.5696 109.957 16.6467 109.957 19.9701C109.957 23.2936 107.998 25.3707 104.781 25.3707C101.423 25.3707 99.4648 23.2936 99.4648 19.9701ZM102.543 19.9701C102.543 23.1551 103.802 23.5705 104.781 23.5705C105.9 23.5705 107.019 23.1551 107.019 19.8317C107.019 16.7852 105.76 16.3698 104.781 16.3698C103.662 16.3698 102.543 16.7852 102.543 19.9701Z" fill="#002C76"/>
<path fill-rule="evenodd" clip-rule="evenodd" d="M118.071 15.3221C117.402 14.9675 116.626 14.8467 115.973 14.8467C113.035 14.8467 110.937 17.2008 110.937 20.3857C110.937 23.4322 112.615 25.3708 115.133 25.3708C115.833 25.3708 116.532 25.2324 118.071 24.54V25.3708C118.071 27.171 117.372 27.7249 115.133 27.7249C114.154 27.7249 112.755 27.5864 111.636 27.3095V29.1097C113.874 29.5251 114.714 29.6636 115.833 29.6636C117.232 29.6636 118.491 29.3866 119.33 28.9712C120.589 28.2788 121.009 27.3095 121.009 25.5093V14.9852H118.071V15.3221ZM116.812 23.2937C117.372 23.2937 117.651 23.2937 118.211 23.1552V16.9238C117.651 16.7853 117.372 16.7853 117.092 16.7853C115.273 16.7853 114.154 17.8931 114.154 20.1088C114.154 22.1859 114.993 23.2937 116.812 23.2937Z" fill="#002C76"/>
<path fill-rule="evenodd" clip-rule="evenodd" d="M20.4247 15.1236H23.2225V23.2937H24.3417V24.9554L20.2848 25.3708V24.4015C19.0257 25.2323 18.1863 25.5093 17.4869 25.5093C14.8289 25.5093 13.29 23.5706 13.29 20.5241C13.29 17.2007 15.3885 14.9851 18.1863 14.9851C19.0257 14.9851 19.7252 15.1236 20.4247 15.539V15.1236ZM19.0257 23.4321C19.5853 23.4321 19.8651 23.4321 20.4247 23.2937V16.9238C19.8651 16.7853 19.7252 16.7853 19.3055 16.7853C17.347 16.7853 16.2278 18.0316 16.2278 20.2472C16.2278 22.3243 17.2071 23.4321 19.0257 23.4321H19.0257Z" fill="#002C76"/>
<path fill-rule="evenodd" clip-rule="evenodd" d="M147.868 15.1236H150.666V23.2937H151.785V24.9554L147.728 25.3708V24.4015C146.469 25.2323 145.63 25.5093 144.93 25.5093C142.272 25.5093 140.733 23.5706 140.733 20.5241C140.733 17.2007 142.832 14.9851 145.63 14.9851C146.469 14.9851 147.169 15.1236 147.868 15.539V15.1236ZM146.329 23.4321C146.889 23.4321 147.169 23.4321 147.728 23.2937V16.9238C147.169 16.7853 147.029 16.7853 146.609 16.7853C144.65 16.7853 143.531 18.0316 143.531 20.2472C143.531 22.3243 144.511 23.4321 146.329 23.4321H146.329Z" fill="#002C76"/>
<path d="M149.268 12.4925L148.568 10.2769L148.288 10.4153L143.672 12.2155L144.092 13.4618L149.268 12.4925Z" fill="#002C76"/>
<path fill-rule="evenodd" clip-rule="evenodd" d="M70.6466 10H70.7865C70.7865 10 70.6466 23.2937 70.7865 23.2937H72.0456V24.54L68.1285 25.0939V24.263C67.0094 24.8169 65.0508 25.2323 63.6519 24.8169C61.6934 24.1245 60.5742 22.1859 60.5742 19.8318C60.5742 17.2007 61.8333 15.4006 63.7918 14.7082C65.1907 14.2927 66.8695 14.5697 67.9886 14.9851V11.6617H66.5897V10.4154L70.3668 10H70.6466ZM64.2115 22.6013C65.0508 23.7091 66.5897 23.5706 67.8487 23.1552C67.8487 23.1103 67.8524 22.9159 67.858 22.6217C67.8868 21.1029 67.9659 16.9238 67.8487 16.9238C66.7296 16.3699 65.1907 16.2314 64.3514 17.2007C63.7918 17.8931 63.512 18.5855 63.512 19.6933V19.9703C63.512 20.9396 63.6519 21.9089 64.2115 22.6013Z" fill="#002C76"/>
<path fill-rule="evenodd" clip-rule="evenodd" d="M75.9629 14.8467C76.5225 14.5697 77.0821 14.5697 77.7816 14.5697C77.784 14.5697 77.7878 14.5697 77.7928 14.5696C78.0724 14.5664 82.2606 14.5188 82.3981 19.4164V20.1087V20.2472H81.5587L75.9629 20.1087C75.9629 20.9396 76.1028 22.0474 76.6624 22.7398C77.6987 24.022 79.3348 23.5233 80.682 23.1126C80.7897 23.0798 80.8956 23.0475 80.9991 23.0167L81.9784 22.7398L82.3981 24.263H82.2582C80.4396 25.2324 77.7816 25.7863 75.9629 25.2324C73.8645 24.54 72.6055 22.6013 72.6055 20.1087C72.6055 17.3392 73.8645 15.539 75.9629 14.8467ZM77.6417 16.5084C75.823 16.5084 75.6831 18.5855 75.6831 18.724H79.6002C79.6002 18.5855 79.6002 16.5084 77.6417 16.5084Z" fill="#002C76"/>
<path d="M180.08 0.00590029C169.454 0.19471 160.669 7.75298 160.281 18.1375C159.899 28.5279 167.855 37.2721 178.053 37.6616C183.242 37.8622 188.014 35.862 191.506 32.4752C194.865 29.2123 194.726 23.4714 192.056 26.0734C189.12 28.935 185.014 30.6461 180.538 30.4809C172.002 30.1682 165.342 23.1468 165.661 14.7979C165.956 7.05085 173.496 0.920445 180.242 0.548727L180.416 0C180.306 0.00590029 180.196 0.00590029 180.08 0.00590029Z" fill="url(#paint0_linear_2467_88429)"/>
<path d="M181.569 0.54902C190.135 1.08023 197.185 8.52309 172.258 15.9659C178.608 17.2409 183.299 20.2806 183.299 20.2806C204.64 9.20776 192.501 -0.0353126 180.424 0.000101428L180.251 0.54902C180.696 0.519508 181.136 0.519508 181.569 0.54902Z" fill="#FFCB05"/>
<path d="M171.124 4.46285C173.815 2.17213 177.155 0.724105 180.327 0.54607C180.774 0.522332 181.214 0.522332 181.649 0.552005C185.859 0.813123 189.704 2.74184 189.588 5.53106L191.693 2.99702C188.881 1.09205 184.688 -0.0117743 180.501 9.47471e-05C180.391 9.47471e-05 180.281 9.47471e-05 180.165 9.47471e-05C176.221 0.0713089 172.533 1.15733 169.437 3.03263L171.124 4.46285Z" fill="url(#paint1_linear_2467_88429)"/>
<path d="M190.755 29.4189C190.749 29.3186 190.401 26.86 190.401 26.86C189.537 21.0171 190.743 15.357 199.531 14.8912C186.784 8.6592 178.31 14.6259 172.102 16.0233C177.753 16.7367 189.665 23.234 190.755 29.4189Z" fill="url(#paint2_linear_2467_88429)"/>
<path d="M194.955 16.5933C189.523 18.874 190.079 25.1903 190.601 28.895C190.705 29.1963 191.25 31.5006 189.992 33.9054C188.433 36.6116 185.905 38.6559 181.035 39.9795C193.517 40.5703 207.802 28.3514 194.955 16.5933Z" fill="url(#paint3_linear_2467_88429)"/>
<defs>
<linearGradient id="paint0_linear_2467_88429" x1="179.212" y1="39.0405" x2="194.044" y2="39.0405" gradientUnits="userSpaceOnUse">
<stop stop-color="#ED1C24"/>
<stop offset="1" stop-color="white" stop-opacity="0.01"/>
</linearGradient>
<linearGradient id="paint1_linear_2467_88429" x1="171.734" y1="4.92917" x2="189.167" y2="4.92917" gradientUnits="userSpaceOnUse">
<stop stop-color="#ED1C24"/>
<stop offset="1" stop-color="#FFCB05"/>
</linearGradient>
<linearGradient id="paint2_linear_2467_88429" x1="180.818" y1="11.9681" x2="180.818" y2="18.2784" gradientUnits="userSpaceOnUse">
<stop stop-color="#E39717"/>
<stop offset="0.1236" stop-color="#E8A116"/>
<stop offset="0.4344" stop-color="#F4B710"/>
<stop offset="0.7321" stop-color="#FCC509"/>
<stop offset="1" stop-color="#FFCB05"/>
</linearGradient>
<linearGradient id="paint3_linear_2467_88429" x1="182.766" y1="24.6101" x2="187.855" y2="32.0859" gradientUnits="userSpaceOnUse">
<stop stop-color="#E39717"/>
<stop offset="0.1013" stop-color="#E8A116"/>
<stop offset="0.3561" stop-color="#F4B710"/>
<stop offset="0.6" stop-color="#FCC509"/>
<stop offset="0.8196" stop-color="#FFCB05"/>
<stop offset="1" stop-color="#FFCB05"/>
</linearGradient>
</defs>
</svg>
