<svg width="257" height="123" viewBox="0 0 257 123" fill="none" xmlns="http://www.w3.org/2000/svg">
<rect x="1" y="19.228" width="157.904" height="91.7541" fill="white" stroke="#C4D4E3" stroke-width="0.5" stroke-linecap="round" stroke-linejoin="round"/>
<path d="M119.247 103.718H140.747C143.817 103.718 146.761 102.496 148.932 100.321C151.102 98.1463 152.322 95.1965 152.322 92.1208V30.2791C152.322 25.6545 148.581 23.3333 143.978 23.3333V23.3333C139.362 23.3333 135.624 25.6562 135.624 30.2791V88.0494H113.676" stroke="#002256" stroke-width="0.533793" stroke-linejoin="bevel"/>
<path d="M66.8393 106.987H33.5829C19.6771 106.987 9.13553 94.4173 11.5322 80.6911L19.6984 33.9505C19.6984 33.9505 9.51189 31.8712 9.70184 24.5643L46.7378 23.6608L36.9151 75.2768L60.7181 74.8712L59.6156 43.0948C59.1842 30.6973 70.5567 21.2328 82.6428 23.9311L118.811 32.0082C118.811 32.0082 122.734 21.4996 128.324 22.156L125.475 56.4742L86.8946 48.4398L89.7777 81.9344C90.3322 88.3735 88.1655 94.7503 83.8049 99.5128C79.4443 104.275 73.2898 106.987 66.8393 106.987Z" fill="#C6D3E0"/>
<path d="M120.541 106.987H92.9016C88.2681 106.987 85.3851 101.948 87.7249 97.9409L101.544 74.2842C103.852 70.3177 109.582 70.3177 111.899 74.2842L125.718 97.9409C128.057 101.948 125.174 106.987 120.541 106.987Z" fill="#6B80A8"/>
<path d="M97.5886 89.1453L15.7908 89.6451C15.7908 89.6451 5.71429 89.8052 6.11018 91.4825C6.58063 93.4853 17.0033 93.0459 17.0033 93.0459C17.0033 93.0459 3.15611 92.9766 3.54312 95.2195C3.83072 96.9128 16.2097 96.566 16.2097 96.566C16.2097 96.566 4.93494 96.5482 5.2829 98.4781C5.68233 100.698 17.4507 99.99 17.4507 99.99C17.4507 99.99 12.1728 100.307 12.3769 102.16C12.5544 103.859 19.123 103.716 19.123 103.716L97.8744 103.594" stroke="#002256" stroke-width="0.533793" stroke-linejoin="bevel"/>
<path d="M108.857 83.9959L118.989 69.9069C118.989 69.9069 115.58 65.1151 118.144 62.214C120.707 59.313 123.335 62.5698 123.335 62.5698C123.335 62.5698 127.324 58.8345 132.428 61.0401C137.532 63.2457 137.289 70.3089 134.897 74.0424C131.366 79.5563 127.127 80.8014 122.019 76.4881L115.323 86.2229" fill="#C6D3E0"/>
<path d="M121.152 61.1059C121.152 61.1059 122.361 55.1277 130.096 56.138C137.831 57.1483 138.112 60.1222 141.321 59.6793C144.531 59.2364 144.259 68.7027 135.857 67.1659C127.455 65.6291 127.89 65.2093 127.89 65.2093C127.89 65.2093 126.608 68.8272 124.598 67.9129C122.589 66.9987 123.121 62.9931 123.121 62.9931" fill="#6B80A8"/>
<path d="M74.2524 74.3731H60.5312" stroke="white" stroke-width="1.06759"/>
<path d="M137.09 29.3169C137.09 29.3169 142.881 29.6815 142.808 31.7253C142.736 33.769 136.686 34.0963 136.686 34.0963" stroke="#002256" stroke-width="0.533793" stroke-linejoin="bevel"/>
<path d="M151.876 29.3169C151.876 29.3169 152.242 35.4107 150.493 35.4463C148.744 35.4818 147.763 29.3169 147.763 29.3169C147.763 29.3169 148.418 36.4672 145.904 36.5402C143.39 36.6131 143.028 28.769 143.028 28.769C143.028 28.769 142.7 36.7963 140.734 36.7234C138.769 36.6504 138.336 33.9255 138.336 33.9255" stroke="#002256" stroke-width="0.533793" stroke-linejoin="bevel"/>
<path d="M256.441 111.05H230.568C230.568 100.25 221.829 91.4954 211.05 91.4954C200.271 91.4954 191.533 100.25 191.533 111.05H165.676C165.676 85.9387 185.992 65.5815 211.056 65.5815C236.119 65.5815 256.441 85.9387 256.441 111.05Z" fill="#6B80A8"/>
<path d="M205.08 59L204.026 67.3422C203.947 67.9303 204.026 68.7276 204.593 68.8373C204.938 68.8538 205.274 68.715 205.507 68.4585L208.717 65.8372L207.982 72.1064C207.902 72.7742 207.982 73.6313 208.558 73.8805C208.961 73.9701 209.383 73.8948 209.731 73.6712C213.689 71.7464 217.389 69.3286 220.743 66.4751" stroke="white" stroke-width="0.5" stroke-linecap="round" stroke-linejoin="round"/>
<path d="M242.417 114.272L239.158 106.521C238.933 105.972 238.465 105.321 237.92 105.509C237.612 105.668 237.391 105.956 237.317 106.295L235.848 110.17L233.35 104.373C233.085 103.755 232.588 103.052 231.964 103.125C231.57 103.249 231.242 103.525 231.053 103.892C228.588 107.538 226.592 111.482 225.114 115.63" stroke="white" stroke-width="0.5" stroke-linecap="round" stroke-linejoin="round"/>
<ellipse cx="60.9056" cy="3.91313" rx="3.90562" ry="3.91313" fill="#C6D3E0"/>
<path fill-rule="evenodd" clip-rule="evenodd" d="M211.879 47.5449C207.307 43.3642 205.308 37.0573 206.636 31L240.48 38.4474C239.152 44.5047 234.7 49.3921 228.8 51.2686C222.901 53.1451 216.45 51.7257 211.879 47.5449ZM239.837 38.8513L207.051 31.6387C205.398 40.5646 211.11 49.1953 219.96 51.1423C228.811 53.0892 237.606 47.6503 239.837 38.8513Z" fill="#170C2C"/>
<path d="M136.143 32.9795C130.983 36.1655 126.321 40.0983 122.308 44.6506C117.647 49.953 113.82 56.3218 113.105 63.3484C112.389 70.375 115.361 78.1093 121.553 81.5279C128.341 85.2356 137.097 82.8934 143.179 78.0993C149.262 73.3053 153.347 66.5079 157.69 60.0893C164.299 50.3517 171.952 41.0725 181.722 34.5343C191.492 27.996 203.667 24.3781 215.176 26.7103C221.717 28.0358 227.886 31.5571 232.368 36.4799" stroke="#E7ECF3" stroke-width="0.5"/>
<path d="M160.796 67.2716C160.361 64.3904 162.342 61.6965 165.222 61.2591L245.799 49.0271C248.682 48.5894 251.375 50.5776 251.811 53.4611C252.247 56.3423 250.266 59.0363 247.385 59.4736L166.808 71.7057C163.925 72.1434 161.232 70.1552 160.796 67.2716Z" fill="#C6D3E0"/>
<path d="M165 103.422C167.454 101.508 170.325 100.204 173.378 99.6147C174.74 99.2564 176.18 99.3508 177.483 99.8838C178.803 100.487 179.452 101.995 178.984 103.372" stroke="white" stroke-width="0.5" stroke-linecap="round" stroke-linejoin="round"/>
<path d="M175.684 106.213C178.043 104.632 180.739 103.628 183.555 103.282C181.885 104.324 180.844 106.135 180.782 108.106" stroke="white" stroke-width="0.5" stroke-linecap="round" stroke-linejoin="round"/>
<path d="M183.286 106.492C184.141 105.798 185.382 105.871 186.149 106.661C186.868 107.477 187.153 108.589 186.914 109.651C186.666 110.681 186.228 111.654 185.622 112.522C183.804 115.464 181.597 118.146 179.062 120.495" stroke="white" stroke-width="0.5" stroke-linecap="round" stroke-linejoin="round"/>
<path d="M172.604 115.482C174.297 113.405 176.646 111.967 179.262 111.406C179.72 111.246 180.227 111.316 180.624 111.595C180.919 112.006 180.986 112.538 180.803 113.01C180.218 115.483 178.817 117.685 176.827 119.259" stroke="white" stroke-width="0.5" stroke-linecap="round" stroke-linejoin="round"/>
<path d="M166.233 106.332C167.757 104.637 169.811 103.512 172.057 103.143C172.511 103.033 172.988 103.071 173.419 103.253C174.002 103.632 174.281 104.34 174.114 105.017C173.94 105.671 173.621 106.278 173.18 106.791C170.948 109.614 168.545 112.297 165.984 114.824" stroke="white" stroke-width="0.5" stroke-linecap="round" stroke-linejoin="round"/>
<ellipse cx="176.181" cy="96.3854" rx="0.993878" ry="0.996684" fill="white"/>
<ellipse cx="233.994" cy="102.997" rx="0.993878" ry="0.996684" fill="white"/>
<ellipse cx="222.994" cy="78.9967" rx="0.993878" ry="0.996684" fill="white"/>
<ellipse cx="191.587" cy="103.861" rx="1.49082" ry="2.49171" fill="white"/>
<ellipse cx="193.491" cy="84.4916" rx="1.49082" ry="2.49171" transform="rotate(-60 193.491 84.4916)" fill="white"/>
<ellipse cx="230.491" cy="89.4916" rx="1.49082" ry="2.49171" transform="rotate(-60 230.491 89.4916)" fill="white"/>
<ellipse cx="248.491" cy="105.492" rx="1.49082" ry="2.49171" transform="rotate(-60 248.491 105.492)" fill="white"/>
</svg>
