<svg width="168" height="17" viewBox="0 0 168 17" fill="none" xmlns="http://www.w3.org/2000/svg">
<path fill-rule="evenodd" clip-rule="evenodd" d="M5.09994 11.2951L3.21753 6.0708H3.92111L5.18066 9.85531C5.28383 10.1792 5.387 10.4669 5.45626 10.7116C5.52218 10.4419 5.61341 10.1624 5.7056 9.85531L7.0282 6.0708H7.69165L5.7696 11.2951H5.09994ZM11.4822 6.0708V11.2951H12.1447V6.0708H11.4822ZM18.6522 9.22998V8.63167L20.7305 8.63167V10.5645C20.4028 10.8471 20.089 11.0428 19.7623 11.1777C19.4141 11.3126 19.0702 11.3621 18.7148 11.3621C18.2357 11.3621 17.7934 11.2753 17.4175 11.0622C17.0043 10.8471 16.7125 10.5298 16.5176 10.1006C16.3122 9.69697 16.2205 9.21976 16.2205 8.69247C16.2205 8.18971 16.3122 7.71914 16.5176 7.27207C16.7125 6.83164 16.9972 6.52457 17.3826 6.3064C17.7476 6.08976 18.1827 5.98706 18.6522 5.98706C19.0124 5.98706 19.3391 6.01669 19.6133 6.15874C19.9003 6.28136 20.1344 6.46376 20.2949 6.67172C20.4558 6.89193 20.5709 7.17448 20.6665 7.52702L20.077 7.69921C20.0083 7.43199 19.9166 7.2363 19.8091 7.07689C19.6873 6.93383 19.5335 6.79434 19.3391 6.7085C19.139 6.60989 18.9044 6.56902 18.6522 6.56902C18.3709 6.56902 18.1139 6.60989 17.8966 6.72128C17.6893 6.8066 17.5021 6.95375 17.3826 7.08915C17.2499 7.2598 17.1467 7.43199 17.0841 7.60162C16.9475 7.93986 16.8897 8.29241 16.8897 8.65619C16.8897 9.12217 16.9475 9.51968 17.107 9.85536C17.2613 10.1425 17.4624 10.3924 17.759 10.5349C18.0451 10.6821 18.3551 10.7602 18.6804 10.7602C18.9512 10.7602 19.2197 10.702 19.4991 10.5896C19.7742 10.467 19.9514 10.3469 20.1062 10.2243V9.22998H18.6522ZM24.9018 6.0708V11.2951H25.5591V6.0708H24.9018ZM29.7679 11.2951V6.0708H30.43V10.6626H32.8215V11.2951H29.7679ZM36.1653 11.2951L38.041 6.0708L38.7403 6.0708L40.7426 11.2951H39.9993L39.4262 9.71532L37.3899 9.71532L36.8464 11.2951H36.1653ZM37.5669 9.14673L39.2339 9.14673L38.7185 7.69924C38.5647 7.25984 38.4386 6.89196 38.3746 6.60992C38.324 6.95379 38.2256 7.2721 38.1066 7.60165L37.5669 9.14673ZM44.355 11.2951V6.0708L46.0611 6.0708C46.4213 6.0708 46.7084 6.08971 46.9142 6.13927C47.1898 6.20824 47.4353 6.33598 47.6345 6.52451C47.8939 6.75188 48.0768 7.0518 48.2072 7.41201C48.3453 7.77222 48.4073 8.18966 48.4073 8.65614C48.4073 9.06489 48.3567 9.41437 48.2583 9.71532C48.1843 10.0198 48.0768 10.26 47.9431 10.4669C47.7955 10.6626 47.6527 10.8225 47.5036 10.9446C47.3384 11.0621 47.1368 11.1526 46.9142 11.2221C46.6854 11.2752 46.4213 11.2951 46.1146 11.2951H44.355ZM45.0131 10.6626H46.0605C46.3696 10.6626 46.6103 10.6376 46.8224 10.5896C47.0048 10.5298 47.1362 10.4174 47.2461 10.3147C47.3956 10.1425 47.526 9.93658 47.5943 9.64228C47.6974 9.36484 47.7323 9.03426 47.7323 8.64442C47.7323 8.09925 47.6521 7.68181 47.4753 7.39467C47.3086 7.08913 47.12 6.89191 46.8792 6.79432C46.6963 6.72125 46.4207 6.67169 46.0328 6.67169L45.0131 6.67169V10.6626ZM52.2084 8.74203C52.2084 7.88417 52.431 7.199 52.86 6.7085C53.2999 6.21749 53.8625 5.98706 54.5365 5.98706C54.995 5.98706 55.3848 6.08976 55.7679 6.3064C56.1166 6.55676 56.4022 6.87967 56.5866 7.28433C56.7857 7.69921 56.8779 8.17745 56.8779 8.68021C56.8779 9.21976 56.7705 9.69697 56.5751 10.1129C56.3688 10.5298 56.0998 10.8471 55.7335 11.0622C55.3499 11.2753 54.9836 11.3621 54.5365 11.3621C54.0732 11.3621 53.6715 11.2753 53.3118 11.0428C52.9335 10.7975 52.6646 10.467 52.4769 10.0521C52.293 9.63464 52.2084 9.20494 52.2084 8.74203ZM52.8649 8.74205C52.8649 9.41444 53.0249 9.89217 53.3468 10.2524C53.6554 10.6141 54.0618 10.7975 54.5366 10.7975C55.0295 10.7975 55.4198 10.6141 55.7451 10.2524C56.0541 9.8799 56.2194 9.36488 56.2194 8.68022C56.2194 8.25921 56.1515 7.88418 56.002 7.57711C55.8826 7.25982 55.6696 7.00742 55.4126 6.83165C55.1719 6.64669 54.8643 6.56903 54.5595 6.56903C54.0805 6.56903 53.7017 6.75195 53.3578 7.0769C53.0363 7.41208 52.8649 7.96951 52.8649 8.74205Z" fill="#1D1D1B"/>
<mask id="mask0_2398_85195" style="mask-type:alpha" maskUnits="userSpaceOnUse" x="63" y="2" width="105" height="13">
<path fill-rule="evenodd" clip-rule="evenodd" d="M168 2.42334V14.74L63.6762 14.74V2.42334L168 2.42334Z" fill="white"/>
</mask>
<g mask="url(#mask0_2398_85195)">
<path fill-rule="evenodd" clip-rule="evenodd" d="M94.252 14.6557V9.82428L95.7905 9.82428C96.1549 9.82428 96.4215 9.85494 96.6092 9.89734C96.8614 9.97041 97.0949 10.0767 97.2607 10.2524C97.5014 10.467 97.6786 10.7246 97.799 11.0751C97.9246 11.4102 97.9877 11.7904 97.9877 12.218C97.9877 12.5854 97.9413 12.9175 97.8616 13.1924C97.7842 13.4857 97.6786 13.7248 97.5411 13.9031C97.4169 14.0921 97.2879 14.2275 97.1413 14.3425C96.9918 14.46 96.816 14.5331 96.6092 14.5826C96.3751 14.6557 96.1387 14.6557 95.8746 14.6557H94.252ZM94.8458 14.0921H95.8021C96.1044 14.0921 96.3394 14.0624 96.5176 13.9935C96.6714 13.9449 96.8161 13.8581 96.9078 13.7482C97.0616 13.596 97.1529 13.4054 97.2446 13.1377C97.3243 12.8924 97.3568 12.5853 97.3568 12.1929C97.3568 11.6973 97.2723 11.3126 97.1294 11.0428C96.9809 10.7725 96.7865 10.5896 96.5567 10.4905C96.3982 10.4322 96.1388 10.3995 95.7906 10.3995L94.8458 10.3995V14.0921ZM98.8172 14.6557V9.82428H102.089V10.3996H99.4061V11.8823H101.924V12.4505H99.4061V14.0921H102.188V14.6557H98.8172ZM107.992 12.9583L108.593 13.1377C108.483 13.6578 108.244 14.0431 107.935 14.3425C107.58 14.6128 107.204 14.74 106.716 14.74C106.241 14.74 105.85 14.6557 105.537 14.4355C105.234 14.2275 104.993 13.9204 104.832 13.503C104.684 13.1055 104.603 12.6722 104.603 12.193C104.603 11.7178 104.691 11.2753 104.878 10.9028C105.039 10.5299 105.292 10.2356 105.64 10.0399C105.961 9.85491 106.32 9.74506 106.749 9.74506C107.174 9.74506 107.561 9.86768 107.882 10.1124C108.181 10.3679 108.405 10.7117 108.52 11.1527L107.943 11.3126C107.832 10.9447 107.671 10.6821 107.483 10.5549C107.272 10.3679 107.025 10.2897 106.716 10.2897C106.367 10.2897 106.075 10.3924 105.85 10.5646C105.622 10.7245 105.456 10.982 105.365 11.2804C105.268 11.5824 105.234 11.8895 105.234 12.193C105.234 12.6227 105.28 12.9778 105.388 13.2823C105.498 13.596 105.68 13.8351 105.914 13.9884C106.149 14.1355 106.405 14.1902 106.671 14.1902C107.006 14.1902 107.295 14.1049 107.529 13.9031C107.763 13.6874 107.935 13.3702 107.992 12.9583ZM109.16 12.3105C109.16 11.5093 109.359 10.8717 109.773 10.4174C110.166 9.97753 110.682 9.74506 111.318 9.74506C111.735 9.74506 112.118 9.85491 112.445 10.0644C112.783 10.2723 113.033 10.5646 113.212 10.9698C113.396 11.3371 113.476 11.7719 113.476 12.2619C113.476 12.7453 113.396 13.1923 113.207 13.5674C113.006 13.9526 112.753 14.251 112.416 14.46C112.09 14.6557 111.708 14.74 111.318 14.74C110.893 14.74 110.51 14.6557 110.166 14.4109C109.829 14.1902 109.584 13.9031 109.411 13.5275C109.24 13.1377 109.16 12.733 109.16 12.3105ZM109.777 12.3156C109.777 12.9047 109.897 13.3559 110.189 13.6997C110.506 14.018 110.876 14.1902 111.317 14.1902C111.757 14.1902 112.136 14.018 112.423 13.6875C112.714 13.3559 112.851 12.8674 112.851 12.2502C112.851 11.8747 112.799 11.5216 112.675 11.2222C112.542 10.9197 112.37 10.7021 112.136 10.5549C111.9 10.3679 111.631 10.2897 111.317 10.2897C110.899 10.2897 110.544 10.467 110.24 10.7603C109.92 11.075 109.777 11.5947 109.777 12.3156ZM114.23 14.6557V9.82428H114.822V14.0921H117.05V14.6557H114.23ZM117.585 12.3105C117.585 11.5093 117.789 10.8717 118.193 10.4174C118.588 9.97753 119.105 9.74506 119.743 9.74506C120.161 9.74506 120.55 9.85491 120.865 10.0644C121.202 10.2723 121.465 10.5646 121.653 10.9698C121.821 11.3371 121.912 11.7719 121.912 12.2619C121.912 12.7453 121.821 13.1923 121.62 13.5674C121.459 13.9526 121.167 14.251 120.853 14.46C120.491 14.6557 120.126 14.74 119.743 14.74C119.308 14.74 118.936 14.6557 118.604 14.4109C118.271 14.1902 118.01 13.9031 117.836 13.5275C117.658 13.1377 117.585 12.733 117.585 12.3105ZM118.193 12.3156C118.193 12.9047 118.345 13.3559 118.649 13.6997C118.936 14.018 119.308 14.1902 119.743 14.1902C120.189 14.1902 120.559 14.018 120.853 13.6875C121.138 13.3559 121.293 12.8674 121.293 12.2502C121.293 11.8747 121.229 11.5216 121.122 11.2222C120.984 10.9197 120.802 10.7021 120.559 10.5549C120.314 10.3679 120.042 10.2897 119.743 10.2897C119.326 10.2897 118.948 10.467 118.649 10.7603C118.345 11.075 118.193 11.5947 118.193 12.3156ZM122.655 14.6557V9.82428H123.555L124.623 13.2578L124.843 13.9884C124.875 13.7927 124.985 13.5429 125.07 13.1924L126.159 9.82428H126.97V14.6557H126.386V10.6142L125.07 14.6557H124.549L123.228 10.5549V14.6557H122.655ZM127.91 14.6557V9.82428H129.622C129.957 9.82428 130.231 9.87997 130.445 9.97756C130.649 10.0767 130.817 10.2243 130.92 10.4323C131.04 10.6326 131.115 10.8472 131.115 11.0751C131.115 11.2753 131.04 11.4726 130.944 11.6555C130.84 11.8399 130.687 11.9728 130.479 12.1025C130.759 12.1879 130.944 12.3156 131.115 12.5251C131.25 12.733 131.326 12.9952 131.326 13.2578C131.326 13.4933 131.287 13.6997 131.204 13.9031C131.115 14.0921 130.993 14.251 130.862 14.3425C130.731 14.46 130.565 14.5331 130.36 14.5826C130.154 14.6557 129.918 14.6557 129.628 14.6557H127.91ZM128.493 11.8746H129.489C129.757 11.8746 129.947 11.8399 130.071 11.8153C130.209 11.7719 130.324 11.6927 130.415 11.5502C130.479 11.4475 130.506 11.3126 130.506 11.1527C130.506 10.982 130.483 10.8471 130.415 10.7117C130.342 10.5896 130.231 10.5053 130.095 10.467C129.971 10.4174 129.737 10.3995 129.415 10.3995H128.493V11.8746ZM128.493 14.0921H129.627C129.818 14.0921 129.97 14.0921 130.043 14.0804C130.181 14.0431 130.296 13.9935 130.387 13.9327C130.483 13.8709 130.564 13.7728 130.625 13.6875C130.672 13.5429 130.695 13.4249 130.695 13.2578C130.695 13.0881 130.667 12.9298 130.564 12.7872C130.483 12.66 130.369 12.566 130.223 12.5123C130.078 12.475 129.837 12.4382 129.552 12.4382H128.493V14.0921ZM132.255 9.82428V14.6557H132.849V9.82428L132.255 9.82428ZM133.41 14.6557L135.144 9.82428H135.795L137.634 14.6557L136.965 14.6557L136.433 13.1924H134.548L134.044 14.6557H133.41ZM134.719 12.6844H136.243L135.78 11.3371C135.63 10.9196 135.52 10.6044 135.451 10.3218C135.397 10.6376 135.32 10.9697 135.222 11.2752L134.719 12.6844ZM63.6764 5.77866L64.2438 5.74188C64.2772 5.98713 64.335 6.19355 64.431 6.3361C64.5342 6.48733 64.6904 6.60945 64.8891 6.70857C65.0782 6.79441 65.319 6.85623 65.5831 6.85623C65.8009 6.85623 66.0111 6.80667 66.1907 6.752C66.3736 6.67178 66.4859 6.56908 66.5771 6.46383C66.6535 6.30646 66.7104 6.19354 66.7104 6.01676C66.7104 5.89414 66.6812 5.74188 66.5771 5.61874C66.5088 5.53341 66.3736 5.4113 66.1721 5.34897C66.0531 5.30094 65.7775 5.22634 65.3644 5.12875C64.9426 5.02605 64.6718 4.90343 64.5118 4.81657C64.2772 4.69394 64.1058 4.54679 64.0141 4.37103C63.8999 4.19885 63.865 3.97863 63.865 3.74565C63.865 3.51164 63.929 3.30368 64.048 3.09062C64.1812 2.85661 64.3627 2.71049 64.6102 2.58326C64.8628 2.48414 65.1418 2.42334 65.468 2.42334C65.7775 2.42334 66.076 2.48414 66.3273 2.60626C66.5838 2.71815 66.7844 2.88165 66.922 3.1269C67.0633 3.34303 67.1283 3.58572 67.1398 3.86827L66.5508 3.9163C66.5389 3.62302 66.4176 3.36806 66.259 3.23062C66.076 3.07325 65.8234 2.98026 65.4799 2.98026C65.0969 2.98026 64.8447 3.06099 64.6904 3.20558C64.5118 3.34303 64.431 3.51164 64.431 3.72112C64.431 3.89177 64.496 4.03892 64.6102 4.13856C64.7133 4.24841 65.0319 4.37103 65.5086 4.48599C65.9882 4.61373 66.3211 4.70672 66.5088 4.7992C66.7729 4.93204 66.9626 5.10423 67.1001 5.30094C67.1961 5.48436 67.2821 5.72961 67.2821 5.98713C67.2821 6.22471 67.1961 6.48733 67.0633 6.70857C66.9392 6.93389 66.7338 7.10148 66.4859 7.24863C66.2241 7.37125 65.9313 7.43206 65.6003 7.43206C65.1929 7.43206 64.8447 7.37125 64.5758 7.23637C64.3116 7.10148 64.09 6.90937 63.929 6.64675C63.7733 6.41427 63.6878 6.11946 63.6764 5.77866ZM71.0721 2.51373H71.661V5.30089C71.661 5.77862 71.6156 6.16387 71.501 6.46379C71.4088 6.75196 71.2259 6.97881 70.9383 7.1745C70.6761 7.33391 70.3265 7.43201 69.898 7.43201C69.4696 7.43201 69.1252 7.34618 68.862 7.18676C68.5821 7.05188 68.3977 6.80663 68.2716 6.52408C68.157 6.217 68.1073 5.81592 68.1073 5.30089V2.51373H68.7077V5.30089C68.7077 5.72957 68.7431 6.01672 68.8109 6.217C68.884 6.41423 69.0101 6.58641 69.1758 6.67174C69.3654 6.79436 69.5842 6.85619 69.8417 6.85619C70.2811 6.85619 70.6064 6.75196 70.7745 6.53685C70.9689 6.30642 71.0721 5.90125 71.0721 5.30089V2.51373ZM72.6679 7.34618V2.51373L74.3745 2.51373C74.6659 2.51373 74.8885 2.53826 75.048 2.55308C75.2668 2.58782 75.4612 2.66855 75.6221 2.7784C75.753 2.88876 75.8743 3.04868 75.9636 3.2689C76.062 3.45079 76.0964 3.65925 76.0964 3.91166C76.0964 4.31376 75.9751 4.68675 75.7415 4.95703C75.5123 5.23907 75.0552 5.38622 74.4204 5.38622H73.2387V7.34618H72.6679ZM73.2382 4.81652H74.4199C74.8183 4.81652 75.0824 4.7363 75.2434 4.57894C75.4144 4.43179 75.4841 4.21106 75.4841 3.93669C75.4841 3.72107 75.4373 3.57392 75.3509 3.40889C75.2434 3.26889 75.1288 3.15649 74.9678 3.12685C74.8766 3.09058 74.6817 3.09058 74.4199 3.09058H73.2382V4.81652ZM76.892 7.34618V2.51373L80.1649 2.51373V3.09058L77.4819 3.09058V4.55391L80.0006 4.55391V5.14097L77.4819 5.14097V6.79436L80.2561 6.79436V7.34618L76.892 7.34618ZM81.1049 7.34618V2.51373L83.1144 2.51373C83.4975 2.51373 83.818 2.55308 84.0171 2.64351C84.2359 2.71811 84.3887 2.8765 84.5268 3.09058C84.6596 3.31846 84.7102 3.57393 84.7102 3.83093C84.7102 4.18143 84.618 4.48135 84.3887 4.6939C84.1781 4.932 83.8758 5.0863 83.4392 5.15375C83.5892 5.2263 83.7196 5.3009 83.7946 5.38622C83.9789 5.55841 84.1361 5.77862 84.297 6.01672L85.0775 7.34618H84.3276L83.7196 6.33605C83.5586 6.04635 83.3976 5.81592 83.2854 5.66877C83.187 5.53337 83.0728 5.40359 83.0041 5.34892C82.9128 5.28352 82.8087 5.25133 82.7242 5.2263C82.6396 5.18951 82.5412 5.18951 82.3874 5.18951H81.7001V7.34618H81.1049ZM81.7 4.65311L82.981 4.65311C83.2633 4.65311 83.4744 4.61377 83.6235 4.55399C83.7763 4.48603 83.8976 4.40071 83.9788 4.26582C84.0471 4.12582 84.0978 3.97867 84.0978 3.83101C84.0978 3.62306 84.0171 3.40898 83.869 3.26898C83.7195 3.12694 83.4625 3.04877 83.1305 3.04877L81.7 3.04877V4.65311ZM85.7392 2.51373V7.34618H86.3516V2.51373L85.7392 2.51373ZM87.3951 7.34618V2.51373L88.0123 2.51373L90.3771 6.30642V2.51373H90.9589V7.34618H90.3417L87.9783 3.54889V7.34618H87.3951ZM93.1116 7.34618V3.09058L91.6275 3.09058V2.51373L95.2008 2.51373V3.09058L93.7196 3.09058V7.34618H93.1116ZM95.8364 7.34618V2.51373L99.104 2.51373V3.09058L96.4306 3.09058V4.55391L98.9249 4.55391V5.14097L96.4306 5.14097V6.79436L99.2072 6.79436V7.34618L95.8364 7.34618ZM100.035 7.34618V2.51373H100.667L103.012 6.30642V2.51373H103.586V7.34618H102.98L100.609 3.54889V7.34618H100.035ZM104.603 7.34618V2.51373L106.15 2.51373C106.515 2.51373 106.768 2.53826 106.968 2.58322C107.232 2.64351 107.438 2.74876 107.637 2.9138C107.867 3.13861 108.044 3.40889 108.163 3.7456C108.272 4.08844 108.346 4.48135 108.346 4.90339C108.346 5.2636 108.284 5.59417 108.226 5.89409C108.13 6.15876 108.044 6.41423 107.906 6.58641C107.791 6.79436 107.644 6.90422 107.488 7.02684C107.364 7.12494 107.174 7.19903 106.952 7.25983C106.749 7.32165 106.515 7.34618 106.222 7.34618L104.603 7.34618ZM105.199 6.79436L106.153 6.79436C106.459 6.79436 106.7 6.75195 106.86 6.67173C107.025 6.62984 107.174 6.53685 107.266 6.45101C107.403 6.28138 107.529 6.0862 107.585 5.81591C107.684 5.56964 107.714 5.26359 107.714 4.90338C107.714 4.38325 107.644 4.00311 107.483 3.72107C107.335 3.47071 107.158 3.26889 106.929 3.1759C106.756 3.12685 106.493 3.09058 106.15 3.09058H105.199V6.79436ZM109.182 7.34618V2.51373L112.445 2.51373V3.09058L109.777 3.09058V4.55391L112.267 4.55391V5.14097L109.777 5.14097V6.79436L112.542 6.79436V7.34618L109.182 7.34618ZM113.373 7.34618V2.51373H113.978L116.358 6.30642V2.51373L116.926 2.51373V7.34618H116.313L113.955 3.54889V7.34618H113.373ZM121.156 5.63151L121.767 5.81596C121.653 6.3361 121.403 6.752 121.082 7.01462C120.75 7.2844 120.343 7.43206 119.881 7.43206C119.411 7.43206 119.009 7.32169 118.711 7.10148C118.373 6.892 118.151 6.58646 117.992 6.19355C117.842 5.77866 117.767 5.34897 117.767 4.90343C117.767 4.38329 117.842 3.94644 118.048 3.58572C118.202 3.20558 118.473 2.91384 118.794 2.71815C119.128 2.5383 119.509 2.42334 119.896 2.42334C120.343 2.42334 120.734 2.5383 121.036 2.78355C121.358 3.04873 121.568 3.39157 121.692 3.84323L121.122 3.97863C120.984 3.62915 120.853 3.36806 120.652 3.22091C120.429 3.04873 120.188 2.968 119.881 2.968C119.537 2.968 119.238 3.06099 119.014 3.24442C118.786 3.4258 118.614 3.6593 118.511 3.94644C118.427 4.24841 118.373 4.57898 118.373 4.90343C118.373 5.30094 118.427 5.65604 118.541 5.96209C118.661 6.28143 118.833 6.4996 119.083 6.64675C119.307 6.79441 119.564 6.87973 119.839 6.87973C120.188 6.87973 120.444 6.79441 120.696 6.56908C120.921 6.37186 121.082 6.05406 121.156 5.63151ZM122.591 2.51373V7.34618H123.192V2.51373H122.591ZM123.754 7.34618L125.499 2.51373H126.145L128.001 7.34618H127.301L126.783 5.89409L124.875 5.89409L124.393 7.34618H123.754ZM125.069 5.36168H126.603L126.122 4.01945C125.985 3.62296 125.869 3.26888 125.796 3.01648C125.739 3.31844 125.665 3.62909 125.551 3.94638L125.069 5.36168ZM130.254 7.34618V2.51373L133.299 2.51373V3.09058L130.84 3.09058V4.57894L132.969 4.57894V5.15375L130.84 5.15375V7.34618H130.254ZM134.181 2.51373V7.34618H134.777V2.51373H134.181ZM135.841 7.34618V2.51373H136.432L138.818 6.30642V2.51373H139.4V7.34618L138.79 7.34618L136.403 3.54889V7.34618L135.841 7.34618ZM139.9 7.34618L141.651 2.51373L142.284 2.51373L144.133 7.34618H143.458L142.908 5.89409H141.027L140.527 7.34618H139.9ZM141.211 5.36168H142.743L142.275 4.01945C142.124 3.62296 142.004 3.26888 141.954 3.01648C141.867 3.31844 141.812 3.62909 141.707 3.94638L141.211 5.36168ZM144.598 7.34618V2.51373H145.222L147.586 6.30642V2.51373H148.164V7.34618H147.544L145.183 3.54889V7.34618H144.598ZM152.415 5.63151L152.998 5.81596C152.856 6.3361 152.649 6.752 152.324 7.01462C151.987 7.2844 151.604 7.43206 151.127 7.43206C150.636 7.43206 150.242 7.32169 149.933 7.10148C149.627 6.892 149.393 6.58646 149.246 6.19355C149.086 5.77866 149.003 5.34897 149.003 4.90343C149.003 4.38329 149.086 3.94644 149.262 3.58572C149.451 3.20558 149.696 2.91384 150.031 2.71815C150.373 2.5383 150.732 2.42334 151.145 2.42334C151.59 2.42334 151.957 2.5383 152.282 2.78355C152.588 3.04873 152.794 3.39157 152.925 3.84323L152.329 3.97863C152.209 3.62915 152.079 3.36806 151.88 3.22091C151.677 3.04873 151.436 2.968 151.127 2.968C150.774 2.968 150.475 3.06099 150.251 3.24442C150.017 3.4258 149.851 3.6593 149.76 3.94644C149.664 4.24841 149.599 4.57898 149.599 4.90343C149.599 5.30094 149.664 5.65604 149.778 5.96209C149.902 6.28143 150.081 6.4996 150.316 6.64675C150.54 6.79441 150.797 6.87973 151.081 6.87973C151.42 6.87973 151.688 6.79441 151.929 6.56908C152.181 6.37186 152.324 6.05406 152.415 5.63151ZM153.835 2.51373V7.34618H154.435V2.51373H153.835ZM155.5 7.34618V2.51373L158.769 2.51373V3.09058L156.09 3.09058V4.55391L158.599 4.55391V5.14097L156.09 5.14097V6.79436L158.883 6.79436V7.34618L155.5 7.34618ZM159.713 7.34618V2.51373L161.71 2.51373C162.123 2.51373 162.419 2.55308 162.639 2.64351C162.854 2.71811 163.02 2.8765 163.142 3.09058C163.263 3.31846 163.325 3.57393 163.325 3.83093C163.325 4.18143 163.221 4.48135 163.02 4.6939C162.815 4.932 162.494 5.0863 162.047 5.15375C162.207 5.2263 162.341 5.3009 162.41 5.38622C162.579 5.55841 162.758 5.77862 162.896 6.01672L163.689 7.34618H162.937L162.356 6.33605C162.18 6.04635 162.02 5.81592 161.905 5.66877C161.795 5.53337 161.703 5.40359 161.625 5.34892C161.529 5.28352 161.431 5.25133 161.345 5.2263C161.277 5.18951 161.162 5.18951 161.006 5.18951H160.309V7.34618H159.713ZM160.309 4.65311H161.59C161.871 4.65311 162.093 4.61377 162.23 4.55399C162.396 4.48603 162.506 4.40071 162.579 4.26582C162.655 4.12582 162.717 3.97867 162.717 3.83101C162.717 3.62306 162.639 3.40898 162.487 3.26898C162.317 3.12694 162.077 3.04877 161.745 3.04877H160.309V4.65311ZM163.78 7.34618L165.517 2.51373H166.152L168 7.34618H167.319L166.794 5.89409L164.9 5.89409L164.419 7.34618H163.78ZM165.07 5.36168L166.62 5.36168L166.125 4.01945C165.973 3.62296 165.882 3.26888 165.812 3.01648C165.751 3.31844 165.682 3.62909 165.573 3.94638L165.07 5.36168Z" fill="#1D1D1B"/>
</g>
<mask id="mask1_2398_85195" style="mask-type:alpha" maskUnits="userSpaceOnUse" x="0" y="0" width="168" height="17">
<path fill-rule="evenodd" clip-rule="evenodd" d="M0.000213623 0V16.8338L168 16.8338V0L0.000213623 0Z" fill="white"/>
</mask>
<g mask="url(#mask1_2398_85195)">
<path fill-rule="evenodd" clip-rule="evenodd" d="M-4.95911e-05 0V2.02587L60.0879 2.02587V0L-4.95911e-05 0ZM-4.95911e-05 14.8029V16.8338L60.0879 16.8338V14.8029L-4.95911e-05 14.8029Z" fill="#1D1D1B"/>
</g>
</svg>
