<svg xmlns="http://www.w3.org/2000/svg" width="24" height="24" viewBox="0 0 24 24">
    <path fill="#5C5C5C" d="M21.75 3C22.993 3 24 4.007 24 5.25v13.5c0 1.243-1.007 2.25-2.25 2.25H2.25C1.007 21 0 19.993 0 18.75V5.25C0 4.007 1.007 3 2.25 3zm.75 6h-21v9.75c0 .38.282.693.648.743l.102.007h19.5c.414 0 .75-.336.75-.75V9zm-12 6c.414 0 .75.336.75.75 0 .38-.282.693-.648.743l-.102.007H5.25c-.414 0-.75-.336-.75-.75 0-.38.282-.693.648-.743L5.25 15h5.25zm3-3c.414 0 .75.336.75.75 0 .38-.282.693-.648.743l-.102.007H5.25c-.414 0-.75-.336-.75-.75 0-.38.282-.693.648-.743L5.25 12h8.25zm8.25-7.5H2.25c-.414 0-.75.336-.75.75V7.5h21V5.25c0-.38-.282-.693-.648-.743L21.75 4.5z"/>
</svg>
