<svg xmlns="http://www.w3.org/2000/svg" width="24" height="24" viewBox="0 0 24 24">
    <path fill="#5C5C5C" d="M12 0c3.314 0 6 2.686 6 6v3h.75C19.993 9 21 10.007 21 11.25v10.5c0 1.243-1.007 2.25-2.25 2.25H5.25C4.007 24 3 22.993 3 21.75v-10.5C3 10.007 4.007 9 5.25 9H6V6C6 2.762 8.566.122 11.775.004zm6.75 10.5H5.25c-.414 0-.75.336-.75.75v10.5c0 .414.336.75.75.75h13.5c.414 0 .75-.336.75-.75v-10.5c0-.414-.336-.75-.75-.75zm-6.75 3c1.657 0 3 1.343 3 3s-1.343 3-3 3-3-1.343-3-3 1.343-3 3-3zm0 1.5c-.828 0-1.5.672-1.5 1.5S11.172 18 12 18s1.5-.672 1.5-1.5S12.828 15 12 15zm0-13.5C9.515 1.5 7.5 3.515 7.5 6v3h9V6c0-2.414-1.901-4.384-4.288-4.495z"/>
</svg>
