<svg xmlns="http://www.w3.org/2000/svg" width="100" height="72" viewBox="0 0 100 72">
    <g fill="none" fill-rule="evenodd">
        <path d="M0 0H100V72H0z"/>
        <g>
            <path fill="#C1E0FF" d="M42 45h13c1.105 0 2 .895 2 2v5c0 2.761-2.239 5-5 5H42c-1.105 0-2-.895-2-2v-8c0-1.105.895-2 2-2zM41.821 13.216L23.833 6.335 6 13.215c-2.417 21.957 3.528 34.66 17.833 38.11 14.39-2.772 20.385-15.475 17.988-38.11z" opacity=".5" transform="translate(22 7)"/>
            <g>
                <path fill="#FFF" d="M8.1 0.938L6.15 2.353 1.022 13.128 2.297 15.385 13.823 15.385 15.309 13.128 9.45 1.369z" transform="translate(22 7) translate(11 16)"/>
                <path fill="#F69B31" fill-rule="nonzero" d="M8.1 0c1.148 0 2.197.648 2.71 1.675l5.07 10.142c.47.94.42 2.054-.132 2.947-.552.893-1.527 1.436-2.577 1.436H3.03c-1.05 0-2.025-.543-2.577-1.436C-.1 13.87-.15 12.756.32 11.817L5.39 1.675C5.903.648 6.952 0 8.1 0zm0 1.8c-.466 0-.891.263-1.1.68L1.93 12.622c-.19.38-.17.833.053 1.195.224.363.62.583 1.046.583H13.17c.426 0 .822-.22 1.046-.583.223-.362.244-.814.054-1.195L9.199 2.48c-.208-.416-.633-.68-1.099-.68zm0 9l.147.008c.676.073 1.203.646 1.203 1.342 0 .746-.604 1.35-1.35 1.35-.746 0-1.35-.604-1.35-1.35 0-.696.527-1.269 1.203-1.342L8.1 10.8zm0-6.3c.456 0 .832.339.892.778L9 5.4V9c0 .497-.403.9-.9.9-.456 0-.832-.339-.892-.778L7.2 9V5.4c0-.497.403-.9.9-.9z" transform="translate(22 7) translate(11 16)"/>
            </g>
            <path fill="#6680AD" fill-rule="nonzero" stroke="#FFF" d="M45.5 30.333c3.218 0 5.833 2.618 5.833 5.834v3.5h.584c2.251 0 4.083 1.831 4.083 4.083v8.167C56 54.168 54.168 56 51.917 56H39.083C36.832 56 35 54.168 35 51.917V43.75c0-2.252 1.832-4.083 4.083-4.083h.583v-3.5c0-3.216 2.616-5.834 5.834-5.834zm6.417 12.834H39.083c-.322 0-.583.261-.583.583v8.167c0 .322.261.583.583.583h12.834c.322 0 .583-.261.583-.583V43.75c0-.322-.261-.583-.583-.583zM45.5 33.833c-1.288 0-2.333 1.048-2.333 2.334v3.5h4.666v-3.5c0-1.286-1.045-2.334-2.333-2.334zM19.833 48.998c-.112 0-.224-.01-.333-.032C19.304 48.928 0 44.94 0 23.168V8.748c0-.723.443-1.37 1.118-1.63l18.083-7c.406-.157.856-.157 1.262 0l18.084 7c.676.26 1.12.907 1.12 1.63v14.42c0 1.328-.073 2.574-.224 3.804-.117.959-.971 1.63-1.949 1.526-.959-.117-1.642-.99-1.523-1.949.133-1.09.196-2.195.196-3.383V9.948L19.833 3.627 3.5 9.947v13.221c0 17.629 13.879 21.705 16.322 22.286 1.038-.26 4.398-1.244 7.763-3.743.781-.578 1.873-.415 2.45.362.574.777.413 1.874-.362 2.448-4.7 3.488-9.315 4.407-9.508 4.442-.11.026-.22.035-.332.035h0z" transform="translate(22 7)"/>
        </g>
    </g>
</svg>
