<svg xmlns="http://www.w3.org/2000/svg" width="100" height="72" viewBox="0 0 100 72">
    <g fill="none" fill-rule="evenodd">
        <g>
            <g>
                <path d="M0 0H100V72H0z" transform="translate(-138 -136) translate(138 136)"/>
                <g transform="translate(-138 -136) translate(138 136) translate(23 8)">
                    <path fill="#EAF5FD" d="M29.25 53c13.255 0 16.34-8.313 20.25-18.313 3.458-8.845-1.5-12.568-6.022-20.285C41.528 11.072 36.757 12 33 12 19.745 12 9 22.745 9 36s6.995 17 20.25 17z"/>
                    <path fill="#6680AD" fill-rule="nonzero" stroke="#FFF" d="M17.066 3.479C14.152.006 8.983-.447 5.51 2.468L2.996 4.577C-.47 7.485-.923 12.669 1.985 16.134c.583.695 1.618.783 2.311.202l5.027-4.218c.398.472 1.01 1.21 1.126 1.332-4.775 4.603-7.605 10.91-7.605 17.831 0 6.615 2.607 13.012 7.6 17.827l-3.52 4.197c-.583.694-.493 1.729.202 2.311.69.58 1.726.495 2.31-.202l3.514-4.187C17.143 54.326 22.174 56 27.453 56s10.31-1.674 14.503-4.773l3.513 4.187c.581.692 1.616.786 2.312.202.694-.582.784-1.617.202-2.311l-3.521-4.197c4.8-4.63 7.6-10.945 7.6-17.827 0-6.603-2.6-13.007-7.604-17.83.133-.14-.125.15 1.125-1.333l5.027 4.218c.692.58 1.727.495 2.312-.202 2.907-3.465 2.454-8.65-1.011-11.557l-2.514-2.11C45.932-.44 40.747.015 37.84 3.48c-.28.333-.415.764-.377 1.197.038.434.246.835.58 1.114l5.027 4.219c-1.242 1.485-1.006 1.19-1.11 1.329-3.757-2.777-8.188-4.41-12.866-4.72V3.281h3.281c.906 0 1.64-.734 1.64-1.64 0-.906-.734-1.641-1.64-1.641h-9.844c-.906 0-1.64.735-1.64 1.64 0 .907.734 1.641 1.64 1.641h3.282v3.337c-4.68.31-9.11 1.943-12.867 4.72-.096-.129.05.058-1.11-1.33l5.028-4.218c.694-.582.785-1.617.202-2.311zm30.222 1.502l2.513 2.11c1.639 1.375 2.155 3.598 1.446 5.496l-9.623-8.075c1.746-1.028 4.025-.905 5.664.47h0zm1.493 26.3c0 11.821-9.568 21.438-21.328 21.438S6.125 43.102 6.125 31.28c0-11.82 9.568-21.437 21.328-21.437S48.781 19.46 48.781 31.28zM3.66 12.587c-.709-1.898-.193-4.121 1.446-5.496l2.513-2.11c1.687-1.414 3.974-1.47 5.666-.47L3.66 12.587z"/>
                    <path fill="#6680AD" fill-rule="nonzero" stroke="#EAF5FD" d="M27.453 19.688c-.906 0-1.64.734-1.64 1.64v9.282l-6.092 6.193c-.635.646-.627 1.684.02 2.32.644.634 1.683.627 2.32-.02l6.562-6.671c.302-.307.47-.72.47-1.15v-9.954c0-.906-.734-1.64-1.64-1.64h0z"/>
                    <circle cx="27.453" cy="14.766" r="1.641" fill="#A4B6C9" fill-rule="nonzero"/>
                    <circle cx="27.453" cy="47.797" r="1.641" fill="#A4B6C9" fill-rule="nonzero"/>
                    <circle cx="15.852" cy="19.571" r="1.641" fill="#A4B6C9" fill-rule="nonzero"/>
                    <circle cx="39.054" cy="42.992" r="1.641" fill="#A4B6C9" fill-rule="nonzero"/>
                    <circle cx="11.047" cy="31.281" r="1.641" fill="#A4B6C9" fill-rule="nonzero"/>
                    <circle cx="43.859" cy="31.281" r="1.641" fill="#A4B6C9" fill-rule="nonzero"/>
                    <circle cx="15.852" cy="42.992" r="1.641" fill="#A4B6C9" fill-rule="nonzero"/>
                    <circle cx="39.054" cy="19.571" r="1.641" fill="#A4B6C9" fill-rule="nonzero"/>
                </g>
            </g>
        </g>
    </g>
</svg>
