<svg xmlns="http://www.w3.org/2000/svg" width="100" height="72" viewBox="0 0 100 72">
    <g fill="none" fill-rule="evenodd">
        <g>
            <g>
                <g>
                    <g>
                        <path d="M0 0H100V72H0z" transform="translate(-138 -518) translate(54 502) translate(42 16) translate(42)"/>
                        <g>
                            <path fill="#C1E0FF" d="M45.745 53.36c0 .904-.736 1.64-1.641 1.64H9.262c-.905 0-1.641-.736-1.641-1.64V8.921c0-.905.736-1.64 1.64-1.64h23.64c1.657 0 3 1.342 3 3v5.202c0 .906.734 1.641 1.64 1.641h5.204c1.656 0 3 1.343 3 3v33.234z" opacity=".5" transform="translate(-138 -518) translate(54 502) translate(42 16) translate(42) translate(28 8) matrix(-1 0 0 1 53.366 0)"/>
                            <g fill="#6680AD" fill-rule="nonzero">
                                <path d="M33.434.5H5.262C2.896.5.957 2.37.845 4.708l-.005.214v46.156c0 2.366 1.869 4.305 4.208 4.417l.214.005h32.812c2.366 0 4.305-1.87 4.417-4.208l.005-.214V9.562c0-1.103-.4-2.142-1.133-2.956l-.162-.17-4.64-4.64c-.78-.781-1.798-1.233-2.892-1.29L33.434.5zM30.37 2.781v8.703c0 .588.445 1.072 1.016 1.134l.125.007h8.703v38.453c0 1.13-.878 2.057-1.988 2.135l-.153.006H5.262c-1.13 0-2.057-.878-2.136-1.988l-.005-.153V4.922c0-1.13.878-2.057 1.988-2.135l.153-.006H30.37zm2.281 0h.578c.546-.007.91.053 1.338.323.09.056.175.12.258.191l.122.113 4.64 4.64c.119.12.22.246.304.38.239.378.312.7.322 1.165v.75h-7.562V2.782z" transform="translate(-138 -518) translate(54 502) translate(42 16) translate(42) translate(28 8) matrix(-1 0 0 1 43.336 0)"/>
                            </g>
                            <path fill="#6680AD" fill-rule="nonzero" d="M8.64 38.5h20.303c.63 0 1.14.51 1.14 1.14 0 .63-.51 1.141-1.14 1.141H8.641c-.63 0-1.141-.51-1.141-1.14 0-.63.51-1.141 1.14-1.141zM8.64 44.5h20.303c.63 0 1.14.51 1.14 1.14 0 .63-.51 1.141-1.14 1.141H8.641c-.63 0-1.141-.51-1.141-1.14 0-.63.51-1.141 1.14-1.141z" transform="translate(-138 -518) translate(54 502) translate(42 16) translate(42) translate(28 8)"/>
                            <path fill="#3BA73A" fill-rule="nonzero" d="M21.766 11.5H34.89c.63 0 1.14.51 1.14 1.14 0 .63-.51 1.141-1.14 1.141H21.766c-.63 0-1.141-.51-1.141-1.14 0-.63.51-1.141 1.14-1.141zM31.432 6h3.459c.63 0 1.14.51 1.14 1.14 0 .63-.51 1.141-1.14 1.141h-3.459c-.63 0-1.14-.51-1.14-1.14 0-.63.51-1.141 1.14-1.141zM21.766 18.063H34.89c.63 0 1.14.51 1.14 1.14 0 .63-.51 1.14-1.14 1.14H21.766c-.63 0-1.141-.51-1.141-1.14 0-.63.51-1.14 1.14-1.14z" transform="translate(-138 -518) translate(54 502) translate(42 16) translate(42) translate(28 8)"/>
                            <path fill="#6680AD" fill-rule="nonzero" d="M8.64 24.625h26.25c.63 0 1.141.51 1.141 1.14 0 .63-.51 1.141-1.14 1.141H8.64c-.63 0-1.141-.51-1.141-1.14 0-.63.51-1.141 1.14-1.141zM8.64 31.188h20.303c.63 0 1.14.51 1.14 1.14 0 .63-.51 1.14-1.14 1.14H8.641c-.63 0-1.141-.51-1.141-1.14 0-.63.51-1.14 1.14-1.14z" transform="translate(-138 -518) translate(54 502) translate(42 16) translate(42) translate(28 8)"/>
                        </g>
                    </g>
                </g>
            </g>
        </g>
    </g>
</svg>
