<svg xmlns="http://www.w3.org/2000/svg" width="100" height="72" viewBox="0 0 100 72">
    <g fill="none" fill-rule="evenodd">
        <g>
            <g>
                <g>
                    <g>
                        <path d="M0 0H100V72H0z" transform="translate(-138 -276) translate(54 260) translate(42 16) translate(42)"/>
                        <g>
                            <path fill="#C1E0FF" d="M45.124 53.36c0 .904-.736 1.64-1.641 1.64H8.641C7.736 55 7 54.264 7 53.36V8.921c0-.905.736-1.64 1.64-1.64h18.437c4.53 0 8.203 3.672 8.203 8.202 0 .906.734 1.641 1.64 1.641h5.204c1.656 0 3 1.343 3 3v33.234z" opacity=".5" transform="translate(-138 -276) translate(54 260) translate(42 16) translate(42) translate(29 8)"/>
                            <path fill="#FFF" fill-rule="nonzero" stroke="#FFF" d="M35.698 34.172L38.018 36.492 37.132 37.378 33.651 38.538 34.811 35.058zM40.337 34.171l-2.32-2.32 7.887-7.893 2.32 2.32-7.886 7.893z" transform="translate(-138 -276) translate(54 260) translate(42 16) translate(42) translate(29 8)"/>
                            <path fill="#6680AD" fill-rule="nonzero" d="M33.096.5H4.924C2.558.5.619 2.37.507 4.708l-.005.214v46.156c0 2.366 1.87 4.305 4.208 4.417l.214.005h32.812c2.366 0 4.305-1.87 4.417-4.208l.005-.214V36.284L54.202 24.23c1.728-1.728 1.728-4.525 0-6.253-1.668-1.668-4.35-1.722-6.084-.161l-.17.161-5.79 5.795V9.562c0-1.103-.4-2.142-1.133-2.956l-.162-.17-4.64-4.64c-.78-.781-1.798-1.233-2.892-1.29L33.096.5zm-3.063 2.281v8.703c0 .588.445 1.072 1.017 1.134l.124.007h8.703v13.43l-7.306 7.31c-.094.094-.17.203-.227.323l-.049.123-2.32 6.96c-.137.41-.03.862.276 1.168.271.272.659.386 1.03.312l.137-.037 6.96-2.32c.127-.042.244-.105.348-.187l.098-.088 1.053-1.053v12.512c0 1.13-.878 2.057-1.988 2.135l-.153.006H4.924c-1.13 0-2.057-.878-2.135-1.988l-.006-.153V4.922c0-1.13.878-2.057 1.988-2.135l.153-.006h25.11zm5.665 30.684l3.027 3.027-1.323 1.323-4.541 1.514 1.513-4.541 1.324-1.323zM45.904 23.25l3.027 3.027-8.593 8.6-3.028-3.027 8.594-8.6zm6.685-3.661c.794.794.835 2.056.119 2.898l-.12.13-2.045 2.046-3.027-3.027 2.045-2.047c.836-.835 2.193-.835 3.028 0zM32.315 2.78h.577c.546-.007.91.053 1.338.323.09.056.175.12.258.191l.122.113 4.64 4.64c.429.43.592.875.622 1.431l.006.19-.003.675h-7.56V2.78z" transform="translate(-138 -276) translate(54 260) translate(42 16) translate(42) translate(29 8)"/>
                            <path fill="#6680AD" fill-rule="nonzero" d="M8.205 16.906h22.969c.63 0 1.14.511 1.14 1.14 0 .63-.51 1.142-1.14 1.142H8.205c-.63 0-1.14-.511-1.14-1.141s.51-1.14 1.14-1.14zM8.205 23.469h16.406c.63 0 1.141.51 1.141 1.14 0 .63-.51 1.141-1.14 1.141H8.204c-.63 0-1.14-.51-1.14-1.14 0-.63.51-1.141 1.14-1.141zM8.205 30.031h16.406c.63 0 1.141.511 1.141 1.14 0 .63-.51 1.142-1.14 1.142H8.204c-.63 0-1.14-.511-1.14-1.141s.51-1.14 1.14-1.14zM8.205 36.594h16.406c.63 0 1.141.51 1.141 1.14 0 .63-.51 1.141-1.14 1.141H8.204c-.63 0-1.14-.51-1.14-1.14 0-.63.51-1.141 1.14-1.141zM21.33 46.656h9.844c.63 0 1.14.511 1.14 1.14 0 .63-.51 1.142-1.14 1.142H21.33c-.63 0-1.14-.511-1.14-1.141s.51-1.14 1.14-1.14z" transform="translate(-138 -276) translate(54 260) translate(42 16) translate(42) translate(29 8)"/>
                        </g>
                    </g>
                </g>
            </g>
        </g>
    </g>
</svg>
