<svg xmlns="http://www.w3.org/2000/svg" width="25" height="24" viewBox="0 0 25 24">
    <path fill="none" fill-rule="evenodd" stroke="#5C5C5C" stroke-linecap="round" stroke-linejoin="round" stroke-width="1.5" d="M13 .75C6.811.728 1.773 5.72 1.74 11.91c-.004 2.353.746 4.645 2.14 6.54l-1.4 4.15 4.32-1.37c3.446 2.262 7.852 2.461 11.487.519 3.636-1.943 5.92-5.717 5.953-9.839C24.207 5.729 19.181.739 13 .75m6.07 13.91c-.07-.12-.27-.2-.56-.34-.29-.14-1.74-.85-2-.95-.26-.1-.47-.15-.66.15-.19.3-.5.73-.67.92-.17.19-.34.22-.64.07-1.711-.746-3.155-1.994-4.14-3.58-.17-.29 0-.45.13-.59.49-.49.5-.42.62-.66.087-.159.087-.351 0-.51C11 9 10.45 7.58 10.2 7c-.25-.58-1.51-.69-2-.15C3 12.33 15.67 21.72 18.91 16c.27-.386.33-.88.16-1.32"/>
</svg>
