<svg xmlns="http://www.w3.org/2000/svg" width="100" height="72" viewBox="0 0 100 72">
    <g fill="none" fill-rule="evenodd">
        <path d="M0 0H100V72H0z"/>
        <g>
            <path fill="#C1E0FF" d="M11.264 3.55c-2.494.275-4.709 1.583-6.18 3.681-1.653 2.36-2.038 5.263-1.057 7.964 3.844 10.583 12.119 18.857 22.702 22.702 2.7.98 5.603.595 7.963-1.058 2.099-1.47 3.407-3.685 3.682-6.18l-7.434-1.593-3.494 3.495c-.372.372-.937.47-1.413.247-7.422-3.487-13.43-9.495-16.917-16.917-.224-.476-.125-1.041.247-1.413l3.494-3.494-1.593-7.434z" opacity=".5" transform="translate(30 16)"/>
            <path fill="#6680AD" fill-rule="nonzero" stroke="#FFF" stroke-width=".5" d="M28.693 39.924c-1.289 0-2.567-.228-3.816-.682-5.505-2-10.614-5.257-14.776-9.419-4.163-4.162-7.42-9.272-9.42-14.776-.642-1.77-.831-3.595-.563-5.428.252-1.717.917-3.383 1.923-4.82C3.052 3.357 4.4 2.157 5.938 1.33 7.578.448 9.37 0 11.261 0c.588 0 1.097.411 1.22.986l1.958 9.138c.089.414-.038.845-.338 1.144l-3.346 3.346c3.157 6.276 8.279 11.398 14.554 14.554l3.346-3.346c.3-.3.73-.426 1.144-.338l9.138 1.959c.576.123.987.631.987 1.22 0 1.89-.448 3.682-1.33 5.322-.828 1.539-2.027 2.886-3.47 3.897-1.436 1.006-3.103 1.671-4.82 1.923-.537.08-1.075.119-1.611.119h0zM10.264 2.55c-2.494.275-4.709 1.583-6.18 3.681-1.653 2.36-2.038 5.263-1.057 7.964 3.844 10.583 12.119 18.857 22.702 22.702 2.7.98 5.603.595 7.963-1.058 2.099-1.47 3.407-3.685 3.682-6.18l-7.434-1.593-3.494 3.495c-.372.372-.937.47-1.413.247-7.422-3.487-13.43-9.495-16.917-16.917-.224-.476-.125-1.041.247-1.413l3.494-3.494-1.593-7.434zM38.676 21.209c-.689 0-1.248-.559-1.248-1.248 0-9.63-7.835-17.466-17.465-17.466-.69 0-1.248-.558-1.248-1.247 0-.69.559-1.248 1.248-1.248 5.331 0 10.344 2.076 14.114 5.846 3.77 3.77 5.847 8.783 5.847 14.115 0 .689-.559 1.248-1.248 1.248z" transform="translate(30 16)"/>
            <path fill="#6680AD" fill-rule="nonzero" stroke="#FFF" stroke-width=".5" d="M33.686 21.209c-.69 0-1.248-.559-1.248-1.248 0-6.88-5.596-12.476-12.475-12.476-.69 0-1.248-.558-1.248-1.247 0-.69.559-1.248 1.248-1.248 8.254 0 14.97 6.716 14.97 14.971 0 .689-.558 1.248-1.247 1.248z" transform="translate(30 16)"/>
            <path fill="#6680AD" fill-rule="nonzero" stroke="#FFF" stroke-width=".5" d="M28.696 21.209c-.69 0-1.248-.559-1.248-1.248 0-4.127-3.358-7.485-7.485-7.485-.69 0-1.248-.559-1.248-1.248s.559-1.247 1.248-1.247c5.503 0 9.98 4.477 9.98 9.98 0 .689-.558 1.248-1.247 1.248z" transform="translate(30 16)"/>
        </g>
    </g>
</svg>
