<svg xmlns="http://www.w3.org/2000/svg" width="100" height="72" viewBox="0 0 100 72">
    <g fill="none" fill-rule="evenodd">
        <path d="M0 0H100V72H0z"/>
        <g>
            <g fill-rule="nonzero" transform="translate(25 17) translate(12)">
                <circle cx="27.3" cy="10.4" r="2.6" fill="#C4D4E3"/>
                <circle cx="18.2" cy="10.4" r="2.6" fill="#C4D4E3"/>
                <circle cx="9.1" cy="10.4" r="2.6" fill="#C4D4E3"/>
                <path fill="#6680AD" d="M22.7 18.662l13.64 6.367c.716.334 1.217 1.005 1.334 1.786.117.782-.166 1.57-.753 2.1-.154.138-.342.234-.545.277l-6.034 1.277-2.185 6.145c-.066.185-.177.35-.324.482-.596.535-1.424.73-2.198.518-.773-.212-1.385-.802-1.626-1.568l-4.557-14.553c-.275-.89 0-1.86.704-2.472.702-.613 1.7-.753 2.544-.359zm-.997 2.135l4.485 14.321 2.155-6.06c.137-.386.465-.673.866-.757l5.896-1.248-13.402-6.256zM31.81 0c1.952 0 3.535 1.582 3.535 3.534v14.138c0 1.952-1.583 3.534-3.535 3.534-.65 0-1.178-.527-1.178-1.178 0-.65.528-1.178 1.178-1.178l.16-.01c.575-.079 1.018-.572 1.018-1.168V3.534c0-.65-.527-1.178-1.178-1.178H3.534c-.65 0-1.178.528-1.178 1.178v14.138c0 .65.528 1.178 1.178 1.178h10.603c.651 0 1.179.527 1.179 1.178 0 .65-.528 1.178-1.179 1.178H3.534C1.582 21.206 0 19.624 0 17.672V3.534C0 1.582 1.582 0 3.534 0z"/>
            </g>
            <g>
                <path fill="#FFF" d="M13.5 1.564L10.25 3.922 1.704 21.879 3.829 25.641 23.038 25.641 25.515 21.879 15.75 2.281z" transform="translate(25 17) translate(0 11)"/>
                <path fill="#F69B31" fill-rule="nonzero" stroke="#FFF" stroke-width=".8" d="M13.5 0c1.913 0 3.661 1.08 4.516 2.791h0l8.452 16.904c.782 1.565.698 3.424-.222 4.912C25.326 26.094 23.7 27 21.952 27h0H5.048c-1.75 0-3.374-.906-4.294-2.393-.92-1.488-1.004-3.347-.222-4.912h0L8.984 2.792C9.84 1.08 11.587 0 13.5 0zm0 3c-.776 0-1.485.438-1.832 1.133h0L3.216 21.037c-.317.634-.283 1.388.09 1.992.373.604 1.032.971 1.742.971h16.904c.71 0 1.369-.367 1.742-.971s.407-1.358.09-1.992h0L15.332 4.132C14.985 3.438 14.276 3 13.5 3zm0 15l.245.013c1.127.122 2.005 1.077 2.005 2.237 0 1.243-1.007 2.25-2.25 2.25s-2.25-1.007-2.25-2.25c0-1.16.878-2.115 2.005-2.237L13.5 18zm0-10.5c.76 0 1.387.564 1.486 1.296L15 9v6c0 .828-.672 1.5-1.5 1.5-.76 0-1.387-.564-1.486-1.296L12 15V9c0-.828.672-1.5 1.5-1.5z" transform="translate(25 17) translate(0 11)"/>
            </g>
        </g>
    </g>
</svg>
