<svg xmlns="http://www.w3.org/2000/svg" width="160" height="32" viewBox="0 0 160 32">
    <defs>
        <linearGradient id="prefix__a" x1="32.877%" x2="79.721%" y1="44.404%" y2="57.371%">
            <stop offset="0%" stop-color="#ED1C24"/>
            <stop offset="100%" stop-color="#8B0304"/>
        </linearGradient>
        <linearGradient id="prefix__b" x1="10.322%" x2="88.651%" y1="49.953%" y2="49.953%">
            <stop offset="0%" stop-color="#ED1C24"/>
            <stop offset="100%" stop-color="#FFCB05"/>
        </linearGradient>
        <linearGradient id="prefix__c" x1="50.002%" x2="50.002%" y1="-.786%" y2="35.658%">
            <stop offset="0%" stop-color="#E39717"/>
            <stop offset="12.36%" stop-color="#E8A116"/>
            <stop offset="43.44%" stop-color="#F4B710"/>
            <stop offset="73.21%" stop-color="#FCC509"/>
            <stop offset="100%" stop-color="#FFCB05"/>
        </linearGradient>
        <linearGradient id="prefix__d" x1="35%" x2="47.914%" y1="24.367%" y2="60.204%">
            <stop offset="0%" stop-color="#E39717"/>
            <stop offset="10.13%" stop-color="#E8A116"/>
            <stop offset="35.61%" stop-color="#F4B710"/>
            <stop offset="60%" stop-color="#FCC509"/>
            <stop offset="81.96%" stop-color="#FFCB05"/>
            <stop offset="100%" stop-color="#FFCB05"/>
        </linearGradient>
    </defs>
    <g fill="none">
        <g fill="#FFF">
            <path d="M36.088 10.413c-.893.222-1.564.333-2.234.333-1.676 0-2.011-1.44-2.011-2.659 0-1.883.67-2.88 2.01-2.88.671 0 1.118.11 1.118.11l1.23.444V4.21l-.113-.111c-.446-.222-1.452-.554-2.681-.554-2.458 0-4.022 1.772-4.022 4.431 0 2.548 1.564 4.21 3.799 4.21 1.005 0 1.899-.222 3.24-.776l.223-.11-.335-1.219-.224.332zM7.821 6.093c1.117-.443 1.564-1.219 1.564-2.548 0-1.219-.558-2.216-1.564-2.548-.67-.332-1.34-.332-3.464-.332H0v1.218s1.006.111 1.34.222v10.192h3.464c1.676 0 2.458-.111 3.129-.443C9.05 11.3 9.72 10.303 9.72 8.974c.112-1.552-.558-2.549-1.899-2.881zM3.799 2.105h.67c.894 0 1.564 0 2.011.332.335.222.447.665.447 1.108 0 1.108-.335 1.662-1.676 1.772l-1.005.111-.447.776v-4.1zm2.793 8.198c-.559.443-1.34.443-2.346.443h-.447V6.979h.894c.893 0 1.564 0 2.01.333.336.332.56.775.56 1.44 0 .664-.224 1.218-.671 1.55zM76.31 6.093c1.118-.443 1.565-1.219 1.565-2.548 0-1.219-.559-2.216-1.564-2.548-.67-.332-1.34-.332-3.464-.332H68.49v1.218s1.005.111 1.34.222v10.192h3.464c1.676 0 2.458-.111 3.129-.443 1.117-.554 1.787-1.551 1.787-2.88.112-1.552-.558-2.549-1.9-2.881zM72.29 2.105h.67c.894 0 1.564 0 2.011.332.335.222.447.665.447 1.108 0 1.108-.335 1.662-1.676 1.772l-1.005.111-.447.776v-4.1zm2.793 8.198c-.559.443-1.34.443-2.346.443h-.447V6.979h.893c.894 0 1.565 0 2.012.333.335.332.558.775.558 1.44.112.664-.223 1.218-.67 1.55zM25.921 3.656c-.67 0-1.564.221-2.681.664v-.664l-3.464.443v1.218h1.34v6.869h2.347V5.76c.335-.111 1.006-.333 1.788-.333.335 0 .67.111.782.222.223.221.223.664.223 1.218v5.318h2.347V6.758c0-1.219-.112-1.662-.447-2.216-.559-.554-1.23-.886-2.235-.886zM41.228 3.656c-2.57 0-4.246 1.661-4.246 4.32 0 2.659 1.565 4.32 4.246 4.32 2.57 0 4.134-1.661 4.134-4.32 0-2.659-1.564-4.32-4.134-4.32zm0 7.2c-.782 0-1.788-.332-1.788-2.88s.894-2.88 1.788-2.88c.782 0 1.788.332 1.788 2.77-.112 2.658-1.006 2.99-1.788 2.99zM101.897 3.656c-2.57 0-4.246 1.661-4.246 4.32 0 2.659 1.564 4.32 4.246 4.32 2.57 0 4.246-1.661 4.246-4.32 0-2.659-1.565-4.32-4.246-4.32zm0 7.2c-.782 0-1.788-.332-1.788-2.88s.894-2.88 1.788-2.88c.782 0 1.788.332 1.788 2.77 0 2.658-.894 2.99-1.788 2.99zM111.729 10.635l-1.676.221c-.335 0-.447-.11-.559-.221 0-.11-.111-.11-.111-.776V5.317h2.346v-1.44h-2.346V1.662h-.335l-2.012.221V9.75c0 .886.112 1.44.447 1.883.335.443.894.665 1.676.665.782 0 1.564-.222 2.458-.554l.224-.111-.112-.997zM83.685 3.656c-2.57 0-4.246 1.661-4.246 4.32 0 2.659 1.565 4.32 4.246 4.32 2.57 0 4.134-1.661 4.134-4.32 0-2.659-1.564-4.32-4.134-4.32zm0 7.2c-.782 0-1.788-.332-1.788-2.88s.894-2.88 1.788-2.88c.782 0 1.788.332 1.788 2.77 0 2.658-.894 2.99-1.788 2.99zM94.411 4.32c-.559-.332-1.229-.443-1.788-.443-2.346 0-4.022 1.884-4.022 4.432 0 2.437 1.34 3.988 3.352 3.988.559 0 1.117-.111 2.346-.665v.665c0 1.44-.558 1.883-2.346 1.883-.782 0-1.9-.11-2.793-.332v1.44c1.787.332 2.458.443 3.352.443 1.117 0 2.122-.222 2.793-.554 1.005-.554 1.34-1.33 1.34-2.77V3.988H94.3v.332h.112zm0 6.204c-.447.11-.67.11-1.117.11-1.453 0-2.123-.885-2.123-2.547 0-1.773.894-2.659 2.346-2.659.224 0 .447 0 .894.111v4.985zM18.547 4.099h-2.235v.332c-.558-.332-1.117-.443-1.787-.443-2.235 0-3.91 1.773-3.91 4.431 0 2.437 1.228 3.988 3.351 3.988.559 0 1.23-.221 2.235-.886v.776l3.24-.333v-1.33h-.894V4.1zm-2.235 6.536c-.446.11-.67.11-1.117.11-1.452 0-2.234-.886-2.234-2.547 0-1.773.893-2.77 2.458-2.77.335 0 .447 0 .893.111v5.096zM120.332 4.099h-2.234v.332c-.56-.332-1.118-.443-1.788-.443-2.235 0-3.91 1.773-3.91 4.431 0 2.437 1.228 3.988 3.351 3.988.559 0 1.23-.221 2.235-.886v.776l3.24-.333v-1.33h-.894V4.1zm-2.346 6.536c-.447.11-.67.11-1.117.11-1.453 0-2.235-.886-2.235-2.547 0-1.773.894-2.77 2.458-2.77.335 0 .447 0 .894.111v5.096zM119.215 1.994L118.656.222 118.433.332 114.746 1.772 115.081 2.77zM56.535 0H56.2l-3.017.332v.997H54.3v2.66c-.894-.333-2.234-.555-3.352-.222-1.564.553-2.57 1.994-2.57 4.098 0 1.884.894 3.435 2.459 3.989 1.117.332 2.681 0 3.575-.444v.665l3.128-.443v-.997h-1.005c-.112 0 0-10.635 0-10.635zm-2.346 10.524c-1.006.332-2.235.443-2.905-.443-.447-.554-.559-1.33-.559-2.105v-.221c0-.887.223-1.44.67-1.994.67-.776 1.9-.665 2.794-.222.111 0 0 4.764 0 4.985zM62.121 3.656c-.558 0-1.005 0-1.452.221-1.676.554-2.682 1.994-2.682 4.21 0 1.994 1.006 3.545 2.682 4.099 1.452.443 3.575 0 5.028-.776h.111l-.335-1.218-.782.221c-1.117.333-2.57.887-3.464-.221-.446-.554-.558-1.44-.558-2.105l4.469.11h.67v-.664c-.111-3.988-3.575-3.877-3.687-3.877zm-1.676 3.323c0-.11.112-1.772 1.565-1.772 1.564 0 1.564 1.661 1.564 1.772h-3.129z" transform="translate(0 8)"/>
        </g>
        <g>
            <path fill="url(#prefix__a)" d="M15.722.005C7.29.155.318 6.167.01 14.427c-.303 8.265 6.011 15.22 14.104 15.53 4.117.16 7.904-1.431 10.675-4.125 2.665-2.596 2.555-7.162.437-5.092-2.33 2.276-5.588 3.637-9.14 3.505-6.774-.248-12.06-5.833-11.806-12.474C4.514 5.608 10.497.732 15.85.436L15.989 0c-.087.005-.175.005-.267.005z" transform="translate(128)"/>
            <path fill="#FFCB05" d="M16.904.437C23.701.859 29.296 6.78 9.514 12.7c5.04 1.014 8.762 3.432 8.762 3.432C35.212 7.324 25.578-.028 15.996 0l-.138.437c.353-.024.702-.024 1.046 0z" transform="translate(128)"/>
            <path fill="url(#prefix__b)" d="M8.615 3.55C10.75 1.728 13.401.576 15.918.434c.355-.019.704-.019 1.05.005 3.34.208 6.391 1.742 6.3 3.96l1.67-2.015C22.706.869 19.378-.01 16.056 0h-.267C12.66.057 9.733.92 7.276 2.412l1.34 1.138z" transform="translate(128)"/>
            <path fill="url(#prefix__c)" d="M24.193 23.4c-.005-.08-.281-2.035-.281-2.035-.685-4.647.271-9.15 7.245-9.52-10.115-4.957-16.84-.211-21.766.9 4.484.568 13.937 5.736 14.802 10.656z" transform="translate(128)"/>
            <path fill="url(#prefix__d)" d="M27.526 13.199c-4.31 1.814-3.87 6.838-3.455 9.785.083.24.515 2.072-.483 3.985-1.238 2.153-3.243 3.779-7.108 4.832 9.905.47 21.24-9.25 11.046-18.602z" transform="translate(128)"/>
        </g>
    </g>
</svg>
