<svg xmlns="http://www.w3.org/2000/svg" xmlns:xlink="http://www.w3.org/1999/xlink" width="136" height="136" viewBox="0 0 136 136">
    <defs>
        <filter id="prefix__e" width="130.1%" height="131.2%" x="-15.1%" y="-15.6%" filterUnits="objectBoundingBox">
            <feGaussianBlur in="SourceAlpha" result="shadowBlurInner1" stdDeviation="12.5"/>
            <feOffset dx="-14" in="shadowBlurInner1" result="shadowOffsetInner1"/>
            <feComposite in="shadowOffsetInner1" in2="SourceAlpha" k2="-1" k3="1" operator="arithmetic" result="shadowInnerInner1"/>
            <feColorMatrix in="shadowInnerInner1" values="0 0 0 0 0.111474277 0 0 0 0 0.111474277 0 0 0 0 0.111474277 0 0 0 0.15 0"/>
        </filter>
        <filter id="prefix__i" width="103.5%" height="105.8%" x="-1.7%" y="-2.1%" filterUnits="objectBoundingBox">
            <feOffset dy="1" in="SourceAlpha" result="shadowOffsetOuter1"/>
            <feGaussianBlur in="shadowOffsetOuter1" result="shadowBlurOuter1" stdDeviation="1"/>
            <feColorMatrix in="shadowBlurOuter1" values="0 0 0 0 0 0 0 0 0 0 0 0 0 0 0 0 0 0 0.3 0"/>
        </filter>
        <filter id="prefix__k" width="100.5%" height="119.8%" x="-.2%" y="-5%" filterUnits="objectBoundingBox">
            <feOffset dy="1" in="SourceAlpha" result="shadowOffsetOuter1"/>
            <feColorMatrix in="shadowOffsetOuter1" values="0 0 0 0 0.71372549 0 0 0 0 0.705882353 0 0 0 0 0.71372549 0 0 0 0.2 0"/>
        </filter>
        <filter id="prefix__m" width="208.3%" height="200%" x="-54.2%" y="-50%" filterUnits="objectBoundingBox">
            <feOffset dy="1" in="SourceAlpha" result="shadowOffsetOuter1"/>
            <feGaussianBlur in="shadowOffsetOuter1" result="shadowBlurOuter1" stdDeviation="1"/>
            <feColorMatrix in="shadowBlurOuter1" result="shadowMatrixOuter1" values="0 0 0 0 0 0 0 0 0 0 0 0 0 0 0 0 0 0 0.29865579 0"/>
            <feMerge>
                <feMergeNode in="shadowMatrixOuter1"/>
                <feMergeNode in="SourceGraphic"/>
            </feMerge>
        </filter>
        <path id="prefix__a" d="M0 0H136V136H0z"/>
        <path id="prefix__d" d="M135.66 82.01c23.184 15.475 21.945 44.226-22.644 57.395-39.438 11.647-80.88 4.595-90.538-44.403-9.804-49.735 35.744-84.075 72.54-73.934 33.466 9.224 17.46 45.467 40.642 60.942z"/>
        <path id="prefix__g" d="M83.491 11.38c33.466 9.223 19.218 42.48 42.4 57.954 23.184 15.475 20.187 47.214-24.402 60.383-39.438 11.646-80.88 4.595-90.538-44.404C1.147 35.58 46.695 1.238 83.49 11.38"/>
        <path id="prefix__l" d="M0 12.039L201.019 12.039 201.019 22.118 0 22.118z"/>
        <linearGradient id="prefix__c" x1="72.734%" x2="72.734%" y1="5.57%" y2="100%">
            <stop offset="0%" stop-color="#0074D3"/>
            <stop offset="100%" stop-color="#0040A8"/>
        </linearGradient>
        <linearGradient id="prefix__f" x1="100%" x2="31.352%" y1="67.553%" y2="50%">
            <stop offset="0%" stop-color="#FDC130"/>
            <stop offset="100%" stop-color="#F69B31"/>
            <stop offset="100%" stop-color="#F69B31"/>
        </linearGradient>
        <rect id="prefix__j" width="201.019" height="121.507" x="0" y="0" rx="1.4"/>
    </defs>
    <g fill="none" fill-rule="evenodd">
        <mask id="prefix__b" fill="#fff">
            <use xlink:href="#prefix__a"/>
        </mask>
        <g mask="url(#prefix__b)">
            <g>
                <g transform="translate(-15 -12) scale(1 -1) rotate(9 1125.09 0)">
                    <use fill="url(#prefix__c)" xlink:href="#prefix__d"/>
                    <use fill="#000" filter="url(#prefix__e)" xlink:href="#prefix__d"/>
                </g>
                <path fill="url(#prefix__f)" d="M101.828 63.24c17.047 11.409 14.844 34.808-17.943 44.517-28.998 8.586-59.47 3.387-66.572-32.737-7.208-36.667 26.283-61.985 53.339-54.508 24.607 6.8 14.13 31.319 31.176 42.727z" transform="translate(-15 -12) scale(-1 1) rotate(-59 0 178.965)"/>
                <g transform="translate(-15 -12) translate(13.44 6.72)">
                    <mask id="prefix__h" fill="#fff">
                        <use xlink:href="#prefix__g"/>
                    </mask>
                    <use fill="#EAF5FD" transform="scale(1 -1) rotate(9 991.024 0)" xlink:href="#prefix__g"/>
                    <g mask="url(#prefix__h)">
                        <g>
                            <g transform="translate(-103.68 25.92)">
                                <use fill="#000" filter="url(#prefix__i)" xlink:href="#prefix__j"/>
                                <use fill="#DEE1E6" xlink:href="#prefix__j"/>
                            </g>
                            <g transform="translate(-103.68 25.92)">
                                <use fill="#000" filter="url(#prefix__k)" xlink:href="#prefix__l"/>
                                <use fill="#FFF" xlink:href="#prefix__l"/>
                            </g>
                            <g transform="translate(-103.68 25.92) translate(30.237 13.159)">
                                <path fill="#F1F3F4" d="M3.92 0h154.543c2.165 0 3.92 1.755 3.92 3.92 0 2.164-1.755 3.92-3.92 3.92H3.92C1.755 7.84 0 6.083 0 3.92 0 1.755 1.755 0 3.92 0z"/>
                                <circle cx="158.463" cy="3.92" r="3.55" fill="#FFF" stroke="#E4E9EF" stroke-width=".739"/>
                                <path fill="#FDC130" stroke="#FDC130" stroke-width=".739" d="M158.463 2.83l.355.756.838.128-.608.623.14.85-.725-.4-.724.4.14-.85-.609-.623.839-.128.354-.756z"/>
                            </g>
                            <path fill="#5F6368" d="M196.54 16.378c-.233 0-.42-.188-.42-.42 0-.232.187-.42.42-.42.231 0 .42.188.42.42 0 .232-.189.42-.42.42zm0 1.4c-.233 0-.42-.188-.42-.42 0-.232.187-.42.42-.42.231 0 .42.188.42.42 0 .232-.189.42-.42.42zm0 1.4c-.233 0-.42-.188-.42-.42 0-.232.187-.42.42-.42.231 0 .42.188.42.42 0 .232-.189.42-.42.42z" transform="translate(-103.68 25.92)"/>
                            <path fill="#EEE7E3" d="M152.64 22.08H200.64V121.557H152.64z" transform="translate(-103.68 25.92)"/>
                            <path fill="#B9DCFE" d="M0 22.171H152.64V121.531H0z" transform="translate(-103.68 25.92)"/>
                            <path fill="#002C76" d="M0 109.096H159.539V115.313H0z" transform="translate(-103.68 25.92)"/>
                            <path fill="#FFF" d="M0 115.314H201.066V121.53099999999999H0z" transform="translate(-103.68 25.92)"/>
                            <g transform="translate(-103.68 25.92) translate(154.866 27.92)">
                                <rect width="43.2" height="3.167" x=".953" y="15.36" fill="#FFF" rx=".96"/>
                                <rect width="43.2" height="3.167" x=".953" y="21.12" fill="#FFF" rx=".96"/>
                                <rect width="43.2" height="3.167" x=".953" y="27.84" fill="#FFF" rx=".96"/>
                                <rect width="43.2" height="3.167" x=".953" y="33.6" fill="#FFF" rx=".96"/>
                                <rect width="26.042" height="1.525" x=".654" y="48.96" fill="#D6D6D6" rx=".763"/>
                                <rect width="28.8" height="1.525" x=".912" y="9.6" fill="#D6D6D6" rx=".763"/>
                                <rect width="28.8" height="1.525" x=".912" y="6.72" fill="#D6D6D6" rx=".763"/>
                                <rect width="24" height="4.34" x=".912" fill="#D6D6D6" rx=".763"/>
                                <rect width="18.183" height="5.162" x="13.44" y="39.36" fill="#D6D6D6" rx="2.581"/>
                                <text fill="#002C76" font-family="Roboto-Bold, Roboto" font-size="3.84" font-weight="bold">
                                    <tspan x=".654" y="56.181">Ingresa al portal anterior</tspan>
                                </text>
                                <g filter="url(#prefix__m)" transform="translate(20.536 57.887)">
                                    <path fill="#000" d="M3.063 10.683c.118.107.2.184.453.424.247.235.367.346.477.44.045.038.084.14.1.293.012.126.008.266-.007.402-.006.046-.01.08-.014.096-.033.18.105.347.288.349l.629.01.168.003c.915.015 1.382.011 1.717-.031.359-.045.728-.478 1.047-1.021.27.48.645.95 1.024 1.01.12.02.266.026.434.022.126-.003.26-.011.393-.023.102-.01.182-.018.23-.025.179-.023.295-.198.248-.371-.01-.037-.027-.106-.044-.192-.02-.1-.033-.198-.04-.288-.003-.056-.004-.107-.002-.151.005-.078.006-.12.008-.22l.002-.07c.004-.106.019-.207.065-.427.02-.096.116-.279.268-.505.045-.068.094-.138.147-.21.1-.138.208-.278.316-.41l.143-.173c.233-.334.482-.882.574-1.202.088-.308.158-.875.201-1.432.024-.316.032-.57.032-.97v-.128-.175c0-.121-.004-.241-.016-.547-.025-.642-.376-1.056-.894-1.136-.44-.068-.977.298-.977.298s-.12-.413-.2-.54c-.131-.204-.469-.465-.727-.515-.265-.052-.58-.046-.868.005-.253.045-.505.27-.65.514-.105.174-.007-.009-.111-.189-.144-.247-.48-.469-.8-.534-.271-.056-.582-.035-.866.05-.365.108-.423.386-.437.307-.049-.267-.054-.25-.084-.44-.112-.705-.238-1.194-.429-1.62l-.099-.223c-.05-.11-.102-.209-.158-.304-.172-.295-.37-.515-.617-.64-.43-.218-1.075-.112-1.38.244-.304.355-.354.947-.278 1.68.03.286.132.805.224 1.19.033.133.062.255.115.48l.018.076c.04.17.076.31.119.463l.094.335.011.043c.032.12.064.252.113.47.027.12.053.248.079.384.07.37.07.293.003.214-.047-.055-.09-.104-.133-.15-.079-.085-.15-.155-.22-.211-.5-.41-.806-.59-1.227-.63-.69-.066-1.345.421-1.443 1.08-.06.403-.041.588.145.945.103.193.277.425.6.826l.04.048c.398.49.442.545.536.682.256.371.878 1.437.991 1.58l.669.74z"/>
                                    <path fill="#FFF" d="M1.326 7.309l-.039-.048C.99 6.893.827 6.675.75 6.53.63 6.3.623 6.238.666 5.949c.051-.34.42-.615.803-.578.265.025.497.162.91.499.044.036.098.088.16.155l.116.132c.063.073.274.331.242.294.046.055.08.097.117.15.074.106.115.165.172.24-.027-.036.17.235.21.275.22.21.538.033.518-.247-.003-.046-.014-.097-.037-.185-.09-.645-.122-.853-.194-1.235-.027-.142-.055-.277-.083-.404-.051-.225-.084-.363-.118-.492l-.013-.046-.095-.339c-.04-.145-.074-.278-.113-.442-.01-.037-.01-.037-.018-.075l-.115-.483c-.087-.36-.185-.857-.21-1.11-.06-.57-.02-1.052.138-1.235.122-.143.47-.2.664-.102.127.064.254.206.374.411.045.078.088.161.132.255l.096.216c.166.37.28.812.384 1.471.031.196.07.417.12.687l.028.16c.238 1.29.22 1.192.224 1.295.013.375.566.384.59.01.008-.12.005-.226-.008-.53l-.004-.086c-.012-.28-.011-.442.005-.534.03-.167.18-.355.319-.396.194-.058.407-.072.578-.037.163.033.353.159.408.253.066.113.122.286.166.5.034.173.058.36.075.557.006.062.01.11.014.188l.005.06.004.036.014.053c.006.109.006.109.442.149.13-.158.13-.158.127-.185.021-.093.034-.197.053-.393l.025-.254c.029-.268.065-.439.11-.513.056-.094.252-.223.34-.24.222-.038.465-.043.652-.006.085.016.292.176.341.253.1.159.199.671.254 1.18-.009.033-.009.033.127.226.465-.053.465-.053.452-.137.012-.03.022-.065.036-.118.033-.126.055-.2.088-.281.023-.057.047-.105.071-.144.095-.15.342-.251.558-.218.232.036.38.21.394.575.011.3.015.415.015.528V6.011c0 .385-.008.625-.03.925-.04.515-.108 1.059-.18 1.314-.075.261-.298.75-.474 1.004-.012.012-.066.076-.134.16-.114.142-.228.289-.335.435-.057.08-.11.156-.16.23-.193.287-.316.52-.356.713-.052.25-.07.381-.076.525l-.003.08c-.002.093-.003.13-.007.198-.004.072-.003.148.003.228.008.115 0 .273 0 .273s-.1-.01-.211-.007c-.136.003-.25-.002-.328-.014-.112-.018-.417-.4-.573-.696-.238-.455-.816-.432-1.054-.031-.213.364-.52.723-.61.734-.296.037-.753.042-1.634.026L5 12.106c-.338-.006-.325.05-.318-.01.02-.174.017-.141 0-.315-.03-.291-.12-.529-.307-.686-.096-.083-.212-.19-.445-.411-.266-.253-.35-.33-.452-.42l-.631-.703c-.07-.089-.678-1.13-.956-1.534-.108-.156-.149-.207-.564-.718zm7.496.003v2.727c0 .394.592.394.592 0V7.312c0-.394-.592-.394-.592 0zm-1.601 0l.012 2.737c.002.394.593.392.592-.002l-.013-2.738c-.002-.394-.593-.392-.591.002zm-.953 2.722l-.017-2.7c-.002-.395-.594-.391-.591.003l.016 2.7c.003.395.594.391.592-.003z"/>
                                </g>
                            </g>
                        </g>
                    </g>
                </g>
            </g>
        </g>
    </g>
</svg>
