<svg xmlns="http://www.w3.org/2000/svg" width="24" height="24" viewBox="0 0 24 24">
    <path fill="#5C5C5C" d="M18.024 17.035l.1.013c3.161.626 5.126 1.675 5.126 3.202 0 2.28-4.818 3.698-10.91 3.749L12 24C5.748 24 .75 22.572.75 20.25c0-1.524 1.956-2.571 5.103-3.199.407-.08.802.183.883.59.08.406-.183.8-.59.882C3.7 19.01 2.25 19.787 2.25 20.25c0 .334.88.928 2.531 1.4 1.884.539 4.461.85 7.219.85s5.335-.311 7.219-.85c1.652-.472 2.531-1.066 2.531-1.4 0-.465-1.458-1.243-3.917-1.73-.406-.08-.67-.475-.59-.882.074-.372.412-.625.78-.603zM12 0c4.142 0 7.5 3.358 7.5 7.5 0 1.63-1.038 4.048-2.834 7.09-1.182 2.001-2.525 3.993-3.757 5.69-.213.29-.55.461-.909.461s-.696-.171-.91-.463c-1.231-1.695-2.574-3.687-3.756-5.688C5.538 11.548 4.5 9.13 4.5 7.5 4.5 3.358 7.858 0 12 0zm0 1.5c-3.314 0-6 2.686-6 6 0 1.266.968 3.519 2.626 6.328.897 1.52 1.894 3.04 2.859 4.42l.514.727.515-.726c.828-1.184 1.679-2.47 2.47-3.77l.39-.651C17.032 11.019 18 8.766 18 7.5c0-3.314-2.686-6-6-6zm0 2.25c2.071 0 3.75 1.679 3.75 3.75 0 2.071-1.679 3.75-3.75 3.75-2.071 0-3.75-1.679-3.75-3.75 0-2.071 1.679-3.75 3.75-3.75zm0 1.5c-1.243 0-2.25 1.007-2.25 2.25S10.757 9.75 12 9.75s2.25-1.007 2.25-2.25S13.243 5.25 12 5.25z"/>
</svg>
