<svg xmlns="http://www.w3.org/2000/svg" width="24" height="24" viewBox="0 0 24 24">
    <path fill="#5C5C5C" d="M12 0c2.387 0 4.676.948 6.364 2.636 1.527 1.527 2.449 3.547 2.61 5.686C22.698 8.657 24 10.176 24 12v3c0 1.814-1.288 3.327-3 3.675v.075c0 2.071-1.679 3.75-3.75 3.75h-1.628c-.31.874-1.142 1.5-2.122 1.5H12c-1.162 0-2.13-.885-2.242-2.07l-.008-.18c0-1.243 1.007-2.25 2.25-2.25h1.5c.967 0 1.799.612 2.116 1.5h1.634c1.243 0 2.25-1.007 2.25-2.25-.828 0-1.5-.672-1.5-1.5v-7.5c0-.815.65-1.478 1.46-1.5-.17-1.712-.928-3.324-2.157-4.553C15.897 2.29 13.99 1.5 12 1.5c-3.89 0-7.088 2.961-7.463 6.753L4.5 8.25c.828 0 1.5.672 1.5 1.5v7.5c0 .828-.672 1.5-1.5 1.5h-.75C1.679 18.75 0 17.071 0 15v-3c0-1.824 1.302-3.343 3.026-3.68C3.372 3.668 7.258 0 12 0zm1.5 21H12c-.414 0-.75.336-.75.714l.003.11c.037.38.36.676.747.676h1.5c.414 0 .75-.336.75-.714l-.003-.11c-.037-.38-.36-.676-.747-.676zm.995-6.112c.306-.28.78-.257 1.06.049.278.306.256.78-.05 1.06-1.986 1.81-5.024 1.81-7.01 0-.306-.28-.328-.754-.05-1.06.28-.306.754-.328 1.06-.05 1.414 1.289 3.576 1.289 4.99 0zM4.5 9.75h-.75C2.507 9.75 1.5 10.757 1.5 12v3c0 1.243 1.007 2.25 2.25 2.25h.75v-7.5zm15.75 0h-.75v7.5h.75c1.243 0 2.25-1.007 2.25-2.25v-3c0-1.243-1.007-2.25-2.25-2.25zM9 9.235c.414 0 .75.336.75.75v1.312c0 .414-.336.75-.75.75s-.75-.336-.75-.75V9.985c0-.414.336-.75.75-.75zm6 0c.414 0 .75.336.75.75v1.312c0 .414-.336.75-.75.75s-.75-.336-.75-.75V9.985c0-.414.336-.75.75-.75z"/>
</svg>
