<svg xmlns="http://www.w3.org/2000/svg" width="48" height="48" viewBox="0 0 48 48">
    <g fill="none">
        <circle cx="24" cy="24" r="24" fill="#FFF"/>
        <g fill="#5C5C5C">
            <path d="M13.95.856c.543.008 1.035.284 1.338.743l.079.13L17.02 4.75l1.645-.104c.206-.013.403.067.546.211l.066.078.057.087.937 1.714c.113.207.123.456.032.67l-.054.103-.919 1.467 1.489 2.72c.565 1.033-.011 2.313-1.046 2.553l-.132.024-.13.013-8.649 1.79.448.819c.156.285.111.633-.09.865l-.084.082-.087.062-1.015.618 1.293 2.363c.527.963.293 2.169-.51 2.846l-.132.102-.133.089c-.978.596-2.217.277-2.832-.683l-.08-.135-2.257-4.127-.137.047c-1.414.422-2.947-.127-3.818-1.385l-.11-.168-.097-.168c-.937-1.71-.43-3.885 1.12-4.955l.17-.11 3.91-2.363 6.11-8.215c.278-.458.733-.748 1.243-.797M7.857 17.563l-1.196.73 2.23 4.077c.173.316.533.443.84.315l.091-.046c.303-.185.427-.58.3-.919M6.67 11.432l-3.43 2.09c-.647.395-1.052 1.136-1.052 1.932 0 .39.098.776.284 1.115.552 1.01 1.741 1.385 2.715.889l.137-.077 3.45-2.103m.709 1.296l-.385.234.229.419.384-.235m3.002-13.136l-4.917 6.612 2.32 4.244 7.667-1.587m-3.85-10.78c-.052 0-.103.015-.146.06l-.122.17 5.603 10.243.062-.01.057-.003c.144-.004.244-.16.207-.31l-.025-.062-5.452-9.97m4.188 3.699l-.496.031.723 1.323.274-.437" transform="translate(11 12)"/>
            <path stroke="#5C5C5C" stroke-width=".5" d="M24.303 2.165l-2.612 1.534c-.226.133-.307.435-.181.673.125.239.41.325.637.192L24.76 3.03c.226-.133.308-.435.182-.673-.126-.24-.412-.325-.638-.192h0zM24.03 7.29l-1.812-.512c-.25-.071-.507.085-.574.35-.067.264.082.535.332.606l1.81.512c.253.071.508-.088.575-.35.067-.264-.082-.536-.332-.606zM19.478.367l-.486 1.912c-.067.264.082.535.332.606.25.07.507-.085.574-.35l.486-1.912c.067-.264-.082-.535-.332-.606-.25-.07-.507.086-.574.35h0z" transform="translate(11 12)"/>
        </g>
    </g>
</svg>
