<svg xmlns="http://www.w3.org/2000/svg" width="100" height="72" viewBox="0 0 100 72">
    <g fill="none" fill-rule="evenodd">
        <path d="M0 0H100V72H0z"/>
        <g>
            <path fill="#FFF" d="M3.954 1.098h22.814c1.588 0 2.875 1.288 2.875 2.876v48.052c0 1.588-1.287 2.876-2.875 2.876H3.954c-1.588 0-2.876-1.288-2.876-2.876V3.974c0-1.588 1.288-2.876 2.876-2.876z" transform="translate(26 8)"/>
            <path fill="#F2FCFC" d="M8.085 3.294H26.41c1.786 0 3.233 1.475 3.233 3.294v.55H4.851v-.55c0-1.82 1.448-3.294 3.234-3.294z" transform="translate(26 8)"/>
            <path fill="#C1E0FF" d="M8.624 11.53H30.72c1.786 0 3.234 1.474 3.234 3.294v33.49c0 1.819-1.448 3.294-3.234 3.294H8.624c-1.786 0-3.234-1.475-3.234-3.294v-33.49c0-1.82 1.448-3.295 3.234-3.295z" opacity=".5" transform="translate(26 8)"/>
            <g>
                <path fill="#FFF" d="M8.1 0.938L6.15 2.353 1.022 13.128 2.297 15.385 13.823 15.385 15.309 13.128 9.45 1.369z" transform="translate(26 8) translate(7 18)"/>
                <path fill="#F69B31" fill-rule="nonzero" d="M8.1 0c1.148 0 2.197.648 2.71 1.675l5.07 10.142c.47.94.42 2.054-.132 2.947-.552.893-1.527 1.436-2.577 1.436H3.03c-1.05 0-2.025-.543-2.577-1.436C-.1 13.87-.15 12.756.32 11.817L5.39 1.675C5.903.648 6.952 0 8.1 0zm0 1.8c-.466 0-.891.263-1.1.68L1.93 12.622c-.19.38-.17.833.053 1.195.224.363.62.583 1.046.583H13.17c.426 0 .822-.22 1.046-.583.223-.362.244-.814.054-1.195L9.199 2.48c-.208-.416-.633-.68-1.099-.68zm0 9l.147.008c.676.073 1.203.646 1.203 1.342 0 .746-.604 1.35-1.35 1.35-.746 0-1.35-.604-1.35-1.35 0-.696.527-1.269 1.203-1.342L8.1 10.8zm0-6.3c.456 0 .832.339.892.778L9 5.4V9c0 .497-.403.9-.9.9-.456 0-.832-.339-.892-.778L7.2 9V5.4c0-.497.403-.9.9-.9z" transform="translate(26 8) translate(7 18)"/>
            </g>
            <path fill="#6680AD" fill-rule="nonzero" d="M4.312 2.196c-1.19 0-2.156.983-2.156 2.196v47.216c0 1.213.965 2.196 2.156 2.196H26.41c1.19 0 2.156-.983 2.156-2.196V4.392c0-1.213-.966-2.196-2.156-2.196H4.312zm0-2.196H26.41c2.38 0 4.311 1.966 4.311 4.392v47.216c0 2.426-1.93 4.392-4.311 4.392H4.312C1.93 56 0 54.034 0 51.608V4.392C0 1.966 1.93 0 4.312 0z" transform="translate(26 8)"/>
            <path fill="#6680AD" fill-rule="nonzero" d="M2.156 8.235v37.883h26.41V8.235H2.156zM1.078 6.04h28.565c.596 0 1.078.492 1.078 1.098v40.079c0 .606-.482 1.098-1.078 1.098H1.078C.483 48.314 0 47.822 0 47.216V7.137C0 6.531.483 6.04 1.078 6.04z" transform="translate(26 8)"/>
            <path fill="#C4D4E3" d="M15.318 2.745c-.717 0-1.305.597-1.305 1.328 0 .73.588 1.327 1.305 1.327.718 0 1.306-.597 1.306-1.327s-.588-1.328-1.306-1.328z" transform="translate(26 8)"/>
            <path fill="#6680AD" fill-rule="nonzero" d="M11.857 52.157c-.595 0-1.078-.492-1.078-1.098 0-.607.483-1.098 1.078-1.098h6.694c.595 0 1.078.491 1.078 1.098 0 .606-.483 1.098-1.078 1.098h-6.694z" transform="translate(26 8)"/>
            <g>
                <g fill="#FDC130">
                    <path d="M1.455 0C.655 0 0 .652 0 1.448c0 .797.655 1.449 1.455 1.449S2.91 2.245 2.91 1.448C2.91.652 2.256 0 1.455 0zM5.336 0c-.8 0-1.455.652-1.455 1.448 0 .797.654 1.449 1.455 1.449.8 0 1.455-.652 1.455-1.449C6.791.652 6.136 0 5.336 0zM9.216 0c-.8 0-1.455.652-1.455 1.448 0 .797.655 1.449 1.455 1.449s1.456-.652 1.456-1.449C10.672.652 10.017 0 9.216 0zM13.097 0c-.8 0-1.455.652-1.455 1.448 0 .797.655 1.449 1.455 1.449s1.455-.652 1.455-1.449C14.552.652 13.897 0 13.097 0z" transform="translate(26 8) translate(20.186 24.978) translate(16.68 7.85)"/>
                </g>
                <path fill="#FFF" d="M13.119 5.146h20.504c1.797 0 3.253 1.491 3.253 3.33v2.318c0 1.84-1.456 3.331-3.253 3.331H13.466c-.997.901-2.307 1.448-3.742 1.448-3.124 0-5.657-2.593-5.657-5.793S6.6 3.987 9.724 3.987c1.274 0 2.45.431 3.395 1.159z" transform="translate(26 8) translate(20.186 24.978)"/>
                <g>
                    <path fill="#FFF" d="M9.177.965H31.2c4.736 0 8.576 3.84 8.576 8.577 0 4.328-3.509 7.837-7.837 7.837H9.177C4.645 17.38.97 13.705.97 9.172.97 4.64 4.645.965 9.177.965zM42.213 6.759c1.333 0 2.414 1.08 2.414 2.413 0 1.334-1.08 2.414-2.414 2.414l-2.373.002c.089-.726.114-1.516.114-2.371 0-.882-.06-1.701-.182-2.46l2.441.002z" transform="translate(26 8) translate(20.186 24.978) translate(.187 .125)"/>
                    <path fill="#C1E0FF" d="M43.657 11.239v.834c0 1.017-.73 1.852-1.659 1.939-.028.385-.064.752-.11 1.101-.38 2.959-2.744 5.163-5.537 5.163H12.005C7.518 20.276.914 15.6.914 9.296c0-6.306 3.701-6.4 8.188-6.4h27.13c2.635 0 4.912 1.968 5.466 4.722.104.518.186 1.077.246 1.677.955.06 1.713.907 1.713 1.944z" opacity=".5" transform="translate(26 8) translate(20.186 24.978) translate(.187 .125)"/>
                    <path fill="#6680AD" fill-rule="nonzero" d="M41.716 9.598v-.852c0-.363-.34-.731-.872-.91.025.444.038.904.038 1.38 0 .476-.006.899-.018 1.286.52-.181.852-.545.852-.904zm-2.855 1.9c.058-.628.08-1.34.08-2.281 0-.844-.042-1.626-.128-2.344l-.13-1.08h1.455c1.899 0 3.519 1.264 3.519 2.953v.852c0 1.69-1.62 2.954-3.519 2.954h-1.375l.098-1.054z" transform="translate(26 8) translate(20.186 24.978) translate(.187 .125)"/>
                    <path fill="#FFF" d="M12.932 5.02h20.505c1.796 0 3.252 1.492 3.252 3.332v2.317c0 1.84-1.456 3.331-3.252 3.331H13.279c-.997.901-2.307 1.448-3.742 1.448-3.124 0-5.656-2.593-5.656-5.793s2.532-5.793 5.656-5.793c1.274 0 2.45.431 3.395 1.159z" transform="translate(26 8) translate(20.186 24.978) translate(.187 .125)"/>
                    <path fill="#6680AD" fill-rule="nonzero" d="M1.94 9.655c0 4.275 3.315 7.724 7.383 7.724H31.8c3.86 0 7.006-3.273 7.006-7.333 0-1.666-.126-3.087-.375-4.261-.48-2.259-2.389-3.854-4.58-3.854H9.324c-4.068 0-7.383 3.449-7.383 7.724zM33.852 0c3.122 0 5.81 2.247 6.477 5.386.28 1.316.417 2.869.417 4.66 0 5.107-3.995 9.264-8.946 9.264H9.323C4.164 19.31 0 14.978 0 9.655 0 4.332 4.164 0 9.323 0h24.529z" transform="translate(26 8) translate(20.186 24.978) translate(.187 .125)"/>
                    <path fill="#6680AD" fill-rule="nonzero" d="M9.701 14.241c-2.545 0-4.608-2.053-4.608-4.586 0-2.533 2.063-4.586 4.608-4.586 2.546 0 4.609 2.053 4.609 4.586 0 2.533-2.063 4.586-4.609 4.586zm0-1.448c1.742 0 3.153-1.405 3.153-3.138 0-1.733-1.411-3.138-3.153-3.138-1.74 0-3.152 1.405-3.152 3.138 0 1.733 1.411 3.138 3.152 3.138z" transform="translate(26 8) translate(20.186 24.978) translate(.187 .125)"/>
                </g>
                <g fill="#F69B31">
                    <path d="M1.94 0C.873 0 0 .869 0 1.931s.873 1.931 1.94 1.931 1.94-.869 1.94-1.931S3.008 0 1.94 0zM6.791 0c-1.067 0-1.94.869-1.94 1.931s.873 1.931 1.94 1.931 1.94-.869 1.94-1.931S7.858 0 6.791 0zM11.642 0c-1.067 0-1.94.869-1.94 1.931s.873 1.931 1.94 1.931 1.94-.869 1.94-1.931S12.71 0 11.642 0zM16.493 0c-1.068 0-1.94.869-1.94 1.931s.872 1.931 1.94 1.931c1.067 0 1.94-.869 1.94-1.931S17.56 0 16.493 0z" transform="translate(26 8) translate(20.186 24.978) translate(16.68 7.85)"/>
                </g>
            </g>
        </g>
    </g>
</svg>
