<svg xmlns="http://www.w3.org/2000/svg" width="24" height="24" viewBox="0 0 24 24">
    <g fill="none" fill-rule="evenodd">
        <g fill="#0040A8" fill-rule="nonzero">
            <g>
                <g>
                    <path d="M15.75 9.755c3.314 0 6 2.686 6 6 0 1.386-.47 2.662-1.26 3.678l3.29 3.286c.293.293.293.768 0 1.061-.292.293-.767.293-1.06 0l-3.29-3.286c-1.016.79-2.293 1.261-3.68 1.261-3.314 0-6-2.686-6-6s2.686-6 6-6zm0 1.5c-2.485 0-4.5 2.015-4.5 4.5s2.015 4.5 4.5 4.5c1.237 0 2.357-.499 3.17-1.306l.011-.014.014-.013c.807-.812 1.305-1.931 1.305-3.167 0-2.485-2.015-4.5-4.5-4.5zM12.75 0c.414 0 .75.336.75.75v.748h2.25c1.19 0 2.166.925 2.245 2.096l.005.154v3.734c0 .414-.336.75-.75.75s-.75-.336-.75-.75l.001.014H1.5v8.23c0 .38.282.693.648.743l.102.007h5.229c.414 0 .75.336.75.75s-.336.75-.75.75H2.25c-1.243 0-2.25-1.007-2.25-2.25V3.748c0-1.243 1.007-2.25 2.25-2.25H4.5V.75c0-.38.282-.693.648-.743L5.25 0c.414 0 .75.336.75.75v.748h6V.75c0-.38.282-.693.648-.743zM4.5 2.998H2.25c-.414 0-.75.336-.75.75v2.248h15V3.748c0-.38-.282-.693-.648-.743l-.102-.007H13.5v.75c0 .38-.282.693-.648.743l-.102.007c-.414 0-.75-.336-.75-.75v-.75H6v.75c0 .38-.282.693-.648.743l-.102.007c-.414 0-.75-.336-.75-.75v-.75z" transform="translate(-950 -232) translate(826 228) translate(124 4)"/>
                </g>
            </g>
        </g>
    </g>
</svg>
